<?xml version="1.0" encoding="utf-8"?>
<!-- Generator: Adobe Illustrator 19.0.0, SVG Export Plug-In . SVG Version: 6.00 Build 0)  -->
<svg version="1.1" xmlns="http://www.w3.org/2000/svg" xmlns:xlink="http://www.w3.org/1999/xlink" x="0px" y="0px"
	 viewBox="0 0 1382 853" style="enable-background:new 0 0 1382 853;" xml:space="preserve">
<style type="text/css">
	.st0{fill:#00FF12;}
	.st1{fill:none;stroke:#000000;stroke-miterlimit:10;}
	.st2{fill:#FFFFFF;stroke:#000000;stroke-miterlimit:10;}
	.st3{fill:#424242;}
	.st4{fill:#B2B2B2;}
	.st5{fill:#D3D3D3;}
	.st6{fill:#B2B2B2;stroke:#000000;stroke-miterlimit:10;}
	.st7{fill:#FF0000;}
	.st8{fill:#FFFDFD;stroke:#000000;stroke-miterlimit:10;}
</style>
<g id="texte_print">
	<g id="XMLID_92_">
		<path id="XMLID_34_" class="st0" d="M406.7,176.2c-8.8,6.4-17.6,12.8-26.4,19.3c-7,5.2-14,10.4-20.1,16.7
			c-7,7.3-12.4,15.9-17.9,24.5c7.2-2.9,14.1-6.8,20.3-11.4c-6.5,8-13,16-19.6,24c6.3-0.3,12.4-3.1,16.8-7.7
			c-5.6,5.3-10.8,10.9-15.6,17c13-5.8,25.8-11.9,38.4-18.5c-3.8,5.7-7.2,11.6-10.2,17.7c14.2-9.7,25.1-23.8,39.8-32.5
			c6.3-3.8,13.3-6.5,19.5-10.5c10.3-6.7,18.1-16.5,25.7-26.2c-15.2,7-30.8,13.3-46.6,18.6c7.8-7.5,15.2-15.4,22.3-23.7
			c-9.7,5.4-20,9.5-30.7,12.3c6-6.5,12-13.1,18-19.6c-6,4.3-12.7,7.6-19.7,9.7c3.2-3.5,5.8-7.5,7.9-11.7c-2.6,1.1-4.9,2.7-6.8,4.8"
			/>
		<path id="XMLID_18_" class="st1" d="M359.3,215.7c0.2-3.3,1.7-6.4,3.2-9.4c2.3-4.6,4.7-9.1,7.3-13.6c0.3,7,1.9,14,4.7,20.4"/>
		<path id="XMLID_19_" class="st1" d="M362,205.9c2.8-0.2,5.7-0.3,8.5-0.5"/>
		<path id="XMLID_20_" class="st1" d="M382.4,193.2c-0.7,7.2-0.1,14.4,1.7,21.4c3.9-6.2,6-13.6,6-21"/>
		<path id="XMLID_22_" class="st1" d="M397.5,191.2c-1.3,5.1-1.8,10.5-1.6,15.7c3.7-0.5,7.3-1.1,11-2"/>
		<path id="XMLID_23_" class="st1" d="M395.9,198.7c2.4,0.2,4.8,0.1,7.2-0.4"/>
		<path id="XMLID_25_" class="st1" d="M396.4,192.4c3.3,0.2,6.6-0.1,9.8-0.8"/>
		<path id="XMLID_27_" class="st1" d="M423.8,193.4c-3.2-1.9-7.2-3.9-10.5-2.1c-0.5,0.3-1,0.7-1.3,1.2c-0.2,0.6-0.2,1.2-0.1,1.8
			c0.3,2.2,0.6,4.4,1.5,6.4c0.9,2,2.6,3.7,4.8,4.2c2.1,0.4,4.7-0.8,5.1-3"/>
		<path id="XMLID_33_" class="st1" d="M367.5,223.3c-0.1,8,5,15.1,9.9,21.4c2-2.2,3.4-4.9,4.1-7.9c0.5-2,0.6-4.1,1.1-6.2
			c0.7-2.7,2-5.3,3.3-7.8"/>
		<path id="XMLID_35_" class="st1" d="M394.7,223.2c-0.4-0.6,0.5-1.1,1.2-1.3c2.8-0.6,5.6-1.1,8.4-1.7c2.2-0.4,4.7-0.8,6.3,0.7
			c2.1,1.9,1,5.8-1.5,7.3c-2.4,1.5-5.5,1.4-8.4,1.3c1.3-1.2,3.3-1.4,5-1c1.7,0.5,3.3,1.5,4.7,2.5c0.6,0.4,1.3,0.9,1.7,1.6
			c0.6,1.1,0.3,2.5-0.4,3.5c-0.7,1-1.7,1.7-2.8,2.4c-2.2,1.5-4.5,3-7.2,3.4c-4.8,0.6-9.1-2.8-12.7-5.9"/>
	</g>
	<path id="XMLID_36_" class="st1" d="M248.3,92.6c-1.6,6.3-3.3,12.6-5.2,18.9c-0.5,1.8-1.1,3.7-2.4,5.1c-0.7,0.8-1.7,1.5-2.7,1.2
		c-0.6-0.2-1.1-0.6-1.5-1.1c-1.4-1.5-2.8-3.1-3.6-5c-0.8-1.9-0.9-4.2,0.2-5.9"/>
	<path id="XMLID_38_" class="st1" d="M257,93.5c-2.4,9.6-4.7,19.2-6.7,28.9c4.7-2.6,9.5-5.3,14.2-7.9"/>
	<path id="XMLID_39_" class="st1" d="M253.1,108.6c3.8-2.2,7.7-4.4,11.5-6.5"/>
	<path id="XMLID_60_" class="st1" d="M255.8,95.2c3.2-1.5,6.6-2.6,10.1-3.3"/>
	<path id="XMLID_62_" class="st1" d="M274.8,91c-0.8,5.2-1.1,10.5-0.8,15.8c0.1,1.9,0.6,4.2,2.4,4.8c0.9,0.3,1.9,0,2.8-0.4
		c3.1-1.7,4.3-5.5,4.4-9c0.1-3.5-0.6-7-0.1-10.5c-0.6,6.3-0.7,12.6-0.4,18.8c0,0.7,0.1,1.6,0.7,2.1c0.5,0.5,1.2,0.5,1.9,0.5
		c2.3,0,4.6-0.3,6.9-1"/>
	<path id="XMLID_63_" class="st1" d="M295.1,87.5c-1,6.3-2,12.7-3,19"/>
	<path id="XMLID_64_" class="st1" d="M295,85.6c4.4-0.3,8.8,2.5,10.4,6.6s0.5,9.1-2.6,12.1s-8,4.1-12.2,2.8"/>
	<path id="XMLID_67_" class="st1" d="M310.5,96.5c3-1.3,5.9-3.1,8.3-5.4c-1,6.8-2.2,13.5-3.6,20.2c1.6,0.8,3.8-0.1,4.5-1.7"/>
	<path id="XMLID_68_" class="st1" d="M319.6,84.6c0.7-0.8,1.3-1.7,2-2.5"/>
	<path id="XMLID_69_" class="st1" d="M272.3,135.8c-1.7-2.6-0.6-6.3,1.8-8.2c2.4-1.9,5.7-2.3,8.8-2.1c0.7,0,1.4,0.1,2,0.5
		c0.8,0.4,1.3,1.2,1.7,2c1.8,3.7,1.4,8.2-0.3,12c-1.7,3.7-4.7,6.8-7.8,9.5c-1.5,1.3-3.5,2.6-5.4,2c-0.8-1.9,0.3-4.2,1.9-5.5
		c1.6-1.3,3.7-1.8,5.8-2.2c0.8-0.2,1.7-0.4,2.6-0.1c1.1,0.4,1.7,1.5,2.4,2.4c3.1,3.8,9.5,4.2,13,0.8"/>
	<path id="XMLID_70_" class="st1" d="M298.7,128.3c2.8-2.3,6.2-3.9,9.7-4.6c2.5-0.5,5.7-0.4,7.1,1.8c0.5,0.8,0.7,1.8,0.7,2.7
		c-0.1,2.1-1.3,4.1-3.1,5.1s-4.2,1-6-0.1c1.2-0.9,2.5-1.6,3.9-2c0.5-0.1,1-0.2,1.4,0.1c0.2,0.2,0.4,0.4,0.5,0.7
		c1.2,2.5,2.5,5,3.7,7.6c0.8,1.7,1.4,4.1-0.2,5c-0.7,0.4-1.7,0.2-2.5,0c-3.4-0.9-6.6-2.5-9.3-4.8"/>
	<path id="XMLID_72_" class="st1" d="M337.9,122c0.4,6.2,0.2,12.4-0.6,18.6c-0.1,1-0.3,2.1-1,2.8c-0.7,0.6-1.6,0.8-2.5,0.7
		c-3-0.3-5.5-3.1-5.5-6.1"/>
	<path id="XMLID_73_" class="st1" d="M345.5,121.5c0,3.5,0,7.1,0,10.6c0,1.5,0,3.1,0.9,4.2c1.4,1.9,4.6,1.8,6.5,0.3
		c1.9-1.5,2.8-3.9,3.4-6.2c0.9-3.4,1.3-6.9,1.2-10.5"/>
	<path id="XMLID_77_" class="st1" d="M362,127.5c2-0.9,3.6-2.5,4.7-4.4c0.6,6.1,1,12.2,1,18.4"/>
	<path id="XMLID_79_" class="st1" d="M367.5,116.5c-0.3-0.9,0.1-2,1-2.5"/>
	<path id="XMLID_80_" class="st1" d="M373.9,129c1.3-2.7,2.6-5.4,4-8.1c0,5.3,0.1,10.7,0.1,16c-0.1-4.5-0.1-9,0-13.5
		c0-1.5,0.5-3.5,2-3.5c0.7,0,1.3,0.4,1.7,0.9c3.8,3.8,4.4,9.6,4.2,15c-0.1,1.5-0.2,3,0.3,4.4s1.7,2.7,3.2,2.7c1.5,0,2.9-1.7,2.2-3"
		/>
	<path id="XMLID_82_" class="st1" d="M337.6,116.1c1.4-1,2.4-2.5,2.8-4.1"/>
	<path id="XMLID_84_" class="st1" d="M250,87c0.7-1.2,1.3-2.3,2-3.5"/>
	<path id="XMLID_85_" class="st1" d="M253.1,176.7c6-3.9,11.9-7.7,17.9-11.6c-0.6,2.9-1.9,5.6-2.8,8.4c-2.4,6.8-2.7,14.2-3,21.4"/>
	<path id="XMLID_86_" class="st1" d="M288,166.5c-2.6-0.4-5.1,1.2-6.9,3.1c-5.7,5.9-7,14.8-6.6,22.9c0,1.2,0.2,2.4,0.9,3.3
		c0.6,0.8,1.6,1.2,2.6,1.4c3.4,0.7,7.2-0.8,9-3.7c1.8-3,1.2-7.2-1.4-9.4c-2.6-2.2-7.1-2-9.3,0.7c-2,2.5-1.9,6-1.6,9.2"/>
	<path id="XMLID_87_" class="st1" d="M303.7,159.9c-3.7,9-5.5,18.9-5,28.6"/>
	<path id="XMLID_89_" class="st1" d="M313.6,160c-1.2,9.5-2.3,19-3.1,28.5"/>
	<path id="XMLID_90_" class="st1" d="M298.5,174.1c5-0.2,10-0.4,15-0.7"/>
	<path id="XMLID_91_" class="st1" d="M251,206.1c20.4,0.1,40.9-1.7,61-5.2"/>
	<path id="XMLID_94_" class="st1" d="M281.7,222.9c0.2-2.1-2.9-3.4-4.7-2.2c-1.8,1.2-2.1,3.8-1.4,5.8c0.4,1.2,1.5,2.5,2.7,2.3
		c1-0.2,1.6-1.3,2-2.2c0.6-1.6,1.2-3.3,1.5-5c-0.6,1.7-1.2,3.5-0.9,5.2c0.2,1.8,1.6,3.5,3.3,3.7c1.6,0.1,3-1.1,3.6-2.6
		s0.5-3.1,0.3-4.7c-0.2-1.5-0.4-2.9-1-4.2c-1.2-2.6-4-4.5-6.9-4.6c-2.9-0.2-5.8,1.4-7.3,3.9c-1.7,2.8-1.5,6.3-1.4,9.6
		c0.1,1.5,0.1,3.1,1,4.3c1.7,2.4,5.3,2.2,8.2,1.7"/>
	<path id="XMLID_95_" class="st1" d="M257.8,252.1c-0.7-3.8-1.2-7.7-1.3-11.7c2,0,4,0,6-0.1c0.4,0,0.8,0,1.1,0.3
		c0.3,0.2,0.4,0.6,0.4,0.9c0.1,1.7-1,3.2-2.4,4.1c-1.4,0.9-3.1,1.2-4.7,1.5"/>
	<path id="XMLID_96_" class="st1" d="M275.4,247.7c-1.4-1-2.9-2.1-4.6-2.3c-1.7-0.1-3.7,1.1-3.6,2.9c0.1,1.2,1.1,2.2,2.3,2.6
		c1.2,0.4,2.4,0.3,3.6,0.2c0.3,0,0.6-0.1,0.9-0.3c0.2-0.2,0.3-0.5,0.4-0.8c0.2-1.8-1.3-3.7-3.1-3.8"/>
	<path id="XMLID_97_" class="st1" d="M266.4,243.7c1.6-1.3,3.3-2.5,4.9-3.8c0.6,0.7,0.9,1.6,0.8,2.5c0.4,0.2,0.8,0.3,1.3,0.5"/>
	<path id="XMLID_98_" class="st1" d="M280,240.4c-0.2,2.7-0.3,5.4-0.5,8.2c1.5,0.3,3.2-0.1,4.2-1.3"/>
	<path id="XMLID_100_" class="st1" d="M287.4,239.1c-0.4,3.9-0.2,7.9,0.5,11.8c1-0.4,1.9-0.9,2.9-1.3"/>
	<path id="XMLID_101_" class="st1" d="M288.6,244.3c0.9-0.1,1.7-0.3,2.6-0.4"/>
	<path id="XMLID_102_" class="st1" d="M287.2,238.9c2-0.4,4.1-0.8,6.1-1.2"/>
	<path id="XMLID_103_" class="st1" d="M264.3,264.6c0.1-2.7,0.1-5.5-0.2-8.2c1.8,0,3.7,0,5.5,0.1c-0.6,2.8-4,4.5-6.6,3.5"/>
	<path id="XMLID_104_" class="st1" d="M274.3,257.3c-0.6,2.4-1,4.9-1,7.3"/>
	<path id="XMLID_105_" class="st1" d="M277.3,257.3c0.7,2.4,0.7,5,0,7.4"/>
	<path id="XMLID_106_" class="st1" d="M272.5,261.9c1.8-0.8,3.7-1.3,5.7-1.5"/>
	<path id="XMLID_108_" class="st1" d="M289,256c-1.5,0-3.1,0.5-4.1,1.5c-1.1,1-1.6,2.8-0.9,4.1c0.7,1.3,2.6,1.9,3.8,1
		c0.8-0.7,1-1.8,1.2-2.9c0.1-0.9,0.3-1.8-0.1-2.7s-1.3-1.5-2.1-1.1"/>
	<line id="XMLID_109_" class="st1" x1="296" y1="263.5" x2="296" y2="255.5"/>
	<line id="XMLID_110_" class="st1" x1="292.5" y1="256" x2="301.5" y2="256"/>
	<path id="XMLID_112_" class="st1" d="M306.1,256.9c-1.8,1.7-3.1,4-3.4,6.5c0,0.4-0.1,0.8,0.1,1.1c0.2,0.3,0.5,0.5,0.8,0.6
		c2.5,1,5.7-0.8,6.1-3.5c0.4-2.7-2.1-5.3-4.8-5.1"/>
	<path id="XMLID_17_" class="st2" d="M1177,398c-1.5,0.1-2.5-1.7-4-2c-1.5-0.3-3,1.2-3,2.7c0,1.5,1.1,2.9,2.5,3.7
		c1.3,0.8,2.9,1,4.4,1.2c0.3,1.5-0.4,3.2-1.6,4.1c-2.4,0.6-5.1,0.3-7.3-0.8"/>
	<path id="XMLID_40_" class="st2" d="M1180.5,407c0.3-2.2,0.6-4.4,1-6.6c0.2-1.7,0.7-3.6,2.3-4.2c0.3-0.1,0.7-0.2,1.1,0
		c0.2,0.2,0.4,0.4,0.5,0.7c1.4,3,2.1,6.3,2,9.6"/>
	<path id="XMLID_41_" class="st2" d="M1179.5,402c2.7,0.2,5.4-0.2,8-1"/>
	<path id="XMLID_42_" class="st1" d="M1191.1,407.5c-0.2-2.8-0.4-5.7-0.5-8.5c0-0.8-0.1-1.6,0.3-2.4c0.3-0.7,1.2-1.3,1.9-1
		c1.1,0.4,1,2,1,3.1c0,1.2,1,2.7,2,2.1c0.4-0.2,0.5-0.7,0.7-1.1c0.7-1.8,2.1-3.2,3.8-3.9c0.4,3.9,0.5,7.8,0.3,11.7"/>
	<path id="XMLID_43_" class="st1" d="M1203.5,395c-0.1,3.4,0.4,6.7,1.5,9.9c3.4-2,5.1-6.6,3.8-10.3"/>
	<path id="XMLID_44_" class="st1" d="M1213.7,394.3c-0.8,1.6-1.3,3.3-1.7,5.1c-0.3,1.6-0.4,3.3,0.6,4.6c1,1.2,3.5,1,3.8-0.5"/>
	<path id="XMLID_46_" class="st1" d="M1212,399c1.9,0.1,3.8-0.3,5.5-1"/>
	<path id="XMLID_47_" class="st1" d="M1213.5,395.1c1.3-0.2,2.7-0.4,4-0.6"/>
	<path id="XMLID_48_" class="st1" d="M1220.6,394.5c-0.2,3.1-0.4,6.3-0.6,9.4c1.9,0.4,3.8,0,5.5-0.9"/>
	<path id="XMLID_49_" class="st1" d="M1169,413.5c-1.1,4.4-1.4,9-0.9,13.5"/>
	<path id="XMLID_50_" class="st1" d="M1176,413c-1.7,4.2-2.9,8.5-3.5,13"/>
	<path id="XMLID_51_" class="st1" d="M1168,420.4c2.3-0.5,4.7-1,7-1.5"/>
	<path id="XMLID_53_" class="st1" d="M1176.4,423.9c1.1-0.9,1.5-2.5,1.7-3.9c0.2-1.5,0.2-3,1-4.2c0.8-1.2,2.7-1.9,3.8-0.9
		c1.1,3.5,1.6,7.1,1.7,10.7"/>
	<path id="XMLID_113_" class="st1" d="M1177,418.5c3,0.2,6,0.4,9,0.6"/>
	<path id="XMLID_115_" class="st1" d="M1192.9,414.9c0.3-1.5-2-2.4-3.2-1.5c-1.2,0.9-1.4,2.7-1.2,4.2c0.3,2.4,1.3,4.8,2.7,6.7
		c1.6,0.5,3.5-0.7,3.6-2.4"/>
	<path id="XMLID_117_" class="st1" d="M1199,412.5c0,3.8,0,12,0,12"/>
	<path id="XMLID_118_" class="st1" d="M1199.9,417.8c1.6-1.2,3.2-2.4,4.8-3.7"/>
	<path id="XMLID_119_" class="st1" d="M1200,418.4c2.5,0.7,4.6,2.4,5.8,4.7"/>
	<path id="XMLID_120_" class="st1" d="M1208.1,412c-0.3,3.2-0.1,6.5,0.5,9.7c1.7-1.7,2.4-4.2,1.9-6.6c-0.2,2.5,0.8,5.2,2.6,6.9
		c1.1-3.6,1.8-7.3,1.9-11.1"/>
	<path id="XMLID_121_" class="st1" d="M1219.8,411.4c-0.8,3.6-1.2,7.3-1.3,11.1"/>
	<path id="XMLID_123_" class="st1" d="M1220.5,408.5c0.4-0.3,0.7-0.6,1.1-0.9"/>
	<path id="XMLID_124_" class="st1" d="M1226.7,409.9c-1.6,4.2-2.3,8.7-2.1,13.2c1.7-1.3,3.3-2.8,4.8-4.3"/>
	<path id="XMLID_125_" class="st1" d="M1233.3,409.4c-1.1,3.9-1.7,7.8-1.8,11.9c1.3-0.8,2.6-1.6,4-2.4"/>
	<path id="XMLID_126_" class="st1" d="M1172.1,438c-0.4-1.4,0.5-2.9,1.8-3.5c1.3-0.7,2.8-0.6,4.2-0.5c0.4,0.1,0.9,0.1,1.1,0.4
		c0.2,0.3,0.3,0.7,0.3,1c0.2,3.1-0.8,6.1-1.9,9.1c-0.5,1.3-1,2.7-2.3,3.4c-1.2,0.6-3.2-0.4-2.9-1.7c0.3-1.3,2.2-1.4,3.3-0.6
		s1.7,2,2.8,2.8s2.9,0.9,3.4-0.4"/>
	<path id="XMLID_127_" class="st1" d="M1187.5,432.5c-1.3,2.3-2.1,4.8-2.2,7.4c-0.1,1.1,0,2.3,0.5,3.3c0.5,1,1.7,1.7,2.8,1.4
		c1-0.3,1.6-1.2,2-2.2c1-2.7,0.6-5.9-1.2-8.1c-0.5-0.7-1.2-1.3-2-1.4c-0.8-0.2-1.8,0.2-2,1"/>
	<path id="XMLID_128_" class="st1" d="M1190.9,434.5c-0.3,3.5-2.1,6.9-4.9,9.1"/>
	<path id="XMLID_130_" class="st1" d="M1193.6,436.9c2.6-1,4.8-2.9,6.3-5.3c-0.4,4.8-0.8,9.6-1.2,14.4"/>
	<path id="XMLID_131_" class="st1" d="M1208.1,430.9c-4.4,2.9-6.6,8.7-5.3,13.8c1.5,0.6,3.1,1.2,4.8,0.9c1.6-0.2,3.2-1.6,3-3.3
		c-0.1-0.7-0.4-1.3-0.9-1.8c-1.3-1.5-3.5-2.2-5.3-1.4c-1.8,0.9-2.5,3.5-1.1,4.9"/>
</g>
<g id="elpresidente">
	<path id="XMLID_24_" d="M785.4,219.9c0.5,9.2,5.6,17.4,9.3,25.8c6.1,13.9,8.5,29.5,6.8,44.6c-33.3-9.7-61.4-31.6-88.6-53.1
		c2.5-2.9-0.8-7-3.6-9.5c-12.3-11.2-18.6-27.4-24.5-43c-0.8-2.1-1.6-4.3-1.6-6.5c0-1.9,0.6-3.8,1.2-5.6c1.1-3.6,2.3-7.1,3.4-10.7
		c3.2-9.8,6.4-19.9,12.5-28.2c6.1-8.4,15.6-14.9,25.9-14.7c3.7,0.1,7.5,1,10.2,3.5c2.7,2.5,4,6.7,2.4,10c-1.2,2.6-4,4.6-4.1,7.5
		c0,1.5,0.8,2.9,1.6,4.2c17,28.8,34.1,57.5,51.1,86.3"/>
	<path id="XMLID_12_" d="M652.2,121.7c-9.1-17-26.5-29.4-45.5-32.5c-13.8,20-20.2,45-17.7,69.2c1.1,10.6,3.8,21.5,0.8,31.7
		l-4.5-60.6c-18.3,51.9-18,108.1-23.4,162.9c-9.6,97.4-37.9,194.3-27.3,291.6c5.2,1.1,10.4,2.1,15.6,3.2c0.2-5.1,0.5-10.2,0.7-15.4
		c13,15.5,34.5,23.2,54.4,19.6c-4.5-12.1-14.2-22.1-26-27.1c-3.5-1.5-7.5-2.7-9.5-5.9c-2-3.1-1.5-7.1-1-10.8
		c3.4-23.9,6.9-47.8,10.3-71.6c1.7-11.9,3.4-23.9,7-35.4c5.5-18.2,15.6-35.8,14.5-54.8c-2.9,56.8-5.8,113.7-8.7,170.5
		c6,0,12.1,0.1,18.1,0.1c0.2-5.3,0.5-10.5,0.7-15.8c11.1,5.2,22.3,10.4,33.4,15.6c8.9,4.2,21.8,7.2,26.6-1.4
		c4-7.1-2.1-15.9-9.2-19.9c-7.1-4-15.6-5.7-21.4-11.4c-10.6-10.2-7.7-27.6-4.1-41.8c8.3-32.6,16.8-65.3,31-95.8
		c6.8-14.4,14.8-28.3,19.9-43.5c10.8-32.4,8.9-72.4,35.1-94.3"/>
	<polygon id="XMLID_1_" class="st3" points="670.5,652.6 615.5,592.7 615.5,295.5 670.5,327 	"/>
	<path id="XMLID_4_" class="st4" d="M668.8,650.4c51-2.7,102.1-2.4,153,0.9c-4.2-34.3,6.1-68.7,5.8-103.2c-0.2-17-2.9-33.9-3.9-50.8
		c-1.8-30.6,2.3-61.3,3.2-92c0.8-27.4-1-54.8-5.3-81.8c-51.7,2.6-103.6,2.6-155.3,0.1c-14.8,42.5-5.6,88.9-2.5,133.8
		c2.3,34.1,0.9,68.4,1.3,102.6c0.3,31,2,61.9,3.8,92.9"/>
	<path id="XMLID_2_" class="st5" d="M820.7,323.7c-47.3,1.1-94.7,2.2-142.1,2.1c-4.3,0-8.6,0-12.7-1.2c-4-1.2-7.6-3.3-11.2-5.5
		c-13.2-8-26.4-16.1-39.6-24.1c38.7-0.3,77.3-0.5,116-0.8c10.7-0.1,21.6-0.1,31.6,3.4c5.2,1.8,10,4.4,14.8,7.1
		c14,7.7,28,15.5,42,23.2"/>
	<path id="XMLID_3_" class="st2" d="M584,199.1c1.9,9.9,6.9,18.9,11.8,27.6c19.6,35,39.2,70.1,58.9,105.1c1.7,2.9,3.3,5.9,4.1,9.2
		c0.8,3.3,0.6,6.8,0.5,10.2c-0.3,10.5,0.5,21.1,2.4,31.4c0.4,2,1.3,4.5,3.3,4.6c2.1,0.1,3.3-2.4,3.9-4.4c2.7-10.8,3.3-22.2,1.7-33.3
		c0.6,7.6,1.1,15.3,1.7,22.9c0.2,2.8,0.5,5.7,2.1,8c1.6,2.3,5.2,3.4,7.3,1.6c1.1-1,1.6-2.5,1.9-3.9c2.1-8.9,2.1-18.3,0-27.1
		c2.6,11.3,4.4,22.7,5.2,34.3c2.3,1.4,4.7-1.8,5.5-4.4c2.6-8.7,3.6-17.8,3-26.9c1.9,7.4,3.9,14.7,5.8,22.1
		c4.1-9.2,3.7-19.8,1.1-29.5c-2.7-9.7-7.6-18.6-12.4-27.4c-17.3-31.7-34.7-63.3-52-95"/>
	<path id="XMLID_5_" class="st6" d="M750.6,305.3c7.8-2.4,10.7-11.7,12-19.7c4.1-25.3,3.6-51.2,3-76.8c-0.2-8.8-0.4-17.9-4.2-25.8
		c-3.8-7.9-12.2-14.4-20.9-13c-3.1-2.6-3.5-7.7-1-10.9c2.6-3.1,7.7-3.6,10.8-1.1c2.2,1.7,3.2,4.5,4.6,6.9c3.2,5.7,8.5,10,12,15.6
		c6.1,9.8,5.8,22.1,5.3,33.5c-0.7,17.8-1.5,35.5-2.2,53.3c-0.6,14.9-1.5,30.6-9.7,43"/>
	<path id="XMLID_13_" class="st1" d="M739.7,151.1c-3.1-5-6.2-11.6-2.8-16.4c1.1-1.5,2.7-2.7,3.4-4.4c1.5-3.9-2.8-7.7-6.9-8.5
		c-4.1-0.8-8.6-0.2-12.2-2.3"/>
	<path id="XMLID_14_" class="st1" d="M693.6,154.5c-10.8,23.1-23.8,45.3-38.7,66c-3.2-23.8,12.3-45.7,16.9-69.3
		c11.1,0.5,22.3,0.9,33.1,3.5c1.5,0.4,3.2,0.9,3.8,2.4c0.6,1.7-0.6,3.4-1.8,4.7c-7.9,8.5-17.3,15.5-27.7,20.6
		c2.8,3.9,5.1,8.1,6.8,12.5c1.3,3.4,2.3,7.4,0.5,10.5c-1.5,2.6-4.5,4-7.3,5.1c-7.1,2.9-14.3,5.8-21.4,8.8c-7.2-12-8-27-5.9-40.9
		c0.1-0.7,0.3-1.4,0.8-1.8c0.5-0.4,1.3-0.3,1.9-0.1c3.7,0.7,7.3,1.7,10.9,3c0.2-1.5-1.8-2.2-3.2-2.8c-3.4-1.4-4.8-5.5-4.8-9.2
		c0-3.7,0.9-7.3,0.7-10.9c-0.2-3.2-1.3-6.4-0.3-9.4c0.9-3,5.4-5,7.2-2.5"/>
	<path id="XMLID_16_" class="st2" d="M766.4,182.4c3.3-2.7,8.2-1.2,12.2,0.4c6.2,2.5,12.9,5.7,15.2,11.9c0.6,1.7,0.9,3.7,0.3,5.4
		c-1.3,4.2-6,6-10.2,7.3c-2,0.6-4,1.2-6.1,1.9c-1.9,0.6-4,1.2-5.9,0.6s-3.6-2.7-2.8-4.5c5.6,1,11.1,2.8,16.2,5.2c1,0.5,2,1,2.7,1.8
		c3.2,3.1,1.2,9.1-2.7,11.1s-8.8,0.9-12.8-1c3.7-1.8,8-2.4,12.1-1.6c1.8,1.6,1.3,4.7-0.5,6.3s-4.2,2-6.6,2.2
		c-8.8,0.6-17.9-1.7-25.3-6.4c-0.8-0.5-1.5-1-1.8-1.9c-0.7-2.1,2.1-3.5,4.2-4c2.7-0.6,5.3-1.2,8-1.8c-4.9,1.8-10.7,0.7-14.6-2.7
		c4.6-4.2,10.3-7.1,16.4-8.4"/>
	<path id="XMLID_15_" class="st2" d="M744.3,206.9c0.9-3.5-0.3-7.1-1.1-10.6c-0.8-3.5-1.1-7.6,1.2-10.4c1.5-1.8,3.7-2.7,5.8-3.4
		c3-1,6.3-1.9,9.4-1.3c5.2,1,9,5.8,10.3,10.9c1.3,5.1,0.7,10.5,0.1,15.8c-0.1,0.8-0.2,1.6-0.5,2.3c-1.5,3.3-6.7,2.4-9.4,0
		c-4.1-3.7-5.8-10-4.1-15.3"/>
	<path id="XMLID_11_" d="M657.5,336.4c13.1-2.3,26-5.8,38.5-10.3c-15.8-26.4-29.5-54.1-40.8-82.7c-3.8-9.7-7.5-19.5-13.4-28.1
		c-2.1-3.1-4.6-6-7.9-7.8c-2.6-1.4-5.6-1.9-8.5-2.4c-14.5-2.4-29-4.1-43.7-5.2c-1.3,11,4.6,21.5,10.2,31.1
		c19.7,33.3,39.4,66.6,59.1,99.9c2,3.3,4.9,7.2,8.7,6.6"/>
	<path id="XMLID_6_" class="st2" d="M708.7,154.5c-8.7,1.4-17.5,1.4-26.2,0c-3.4-0.5-6.8-1.3-9.5-3.4c-3.3-2.5-5-6.4-6.6-10.2
		c-7.1-17.2-13.2-35-15.3-53.5c-2.1-18.5,0-37.9,8.6-54.4c5.9-11.3,16.4-21.8,29.2-21.5c5.7,0.1,11.2,2.5,15.8,5.7
		c16.9,11.9,22.4,34.3,23.4,54.9c1.2,24.5-2,49-7.5,73c-1,4.2-2.2,8.7-5.6,11.3s-9.6,1.8-10.6-2.4"/>
	<path id="XMLID_7_" class="st1" d="M701.6,130.1c-7-1.6-15.7,2.5-20.6-2.7c-1.3-1.4-2.1-3.2-2.8-5c-1.4-3.6-2.8-7.1-4.2-10.7
		c-0.8-2-1.6-4.6-0.1-6.3c0.8-1,2.2-1.3,3.4-1.6c4.9-1.2,9.9-2.4,14.9-1.9c5,0.5,10.1,3,12.4,7.4c3.6,7.1-1,15.5-5.4,22.1"/>
	<path id="XMLID_8_" class="st1" d="M707.7,96.5c0.7,9.9,0,19.8-2.1,29.5"/>
	<path id="XMLID_9_" class="st1" d="M675.1,90.3c-0.8,8.8-1.6,17.6-2.4,26.4"/>
	<path id="XMLID_10_" class="st1" d="M694.5,66.1c9.7-1.1,19.9,2.3,27,9.1c-11.2,6.5-25.3,4.3-38.1,1.8"/>
	<path id="XMLID_21_" class="st1" d="M672.5,43.1c8.5,3.7,16.4,8.5,23.6,14.2c2,1.6,4.9,3.3,6.9,1.6c0.6-0.5,0.9-1.1,1.2-1.8
		c2.7-5.3,5.4-10.6,8-15.9"/>
	<path id="XMLID_26_" class="st7" d="M671.1,153.5c5.3-3.7,12.6-0.6,18,3c0.8,0.6,1.7,1.2,1.9,2.2c0.3,1.6-1.3,2.8-2.8,3.5
		c-3.2,1.6-6.7,2.8-10.2,3.6c-1,4.2,2,8.2,3.6,12.3c2.5,6.6,0.9,14.6-4.1,19.6c-3.5-4.9-3.8-11.4-3.9-17.4
		c-0.2-8.7-0.4-17.4-0.5-26.1"/>
	<path id="XMLID_28_" class="st2" d="M656,59.8c-3.3-7.7-7.1-15.9-14.5-19.7c-5.8-3-13.2-2.4-18.6,1.3c-1.1,0.8-2.2,1.8-2.9,3
		c-0.6,1.1-0.9,2.4-1.1,3.7c-1,8.4,3.8,17.2,11.4,21c1.9,0.9,3.9,1.6,5.3,3.1c1.2,1.2,1.8,2.9,2.7,4.3c1.1,1.6,2.8,2.9,3.9,4.5
		c3.5,5.2,0.8,13,4.4,18.1c0.7,0.1,1.4,0.1,2.1,0.2"/>
</g>
<g id="a">
	<g id="XMLID_132_">
		<path id="XMLID_30_" class="st2" d="M92.4,442c-6.6-13.6-13.2-27.3-15.9-42.1c-1.2-6.7-1.7-13.5-3.4-20
			c-4.1-15.3-14.9-28.1-19.4-43.3s1.8-36.1,17.5-37.7c10.8-1.1,21.1,9.6,19.6,20.3c-0.6-19.1-0.7-40,11.1-55.1
			c9.6-12.2,25.5-18,41-19.7c3-0.3,6.2-0.5,8.7,1.1c2.1,1.3,3.4,3.6,4.5,5.9c10.3,20.9,14.3,45,11.2,68.1
			c6.3-6.2,12.6-12.5,18.9-18.7c10.9,1.9,17.2,14.6,15.8,25.6c-1.4,11-8.3,20.4-15.3,29c-7,8.6-14.6,17.2-17.6,27.9
			c-2.8,9.6-1.6,19.8-2.6,29.7c-1,9.9-5.1,20.7-14.2,24.7c-3.8,1.7-8,2-12.2,2.2c-20.4,1-40.8-0.5-60.9-4.3"/>
		<path id="XMLID_31_" class="st2" d="M60.7,454.4c1.5-2.5,3-4.9,4.4-7.4c5-8.3,11.3-17.5,20.9-18.5c6.5-0.6,12.7,2.8,18.9,4.7
			c7.9,2.4,16.3,2.4,24.6,2.3c15.1-0.1,30.2-0.2,45.3-0.3c2.6,5.9,5.2,11.8,7.8,17.7c-8.7,3.5-18.4,3.6-27.8,3.6
			c-29.6,0-59.2,0-88.8,0c-3,0-6.2,0-8.8-1.5c-2.6-1.5-4.5-4.9-3.2-7.6"/>
		<path id="XMLID_29_" class="st3" d="M3.6,521c0,0,7.8-62.8,18.5-92.6c19.3,4.1,35.5,18,54.8,22c9.4,2,19.2,1.5,28.8,1.1
			c49.1-2.4,98.1-4.8,147.2-7.2c8.6-0.4,17.8-0.7,25.1,3.8c9.7,6,13,18.5,15.2,29.6c26.7,133.6,26,375.7,26,375.7h-214L0,853
			l-0.5-46.2V754V536.5"/>
	</g>
	<g id="bras">
		<path id="XMLID_135_" class="st2" d="M278.1,161.5c0.3-17.2,0.7-34.5,3.7-51.4s8.8-33.6,19.1-47.4c-1.1,11.6-2.3,23.1-3.4,34.7
			c-0.1-6.8,0-13.7,2-20.2c2-6.5,6.2-12.6,12.3-15.5c0.2,10.4-6.7,19.4-13.2,27.5c2.2-6.2,4.5-12.5,8.7-17.6
			c4.1-5.1,10.5-8.9,17-8.3c-0.9,9.7-5.7,19.1-13.1,25.5c5.5-10.8,14.9-19.6,26.2-24.3c3.5,18.6-10.3,35.8-13.8,54.5
			c-1.8,9.8-0.8,19.9-0.7,29.8c0,2.2,0,4.4-1.2,6.2c-2,3.1-6.4,3.4-10.1,3.4c-7.7,0-15.5,0-23.2,0.1c-2.1,0-4.4,0-6.3-0.9
			c-1.9-0.9-3.5-3-3.1-5.1"/>
		<path id="XMLID_134_" class="st3" d="M213,454c13.8-16.6,27.4-33.4,40.8-50.3c6.9-8.7,13.8-17.6,17.1-28.2
			c2.4-7.8,2.6-16.1,2.8-24.3c1.6-66.2,3.3-132.4,4.9-198.6c17.2,0.8,34.4,1.5,51.6,2.3c8.4,100.9-7.8,202.2-8.6,303.5
			c-0.1,14.9,0,30.2-5.1,44.3c-3.7,10.3-10.1,19.3-16.4,28.3c-6.7,9.5-13.4,18.9-20.1,28.4c-0.6,0.8-1.2,1.7-2.1,1.9
			c-1.7,0.5-3.2-1.1-4.2-2.6c-22.9-32.5-42.3-67.4-57.8-103.9"/>
	</g>
</g>
<g id="e">
	<g id="bras">
		<path id="XMLID_56_" class="st3" d="M1067.9,554.8c-5.4-13.7-5.9-28.8-6.2-43.6c-2.5-94.6-4.9-189.3-7.4-283.9
			c13.5-3.1,27.6-3.7,41.3-1.7c14,26.1,18.3,56.2,22.4,85.6c6.6,46.8,13.1,93.6,19.7,140.4c1.8,13.1,3.7,26.3,7.8,38.8
			c6.1,18.5,17.1,35,25.2,52.8c3.1,6.8,5.8,14,6.3,21.4c1,15.2-7.4,29.3-15.5,42.3c-2.7,4.3-5.6,8.9-10.3,11
			c-4.7,2.1-10.1,1.4-15.1,0.6c-18.5-3-37.5-6.5-53-17s-26.4-30-21.2-48"/>
		<path id="XMLID_66_" class="st2" d="M1081.8,114.3l-11.1,50.5l-8.7,41.6l-3.6,18l30.2,0.3c7.2-24.4,16-52.3,14.9-77.7
			c-0.4-10-2.1-19.8-3.8-29.6c-0.7-4.2-1.5-8.7-4.1-12.1c-1.9-2.5-4.6-4.4-7.2-6.1c-4.1-2.8-8.2-5.5-12.3-8.3
			C1074.6,99.1,1076.6,107.8,1081.8,114.3"/>
		<path id="XMLID_57_" class="st2" d="M1058.4,224.5c-4.2-12-6.2-24.7-5.9-37.4c0.1-6,1-12.4,5.2-16.7c2-2.1,4.7-3.4,6.6-5.6
			c2.9-3.3,3.6-8.1,4.1-12.5c1.1-9.6,2.2-19.3,3.4-28.9c0.4-3.8,1.3-8.2,4.8-9.8c2.9-1.3,6.4,0.2,8.4,2.7c2,2.5,2.7,5.7,3.1,8.8
			c0.9,6.9,0.6,13.9-0.7,20.7c-1.8,8.9-5.5,17.5-6.2,26.6"/>
	</g>
	<g id="XMLID_137_">
		<path id="XMLID_114_" class="st3" d="M857.5,720.2c-0.3-28.4,11.6-55.3,23.2-81.2c7.9-17.5,15.8-35.1,23.6-52.6
			c3.4-7.7,7.1-15.6,13.4-21.1c5.9-5.2,13.6-7.8,21.2-9.8c41.4-10.6,85.3-4.1,127.5-11c26.4-4.3,51.9-13.9,78.7-15.5
			c4.5-0.3,9.2-0.3,13.1,2c3.3,1.9,5.5,5,7.6,8.2c39.1,58.5,56.4,131.2,48,201c-1.5,12.7-4,25.6-10.3,36.8
			c-7.2,12.8-18.9,22.3-30.3,31.5c-11.8,9.5-37.5,25.7-37.5,25.7l-33.8,15.4l-104.7,4H942c0,0-18.9-12.9-28.1-24.6
			c-19-24.1-33.9-51.6-43.7-80.6"/>
		<path id="XMLID_116_" class="st8" d="M1003.1,550.1c-9.7-3.2-19.5-6.5-27.9-12.4c-8.3-5.9-15.1-14.9-15.8-25
			c-1.3-17,13.5-30.4,27-40.9c-6.9,0-13.8-1.1-20.4-3.2c6-16.9,17.6-31.8,32.5-41.8c3-2,6.1-3.8,8.4-6.6c3.3-4.1,4.1-9.5,5-14.6
			c2.8-14.6,7.9-28.8,15.1-41.8c1.2-2.2,2.6-4.5,4.7-5.9c2.7-1.8,6.2-1.9,9.5-2c8-0.1,15.9-0.2,23.9-0.3c6.8-0.1,13.9-0.1,20.1,2.6
			c8.9,4,14.4,13.1,18.3,22.1c12.5,29.2,13,61.9,13.3,93.7c0.2,17.1,0.3,34.2,0.5,51.4c0,2.7,0,5.5-1.5,7.7
			c-1.7,2.4-4.6,3.3-7.4,4.1c-32.9,9.1-67.2,13.5-101.3,12.9"/>
		<path id="XMLID_122_" class="st2" d="M1004.5,546.6c12.5-3.9,24.9-7.8,37.4-11.8c4-1.2,7.9-2.5,11.9-3.8c22.4-7,44.7-14.1,66.8-22
			c1.7,5.9,3.4,11.7,5.1,17.6c0.4,1.5,0.9,3.2,0.2,4.7c-0.8,1.8-3,2.5-5,3c-37.3,9.2-75.7,13.7-114.1,13.4"/>
		<path id="XMLID_129_" class="st2" d="M1025.1,431.3c-0.6-6.2-1.2-12.7,1.1-18.6c2.3-5.8,8.4-10.7,14.5-9.3
			c-1.1,15.8-2.3,31.6-3.4,47.4c-0.9,11.9-1.9,24.3-8.4,34.2c-2.4-8.4-4.8-16.9-7.1-25.3"/>
	</g>
</g>
<g id="c">
	<g id="parleur">
		<path id="XMLID_45_" class="st3" d="M332.7,714.1c0.8-53.4,1.6-106.8,2.4-160.2c17.3-5.4,35.5,3.3,52.7,9.1
			c58.4,19.9,122.5,7.1,182.2-8.7c8-2.1,17-4.1,23.9,0.2c5.4,3.4,8.1,9.7,11,15.4c4.8,9.4,11,18,18.4,25.5
			c4.3,4.4,9.2,8.5,12.2,13.9c3.3,5.9,4.1,12.9,5.3,19.5c3.7,20.6,11.5,40.4,17.5,60.4c18.2,61,5.7,164.2,5.7,164.2H407.2l-43.9-0.5
			c0,0-5.2-5.8-7.5-11.3c-14.8-35.5-22.7-73.9-23-112.3"/>
		<path id="XMLID_58_" class="st2" d="M413,547.1c4.3-12.6,1.9-27.3-6.2-37.9c-11.1,5-23.7,6.6-35.7,4.6c-2.3-15-4.6-30-7-45
			c6.9-0.7,13.7-3.3,19.3-7.4c-7.4-0.2-14.9-0.4-22.3-0.5c-0.1-5.9-0.2-11.9-0.3-17.8c-12,0.6-24.2,0-36.1-1.7
			c-2.3-9.2,3.3-18.8,11-24.2c7.7-5.4,17.3-7.4,26.5-9.3c-1.4-22.6-1.6-48.4,15-63.8c15.7-14.6,39.9-13.7,61.3-11.3
			c4,0.5,8.4,1.1,11.3,3.9c2.4,2.3,3.4,5.7,4.2,8.8c18.5,66.5,37,133,55.6,199.5"/>
		<path id="XMLID_65_" class="st1" d="M397.1,412.3c8.1-9.3,16.1-18.6,24.2-27.9c1-1.2,2.3-2.5,3.9-2.3c0.9,0.1,1.6,0.8,2.3,1.4
			c17.8,16.6,21.8,46.1,9.1,66.9c-3.9,6.4-10.9,12.5-18.1,10.4c-8.5-2.5-10.2-13.8-8.6-22.5"/>
		<path id="XMLID_52_" class="st2" d="M399.2,576c2.1-9.8,4.2-19.7,6.3-29.5c35.7,3.6,73.3,7,106.2-7.5c5.3,8.5,8,18.6,7.7,28.6
			c-20.1,0.9-40.1,1.8-60.2,2.7c-11.1,0.5-22.2,1-33.1-0.8c-9.6-1.6-18.9-5-27.2-10"/>
	</g>
	<g id="bras">
		<path id="XMLID_158_" class="st2" d="M622.5,260.6c0.3-31,8-61.8,22.3-89.3c1.9-3.7,4.1-7.5,7.3-10.1c3.3-2.7,7.9-4,11.7-2.3
			c1.4,7.4-3.1,14.4-7.5,20.6c-5.2,7.3-10.4,14.7-15.6,22c10.9-18,24.2-34.6,39.3-49.2c1.5,6.5-1.4,13-4.1,19.1
			c-5.1,11.2-10.2,22.3-15.3,33.5c4.1,1.2,7.2-3.3,10.1-6.5c7.1-7.8,21-7.9,28.3-0.3c0.5,0.5,1,1.2,1,2c0,0.9-0.8,1.7-1.6,2.2
			c-8.6,6.7-17.9,12.4-27.8,17c9.9-3.6,19.8-7.3,29.7-10.9c-1.2,5.6-6.6,9.2-11,13c-9.3,8-15.6,19.3-17.6,31.3
			c-14.6-0.5-29.1-1-43.7-1.5"/>
		<path id="XMLID_152_" class="st3" d="M496.1,593.8c25.2-12.8,50.3-25.6,75.5-38.3c16.7-8.5,34-17.5,45.3-32.4
			c14.3-19.1,16.4-44.5,15.5-68.4c-2.5-67.9-24.4-135.3-15.4-202.7c22.4-1.3,44.9-0.9,67.2,1.3c19,105.4,15.4,214.8-10.3,318.7
			c-5.4,21.7-11.8,43.3-21.1,63.6c-19,41.3-49.7,76.6-67.6,118.4c-16.7-51.2-38.8-100.7-65.8-147.3"/>
	</g>
</g>
<g id="d">
	<g id="XMLID_133_">
		<path id="XMLID_76_" d="M547.8,853c0,0,6.4-36.3,10.5-63.3c7.1-46.1,28-88.9,48.9-130.6c6.3-12.6,12.7-25.3,22.2-35.6
			s22.7-18.1,36.7-17.9c12.2,0.2,23.5,6.2,35.3,9.1c19.6,4.8,40.1,1,60.2-0.5c24.5-1.8,49.1-0.3,73.7,1.2c14.6,0.9,29.6,2,42.5,8.8
			c12.1,6.4,21.1,17.1,29.7,27.6c13.9,16.8,28.1,34.3,34.3,55.2c5.1,17.1,4.6,35.3,5.5,53.1C949,794,971.5,853,971.5,853l-8.3,0.5
			h-12.7h-234l-106-0.5"/>
		<path id="XMLID_88_" class="st2" d="M711.3,618.5c-3.8-36.5-7.6-73-11.4-109.5c-2.6-24.9-4.6-52.4,10.1-72.8
			c13.2-18.3,38.4-26.2,60.2-20.5c21.8,5.6,39.6,23.5,47.1,44.7c4.4,12.4,7,27.6,18.9,33.3c11.4,5.4,29.5,1.2,33.5,13.1
			c2.5,7.4-4.3,15.4-11.9,17.1c-7.6,1.7-15.5-0.9-22.9-3.5c8.1,19.2,8.6,41.5,1.3,61c-1.3,3.3-3,6.9-6.3,8.3
			c-3.1,1.4-6.6,0.5-9.9,0.8c-7,0.6-12.6,6.6-15,13.1c-2.4,6.6-2.3,13.8-2.1,20.8c-28.8-0.1-57.6-0.2-86.4-0.3
			c-6.1,0-14.6-2.9-13.1-8.8"/>
		<path id="XMLID_99_" class="st1" d="M782.6,503.5c2.4-7.7-0.2-16.7-6.4-21.9s-15.6-6.2-22.7-2.5c-1.5,0.8-2.9,1.7-3.9,3
			c-2.4,2.8-3.1,6.7-3.3,10.4c-1.1,21.5,12,43,31.6,52c4.2,1.9,10.4,2.7,12.4-1.5"/>
		<path id="XMLID_107_" class="st2" d="M697.9,485.3c-5.1-3.3-10.4-6.5-16.4-7.6c-5.9-1.1-12.7,0.2-16.6,4.8
			c-6.6,7.7-2.4,19.4,2,28.6c3.4,6.9,6.9,14,12.6,19.1c4.7,4.2,10.7,6.9,14.2,12.1c2.9,4.2,3.7,9.3,5.4,14.1s4.8,9.6,9.7,10.8"/>
		<path id="XMLID_111_" class="st2" d="M696.4,620.4c6.4-6.9,9.9-16.5,9.4-25.9c23.6,13.6,52.4,12.6,79.6,12.9
			c4.9,0.1,10,0.2,14.3,2.5c4.3,2.3,7.5,7.5,5.9,12.1c-38.1,3.2-76.5,1.5-114.1-4.9"/>
	</g>
	<g id="bras">
		<path id="XMLID_54_" d="M827.3,642.6c28.9-26.3,53.6-56.8,78.2-87.1c8.6-10.5,17.3-21.4,21.9-34.1c4.5-12.6,4.8-26.2,5-39.6
			c0.9-61,1.7-122,2.6-183c20.8-3,41.9-4,63-3.1c11.2,81.5,22.3,163.1,26.5,245.2c0.9,18,1.5,36.2-1.8,53.9
			c-2.6,13.7-7.4,26.9-12.2,40c-22.2,60.5-46.7,124.2-97.5,163.8c-0.8,0.7-1.8,1.3-2.9,1.2c-1.1-0.1-1.9-1.1-2.5-2
			c-32.9-45.7-57.3-97.5-71.6-152"/>
		<path id="XMLID_55_" class="st2" d="M936.5,312.1c0.8-22-15.6-40.7-20.3-62.2c-2.5-11.5-1.6-23.4-0.6-35.1
			c6.8-1.3,13.5,4,16.1,10.5s2.1,13.7,1.5,20.6c-0.8-22.1-5.4-44.1-13.4-64.7c-1.3-3.4-2.8-7.1-2.1-10.7c0.7-3.6,4.6-6.8,8-5.3
			c1.1,0.5,1.9,1.4,2.7,2.3c12.9,15.5,6.3,39,11.7,58.4c-9.3-20.2-15.7-41.8-18.9-63.9c8.1,0,15.7,5.1,20.3,11.8
			c4.6,6.7,6.7,14.8,8,22.8c1.7,10.5,2.2,21.1,1.5,31.7c7.8-24.4-4.5-50.3-17.4-72.4c12.7,0.4,23.4,10.9,28,22.8
			c4.6,11.9,4.5,25,4.3,37.7c-2-19.2-4-38.5-5.9-57.7c9.8,7.8,15,20.3,16.9,32.8s1,25.1,1,37.7c0,22.2,2.7,44.3,5.4,66.3
			c-13.3,1-26.5,1.9-39.8,2.9"/>
	</g>
</g>
<g id="b">
	<g id="gauched">
		<path id="XMLID_32_" d="M12.6,806.7c3-43.1,17-84.5,30.8-125.4c8.1-24,20.6-51.8,45.6-55.7c13.9-2.2,27.6,4.2,41,8.5
			c27.7,8.8,57.4,9,86.5,8.5c31-0.5,61.9-1.5,92.9-3.2c21.4-1.1,47.1-0.5,58.4,17.7c5.6,9,6.1,20.1,6.4,30.6
			c2.5,66,16.2,165.4,16.2,165.4l-204,0.5H25.2l-19-12.6"/>
		<path id="XMLID_71_" class="st2" d="M283,528.9c-0.3-7.7-0.7-15.8-4.6-22.5c-1.1-2-2.8-3.9-5.1-4.1c-1.5-0.1-3,0.6-4.4,1.3
			c-5.1,2.8-9.9,6.3-14.2,10.3c-1.5-4.4-2.1-9.4-2.1-14c-0.1-10.4,1.1-21.7-4.5-30.5c-4.6-7.2-13-11.3-21.5-12.4
			c-8.4-1.1-17,0.3-25.4,1.9c-12.9,2.5-26.8,6.1-34.5,16.8c-4.2,5.7-6,12.7-7.7,19.6c-2.4,9.5-4.9,19.1-6.6,28.8
			c-4.8-4.8-10.7-8.5-17.1-10.7c-3.2-1.1-7.3-1.6-9.6,0.9c-1,1.1-1.4,2.6-1.8,4c-2.2,8.3-3.2,16.9-3.1,25.4c0,1.6,0.1,3.2,0.8,4.7
			c1,2,2.9,3.4,4.8,4.6c8.5,5.7,16.5,12.3,23.8,19.4c2,20.9,7.6,41.5,16.8,60.4l84.9-11.2c5.1-0.7,8.4-6,9.1-11.1
			c0.7-5.1-0.4-10.2-0.6-15.4c-0.3-9.8,3-19.4,4.3-29.2c0.3-2.1,0.4-4.2,0.4-6.3c5.1-3.2,10.9-5.8,14.3-10.7
			C283.4,543.2,283.3,535.8,283,528.9z"/>
		<path id="XMLID_37_" class="st2" d="M157.1,642.3c3.1-1.2,4-5.1,3.9-8.5c0-3.3-0.4-7,1.8-9.6c3.4-4.1,9.9-2.1,15.1-0.8
			c11.2,2.8,23,0.1,34.5-1.4c15.6-2.1,31.4-2.1,46.9-0.1c-0.3,7.8-0.1,15.7,0.7,23.5c-34.9,2.1-70.1,0.8-104.8-3.8"/>
	</g>
	<g id="bras">
		<path id="XMLID_136_" d="M295.2,652.9c9.7-4.3,19.5-8.6,29.2-12.9c5-2.2,10.1-4.5,14-8.2c4.9-4.7,7.5-11.3,10-17.6
			c10.3-26.4,20.6-53.3,23.2-81.6c2-22.4-0.9-45.2,2.8-67.4c2.6-15.2,8.2-29.6,12.1-44.5c11-41.1,9.2-84.4,7.3-127
			c20.8,1.5,41.7,3,62.5,4.5c6.4,33.9-3.4,68.4-8.3,102.6c-5.6,39.6-4.4,79.8-7.1,119.7c-3,45.4-11,90.3-18.9,135.2
			c-3.3,18.8-6.7,37.7-14.5,55.2c-12.2,27.3-34.2,48.9-55.9,69.5c-14.3-28.2-28.6-56.3-42.9-84.5c-3.1-6.1-6.2-12.3-7.2-19
			c-1.3-9,1.3-18.4-1-27.3"/>
		<path id="XMLID_138_" class="st2" d="M396.7,301.5c-1.4-26.1-0.5-52.6,6.7-77.6c0.8-2.8,1.7-5.7,3.8-7.7c2-2.1,5.5-3,7.9-1.4
			c3.2,2.2,2.6,7,1.7,10.7c-3.9,15.6-7.9,31.2-11.8,46.7c2.1-18.9,5.2-37.7,9-56.3c3.7-3.3,10,0.2,11.3,5c1.3,4.8-0.5,9.8-1.9,14.5
			c-3.3,10.9-4.5,22.5-3.4,33.9c-1.6-16.3-3.1-33.2,1.7-48.9c1.7-5.4,5.4-11.4,11-11c0.7,17.5,1.3,34.9,2,52.4
			c0.1-13.9,0.2-27.7,0.3-41.6c0-2.9,0.1-5.9,1.2-8.6c1.2-2.7,3.7-4.9,6.7-4.8c3.1,9.9,1.3,20.5,1.1,30.8
			c-0.4,23.1,7.3,45.6,8.8,68.7c-19-0.4-38-2.5-56.6-6.4"/>
	</g>
</g>
<g id="f">
	<g id="bras">
		<g id="XMLID_93_">
			<path id="XMLID_61_" class="st2" d="M1251.6,290.1c-18.6-24.7-29-55.6-29-86.6c6.2-1.2,13.6-2,18,2.5c5.7,5.9,1.9,16.1,5.4,23.5
				c-1.9-22.4-3.8-44.9-5.7-67.3c9.2,3.3,13.4,13.9,14.6,23.6c1.2,9.7,0.7,19.9,4.9,28.6c-6.4-19.3-10.3-39.5-11.5-59.8
				c-0.1-1.9,0-4.2,1.6-5.3c2-1.4,4.7,0.4,6.4,2.2c14.4,15.3,14.9,38.7,14.6,59.8c-1.8-13.5-3.5-27-5.3-40.5c-0.5-4-1-8.1,0.3-11.9
				c1.3-3.8,4.9-7.1,8.8-6.7c3.8,19.1,8.5,38,14.1,56.7c-5.4-11.2-9-23.2-10.7-35.5c4-1.8,8.9,0,11.8,3.3c2.9,3.2,4.3,7.6,5.3,11.8
				c1.6,6.6,2.6,13.3,3.6,20c1.4,9.4,2.8,18.9,4.1,28.3c2.8,19.1,5.6,38.4,4.8,57.7c-17.8-6.5-37.4-8.3-56.1-5.2"/>
			<path id="XMLID_59_" d="M1355.6,750.1c-19.6-19.6-39.5-39.8-51.1-65c-10.9-23.9-13.4-50.6-19.4-76.2c-6.8-29-18.2-56.8-24.1-85.9
				c-4.9-23.9-6-48.3-7.2-72.6c-2.6-54.8-5.2-109.6-7.8-164.3c16.4-0.2,32.7-0.5,49.1-0.7c4.5-0.1,9.3-0.1,13.1,2.4
				c4.2,2.7,6.1,7.8,7.4,12.7c11.4,40.6,3.4,84,8.5,125.8c10.8,89,57.3,193,57.3,193v88.4c0,0-30,30.1-39.4,38"/>
		</g>
	</g>
	<g id="dormeur_1_">
		<path id="XMLID_78_" class="st2" d="M1181.2,643.7c8.2,4.2,129,17.2,132.5,8.7s1.8-18.2,0-27.2c-6.1-29.8-14.7-59.1-25.5-87.5
			c-2.2-5.8-4.6-11.6-8.5-16.4c-5.3-6.3-12.9-10.1-20.6-13.1c-20.6-8.1-42.9-11.8-65-10.7c-8.3,0.4-17.1,1.7-23.3,7.2
			c-10.6,9.4-9.2,26-6.9,40c2.3,14.2,4.7,28.4,7,42.6l3.7-1.4c-8.1,15.9-15.8,31.9-23.3,48.1c-1.5,3.3-3,6.7-2.8,10.4
			c0.4,7.4,8.4,12.8,15.8,12.1C1171.5,655.8,1177.7,650.2,1181.2,643.7s4.9-14,6.2-21.3"/>
		<path id="XMLID_81_" class="st1" d="M1207.3,565.5c-2.1-11.9,7.8-23.9,19.8-25.9s24.2,4.9,30.8,15c6.6,10.2,8,23,6,34.9
			c-0.3,1.8-0.7,3.8-1.8,5.3c-1.1,1.4-2.6,2.3-4.2,3.2c-5,2.9-10.2,5.8-16,6.7c-5.7,0.9-12.2-0.8-15.5-5.6"/>
		<path id="XMLID_74_" class="st2" d="M1206.9,648.7c33.5-7.8,67.1-15.7,100.6-23.5c2.1-0.5,4.2-1,6.3-0.8c6.7,0.6,11.1,8.3,10.1,15
			c-1.1,6.7-6.1,12-11.8,15.7c-12.6,8.1-28.3,9.6-43.3,9.7c-8.7,0.1-17.4-0.3-26-1c-6.8-0.6-13.8-1.4-19.7-4.8
			c-5.2-3-9.2-7.7-13-12.3"/>
		<path id="XMLID_75_" d="M1381.5,853.5v-118l-0.2-82.6c0,0-43.6-23.7-67.9-9.3c-6.4,3.8-12,8.7-18.3,12.6
			c-14.3,8.7-32.2,11.2-48.3,6.9l10.3,10.2c-31.1-22.1-67.1-45.4-104.5-37.5c-16.5,3.5-31,12.8-45.2,22c-13.7,8.9-27.8,18.1-37,31.6
			c-7.8,11.4-11.5,25.1-14.8,38.6c-10.6,44.2-14.9,80.1-17.7,125.6"/>
		<path id="XMLID_83_" class="st1" d="M1177.8,567.3c-0.9,2.4-0.1,5.2,1.1,7.5c1.8,3.2,5,6.1,8.7,5.7c3.4-0.4,5.8-3.5,6.6-6.8
			c0.7-3.3,0.1-6.7-0.5-10"/>
	</g>
</g>
</svg>
