<?xml version="1.0" encoding="utf-8"?>
<!-- Generator: Adobe Illustrator 19.0.0, SVG Export Plug-In . SVG Version: 6.00 Build 0)  -->
<svg version="1.1" xmlns="http://www.w3.org/2000/svg" xmlns:xlink="http://www.w3.org/1999/xlink" x="0px" y="0px" width="1024px"
	 height="768px" viewBox="0 0 1024 768" style="enable-background:new 0 0 1024 768;" xml:space="preserve">
<style type="text/css">
	.st0{fill:#282828;stroke:#000000;stroke-miterlimit:10;}
	.st1{fill:#EDEDED;stroke:#000000;stroke-miterlimit:10;}
	.st2{fill:#808080;}
	.st3{fill:none;stroke:#000000;stroke-miterlimit:10;}
	.st4{fill:none;stroke:#808080;stroke-width:8;stroke-miterlimit:10;}
	.st5{fill:none;stroke:#353535;stroke-width:3;stroke-miterlimit:10;}
	.st6{fill:none;stroke:#212121;stroke-width:3;stroke-miterlimit:10;}
	.st7{fill:#4C4C4C;}
	.st8{fill:#BFBFBF;stroke:#000000;stroke-miterlimit:10;}
	.st9{fill:#FFFFFF;stroke:#000000;stroke-miterlimit:10;}
	.st10{fill:#D1D1D1;}
	.st11{fill:#4D4D4D;}
	.st12{fill:#FFFFFF;stroke:#0300B9;stroke-miterlimit:10;}
	.st13{fill:none;stroke:#0300B9;stroke-miterlimit:10;}
	.st14{fill:#0300B9;}
</style>
<g id="background">
	<rect id="XMLID_22_" class="st0" width="1024" height="768"/>
	<path id="XMLID_432_" class="st1" d="M275.8,468.2c-17.9-16.9-32.1-37.4-44.8-58.5C163.7,298.6,131.9,170.5,90.2,47.5
		c-0.6-1.9-1.3-3.9-2.8-5.2c-2-1.8-5.2-1.9-8-2c-26.7-0.2-53,2-80,6.7v519.7c105,7.6,208.7-30.1,313.7-41.7
		C315.4,501.6,293,484.4,275.8,468.2z"/>
	<g id="XMLID_23_">
		<path id="XMLID_4_" class="st2" d="M325.1,275.6c-16.9,13.6-33.7,27.3-50.6,40.9c-15.4,12.5-33,25.7-52.7,24.2
			c-16.9-1.3-31-13.1-43.7-24.3c-8.4-7.4-17.1-15.1-22.2-25.1c-5.8-11.5-6.4-24.9-5.6-37.8c1.1-17.8,5.3-36.9,18.9-48.4
			c5.6-4.8,12.5-7.9,18.6-12.1c13.4-8.9,23.2-22.1,34.2-33.9c24.1-25.7,54.9-45,88.6-55.5c12-3.7,25.4-6.3,37-1.5
			c12.9,5.4,20.6,18.5,27.4,30.7c7.2,13,14.6,26.7,14.7,41.6c0.2,16.5-8.5,31.7-16.9,45.9c-12.8,21.5-25.6,43.1-38.4,64.6
			c-2.7,4.6-5.6,9.4-10.2,12.1c-4.6,2.7-11.4,2.5-14.4-2"/>
		<path id="XMLID_5_" class="st3" d="M292.8,273.3c-14.9,11.6-20.2,32.9-35.8,43.5c-10.7,7.3-24.9,8.2-37.3,4.5
			c-12.4-3.6-23.2-11.4-32.5-20.4c-3.3-3.2-6.8-7.3-6.1-11.9c0.3-2,1.4-3.8,2.5-5.6c11.7-18.4,27.7-33.7,43.6-48.7
			c5.2-5,10.5-9.9,15.7-14.9c7-6.6,15.9-13.7,25.1-11c7.4,2.1,11.7,9.9,14.2,17.3c1.6,4.7,3,9.8,6.8,12.9c1.9,1.5,4.4,2.5,5.7,4.5
			c1,1.6,1.2,3.5,1.4,5.4c0.6,6.2,1.1,12.5,1.7,18.7c0.2,2,0.3,4.3-1.1,5.7c-1.1,1.1-2.7,1.4-4.2,1.7c-3.8,0.7-7.6,1.3-11.5,2"/>
		<path id="XMLID_6_" class="st3" d="M174.6,282.5c-14.4-11.2-22.2-30.1-20.4-48.3c0.5-5.1,1.8-10.2,3.7-15
			c6.7-16.5,20.9-28.7,35.6-38.6c6.3-4.2,12.8-8.1,19.5-11.6c2.2-1.1,4.7-2.3,7-1.4c1.2,0.4,2.2,1.4,3.2,2.3
			c6,5.8,12,11.6,17.9,17.3c5.2,5,10.8,11.9,8,18.5c-0.9,2.1-2.6,3.8-4.2,5.5c-11.1,11.5-20.2,25-26.6,39.7c-1.5,3.5-3,7.2-5.8,9.9
			c-5.1,4.7-13.7,5.2-17,11.3"/>
		<path id="XMLID_446_" class="st4" d="M2,198.5c17.3-11.6,37.4-18.2,55.4-28.5c17.5-10.1,33-23.7,51.8-31
			c23.8-9.3,54.6-9.9,67.8-31.8c7.6-12.7,6.4-28.5,4.9-43.2c-1.4-14.5-5.5-49.4-6.9-63.9"/>
		<path id="XMLID_8_" class="st4" d="M174.8,303.8c-29.8,35.1-70.3,61.2-114.6,73.8c-13.4,3.8-27.6,6.5-41.2,3.5
			C8.8,379-0.5,373.8-8.7,367.3"/>
	</g>
	<path id="XMLID_21_" class="st2" d="M324.7,450.3c-9.3-9.1-16.4-20.2-23.4-31.1c-17.9-28-35.7-56-53.6-84.1
		c-2.8-4.4-5.6-8.9-7.1-13.9c-1.3-4.4-1.4-9-2-13.5c-4.8-37.8-37.6-65.6-51.6-101c-2.4-6-4-13.4-0.2-18.6c2.2-2.9,5.7-4.5,8.6-6.8
		c6.1-4.7,9.3-12,13.6-18.3c7.8-11.5,19.7-20.1,33-23.9c2.1,26.4,8.7,52.1,15.3,77.7c11.3,43.7,22.5,87.6,38.5,129.8
		c8.1,21.5,17.5,42.7,22,65.2c2.6,12.9,3.5,26.4,9.1,38.3"/>
	<path id="XMLID_486_" class="st5" d="M535.4,678.4c-2.5-0.1-5-0.3-7.5-0.4"/>
	<g id="XMLID_451_">
		<path id="XMLID_464_" class="st6" d="M90.2,696.4c-3.3-1.4-7-1.8-10.5-1.1c-3.1,0.7-6,2.2-9.1,3.1c-4.3,1.2-8.7,1-13.1,0.8
			c2.1,2.7,5.2,4.7,8.5,5.5c2,0.5,4.4,0.6,5.9-0.8c1-0.9,1.5-2.2,2.4-3.1c1.7-1.7,4.4-1.8,6.8-1.7c2.4,0,4.7,0.1,7.1,0.1
			c0.7,0,1.4,0,2,0.4c1.1,0.6,1.4,2.1,2.3,3c2,2.1,6,0.4,8.2,2.4c1.7,1.6,1,4.6-0.8,6s-4.2,1.7-6.5,1.9c-2.3,0.2-4.8,0.3-6.9-0.7
			c-2.1-1-3.8-3.4-3.1-5.7c-0.9,3.6-4.3,6.2-8,7s-7.5,0.1-11-1.1c-1-0.3-2.1-0.9-2-1.9"/>
		<path id="XMLID_457_" class="st6" d="M105.6,697.9c4,0.4,7.9-0.9,11.9-1.6c4-0.7,8.5-0.6,11.4,2.1c2,1.9,2.9,4.7,2.6,7.5
			c-0.3,2.7-1.7,5.3-3.6,7.2c-0.5,0.5-1.1,1-1.8,1.3c-0.6,0.3-1.3,0.3-2,0.4c-3.4,0.2-6.7-0.1-10-0.8c-1.8-0.4-3.6-0.9-4.8-2.2
			s-1.7-3.5-0.6-4.9c0.9-1.1,2.6-1.4,4.1-1.5c3.2-0.2,6.4-0.2,9.5-0.1c2.2,0.1,4.5,0.3,6.6-0.4c2.1-0.8,3.9-2.8,3.5-5"/>
		<path id="XMLID_452_" class="st6" d="M139.7,697.1c-0.8,2-0.3,4.4,0.7,6.3c1,1.9,2.6,3.5,4.2,5c1.9,1.9,3.7,3.7,5.6,5.6"/>
		<path id="XMLID_453_" class="st6" d="M138.1,697c3.1,0.4,6.2-0.6,9.3-0.1c2.1,0.3,3.9,1.4,5.7,2.4c3.9,2.2,7.9,4.4,11.8,6.5
			c-2.3,0.6-4-2.3-4.1-4.6c-0.1-2.4,0.3-5-1.3-6.8c3.8,3.1,7.6,6.2,11.4,9.4c1.7,1.4,3.4,2.8,5.3,3.8c1.4,0.7,2.9,1.2,4.2,2.1
			c2.8,1.8,5.1,5.2,8.3,4.8"/>
		<path id="XMLID_454_" class="st6" d="M184.1,698.7c6.1,0.2,10.8,5.1,15.7,8.7c4.3,3.3,9.1,5.7,13.9,8.2c1.3,0.6,2.7,1.3,4,0.8
			c1.8-0.8,2-3.5,0.8-5.1s-3.1-2.4-4.9-3.3c-4.2-2.1-8-5.1-11.7-8c2.2,0.5,4.2,1.6,6.2,2.8c5.3,3.1,10.5,6.2,15.8,9.3
			c1.5,0.9,3,1.8,4.8,1.9c1.7,0.1,3.6-0.9,4-2.6"/>
		<path id="XMLID_456_" class="st6" d="M221.8,694.6c4.9,1.9,7.9,6.7,11.7,10.4c4,3.8,9.1,6.4,14.1,8.9c1,0.5,2,1,3.1,1.3
			c1.2,0.3,2.5,0.3,3.8,0.2c5.4-0.2,10.7-0.3,16.1-0.5"/>
		<path id="XMLID_459_" class="st6" d="M240.8,710.4c4.5,0.2,8.9,0.3,13.4,0.5c0.3,0,0.7,0,1-0.2c0.3-0.2,0.5-0.7,0.5-1.1
			c0.3-2.1-0.4-4.3-1.8-5.9"/>
		<path id="XMLID_460_" class="st6" d="M226.4,695.2c9.1-0.3,18.2,0.2,27.2,1.6"/>
		<path id="XMLID_462_" class="st6" d="M266.6,696c4.8,5.6,9.4,11.4,13.8,17.4c-0.7,0.5-1.9,0-2-0.8c2.1-0.6,4.4-0.4,6.4,0.3
			c1.8,0.7,3.4,1.8,5.2,2.3c3.5,1.1,7.3-0.2,10.7-1.4"/>
		<path id="XMLID_463_" class="st6" d="M331.8,694.1c2.3,1,4,2.9,5.7,4.7c4.3,4.7,8.6,9.3,12.9,14"/>
		<path id="XMLID_474_" class="st6" d="M359,692.8c4.1,3.4,8.2,6.8,12.2,10.2c1.8,1.5,3.6,3,5.2,4.7c4,4.2,7.2,9.9,12.9,11"/>
		<path id="XMLID_475_" class="st6" d="M377,705.9c-7.8,0.7-15.8,0-23.3-2.2c-4.5-1.3-9.1-3.1-13.8-2.7"/>
		<path id="XMLID_476_" class="st6" d="M384,696.3c4.7,4.5,9.3,9,14,13.6c2.4,2.3,4.9,4.8,8.1,5.9"/>
		<path id="XMLID_477_" class="st6" d="M386.6,693.9c10.8,1.6,21.2,6.4,29.4,13.6c0.9,0.8,1.8,1.6,2.9,2.1c1.2,0.5,2.6,0.6,3.9,0.7
			c4.6,0.4,9.1,1.8,13.1,4"/>
		<path id="XMLID_478_" class="st6" d="M414.1,702.1c-8.6-0.7-17.3-0.3-25.8,1.3"/>
		<path id="XMLID_479_" class="st6" d="M383.4,697.8c-0.7-2.1,0.7-4.6,2.8-5.1s4.5,1,4.9,3.2"/>
		<path id="XMLID_480_" class="st6" d="M449.4,692.5c-2.9-0.5-5.9-0.9-8.8-1c-1,0-2.1,0-2.8,0.6c-0.5,0.4-0.7,1-0.8,1.6
			c-0.8,3.8,2.5,7,5.6,9.4c2.3,1.8,4.7,3.7,7.4,4.7c1.8,0.7,3.7,1,5.6,1.3c7.7,1.2,15.5,1.4,23.2,0.7"/>
		<path id="XMLID_481_" class="st6" d="M470.6,691.9c7.5,5,15.1,10,22.6,14.9c4.7,3.1,9.4,6.2,13.6,10"/>
		<path id="XMLID_482_" class="st6" d="M491.1,704.1c2,0,4.1-0.1,6.1-0.1c0.3,0,0.6,0,0.9-0.2c0.2-0.1,0.4-0.4,0.5-0.7
			c0.5-1.2,0.1-2.6-0.6-3.6c-0.8-1-1.8-1.7-2.9-2.4c-4.1-2.6-8.5-5.5-10.1-10.1"/>
		<path id="XMLID_483_" class="st6" d="M493.2,703.6c2.7,0.3,5.5,0.2,8.2-0.4c1.1-0.3,2.3-0.6,3.5-0.6c1.9,0,3.7,0.9,5.4,1.7
			c1.2,0.6,2.4,1.2,3.3,2.1c0.8,0.8,1.3,1.8,2.2,2.4c1.8,1.4,4.5,1.2,6.3,2.6"/>
		<path id="XMLID_484_" class="st6" d="M512.9,693.2c6.5,3,12.2,7.5,18.4,11.2c9.3,5.5,19.5,9.2,29.7,12.7
			c-10.9-3.3-15.7-17.6-26.7-20.5c12.2,3.9,24.2,8.7,35.7,14.4c-7.5-2.8-12.5-10-19.2-14.4c-5-3.4-11-5.2-15.9-8.8"/>
		<path id="XMLID_485_" class="st6" d="M568.3,691.6c0.8,0.7,1.7,1.3,2.5,2c6.1,4.9,12.2,9.8,18.3,14.7c2.5,2,5,4,7.9,5.2"/>
		<path id="XMLID_487_" class="st6" d="M596,693.9c2.5-0.2,4.8,1.1,6.7,2.7s3.4,3.5,5.4,5.1c2,1.6,4.3,2.7,6.3,4.2
			c2,1.6,3.7,3.7,3.8,6.3c-1.1-0.1-2.5-0.4-2.9-1.5c-0.4-0.9,0.1-2,1-2.5s1.9-0.5,2.8-0.4c2.3,0.4,4.4,1.7,6.6,2.6
			c3,1.2,6.4,1.6,9.7,1"/>
		<path id="XMLID_488_" class="st6" d="M627.7,693.2c5.4,1.8,10.7,3.9,15.8,6.3c6.1,2.8,12.6,6.9,13.8,13.5
			c-1.9,0.9-4.4,0.8-6.1-0.5c6.1-3.9,14.3-4.1,20.6-0.6c0.9,0.5,1.9,1,2.8,0.6"/>
		<path id="XMLID_489_" class="st6" d="M711.9,695c-0.1-1.4,1.4-2.3,2.7-2.8c1.5-0.7,3.1-1.3,4.8-1.4c1.7,0,3.5,0.7,4.2,2.2
			c0.4,0.8,0.4,1.8,0.5,2.7c0.1,1.7,0.1,3.5-0.8,4.9c-0.4,0.7-1.1,1.3-1.7,1.9c-1.7,1.6-3.5,3.2-5.6,4.1c-1,0.4-2.2,0.6-3,0
			c-0.9-0.7-0.7-2.2,0-3c0.8-0.8,2-1,3.1-0.8c1.1,0.2,2.1,0.6,3.2,1c4.1,1.6,8.7,2.2,13,1.6"/>
		<path id="XMLID_490_" class="st6" d="M740.4,691c-1.2,3.7-0.5,8,1.8,11.1c0.8,1,1.7,2,2.9,2.3c1.2,0.4,2.7,0,3.4-1
			c0.4-0.6,0.5-1.4,0.5-2.1c0.3-3.1,0.4-6.1,0.2-9.2c0-0.4,0-0.8-0.2-1.1c-0.2-0.3-0.5-0.6-0.8-0.8c-1.6-1-3.6-1.5-5.4-1.2
			c-1.5,1.8-2.1,4.3-1.5,6.6"/>
		<path id="XMLID_491_" class="st6" d="M762.7,689.3c0.1,5.8,0.3,11.6,0.4,17.3"/>
		<path id="XMLID_492_" class="st6" d="M776.8,706.8c3.3-2.9,3.2-8.3,6-11.8c1-1.2,2.2-2.1,3.3-3.2c1.8-1.8,3-4.2,3.4-6.6
			c-1.9,0.8-3.9,1.7-5.8,2.5c-1.8,0.8-3.7,1.6-5.7,1.9c-2,0.3-4.1-0.1-5.7-1.3"/>
		<path id="XMLID_493_" class="st6" d="M781,697.6c2.8,0.2,5.6,0.1,8.3-0.3"/>
	</g>
</g>
<g id="Calque_3">
	<path id="XMLID_422_" class="st7" d="M943.8,213.3c-15-4.9-30.7-8.2-44.5-15.9c-16-8.9-28.4-23-40.5-36.9
		c-40.3-46.3-80.6-92.7-120.9-139c-6.4-7.4-13-14.9-20.1-21.6H589.2c0.1,0.5,0.3,1,0.4,1.5c2.5,7.8,5,15.6,7.5,23.4l-3.8-4.9
		c73.2,99,146.4,197.9,219.7,296.9c16.8,22.7,33.6,45.4,53.2,65.8c12.7,13.3,26.6,25.4,40.4,37.5c6.7,5.9,13.9,12,22.6,13.7
		c20,3.8,35.4-16.1,52.5-27.3c8.8-5.8,19-9.5,27.4-15.8c6.2-4.6,11.1-10.3,14.9-16.6V261c-0.8-0.7-1.5-1.4-2.3-2.2
		C999.3,238.4,972.6,222.8,943.8,213.3z"/>
	<path id="XMLID_427_" class="st2" d="M613.8,0c32,29.9,58.6,65.5,78.1,104.7c4.9,9.9,9.5,20.1,15.7,29.2c6.8,9.9,15.6,18.4,24.1,27
		c20.4,20.6,39.4,42.4,58.4,64.2c15.7,18,31.4,36,47.1,54c18.1,20.8,36.3,41.6,53.2,63.3c7.1,9.1,14.1,18.5,23.5,25.3
		c9.4,6.8,21.7,10.6,32.7,7c12.8-4.2,21.1-17.1,33.7-21.9c4.4-1.7,9.3-2.2,13.5-4.3c13.6-6.8,16.7-26.7,30.1-33.5V0H613.8z"/>
	<path id="XMLID_10_" class="st8" d="M776.1,44c-0.1,11.4-0.2,22.9-0.2,34.3c0,6,0.1,12.5,4,17.1c4.8,5.6,13.2,6,20.6,5.9
		c4.1-0.1,8.8-0.4,11.3-3.7c1.3-1.7,1.8-4,2.1-6.1c2.1-13.5,1.9-27.4-0.6-40.8"/>
	<path id="XMLID_9_" class="st8" d="M796.9,63.1c-4.8-0.4-9.8-0.8-14-3.2s-7.2-7.5-5.7-12.1c2-6.1,9.8-7.5,16.2-7.8
		c4-0.2,8.3-0.3,11.5,2c1.9,1.4,3.1,3.5,4,5.6c2.3,5,3.2,10.6,2.9,16.1c-6.8,1.7-14.2,0.6-20.2-2.8"/>
	<line id="XMLID_405_" class="st3" x1="781.5" y1="59" x2="781.5" y2="88"/>
	<line id="XMLID_406_" class="st3" x1="790.5" y1="61" x2="790.5" y2="88"/>
	<path id="XMLID_407_" class="st3" d="M803.5,61c0,10.3,0,20.7,0,31"/>
	<path id="XMLID_408_" class="st3" d="M811.9,57.5c0.1,9.5,0.3,19,0.4,28.5"/>
	<path id="XMLID_409_" class="st8" d="M872.5,54.4c-3.9,0.3-6.5,4.1-10.1,5.8c-5,2.4-11.1,0.1-15.5-3.4c-1-0.8-2-1.6-2.5-2.8
		c-0.4-0.9-0.5-1.9-0.5-2.8c-0.8-10.9-1.6-21.7-2.5-32.6c-0.2-2.5-0.4-5.1,0.5-7.5c1.7-4.8,6.9-7.4,11.8-8.7c3.4-1,7-1.6,10.5-1.1
		c3.5,0.6,6.9,2.5,8.5,5.7c1.8,3.4,1.1,7.6,1.3,11.4c0.2,4.1,1.5,8.1,2.6,12.2c1.9,7.1,3.2,14.3,3.9,21.6c0.1,0.9,0.1,1.9-0.6,2.4
		c-0.4,0.3-1,0.4-1.6,0.4c-2.8,0.2-5.6,0.4-8.4,0.6"/>
	<path id="XMLID_410_" class="st3" d="M842.6,7c0,4.7,4,8.7,8.4,10.3c4.4,1.6,9.3,1.4,14,1.1c0.5,0,1.1-0.1,1.5-0.4
		c0.4-0.3,0.6-0.8,0.7-1.2c1.7-4.3,3.3-8.6,5-12.9"/>
	<path id="XMLID_411_" class="st3" d="M846.6,14.5c-0.9,8.9-0.2,17.9,2.3,26.5"/>
	<path id="XMLID_412_" class="st3" d="M854.7,18c1,10.8,2.1,21.7,3.1,32.5"/>
	<path id="XMLID_413_" class="st3" d="M864.1,17.4c0.8,9.3,2.8,18.5,4.7,27.7"/>
	<path id="XMLID_414_" class="st3" d="M870.2,10.5c0.6,6.2,1.1,12.3,1.7,18.5"/>
	<path id="XMLID_415_" class="st8" d="M743,33.4c-3.9,0.9-8,1.1-12,1.2c-2.7,0.1-5.6,0-8.1-1.1c-3.4-1.5-5.8-4.4-8-7.3
		c-1.9-2.4-3.8-4.8-5.7-7.2c-1.4-1.8-2.8-3.5-3.2-5.7c-0.3-1.7-0.5-11.9-0.1-12.9H743l0,4.8c0,9.7,0,19.3,0,29"/>
	<line id="XMLID_417_" class="st3" x1="728.5" y1="25" x2="728.5" y2="0"/>
	<line id="XMLID_418_" class="st3" x1="736.5" y1="21" x2="736.5" y2="1"/>
	<line id="XMLID_2_" class="st3" x1="718.5" y1="21" x2="718.5" y2="1"/>
	<path id="XMLID_420_" class="st8" d="M952.2,336.2c-11.7-11-22.7-22.7-33-34.9c-11.1-13.2-21.4-27.2-34.4-38.6
		c-4-3.5-8.2-6.8-11.4-11.1c-3.2-4.3-5.1-9.8-3.8-14.9c1.5-5.9,6.8-9.9,11.8-13.4c12-8.5,23.9-17,35.9-25.5
		c8.6-6.1,18.1-12.5,28.7-12.1c4.8,0.2,9.4,1.7,13.6,3.9c13.5,7,22.9,19.9,31.7,32.3c9.6,13.4,19.2,26.9,28.7,40.3
		c2.6,3.6,5.3,7.4,6.1,11.8c1.5,8.3-4.1,16.4-10.9,21.5c-6.8,5.1-14.8,8.3-21.5,13.5c-10.6,8.2-18.2,21.6-31.3,24.4
		c-13.1,2.8-27.3-8.9-27-22.4"/>
	<path id="XMLID_416_" class="st8" d="M1004.4,125.5"/>
	<path id="XMLID_1_" class="st8" d="M1012.9,120.1c-7-1.2-11.7,6.4-15.8,12.1c-7.4,10.3-18.6,17.8-30.9,20.6
		c-2.8,0.6-5.6,1.1-8.4,0.5c-5.4-1-9.6-5.2-13.4-9.2c-15-15.8-30.1-31.6-45.1-47.5c-3.3-3.5-6.8-7.4-6.7-12.2
		c0.1-8.1,9.5-12.2,17.1-15c8.5-3.2,16.6-7.5,24.1-12.7c8.9-6.1,17.6-13.9,28.4-14.7c13.3-1,24.5,8.6,33.6,18.3l27.7,28V118
		L1012.9,120.1z"/>
	<path id="XMLID_436_" class="st8" d="M1023.5,140.8c-1,0.9-2,1.8-3.1,2.7c-9.7,8.1-19.3,16.1-29,24.2c-3.7,3.1-7.8,7.1-7.2,11.9
		c0.4,3,2.4,5.5,4.5,7.7c11.7,12.3,23.8,24.6,34.8,36.9V140.8z"/>
</g>
<g id="lumiere">
	<path id="XMLID_419_" class="st9" d="M858.8,219.8c-20.8-16.4-38.8-35.9-56.8-55.3c-4.8-5.2-9.8-10.8-10.8-17.8
		c-1.4-10.2,6.5-19.5,15.4-24.5c8.9-5,19.2-7.3,28.2-12.1c10.7-5.7,20.8-15.2,32.8-13.6c8.9,1.2,15.7,8.4,21.7,15.1
		c10.9,12.3,21.8,24.5,32.7,36.8c5.6,6.3,11.5,14,9.5,22.2c-2.7,10.7-16.6,13.3-24.8,20.7c-3.1,2.8-5.4,6.5-8.3,9.6
		c-5.5,6-13,9.8-20.2,13.4c-4.3,2.2-8.9,4.4-13.7,4.2c-4.8-0.3-9.8-4.1-9.5-8.9"/>
</g>
<g id="Calque_1">
	<path id="XMLID_455_" class="st1" d="M434.5,582.8c-4.1,14.1,5.9,29.2,18.9,35.9c13,6.7,28.3,7.1,43,7.3
		c176,2.4,352.3-0.1,527.5-16.1l0-16.8C933.6,541.6,867.5,453.7,808.1,367c-22.5-32.9-44.9-66.5-58.9-103.9
		c-19.5-52-22.1-108.5-24.4-163.9C660.6,108.6,596,118,531,117.8c-94.8-0.3-189.1-21.1-283.6-14.8
		C235,259.6,290.1,420.5,396.1,536.6c19.9,21.8,41.5,42.1,59.6,65.4"/>
	<path id="XMLID_11_" class="st3" d="M304.3,212.2c8.3,0.8,16.6,0.3,24.7-1.6"/>
	<path id="XMLID_14_" class="st3" d="M316,211.1c1.7,9.4,0.8,19.2-2.6,28.1"/>
	<path id="XMLID_15_" class="st3" d="M337.8,212.3c-0.2,7.4-1,14.7-2.5,21.9c6.4,0.4,12.7,1.2,18.9,2.4"/>
	<path id="XMLID_16_" class="st3" d="M335.7,220.2c4.7,0.7,9.5,0.5,14.1-0.8"/>
	<path id="XMLID_17_" class="st3" d="M338.4,213.4c6.2,1.2,12.8,0.8,18.8-1.2"/>
	<path id="XMLID_18_" class="st3" d="M378.9,208.1c-4.7-1.4-9.6-2-14.5-1.7c-0.5,4.9,2.7,9.3,5.7,13.3c0.6,0.8,1.3,1.6,2.2,1.9
		c0.9,0.3,1.9,0,2.8,0.1c3.1,0.4,3.6,4.7,3.3,7.8c-0.3,2.1-0.6,4.4-2.1,5.9c-1.9,2-5,2.2-7.6,1.3s-4.6-2.9-6.5-4.8"/>
	<line id="XMLID_19_" class="st3" x1="392.5" y1="212" x2="392.5" y2="232"/>
	<path id="XMLID_20_" class="st3" d="M380.3,213.6c8.5,1,16.9-1.2,25.2-3.4"/>
	<line id="XMLID_24_" class="st3" x1="428.5" y1="206" x2="428.5" y2="234"/>
	<path id="XMLID_25_" class="st3" d="M425.7,207.6c3.1,0,6.2,0.1,9.3,0.1c-0.8,5.7,5.9,10.5,5,16.2c-0.4,2.6-2.4,4.7-4.7,5.9
		c-2.3,1.2-4.9,1.7-7.5,2.1"/>
	<path id="XMLID_26_" class="st3" d="M445,207.7c0,8.3,0,16.7,0,25c0,0.4,0,0.9,0.3,1.2c0.3,0.3,0.8,0.4,1.2,0.4
		c3.9,0.2,8.1,0.3,11.1-2"/>
	<path id="XMLID_27_" class="st3" d="M444,221.5c0,0,6.9,0,10.2,0c-0.9,0-2.2,0-2.2,0"/>
	<path id="XMLID_28_" class="st3" d="M443,207.8c5.4,0,10.8-1.1,15.8-3.2"/>
	<path id="XMLID_29_" class="st3" d="M491,228c0-7.6,0-15.1,0-22.7c0-0.6,0-1.3,0.4-1.8c0.5-0.6,1.4-0.7,2.1-0.8c4-0.3,8-0.4,12-0.2
		c-0.3,3.6-1.1,7.3-3.4,10c-2.3,2.8-6.5,4.2-9.6,2.4"/>
	<path id="XMLID_30_" class="st3" d="M511,229c0-9.8,0-19.6,0-29.4c3.9,0,7.8-0.1,11.7-0.1c0.4,0,0.9,0,1.2,0.2
		c0.4,0.3,0.5,0.8,0.6,1.3c0.3,1.5,0.5,3,0.6,4.5c0,0.8,0,1.7-0.3,2.4c-0.4,0.8-1.1,1.4-1.8,1.9c-4,2.8-9.1,3.8-13.9,2.8
		c2.4-0.5,4.8-1,7.3-0.6c2.4,0.3,4.8,1.6,5.9,3.8c1,2.1,0.6,4.6,1.3,6.8c0.9,2.7,3.6,4.7,6.5,4.8"/>
	<path id="XMLID_31_" class="st3" d="M540,204c-2.1,0-4.2,0-6.4,0c-1.1,4.9,2.8,9.4,6.3,13c0.6,0.6,1.1,1.1,1.9,1.3
		c1.1,0.3,2.3-0.4,3-1.4c0.7-1,0.9-2.1,1.1-3.3c0.6-3.1,1.3-6.4,0.2-9.4s-4.6-5.3-7.5-3.9c-1.7,0.8-2.7,2.8-3,4.7
		c-0.2,1.9,0.2,3.8,0.6,5.7"/>
	<path id="XMLID_32_" class="st3" d="M554.9,203c0.3,8.2,0.2,16.3-0.3,24.5"/>
	<path id="XMLID_33_" class="st3" d="M547.1,204.2c4,1.1,8.4,0.6,12.1-1.3c2-1,4.1-2.5,6.3-1.9"/>
	<path id="XMLID_34_" class="st3" d="M573.7,217.7c-4.6-2.4-7.7-7.4-7.8-12.5c0-3.4,1.5-7.1,4.7-8.2c3-1.1,6.2,0.4,8.8,2.3
		c3.3,2.4,6.4,6.1,5.6,10.1c-0.6,2.9-3.2,5-6.1,5.9c-2.8,0.9-5.9,0.7-8.8,0.6"/>
	<path id="XMLID_35_" class="st3" d="M594.5,224c0,0,0-14.2,0-21"/>
	<path id="XMLID_36_" class="st3" d="M585.5,203.6c5.8-0.4,11.7-0.2,17.5,0.7"/>
	<path id="XMLID_37_" class="st3" d="M608,198.7c1.3,3.6,3.3,6.9,5.8,9.7c1.1,1.2,2.5,2.5,4.2,2.6s3.5-1.3,3.2-2.9"/>
	<path id="XMLID_38_" class="st3" d="M623.3,197.5c0.9,3.8,0.3,7.9-1.6,11.3c-1.2,2.1-2.9,3.9-4.3,6c-3.6,5.2-5.1,11.5-6.6,17.6"/>
	<path id="XMLID_39_" class="st3" d="M629.5,201c0,9.2,0,28,0,28"/>
	<path id="XMLID_40_" class="st3" d="M627.1,201.2c4.2-1.6,8.8,1.9,11.1,5.8c0.6,1,1.1,2.2,0.8,3.3c-0.6,1.7-2.7,2.1-4.4,2.2
		c-2.2,0.2-4.3,0.3-6.5,0.5"/>
	<path id="XMLID_41_" class="st3" d="M644.9,224c-0.1-7.5,0.4-15,1.3-22.5c3.1,0.2,6.1,0.4,9.2,0.5c2.1,0.1,4.8-0.1,5.5-2.1"/>
	<path id="XMLID_42_" class="st3" d="M644,211.4c3.2,0.8,6.6,0.3,9.5-1.2"/>
	<path id="XMLID_45_" class="st3" d="M643.4,223c6.7,0.5,13.5-4.4,19.8-2"/>
	<path id="XMLID_12_" class="st10" d="M-280.7-241.7c5.3-0.2,10.6,0,15.8,0.7c-2,1.4-4,2.6-6.1,3.7c-1.6,8.1-1.4,16.6,0.7,24.6
		c2.7-0.1,5.4-0.1,8.1-0.2c1-1.4,1.1-3.2,1.8-4.8s2.5-3,4-2.2c0.1,3.4-0.3,6.8-1.3,10.1c-1-0.2-2,0.5-3,0.9c-1.8,0.7-3.8,0-5.6-0.4
		c-4.9-1.2-10.1-0.8-15.2-0.4c0.7-1.1,1.9-2,3.2-2.3c0.7-0.2,1.4-0.3,1.8-0.8c0.3-0.4,0.3-0.9,0.2-1.4c-0.3-8.4-0.7-16.7-1-25.1
		c-1.3-0.1-2.7-0.2-4-0.2c-0.5-1,0.6-2.4,1.7-2.2"/>
	<path id="XMLID_13_" class="st10" d="M-253.2-241.4c7.4-0.3,14.8-0.4,22.2-0.2c0.7,0,1.5,0.1,1.9,0.6c0.4,0.5,0.4,1.2,0.4,1.8
		c0,1.9,0,3.8,0,5.8c-0.6,0-1.1,0-1.7,0c0.7-2.7-2.2-5.2-4.9-5.6c-2.8-0.4-5.6,0.5-8.4,0.8c0,3.9,0,7.8-0.1,11.7
		c1.3-1.8,4.6-0.2,6.2-1.7c0.5-0.5,0.7-1.2,1.1-1.7c0.4-0.6,1.1-1.1,1.7-0.8c0.1,2.5,0.2,5.1,0.4,7.6c0,0.6-0.5,1.5-0.9,1
		c-0.1-1.1-0.4-2.2-0.9-3.2c-1.7,0-3.4,0-5.1,0c-0.4,3.7-0.8,7.3-1.2,11c3.2,0.8,6.5,1.2,9.8,1.3c0.5,0,1.1,0,1.5-0.2
		c1.7-0.9,0.9-4.2,2.8-4.9c2,2.4,1.1,6.1,0.1,9c-7.7-0.9-15.5-0.7-23.2,0.7c0-2.1,1.5-4,3.5-4.6c0.4-7.8,0.2-15.7-0.6-23.5
		c0-0.4-0.1-0.8-0.3-1.2c-0.4-0.6-1.2-0.6-1.9-0.7c-0.7-0.1-1.5-0.4-2-1c-0.4-0.6-0.4-1.6,0.2-2"/>
	<path id="XMLID_43_" class="st10" d="M-213.8-234.7c-0.3-2-0.3-4,0-5.9c7.9-1.6,16.1-2.2,24.1-1.9c0.6,0,1.2,0.1,1.7,0.5
		c0.4,0.4,0.5,1.1,0.5,1.7c0.1,2,0.2,4.1,0.2,6.1c-0.7,0.3-1.1-0.7-1.3-1.4c-0.5-1.7-2.4-2.8-4.2-2.9c-1.8-0.1-3.6,0.4-5.3,1
		c0.3,5.5,0.1,10.9-0.6,16.4c-0.3,2.4-0.5,5.3,1.4,6.8c0.7,0.6,1.7,0.8,2.5,1.3c0.8,0.5,1.4,1.6,0.9,2.4c-3.9,0.1-7.9-0.3-11.7-1.3
		c0.3-1.3,2-2,3.2-1.4c0.7-7.1,1.2-14.1,1.4-21.2c0-1.4-0.2-3.1-1.5-3.6c-0.8-0.3-1.6,0.1-2.3,0.3c-1.9,0.6-4,0.7-6,0.2
		c-0.7,1.8-1.3,3.6-2,5.4c-0.6-1.8-0.8-3.6-0.6-5.5"/>
	<path id="XMLID_44_" class="st10" d="M-182.6-241.9c1.7,1.2,3.9,1,5.9,0.6c2-0.4,4-1,6-0.7c0.2,1-0.6,2-1.4,2.6
		c-0.8,0.6-1.8,1.1-2.3,2c-0.3,0.6-0.4,1.4-0.4,2.1c-0.1,2.2-0.3,4.5-0.4,6.7c-0.1,1.6-0.2,3.1,0,4.7c0.2,1.8,0.9,3.6,1.3,5.4
		c0.6,2.7,0.4,5.5,0.3,8.2c0.7-0.3,0.6-1.6-0.2-1.7c1.2-0.9,3.3,0,3.5,1.5c-4-0.4-8.1-0.1-11.9,1c-0.1-0.7-0.2-1.3-0.3-2
		c1.2-0.1,2.3-0.3,3.4-0.7c0.2-0.1,0.5-0.2,0.7-0.4c0.2-0.2,0.2-0.5,0.2-0.8c0.2-6.6,0.5-13.2,0.7-19.8c0.1-1.6,0-3.3-1.1-4.4
		c-0.8-0.8-1.9-1-2.8-1.6s-1.6-1.9-0.9-2.7c2.8,0.5,5.7,0.4,8.4-0.4"/>
	<path id="XMLID_46_" class="st10" d="M-136.5-239.6c5.2-0.2,10.4-0.3,15.6-0.5c2.9-0.1,5.9-0.2,8.4,1.2c0.1,2.4,0.1,4.8,0.2,7.1
		c-1.2,0.6-2.4-0.6-3-1.7s-1-2.5-2.1-3.1c-0.7-0.4-1.6-0.3-2.5-0.3c-2.4,0.2-4.9,0.4-7.3,0.6c0.2,3.9,0.4,7.7,0.6,11.6
		c1.4,0,2.8,0,4.2,0c0.3-2.2,1.8-4.1,3.9-5c0.4,2.9,0.5,5.8,0.3,8.7c-0.7,0.1-1.4,0.2-2.1,0.2c-0.4-1.3-1.8-2-3.2-2.1
		s-2.6,0.5-3.9,1c0,3-0.1,6.1-0.1,9.1c0,0.6,0,1.2,0.4,1.6c0.4,0.4,1,0.4,1.6,0.4c3,0,6,0,9-0.1c-0.4-0.1-0.9-0.3-1.3-0.4
		c2.1,0,4-1.6,4.5-3.6c0.1-0.6,0.2-1.3,0.7-1.6c0.8-0.5,1.8,0.4,2.4,1.2c-0.9,2.2-1.2,4.6-1,7c-7.9,0.6-15.9,0.4-23.7-0.8
		c0.3-1.2,1.1-2.2,2.2-2.6c0.4-0.2,0.9-0.3,1.2-0.6c0.3-0.4,0.3-0.9,0.4-1.4c0.1-6.7,0.1-13.5,0.2-20.2c0-0.5,0-1-0.2-1.4
		c-0.2-0.4-0.7-0.6-1.1-0.9c-1.3-0.7-2.5-1.3-3.8-2c0-0.6,0-1.1,0-1.7"/>
	<path id="XMLID_47_" class="st10" d="M-108.5-232c0-1.7-0.1-3.4-0.1-5.2c0-0.6,0-1.2,0.5-1.6c0.3-0.2,0.8-0.3,1.2-0.3
		c8.3-0.1,16.8-2.7,24.9-0.7c0.4,0.1,0.8,0.2,1.1,0.6c0.2,0.3,0.2,0.7,0.2,1c0,2.7,0.1,5.4,0.1,8.2c-2.1-1.1-3.9-2.9-4.9-5
		c-0.3-0.5-0.5-1.1-1-1.3c-0.3-0.2-0.7-0.2-1.1-0.2c-1.3,0-2.7,0-4,0c1.1,8.6,0.7,17.3-1.2,25.7c1.2-0.2,2.5-0.4,3.7,0
		c1.2,0.4,2.1,1.7,1.8,2.9c-4.4-0.2-8.7-0.4-13.1-0.7c-0.3-1,0.5-2,1.5-2.4c1-0.4,2-0.3,3.1-0.2c0-8,0-16.1,0-24.1
		c0-0.4,0-0.8-0.3-1.1c-0.3-0.3-0.7-0.3-1.1-0.3c-2.3,0.1-4.7,0.2-7,0.3c0,1.3,0,2.6-0.6,3.7c-0.6,1.1-2,1.9-3.2,1.3
		c0-0.6,0-1.2-0.1-1.7"/>
	<path id="XMLID_49_" class="st10" d="M-26.9-237.2c-0.4-0.7-0.5-1.5-0.4-2.3c-1.5-0.1-3-0.2-4.4-0.3c4.2-1.4,8.7-1.9,13.1-1.2
		c0.6,0.8-0.1,2-1,2.6c-0.9,0.6-2,0.9-2.5,1.8c-0.4,0.7-0.4,1.7-0.3,2.5c0.3,3.6,0.5,7.2,0.8,10.8c0.1,1.8,0.3,3.6,1,5.2
		c0.6,1.4,1.6,2.5,2.5,3.6c1.8,2.1,4.3,4.4,7,3.9c2.3-0.5,3.7-2.8,4.7-5c2.4-5.7,3.3-12.1,2.7-18.3c-0.1-0.8-0.2-1.7-0.6-2.4
		c-1.3-2.3-5.4-2.8-5.3-5.4c3.8,0,7.6,0,11.5,0c0,1,0,2.1,0.1,3.1c-0.8-0.3-1.7,0.3-2.2,1c-0.4,0.8-0.5,1.6-0.5,2.5
		c-0.3,5.1-0.6,10.2-0.9,15.2c-0.1,2-0.3,4.1-1.2,5.9c-2,4-6.9,5.6-11.4,5.9c-1.3,0.1-2.6,0.1-3.8-0.2c-3.5-0.9-6-4.2-6.9-7.7
		c-0.9-3.5-0.7-7.2-0.4-10.8c0.3-3.6,0.5-7.3-0.7-10.8"/>
	<path id="XMLID_50_" class="st10" d="M33.5-234c0-2,0-3.9,0-5.9c0-0.2,0-0.5-0.1-0.6c-0.1-0.1-0.3-0.2-0.5-0.2
		c-1.6-0.3-3.2-0.6-4.8-0.9c-1.1-0.2-2.1-0.4-3.2-0.3c-0.7,0.1-1.4,0.3-2.1,0.5c-4.3,1.6-7.4,5.8-7.6,10.4c0,0.7,0,1.5,0.3,2.1
		c0.6,1.2,2.1,1.8,3.4,2.2c3,1.1,5.8,2.6,8.4,4.4c0.7,0.5,1.4,1,1.7,1.7c0.3,0.6,0.3,1.2,0.4,1.9c0.1,1.1,0.2,2.1,0.3,3.2
		c0,0.5,0.1,1-0.1,1.4c-0.4,0.8-1.3,1-2.2,1.2c-2.1,0.4-4.3,0.8-6.5,0.3c-2.1-0.5-4.1-2.1-4.4-4.2c-0.1-0.7,0-1.4-0.2-2
		c-0.2-0.7-0.7-1.3-1.4-1.3c0,2.2,0,4.5-0.1,6.7c0,0.4,0,0.7,0.2,1c0.2,0.3,0.5,0.4,0.9,0.6c3.4,1.3,7,2,10.7,2c0.5,0,1,0,1.4-0.2
		c1.2-0.6,1.4-2.1,2-3.2c1.3-2.1,4.5-3,4.8-5.5c0.1-1.1-0.4-2.1-1-3c-1.9-3-4.7-5.5-7.9-7.1c-1.4-0.7-2.8-1.2-4-2.2
		c-1.9-1.7-2.7-4.6-1.8-7c0.2-0.5,0.5-1,0.9-1.3c0.4-0.2,0.8-0.3,1.2-0.3c1.9-0.3,4.1-0.5,5.6,0.8c1.9,1.7,1.7,5.2,4,6.2
		c0.6-0.9,1.2-1.8,1.8-2.7"/>
	<path id="XMLID_51_" class="st10" d="M40.3-213.2c-0.2-0.6,0.6-1.1,1.3-1c0.7,0.1,1.4,0.2,1.8-0.3c0.2-0.3,0.2-0.6,0.2-0.9
		c0.3-5.9,0.6-11.8,0.9-17.8c0.1-2.7,0-5.8-2.2-7.2c-0.7-0.5-1.6-0.7-2.3-1.2c-0.7-0.5-1.2-1.5-0.7-2.2c4.2,0.4,8.4,0.6,12.6,0.6
		c0,0.7,0,1.5,0,2.2c-0.9-0.5-2,0.1-2.5,0.9c-0.5,0.8-0.5,1.9-0.5,2.9c-0.1,6.6-0.2,13.3-0.2,19.9c0,0.7,0,1.5,0.4,2.1
		c0.5,0.6,1.2,0.8,1.8,1.2c1.1,0.8,1.5,2.4,0.8,3.5c-3.9-0.5-7.8-1-11.6-1.5"/>
	<path id="XMLID_52_" class="st10" d="M57.8-240.3c-0.1-0.5-0.3-0.9-0.4-1.4c3.9-0.1,7.6-0.2,11.6-0.3c0,0.6,0,1.1,0,1.7
		c-1,0.1-1.9,0.4-2.7,1c2.3,3.1,4.6,6.1,6.9,9.2c1.6-3.4,3.9-6.5,6.7-9c-2-0.1-3.9-1.2-4.9-2.8c4.3-1.3,9.1-1,13.2,0.8
		c-1.5-0.1-2.9,1.1-3.8,2.3c-0.9,1.3-1.5,2.7-2.5,3.9c-0.8,1-1.9,1.7-2.9,2.5c-1.2,0.9-2.4,1.8-3.2,3.1c-0.8,1.3-1.1,3-0.3,4.3
		c0.8,1.4,2.5,1.9,3.7,2.9c3.2,2.4,4,7.4,7.7,9.2c0.8,0.4,1.8,0.9,1.6,1.7c-4.5,0.4-9.1,0.1-13.5-0.7c0.7-1.2,2-2,3.3-2.3
		c-3.5-2.9-4-8.5-7.8-11.2c-2.5,4-5.2,7.9-8.1,11.7c1.5,0,3,0.4,4.4,1.2c0,0.9-1.2,1.2-2,1.2c-3,0-6.1-0.2-9.1-0.7
		c0.9-1.4,2.8-2.1,4.4-1.6c3-4.8,6-9.6,9-14.3c-1.1-2.9-4.7-4.5-5.5-7.5c-0.2-0.6-0.2-1.3-0.5-1.9c-1.3-2.4-6.1-1.6-6.5-4.3"/>
	<path id="XMLID_57_" class="st10" d="M-33.3-233.6c-1.6-1.7-3.9-2.7-6.1-3.7c-3.2-1.4-6.5-2.9-9.9-3c-3-0.1-6,0.8-9,0.7
		c-1.1,0-2.2-0.2-3.2,0.2c-1,0.4-1.8,1.6-1.4,2.5c1.3,0.5,2.6,1,3.9,1.6c0.4,0.2,0.8,0.3,1.1,0.7c0.4,0.5,0.5,1.2,0.5,1.8
		c0.2,7.1,0.2,14.2,0.1,21.3c-1.4,0.5-2.9,0.9-4.4,1c0,0.8,0,1.6,0,2.4c6,0.1,12,0.2,18,0.1c2.8,0,6.2-0.4,7.5-2.9
		c0.4-0.9,0.5-1.9,1.1-2.6c1-1.2,3.1-1.3,3.9-2.7c0.3-0.5,0.4-1.2,0.5-1.8C-30.1-223.6-29.6-229.7-33.3-233.6z M-35.9-217.2
		c-0.3,1.1-0.7,2.2-1.3,3.1c-1.6,2.4-4.7,3.4-7.6,3.9c-2.4,0.4-5.1,0.5-6.9-1.1c-0.5-0.4-0.8-0.9-1.1-1.4c0.1,0.3,0.2,0.6,0.3,0.8
		l-0.4-1.1c-0.1-0.3-0.3-0.6-0.3-0.9l0.3,0.9c0,0.1,0.1,0.2,0.1,0.3c-0.4-1.3-0.7-2.7-0.6-4.1c0.1-0.9,0.3-1.9,0.5-2.8
		c0.5-3-0.2-6-0.7-9.1c-0.4-2.8-0.6-5.8,0.2-8.6c3.8-1.4,8,0.3,11.6,2.1c0.6,0.3,1.2,0.6,1.8,1c1.8,1.2,2.9,3.2,3.7,5.3
		C-35.1-225.1-34.9-221-35.9-217.2z"/>
	<path id="XMLID_60_" class="st10" d="M-138.5-213.3c-0.6-0.4-1.1-1-1.6-1.5c-2.2-2.5-4.3-5-6.5-7.5c-1.4-1.6-2.9-3.9-1.9-5.7
		c1.8,0.7,3.9-0.2,5.1-1.6c1.2-1.5,1.6-3.4,1.7-5.4c0.1-1.6-0.1-3.2-1.1-4.5c-1.9-2.5-5.8-2.1-9-1.9c-4.7,0.4-5.5-0.4-10-1.9
		c-0.2,1.1-3.6,2.6-2.6,3.1c0.5,0.3,1.1,0.4,1.5,0.8c0.4,0.5,0.4,1.2,0.4,1.9c-0.4,8.2-0.2,16.5,0.6,24.7c-1.1,0.5-2.4,0.7-3.6,0.5
		c0.2,0.5,0.3,1,0.5,1.5c3.7,0,7.5,0,11.2,0c0.4-0.9-0.3-2-1.2-2.5c-0.9-0.4-2-0.4-3-0.3c0-3.5,0-6.9,0-10.4c2.7-0.9,6,0.7,6.9,3.4
		c0.5,1.4,0.4,2.9,1.1,4.2c1.2,2.1,4.3,2.5,5.6,4.5c0.3,0.5,0.5,1,1,1.3c0.4,0.3,1,0.2,1.5,0.2c1.8-0.2,3.7-0.3,5.5-0.5
		C-135.9-212-137.5-212.7-138.5-213.3z M-150.3-227c-0.6,0.4-1.4,0.4-2.2,0.4c-1.6,0-3.3,0.1-4.9,0.1c0,0.1,0,0.2,0,0.3l-0.6-0.3
		c0.2,0,0.4,0,0.6,0c0-4.4,0-8.8-0.1-13.2c1.4-0.1,2.8,0,4.1,0.3c1.7,0.4,3.4,1,4.7,2.2c1.3,1.2,2.2,2.9,2,4.6
		c-0.1,0.5-0.2,0.9-0.5,1.3c-0.3,0.4-0.7,0.7-1,1C-148.9-229.3-149.1-227.7-150.3-227z"/>
	<path id="XMLID_48_" class="st3" d="M307.1,137c-0.3,11.3-0.5,22.6-0.8,33.9c0,2,0,4.2,1.3,5.8c2.3,2.7,6.5,1.5,10,1.6
		c3.1,0.1,6.2,1.4,8.5,3.6"/>
	<path id="XMLID_53_" class="st3" d="M335,141.5c-0.2,10.7,0,21.4,0.4,32.1c0.1,1.9,0.2,4,1.5,5.6c1.3-0.9,1.3-2.8,2.3-4.1
		c1.4-1.7,4.1-1.4,6.2-1c3.2,0.7,6.4,1.4,9.6,2.1"/>
	<path id="XMLID_54_" class="st3" d="M341,156c1.3,0,2.6,0,3.9,0c-4.8,0.8-9.7,0.8-14.4-0.1"/>
	<path id="XMLID_61_" class="st3" d="M332.5,141.5c7.6,0.4,15.3-0.8,22.5-3.6"/>
	<path id="XMLID_62_" class="st3" d="M396.1,138.5c-0.7,12.6,5.4,25.5,2,37.7"/>
	<path id="XMLID_63_" class="st3" d="M381,137.2c9.3-1,18.7-0.9,28,0.4"/>
	<path id="XMLID_64_" class="st3" d="M421.4,137.5c0.2,13.7,0.5,27.3,0.7,41"/>
	<path id="XMLID_65_" class="st3" d="M438.9,178c0.7-5.2,0.4-10.5-0.9-15.6c-0.6-2.3-1.4-4.6-1.9-7c-0.7-3.5-0.6-7.2-0.5-10.8
		c6.1-1.5,12.4-2.1,18.6-2.1c0.6,0,1.2,0,1.8,0.3c1.8,0.7,2.3,3,2.1,5c-0.7,6.9-7.1,12.8-14.1,12.8c-1.2,0-2.5-0.2-3.5-0.8
		s-1.7-2-1.4-3.1c3-0.9,6.7-1.5,8.6,0.9c0.7,0.9,1,2.1,1.5,3.1c1.4,2.7,4.4,4.2,6.4,6.5c3.2,3.5,4.4,9,8.8,10.7"/>
	<path id="XMLID_69_" class="st3" d="M535.5,139c0,0,0,25.2,0,38"/>
	<path id="XMLID_70_" class="st3" d="M535,140.2c5.4-1.4,11.7,1.8,13.7,7c0.9,2.3,1,4.7,1.2,7.1c0.3,5.4,0.6,10.9,0.9,16.3
		c0,0.7,0.1,1.5-0.2,2.2c-0.3,0.8-0.8,1.4-1.4,1.9c-3.2,3-8,4.2-12.2,3.1"/>
	<path id="XMLID_71_" class="st3" d="M557.5,138c-0.8,5,0.4,10,1.7,14.9c1.2,4.8,2.4,9.5,4.1,14.1c0.6,1.6,1.2,3.2,2.4,4.4
		c1.1,1.2,2.9,2,4.5,1.6c4.1-10.7,3.7-22.5,3.3-33.9c0,6.8,0.1,13.5,0.1,20.3c0,2.7,0.2,5.9,2.4,7.5c2.7,2.1,5.5,4.2,8.3,6.2
		c1.2,0.8,2.5,1.7,3.9,2.1"/>
	<path id="XMLID_66_" class="st3" d="M471.1,141c-0.1,13.8-3,27.5-1.4,41.2c3.5-2.7,8.5-3.1,12.4-1"/>
	<path id="XMLID_67_" class="st3" d="M470,160c3.5,0,6.9-0.9,10-2.5"/>
	<path id="XMLID_68_" class="st3" d="M472,141.5c4.5,0,13,0,13,0"/>
	<path id="XMLID_72_" class="st3" d="M494,139c5.5,0.3,11-0.4,16.5,0.1c2.3,0.2,4.9,0.7,6.5,2.4"/>
	<path id="XMLID_73_" class="st3" d="M505.4,139.5c0.7,4.2-2.2,8.1-3.1,12.3c-0.4,1.9-0.4,3.9-0.4,5.9c0,6.9,0,13.9,0,20.8"/>
	<path id="XMLID_74_" class="st3" d="M627,141c-2.5-1.1-4.5-3-6.5-4.9c-2-1.8-4.2-3.6-6.9-4.2c-2.6-0.6-5.8,0.3-7,2.8
		c-0.5,1-0.6,2.1-0.7,3.2c-0.3,2.9-0.4,6.2,1.7,8.2c1,1,2.4,1.5,3.8,2c6.2,2.3,12.5,6.1,14.5,12.3c0.8,2.4,0.8,4.9,0.8,7.4
		c0,1.8-0.2,3.8-1.4,5.1c-1.6,1.7-4.3,1.7-6.5,1.2c-5.1-1.2-9.6-4.5-12.3-8.9"/>
	<path id="XMLID_75_" class="st3" d="M638,135.5c0.1,12.8,0.5,25.7,1.1,38.5"/>
	<path id="XMLID_76_" class="st3" d="M652.2,169.9c-0.7-2.4,0.3-5,1.7-7c1.4-2,3.3-3.7,4.8-5.8c1.3-1.8,2.2-3.9,3.1-6
		c2.6-6.1,5-12.4,7.2-18.7"/>
	<path id="XMLID_77_" class="st3" d="M651,135.4c3.4,1.1,6,3.9,8.4,6.6c7,8,14,16,21,24"/>
	<path id="XMLID_78_" class="st3" d="M635.5,130c1-0.2,2-0.7,2.8-1.3c-1.2-0.2-2.5-0.2-3.7-0.1c1.4,0.7,2.9,1.3,4.3,2"/>
	<path id="XMLID_79_" class="st3" d="M349,262.4c36.3,4.1,73,1.4,109.5-1.3c24.7-1.8,49.4-3.6,74.1-5.4c35.9-2.6,72.2-5.3,107.8-0.2
		"/>
	<path id="XMLID_80_" class="st3" d="M327.3,315.8c-0.5,2.1-0.1,4.3,1.2,6c0.8,1.1,2,2,3.3,1.8c1.4-0.1,2.6-1.4,2.9-2.8
		c0.4-1.4,0.2-2.9-0.1-4.3c-0.1-0.3-0.1-0.7-0.4-1c-0.3-0.3-0.7-0.3-1.1-0.4c-2.3-0.2-4.6,0.1-6.8,0.8"/>
	<path id="XMLID_81_" class="st3" d="M340.8,324.3c0-3.6-0.8-7.2-2.3-10.5c5.2,0.8,9.9,4.5,11.9,9.4c0.6-4.3-0.3-8.6-1.2-12.8"/>
	<path id="XMLID_82_" class="st3" d="M366.1,311c1,3.2,2.9,6.1,5.3,8.5c0.7-4,1.3-7.9,1.7-12"/>
	<path id="XMLID_83_" class="st3" d="M378.6,319.6c0.1-4.3,1.9-8.6,5-11.6c0.2-0.2,0.5-0.4,0.8-0.4c0.4,0.1,0.5,0.5,0.6,0.8
		c1,3.4,2,6.8,3,10.3"/>
	<line id="XMLID_84_" class="st3" x1="379.4" y1="314" x2="386.4" y2="313.7"/>
	<path id="XMLID_85_" class="st3" d="M411.3,304.6c-1.2,3.7-2.5,7.5-3.7,11.2"/>
	<path id="XMLID_86_" class="st3" d="M409.2,305c1.4,0.3,2.7-0.3,4.1-0.7c1.3-0.4,3-0.5,4,0.4c1.4,1.3,0.7,3.7-0.9,4.8
		c-1.5,1-3.5,1-5.4,0.9c-0.5,0-0.9-0.1-1.3-0.3c-0.6-0.4-0.9-1.1-0.8-1.8c2.9-0.2,5.4,1.8,7.6,3.7c1.2,1,2.5,2.1,3.7,3.1"/>
	<path id="XMLID_87_" class="st3" d="M425.1,303.1c-0.5,3.1-1.1,6.3-1.6,9.4c2.6-0.5,5.3-0.1,7.6,1.1"/>
	<line id="XMLID_88_" class="st3" x1="424.2" y1="306.6" x2="430.2" y2="306.4"/>
	<path id="XMLID_89_" class="st3" d="M425.7,302.4c2.4-0.2,4.8-0.6,7.1-1.4"/>
	<path id="XMLID_90_" class="st3" d="M443.6,300.9c-1.9-0.8-4-1-6-0.6c0,1.9-0.8,3.7-1.3,5.6c-0.4,1.9-0.3,4.1,1.2,5.3
		c2,1.6,5,0.2,7.1-1.2c0.3-0.2,0.6-0.4,0.8-0.7c0.6-0.9,0-2.2-1-2.7c-1-0.5-2.1-0.3-3.2-0.2"/>
	<path id="XMLID_91_" class="st3" d="M450.9,312.7c-1-3.8,1.6-7.4,4.1-10.4c0.8-0.9,1.5-1.9,2.3-2.8c0.2-0.2,0.4-0.5,0.6-0.6
		c0.6-0.3,1.4,0.2,1.6,0.9s0.1,1.4,0.1,2.1c-0.3,3,0.3,6.1,1.7,8.7"/>
	<line id="XMLID_92_" class="st3" x1="451.2" y1="306.8" x2="460.2" y2="306.5"/>
	<path id="XMLID_93_" class="st3" d="M468.7,308.6c-0.4-3.7-0.1-7.5,0.9-11.1c2.7-0.2,5.4-0.5,8.1-0.7c1-0.1,2.2-0.1,3,0.6
		c0.8,0.8,0.6,2.3-0.2,3.2c-0.8,0.9-2,1.3-3.1,1.6c-2.8,0.9-5.8,1.6-8.7,1.2c2.2,1.2,4.9,1.3,7.4,1.7s5.2,1.3,6.5,3.5"/>
	<path id="XMLID_94_" class="st3" d="M488.9,298.2c0.3,3,0.3,6,0,9"/>
	<path id="XMLID_95_" class="st3" d="M488.2,297.9c2.5-0.5,5.3,1.1,6.2,3.5c0.9,2.4-0.2,5.4-2.4,6.7c-1.9,1.1-4.2,1-6.3,0.9"/>
	<path id="XMLID_96_" class="st3" d="M502.6,292.9c-1.3,3-2.7,6-4,9.1c-0.1,0.3-0.3,0.6-0.1,0.9c0.2,0.4,0.6,0.5,1,0.6
		c2.6,0.4,5.3,0.7,8,0.7"/>
	<line id="XMLID_97_" class="st3" x1="501" y1="299.3" x2="508" y2="299"/>
	<line id="XMLID_98_" class="st3" x1="502.8" y1="293.2" x2="514.8" y2="292.8"/>
	<path id="XMLID_99_" class="st3" d="M520.8,290.8c0.2,5.3-0.9,10.7-3.2,15.5"/>
	<path id="XMLID_100_" class="st3" d="M521.1,289.7c1.6,0.3,3.1,0.7,4.7,1c0.6,0.1,1.4,0.3,1.7,0.9c0.2,0.3,0.2,0.6,0.2,1
		c0.1,1.4,0,2.9-0.1,4.3c0,0.4-0.1,0.9-0.4,1.3c-0.3,0.4-0.7,0.5-1.2,0.6c-1.8,0.4-3.7,0.3-5.4-0.3c1.7,0.2,2.9,1.7,3.7,3.3
		c0.7,1.5,1.2,3.2,2.2,4.6c1,1.4,2.9,2.4,4.4,1.7"/>
	<path id="XMLID_101_" class="st3" d="M551.7,288.1c-0.9,3.1-1.2,6.4-0.9,9.6c1.9,0,3.8-0.1,5.7-0.1c0.3,0,0.7,0,0.9-0.3
		c0.2-0.2,0.2-0.4,0.2-0.7c0.3-3.1,0.5-6.1,0.4-9.2"/>
	<path id="XMLID_102_" class="st3" d="M562.6,297.8c0.1-2.9,0.2-5.8,0.3-8.8c3.8,2,7,5.3,8.7,9.3c-0.1-4.7-0.2-9.4-0.3-14.1"/>
	<path id="XMLID_103_" class="st3" d="M595.2,283.9c0.9,5,0.5,10.3-1.3,15.1"/>
	<path id="XMLID_104_" class="st3" d="M590.7,285.1c2.8-0.1,5.6-0.2,8.4-0.3c0.5,0,1.1,0.3,0.9,0.7"/>
	<path id="XMLID_105_" class="st3" d="M607.2,284.7c-1.5-0.4-3.1,0.1-4.2,1.1c-1.1,1.1-1.5,2.8-1.1,4.2c0.7,2.6,3.6,3.9,6.2,4.4
		c0.7,0.1,1.4,0.2,2.1,0c1.1-0.3,1.8-1.4,2.2-2.4c0.9-2.1,1.2-4.5,0.9-6.8c-2.3-0.1-4.5-0.3-6.8-0.4"/>
	<path id="XMLID_106_" class="st3" d="M617.1,284.3c0.2,4.5,3.9,8.5,8.3,9.1c1-3.1,1.3-6.5,0.7-9.8"/>
	<path id="XMLID_107_" class="st3" d="M637.4,281.5c0.3,4.1,0,8.2-0.9,12.2"/>
	<line id="XMLID_108_" class="st3" x1="631.6" y1="282.3" x2="644.6" y2="281.9"/>
	<path id="XMLID_109_" class="st3" d="M666.8,279.7c-0.8,4.9-1.6,9.9-2.3,14.8"/>
	<path id="XMLID_110_" class="st3" d="M667.3,280.3c1.6-0.7,3.6,0,4.4,1.5c0.4,0.8,0.5,1.7,0.3,2.6c-0.1,0.5-0.3,0.9-0.6,1.3
		c-1.5,2-5,2-6.5,0"/>
	<path id="XMLID_111_" class="st3" d="M676.6,280.2c0.3,3.5,0.3,7,0,10.4c2.5,0,4.9,0,7.4-0.2"/>
	<line id="XMLID_112_" class="st3" x1="677.7" y1="285.9" x2="682.7" y2="285.7"/>
	<path id="XMLID_113_" class="st3" d="M674.8,280.4c3.6-0.6,7.1-1.1,10.7-1.3"/>
	<line id="XMLID_114_" class="st3" x1="693.9" y1="276.9" x2="694.3" y2="289.9"/>
	<path id="XMLID_115_" class="st3" d="M689.6,277.3c3.6,0,7.2,0,10.8-0.1"/>
	<path id="XMLID_116_" class="st3" d="M708.4,276.5c-0.3,1.6,0.6,3.1,1.4,4.5c1.3,2.4,2,5.1,2.2,7.8"/>
	<path id="XMLID_117_" class="st3" d="M706.2,272.2c0.9,0.3,2,0.1,2.7-0.5"/>
	<path id="XMLID_118_" class="st3" d="M718,275.2c0.7,4.9,1.2,9.8,1.4,14.8"/>
	<line id="XMLID_119_" class="st3" x1="713.4" y1="274.8" x2="725.4" y2="274.4"/>
	<path id="XMLID_120_" class="st3" d="M347.7,375.8c0.3-4.6,0.5-9.3-0.9-13.7c-1-3-2.8-6-2.2-9.1c3.5,2,4.1,7,7,9.8
		c0.9-4.1,1.7-8.2,2.3-12.3c1.1,2.3,0.6,5,1.7,7.2c0.5,1,1.2,1.8,1.9,2.8c2.3,3.3,2.9,7.4,3.4,11.4"/>
	<path id="XMLID_121_" class="st3" d="M365.7,351.8c0.2,3,0.6,5.9,0.9,8.9c0.2,1.5,0.4,2.9,1.1,4.2s2,2.3,3.5,2.3
		c0.3,0,0.6-0.1,0.8-0.3c0.2-0.2,0.3-0.5,0.3-0.9c0.4-4-0.5-8.1-2.5-11.5c-1-1.6-2.4-3.3-4.3-3.3"/>
	<path id="XMLID_122_" class="st3" d="M374.8,350.6c0.1,3-0.1,6,0.2,8.9c0.3,3,1.4,6,3.7,7.9"/>
	<path id="XMLID_123_" class="st3" d="M374.8,350.5c1.8-0.9,3.7-1.4,5.7-1.7c0.4,0,0.8-0.1,1.1,0.1c0.4,0.2,0.6,0.7,0.7,1.1
		c0.5,1.5,0.9,3.1,1.2,4.6c0.1,0.5,0.2,1.1,0,1.6c-0.2,0.5-0.7,0.9-1.2,1.1c-1,0.6-2.1,1.1-3.3,1.5c-0.4,0.1-0.9,0.2-1.3,0.1
		c-0.5-0.2-0.8-0.7-1.1-1.1c-0.6-1-1.1-1.9-1.7-2.9c4.6,4.2,9,8.4,13.3,12.8"/>
	<path id="XMLID_124_" class="st3" d="M393.6,348.1c-1.1,0-1.9,1-2.4,1.9c-2.1,4.2-0.3,9.3,1.8,13.5c0.2,0.5,0.7,1,1.2,0.8
		c0.3-0.1,0.4-0.4,0.5-0.7c0.7-1.8,1.1-3.8,1.1-5.8"/>
	<path id="XMLID_125_" class="st3" d="M402.3,348.9c-0.1,4.4-0.3,8.8-0.4,13.2c0,0.5,0,1,0.3,1.3c0.3,0.3,0.8,0.3,1.2,0.3
		c2,0,4.1-0.4,5.9-1.2"/>
	<path id="XMLID_126_" class="st3" d="M403.4,357c-0.4-0.4-0.1-1.1,0.3-1.4c0.5-0.3,1-0.3,1.6-0.3c1.2,0,2.3,0.1,3.5,0.1
		c0.5,0,1,0,1.4-0.3c0.4-0.3,0.6-0.9,0.2-1.3"/>
	<path id="XMLID_127_" class="st3" d="M401.6,350.8c1.4-1.2,2.9-2.3,4.6-3.2"/>
	<path id="XMLID_128_" class="st3" d="M396.4,349.2c-1.8,0.2-3.6,0.1-5.4-0.3"/>
	<path id="XMLID_129_" class="st3" d="M413.3,363.3c0.5-4.3-0.9-8.9,0.8-13c0.7-1.7,2.3-3.2,4.1-3.1c1.3,0.1,2.3,1.1,2.9,2.2
		c0.6,1.1,0.8,2.4,1,3.7c0.6,3.6,1.1,7.2,1.7,10.8"/>
	<line id="XMLID_130_" class="st3" x1="423" y1="355.5" x2="413" y2="355.5"/>
	<path id="XMLID_131_" class="st3" d="M425.7,346c-1.3,5.1,0.8,10.9,5,14.1c0.7-5.3,0.9-10.6,0.7-16c-0.2,4-0.2,8.5,2.5,11.4
		c1.5,1.6,3.5,2.4,5.5,3.2"/>
	<path id="XMLID_132_" class="st3" d="M456.5,345.6c-0.1,5,0,10.1,0.4,15.1"/>
	<path id="XMLID_133_" class="st3" d="M456.8,346c1.2,0,2.3,0,3.5,0c0.3,0,0.7,0,1,0.2c0.3,0.2,0.4,0.7,0.5,1
		c0.4,2.1,0.5,4.3,0.5,6.4c0,0.8,0,1.6-0.4,2.3c-0.4,0.7-1.1,1.1-1.7,1.5c-1.3,0.9-2.7,1.8-4,2.6"/>
	<path id="XMLID_134_" class="st3" d="M466.1,343.1c0.2,4.7,0.1,9.4-0.3,14c2.9,0,5.7,0,8.6,0.1"/>
	<path id="XMLID_135_" class="st3" d="M466.3,351.3c0.9-1.7,3-2.4,4.9-3c1.2-0.4,2.4-0.8,3.6-1.1"/>
	<path id="XMLID_136_" class="st3" d="M466.2,344.9c2.7,0.4,5.4,0.1,7.9-0.9"/>
	<path id="XMLID_137_" class="st3" d="M498.5,356.1c0.3-4.9,0.1-9.8-0.6-14.6c2.3-0.3,5.2-0.3,6.5,1.6c0.9,1.2,0.8,2.9,0.7,4.4
		c0,0.6-0.1,1.2-0.5,1.6c-0.4,0.5-1.1,0.6-1.8,0.6c-2,0.1-4.6,0-5.3-1.9c1.4-0.8,3.2,0.2,4.5,1.2c2.9,2.4,5.6,5.1,7.9,8.1"/>
	<path id="XMLID_138_" class="st3" d="M510.7,343.8c0.3,3.6,1.2,7.1,2.6,10.4"/>
	<path id="XMLID_140_" class="st3" d="M517,342.8c-0.3,4.2-0.2,8.4,0.5,12.6c2.4-0.1,4.9,0,7.3,0.2"/>
	<path id="XMLID_141_" class="st3" d="M516.2,348.1c3.3,0.2,6.6-0.2,9.8-1.1"/>
	<line id="XMLID_142_" class="st3" x1="517" y1="342.5" x2="528" y2="342.5"/>
	<path id="XMLID_143_" class="st3" d="M533.4,350.3c0.2-4.1,0.1-8.1-0.3-12.2c2.1,2.9,4.3,5.9,6.4,8.8c1.4,2,2.9,4,3.3,6.4
		c0.2-5.5,0.1-11-0.6-16.4"/>
	<path id="XMLID_144_" class="st3" d="M563.7,338.5c-0.4,5.3-0.2,10.6,0.4,15.8"/>
	<path id="XMLID_145_" class="st3" d="M564,339.5c2.5,0,5,0,7.5,0c0.2,2.2,0.5,4.5,0.7,6.7c0.1,1.4,0.3,2.9-0.5,4.1
		c-0.9,1.3-2.7,1.7-4.3,1.8c-1.6,0.1-3.3-0.1-4.8,0.5"/>
	<path id="XMLID_146_" class="st3" d="M576.3,336.3c-1.1,5,2.4,9.9,2.8,15c1.5,0.2,3.1,0.1,4.5-0.4c1.3-4.7,2.5-9.8,0.5-14.2
		c-0.3,3,0.2,6,1.4,8.8c0.2,0.5,0.5,1,0.9,1.4c0.5,0.5,1.3,0.6,1.9,0.7c1.2,0.2,2.4,0.5,3.7,0.7"/>
	<path id="XMLID_147_" class="st3" d="M609.8,335.9c-0.2,2.9-0.5,5.9,0.4,8.7c1.1,3.6,4.1,6.9,3.7,10.7"/>
	<path id="XMLID_148_" class="st3" d="M601.4,336.7c2.7-0.4,5.5,0.3,8.2,0c2-0.3,3.9-1.1,5.8-1.9"/>
	<path id="XMLID_149_" class="st3" d="M624.3,337c-1,2.5-1.3,5.3-1,8c0.1,0.9,0.4,2,1.2,2.4c0.5,0.2,1.1,0.2,1.6,0
		c1.9-0.6,3.1-2.7,2.8-4.7c-0.4-2.3-2.7-3.9-4.9-4.6"/>
	<path id="XMLID_150_" class="st3" d="M634.5,334.5c0,2.4,0,4.9,0,7.3c0,0.4,0,0.8,0.2,1.1c0.2,0.2,0.5,0.3,0.8,0.4
		c1.2,0.4,2.5,0.7,3.8,0.9c0.5,0.1,1,0.1,1.4-0.2c0.5-0.3,0.5-0.9,0.6-1.5c0.2-2.7,0.2-5.4-0.1-8"/>
	<path id="XMLID_151_" class="st3" d="M649.1,333.8c-0.5,4.3-0.9,9.1,1.8,12.4"/>
	<path id="XMLID_152_" class="st3" d="M644.9,332.7c4.7,0.2,9.4,0.1,14-0.1"/>
	<path id="XMLID_153_" class="st3" d="M680.1,343.5c0.4-5.3,0.1-10.6-0.8-15.8c3.1,0,6.1,0,9.2,0"/>
	<path id="XMLID_154_" class="st3" d="M678.4,337c3-0.5,6-1,9-1.5"/>
	<path id="XMLID_155_" class="st3" d="M694.6,342c0-3.7-0.1-7.3-0.1-11c0-1.3,0-2.7,0.8-3.8c1-1.2,2.7-1.4,4.2-1.5
		c0.4,0,0.8,0,1.1,0.2c0.4,0.2,0.5,0.7,0.6,1.2c1,4.5,0.2,9.5,2.6,13.5"/>
	<path id="XMLID_156_" class="st3" d="M693.5,333.4c3.1,0.2,6.3,0.1,9.4-0.2"/>
	<path id="XMLID_157_" class="st3" d="M712.3,329.5c-0.6,4.2-0.4,8.5,0.7,12.6"/>
	<path id="XMLID_158_" class="st3" d="M711.7,324.3c-0.4,0.3-1.1,0.3-1.5-0.1c-0.4-0.4-0.4-1.1-0.1-1.5"/>
	<line id="XMLID_159_" class="st3" x1="719.5" y1="324" x2="719.5" y2="337"/>
	<line id="XMLID_160_" class="st3" x1="715" y1="324.5" x2="729" y2="324.5"/>
	<path id="XMLID_139_" class="st3" d="M507.9,337.4c1.2,0.7,2.6,1,4,1.1"/>
	<g id="XMLID_431_">
		<path id="XMLID_161_" class="st3" d="M366.3,403c0-0.3,0-0.7,0-1c-0.2,4.6,0.2,9.3,1.1,13.9c0.1,0.4,0.2,0.8,0.4,1.1
			c0.3,0.3,0.7,0.5,1.1,0.6c3.1,1,6.7,0.3,9.3-1.7"/>
		<path id="XMLID_162_" class="st3" d="M366.3,412.7c-0.2-2.2-0.2-4.8,1.6-6.1c2-1.4,4.9-0.3,7-1.4"/>
		<path id="XMLID_163_" class="st3" d="M367.8,404c-0.3-1.2-0.5-2.7,0.5-3.4c0.5-0.4,1.1-0.4,1.8-0.4c2-0.1,3.9-0.1,5.9,0"/>
		<path id="XMLID_164_" class="st3" d="M380.5,399.4c0.9,5.2,1.7,10.5,2.2,15.8"/>
		<path id="XMLID_165_" class="st3" d="M381.7,398.7c2.4-0.6,4.6,1.4,6.3,3.2c1.8,2,3.6,4.1,4.3,6.7c0.6,2,0.6,4.3,2.1,5.7
			c-0.7-6.4-1.3-12.8-1.7-19.2"/>
		<path id="XMLID_166_" class="st3" d="M414.8,407.7c0-5.3-0.6-10.6-1.9-15.8c3.1-0.1,6.2-0.1,9.3,0c1.1,1.7,0.7,4.1-0.8,5.4
			c-2.5,2.1-6.6,0.7-9.5,2.3"/>
		<path id="XMLID_167_" class="st3" d="M428.9,405.5c0-4.3-0.1-8.6-0.1-12.9c0-0.7,0-1.4,0.3-1.9c0.7-1.4,2.9-1.5,4.2-0.6
			s1.9,2.5,2.5,4c1.5,3.9,3,7.7,4.5,11.6"/>
		<line id="XMLID_168_" class="st3" x1="437" y1="397.5" x2="425" y2="397.5"/>
		<path id="XMLID_169_" class="st3" d="M449.7,405.8c-0.4-1.4-0.9-2.7-1.3-4.1c-0.4-1.4-0.9-2.7-1.6-4c-0.7-1.2-1.6-2.3-2.3-3.6
			s-1.1-2.8-0.5-4.1c2-0.1,4-0.1,6,0c0.6,0,1.2,0.1,1.6,0.5c0.3,0.3,0.5,0.8,0.6,1.2c0.3,1.1,0.4,2.2,0.4,3.3c0,0.6,0,1.2-0.4,1.6
			c-0.3,0.3-0.8,0.5-1.2,0.6c-1.3,0.3-2.6,0.5-3.9,0.6"/>
		<path id="XMLID_170_" class="st3" d="M457.7,389.4c-0.3,2.3-0.5,4.8,0.4,6.9c1.1,2.4,3.6,4,4.8,6.3"/>
		<path id="XMLID_171_" class="st3" d="M456.8,384.4c-1.4-0.5-2.7-1.1-3.9-1.7c-0.2-0.1,0.2-0.1,0.2,0"/>
		<path id="XMLID_172_" class="st3" d="M465.9,386.8c-0.3,3.4-0.1,6.8,0.4,10.1c0.1,0.5,0.2,1.1,0.6,1.4c0.4,0.4,0.9,0.5,1.4,0.6
			c2.8,0.6,5.6,1.2,8.4,1.7"/>
		<path id="XMLID_173_" class="st3" d="M465.2,393.2c3,0.2,6,0.1,9-0.2"/>
		<path id="XMLID_174_" class="st3" d="M465.3,384.3c-0.3,0.8,0.2,1.7,0.9,2.1c0.7,0.4,1.6,0.5,2.4,0.5c2.1,0.1,4.1,0.2,6.2,0.3"/>
		<path id="XMLID_175_" class="st3" d="M479.9,384.6c-0.3,2,0.9,3.8,1.7,5.7c1.4,3.3,1.6,6.9,1.7,10.5"/>
		<path id="XMLID_176_" class="st3" d="M480.6,387.4c2.4-0.7,4.8-1.1,7.3-1c0.6,0,1.1,0,1.6,0.3c0.6,0.3,1.1,0.9,1.4,1.5
			c1,1.8,1.6,4,1.5,6.1c-3.1,0.1-6.2,0.1-9.2,0.2c5.2-1.2,11.1,0.7,14.6,4.8c1.1,1.3,2.1,2.8,3.7,3.1"/>
		<path id="XMLID_177_" class="st3" d="M514.4,396.5c0.5,3.4-1.1,7-4.1,8.8"/>
		<path id="XMLID_178_" class="st3" d="M528.8,380.6c2.8,0.4,5.6,0.9,8.3,1.3c1.8,0.3,4,0.3,4.8-1.3"/>
		<path id="XMLID_179_" class="st3" d="M534.9,382.5c0,5,0,9.9,0,14.9c0,0.3,0,0.6-0.2,0.8c-0.2,0.2-0.4,0.3-0.7,0.4
			c-1.5,0.4-3.2,0.5-4.5-0.2c-1.4-0.7-2.3-2.5-1.6-3.9"/>
		<path id="XMLID_180_" class="st3" d="M541.2,387.5c-0.4,2.6-0.5,5.3,0.2,7.9s2.3,4.9,4.7,6.2c0.3,0.2,0.7,0.3,1,0.2
			c0.4-0.1,0.6-0.4,0.8-0.7c3.2-4.7,4.5-10.6,3.5-16.2"/>
		<path id="XMLID_181_" class="st3" d="M559.8,382c-0.5-0.7-1.7-0.4-2.2,0.2c-0.5,0.7-0.5,1.6-0.6,2.4c0,1.4,0.1,3.1,1.2,3.9
			c1.4,1,3.9,0.2,4.8,1.6c0.8,1.2-0.2,2.8-1.2,3.7c-0.8,0.7-1.7,1.3-2.7,1.3c-1,0.1-2.1-0.5-2.3-1.5"/>
		<path id="XMLID_182_" class="st3" d="M562.9,383c-1.7,0.9-4.1-0.1-4.8-1.9"/>
		<path id="XMLID_183_" class="st3" d="M576.1,380.4c-0.9,2.1-1.5,4.3-1.7,6.5c-0.4,3.3-0.3,7-2.6,9.5"/>
		<path id="XMLID_184_" class="st3" d="M568.4,380.7c4.3,0.3,8.7,0,12.9-0.9"/>
		<path id="XMLID_185_" class="st3" d="M586,379.6c0,4.4,0,8.8,0,13.3c2.7,0.7,5.5,0.9,8.3,0.8"/>
		<path id="XMLID_186_" class="st3" d="M586.5,387.1c-0.5-0.4-0.3-1.3,0.2-1.7c0.5-0.4,1.2-0.5,1.8-0.6c1.3-0.2,2.6-0.4,3.9-0.6"/>
		<path id="XMLID_187_" class="st3" d="M587.4,381c0-0.7,0.1-1.4,0.1-2.1c1.9,0,3.8,0,5.7,0"/>
		<path id="XMLID_188_" class="st3" d="M617.4,378.1c0.2,7.5-4,14.5-4.4,22"/>
		<path id="XMLID_189_" class="st3" d="M616.3,377.2c1.3-0.8,2.7,0.8,3.8,1.8c1.1,0.9,2.4,1.5,3.5,2.4s2,2.4,1.5,3.7
			c-0.2,0.5-0.5,0.9-0.8,1.3c-2.2,2.4-5.7,3.9-8.7,2.7c0-0.3,0-0.6-0.1-0.8"/>
		<path id="XMLID_190_" class="st3" d="M632.8,378.2c-0.1,3.8-0.1,7.6-0.1,11.4c0,0.3,0,0.6,0.2,0.9c0.1,0.2,0.4,0.4,0.6,0.5
			c2,1,4.8,0,5.7-2.1c1-2.2-0.1-4.8-0.9-7.1c-0.4-1.3-0.8-2.8-1.8-3.7s-3-1-3.6,0.3"/>
		<path id="XMLID_191_" class="st3" d="M643.2,374.9c0,3,0,6.1,0,9.1c0,0.3,0,0.7,0.2,0.9c0.2,0.2,0.5,0.3,0.8,0.3
			c1.7,0.2,3.6,0.4,4.8-0.7c0.6-0.6,1-1.4,1.2-2.3c0.9-3.4,0.4-7.1-0.1-10.6c-0.1,3-0.1,6-0.1,9c0,1.8,0.4,4.1,2.2,4.6
			c0.6,0.2,1.2,0.1,1.8,0.2s1.2,0.7,1,1.3"/>
		<path id="XMLID_192_" class="st3" d="M659.9,377.1c0.8,5.4,0.5,10.9-0.8,16.2"/>
		<path id="XMLID_193_" class="st3" d="M659,374.6c1.7,0,3.4,0,5.2-0.1c0.4,0,0.8,0,1.1,0.3c0.2,0.2,0.3,0.5,0.3,0.8
			c0.3,1.7,0.7,3.5,0.3,5.2s-1.5,3.4-3.3,3.7c-1.7,0.3-3.7-1.2-3.3-2.9c3.6,0.4,6.8,3,7.9,6.4c0.4,1.1,0.6,2.4,1.4,3.2"/>
		<path id="XMLID_194_" class="st3" d="M679.9,370.4c3.1,4.6,6,9.3,8.6,14.2c0.9-6.9,2.6-13.7,4.8-20.3"/>
		<path id="XMLID_195_" class="st3" d="M704.3,369.9c-1.2,0-2.4,0-3.6,0c-0.6,1.9-1.2,3.8-0.7,5.7c0.6,2.3,2.7,3.9,4.6,5.2
			c0.4,0.3,0.9,0.6,1.4,0.4c0.3-0.1,0.5-0.4,0.6-0.6c2-3,2.6-6.7,1.9-10.2c-0.1-0.3-0.2-0.6-0.4-0.9c-0.3-0.4-0.9-0.5-1.4-0.5
			c-1.5,0-2.9,0.7-3.8,1.9c2.4,0.7,5,0.9,7.5,0.7"/>
		<path id="XMLID_196_" class="st3" d="M716.3,372c1.6,0.7,3.6-1.2,3.1-2.8c0.3,4.2,0.6,8.4,0.9,12.6c0,0.5,0.2,1.1,0.7,1
			c0.2,0,0.4-0.3,0.6-0.5c0.5-0.7,0.9-1.4,1.4-2.1"/>
		<path id="XMLID_197_" class="st3" d="M715.1,362.4c1.4,0.2,2.9-0.4,3.8-1.5"/>
		<line id="XMLID_198_" class="st3" x1="727.5" y1="365" x2="727.5" y2="379"/>
		<path id="XMLID_199_" class="st3" d="M727.9,364.5c1.5-0.4,3.1-0.5,4.7-0.2c0.3,1.4,0.5,2.9,0.8,4.3c0.2,1.1,0.3,2.4-0.4,3.2
			c-0.7,0.7-1.7,0.7-2.6,0.3c-0.8-0.4-1.5-1.1-2.1-1.7c2.4,0.8,4.5,2.4,6,4.4c2.4,3.1,3.4,7.3,6.7,9.5"/>
	</g>
	<g id="XMLID_429_">
		<line id="XMLID_210_" class="st3" x1="473" y1="437.5" x2="487" y2="437.5"/>
		<path id="XMLID_200_" class="st3" d="M395.4,452.2c0.3,7.5,8.1,12.6,9.9,19.8c2.7-0.7,5.4-1.4,8.1-2.1"/>
		<path id="XMLID_201_" class="st3" d="M397.9,459.8c2.9-0.9,5.6-2.5,7.7-4.6"/>
		<path id="XMLID_202_" class="st3" d="M397.3,455.1c-0.9-0.9-0.8-2.5-0.1-3.6c0.7-1.1,1.8-1.8,2.9-2.4c2.7-1.7,5.9-3.3,9-2.4"/>
		<path id="XMLID_203_" class="st3" d="M414.7,447.9c-1.4,6.2-0.6,12.8,2,18.6"/>
		<path id="XMLID_204_" class="st3" d="M414.9,446.8c-0.3,2.4,0.8,4.9,2.6,6.7s4,2.9,6.2,3.9c2.4,1,5.1,2,6.5,4.1
			c-2.9-5.8-5.6-11.6-8.2-17.5c0.1,0.9,1.4,1.4,2.1,0.8"/>
		<path id="XMLID_205_" class="st3" d="M431.3,442.7c2.3-1.5,5.3-1.1,8.1-1.2c2.8-0.1,6-1.5,6.3-4.2"/>
		<path id="XMLID_206_" class="st3" d="M438.7,442.8c-2.2,7.3-1.1,15.5,2.8,22"/>
		<path id="XMLID_207_" class="st3" d="M454.5,462c0.1-3.7,0.3-7.5,0.4-11.2c0-1,0.1-2-0.4-2.9c-0.4-0.8-1.1-1.4-1.6-2.1
			c-1-1.6-0.7-3.7-0.3-5.6c1.2-0.6,2.4-1.2,3.7-1.8c1.8-0.9,3.7-1.8,5.8-1.9c2-0.1,4.3,0.8,5.1,2.7c1.1,2.8-1.3,5.7-3.8,7.3
			c-2.8,1.8-6.1,2.9-9.4,3.2c1.9-0.5,4-0.7,6-0.6c0.7,0,1.4,0.1,2,0.5c0.7,0.4,1.1,1,1.5,1.6c1.7,2.3,3.7,4.3,6,6"/>
		<path id="XMLID_208_" class="st3" d="M472.7,435.6c-1.6,6.2,1.3,12.6,4.5,18.2c0.7,1.2,1.4,2.4,2.6,3.1c2.3,1.4,5.3,0.1,7.6-1.1"
			/>
		<path id="XMLID_209_" class="st3" d="M475.9,448.6c0-0.5,0.1-1,0.1-1.6c1.9,0,3.8-0.5,5.4-1.4"/>
		<path id="XMLID_211_" class="st3" d="M504.3,455.3c0.1-4.1,0.3-8.3,0.4-12.4c0-1,0.1-2-0.3-3c-0.5-1.3-1.5-2.3-2.3-3.4
			c-0.8-1.1-1.3-2.6-0.6-3.8c3.4,2.1,5.9,5.3,8.4,8.5c3.6,4.7,7.2,9.3,10.8,14c1-1.4,0.7-3.3-0.1-4.8s-2-2.7-3-4.1
			c-3.2-4.4-3.6-10.1-4-15.5"/>
		<path id="XMLID_212_" class="st3" d="M532.9,431.6c-2-1.3-5-0.6-6.1,1.5c-1.2,2.3-0.2,5.1,0.8,7.4c1.9,4.3,3.9,8.8,7.6,11.8
			c0.5,0.4,1.2,0.8,1.8,0.6c0.3-0.1,0.5-0.4,0.7-0.7c2.6-3.5,3.5-8.2,2.5-12.4c-1-4.2-3.9-8-7.7-10"/>
		<path id="XMLID_213_" class="st3" d="M544.1,429c-0.7,3.5-0.3,7.3,0.9,10.7c1.3,3.6,4.5,7.2,8.2,6.3c0.2-5.7,0.4-11.5,0.5-17.2"/>
		<path id="XMLID_214_" class="st3" d="M569.8,430.8c-2.1-0.7-4.4-1.1-6.4-0.4c-2.1,0.7-3.7,3-3,5.1c0.9,2.6,4.3,2.9,6.8,4.2
			c1.7,0.9,3.2,2.4,3.5,4.3c0.4,1.9-0.5,4-2.3,4.8c-2.9,1.3-6-1.4-8.1-3.8"/>
		<path id="XMLID_215_" class="st3" d="M601.7,430.6c-2.7-1.6-5.8-2.4-8.9-2.3c-0.6,2.5-1,5.6,1,7.2c2.4,2,6.9,0.5,8.5,3.2
			c1.3,2.1-0.9,4.9-3.4,5.2c-2.4,0.3-4.7-1-6.8-2.3"/>
		<path id="XMLID_216_" class="st3" d="M606.8,429.2c-1.7,5.1,1.4,11.2,6.5,12.8"/>
		<path id="XMLID_217_" class="st3" d="M605.6,423.8c-1.6-0.2-3.2-0.5-4.8-0.7"/>
		<path id="XMLID_218_" class="st3" d="M644.3,429.6c-1.6,0.7-3.4-0.6-4.3-2.1c-0.9-1.5-1.6-3.3-3-4.3c-2.9-2.1-7.2,0.5-8.1,3.9
			s0.9,7,2.9,9.8c1.6,2.3,3.9,4.5,6.7,4.5c0.3-1.5,0.9-3,1.7-4.3"/>
		<path id="XMLID_219_" class="st3" d="M636.8,434.9c0.6,4.4,1.2,8.9,1.8,13.3c-2.4,1-5.5-0.8-5.9-3.4c0.3-0.5,0.9-0.9,1.5-0.8"/>
		<path id="XMLID_220_" class="st3" d="M647.3,440c0.1-4,0.2-8,0.4-12c0-1.1,0.1-2.2,0.6-3.1c0.5-0.9,1.7-1.5,2.7-1.1
			c0.7,0.3,1,1,1.3,1.7c2,4.6,3.6,9.3,4.7,14.2"/>
		<line id="XMLID_221_" class="st3" x1="655.3" y1="433" x2="645.3" y2="432.7"/>
		<path id="XMLID_222_" class="st3" d="M674.5,422c1.2,7,2.4,14,3.6,21.1"/>
		<path id="XMLID_223_" class="st3" d="M674.2,420.8c0.1-0.8,0.2-1.5,0.4-2.3c2.8-1.7,6.7,0.5,8.1,3.5c1.3,3,0.9,6.5,0.4,9.8
			c-0.1,0.4-0.1,0.8-0.4,1.2c-0.3,0.4-0.8,0.5-1.3,0.6c-2.1,0.4-4.2,0.5-6.3,0.3"/>
		<path id="XMLID_224_" class="st3" d="M687.7,424.5c-0.3,4.2-0.3,8.5-0.2,12.8c0,0.9,0.1,1.9,0.7,2.6c0.7,0.9,2,0.9,3.2,1
			c3.3,0.1,6.6,0.1,9.9,0.2"/>
		<path id="XMLID_225_" class="st3" d="M686.4,432.6c2.4-2.4,5.8-3.9,9.2-4"/>
		<path id="XMLID_226_" class="st3" d="M687.4,425.5c1.6-2,4.4-2.5,7-3s5.4-1.4,6.4-3.8"/>
		<path id="XMLID_227_" class="st3" d="M705,421.2c-0.7,1.9,0.5,3.9,1.4,5.7c1.5,3,2.6,6.3,3,9.6c3.1,0.3,6.2-1.7,7.6-4.5
			s1.2-6.2-0.2-9c-1.2-2.5-3.4-4.7-3.9-7.5"/>
		<path id="XMLID_228_" class="st3" d="M731.1,416.5c-0.5,5.7-0.5,11.5-0.2,17.3"/>
		<path id="XMLID_229_" class="st3" d="M721.4,416c6.4,1.5,13.3,1.1,19.5-1.2"/>
	</g>
	<g id="XMLID_428_">
		<path id="XMLID_230_" class="st3" d="M434,506.2c0.1,3.8,2.8,6.9,5.1,10c3.3,4.4,5.9,9.2,7.8,14.4"/>
		<path id="XMLID_231_" class="st3" d="M433.4,507.9c5.3,0,10.7,0,16,0c1.4,3.5,2.9,7,4.3,10.5c0.5,1.2,1,2.5,0.6,3.7
			c-0.2,0.7-0.7,1.2-1.2,1.8c-2.5,2.6-4.9,5.3-7.4,7.9"/>
		<path id="XMLID_232_" class="st3" d="M454.4,502.1c1.3,7,2.7,14.1,4,21.1c0.2,0.9,0.4,1.8,1.2,2.2c0.6,0.4,1.4,0.2,2.1,0.1
			c4.4-1,8.8-2.5,12.9-4.5"/>
		<path id="XMLID_233_" class="st3" d="M456.1,517.3c2.2-5.1,5.5-9.6,9.6-13.3"/>
		<path id="XMLID_234_" class="st3" d="M453.7,501.1c2.5-1.6,5.3-2.7,8.2-3.1"/>
		<path id="XMLID_235_" class="st3" d="M473.1,501.3c2.4,4.3,4.8,8.5,7.2,12.8c1.8,3.2,3.8,6.6,7.1,8.3c0.4-8.5,0.5-17,0.2-25.4"/>
		<path id="XMLID_236_" class="st3" d="M495.7,498.4c-0.5,7.3,0.9,14.8,4.1,21.4c0.5,1.1,1.3,2.3,2.5,2.6c1.4,0.3,2.7-0.9,3.8-1.8
			c1.1-0.9,2.7-1.8,3.9-0.9"/>
		<path id="XMLID_237_" class="st3" d="M498.3,514.3c-0.4-1.6,1-3.1,2.6-3.5c1.6-0.3,3.2,0.2,4.7,0.7"/>
		<path id="XMLID_238_" class="st3" d="M494.9,504c-1-1.4-0.8-3.4,0.5-4.6c1.2-1.1,3.3-1.2,4.6-0.1"/>
		<path id="XMLID_239_" class="st3" d="M510.2,493.6c1.6,9,5.2,17.6,10.4,25"/>
		<path id="XMLID_240_" class="st3" d="M511.6,496.8c4.6,1.4,8.2,5.1,11.1,9c3,3.8,5.6,8,9.4,11c-0.4-5-1-10-2-15
			c-0.6-3-1.5-6.2-4.1-7.9"/>
		<path id="XMLID_241_" class="st3" d="M535.6,493.5c1,7.3,4.4,14.3,9.5,19.5"/>
		<line id="XMLID_242_" class="st3" x1="534.3" y1="486" x2="529.3" y2="485.8"/>
		<path id="XMLID_243_" class="st3" d="M546.3,493.3c1.5,8.1,4.4,16,8.7,23.1"/>
		<path id="XMLID_244_" class="st3" d="M544.5,496.5c0.1-1.6,0.2-3.2,0.3-4.8c2.7,0.1,5.4,0.2,8.1,0.2c0.9,0,2,0.1,2.7,0.6
			c0.8,0.5,1.2,1.4,1.5,2.2c1,2.6,1.5,5.5,1.3,8.4c0,0.6-0.1,1.3-0.6,1.6c-0.4,0.3-0.9,0.4-1.3,0.4c-1.8,0.1-3.7-0.2-5.3-0.9
			c2.4-0.8,5.1,0.3,7,1.9s3.4,3.8,5.3,5.5c2.6,2.2,5.8,3.5,8.9,4.8"/>
		<path id="XMLID_245_" class="st3" d="M586.2,492.1c-0.3,2.4,0.6,4.7,1.4,6.9c1.3,3.2,2.6,6.5,4.8,9.2c2.3,2.6,5.8,4.5,9.2,3.8
			c0.6-0.1,1.1-0.3,1.5-0.7c0.7-0.6,0.9-1.7,0.9-2.6c0.3-7-3.3-13.4-6.8-19.5"/>
		<path id="XMLID_246_" class="st3" d="M612.3,509.1c-3.3-4.9-1-12.1-4.3-17c-1.2-1.9-3.2-3.2-4.2-5.2c7.8,5.1,14.5,11.9,19.4,19.9
			c0.2-2.7,0.5-5.4,0.7-8.2c0.3-3.2,0.5-6.5-0.8-9.5c-1-2.3-2.9-4.1-4.8-5.8"/>
		<path id="XMLID_247_" class="st3" d="M646.5,483.1c-0.2,7.3,0.7,14.6,2.7,21.6"/>
		<line id="XMLID_248_" class="st3" x1="635.5" y1="482.9" x2="658.5" y2="483.7"/>
		<path id="XMLID_249_" class="st3" d="M668,501.2c0-4.9,0-10.1-2.5-14.3c-1.6-2.8-4.3-5.4-3.6-8.5c3.7,0.1,7.3,0.2,11,0.4
			c1,0,2,0.1,2.8,0.6c1.6,1,1.7,3.2,1.6,5.1c0,1.5-0.1,2.9-0.1,4.4c0,0.4,0,0.9-0.3,1.2c-0.3,0.4-0.9,0.5-1.4,0.5
			c-2.8,0.1-5.6,0.1-8.4-0.1c7.2,3.5,13.6,8.6,18.6,14.8"/>
		<path id="XMLID_250_" class="st3" d="M683.8,479.8c0.9,4.9,3.4,9.6,6.9,13.2c1.9,1.9,4.5,3.5,7,2.7c2-6.8,0.8-14.5-3.3-20.4
			c2.2,5.6,4.4,11.2,6.5,16.8c1,2.7,2.3,5.6,4.9,6.9"/>
		<path id="XMLID_251_" class="st3" d="M720.3,482.6c-2.7-1.4-5.4-2.8-8.1-4.2c-0.2-0.1-0.5-0.3-0.8-0.2c-0.6,0-0.9,0.7-1.1,1.2
			c-0.9,2.6-1.9,5.5-1.2,8.2c0.5,2.2,1.9,4,3.3,5.8c1.7,2.2,3.4,4.3,5.2,6.5c1.2-1.2,2.4-2.4,3.6-3.5c1.2-1.2,2.5-2.6,2.3-4.2"/>
		<path id="XMLID_252_" class="st3" d="M751.6,475.2c-1.4-1.5-2.5-3.3-4-4.6s-3.7-2.3-5.6-1.6c-1.9,0.7-3,2.8-3,4.8
			c-0.1,2,0.7,4,1.4,5.8c2,4.9,4.4,9.9,8.9,12.6c1.5,0.9,3.4,1.5,5.1,1c2.5-0.8,3.7-4,2.4-6.2"/>
		<path id="XMLID_253_" class="st3" d="M764.8,469.9c-0.9-0.6-1.8,0.8-1.9,1.9c-0.4,4.9,0.8,10,3.5,14.2c0.7,1.2,1.6,2.3,2.9,2.8
			c2,0.8,4.3-0.2,5.7-1.9c1.4-1.6,2-3.8,2.6-5.8c0.3-1,0.6-2.2,0.2-3.2c-0.3-0.9-1.1-1.6-1.8-2.2
			C772.7,473.1,768.9,471.1,764.8,469.9c1.3,0.1,2.5,0.1,3.7,0.1"/>
		<path id="XMLID_254_" class="st3" d="M783.1,464.8c-0.8-0.9-2.4-0.1-2.6,1.1c-0.2,1.2,0.5,2.3,1.2,3.3c2.5,3.7,5,7.4,7.4,11.1
			c0.4,0.5,0.8,1.1,1.4,1.4c1,0.5,2.3-0.2,2.9-1.2c0.6-1,0.6-2.2,0.6-3.3c0-2.6,0-5.3-1.5-7.4c-2.7-3.7-8.6-3.1-12.4-5.8"/>
		<path id="XMLID_255_" class="st3" d="M802.7,460c-1.7,6.6-0.7,13.9,2.8,19.8c4-3,8.4-5.6,13.1-7.5"/>
	</g>
	<g id="XMLID_7_">
		<path id="XMLID_256_" class="st3" d="M484,565.7c1.9,4.6,3.8,9.3,5.7,13.9c0.7,1.7,1.4,3.5,2.5,5c1,1.4,2.2,2.6,3.1,4
			c1.9,2.7,2.8,6,3.7,9.2"/>
		<path id="XMLID_257_" class="st3" d="M482.1,569.5c-1.2-1.4-0.2-3.8,1.4-4.7c1.6-0.9,3.6-0.8,5.5-0.7c2.1,0.1,4.3,0.3,6.4,0.4
			c1.3,0.1,2.7,0.2,3.9,0.8c3.2,1.6,3.7,6,3.7,9.6c0,2.2,0,4.6-1.4,6.3c-2.1,2.5-6,2.1-9.2,1.5"/>
		<path id="XMLID_258_" class="st3" d="M515.5,590.2c-1.3-6-1.1-12.2-0.1-18.2c0.6-3.3,1.3-6.6,2.3-9.9c3.4,1.7,5.7,5.1,7.7,8.3
			c3.6,5.7,6.8,11.6,9.8,17.7"/>
		<path id="XMLID_259_" class="st3" d="M512,579.7c6.5-0.8,12.9-2.2,19.1-4.4"/>
		<path id="XMLID_260_" class="st3" d="M548,585.4c-2.7-1.4-4.5-4.3-4.6-7.3c0-2.1,0.7-4.2,0.2-6.2c-0.3-1.1-1-2.1-1.6-3.1
			c-2.1-3.4-3.2-7.3-4.3-11.2c3-0.2,6-0.5,8.9-0.7c4.1-0.3,8.7-0.4,11.7,2.5c1.5,1.5,2.3,3.6,2.1,5.7c-0.1,1.5-0.8,3-2.1,3.7
			c-0.7,0.4-1.5,0.5-2.3,0.6c-4.8,0.8-9.4,2.7-13.4,5.4c-0.6-0.5-0.4-1.6,0.2-2.1s1.5-0.6,2.3-0.6c2.8-0.1,5.5-0.1,8.3,0.2
			c0.7,0.1,1.5,0.2,2.1,0.5c0.7,0.4,1.2,1.2,1.7,1.9c2.4,3.7,5.9,7.5,10.3,7.7"/>
		<path id="XMLID_261_" class="st3" d="M590.2,563.4c5.4,3.1,6.5,10.2,9.1,15.8c1.8,3.7,4.4,6.9,6.9,10c-0.4-2.5-0.5-5.5,1.6-6.8
			c0.8-0.5,1.8-0.6,2.8-0.8c2.6-0.8,4.5-3.4,4.4-6.1"/>
		<path id="XMLID_262_" class="st3" d="M597.6,573.6c6.1-2.5,11.7-6.1,16.5-10.5"/>
		<path id="XMLID_263_" class="st3" d="M592.2,563.3c1.2-0.2,2.4-0.4,3.7-0.6c4-0.6,8.6-1.8,10-5.6"/>
		<path id="XMLID_264_" class="st3" d="M621.5,582.4c0.6-5.3,0.8-10.7,0.6-16.1c-0.1-2.2-0.4-4.6-2.1-6c-1.6-1.3-4.3-1.8-4.5-3.8
			c5.3-0.4,9.9,3.7,12.7,8.1c2.8,4.5,4.5,9.6,7.6,13.9c0.6,0.8,1.8,1.6,2.5,0.9c-0.7-5.3-1.3-10.7-2-16c-0.1-1.1-0.3-2.3-0.7-3.3
			c-0.8-2-2.6-3.6-2.7-5.7"/>
		<path id="XMLID_265_" class="st3" d="M654.6,554.7c-4-2.5-8.4-4.2-13-5c-0.5,3-1,6.2-0.3,9.2c0.7,3,2.8,5.9,5.8,6.6
			c1.8,0.4,3.6,0,5.5-0.1c1.8-0.1,3.9,0.2,5,1.7c0.6,0.7,0.8,1.7,0.8,2.6c0.1,2.6-1.6,5.1-4,5.9c-2.4,0.8-5.4-0.1-6.7-2.3"/>
		<path id="XMLID_266_" class="st3" d="M663.4,553.7c-0.7,1.2-0.3,2.9,0.6,4c0.8,1.2,1.9,2.1,2.8,3.2c1.6,2.1,2.2,4.7,3.4,7
			c1.4,2.8,3.8,5.1,6.6,6.5c0.2,0.1,0.5,0.2,0.7,0.2c0.3,0,0.5-0.2,0.8-0.5c3.4-3.5,3.3-9.1,2.1-13.8c-0.9-3.5-2.2-6.9-4-10"/>
		<path id="XMLID_267_" class="st3" d="M687.4,552.4c-2,6.8-0.7,14.6,3.3,20.4c0.3,0.5,0.7,1,1.2,1.2c1.8,0.9,3.4-1.5,4.1-3.4"/>
		<path id="XMLID_268_" class="st3" d="M680.2,543.6c3.1,1.1,6.8,0.8,9.6-1"/>
		<path id="XMLID_269_" class="st3" d="M708.5,547.7c-0.5,7.3-0.9,14.5-1.4,21.8c-0.1,2.1-0.2,4.4,1.3,5.9"/>
		<path id="XMLID_270_" class="st3" d="M699.6,552c7-2.8,14.1-5.3,21.4-7.2"/>
		<path id="XMLID_271_" class="st3" d="M726.9,548.8c-0.8,6.7-1,13.4-0.6,20.1c0.1,1.7,0.4,3.6,1.7,4.7c0.8,0.6,1.8,0.8,2.7,0.9
			c1.7,0.3,3.4,0.6,5.1,0.3c1.7-0.3,3.3-1.3,3.9-2.9c0.4-1.2,0.4-2.9,1.6-3.4"/>
		<path id="XMLID_272_" class="st3" d="M723.5,564.4c1.5-2.3,3-4.5,4.6-6.8c1.4-2.1,3.1-4.4,5.6-4.8"/>
		<path id="XMLID_273_" class="st3" d="M725.6,550.9c1.9-2.1,4.1-4.4,7-4.8c2.6-0.4,5.7,0.7,7.7-1"/>
		<path id="XMLID_274_" class="st3" d="M751.6,568.2c2.1-0.5,4.4,0.2,5.8,1.8"/>
	</g>
</g>
<g id="Calque_4">
	<g id="XMLID_426_">
		<path id="XMLID_340_" class="st9" d="M46.3,523.6c-9.8-4.3-15.9-14.2-21.3-23.4c-4.4-7.6-9-15.5-9.5-24.2
			c-0.7-10.8,5-21.3,13-28.7s18-12.1,28.1-16.3c67.9-28.3,143.7-37.3,216.3-25.6c1.9,16.2,19.4,27.8,19.4,44.1
			c0,14.5-13.7,24.7-26.1,32.1c-30.1,18-62.2,34.3-97,38.8c-15.7,2.1-31.5,1.7-47.3,1.3c-29.2-0.7-58.4-1.3-87.7-2
			c-4.6-0.1-10.2-0.8-12.1-4.9"/>
		<path id="XMLID_341_" class="st3" d="M103,492.5c-8.3,3.7-16.6,7.3-24.9,11c-4.8,2.1-9.7,4.3-14.8,5.6c-5.7-8.4-12.6-16-20.5-22.5
			c-0.3-12.9-0.5-25.7-0.8-38.6c8.3-1.5,13.8-9.5,21.6-13c6.8-3.1,15.2-2.5,21.1-7c1.2,7.7,2.3,15.3,3.5,23
			c1.6,10.5,3.7,21.9,11.8,28.8c3.6,3,8.8,6.3,7.5,10.9c-3.9,1-7.6,2.6-10.9,4.7"/>
		<path id="XMLID_342_" class="st9" d="M90,464.7c-9,1.2-17.6,5-24.7,10.7c-4.2,3.4-8.2,7.7-13.5,8.9c-4,0.9-8.6-0.1-12,2.1
			c0.7-11.8,1.5-23.6,2.2-35.4c0.1-0.9,0.1-1.9,0.5-2.7c0.7-1.5,2.1-2.5,3.6-3.3c11.4-6.7,23.4-12.4,35.8-17
			c2.2,7.2,4.3,14.4,6.5,21.6c1.4,4.8,2.9,9.5,3.4,14.5"/>
		<path id="XMLID_343_" class="st3" d="M56.6,491c6.6-2.2,9.6-10.2,15.7-13.5c1.7-0.9,3.5-1.4,5.3-2.2c2.7-1.1,5.1-2.8,7.1-4.9"/>
		<path id="XMLID_344_" class="st3" d="M61.4,495.8c2.6-3,5.6-5.6,8.9-7.8c0.9-0.6,1.9-1.2,2.8-1.9c1.6-1.4,2.9-3.2,4.5-4.5
			c2.6-2.2,6.1-3.1,9.4-4"/>
		<path id="XMLID_345_" class="st3" d="M79.7,497.8c-0.6,0.3-1.3-0.2-1.6-0.8c-0.3-0.6-0.4-1.2-0.7-1.8c-0.5-0.8-1.4-1.3-2.2-1.9
			s-1.4-1.6-1.1-2.5c3-1.6,6.1-3.2,9.1-4.9c0.3-0.1,0.5-0.3,0.8-0.2c0.3,0,0.5,0.3,0.7,0.5c2.1,2.3,4.2,4.6,6.3,6.8
			c-4.2,1.1-8.2,3-11.8,5.5"/>
		<path id="XMLID_346_" class="st3" d="M56.5,486.3c2.8,2.2,5.9,4.1,9.1,5.7"/>
		<path id="XMLID_347_" class="st3" d="M65.9,480.7c1.2,2.3,2.9,4.2,5.1,5.6"/>
		<path id="XMLID_348_" class="st3" d="M74.4,474.1c2.3,1.9,4.2,4.3,5.4,7"/>
		<path id="XMLID_349_" class="st3" d="M84.9,469.8c1.3,0.5,2,1.8,2.8,2.9c1.2,1.6,2.7,3,4.5,4"/>
		<path id="XMLID_350_" class="st3" d="M109.2,449.6c0.1-7.6-0.2-15.2-0.7-22.7c2.6-0.1,5.2-0.3,7.8-0.4c0.3,0,0.6,0,0.8,0.2
			c0.3,0.2,0.3,0.7,0.2,1c-0.7,4.6-4.9,8.4-9.6,8.7"/>
		<path id="XMLID_351_" class="st3" d="M120.7,423.1c0.1,6.7,0.2,13.4,0.4,20.1"/>
		<path id="XMLID_352_" class="st3" d="M121.2,423.1c-0.3-0.4-0.1-1,0.3-1.2c0.4-0.3,0.9-0.3,1.4-0.3c0.9,0,1.9,0,2.8,0
			c0.6,0,1.2,0,1.7,0.3c0.4,0.3,0.7,0.7,1,1.2c1.3,2.2,2.5,4.4,2.9,6.9c0.1,0.6,0.1,1.1-0.2,1.7c-0.3,0.6-0.8,0.9-1.4,1.2
			c-1.3,0.7-2.7,1.2-4.1,1.5c-0.6,0.1-1.2,0.2-1.7,0c-0.5-0.2-0.8-0.6-1.1-1c-0.6-0.7-1.2-1.5-1.9-2.2c3.3,2.1,6.7,4.3,10,6.4
			c2.4,1.5,5,3.1,7.7,2.6"/>
		<path id="XMLID_353_" class="st3" d="M135.4,421.3c-0.2,4.4,0.1,8.8,0.9,13.1c0.6,0.2,1.2-0.4,1.7-0.9c1.5-1.5,3.8-2,5.8-1.4"/>
		<path id="XMLID_354_" class="st3" d="M136,426.5c1.4-0.4,2.7-1.1,3.9-1.9"/>
		<path id="XMLID_355_" class="st3" d="M134.2,421.8c2.2-0.2,4.4-0.3,6.7-0.5c0.9-0.1,1.8-0.1,2.5-0.6c1.3-0.8,1.7-2.6,3-3.4"/>
		<path id="XMLID_356_" class="st3" d="M149.9,435c0.3-5,0.2-10-0.5-15c3.4,2.9,6.9,6,7.9,10.3c0.3,1.4,0.4,2.9,1.2,4
			c-0.1-4.5-0.2-9-0.3-13.6c0-0.6,0-1.1-0.2-1.6c-0.4-1-1.4-1.9-1.2-3"/>
		<path id="XMLID_357_" class="st3" d="M163.4,431.4c0-5.5,0-10.9,0-16.4c2.7,1.6,4.4,4.6,5.6,7.6c1.2,3,2.2,6.1,4,8.7
			c0.9-6.5-0.2-13.3-3-19.3"/>
		<path id="XMLID_358_" class="st3" d="M177.7,412.8c0,5.5,0,11,0,16.5c3.5,0.8,7.1,1.1,10.7,0.8"/>
		<path id="XMLID_359_" class="st3" d="M177.7,422.5c2.9-0.9,5.6-2.3,7.9-4.2"/>
		<path id="XMLID_360_" class="st3" d="M175.6,413.5c4.2-1,8.5-1.5,12.8-1.3"/>
		<path id="XMLID_361_" class="st3" d="M194.4,411.9c5.8-0.2,11.6-0.4,17.4-0.6c-2,7.1-7,13.4-13.5,16.8c5,0.9,10.3-0.3,14.3-3.3
			c1.9-1.4,3.8-3.3,6.2-3.7"/>
		<path id="XMLID_362_" class="st3" d="M197.4,421c3,0,6.1,0,9.1,0c0.8,0,1.6,0,2.3-0.3c0.6-0.3,1.1-0.7,1.6-1.2
			c2.1-1.9,4.2-3.8,6.2-5.7"/>
		<path id="XMLID_363_" class="st3" d="M112.1,458.1c1.3,5.5,6.5,9.3,8.6,14.6c0.1-5.8,0.1-11.5,0-17.3"/>
		<path id="XMLID_364_" class="st3" d="M131.8,452c-0.9-0.8-2.4,0.2-2.6,1.3c-0.2,1.1,0.3,2.3,0.7,3.4c0.6,1.7,0.8,3.4,0.8,5.1
			c-0.1,1.8-0.4,3.5,0,5.2c0.5,1.7,2.2,3.2,3.9,2.6c1.4-0.5,2-2.2,2.2-3.7c0.5-3.5,0-7-1.2-10.3c-0.3-0.7-0.6-1.5-1.2-2.1
			c-1.5-1.6-4.2-1.5-5.7-3c1.1-0.2,2.1-0.3,3.2-0.5"/>
		<path id="XMLID_365_" class="st3" d="M146.9,447.8c0.1,5.4,0,10.8-0.3,16.1"/>
		<path id="XMLID_366_" class="st3" d="M139.5,451.8c-0.7-0.5,0-1.6,0.8-1.8c0.8-0.2,1.7,0.2,2.5-0.1c0.7-0.2,1.2-0.7,1.8-1
			c1-0.6,2.3-0.7,3.4-1.1c2.4-0.7,4.6-2.1,6-4.2"/>
		<line id="XMLID_367_" class="st3" x1="158.5" y1="445" x2="158.5" y2="463"/>
		<path id="XMLID_368_" class="st3" d="M157.8,447.1c-0.5-0.9-0.5-2.1,0.2-2.9c0.6-0.8,1.8-1.2,2.8-1c1.2,0.3,2.1,1.5,2.8,2.5
			c0.6,0.8,1.1,1.7,1,2.7c-0.1,0.5-0.3,1-0.6,1.4c-0.6,1.1-1.4,2.2-2.5,2.9c-1.1,0.7-2.6,0.9-3.7,0.3c2.6,1.3,5.4,2.2,8.2,2.8
			c0.4,0.1,0.8,0.2,1.1,0.4c0.3,0.2,0.5,0.6,0.6,0.9c0.5,1,0.8,2,1.5,2.8c0.6,0.8,1.7,1.5,2.7,1.3"/>
		<path id="XMLID_369_" class="st3" d="M171.9,441.4c0,3.5,0,7.1,0,10.6c0.8,0.4,1.7-0.1,2.2-0.7c0.5-0.7,0.8-1.5,1.4-2.1
			c1-1.1,2.7-1.5,4.2-1.3s2.9,0.9,4.2,1.6"/>
		<path id="XMLID_370_" class="st3" d="M171.6,445.6c2.8,0.3,5.7,0.3,8.6-0.2"/>
		<path id="XMLID_371_" class="st3" d="M170.4,441.6c3.6-0.1,7.1-0.2,10.7-0.3c0.6,0,1.5-0.2,1.5-0.8"/>
		<path id="XMLID_372_" class="st3" d="M126.3,481.9c-0.2,4.8-0.2,9.6,0.1,14.3c0.1,1.7,0.2,3.4,0.9,5c0.6,1.6,1.9,3,3.5,3.5
			c0.6,0.2,1.3,0.2,1.8-0.2c0.7-0.5,0.8-1.5,0.8-2.3c0.1-4.4,0.3-8.8,0.4-13.2c0-1.5,0.1-2.9-0.3-4.3c-0.6-2.3-2.1-4.2-3.7-6
			c-0.6-0.7-1.7-1.5-2.4-0.9c-0.3,0.3-0.4,0.7-0.4,1.1c-0.4,2.5-0.6,5-0.6,7.5"/>
		<path id="XMLID_373_" class="st3" d="M140,475.8c-0.1,4.7-0.1,9.4,0.1,14.1c0,1.1,0.1,2.3,0.6,3.3c0.7,1.3,2.1,2.3,2.3,3.8"/>
		<path id="XMLID_374_" class="st3" d="M139.2,477.7c-0.7-0.6-0.4-1.8,0.4-2.3c0.7-0.5,1.7-0.5,2.6-0.5c1.6,0,3.3,0.1,4.6,1
			c2,1.3,2.7,3.9,2.3,6.2c-0.1,0.3-0.1,0.7-0.3,0.9c-0.2,0.3-0.6,0.5-1,0.6c-2.4,0.8-4.9,1.2-7.4,1.2c0-0.3,0-0.6,0-0.9
			c1.2-0.7,2.8-0.4,4,0.4c1.2,0.7,2.2,1.8,3.3,2.7c3.4,2.7,8.2,3.8,10.4,7.5"/>
		<path id="XMLID_375_" class="st3" d="M155.2,469.4c-0.3,4.2-0.2,8.4,0.3,12.5"/>
		<path id="XMLID_376_" class="st3" d="M155.5,472.1c0-0.5,0-0.9,0.1-1.4c2.1-0.3,4.4-0.5,5.9,1c1.3,1.3,1.5,3.4,0.7,5.1
			c-0.8,1.7-2.2,2.9-3.8,3.9c-0.6,0.3-1.2,0.7-1.6,1.2c-0.8,1-0.8,2.3-0.8,3.6c-0.2-1.9-0.3-3.8-0.2-5.7"/>
		<path id="XMLID_377_" class="st3" d="M167.4,470.3c1,7.4-1.3,15.3,1.8,22.1"/>
		<path id="XMLID_378_" class="st3" d="M165.2,466.6c-1.7,0.1-3.4,0-5.1-0.3c2.4,0,4.9,0,7.3,0"/>
		<path id="XMLID_379_" class="st3" d="M173.1,466.6c-0.1,6.7,0,13.4,0.3,20.1"/>
		<path id="XMLID_380_" class="st3" d="M173.5,468.1c2.2,4.4,6.5,7.4,9.1,11.5c1.3,2.1,2.3,4.4,2.7,6.8c0.8-3.4-0.7-6.8-1.6-10.2
			c-1.2-4.4-1.6-9-1.1-13.6"/>
		<path id="XMLID_381_" class="st3" d="M190.5,480c-0.2-3.5-0.5-7,0.5-10.3c0.4-1.3,0.9-2.6,1.3-3.9c0.6-2.1,0.7-4.6,2.3-6.1
			c4.3,6.8,2.6,16.2,7,22.9"/>
		<path id="XMLID_382_" class="st3" d="M189.5,470.8c2.4-1.6,5.5-1.7,8.3-1.6"/>
		<path id="XMLID_383_" class="st3" d="M210.2,475.5c-1.1-4.1-0.5-8.4-1.5-12.5c-0.8-3.5-2.6-6.6-4.4-9.6"/>
		<path id="XMLID_384_" class="st3" d="M191.7,454.2c5,0,10,0,15,0c0.5,0,1.1,0,1.6-0.2c0.5-0.2,0.9-0.5,1.3-0.9
			c1.1-0.8,2.4-1.4,3.7-1.7"/>
		<path id="XMLID_385_" class="st3" d="M218.1,454.2c0,6.6,0,13.1,0,19.7c3.4,0.8,7.3-0.9,9-3.9"/>
		<path id="XMLID_386_" class="st3" d="M219.3,468.8c0-1.5,0-3,0-4.5c0-0.4,0-0.8,0.1-1.2c0.2-0.6,0.6-1.1,1-1.6
			c1.4-1.7,3.4-3.6,5.6-3.1"/>
		<path id="XMLID_387_" class="st3" d="M217.2,454.6c3.6,0.8,6.8-2.5,10.4-2.8"/>
		<path id="XMLID_388_" class="st3" d="M232.1,448.4c0,4.1,0,8.2-0.1,12.3c0,0.6,0,1.3,0.3,1.9s1,1,1.6,0.8c0.4-0.1,0.7-0.5,0.9-0.8
			c3.6-5.1,3.9-11.8,3.6-18.1c-0.1,4.2-0.1,8.5,0.1,12.7c0,1,0.1,1.9,0.4,2.8c0.4,0.9,1.1,1.7,2.1,1.8c1,0.1,2-0.6,2-1.6"/>
		<line id="XMLID_389_" class="st3" x1="247.5" y1="450" x2="247.5" y2="468"/>
		<path id="XMLID_390_" class="st3" d="M246.7,449.6c0-1.8,0-3.5,0-5.3c0-0.2,0-0.4,0.1-0.6c0.2-0.2,0.4-0.2,0.7-0.2
			c1,0,1.9,0,2.9,0c1.3,0,2.8,0,3.8,0.9c0.7,0.6,1.1,1.5,1.3,2.4c0.7,2.8,0.5,5.9-0.7,8.5c-0.3,0.6-0.6,1.2-1.2,1.5
			c-0.4,0.2-0.9,0.2-1.4,0.2c-2.1-0.1-4.1-0.6-6-1.6c1.1-0.5,2.5,0,3.5,0.8c1,0.8,1.6,1.9,2.5,2.9c2.1,2.4,5.3,4,6.9,6.8
			c0.5-1.2,1.3-2.3,2.2-3.2"/>
	</g>
	<g id="XMLID_339_">
		<g id="XMLID_438_">
			<path id="XMLID_430_" class="st11" d="M47.9,522.7c17.4-3.2,34.3,5.5,51.8,4.4c8.9-0.6,17.6-2.5,26.5-3.2
				c9.4-0.7,18.8-0.7,28.2-0.5c17.4,0.4,34.4,2.4,50.2-6.6c16-9.1,31.6-19.2,47.3-28.9c4.2-2.6,8.4-5.2,12.9-7.3
				c4.5-2.2,9.3-3.4,13.9-5.3c6.6-2.6,12.8-7.1,13.9-14.6c0.6-3.8-5.2-5.4-5.8-1.6c-1.3,8.8-10.8,10.7-17.9,13.3
				c-7.4,2.7-14.1,6.8-20.9,10.9c-15,9.2-29.8,18.6-45,27.5c-7.9,4.6-15.5,6.9-24.7,7.1c-9,0.2-17.9-0.4-26.9-0.5
				c-8.7-0.1-17.5-0.1-26.2,0.6c-8.6,0.7-17,2.6-25.6,3.1c-18.1,1.2-35.2-7.5-53.4-4.2C42.5,517.6,44.1,523.4,47.9,522.7L47.9,522.7
				z"/>
		</g>
	</g>
	<g id="XMLID_3_">
		<g id="XMLID_423_">
			<path id="XMLID_338_" class="st12" d="M801,611.5c-3.1-12.4-10.6-24.3-8.5-36.9c2.4-14.3,16.5-23.7,30.5-27.4
				c14-3.7,28.8-3.4,42.7-7.3c9.7-2.7,18.7-7.4,28.3-10.5c9.6-3.1,20.2-4.6,29.6-0.8c11.5,4.7,18.5,16.2,24.7,27
				c6.4,11.1,12.9,22.6,14.3,35.4c1,9-0.8,18.1-3.1,26.8c-1.9,7-4.4,14-9.1,19.5c-7.1,8.3-18,11.8-28,16.1
				c-9,3.9-17.8,8.7-27.3,10.9c-24.7,5.6-49.5-7.2-71.7-19.6c-7.9-4.4-16.2-9.2-21.3-16.7c-5.1-7.6-5.9-18.8,0.7-25.1"/>
			<path id="XMLID_391_" class="st13" d="M827.4,571.3c5.8-7.6,12.7-14.5,20.4-20.2c-3.9,17.4-5.6,35.3-4.9,53.2"/>
			<path id="XMLID_392_" class="st13" d="M868,571.7c-3.9-0.7-8.2-1.7-10.2-5.1c-1.7-2.8-1.1-6.4,0-9.6c0.7-2.2,1.7-4.4,3.2-6.1
				c4.3-4.9,12.1-5,18-2.3c0.5,0.2,0.9,0.5,1.2,0.9c0.2,0.4,0.3,0.9,0.2,1.4c-0.2,4.5-3,8.4-6,11.7c-3,3.3-6.5,6.3-8.6,10.2
				c-3.9,7.1-2.9,15.7-1.8,23.7"/>
			<path id="XMLID_393_" class="st13" d="M895.8,547.9c-6.2,16.8-10.6,34.3-13.1,52"/>
			<path id="XMLID_394_" class="st13" d="M910.4,546c-5.8,15.6-10.3,31.7-13.5,48.1"/>
			<path id="XMLID_395_" class="st13" d="M886.4,577.1c5.6-3.2,11.2-6.4,16.8-9.6"/>
			<path id="XMLID_396_" class="st13" d="M823.5,626c0.2-1.3,1.3-2.2,2.3-3c1.5-1.1,3-2.3,4.5-3.4c-1.1,2.4-1.7,5-1.9,7.7
				c-0.2,3.2,0.4,6.5-0.6,9.6"/>
			<path id="XMLID_397_" class="st13" d="M838.8,637.5c-1.6-0.7-2.4-2.4-2.8-4.1c-0.6-2.3-0.8-5.1,0.9-6.7c0.9-0.8,2.2-1.2,2.8-2.3
				c0.7-1.1,0.4-2.5-0.3-3.6c-0.8-1-2-1.6-3.2-2c-0.2,0-0.3-0.1-0.5-0.1c-0.2,0-0.4,0.1-0.6,0.3c-1.1,1-1.4,2.7-0.9,4.1
				s1.6,2.5,2.9,3.3c1.7,1,3.7,1.7,4.7,3.4c1.1,1.9,0.3,4.3-0.4,6.4c-0.1,0.4-0.3,0.7-0.6,1c-0.2,0.2-0.5,0.2-0.8,0.2
				c-1.8,0.2-3.9,0.3-5-1.2"/>
			<path id="XMLID_398_" class="st13" d="M855.7,617.1c-1.1,5.8-3.5,11.1-6,16.5c-0.9,1.9-1.7,3.8-2.6,5.7"/>
			<path id="XMLID_399_" class="st13" d="M861.5,622.1c1.5-1.4,3.2-2.7,4.9-3.7c-0.4,2.7-0.8,5.5-1.2,8.2c-0.3,1.8-0.5,3.5-0.4,5.3
				c0.1,2,0.7,3.9,0.5,5.9"/>
			<path id="XMLID_400_" class="st13" d="M870.6,623.2c0.6-2.4,3.1-3.7,5.4-4.7c-1,3.1-1.9,6.2-2.9,9.3c-0.5,1.5-0.9,3-1.1,4.5
				c-0.3,2.8,0.4,5.5,1.1,8.2"/>
			<path id="XMLID_401_" class="st13" d="M891.3,617.4c-1,4.6-4.4,8.3-6.9,12.3c-2.4,4-4,8.5-4.6,13.2"/>
			<path id="XMLID_402_" class="st13" d="M896,623.6c0.7-1.4,1.8-2.6,3.3-3.3c-1.9,6.5-2.3,13.5-1.1,20.3"/>
			<path id="XMLID_403_" class="st13" d="M906.3,638.9c0.6-1.7,1.5-3.4,2.4-5c2-3.7,3.9-7.3,5.9-11c-3.7,0.2-7.3,1.3-10.6,3.1
				c0,0.4,0.1,0.8,0.1,1.2"/>
			<path id="XMLID_404_" class="st13" d="M904.1,631.2c1.5-1,3.4-1,5.2-0.8c1.8,0.3,3.5,0.8,5.3,0.7c1.8-0.1,3.6-1.2,4.1-2.9"/>
		</g>
		<g id="XMLID_275_">
			<g id="XMLID_500_">
				<path id="XMLID_277_" class="st14" d="M839.5,656.9c5,0.2,9.9,1.3,14.3,3.8c3.6,2,6.5,5,10.2,6.8c7.5,3.8,18.6,2.7,26.6,1.7
					c9.1-1.2,17.1-5.8,25.3-9.8c8.2-4,16.8-7.7,24.5-12.6c14.6-9.2,19.2-26,22.6-42.1c3.3-15.8,2.3-33.4-9.9-45.2
					c-2.8-2.7-7,1.5-4.2,4.2c12.1,11.8,11,29.6,7,44.7c-2,7.7-4.1,16.3-8.2,23.1c-4,6.5-10.5,10.4-17.1,13.8
					c-7.6,3.9-15.4,7.6-23.1,11.5c-8.4,4.1-15.8,6.8-25.3,6.9c-4.1,0.1-8.8,0.4-12.8-0.6c-3.8-1-6.6-3.8-9.7-5.9
					c-6-4.1-12.9-6.1-20.1-6.3C835.6,650.7,835.6,656.7,839.5,656.9L839.5,656.9z"/>
			</g>
		</g>
		<path id="XMLID_425_" class="st13" d="M865.6,570.9c6.9-1.3,14.2,4.3,14.8,11.3c0.3,3.4-1,6.9-3.4,9.3c-3.1,3-8.1,3.8-12,1.9
			c-0.7-0.3-1.3-0.7-1.6-1.4c-0.3-0.6-0.3-1.2-0.3-1.8c0-2.4,0.1-4.7,0.1-7.1"/>
		<path id="XMLID_434_" class="st13" d="M873.5,603.4c-1.9-0.5-3.9-1.1-5.8-1.6c-0.8-0.2-1.9-0.4-2.4,0.3c-0.6,0.8,0.1,1.9,1,2.3
			s1.9,0.2,2.8,0.4c2.2,0.4,3.9,2.8,3.5,5.1c-3.2,0.5-6.6-0.6-8.9-2.9"/>
		<path id="XMLID_435_" class="st13" d="M874.9,610c0.3-3.2,1.1-6.3,2.4-9.2c2,3.3,3.1,7.3,2.9,11.2"/>
		<path id="XMLID_437_" class="st13" d="M875.5,605.5c1.3-0.1,2.7-0.1,4,0.1"/>
		<path id="XMLID_442_" class="st13" d="M884.3,610c-0.5-3,0-6.1,1.4-8.7c0.7,2.4,1.5,4.8,2.5,7.1c0.1,0.2,0.1,0.3,0.3,0.4
			c0.4,0.2,0.7-0.4,0.8-0.8c0.4-1.7,0.9-3.3,1.6-4.9c0.2-0.4,0.4-0.9,0.9-0.9c0.4,0,0.7,0.4,0.9,0.8c1.5,2.9,3,5.8,4.5,8.7"/>
		<path id="XMLID_443_" class="st13" d="M897,600.5c0,1.8,0,3.6,0,5.5c0,0.3,0,0.6,0.2,0.8c0.2,0.2,0.4,0.3,0.7,0.3
			c1.3,0.3,2.6,0.5,3.9,0.8"/>
		<path id="XMLID_444_" class="st13" d="M897.5,603.8c1.2-0.1,2.4-0.5,3.5-1"/>
		<path id="XMLID_447_" class="st13" d="M896,600.5c3.8,0.3,7.7,0,11.5-0.8"/>
		<path id="XMLID_448_" class="st13" d="M904.5,602c0,0,0,6.1,0,9"/>
		<path id="XMLID_449_" class="st13" d="M904,602.5c1.2,0.3,2.4,0,3.7-0.1c1.2-0.1,2.6,0.2,3.3,1.2c0.4,0.6,0.4,1.4,0.4,2.1
			c0,1-0.1,2-0.6,2.8c-0.7,1.1-1.9,1.7-3.2,1.8c-1.2,0.2-2.5,0-3.8-0.2"/>
		<path id="XMLID_450_" class="st13" d="M914.5,605c1.1-0.2,2.3,0.3,3.2-0.2c0.8-0.5,1.1-1.5,1.2-2.5c0.4,1.8-0.2,3.7-0.7,5.5
			c-0.3,1.2-0.6,2.4-0.1,3.5c0.5,1.1,1.9,1.9,2.9,1.2"/>
		<path id="XMLID_461_" class="st13" d="M919.5,598.3c-1.5,0-3-0.3-4.2-1"/>
	</g>
	<g id="XMLID_276_">
		<path id="XMLID_336_" class="st9" d="M393.7,593.7c-18.3,4.8-37.8-0.1-56.5,3c-6.8,1.1-13.5,3.3-20.4,4.1
			c-20,2.4-39.4-6.8-57.5-15.7c-7.6-3.8-15.4-7.7-21-14.1c-7.4-8.5-10.3-20.7-19.3-27.6c-2.6-2-5.7-3.6-7.5-6.3
			c-3.4-5.3-0.6-12.3,2.3-17.9c3.2-6.4,6.5-12.7,9.7-19.1c2.9-5.7,6.1-11.7,11.4-15.3c5-3.3,11.1-4.1,17.1-4.8
			c19.2-2.2,38.4-4.4,57.7-3.8c7.9,0.3,15.9,1,23.8,0c11-1.5,22.3-6.4,32.9-2.9c8.1,2.6,13.8,9.6,19.1,16.3
			c6.5,8.2,13,16.4,17.3,25.9c4.3,9.5,6.2,20.5,2.9,30.4c-2.8,8.4-8.9,15.3-13.4,22.9c-4.3,7.3-7.2,15.5-8.4,23.9"/>
		<g id="XMLID_278_">
			<path id="XMLID_279_" class="st3" d="M247.1,498.9c-2-1.4-4.2-2.6-6.5-3.5c-0.3-0.1-0.6-0.2-0.8-0.1c-0.3,0.1-0.5,0.4-0.7,0.7
				c-1.1,2.2-0.9,5.1,0.4,7.2c1.3,2.1,3.8,3.4,6.3,3.4c0.4,0,0.8,0,1.2,0.2c0.6,0.3,0.6,1.1,0.6,1.8c0,1.2-0.1,2.3-0.1,3.5
				c0,0.6-0.1,1.2-0.5,1.5c-0.4,0.3-0.9,0.2-1.3,0.2c-1.7-0.2-3.3-0.4-5-0.6c-0.8-0.1-1.9-0.7-1.4-1.4"/>
			<path id="XMLID_280_" class="st3" d="M256.6,513c-0.2-2.2-1.6-4-2.1-6.1c-0.8-3.1,0.1-6.3,1.1-9.3c0.4-1.1,0.8-2.4,2-2.9
				c0.9-0.3,1.9,0,2.7,0.4c1.4,0.6,2.9,1.2,4.1,2.1c1.2,1,2.1,2.4,2.1,4c0,3.7-4.8,5.6-5.6,9.2c-0.1,0.4-0.2,1-0.6,1.2
				c-0.3,0.1-0.6,0.1-0.9,0c-1.3-0.3-2.6-0.6-3.9-0.9c-0.3-0.1-0.6-0.2-0.8-0.4c-0.4-0.4-0.3-1-0.1-1.5c0.6-2.4,1.2-4.8,1.8-7.2"/>
			<path id="XMLID_281_" class="st3" d="M269.7,493.7c2.4,6,4.4,12.1,5.9,18.4"/>
			<path id="XMLID_282_" class="st3" d="M271.5,496.3c1.4-1.4,3.5-1.9,5.4-1.6c1.3,0.1,2.6,0.6,3.6,1.5c1.9,1.9,1.4,5.5-0.9,7
				c-2.2,1.5-5.5,0.8-7.2-1.3c2.8,0.4,5.7,0.9,8.1,2.5c1.2,0.8,2.1,1.9,3.1,3c1.8,2,3.6,4,5.4,6c0.6-0.3,1.1-1,1.1-1.7"/>
			<path id="XMLID_283_" class="st3" d="M291,494.4c3.2,0.4,5.1,3.7,6.4,6.7c1.1,2.4,2.2,4.9,3.3,7.3"/>
			<path id="XMLID_284_" class="st3" d="M285.4,497.6c0-3,3.3-4.9,6.3-5.2c3-0.3,6,0.4,8.9-0.3"/>
			<path id="XMLID_285_" class="st3" d="M306.5,494.6c-0.7,2.2-1,4.5-0.8,6.9c0.2,2.7,1.6,5.8,4.3,6.1c0-0.3-0.1-0.7-0.1-1"/>
			<path id="XMLID_286_" class="st3" d="M306.4,490.5c-2.4-0.3-4.6-1.9-5.5-4.1"/>
			<path id="XMLID_287_" class="st3" d="M314.7,495.9c0.1-0.3,0.2-0.6,0.2-0.9c3.4,3.9,3,9.7,4.7,14.5c0.1,0.4,0.3,0.9,0.7,1.1
				c1,0.6,2.1-0.5,2.7-1.5c0.8-1.2,1.5-2.5,2.3-3.7"/>
			<path id="XMLID_288_" class="st3" d="M318.3,502.3c0.3-2.9,1.9-5.7,4.4-7.4"/>
			<path id="XMLID_289_" class="st3" d="M313.9,495.3c1.1-4.2,4.5-7.7,8.7-8.8"/>
			<path id="XMLID_290_" class="st3" d="M339.7,494.1c1.1,5.8,2.1,11.6,2.9,17.4"/>
			<path id="XMLID_291_" class="st3" d="M337.7,494c2.7,1.7,6.8-0.1,9.1,2.2c1.2,1.2,1.2,3,1.2,4.7c-0.1,3.2-0.7,6.5-1.5,9.6
				c-0.1,0.2-0.1,0.5-0.3,0.6c-0.2,0.1-0.5,0.1-0.7,0c-1.2-0.2-2.4-0.5-3.5-0.7"/>
			<path id="XMLID_292_" class="st3" d="M351.6,490.9c-1.9,5.4-1.5,11.5,1.2,16.6c0,0.1,0.1,0.2,0.2,0.2c0.2,0.1,0.3-0.1,0.4-0.2
				c2.1-2.3,4.2-4.6,6.3-6.9"/>
			<path id="XMLID_293_" class="st3" d="M352,498.4c0.9-2.2,2.5-4.2,4.4-5.5"/>
			<path id="XMLID_294_" class="st3" d="M351.8,490.9c0.1-1.6,0.5-3.5,2-4c0.9-0.3,1.9,0.2,2.8,0.4c0.9,0.2,2.2,0,2.5-0.9"/>
			<path id="XMLID_295_" class="st3" d="M281.1,539.3c0.5-0.9-0.5-1.8-0.9-2.8c-0.7-1.7,0.8-3.5,0.6-5.4c-0.2-2.2-2.7-3.8-2.4-6
				c3.5,0.5,7,1,10.5,1.6c0.3,0,0.6,0.1,0.8,0.3c0.5,0.5-0.1,1.3-0.7,1.7c-3.3,2.2-7.7,2.7-11.4,1.3c4.4,0.2,8.5,2.8,10.7,6.5
				c-0.1-1,1-2,2-1.7"/>
			<path id="XMLID_296_" class="st3" d="M242.5,538.5c0.5-1.8,0.2-3.7-0.6-5.4c-0.3-0.6-0.7-1.3-0.2-1.8c1.2,0.6,1,2.6,2.3,2.9
				c0.5-1.5,1-3.1,1.5-4.6c0.3,2.7,0.9,5.4,2,7.9"/>
			<path id="XMLID_297_" class="st3" d="M249.4,530.4c-0.5,2.1-0.1,4.5,1.1,6.3"/>
			<path id="XMLID_298_" class="st3" d="M249.3,528.4c-0.6-0.3-1-0.8-1.3-1.4"/>
			<path id="XMLID_299_" class="st3" d="M255.2,529.9c-0.6-0.3-1.3-0.6-1.9-0.8c-0.1,0-0.2-0.1-0.3,0c-0.1,0-0.1,0.1-0.2,0.2
				c-0.8,1.8-0.7,3.9,0.2,5.6c0.2,0.4,0.5,0.8,0.9,1c0.4,0.2,1,0.2,1.3-0.2c0.1-0.2,0.2-0.4,0.2-0.6c0.2-0.7,0.3-1.4,0.5-2.1"/>
			<path id="XMLID_300_" class="st3" d="M259.8,536.4c-0.2-1.8-0.6-3.7-1.2-5.4c-0.3-0.9-0.6-1.8-0.2-2.6c1.3,0.4,2.5,0.6,3.8,0.8
				c0,0.8-0.2,1.6-0.3,2.4c0,0.2-0.1,0.4-0.2,0.6c-0.3,0.4-1,0.4-1.5,0.3c-0.5-0.2-1-0.4-1.6-0.4c1.4,1.4,2.7,2.8,4.1,4.2"/>
			<path id="XMLID_301_" class="st3" d="M265.4,534.7c-0.3-0.7-0.6-1.4-0.8-2c-0.1-0.3-0.3-0.7-0.3-1c0-0.3,0-0.7,0.1-1
				c0.3-1.5,0.6-2.9,0.8-4.4c0.6,0,1.3,0.2,1.9,0.4c0.3,0.1,0.7,0.3,0.9,0.5c0.3,0.3,0.4,0.7,0.5,1c0.5,2.3,0.3,4.7-0.6,6.8
				c-1.7,0.2-3.3-1.3-3.3-2.9"/>
			<path id="XMLID_302_" class="st3" d="M239.8,526.7c-0.8,0.1-1.6,0.6-2,1.4c-0.2,0.4-0.3,0.9-0.4,1.4c-0.3,1.9,0,3.8,0.4,5.7
				c0.2,0.9,0.4,1.9,0.8,2.8c1,2.2,3,3.9,5.4,4.4"/>
			<path id="XMLID_303_" class="st3" d="M268.4,521.8c0.6,0.1,1.2,0.3,1.8,0.7c0.5,4,2.4,7.7,2.6,11.7c0,1,0,2-0.4,2.9
				c-0.4,0.9-1.1,1.7-2,2"/>
			<path id="XMLID_304_" class="st3" d="M293.7,526.5c-0.6,1.7-0.8,3.6-0.4,5.3c0.3,1.6,1,3.2,1.1,4.9c0.2,1.9-0.4,3.7-0.9,5.5
				c0.9-1.8,2.1-3.7,4-4.3c1.1-0.3,2.5-0.3,3.1-1.2"/>
			<path id="XMLID_305_" class="st3" d="M293.3,534.7c0.2-1,0.7-1.9,1.6-2.4c0.8-0.4,1.7-0.4,2.5-0.8c1.3-0.7,1.9-2.6,3.4-2.8"/>
			<path id="XMLID_306_" class="st3" d="M293,527.1c0.5-0.8,1.5-1,2.3-1.4c1.7-0.9,2.9-3,4.8-3.3"/>
			<path id="XMLID_307_" class="st3" d="M295.4,525.6c0.9-2.5,1.2-5.3,0.9-7.9"/>
			<path id="XMLID_308_" class="st3" d="M311.9,528.2c-0.9-0.6-1.7-1.4-2.2-2.4c-0.5-0.9-0.7-2-1.4-2.7c-0.9-0.9-2.2-1.2-3.4-1.4
				c-0.1,0-0.2,0-0.3,0c-0.3,0.1-0.2,0.6-0.1,0.8c0.3,0.7,0.5,1.5,0.6,2.3c0.1,0.7,0,1.4,0.2,2.1c0.2,0.6,0.5,1.2,0.8,1.8
				c0.5,0.9,1,1.7,1.5,2.6c0.1,0.2,0.3,0.4,0.5,0.6c0.2,0.1,0.4,0.2,0.6,0.2c1.1,0.3,1.8,1.4,2.1,2.4c0.3,1.1,0.2,2.2,0.1,3.3
				c0,0.3-0.1,0.6-0.3,0.7c-0.2,0.1-0.4,0.1-0.6,0.1c-2.5-0.2-4.9-1.9-5.8-4.2"/>
			<path id="XMLID_309_" class="st3" d="M315.8,519.2c1,2.8,1.6,5.8,1.8,8.8c0,0.6,0.1,1.3,0.2,1.9c0.1,0.6,0.4,1.1,0.6,1.6
				c0.6,1.3,1.1,2.6,1.7,3.9"/>
			<path id="XMLID_310_" class="st3" d="M312.1,514.2c1.2,0.8,3,0.4,3.7-0.9"/>
			<path id="XMLID_311_" class="st3" d="M322.7,518.8c0.6,3.2,1.3,6.4,1.9,9.6c0.2,1.2,0.5,2.5,1,3.6c0.5,1.2,1.2,2.4,1.8,3.6"/>
			<path id="XMLID_312_" class="st3" d="M322.7,521.3c0.2-0.8,0.4-1.5,0.6-2.3c3.4-0.7,7.1,1,8.9,3.9c1.8,3,1.4,7-0.8,9.7
				c-0.6,0.7-1.3,1.3-1.8,2.1c-0.3,0.4-0.5,0.9-0.8,1.3c-0.7,0.7-1.9,0.7-2.6,0.1"/>
			<path id="XMLID_313_" class="st3" d="M334.9,520.1c0.9,1.7,1.8,3.4,2.4,5.3c0.5,1.6,0.7,3.2,0.9,4.8c0.4,2.8,0.7,5.7,1.1,8.5
				c2.2-1.8,4.6-3.7,7.4-3.9"/>
			<path id="XMLID_314_" class="st3" d="M337.7,528.8c1.5-2.5,3.5-4.8,5.8-6.6"/>
			<path id="XMLID_315_" class="st3" d="M334.9,520.2c1.8,0.5,3.7,0.8,5.7,0.9c0.7,0,1.4,0,2-0.3c0.6-0.3,1.1-0.8,1.5-1.3"/>
			<path id="XMLID_316_" class="st3" d="M348.6,531.4c-1.9-1.3-2.5-3.9-2.3-6.2c0.2-2.3,1-4.5,1.1-6.8c0.4,1,0.9,1.9,1.4,2.8
				c1.8,3.3,3.7,6.6,5.5,9.9c-0.1-1.2-0.2-2.5-0.4-3.7c-0.4-3.6-0.8-7.3-1.3-10.9"/>
			<path id="XMLID_317_" class="st3" d="M362.6,520.4c-0.7-1-1.9-1.7-3.2-1.8c-0.2,0-0.4,0-0.5,0.1c-0.2,0.1-0.2,0.4-0.2,0.6
				c-0.6,4.6,0.1,9.4,1.8,13.7c0.6,1.5,1.6,3.1,3.2,3.3c1.7,0.2,2.9-1.4,3.9-2.7"/>
			<path id="XMLID_318_" class="st3" d="M365.9,514.3c0.1,0,0-0.2-0.1-0.1s-0.1,0.1-0.1,0.2c-0.1,3.3,2.2,6.3,2.4,9.7
				c0,0.8-0.1,1.7,0.1,2.5c2.1-0.9,4.2-1.9,6.2-2.8"/>
			<path id="XMLID_319_" class="st3" d="M367.5,520.7c1.6-1.2,3.4-2.2,5.2-2.9"/>
			<path id="XMLID_320_" class="st3" d="M365.2,515.2c2.7-2.4,5.4-4.7,8.1-7"/>
			<path id="XMLID_321_" class="st3" d="M264.4,552.5c-2,8.2,0.1,17-0.7,25.4"/>
			<path id="XMLID_322_" class="st3" d="M250.4,553.5c0-0.6,0.6-1,1.1-1.1s1.2,0.1,1.7,0.2c3.4,0.8,7,0.2,10.4-0.5
				c5-1.1,9.9-2.3,14.8-3.8"/>
			<path id="XMLID_323_" class="st3" d="M278.6,571.1c-1.9-0.8-4.4-1.5-5.8,0c-0.8,0.8-0.9,2.1-0.7,3.2c0.3,1.1,0.9,2.1,1.6,3
				c0.8,1.1,2.1,2.2,3.4,1.8c0.9-0.3,1.4-1.4,1.5-2.3c0-1-0.3-1.9-0.5-2.9c-1-3.9-0.3-8.1-0.8-12.1c-0.4-3.1-1.6-6-2.8-9
				c-0.2,1.6,0.3,3.1,0.8,4.6c1.3,4.2,2.5,8.5,3.4,12.8c0.3,1.6,0.7,3.2,1.6,4.6s2.6,2.3,4.1,1.9c0.2-0.7,0.4-1.5,0.6-2.2"/>
			<path id="XMLID_324_" class="st3" d="M292,580.4c-1.4-4.9-2.8-9.9-4.2-14.8c-1-3.6-2.1-7.2-2.5-10.9c0-0.3-0.1-0.6,0.1-0.9
				c0.2-0.3,0.5-0.4,0.8-0.5c1.9-0.5,3.9-0.8,5.9-0.8c1.8,0,3.8,0.3,4.8,1.8c1,1.4,0.7,3.3,0.3,4.9c-0.4,1.4-0.8,2.8-1.2,4.2
				c-0.2,0.7-0.5,1.5-1.1,2c-0.5,0.4-1.1,0.6-1.8,0.8c-2,0.4-4,0.2-5.9-0.4"/>
			<path id="XMLID_325_" class="st3" d="M308.6,570.4c-1.6,4.2-3.8,8.2-6.5,11.9"/>
			<path id="XMLID_326_" class="st3" d="M316.6,550.8c1.8,3.3,3.6,6.7,4.3,10.4c0.4,2,0.4,4.1,0.9,6.1c0.6,2.7,1.8,5.3,1.6,8.1"/>
			<path id="XMLID_327_" class="st3" d="M328.5,551.3c1,2.4,2,4.8,2.6,7.3c0.9,3.8,1,8.1,3.9,10.7c0.3,0.2,0.6,0.5,0.7,0.8
				c0.2,0.4,0.1,0.9,0.1,1.3c-0.1,1.4,0,2.9,0.5,4.3"/>
			<path id="XMLID_328_" class="st3" d="M331.8,562c-2.1-0.3-4.2-0.5-6.3-0.8c-1.9-0.2-3.9-0.5-5.6,0.5"/>
			<path id="XMLID_329_" class="st3" d="M339.4,554.9c-0.4,1.1-0.2,2.3,0,3.4c0.5,2.9,1,5.9,1.5,8.8c0.1,0.7,0.3,1.4,0.8,1.9
				c0.4,0.3,0.8,0.4,1.3,0.5c2.4,0.4,4.9,0,7-1.3"/>
			<path id="XMLID_330_" class="st3" d="M340.6,566.5c-0.4-3.3,1.8-6.7,5-7.6"/>
			<path id="XMLID_331_" class="st3" d="M338.8,555.2c3.9,0.3,7.9-0.9,11.1-3.2"/>
			<path id="XMLID_332_" class="st3" d="M342.7,554.1c0,0,1.3-5.5,2.1-8.4"/>
			<path id="XMLID_333_" class="st3" d="M355.7,552.9c-0.5,4.6-1.1,9.3,0,13.8c0.7,2.7,1.9,5.2,1.9,7.9"/>
			<path id="XMLID_334_" class="st3" d="M355.2,552.6c0.4-0.1,0.8-0.2,1.3-0.3c2.9-0.3,5.7,1.8,6.8,4.5c1.1,2.7,0.9,5.8,0.2,8.6
				c-0.4,1.9-1.1,3.7-2.2,5.2c-1.1,1.5-2.8,2.8-4.6,3.1"/>
			<path id="XMLID_335_" class="st3" d="M371.6,571.6c-0.3-3.6-0.6-7.1-0.9-10.7c-0.1-1.2-0.2-2.5-0.9-3.5c-0.4-0.6-0.9-1-1.1-1.6
				c-0.5-1.1-0.1-2.4,0.7-3.3c0.8-0.9,1.9-1.5,2.9-2c1.5-0.8,3.1-1.6,4.8-1.8"/>
			<path id="XMLID_337_" class="st3" d="M371.1,559c2.4,0,4.8-0.5,6.9-1.7"/>
			<path id="XMLID_421_" class="st3" d="M371.4,570c1-0.2,2-0.3,3-0.5c1.2-0.2,2.5-0.4,3.6-1c1.7-0.9,2.8-2.5,3.8-4.1"/>
			<path id="XMLID_424_" class="st3" d="M370.6,551.2c1.8-2.7,3.1-5.8,3.9-8.9"/>
		</g>
		<g id="XMLID_445_">
			<g id="XMLID_467_">
				<path id="XMLID_465_" class="st11" d="M246.2,583.1c16.3,6.9,32.1,16.8,49.9,19.6c8.9,1.4,17.4,0.6,26.2-1.3
					c9.5-2.1,18.8-5,28.6-4.5c9.1,0.5,18.3,3.2,27.4,0.7c7.3-2.1,12.1-7.2,14.9-14.1c3.5-8.6,4.8-17.9,8.1-26.5
					c3.1-8,9.4-15.4,9.7-24.3c0.3-9.3-5.3-17.6-10.6-24.8c-6.7-9.1-13-18.4-18.5-28.2c-1.9-3.4-7.1-0.3-5.2,3
					c4.2,7.6,8.8,14.9,13.9,22c4.7,6.5,10.2,12.8,13,20.4c3.5,9.6-2,16.4-5.8,24.8c-3.3,7.1-5.4,14.7-7.4,22.2
					c-2.2,8.3-4.5,17.1-13.7,19.8c-8.4,2.4-17.3-0.4-25.8-0.9c-16.8-0.9-32.3,7.7-49.1,6.5c-18.8-1.4-35.5-12.3-52.5-19.5
					C245.8,576.5,242.7,581.6,246.2,583.1L246.2,583.1z"/>
			</g>
		</g>
	</g>
</g>
</svg>
