<?xml version="1.0" encoding="utf-8"?>
<!-- Generator: Adobe Illustrator 19.0.0, SVG Export Plug-In . SVG Version: 6.00 Build 0)  -->
<svg version="1.1" xmlns="http://www.w3.org/2000/svg" xmlns:xlink="http://www.w3.org/1999/xlink" x="0px" y="0px"
	 viewBox="0 0 1280 800" style="enable-background:new 0 0 1280 800;" xml:space="preserve">
<style type="text/css">
	.st0{fill:#353535;}
	.st1{fill:#6D6D6D;stroke:#000000;stroke-miterlimit:10;}
	.st2{opacity:0.68;}
	.st3{opacity:0.85;}
</style>
<g id="Calque_1">
		<path id="XMLID_11_" class="st0" d="M245.6,319.1c0,6-0.2,12.1-0.1,18.1c0.2,11.6,2.8,23.2,4.6,34.7c5,31.9,3.3,64.6,8.2,96.7
			c1.3,8.8,3,17.4,5.4,25.9c0.9,3.2,1.4,7.3,3.7,9.8c2.5,2.7,7.3,4.1,10.5,6.1c3.3,2,8.2,6,12.3,5.2c2-3.4-0.4-9.1-1-12.6
			c-2-11.8-4-23.5-6.1-35.3c-3.6-20.7-7.2-41.2-10.1-61.9c-1.4-9.8-4.5-19.8-3.3-29.8c0.5-3.6,0.9-7.1,4.8-7.2
			c6.9-0.2,16.8,7.7,22.1,11.2c22.2,14.6,46.2,26.1,69,39.7c20.4,12.2,41.6,23.2,62.8,34c31.5,16.1,64,30.4,96.1,45.5
			c14.3,6.8,28.1,14.2,41.7,22.1c7.8,4.5,15.6,8.3,23.8,12.1c10.6,4.9,21,10.5,31.7,15.1c15.7,6.7,31,14,46.4,21.2
			c9.3,4.4,18.9,8.2,27.7,13.5c7.9,4.7,7.5,15.2,8.7,23.6c3.6,25.1,6.6,50.2,7.6,75.6c0.3,7.2,0,14.4-0.8,21.5
			c-0.6,5.1-1.7,11.3-0.6,16.5c1.6,8.2,8.2,8.6,15,11.3c3,1.2,4.9,2.7,7.4-0.1c6.2-6.9,6.4-19.4,7.2-27.9
			c1.8-19.6,4.3-39.5,4.8-59.1c0.5-18.2-1.3-35.9-3.8-54c-1-7-3.1-14.1-3.6-21.1c-0.2-2.3-0.1-5.1,0.8-7.2c1.9-4.1,6.9-7,10.5-9.4
			c2.8-1.9,5.2-3.7,7.8-5.9c6.3-5.4,12.1-9.1,19.3-13.3c12.3-7.1,23.7-15.7,36.4-22.2c14-7.2,28-14.5,42.1-21.4
			c13.5-6.6,27.9-10.8,41.5-17.2c16.9-8,31.7-19.6,42.4-35.2c2.8-4.1,5.8-7.2,9.5-10.5c2.9-2.7,4.8-5.7,7.2-8.8
			c2.8-3.5,8.7-10.3,13.4-11.6c5.7,6,3,19,3,26.5c-0.1,15.7,0,31.4,0,47.1c0,14.3-0.4,28.7-0.1,43c0.2,9.2,0.6,19.3,2.3,28.4
			c1.4,7.7,7.1,9.1,14.3,9c3.6-0.1,5.9,0.3,8.1-3c2.1-3,2.5-7.6,3.2-11.1c1.5-7.8,2.8-15.6,3.4-23.5c1.7-21.4,3.3-43.1,3.3-64.6
			c0-8.4-0.3-16.8-0.1-25.2c0.3-8,2.1-16,2.8-24c0.8-10.3,0.3-20.7,0.3-31c0-8.6,0.7-17.4-1.1-25.8c-0.8-3.9-2.6-7.4-3.9-11.1
			c-1.8-5.3-3.4-6.1-8.6-8.6"/>

	<path id="XMLID_1_" class="st1" d="M724.1,536.6c-9.2-5.8-18.5-11.3-28.1-16.5c-8.1-4.4-16-8.6-24.6-12.1
		c-5.8-2.4-11.1-4.8-16.3-8.2c-9.9-6.4-21.2-12.6-32.2-16.7c-6.1-2.3-11.7-5.5-17.5-8.4c-10.3-5.1-20.9-9.4-31.4-14.1
		c-39.9-17.6-82.8-28.1-121.6-48.2c-29.4-15.2-57.6-32.7-86.2-49.2c-32.6-18.9-71.2-21.9-104.3-39.5c-3.5-1.8-13.1-4.7-13.5-9.1
		c-0.7-7.1,12.5-11.4,16.6-14.6c21.4-16.5,43.7-31.6,68-43.7c11-5.4,22.1-10.9,32.6-17.2c12.7-7.6,26.2-13.8,38.7-21.8
		c16.7-10.7,35.8-19.5,49.7-33.9c5.7-5.9,9.6-12.3,16.6-17c15.2-10.2,32-15.2,49.3-20.1c4.2-1.2,11.5-4.8,16.1-4.3
		c3.1,0.3,7.4,5,10.1,6.7c7.3,4.6,15.1,7.9,22.9,11.6c40.2,18.8,80.1,40.6,124.7,46.7c5.3,0.7,10.6,0.9,16,1
		c8.7,0.1,15.6,2.9,23.8,5.9c19.6,7.3,39.8,13.6,59.2,21.5c12.3,5,24.4,10.7,36.6,16c36.9,16.1,72.9,34.1,109.4,51.2
		c10.9,5.1,22.6,9.3,33.1,15.3c7.1,4.1,13.9,8.7,21.1,12.8c3,1.7,6.5,2.6,5.4,6.5c-0.6,2-3.4,5.4-4.5,7.3
		c-12.7,20.6-32.1,36.1-49.3,52.7c-13.7,13.2-28.2,23.9-43.7,34.7c-5.7,4-11.7,8.2-17.9,11.3c-7.2,3.6-14.4,6.4-21.2,10.8
		c-23.1,14.9-42.5,34.4-66.1,48.5c-10.9,6.5-23.4,9.7-35.5,13.1c-7,2-15.5,1.2-22.2,4c-1.4,0.6-1.9,1-3.2,1.9
		c-2.4,1.7-5.1,2.8-7.6,4.5c-3.3,2.3-6.1,6.3-8.9,9.1"/>
	<path id="XMLID_6_" class="st1" d="M390.6,240.6c-10.9,1.6-17.9-15.7-7.5-20.2c3.4-1.5,14-2.1,17.2,0.1c5.4,3.6,4.6,10.8-0.6,13.7
		c0.5-2.9,2.6-5.3,2.9-8.5c0.4-5.3-2.3-7.4-6.4-9.5c-6-2.9-12-7.5-18.2-9.4c-2.5-0.8-4.7-1.7-7.1-2.6c-1.9-0.7-3.7-0.8-5.8-1.1
		c-0.5-0.1-4.9-1.5-5.8-1.4c-8.7,1.3-3.9,17-0.9,21.5c4.7,7.1,14,9.2,20.3,14.4c2.4,2,4.3,3.7,7.4,4.9c3.9,1.5,6.6-0.9,10.5-2.3
		c6.1-2.1,13.4-7.7,10.5-15.4c-0.7-1.9-2.5-2.2-3.7-3.7c-1.1-1.3-1.3-3.1-2.5-4.3c-2.3-2.3-7.5-4.6-10.5-5.9
		c-3.4-1.5-5.5-2.6-8.7-4.5c-2.2-1.4-5.1-2.7-7.5-3.7c-4.8-2.1-9.8-4-15-4.1c-5.7,0-12.4,2-16.5,6.2c-6.1,6.2-7.5,15.5-7.5,23.7
		c0,7,0,14,0,21c0,4,0.5,8.2,0.1,12.2c-0.4,5-4.4,4.4-8.5,4.4c-1.8,0-5.4-0.9-6.9,0.5c-3.7,3.4,1.7,6.7,4.3,7.2
		c8.8,1.6,18.5-1.6,27.4,0.2c4.9,1,9.3,3.2,10.3-3.2c0.8-5-2.1-9.3-6.9-10.4c-3.3-0.8-7.9,0.9-10.7-1.6c-3.2-2.8-0.7-7.5,0.2-11
		c0.9-3.6,1.2-6.4,1.1-10.2c-0.1-3.7,1.3-6.6,1.6-10.2c0.3-3.9,1-6.2,2.1-10c0.5-1.6,0.7-3,1.7-4.4c2-2.6,5.7-3,8.1-5.4"/>
	<path id="XMLID_7_" class="st1" d="M329.6,263.6c-2-3.9-3.5-8.1-5.6-12c-1.4-2.7-5.7-5.3-5.5-8.4c0.1-3.7,4.9-4.7,7.4-2.7
		c2,1.6,5,11.5,5.2,14.1"/>
	<path id="XMLID_3_" class="st1" d="M391.1,349.1c9,1.3,17.3-9.8,23.6-14.6c8.3-6.3,16.4-13,24.1-19.8c2.7-2.4,3.8-5.9,4.5-9.3
		c2.4-11.4,2.3-24,3-35.6c0.5-9.1-0.1-18.1,0.2-27.1c0.1-3.1-0.7-4.4,2.6-5.8c6.6-2.9,18.2,2.2,24.3,3.8c11.7,3,23.1,6.5,34.7,10
		c19.3,5.9,39.3,9.6,57.9,17.6c3.6,1.6,11,2.8,12,7.4c-0.5,3-0.8,6.1-0.9,9.1c-0.1,2.3-0.3,4.7-0.4,7c-0.7,8.7-1.5,17.4-2.3,26
		c-0.6,5.9-0.3,11.8-0.3,17.8c0,2.7,0.6,6.2,0.1,8.8c-1.5,7.1-9.4,14.8-15.4,18.7c-5.7,3.8-12.1,6.2-17.8,10
		c-4.6,3-8.7,6.8-13.4,9.8c-5,3.2-10.1,6.2-14.9,9.8c-3.7,2.8-5.9,6-9.1,9c-1.6,1.5-5,3.9-7.1,4.3c-5.6,1.2-15-5.2-19.8-7.3
		c-9.3-4-18.2-8.3-27.8-11.4c-6.4-2.1-12.9-5.2-18.7-8.6c-4.3-2.5-7.8-6.2-12.1-8.7c-3.2-1.8-6.8-3-10.2-4.4c-4.6-1.9-8-4.9-12-7.6
		c-3-2.1-6.1-2.8-9.3-4.4"/>
	<path id="XMLID_5_" class="st1" d="M568.1,443.6c6-3.6,11.2-9,16.4-13.5c8.3-7.1,16.6-14.3,24.8-21.6c6.5-5.9,14.7-12.5,18.8-20.6
		c2.9-5.7,3-13,3.8-19.3c1.4-10.9,2-21.8,2.6-32.7c0.5-9,2-18.1,2.4-27c0.2-4.3-1.2-8.2-1-12.4c4.9-3.7,14.7,4.2,18.8,6.3
		c12.9,6.6,25.7,11.6,39.3,16.4c9.7,3.4,19.1,7.4,28.9,10.5c3.4,1.1,6.9,2.1,10.3,3.3c2.1,0.7,5.5,2.2,7.4,3.5
		c5.5,3.8,5.4,16.5,5.7,21.8c0.2,8.8,0.4,17.7,0.6,26.5c0.6,6.5,1,13.1,1.2,19.6c0.1,5.5,0.1,11.2,0,16.7
		c-0.3,12.8-16.3,23.3-25.4,30c-8.7,6.4-18.4,10.8-27.6,16.5c-7.1,4.3-14.2,8.6-21.4,12.7c-3.1,1.8-6.3,4.6-9.6,5.9
		c-3.2,1-6.3,0.7-9.5-0.8c-8.8-3.3-17.7-6.6-26.6-9.8c-24.7-8.8-48.5-19-71.9-30.5"/>
	<path id="XMLID_13_" class="st1" d="M854.6,437.6c-20.5-11.4-40.9-23.3-61.4-34.5c-4.4-2.4-10.6-4.2-14.1-8.1
		c-1.3-1.5-1.8-3.5-2.4-5.4c-2.5-8.1-3.4-16.9-4.6-25.2c-2.3-15.9-4.1-32.1-4.5-48.2c-0.1-4.6-1.7-14.7,0.9-18.7
		c1.3-2.1,6-4.1,8.2-5.3c6.6-3.5,13.6-4.2,20.7-6.3c10.9-3.3,21.9-7,32.6-10.9c5.1-1.9,8.9-5.4,13.9-7.2c2.9-1.1,6.1-1.6,9-2.5
		c1.4-0.5,3.4-1.6,4.9-1.2c2.6,0.7,2.7,6.8,2.9,8.7c0.7,5.5,0,11.2,0.4,16.7c0.5,7.9,1.6,15.9,2.3,23.9c0.9,9.3,1.6,18.7,3.7,27.8
		c1.9,8.3,4.1,9.8,12,12.8c12.2,4.5,23,11.2,34.3,17.6c3.7,2.1,20.2,7.2,20.3,12.5c-8.9,7.2-20.4,12.7-30.2,18.6
		c-6,3.6-11.9,7.3-17.7,11.2c-4.5,3-9,5.6-13.1,9c-4.8,4-9.6,4.8-15,7.5"/>
	<path id="XMLID_44_" d="M1280,300"/>
	<polyline id="XMLID_43_" class="st0" points="1280,300 1280,0 0,0 0,300 558.5,103.5 	"/>
</g>
<g id="pelo2">
	<path id="XMLID_16_" class="st1" d="M483,53c-3.2-0.4-6.1,3-7.8,5.3c-2,2.6-2.9,5.8-4.1,8.8c-1.4,3.5-3.2,6.9-3.9,10.6
		c-0.5,2.7-1,5.3-2.1,7.8c-1,2.3-2.6,4.3-3.4,6.7c-2.5,7.5-4,14.9-4,22.8c0,7.8-0.5,15.8,0.2,23.6c0.3,3,1,5.7,1.7,8.5
		c0.5,2.1,1.6,3.9,2.3,6c0.4,1.2,0.8,2.4,1.3,3.6c0.7,1.5,1.9,2.8,2.4,4.4c0.9,2.9,0.5,5.1,4.3,5.1c2,0,4.5,0.3,6.5-0.1
		c1.3-0.3,3-0.8,4.2-1.3c0.7-0.3,1.2-0.9,1.9-1.2c1.4-0.7,3.1-0.7,4.6-1.3c1.8-0.7,3.7-1.2,5.5-2c1.8-0.8,3.3-2,5.3-2.6
		c2.2-0.6,4.2-0.7,6.4-0.8c1.1-0.1,1.9-0.3,2.9-0.5c2.3-0.4,4.9-0.1,7.2-0.1c23.6,0,47.6-3.8,71.1,1c3.4,0.7,6.7,1.7,9.9,3
		c1.8,0.7,3.9,1.7,5.9,1.9c1.1,0.1,1.1,0.4,1.9-0.7c0.5-0.8,0.1-7.1,0.1-6.6c-0.2-8.4-1.5-16.6-2.1-24.9c-0.4-6.5-1-12.9-2-19.3
		c-1.3-8.6-1.9-17.3-3.5-25.9c-1.1-5.9-2.7-11.8-5.1-17.3c-1.4-3.1-2.2-6.2-3.7-9.3c-1.4-2.7-2.8-4.1-5.2-5.9
		c-4.4-3.3-9.6-6.3-14.5-8.8c-5.8-3-12.2-5.4-18.7-6.6"/>
	<path id="XMLID_18_" class="st1" d="M492.3,58.3c-4.5,0-9.3,0.1-13.4-2c-5.3-2.8-6.3-10.7-6.8-16c-0.4-4.8-1.2-10.3-0.1-15
		c0.5-2.3,1.6-5.6,3.7-6.8c4.4-2.5,9.8,0.2,13.9,1.7c1.1,0.4,0.9,0.8,2-0.4c0.9-1,1.1-2.6,1.3-3.9c0.8-5.4-0.9-16.1-0.9-16.1
		l17.5,0.6h19.4h17.9h2.6h5.2h2.1l3.2,0c0,0-0.1-1.6,0.4,1.3c0.7,4.1,0.6,8.2,0.6,12.4c0,2.3-0.6,5.7,0.1,8c2.2-1.8,4.2-3.7,6.7-5.1
		c1.6-0.9,3.3-1.4,5-2.1c1.6-0.7,3.5-2.6,5.3-2.5c1.7,0.1,3.7,2.2,5.1,3.1c2.9,2,3.4,5.2,3.2,8.7c-0.2,4.1-1.2,8.2-2.7,12.1
		c-1.4,3.6-4.1,5.8-7.1,8c-3,2.1-6.4,4.3-9.6,6c-2.4,1.3-5.3,2.4-7.2,4.5c-1.6,1.9-2.5,4.5-3.4,6.8c-2.2,5.8-5.7,11.1-8.7,16.5
		c-1.9,3.4-3.3,7.1-5.5,10.2c-1,1.5-2.2,3.5-3.9,4.3c-1.6,0.7-3.2,0.4-4.9,0.4c-2.4,0-4.8,0-7.3-0.3c-4.8-0.5-10.3-0.9-14.4-3.6
		c-3.7-2.4-7.2-5.5-9.5-9.2c-1.1-1.8-1.6-3.6-2.6-5.5c-1.1-2.2-2.5-4-3.3-6.4c-1-3.1-0.6-6.4-0.6-9.6"/>
	<path id="XMLID_19_" class="st1" d="M504.3,17.7c1.1,1.4,3.3,1.6,4.8,2.6c2.2,1.5,3.9,3.2,6.2,4.4c3.1,1.6,6.5,6.9,10.3,4.4"/>
	<path id="XMLID_20_" class="st1" d="M535,28.3c3.7,0,7.6,0.5,11-0.9c3.8-1.6,5.8-4.8,7.6-8.4"/>
	<path id="XMLID_21_" class="st1" d="M535,34.3c-0.3,2.1,1,3.6,2,5.4c1.8,3.4,3,7.1,4.6,10.5c2,4.4,3.5,8.8,1.2,13.4
		c-0.9,1.8-2.3,3.5-4.4,2.9c-2.7-0.7-5.1-4.7-6.9-6.6c-1.9-2-3.7-4.4-4.7-7.1c-0.6-1.5-0.6-3.4-1.7-4.6"/>
	<path id="XMLID_23_" class="st1" d="M571.7,49c2.8,0.1,5.9,3.3,7.9,5c3.9,3.2,8,6.1,11.5,9.6c3.3,3.4,6.5,7,9.5,10.7
		c2.8,3.5,4.9,7.5,7.4,11.3c2.4,3.8,4.6,7.5,6.6,11.5c1.3,2.5,3,4.7,4.3,7.1c1.7,3.1,2.7,6.5,4.2,9.6c1.9,3.9,3.2,7.7,3.9,12
		c1.3,7.1,2,14.7,2,21.9c0,3.5,0.4,6.9-0.9,10.1c-0.6,1.5-0.5,2.8-1.4,4.1c-1,1.3-2.4,2.2-3.7,3.2c-2.4,1.9-5.6,3.4-8.6,3.8"/>
	<path id="XMLID_14_" class="st1" d="M503.6,233.6c0-9.5,0.5-19-0.3-28.5c-0.6-8.2-2.5-15.9-2.8-24.1c-0.2-6-0.6-11.9-1.5-17.8
		c-0.8-5.5-2.4-11.8-1.6-17.4c1-6.3,10.2-5.9,15.4-6.7c26.8-4.1,54.4-4.4,81.5-6c5.2-0.3,10.4-1,15.6-1.3c3.4-0.2,7.6-1.6,10.9-1.2
		c7.8,0.9,5.8,20,5.8,25c-0.1,17.9-0.1,35.6,1.7,53.2c0.3,2.6,0.9,4.5-1.2,6.5c-3.4,3.3-14.7,4.3-18.3,5.1
		c-20.7,4.4-41.9,6.2-63,8.7c-11.6,1.4-23.2,2.1-34.7,4.2c-9,1.6-11-6.5-14.7-13.4c-3.5-6.6-5.8-13.8-9.4-20.3
		c-2.2-4-4.6-7.7-6.6-11.8c-1.5-3.1-2.7-5.3-5-8c-2-2.3-4.2-4.3-4.2-7.6c2.6-2.7,10.2-4,13.7-4.7c5.2-1.2,10.7-0.9,15.6-2.9"/>
	<path id="XMLID_22_" class="st1" d="M478.9,56.3c-2.9-0.3-12.3,4.5-15.3,5.3c-2.7,0.7-5.1,1.9-7.4,3.5c-1.6,1-3.2,1.9-4.6,3.2
		c-2.3,2.3-4.3,5.1-6.6,7.4c-5.5,5.4-10.7,11-15.1,17.3c-2,2.9-4.1,5.7-5.6,8.9c-1.9,3.8-2.5,7.9-3.6,11.9c-1.6,6-3.6,11.8-5,17.8
		c-1.4,5.9-1.9,11.9-2.3,18c-0.2,4.4-0.1,8.3,0.8,12.6c0.9,4.1,2.7,7.6,4.4,11.4c1.8,4.1,4.1,6.8,8.2,8.6c3.3,1.4,7.4,0.8,10.8,0.8
		c5.3,0,10.3-0.9,15.4-2.8c3.3-1.2,7.1-3.2,9.4-5.9c3.3-3.9,8.7-2.1,12.7-0.5c4.6,1.8,6.2,3.7,8.5,7.9c0.6,1.1,1.4,2.1,2,3.2
		c0.4,0.7,0.7,1.8,1.4,2.2c2.5,1.5,4.3-4.3,4.7-6.1c0.9-3.5,0.8-7.4-1-10.7c-2.1-3.9-6.4-5.9-8.7-9.5c2.4,1.5,4.7,3.4,6.7,5.4
		c1.7,1.8,2.9,3.9,4.4,5.8c1,1.2,1.8,1.9,2.3,3.4c0.5,1.2,1,3.3,2.2,4c2.3-2.8,2.2-8.1,1.7-11.5c-0.4-2.2-0.8-4.6-1.3-6.8
		c-0.6-2.8-2.6-5.5-3.9-8c-1.1-2.2-2-4.5-4.1-6c-2.8-2-5.5-1-8.6-1.4c-2.6-0.3-4.8-0.6-7.4-0.6c-2.5-0.1-4.3,1.3-6.7,1.4
		c-3.9,0.2-8.4,0.2-12.2-0.6c-2.4-0.5-3.6-1-4.5-3.5c-0.9-2.6-0.9-5.4-0.2-8.1c1.5-5.3,5.2-8.7,9.5-12c0.8-0.6,1.7-0.8,2.7-1.2
		c1.2-0.6,2.1-1.5,3.3-2.1c2.4-1.1,4.9-1.1,6.7-3.3"/>
</g>
<g id="ordis">
	<g id="ordis" class="st2">
		<g id="XMLID_111_">
			<path id="XMLID_119_" d="M526,30c-0.6-0.5-1.4-0.6-2.1-1c-0.9-0.5-1.6-1.3-2.4-1.9c-1.4-1.1-2.8-1.9-4.1-3.2
				c-1.6-1.7-3.5-2.4-5.5-3.5c-2-1.1-3.7-2.4-5.8-3.3c-1.2-0.5-2.5-0.9-3.7-1.6c-1.8-1-2.9-2.7-3.9-4.5c-0.9-1.5-1.1-2.6,1-3
				c1.9-0.4,3.8,0.3,5.6-0.5c1-0.4,2-0.8,3-1.3c1.3-0.6,2.7-1.8,4.1-2.1c1.7-0.3,3.7,1.5,4.9,2.7c1.3,1.3,2.3,3.1,3.5,4.5
				c2.1,2.5,4.3,5.9,4.5,9.2c0.1,2.6-0.5,5.9,1,8.3"/>
			<path id="XMLID_118_" d="M535,28c1.2-3,0-6.3,0-9.5c0-2.7,1-5.5,2-7.9c1.2-2.7,3.1-4.6,5.6-6.1c1.8-1.1,2.5-1.2,4,0.1
				c1.7,1.6,3.2,2.9,4.4,4.9c1.2,1.9,3.1,3.7,3.5,6.1c0.3,1.5,0.1,3.2-1.1,4.1c-0.5,0.3-1,0.4-1.4,0.8c-0.4,0.4-0.7,0.9-1.2,1.2
				c-0.9,0.5-2.2,0.9-3.2,1.3c-1.5,0.6-2.8,1.4-4.3,2c-1,0.4-2.1,0.8-3.1,1.3c-1.6,0.8-2.9,0.7-4.7,0.7"/>
			<path id="XMLID_117_" d="M516,36.8c-0.9-1.9-2.6-3.1-3.9-4.7c-0.7-0.9-1.2-1.8-1-2.9c0.2-1,0.5-2.3,0.3-3.3c0-0.4-0.3-0.6,0-0.8
				c0.5-0.4,1.2,0.1,1.7,0.3c1.7,0.7,2.9,2,4.1,3.4c1.1,1.2,1.5,2.6,1.7,4.2c0.1,1.1,0.2,2.3-0.5,3.2c-0.3,0.4-0.7,0.6-1.1,0.7
				c-0.4,0.1-0.8,0.2-1.2,0.2"/>
			<path id="XMLID_116_" d="M541.3,35.7c0-0.5-0.3-0.9-0.5-1.4c-0.2-0.6-0.1-1.1,0-1.6c0.1-0.6,0.4-1.2,0.6-1.8
				c0.2-0.5,0.4-1.2,0.7-1.6c0.3-0.5,0.6-0.9,0.8-1.4c0.3-0.6,0.6-1.1,1.1-1.5c0.4-0.3,0.7-0.7,1.2-0.8c0.3-0.1,1.1-0.4,1.3-0.2
				c0.4,0.4,0.2,1.3,0.2,1.7c0,0.9,0,1.7-0.2,2.6c-0.3,1.5-0.5,3.1-1.2,4.4c-0.4,0.9-0.8,1.5-1.8,1.8c-0.5,0.2-1,0.3-1.6,0.3"/>
			<path id="XMLID_115_" d="M490.5,21.2c-0.9-0.5-1.9-1-2.9-1.4c-1.7-0.6-3.6-0.9-5.4-1.1c-1.9-0.2-3.8-0.2-5.7-0.2
				c-1.5,0-2.2-0.1-3.1,1.3c-0.9,1.5-1.6,3-2.2,4.7c-0.4,1-0.8,1.9-0.9,3c-0.1,0.9-0.1,1.7-0.2,2.6c-0.2,1.8,0.4,3.6,1.1,5.2
				c0.3,0.7,0.8,1.3,1.2,2c0.3,0.4,0.4,1.2,0.9,1.4c0.3-0.4,0-1.3-0.1-1.7c-0.1-0.7-0.2-1.4-0.2-2.1c0-1.5,0.5-2.7,1-4.1
				c0.4-1,0.7-1.8,1.7-2.3c1.2-0.6,2.5-0.6,3.8-0.8c1.2-0.2,2.4-0.1,3.7-0.4c1.6-0.3,3.2-0.7,4.7-1.1c0.8-0.2,1.3-0.6,1.8-1.2
				c0.3-0.4,0.5-0.7,0.5-1.2c0-0.3-0.3-0.5-0.2-0.8"/>
			<path id="XMLID_114_" d="M563,21.5c-0.8,0-0.5-0.7-0.2-1c0.5-0.5,1.2-0.8,1.8-1.1c1.4-0.9,2.6-1.9,4.1-2.6c2.6-1.3,5.2-2.5,8-3.2
				c0.9-0.2,1.7-0.4,2.6-0.3c1.7,0.2,2.9,2.3,3.6,3.6c0.5,0.9,1.1,1.8,1.4,2.8c0.3,0.8,0.6,1.7,0.9,2.5c0.4,0.9,1.3,2.1,1.1,3.2
				c-0.2,0.8-1.3,1.3-2,1.5c-1.1,0.2-2.3-0.1-3.3-0.7c-1-0.6-1.4-1.9-2.1-2.8c-0.7-1-1.4-1.4-2.6-1.6c-1.5-0.2-3-0.1-4.5-0.1
				c-1.1,0-2.4-0.1-3.5,0c-1.1,0.2-1.9,0.5-3,0.2c-0.6-0.2-1.2-0.3-1.7-0.4c-0.4-0.1-0.6-0.3-1-0.3"/>
			<path id="XMLID_113_" d="M476,146.5c-0.1-1.5-0.9-2.5-1.5-3.8c-1.1-2.5-1.9-4.9-2-7.7c-0.1-3.1-0.4-6.1-0.8-9.2
				c-0.4-3.1-1.2-6-1.5-9.1c-0.7-7.1-1.3-14.2-1.2-21.3c0-4.9,0.2-9.8-0.6-14.7c-0.3-1.5-1-2.8-1.3-4.3c-0.5-2.2,0.3-4.3,0.8-6.4
				c0.7-3.1,0.5-6.1,1.5-9.1c0.9-2.7,2.1-3.2,4.7-3.8c2-0.5,4.4-0.1,6.4-0.1c2,0,4.1,0,6.1,0c0.7,0,1.6-0.1,2.2,0
				c1.8,0.5,2.2,1.6,2.6,3.2c0.5,2.1,1,4.1,1.1,6.3c0.1,2,4.5,6.6,5.4,8.5c1.3,2.6-0.4,1.7,1.7,3.6c1.2,1.1,2,2,3.3,2.9
				c1.7,1.1,3.4,2,5.2,3c2.1,1.2,1.4,3.4,3.6,4.5c3.4,1.9,10.9,2,14.4,3.6c4.1,1.9,5.3,1.7,9.8,1.9c4,0.1,6.8,0.6,8.9-3.5
				c1.5-2.8,2.6-5.4,3.5-8.5c0.9-2.9,3.5-6.1,4.4-9c0.8-2.7,2.4-4.8,2.9-6.9c0.5-2.3,0.2-3.6,1.1-5.8c0.4-1.1,0.7-2.3,1.5-3.2
				c0.9-1,2.1-2,3.3-2.7c0.9-0.5,1.7-0.4,2.6-0.7c1.6-0.5,2.5-1.5,4.2-1.8c1.2-0.2,2.5-0.2,3.7-0.1c1,0.1,1.4,0.5,2.3,0.9
				c0.8,0.4,1.8,0.6,2.6,1c1.8,0.7,2.3,1.3,3.1,3.1c3.1,7,6.9,13.6,10,20.5c2.6,5.7,6.3,10.9,9,16.5c2.4,5,4.2,10.5,4.9,16
				c0.5,4.2,0.2,8.6,1.7,12.5c0.4,1.1,0.3,2.3,0.3,3.5c0,1.3,0.4,2.2,0.5,3.5c0.1,0.6,0,1.3,0,2c0,1.7-1.2,1.7-2.8,1.9
				c-4.7,0.7-9.8,0.1-14.6,0.1c-2.4,0-4.7-0.5-7.1-0.5c-2.8-0.1-5.7,0-8.5,0c-4.5,0-9.2,0.7-13.7,1.1c-2.9,0.2-5.8,0.8-8.7,0.9
				c-2.7,0.1-5.4,0.4-8,0.6c-3.8,0.3-7.6,0.9-11.4,1.3c-3.3,0.3-6.5,0.2-9.6,1.1c-1.8,0.5-3.5,0.8-5.3,1.1c-1.5,0.3-2.8,0.3-4.4,0.4
				c-4.2,0.3-8.2,1.5-12.4,1.4c-1.8,0-2.2,0.6-2,2.4c0.1,1.4,0.1,2.8,0.1,4.2c0,2.2,0.2,3.9-1.3,5.7c-2.8,3.3-5.2-3.8-6.2-5.2
				c-1.4-2-4.5-2.6-6.8-2.6c-3.2,0-6.4,0-9.7,0"/>
			<path id="XMLID_112_" d="M559.5,54.2c0-4,0-8.1,0-12.1c0-3.7-0.1-7.4,0-11.1c0.1-2,0.5-4,0.4-6c0-0.4-0.2-2.1-0.5-2.4
				c-0.7-0.5-2.8,0.3-3.5,0.7c-0.8,0.6-1.4,1.9-2,2.8c-1.1,1.7-1.6,3.7-2.2,5.6c-0.9,2.8-3.3,3.2-5.8,3.7c-1.3,0.3-2.7,0.4-4,1
				c-1,0.5-2,1.2-3,1.7c-0.7,0.3-2.2,0.8-2.4,1.6c-0.4,1,1.2,2.4,1.7,3.2c1.2,2.2,2.8,4,3.9,6.4c1,2.2,1.4,4.4,1.4,6.8
				c0,2.2,0.1,4.2-0.4,6.3c-0.2,0.8,0.1,1.7-0.1,2.5c-0.1,1-0.8,1.8-1.3,2.6c-0.4,0.7-0.8,1.3-1.1,1.8c0.2,0,0.5,0,0.7,0
				c1.1,0,2.3-0.2,3.2,0.5c0.6,0.5,1,1.1,1.3,1.8c0.1,0.3,0.6,1,0.6,1.3c0.1,0.9-1.4,1.6-2.1,1.9c-1.4,0.6-3,0.7-4.4,1.2
				c-1.2,0.4-2.2,0.8-3.5,0.5c-1.3-0.4-2.3-0.4-3.6-0.4c-1.9,0-3.8,0.2-5.6-0.5c-0.4-0.2-0.8-0.3-1.1-0.5c-0.3-0.2-0.4-0.4-0.7-0.6
				c-0.6-0.3-1.2-0.5-1.8-0.9c-0.8-0.6-1.5-1.7-2-2.5l-0.5,0.2c0.7-0.3,1.1-0.9,1.7-1.2c0.4-0.2,0.9-0.4,1.3-0.6
				c1.1-0.6,1.8-1,3.1-0.9c1.2,0,2.2,0.2,3.4,0.4c1.2,0.3,1.8,0.3,3,0c1-0.3,1.9-0.2,2.9-0.1c0.3,0,0.5,0.1,0.8,0.1
				c-0.5-0.3-0.9-0.7-1.3-1.2c-1-1.4-1.7-3-2.8-4.3c-1.4-1.6-2-3.4-3-5.3c-0.5-0.9-0.9-1.7-1.3-2.6c-0.4-0.9-1.1-1.4-1.5-2.2
				c-0.5-1-0.5-1.8-1.3-2.6c-0.6-0.6-1-1-1.4-1.9c-0.7-1.6-1.1-3.2-1.7-4.8c-0.7-1.7-1.9-3.2-3.2-4.5c-0.6-0.6-1.4-1.4-2.1-1.8
				c-0.6-0.4-1.3-0.3-2-0.5c-2-0.7-3.6-2.1-5.5-3c-1.8-0.9-3.3-1.8-4.7-3.3c-1.3-1.3-3.1-1.9-4.8-2.5c-2.7-1-2.7,1.7-3.4,3.6
				c-0.5,1.5-0.6,2.9-0.9,4.4c-0.2,1.2-0.8,2.3-1,3.5c-0.2,1.1-0.9,1.9-1,3c-0.1,0.5,0,1.2,0,1.7c0,3.5,0.2,6.7,1.5,10
				c1.7,4.4,2.7,9,4.4,13.4c1.1,2.8,2.3,5.3,3.9,7.9c0.5,0.8,0.8,1.7,1.1,2.6c0.4,1.3,1.1,2.2,1.6,3.5c0.7,1.6,1.1,3.2,2.5,4.4
				c1,1,2.3,2.4,3.5,3c1.5,0.8,3.8,1.2,5.4,1.4c4.1,0.5,8.1,0.9,11.9,2.6c3.2,1.4,7.5,0.3,10.9-0.4c2.8-0.6,3.7-1,5-3.5
				c1-1.9,1.4-4,2.2-6c0.9-2.2,1.9-4.4,2.9-6.6c1.2-2.9,2.6-5.7,3.9-8.5c0.9-1.9,2.1-3.6,2.8-5.5c0.9-2.4,1-4.4,1-7l1.5,5
				C560,58.6,559.5,56.5,559.5,54.2z"/>
		</g>
		<g id="ordis">
			<path id="XMLID_110_" class="st3" d="M526,30c-0.6-0.5-1.4-0.6-2.1-1c-0.9-0.5-1.6-1.3-2.4-1.9c-1.4-1.1-2.8-1.9-4.1-3.2
				c-1.6-1.7-3.5-2.4-5.5-3.5c-2-1.1-3.7-2.4-5.8-3.3c-1.2-0.5-2.5-0.9-3.7-1.6c-1.8-1-2.9-2.7-3.9-4.5c-0.9-1.5-1.1-2.6,1-3
				c1.9-0.4,3.8,0.3,5.6-0.5c1-0.4,2-0.8,3-1.3c1.3-0.6,2.7-1.8,4.1-2.1c1.7-0.3,3.7,1.5,4.9,2.7c1.3,1.3,2.3,3.1,3.5,4.5
				c2.1,2.5,4.3,5.9,4.5,9.2c0.1,2.6-0.5,5.9,1,8.3"/>
			<path id="XMLID_109_" class="st3" d="M535,28c1.2-3,0-6.3,0-9.5c0-2.7,1-5.5,2-7.9c1.2-2.7,3.1-4.6,5.6-6.1
				c1.8-1.1,2.5-1.2,4,0.1c1.7,1.6,3.2,2.9,4.4,4.9c1.2,1.9,3.1,3.7,3.5,6.1c0.3,1.5,0.1,3.2-1.1,4.1c-0.5,0.3-1,0.4-1.4,0.8
				c-0.4,0.4-0.7,0.9-1.2,1.2c-0.9,0.5-2.2,0.9-3.2,1.3c-1.5,0.6-2.8,1.4-4.3,2c-1,0.4-2.1,0.8-3.1,1.3c-1.6,0.8-2.9,0.7-4.7,0.7"/>
			<path id="XMLID_108_" class="st3" d="M516,36.8c-0.9-1.9-2.6-3.1-3.9-4.7c-0.7-0.9-1.2-1.8-1-2.9c0.2-1,0.5-2.3,0.3-3.3
				c0-0.4-0.3-0.6,0-0.8c0.5-0.4,1.2,0.1,1.7,0.3c1.7,0.7,2.9,2,4.1,3.4c1.1,1.2,1.5,2.6,1.7,4.2c0.1,1.1,0.2,2.3-0.5,3.2
				c-0.3,0.4-0.7,0.6-1.1,0.7c-0.4,0.1-0.8,0.2-1.2,0.2"/>
			<path id="XMLID_107_" class="st3" d="M541.3,35.7c0-0.5-0.3-0.9-0.5-1.4c-0.2-0.6-0.1-1.1,0-1.6c0.1-0.6,0.4-1.2,0.6-1.8
				c0.2-0.5,0.4-1.2,0.7-1.6c0.3-0.5,0.6-0.9,0.8-1.4c0.3-0.6,0.6-1.1,1.1-1.5c0.4-0.3,0.7-0.7,1.2-0.8c0.3-0.1,1.1-0.4,1.3-0.2
				c0.4,0.4,0.2,1.3,0.2,1.7c0,0.9,0,1.7-0.2,2.6c-0.3,1.5-0.5,3.1-1.2,4.4c-0.4,0.9-0.8,1.5-1.8,1.8c-0.5,0.2-1,0.3-1.6,0.3"/>
			<path id="XMLID_106_" class="st3" d="M490.5,21.2c-0.9-0.5-1.9-1-2.9-1.4c-1.7-0.6-3.6-0.9-5.4-1.1c-1.9-0.2-3.8-0.2-5.7-0.2
				c-1.5,0-2.2-0.1-3.1,1.3c-0.9,1.5-1.6,3-2.2,4.7c-0.4,1-0.8,1.9-0.9,3c-0.1,0.9-0.1,1.7-0.2,2.6c-0.2,1.8,0.4,3.6,1.1,5.2
				c0.3,0.7,0.8,1.3,1.2,2c0.3,0.4,0.4,1.2,0.9,1.4c0.3-0.4,0-1.3-0.1-1.7c-0.1-0.7-0.2-1.4-0.2-2.1c0-1.5,0.5-2.7,1-4.1
				c0.4-1,0.7-1.8,1.7-2.3c1.2-0.6,2.5-0.6,3.8-0.8c1.2-0.2,2.4-0.1,3.7-0.4c1.6-0.3,3.2-0.7,4.7-1.1c0.8-0.2,1.3-0.6,1.8-1.2
				c0.3-0.4,0.5-0.7,0.5-1.2c0-0.3-0.3-0.5-0.2-0.8"/>
			<path id="XMLID_105_" class="st3" d="M563,21.5c-0.8,0-0.5-0.7-0.2-1c0.5-0.5,1.2-0.8,1.8-1.1c1.4-0.9,2.6-1.9,4.1-2.6
				c2.6-1.3,5.2-2.5,8-3.2c0.9-0.2,1.7-0.4,2.6-0.3c1.7,0.2,2.9,2.3,3.6,3.6c0.5,0.9,1.1,1.8,1.4,2.8c0.3,0.8,0.6,1.7,0.9,2.5
				c0.4,0.9,1.3,2.1,1.1,3.2c-0.2,0.8-1.3,1.3-2,1.5c-1.1,0.2-2.3-0.1-3.3-0.7c-1-0.6-1.4-1.9-2.1-2.8c-0.7-1-1.4-1.4-2.6-1.6
				c-1.5-0.2-3-0.1-4.5-0.1c-1.1,0-2.4-0.1-3.5,0c-1.1,0.2-1.9,0.5-3,0.2c-0.6-0.2-1.2-0.3-1.7-0.4c-0.4-0.1-0.6-0.3-1-0.3"/>
			<path id="XMLID_104_" class="st3" d="M476,146.5c-0.1-1.5-0.9-2.5-1.5-3.8c-1.1-2.5-1.9-4.9-2-7.7c-0.1-3.1-0.4-6.1-0.8-9.2
				c-0.4-3.1-1.2-6-1.5-9.1c-0.7-7.1-1.3-14.2-1.2-21.3c0-4.9,0.2-9.8-0.6-14.7c-0.3-1.5-1-2.8-1.3-4.3c-0.5-2.2,0.3-4.3,0.8-6.4
				c0.7-3.1,0.5-6.1,1.5-9.1c0.9-2.7,2.1-3.2,4.7-3.8c2-0.5,4.4-0.1,6.4-0.1c2,0,4.1,0,6.1,0c0.7,0,1.6-0.1,2.2,0
				c1.8,0.5,2.2,1.6,2.6,3.2c0.5,2.1,1,4.1,1.1,6.3c0.1,2,4.5,6.6,5.4,8.5c1.3,2.6-0.4,1.7,1.7,3.6c1.2,1.1,2,2,3.3,2.9
				c1.7,1.1,3.4,2,5.2,3c2.1,1.2,1.4,3.4,3.6,4.5c3.4,1.9,10.9,2,14.4,3.6c4.1,1.9,5.3,1.7,9.8,1.9c4,0.1,6.8,0.6,8.9-3.5
				c1.5-2.8,2.6-5.4,3.5-8.5c0.9-2.9,3.5-6.1,4.4-9c0.8-2.7,2.4-4.8,2.9-6.9c0.5-2.3,0.2-3.6,1.1-5.8c0.4-1.1,0.7-2.3,1.5-3.2
				c0.9-1,2.1-2,3.3-2.7c0.9-0.5,1.7-0.4,2.6-0.7c1.6-0.5,2.5-1.5,4.2-1.8c1.2-0.2,2.5-0.2,3.7-0.1c1,0.1,1.4,0.5,2.3,0.9
				c0.8,0.4,1.8,0.6,2.6,1c1.8,0.7,2.3,1.3,3.1,3.1c3.1,7,6.9,13.6,10,20.5c2.6,5.7,6.3,10.9,9,16.5c2.4,5,4.2,10.5,4.9,16
				c0.5,4.2,0.2,8.6,1.7,12.5c0.4,1.1,0.3,2.3,0.3,3.5c0,1.3,0.4,2.2,0.5,3.5c0.1,0.6,0,1.3,0,2c0,1.7-1.2,1.7-2.8,1.9
				c-4.7,0.7-9.8,0.1-14.6,0.1c-2.4,0-4.7-0.5-7.1-0.5c-2.8-0.1-5.7,0-8.5,0c-4.5,0-9.2,0.7-13.7,1.1c-2.9,0.2-5.8,0.8-8.7,0.9
				c-2.7,0.1-5.4,0.4-8,0.6c-3.8,0.3-7.6,0.9-11.4,1.3c-3.3,0.3-6.5,0.2-9.6,1.1c-1.8,0.5-3.5,0.8-5.3,1.1c-1.5,0.3-2.8,0.3-4.4,0.4
				c-4.2,0.3-8.2,1.5-12.4,1.4c-1.8,0-2.2,0.6-2,2.4c0.1,1.4,0.1,2.8,0.1,4.2c0,2.2,0.2,3.9-1.3,5.7c-2.8,3.3-5.2-3.8-6.2-5.2
				c-1.4-2-4.5-2.6-6.8-2.6c-3.2,0-6.4,0-9.7,0"/>
			<path id="XMLID_103_" class="st3" d="M559.5,54.2c0-4,0-8.1,0-12.1c0-3.7-0.1-7.4,0-11.1c0.1-2,0.5-4,0.4-6
				c0-0.4-0.2-2.1-0.5-2.4c-0.7-0.5-2.8,0.3-3.5,0.7c-0.8,0.6-1.4,1.9-2,2.8c-1.1,1.7-1.6,3.7-2.2,5.6c-0.9,2.8-3.3,3.2-5.8,3.7
				c-1.3,0.3-2.7,0.4-4,1c-1,0.5-2,1.2-3,1.7c-0.7,0.3-2.2,0.8-2.4,1.6c-0.4,1,1.2,2.4,1.7,3.2c1.2,2.2,2.8,4,3.9,6.4
				c1,2.2,1.4,4.4,1.4,6.8c0,2.2,0.1,4.2-0.4,6.3c-0.2,0.8,0.1,1.7-0.1,2.5c-0.1,1-0.8,1.8-1.3,2.6c-0.4,0.7-0.8,1.3-1.1,1.8
				c0.2,0,0.5,0,0.7,0c1.1,0,2.3-0.2,3.2,0.5c0.6,0.5,1,1.1,1.3,1.8c0.1,0.3,0.6,1,0.6,1.3c0.1,0.9-1.4,1.6-2.1,1.9
				c-1.4,0.6-3,0.7-4.4,1.2c-1.2,0.4-2.2,0.8-3.5,0.5c-1.3-0.4-2.3-0.4-3.6-0.4c-1.9,0-3.8,0.2-5.6-0.5c-0.4-0.2-0.8-0.3-1.1-0.5
				c-0.3-0.2-0.4-0.4-0.7-0.6c-0.6-0.3-1.2-0.5-1.8-0.9c-0.8-0.6-1.5-1.7-2-2.5l-0.5,0.2c0.7-0.3,1.1-0.9,1.7-1.2
				c0.4-0.2,0.9-0.4,1.3-0.6c1.1-0.6,1.8-1,3.1-0.9c1.2,0,2.2,0.2,3.4,0.4c1.2,0.3,1.8,0.3,3,0c1-0.3,1.9-0.2,2.9-0.1
				c0.3,0,0.5,0.1,0.8,0.1c-0.5-0.3-0.9-0.7-1.3-1.2c-1-1.4-1.7-3-2.8-4.3c-1.4-1.6-2-3.4-3-5.3c-0.5-0.9-0.9-1.7-1.3-2.6
				c-0.4-0.9-1.1-1.4-1.5-2.2c-0.5-1-0.5-1.8-1.3-2.6c-0.6-0.6-1-1-1.4-1.9c-0.7-1.6-1.1-3.2-1.7-4.8c-0.7-1.7-1.9-3.2-3.2-4.5
				c-0.6-0.6-1.4-1.4-2.1-1.8c-0.6-0.4-1.3-0.3-2-0.5c-2-0.7-3.6-2.1-5.5-3c-1.8-0.9-3.3-1.8-4.7-3.3c-1.3-1.3-3.1-1.9-4.8-2.5
				c-2.7-1-2.7,1.7-3.4,3.6c-0.5,1.5-0.6,2.9-0.9,4.4c-0.2,1.2-0.8,2.3-1,3.5c-0.2,1.1-0.9,1.9-1,3c-0.1,0.5,0,1.2,0,1.7
				c0,3.5,0.2,6.7,1.5,10c1.7,4.4,2.7,9,4.4,13.4c1.1,2.8,2.3,5.3,3.9,7.9c0.5,0.8,0.8,1.7,1.1,2.6c0.4,1.3,1.1,2.2,1.6,3.5
				c0.7,1.6,1.1,3.2,2.5,4.4c1,1,2.3,2.4,3.5,3c1.5,0.8,3.8,1.2,5.4,1.4c4.1,0.5,8.1,0.9,11.9,2.6c3.2,1.4,7.5,0.3,10.9-0.4
				c2.8-0.6,3.7-1,5-3.5c1-1.9,1.4-4,2.2-6c0.9-2.2,1.9-4.4,2.9-6.6c1.2-2.9,2.6-5.7,3.9-8.5c0.9-1.9,2.1-3.6,2.8-5.5
				c0.9-2.4,1-4.4,1-7l1.5,5C560,58.6,559.5,56.5,559.5,54.2z"/>
		</g>
	</g>
	<polygon id="XMLID_8_" class="st2" points="745,430 632,383 635.9,321 636.1,301.1 643.5,296.5 674.5,311.5 730.5,332.5 745,341.5 
		746.4,363.2 747.5,412.5 	"/>
	<polygon id="XMLID_38_" class="st2" points="868,346 782,396.5 774.5,383 766.9,312.5 768.4,297.4 774,294 820,281 847,267.5 
		857.6,263.9 861.5,280 863.2,313.2 	"/>
	<polygon id="XMLID_27_" class="st2" points="471.3,313.7 574.2,344.3 578,275.6 556.1,264.3 465.7,238.1 449.2,236.8 446.5,251.7 
		443.3,305.3 	"/>
</g>
<g id="pelo">
	<path id="XMLID_12_" class="st1" d="M346.1,353.6c6.4,4.8,14.2,8.3,21.5,11.2c3.9,1.6,10.1,3.9,14.5,2.1c4.3-1.8,5.1-8.6,7.7-11.9
		c3.9-4.9,9.3-8.2,14.6-11.2c7-4,15.7-14.9,24.2-9.9c5.6,3.3,4.9,6.4,0.4,10.3c-4.3,3.7-10.8,6.3-13.3,11.6c3.9-3.5,8-5.3,12.9-6.8
		c3.4-1,9-6,12.6-4.4c3.5,1.5,3.8,6.3,2.8,9.3c-1.4,4.1-4.5,6.6-8.9,7c3.7-2.5,8.6-4.8,12.9-6c5.4-1.6,6.1,3.7,6,8
		c0,9.5-11.1,10.9-18.4,13.4c-4,1.4-9.5,4.8-13,7.3c-3.8,2.7-7.7,5.1-11.9,7.2c-3.3,1.6-6.5,3.2-9.7,4.9c-3.5,1.8-6.3,1.4-10.1,1.4"
		/>
	<path id="XMLID_17_" class="st1" d="M340.1,584.6c3.7,3.4,5.3,10.8,7.8,15.2c4.6,8.1,7.3,16.4,10.5,25.1
		c5.4,14.6,11,27.8,12.3,43.6c0.7,8.3,1.4,25.7-5.1,32.5c-5.6-1.1-10.1-11.7-12.4-16c-3.6-6.9-8.2-12.3-13.1-18.2
		c-5.8-7-10.3-15.3-13.2-23.9c-2.6-7.5-3.8-16.1-4.5-24c-0.5-6.3-0.3-12.9-2.7-18.8c-1.3-3.2-3.4-5.6-4.9-8.7
		c-0.9-1.9-0.8-3.9-2.6-5.5c-3.1-2.9-9.7-1.5-13.7-1.5c-7.7,0-15.9-0.9-23.6,0.2c-8.5,1.2-10.1,4.2-12.8,11.6
		c-3.5,9.5-9.4,17.8-13.4,27.1c-5,11.6-11.1,22.6-16.7,33.9c-2.9,5.8-5.9,11.4-8.7,17.2c-1.6,3.3-3.2,7.3-6.6,9.3
		c-2.9,1.6-10.3,0.8-11.6-3.2c-0.8-2.6,2.6-9.6,3.3-12.3c2.2-9.2,6.1-17.9,9.3-26.7c4.4-12,11.9-22.7,18-33.9
		c4.8-8.7,8-19.9,14.4-27.7l66.2-22.4l49.7,10.7l14.6-3.3c-0.8,5.8,4.4,12.1,6.7,17.1c2.2,4.7,9.2,12.9,7,18.7
		c-2.4,6.3-11.8-0.8-15.6-3.1c-6.6-4-10.9-9.6-14.6-16.2L340.1,584.6z"/>
	<path id="XMLID_10_" class="st1" d="M361.1,434.6c3.5,3,7.5,5.5,11.2,8.2c2.1,1.5,3.6,3.4,5.5,4.9c3.1,2.6,7.1,3.8,10.3,6.3
		c10.6,8.4,22.7,16.2,34.6,22.6c4.7,2.5,8.2,5.3,13.6,6.4c10.4,2.2,22.4-0.4,32.8-2c10.1-1.6,23-3.4,29.3-12.8
		c4-6,2.3-15.4,2.3-22.4c0-12.9,0.6-26,4.1-38.5c1.4-5.1,5.1-7.2,8.6-11c2.6-2.7,2.3-4.1,2.3-7.6c0-2.9,0.2-5.7-0.3-8.5
		c-0.7-3.7-1.5-11.8-4.5-14.1c-5.7-0.1-7.9,9.2-11.2,12.5c1.6-4.2,4.7-17.9-1.9-20c-5-1.5-13.7,14.3-10.5,16.5
		c9.2,1,1-19.8-3.1-21.6c-3.3-1.5-10.5,3-13.2,4.7c-4.1,2.5-7.4,5.6-7.8,10.2c-0.2,2.2,0.1,3.2-0.9,5.2c-1,2.1-1.9,2.6-1.9,5
		c0,5,4.7,10.4,5.6,15.3c2.3,12.5,1.2,35-13.4,40c-5.7,2-14.6-1.2-20.2-3c-6.5-2.2-12.5-6.2-18.8-9.1c-6.2-2.9-9.1-4.8-12.5-11
		c-3.6-6.5-7.8-11.4-12.8-16.9c-9.9-11-20.3-20.9-31.4-30.7c-9.2-8.1-19.6-16.5-25.6-27.4c-4.9-8.9-8-18-10.8-27.7
		c0.9,4.9,3.9,5,8,5c3.3,0,9.8,1,11.6-2.9c1.3-2.7,0.3-8.4,0.2-11.4c-0.2-3.7-3.8-10.5-0.2-13.4c2.4,0.8,4.4,4.8,6.1,6.8
		c2.3,2.7,4.2,5.7,7.5,7.3c3.9,1.8,11.1,0.2,14.1-2.9c10.5-10.7-34.1-20.2-36.6-25.5c-0.9-1.9-0.1-6.5,0-8.6
		c0.1-7.1,0.4-14.3-0.3-21.3c-1-10.3-2.3-22.4-7.2-31.6c-3.6-6.7-10.8-9.5-17.8-11.8c-9-3-17.8-6-27.2-6
		c-14.1,0-30.2,13.4-32.8,27.3c-2.5,13.3,3.8,27,5.5,40.1c2,15.8,2.2,31.6-2.5,46.9c-2.7,8.7-7.5,16.4-10.7,24.9
		c-3,7.9-5,16.2-7.2,24.4c-3.5,13.5-3.4,27.7-4.8,41.6c-1.5,15.4-2.3,30.6-0.7,46.1c1.5,14.2,4.7,28.8,14.3,40
		c10.8,12.7,27.8,18.7,42.8,24.4c21.6,8.1,43.4,15.7,66.6,15.7l-7.5,3c6.7-0.5,14-3.6,19.5-7.3c4-2.6,7.5-6.1,11.2-9.1
		c2.1-1.7,5.2-5.8,7.9-6.4c5.4-1.2,11.6,21.4,10.8,19.1c6.2,17.8,10.4,36.3,15.1,54.6c7.4,28.5,15.9,56.2,25.3,84.1
		c2.2,6.5,2.1,11.5,1.6,18.1c-0.3,3.5-0.9,9-0.1,12.4c1.1,5.3,5.7,4.6,9.5,2.7c6.4-3.2,8.9-7.3,12.6-13c4.5-6.9,9.6-13.3,14-20.2
		c8.1-12.6,13.2-25.8,18-39.9c3.6-10.5,8-20.4,12.2-30.6c1.6-3.9,2.8-8,4.5-11.8c0.9-2.1,2.6-3.9,3-6.2c0.9-5.6-5.2-4.5-9.1-4.4
		c-5.8,0.1-12.2-0.8-17.9,0.7c-6,1.5-6.2,6.6-8.4,11.9c-1.7,4.2-3.8,8.2-5.2,12.5c-1.1,3.5-1.3,8.1-3.4,11.1
		c-1.1-9.7,2.3-19.5,3.3-29.2c0.9-8.4,1.3-16.7,0.8-25.1c-0.7-10.1-3.3-19.7-4.7-29.7c-0.9-6.3-1.4-12.7-2.5-19
		c-0.9-5.1-2.9-10.7-6.1-15c-2.9-3.8-7.6-7.7-8.1-12.8"/>
	<path id="XMLID_15_" class="st1" d="M191.5,528c0.2-7.3,0.3-12.8,0.4-16c0.4-22.7-9.6-44.3-12.7-66.8c-1.4-9.9-4-20.9-0.8-30.7
		c3.5-10.6,11.1-14.8,21.2-18.7c14.6-5.7,29.7-8.6,45-11.9c4-0.9,16.7-5.5,20.9-3c3.1,1.8,5.8,8.7,7.2,11.2c2.7,5,5.2,10.1,7.6,15.3
		c6.6,14.4,14,28,19.6,42.9c4.7,12.5,8.5,25.1,12.5,37.9c3,9.7,6.9,18.9,10.4,28.3c1.9,5,2.4,8.5,8.5,9.2c4.1,0.5,8.4-0.4,12.3-1.6
		c3.3-1,6.8-1.4,9.8-2.9c2.7-1.4,5.3-3.3,8.3-4.2c1.8-0.5,3.5-0.4,5.3-1.2c2-0.9,3.8-2.5,5.6-3.7c3.1-2,6.4-3.7,10.1-4.5l10.7,5.4
		l14,14.7l-3.7,20.4c0.2,3.6-2.2,6.2-3.7,9.1c-1.5,2.8-2.3,6.2-4,8.9c-1.5,2.3-3.8,4.3-6,5.9c-4.2,3.2-8.1,6.7-12.4,9.7
		c-2.5,1.8-4.6,3.5-7.7,3.9c-4.5,0.6-9.5-0.1-14.1-0.1c-6.1,0-12.1,0-18.2,0c-5.2,0.1-10-1.3-15.2-1.6c-31.2-1.6-61.8,4.1-92.8-1.4
		c-12.8-2.3-25.2-6.5-32.2-17.9c-3.1-5-3.5-9.3-5.1-15c-1.7-6.1-0.7-6.8-1.2-13.1L191.5,528z"/>
</g>
<g id="lumlampe">
	<polygon id="XMLID_4_" class="st2" points="382,228 382,322 401.7,333.4 411.3,338.9 412.5,338 413.9,336.9 416.6,339.6 419.4,342 
		422.3,343.9 426.5,346.2 423.5,348.5 424.5,350.1 429,349 430.8,350.4 434,352.7 439.7,357.1 453.8,365.6 452.7,368.2 459.8,371.8 
		462.9,372.1 463.1,368.5 468.1,370.8 473.7,374.8 477.2,376.9 485.4,381.8 497,384.3 505.2,383.2 515.5,381.5 515.6,383.2 
		580.1,374.6 574.2,344.3 443.3,305.3 445.1,259.1 401.6,215.6 	"/>
</g>
<g id="masque">
		<path id="XMLID_34_" class="st2" d="M558.8,57.1l-0.3-1.1c0,0.5,0,1,0,1.4C558.6,57.3,558.7,57.2,558.8,57.1z"/>
		<polygon id="XMLID_36_" class="st2" points="455.2,308.9 443.3,305.3 574.2,344.3 		"/>
		<path id="XMLID_37_" class="st2" d="M548.3,82.7c-0.1,0.3-0.3,0.6-0.4,0.9c-0.4,1-0.7,2-1,3C547.5,85.3,547.9,84,548.3,82.7z"/>
		<path id="XMLID_41_" class="st2" d="M0,0v800h1280V0H0z M562.8,20.5c0.5-0.5,1.2-0.8,1.8-1.1c1.4-0.9,2.6-1.9,4.1-2.6
			c2.6-1.3,5.2-2.5,8-3.2c0.9-0.2,1.7-0.4,2.6-0.3c1.7,0.2,2.9,2.3,3.6,3.6c0.5,0.9,1.1,1.8,1.4,2.8c0.3,0.8,0.6,1.7,0.9,2.5
			c0.4,0.9,1.3,2.1,1.1,3.2c-0.2,0.8-1.3,1.3-2,1.5c-1.1,0.2-2.3-0.1-3.3-0.7c-1-0.6-1.4-1.9-2.1-2.8c-0.7-1-1.4-1.4-2.6-1.6
			c-1.5-0.2-3-0.1-4.5-0.1c-1.1,0-2.4-0.1-3.5,0c-1.1,0.2-1.9,0.5-3,0.2c-0.6-0.2-1.2-0.3-1.7-0.4c-0.4-0.1-0.6-0.3-1-0.3l0.2,0.5
			C562.2,21.5,562.5,20.8,562.8,20.5z M537,10.6c1.2-2.7,3.1-4.6,5.6-6.1c1.8-1.1,2.5-1.2,4,0.1c1.7,1.6,3.2,2.9,4.4,4.9
			c1.2,1.9,3.1,3.7,3.5,6.1c0.3,1.5,0.1,3.2-1.1,4.1c-0.5,0.3-1,0.4-1.4,0.8c-0.4,0.4-0.7,0.9-1.2,1.2c-0.9,0.5-2.2,0.9-3.2,1.3
			c-1.5,0.6-2.8,1.4-4.3,2c-1,0.4-2.1,0.8-3.1,1.3c-1.6,0.8-2.9,0.7-4.7,0.7l-0.5,1c1.2-3,0-6.3,0-9.5C535,15.9,535.9,13,537,10.6z
			 M499.5,8.1c1.9-0.4,3.8,0.3,5.6-0.5c1-0.4,2-0.8,3-1.3c1.3-0.6,2.7-1.8,4.1-2.1c1.7-0.3,3.7,1.5,4.9,2.7c1.3,1.3,2.3,3.1,3.5,4.5
			c2.1,2.5,4.3,5.9,4.5,9.2c0.1,2.6-0.5,5.9,1,8.3v1c-0.6-0.5-1.4-0.6-2.1-1c-0.9-0.5-1.6-1.3-2.4-1.9c-1.4-1.1-2.8-1.9-4.1-3.2
			c-1.6-1.7-3.5-2.4-5.5-3.5c-2-1.1-3.7-2.4-5.8-3.3c-1.2-0.5-2.5-0.9-3.7-1.6c-1.8-1-2.9-2.7-3.9-4.5
			C497.6,9.6,497.4,8.5,499.5,8.1z M511.5,25.8c0-0.4-0.3-0.6,0-0.8c0.5-0.4,1.2,0.1,1.7,0.3c1.7,0.7,2.9,2,4.1,3.4
			c1.1,1.2,1.5,2.6,1.7,4.2c0.1,1.1,0.2,2.3-0.5,3.2c-0.3,0.4-0.7,0.7-1.1,0.7c-0.4,0.1-0.8,0.2-1.2,0.2H516c-0.9-2-2.6-3.2-3.9-4.8
			c-0.7-0.9-1.2-1.9-1-3C511.4,28.2,511.6,26.9,511.5,25.8z M470.1,30.1c0.1-0.9,0.1-1.7,0.2-2.6c0.1-1,0.5-2,0.9-3
			c0.6-1.7,1.3-3.2,2.2-4.7c0.8-1.4,1.6-1.3,3.1-1.3c1.9,0,3.8,0,5.7,0.2c1.8,0.2,3.7,0.6,5.4,1.1c1,0.3,1.9,0.9,2.9,1.4L490,23
			c-0.1,0.3,0.2,0.5,0.2,0.8c0.1,0.5-0.2,0.8-0.5,1.2c-0.5,0.6-1,1.1-1.8,1.2c-1.6,0.4-3.1,0.8-4.7,1.1c-1.2,0.2-2.4,0.2-3.7,0.4
			c-1.3,0.2-2.6,0.3-3.8,0.8c-1,0.5-1.3,1.3-1.7,2.3c-0.6,1.3-1,2.6-1,4.1c0,0.7,0.1,1.4,0.2,2.1c0.1,0.4,0.4,1.3,0.1,1.7
			c-0.5-0.2-0.7-1-0.9-1.4c-0.4-0.7-0.8-1.2-1.2-2C470.4,33.7,469.8,31.9,470.1,30.1z M515.6,383.2l-0.2-1.7l-10.2,1.8l-8.2,1.1
			l-11.7-2.6L474,375l-5.9-4.2l-5-2.2l-0.2,3.6l-3.2-0.2l-7.1-3.7l1.2-2.5l-2.3-1.4l-6.9-4.2l-1.9-1.1l-1.8-1.1l-1.1-0.7L429,349
			l-4.5,1.1l-1-1.6l3-2.3l-4.1-2.3l-3.2-2l-2.1-1.8l-3.2-3.1l-2.7,2L382,322v-94l19.6-12.4l43.5,43.5l-1.8,46.2l3.2-53.7l2.7-14.9
			l16.5,1.4l90.4,26.2l21.9,11.3l-3.8,68.7l5.9,30.3L515.6,383.2z M606.5,132c0,1.7-1.2,1.7-2.8,1.9c-4.7,0.7-9.8,0.1-14.6,0.1
			c-2.4,0-4.7-0.5-7.1-0.5c-2.8-0.1-5.7,0-8.5,0c-4.5,0-9.2,0.7-13.7,1.1c-2.9,0.2-5.8,0.8-8.7,0.9c-2.7,0.1-5.4,0.4-8,0.6
			c-3.8,0.3-7.6,0.9-11.4,1.3c-3.3,0.3-6.5,0.2-9.6,1.1c-1.8,0.5-3.5,0.8-5.3,1.1c-1.5,0.3-2.8,0.3-4.4,0.4
			c-4.2,0.3-8.2,1.5-12.4,1.4c-1.8,0-2.2,0.6-2,2.4c0.1,1.4,0.1,2.8,0.1,4.2c0,2.2,0.2,3.9-1.3,5.7c-2.8,3.3-5.2-3.8-6.2-5.2
			c-1.4-2-4.5-2.6-6.8-2.6c-2.6,0-5.2,0-7.7,0c0,0.2,0.1,0.3,0.1,0.5l-2-0.5c0.6,0,1.3,0,1.9,0c-0.2-1.2-0.9-2.1-1.4-3.3
			c-1.1-2.5-1.9-4.9-2-7.7c-0.1-3.1-0.4-6.1-0.8-9.2c-0.4-3.1-1.2-6-1.5-9.1c-0.7-7.1-1.3-14.2-1.2-21.3c0-4.9,0.2-9.8-0.6-14.7
			c-0.3-1.5-1-2.8-1.3-4.3c-0.5-2.2,0.3-4.3,0.8-6.4c0.7-3.1,0.5-6.1,1.5-9.1c0.9-2.7,2.1-3.2,4.7-3.8c2-0.5,4.4-0.1,6.4-0.1
			c2,0,4.1,0,6.1,0c0.7,0,1.6-0.1,2.2,0c1.8,0.5,2.2,1.6,2.6,3.2c0.5,2.1,1,4.1,1.1,6.3c0.1,2,4.5,6.6,5.4,8.5
			c1.3,2.6-0.4,1.7,1.7,3.6c1.2,1.1,2,2,3.3,2.9c1.5,1,3,1.8,4.5,2.7c-0.3-0.7-0.6-1.4-0.9-2.1c-0.6-1.3-1.2-2.2-1.6-3.5
			c-0.3-0.9-0.6-1.8-1.1-2.6c-1.6-2.5-2.8-5.1-3.9-7.9c-1.7-4.4-2.7-9-4.4-13.4c-1.3-3.3-1.5-6.5-1.5-10c0-0.5-0.1-1.2,0-1.7
			c0.2-1.1,0.9-1.9,1-3c0.2-1.2,0.7-2.3,1-3.5c0.3-1.5,0.4-3,0.9-4.4c0.7-1.9,0.6-4.6,3.4-3.6c1.7,0.6,3.5,1.2,4.8,2.5
			c1.5,1.5,2.9,2.4,4.7,3.3c1.9,0.9,3.5,2.3,5.5,3c0.7,0.2,1.4,0.1,2,0.5c0.7,0.4,1.5,1.2,2.1,1.8c1.3,1.3,2.6,2.8,3.2,4.5
			c0.6,1.6,1.1,3.2,1.7,4.8c0.3,0.8,0.8,1.2,1.4,1.9c0.8,0.9,0.8,1.7,1.3,2.6c0.5,0.8,1.1,1.3,1.5,2.2c0.4,0.9,0.9,1.7,1.3,2.6
			c1,1.9,1.6,3.7,3,5.3c1.2,1.3,1.8,3,2.8,4.3c0.4,0.5,0.8,0.9,1.3,1.2c-0.3,0-0.5-0.1-0.8-0.1c-1-0.2-2-0.2-2.9,0.1
			c-1.2,0.3-1.8,0.3-3,0c-1.2-0.3-2.2-0.4-3.4-0.4c-1.3,0-2,0.4-3.1,0.9c-0.4,0.2-0.8,0.4-1.3,0.6c-0.6,0.3-1,0.9-1.7,1.2l0.5-0.2
			c0.5,0.8,1.2,1.9,2,2.5c0.6,0.5,1.1,0.6,1.8,0.9c0.3,0.2,0.4,0.4,0.7,0.6c0.3,0.2,0.7,0.3,1.1,0.5c1.8,0.7,3.7,0.5,5.6,0.5
			c1.3,0,2.3,0.1,3.6,0.4c1.3,0.4,2.3,0,3.5-0.5c1.4-0.5,3-0.6,4.4-1.2c0.7-0.3,2.2-1,2.1-1.9c0-0.3-0.5-1-0.6-1.3
			c-0.3-0.7-0.7-1.3-1.3-1.8c-0.9-0.8-2.1-0.5-3.2-0.5c-0.2,0-0.5,0-0.7,0c0.4-0.4,0.7-1.1,1.1-1.8c0.5-0.8,1.2-1.6,1.3-2.6
			c0.1-0.8-0.1-1.6,0.1-2.5c0.5-2.1,0.4-4.1,0.4-6.3c0-2.4-0.4-4.6-1.4-6.8c-1-2.3-2.7-4.1-3.9-6.4c-0.5-0.9-2.1-2.2-1.7-3.2
			c0.3-0.8,1.7-1.3,2.4-1.6c1.1-0.5,2-1.2,3-1.7c0.2-0.1,0.4-0.1,0.5-0.2c-0.2,0-0.3,0.1-0.5,0.1l-0.7-0.7c0-0.5-0.3-0.9-0.5-1.4
			c-0.2-0.6-0.1-1.1,0-1.6c0.1-0.6,0.4-1.2,0.6-1.8c0.2-0.5,0.4-1.2,0.7-1.6c0.3-0.5,0.6-0.9,0.8-1.4c0.3-0.6,0.6-1.1,1.1-1.5
			c0.4-0.3,0.7-0.7,1.2-0.8c0.3-0.1,1.1-0.4,1.3-0.2c0.4,0.4,0.2,1.3,0.2,1.7c0,0.9,0,1.7-0.2,2.6c-0.3,1.5-0.5,3.1-1.2,4.4
			c-0.4,0.8-0.8,1.3-1.5,1.7c0.7-0.1,1.3-0.3,2-0.4c2.5-0.6,4.9-0.9,5.8-3.7c0.6-1.9,1.1-3.9,2.2-5.6c0.5-0.9,1.2-2.2,2-2.8
			c0.6-0.5,2.8-1.3,3.5-0.7c0.3,0.2,0.5,2,0.5,2.4c0.1,2-0.3,4-0.4,6c-0.2,3.7,0,7.4,0,11.1c0,4,0,8.1,0,12.1c0,0.8,0.1,1.5,0.1,2.2
			c0.6-0.5,1.2-0.9,1.9-1.3c0.9-0.5,1.7-0.4,2.6-0.7c1.6-0.5,2.5-1.5,4.2-1.8c1.2-0.2,2.5-0.2,3.7-0.1c1,0.1,1.4,0.5,2.3,0.9
			c0.8,0.4,1.8,0.6,2.6,1c1.8,0.7,2.3,1.3,3.1,3.1c3.1,7,6.9,13.6,10,20.5c2.6,5.7,6.3,10.9,9,16.5c2.4,5,4.2,10.5,4.9,16
			c0.5,4.2,0.2,8.6,1.7,12.5c0.4,1.1,0.3,2.3,0.3,3.5c0,1.3,0.4,2.2,0.5,3.5C606.6,130.6,606.5,131.4,606.5,132z M745,430l-113-47
			l3.9-62l0.2-19.9l7.4-4.6l31,15l56,21l14.5,9l1.4,21.8l1.1,49.2L745,430z M782,396.5l-7.5-13.5l-7.6-70.5l1.5-15.1l5.6-3.4l46-13
			l27-13.5l10.6-3.6l3.9,16.1l1.7,33.2L868,346L782,396.5z"/>
		<path id="XMLID_56_" class="st2" d="M554.7,68.5c-1.3,2.8-2.6,5.7-3.9,8.5c-0.4,1-0.9,2.1-1.4,3.1c1.2-2.2,2.7-4.4,3.3-6.4
			c0.8-2.7,2.4-4.8,2.8-6.9C555.3,67.3,555,67.9,554.7,68.5z"/>
		<path id="XMLID_57_" class="st2" d="M540.8,93.1c-3.4,0.7-7.7,1.8-10.9,0.4c-3-1.3-6.2-1.8-9.4-2.2c2.1,0.4,4.1,0.8,5.5,1.4
			c4.1,1.9,5.3,1.7,9.8,1.9c4,0.1,6.8,0.6,8.9-3.5l0,0C543.9,92.3,542.8,92.6,540.8,93.1z"/>
		<path id="XMLID_58_" class="st2" d="M510.3,87.8c0.3,0.5,0.7,0.9,1.3,1.2c0.1,0.1,0.3,0.1,0.4,0.2
			C511.4,88.9,510.8,88.3,510.3,87.8z"/>
</g>
</svg>
