<?xml version="1.0" encoding="utf-8"?>
<!-- Generator: Adobe Illustrator 19.0.0, SVG Export Plug-In . SVG Version: 6.00 Build 0)  -->
<svg version="1.1" xmlns="http://www.w3.org/2000/svg" xmlns:xlink="http://www.w3.org/1999/xlink" x="0px" y="0px"
	 viewBox="0 0 903 564.4" style="enable-background:new 0 0 903 564.4;" xml:space="preserve">
<style type="text/css">
	.st0{fill:#353535;}
	.st1{fill:#6D6D6D;stroke:#000000;stroke-miterlimit:10;}
	.st2{opacity:0.68;}
	.st3{opacity:0.85;}
	.st4{fill:#FFFFFF;}
	.st5{fill:#00FF1E;}
	.st6{fill:none;stroke:#00FF1E;stroke-miterlimit:10;}
	.st7{fill:none;stroke:#FFFFFF;stroke-miterlimit:10;}
	.st8{fill:none;stroke:#000000;stroke-miterlimit:10;}
</style>
<g id="Calque_1">
	<g id="XMLID_51_">
		<path id="XMLID_618_" class="st0" d="M903,430v16v18l-3.9,5c0,0-30.9,14.3-44.4,21c-14.1,7-28.1,14.3-42.1,21.4
			c-12.7,6.5-24.1,15-36.4,22.2c-7.3,4.2-13,7.9-19.3,13.3c-2.6,2.2-5,4.1-7.8,5.9c-3.6,2.4-10.5,9.2-10.5,9.2l-0.3,2h-42.8h-38.6
			c0,0-19.5-9.1-35.2-15.8c-10.8-4.6-21.1-10.1-31.7-15c-8.2-3.8-15.9-7.5-23.8-12c-13.7-7.9-27.4-15.3-41.7-22.1
			c-32-15.1-64.5-29.4-96.1-45.5c-21.2-10.8-42.4-21.8-62.8-34c-22.8-13.6-46.8-25.1-69-39.7c-5.2-3.5-15.2-11.4-22.1-11.2
			c-3.9,0.1-4.3,3.6-4.8,7.2c-1.3,9.9,1.9,20,3.3,29.8c2.9,20.7,6.6,41.3,10.1,61.9c2,11.8,4.1,23.5,6.1,35.3c0.6,3.5,3,9.2,1,12.6
			c-4.1,0.8-9-3.2-12.3-5.2c-3.2-2-8-3.3-10.5-6.1c-2.3-2.5-2.8-6.6-3.7-9.8c-2.4-8.5-4-17.2-5.4-25.9c-4.8-32-3.1-64.7-8.2-96.7
			c-1.8-11.5-4.5-23-4.6-34.7c-0.1-6,0.1-12.1,0.1-18.1"/>
	</g>
	<path id="XMLID_606_" class="st1" d="M902.5,286v128l0.5,16c0,0-14.1,10.1-20.3,13.3c-7.2,3.6-14.4,6.4-21.2,10.8
		c-23.1,14.9-42.5,34.4-66.1,48.5c-10.9,6.5-23.4,9.7-35.5,13.1c-7,2-15.5,1.2-22.2,4c-1.4,0.6-1.9,1-3.2,1.9
		c-2.4,1.7-5.1,2.8-7.6,4.5c-3.3,2.3-6.1,6.4-8.9,9.2"/>
	<path id="XMLID_2_" class="st1" d="M724.1,536.6c-9.2-5.8-18.5-11.3-28.1-16.5c-8.1-4.4-16-8.6-24.6-12.1
		c-5.8-2.4-11.1-4.8-16.3-8.2c-9.9-6.4-21.2-12.6-32.2-16.7c-6.1-2.3-11.7-5.5-17.5-8.4c-10.3-5.1-20.9-9.4-31.4-14.1
		c-39.9-17.6-82.8-28.1-121.6-48.2c-29.4-15.2-57.6-32.7-86.2-49.2c-32.6-18.9-71.2-21.9-104.3-39.5c-3.5-1.8-13.1-4.7-13.5-9.1
		c-0.7-7.1,12.5-11.4,16.6-14.6c21.4-16.5,43.7-31.6,68-43.7c11-5.4,22.1-10.9,32.6-17.2c12.7-7.6,26.2-13.8,38.7-21.8
		c16.7-10.7,35.8-19.5,49.7-33.9c5.7-5.9,9.6-12.3,16.6-17c15.2-10.2,32-15.2,49.3-20.1c4.2-1.2,11.5-4.8,16.1-4.3
		c3.1,0.3,7.4,5,10.1,6.7c7.3,4.6,15.1,7.9,22.9,11.6c40.2,18.8,80.1,40.6,124.7,46.7c5.3,0.7,10.6,0.9,16,1
		c8.7,0.1,15.6,2.9,23.8,5.9c19.6,7.3,39.8,13.6,59.2,21.5c12.3,5,24.4,10.7,36.6,16c36.9,16.1,36.8,17.5,73.2,34.6"/>
	<path id="XMLID_6_" class="st1" d="M390.6,240.6c-10.9,1.6-17.9-15.7-7.5-20.2c3.4-1.5,14-2.1,17.2,0.1c5.4,3.6,4.6,10.8-0.6,13.7
		c0.5-2.9,2.6-5.3,2.9-8.5c0.4-5.3-2.3-7.4-6.4-9.5c-6-2.9-12-7.5-18.2-9.4c-2.5-0.8-4.7-1.7-7.1-2.6c-1.9-0.7-3.7-0.8-5.8-1.1
		c-0.5-0.1-4.9-1.5-5.8-1.4c-8.7,1.3-3.9,17-0.9,21.5c4.7,7.1,14,9.2,20.3,14.4c2.4,2,4.3,3.7,7.4,4.9c3.9,1.5,6.6-0.9,10.5-2.3
		c6.1-2.1,13.4-7.7,10.5-15.4c-0.7-1.9-2.5-2.2-3.7-3.7c-1.1-1.3-1.3-3.1-2.5-4.3c-2.3-2.3-7.5-4.6-10.5-5.9
		c-3.4-1.5-5.5-2.6-8.7-4.5c-2.2-1.4-5.1-2.7-7.5-3.7c-4.8-2.1-9.8-4-15-4.1c-5.7,0-12.4,2-16.5,6.2c-6.1,6.2-7.5,15.5-7.5,23.7
		c0,7,0,14,0,21c0,4,0.5,8.2,0.1,12.2c-0.4,5-4.4,4.4-8.5,4.4c-1.8,0-5.4-0.9-6.9,0.5c-3.7,3.4,1.7,6.7,4.3,7.2
		c8.8,1.6,18.5-1.6,27.4,0.2c4.9,1,9.3,3.2,10.3-3.2c0.8-5-2.1-9.3-6.9-10.4c-3.3-0.8-7.9,0.9-10.7-1.6c-3.2-2.8-0.7-7.5,0.2-11
		c0.9-3.6,1.2-6.4,1.1-10.2c-0.1-3.7,1.3-6.6,1.6-10.2c0.3-3.9,1-6.2,2.1-10c0.5-1.6,0.7-3,1.7-4.4c2-2.6,5.7-3,8.1-5.4"/>
	<path id="XMLID_7_" class="st1" d="M329.6,263.6c-2-3.9-3.5-8.1-5.6-12c-1.4-2.7-5.7-5.3-5.5-8.4c0.1-3.7,4.9-4.7,7.4-2.7
		c2,1.6,5,11.5,5.2,14.1"/>
	<path id="XMLID_3_" class="st1" d="M391.1,349.1c9,1.3,17.3-9.8,23.6-14.6c8.3-6.3,16.4-13,24.1-19.8c2.7-2.4,3.8-5.9,4.5-9.3
		c2.4-11.4,2.3-24,3-35.6c0.5-9.1-0.1-18.1,0.2-27.1c0.1-3.1-0.7-4.4,2.6-5.8c6.6-2.9,18.2,2.2,24.3,3.8c11.7,3,23.1,6.5,34.7,10
		c19.3,5.9,39.3,9.6,57.9,17.6c3.6,1.6,11,2.8,12,7.4c-0.5,3-0.8,6.1-0.9,9.1c-0.1,2.3-0.3,4.7-0.4,7c-0.7,8.7-1.5,17.4-2.3,26
		c-0.6,5.9-0.3,11.8-0.3,17.8c0,2.7,0.6,6.2,0.1,8.8c-1.5,7.1-9.4,14.8-15.4,18.7c-5.7,3.8-12.1,6.2-17.8,10
		c-4.6,3-8.7,6.8-13.4,9.8c-5,3.2-10.1,6.2-14.9,9.8c-3.7,2.8-5.9,6-9.1,9c-1.6,1.5-5,3.9-7.1,4.3c-5.6,1.2-15-5.2-19.8-7.3
		c-9.3-4-18.2-8.3-27.8-11.4c-6.4-2.1-12.9-5.2-18.7-8.6c-4.3-2.5-7.8-6.2-12.1-8.7c-3.2-1.8-6.8-3-10.2-4.4c-4.6-1.9-8-4.9-12-7.6
		c-3-2.1-6.1-2.8-9.3-4.4"/>
	<path id="XMLID_5_" class="st1" d="M568.1,443.6c6-3.6,11.2-9,16.4-13.5c8.3-7.1,16.6-14.3,24.8-21.6c6.5-5.9,14.7-12.5,18.8-20.6
		c2.9-5.7,3-13,3.8-19.3c1.4-10.9,2-21.8,2.6-32.7c0.5-9,2-18.1,2.4-27c0.2-4.3-1.2-8.2-1-12.4c4.9-3.7,14.7,4.2,18.8,6.3
		c12.9,6.6,25.7,11.6,39.3,16.4c9.7,3.4,19.1,7.4,28.9,10.5c3.4,1.1,6.9,2.1,10.3,3.3c2.1,0.7,5.5,2.2,7.4,3.5
		c5.5,3.8,5.4,16.5,5.7,21.8c0.2,8.8,0.4,17.7,0.6,26.5c0.6,6.5,1,13.1,1.2,19.6c0.1,5.5,0.1,11.2,0,16.7
		c-0.3,12.8-16.3,23.3-25.4,30c-8.7,6.4-18.4,10.8-27.6,16.5c-7.1,4.3-14.2,8.6-21.4,12.7c-3.1,1.8-6.3,4.6-9.6,5.9
		c-3.2,1-6.3,0.7-9.5-0.8c-8.8-3.3-17.7-6.6-26.6-9.8c-24.7-8.8-48.5-19-71.9-30.5"/>
	<path id="XMLID_13_" class="st1" d="M854.6,437.6c-20.5-11.4-40.9-23.3-61.4-34.5c-4.4-2.4-10.6-4.2-14.1-8.1
		c-1.3-1.5-1.8-3.5-2.4-5.4c-2.5-8.1-3.4-16.9-4.6-25.2c-2.3-15.9-4.1-32.1-4.5-48.2c-0.1-4.6-1.7-14.7,0.9-18.7
		c1.3-2.1,6-4.1,8.2-5.3c6.6-3.5,13.6-4.2,20.7-6.3c10.9-3.3,21.9-7,32.6-10.9c5.1-1.9,8.9-5.4,13.9-7.2c2.9-1.1,6.1-1.6,9-2.5
		c1.4-0.5,3.4-1.6,4.9-1.2c2.6,0.7,2.7,6.8,2.9,8.7c0.7,5.5,0,11.2,0.4,16.7c0.5,7.9,1.6,15.9,2.3,23.9c0.9,9.3,1.6,18.7,3.7,27.8
		c1.9,8.3,3.8,9.8,11.7,12.8c12.2,4.5,23.8,11.8,23.8,11.8v17l0.6,19.9c0,0-11.8,7.3-17.5,11.2c-4.5,3-8.9,5.6-13,9
		c-4.8,4-9.6,4.8-15,7.5"/>
	<path id="XMLID_44_" d="M1441,333"/>
	<polyline id="XMLID_43_" class="st0" points="902.5,203.9 903,-0.3 0,0 0,300 558.5,103.5 	"/>
	<line id="XMLID_53_" class="st0" x1="903" y1="469" x2="903" y2="430"/>
</g>
<g id="pelo2">
	<path id="XMLID_122_" class="st1" d="M483,53c-3.2-0.4-6.1,3-7.8,5.3c-2,2.6-2.9,5.8-4.1,8.8c-1.4,3.5-3.2,6.9-3.9,10.6
		c-0.5,2.7-1,5.3-2.1,7.8c-1,2.3-2.6,4.3-3.4,6.7c-2.5,7.5-4,14.9-4,22.8c0,7.8-0.5,15.8,0.2,23.6c0.3,3,1,5.7,1.7,8.5
		c0.5,2.1,1.6,3.9,2.3,6c0.4,1.2,0.8,2.4,1.3,3.6c0.7,1.5,1.9,2.8,2.4,4.4c0.9,2.9,0.5,5.1,4.3,5.1c2,0,4.5,0.3,6.5-0.1
		c1.3-0.3,3-0.8,4.2-1.3c0.7-0.3,1.2-0.9,1.9-1.2c1.4-0.7,3.1-0.7,4.6-1.3c1.8-0.7,3.7-1.2,5.5-2c1.8-0.8,3.3-2,5.3-2.6
		c2.2-0.6,4.2-0.7,6.4-0.8c1.1-0.1,1.9-0.3,2.9-0.5c2.3-0.4,4.9-0.1,7.2-0.1c23.6,0,47.6-3.8,71.1,1c3.4,0.7,6.7,1.7,9.9,3
		c1.8,0.7,3.9,1.7,5.9,1.9c1.1,0.1,1.1,0.4,1.9-0.7c0.5-0.8,0.1-7.1,0.1-6.6c-0.2-8.4-1.5-16.6-2.1-24.9c-0.4-6.5-1-12.9-2-19.3
		c-1.3-8.6-1.9-17.3-3.5-25.9c-1.1-5.9-2.7-11.8-5.1-17.3c-1.4-3.1-2.2-6.2-3.7-9.3c-1.4-2.7-2.8-4.1-5.2-5.9
		c-4.4-3.3-9.6-6.3-14.5-8.8c-5.8-3-12.2-5.4-18.7-6.6"/>
	<path id="XMLID_121_" class="st1" d="M492.3,58.3c-4.5,0-9.3,0.1-13.4-2c-5.3-2.8-6.3-10.7-6.8-16c-0.4-4.8-1.2-10.3-0.1-15
		c0.5-2.3,1.6-5.6,3.7-6.8c4.4-2.5,9.8,0.2,13.9,1.7c1.1,0.4,0.9,0.8,2-0.4c0.9-1,1.1-2.6,1.3-3.9c0.8-5.4-0.9-16.1-0.9-16.1
		l17.5,0.6h19.4h17.9h2.6h5.2h2.1l3.2,0c0,0-0.1-1.6,0.4,1.3c0.7,4.1,0.6,8.2,0.6,12.4c0,2.3-0.6,5.7,0.1,8c2.2-1.8,4.2-3.7,6.7-5.1
		c1.6-0.9,3.3-1.4,5-2.1c1.6-0.7,3.5-2.6,5.3-2.5c1.7,0.1,3.7,2.2,5.1,3.1c2.9,2,3.4,5.2,3.2,8.7c-0.2,4.1-1.2,8.2-2.7,12.1
		c-1.4,3.6-4.1,5.8-7.1,8c-3,2.1-6.4,4.3-9.6,6c-2.4,1.3-5.3,2.4-7.2,4.5c-1.6,1.9-2.5,4.5-3.4,6.8c-2.2,5.8-5.7,11.1-8.7,16.5
		c-1.9,3.4-3.3,7.1-5.5,10.2c-1,1.5-2.2,3.5-3.9,4.3c-1.6,0.7-3.2,0.4-4.9,0.4c-2.4,0-4.8,0-7.3-0.3c-4.8-0.5-10.3-0.9-14.4-3.6
		c-3.7-2.4-7.2-5.5-9.5-9.2c-1.1-1.8-1.6-3.6-2.6-5.5c-1.1-2.2-2.5-4-3.3-6.4c-1-3.1-0.6-6.4-0.6-9.6"/>
	<path id="XMLID_120_" class="st1" d="M504.3,17.7c1.1,1.4,3.3,1.6,4.8,2.6c2.2,1.5,3.9,3.2,6.2,4.4c3.1,1.6,6.5,6.9,10.3,4.4"/>
	<path id="XMLID_119_" class="st1" d="M535,28.3c3.7,0,7.6,0.5,11-0.9c3.8-1.6,5.8-4.8,7.6-8.4"/>
	<path id="XMLID_118_" class="st1" d="M535,34.3c-0.3,2.1,1,3.6,2,5.4c1.8,3.4,3,7.1,4.6,10.5c2,4.4,3.5,8.8,1.2,13.4
		c-0.9,1.8-2.3,3.5-4.4,2.9c-2.7-0.7-5.1-4.7-6.9-6.6c-1.9-2-3.7-4.4-4.7-7.1c-0.6-1.5-0.6-3.4-1.7-4.6"/>
	<path id="XMLID_117_" class="st1" d="M571.7,49c2.8,0.1,5.9,3.3,7.9,5c3.9,3.2,8,6.1,11.5,9.6c3.3,3.4,6.5,7,9.5,10.7
		c2.8,3.5,4.9,7.5,7.4,11.3c2.4,3.8,4.6,7.5,6.6,11.5c1.3,2.5,3,4.7,4.3,7.1c1.7,3.1,2.7,6.5,4.2,9.6c1.9,3.9,3.2,7.7,3.9,12
		c1.3,7.1,2,14.7,2,21.9c0,3.5,0.4,6.9-0.9,10.1c-0.6,1.5-0.5,2.8-1.4,4.1c-1,1.3-2.4,2.2-3.7,3.2c-2.4,1.9-5.6,3.4-8.6,3.8"/>
	<path id="XMLID_108_" class="st1" d="M503.6,233.6c0-9.5,0.5-19-0.3-28.5c-0.6-8.2-2.5-15.9-2.8-24.1c-0.2-6-0.6-11.9-1.5-17.8
		c-0.8-5.5-2.4-11.8-1.6-17.4c1-6.3,10.2-5.9,15.4-6.7c26.8-4.1,54.4-4.4,81.5-6c5.2-0.3,10.4-1,15.6-1.3c3.4-0.2,7.6-1.6,10.9-1.2
		c7.8,0.9,5.8,20,5.8,25c-0.1,17.9-0.1,35.6,1.7,53.2c0.3,2.6,0.9,4.5-1.2,6.5c-3.4,3.3-14.7,4.3-18.3,5.1
		c-20.7,4.4-41.9,6.2-63,8.7c-11.6,1.4-23.2,2.1-34.7,4.2c-9,1.6-11-6.5-14.7-13.4c-3.5-6.6-5.8-13.8-9.4-20.3
		c-2.2-4-4.6-7.7-6.6-11.8c-1.5-3.1-2.7-5.3-5-8c-2-2.3-4.2-4.3-4.2-7.6c2.6-2.7,10.2-4,13.7-4.7c5.2-1.2,10.7-0.9,15.6-2.9"/>
	<path id="XMLID_107_" class="st1" d="M478.9,56.3c-2.9-0.3-12.3,4.5-15.3,5.3c-2.7,0.7-5.1,1.9-7.4,3.5c-1.6,1-3.2,1.9-4.6,3.2
		c-2.3,2.3-4.3,5.1-6.6,7.4c-5.5,5.4-10.7,11-15.1,17.3c-2,2.9-4.1,5.7-5.6,8.9c-1.9,3.8-2.5,7.9-3.6,11.9c-1.6,6-3.6,11.8-5,17.8
		c-1.4,5.9-1.9,11.9-2.3,18c-0.2,4.4-0.1,8.3,0.8,12.6c0.9,4.1,2.7,7.6,4.4,11.4c1.8,4.1,4.1,6.8,8.2,8.6c3.3,1.4,7.4,0.8,10.8,0.8
		c5.3,0,10.3-0.9,15.4-2.8c3.3-1.2,7.1-3.2,9.4-5.9c3.3-3.9,8.7-2.1,12.7-0.5c4.6,1.8,6.2,3.7,8.5,7.9c0.6,1.1,1.4,2.1,2,3.2
		c0.4,0.7,0.7,1.8,1.4,2.2c2.5,1.5,4.3-4.3,4.7-6.1c0.9-3.5,0.8-7.4-1-10.7c-2.1-3.9-6.4-5.9-8.7-9.5c2.4,1.5,4.7,3.4,6.7,5.4
		c1.7,1.8,2.9,3.9,4.4,5.8c1,1.2,1.8,1.9,2.3,3.4c0.5,1.2,1,3.3,2.2,4c2.3-2.8,2.2-8.1,1.7-11.5c-0.4-2.2-0.8-4.6-1.3-6.8
		c-0.6-2.8-2.6-5.5-3.9-8c-1.1-2.2-2-4.5-4.1-6c-2.8-2-5.5-1-8.6-1.4c-2.6-0.3-4.8-0.6-7.4-0.6c-2.5-0.1-4.3,1.3-6.7,1.4
		c-3.9,0.2-8.4,0.2-12.2-0.6c-2.4-0.5-3.6-1-4.5-3.5c-0.9-2.6-0.9-5.4-0.2-8.1c1.5-5.3,5.2-8.7,9.5-12c0.8-0.6,1.7-0.8,2.7-1.2
		c1.2-0.6,2.1-1.5,3.3-2.1c2.4-1.1,4.9-1.1,6.7-3.3"/>
</g>
<g id="ordis">
	<g id="XMLID_24_" class="st2">
		<g id="XMLID_150_">
			<path id="XMLID_158_" d="M526,30c-0.6-0.5-1.4-0.6-2.1-1c-0.9-0.5-1.6-1.3-2.4-1.9c-1.4-1.1-2.8-1.9-4.1-3.2
				c-1.6-1.7-3.5-2.4-5.5-3.5c-2-1.1-3.7-2.4-5.8-3.3c-1.2-0.5-2.5-0.9-3.7-1.6c-1.8-1-2.9-2.7-3.9-4.5c-0.9-1.5-1.1-2.6,1-3
				c1.9-0.4,3.8,0.3,5.6-0.5c1-0.4,2-0.8,3-1.3c1.3-0.6,2.7-1.8,4.1-2.1c1.7-0.3,3.7,1.5,4.9,2.7c1.3,1.3,2.3,3.1,3.5,4.5
				c2.1,2.5,4.3,5.9,4.5,9.2c0.1,2.6-0.5,5.9,1,8.3"/>
			<path id="XMLID_157_" d="M535,28c1.2-3,0-6.3,0-9.5c0-2.7,1-5.5,2-7.9c1.2-2.7,3.1-4.6,5.6-6.1c1.8-1.1,2.5-1.2,4,0.1
				c1.7,1.6,3.2,2.9,4.4,4.9c1.2,1.9,3.1,3.7,3.5,6.1c0.3,1.5,0.1,3.2-1.1,4.1c-0.5,0.3-1,0.4-1.4,0.8c-0.4,0.4-0.7,0.9-1.2,1.2
				c-0.9,0.5-2.2,0.9-3.2,1.3c-1.5,0.6-2.8,1.4-4.3,2c-1,0.4-2.1,0.8-3.1,1.3c-1.6,0.8-2.9,0.7-4.7,0.7"/>
			<path id="XMLID_156_" d="M516,36.8c-0.9-1.9-2.6-3.1-3.9-4.7c-0.7-0.9-1.2-1.8-1-2.9c0.2-1,0.5-2.3,0.3-3.3c0-0.4-0.3-0.6,0-0.8
				c0.5-0.4,1.2,0.1,1.7,0.3c1.7,0.7,2.9,2,4.1,3.4c1.1,1.2,1.5,2.6,1.7,4.2c0.1,1.1,0.2,2.3-0.5,3.2c-0.3,0.4-0.7,0.6-1.1,0.7
				c-0.4,0.1-0.8,0.2-1.2,0.2"/>
			<path id="XMLID_155_" d="M541.3,35.7c0-0.5-0.3-0.9-0.5-1.4c-0.2-0.6-0.1-1.1,0-1.6c0.1-0.6,0.4-1.2,0.6-1.8
				c0.2-0.5,0.4-1.2,0.7-1.6c0.3-0.5,0.6-0.9,0.8-1.4c0.3-0.6,0.6-1.1,1.1-1.5c0.4-0.3,0.7-0.7,1.2-0.8c0.3-0.1,1.1-0.4,1.3-0.2
				c0.4,0.4,0.2,1.3,0.2,1.7c0,0.9,0,1.7-0.2,2.6c-0.3,1.5-0.5,3.1-1.2,4.4c-0.4,0.9-0.8,1.5-1.8,1.8c-0.5,0.2-1,0.3-1.6,0.3"/>
			<path id="XMLID_154_" d="M490.5,21.2c-0.9-0.5-1.9-1-2.9-1.4c-1.7-0.6-3.6-0.9-5.4-1.1c-1.9-0.2-3.8-0.2-5.7-0.2
				c-1.5,0-2.2-0.1-3.1,1.3c-0.9,1.5-1.6,3-2.2,4.7c-0.4,1-0.8,1.9-0.9,3c-0.1,0.9-0.1,1.7-0.2,2.6c-0.2,1.8,0.4,3.6,1.1,5.2
				c0.3,0.7,0.8,1.3,1.2,2c0.3,0.4,0.4,1.2,0.9,1.4c0.3-0.4,0-1.3-0.1-1.7c-0.1-0.7-0.2-1.4-0.2-2.1c0-1.5,0.5-2.7,1-4.1
				c0.4-1,0.7-1.8,1.7-2.3c1.2-0.6,2.5-0.6,3.8-0.8c1.2-0.2,2.4-0.1,3.7-0.4c1.6-0.3,3.2-0.7,4.7-1.1c0.8-0.2,1.3-0.6,1.8-1.2
				c0.3-0.4,0.5-0.7,0.5-1.2c0-0.3-0.3-0.5-0.2-0.8"/>
			<path id="XMLID_153_" d="M563,21.5c-0.8,0-0.5-0.7-0.2-1c0.5-0.5,1.2-0.8,1.8-1.1c1.4-0.9,2.6-1.9,4.1-2.6c2.6-1.3,5.2-2.5,8-3.2
				c0.9-0.2,1.7-0.4,2.6-0.3c1.7,0.2,2.9,2.3,3.6,3.6c0.5,0.9,1.1,1.8,1.4,2.8c0.3,0.8,0.6,1.7,0.9,2.5c0.4,0.9,1.3,2.1,1.1,3.2
				c-0.2,0.8-1.3,1.3-2,1.5c-1.1,0.2-2.3-0.1-3.3-0.7c-1-0.6-1.4-1.9-2.1-2.8c-0.7-1-1.4-1.4-2.6-1.6c-1.5-0.2-3-0.1-4.5-0.1
				c-1.1,0-2.4-0.1-3.5,0c-1.1,0.2-1.9,0.5-3,0.2c-0.6-0.2-1.2-0.3-1.7-0.4c-0.4-0.1-0.6-0.3-1-0.3"/>
			<path id="XMLID_152_" d="M476,146.5c-0.1-1.5-0.9-2.5-1.5-3.8c-1.1-2.5-1.9-4.9-2-7.7c-0.1-3.1-0.4-6.1-0.8-9.2
				c-0.4-3.1-1.2-6-1.5-9.1c-0.7-7.1-1.3-14.2-1.2-21.3c0-4.9,0.2-9.8-0.6-14.7c-0.3-1.5-1-2.8-1.3-4.3c-0.5-2.2,0.3-4.3,0.8-6.4
				c0.7-3.1,0.5-6.1,1.5-9.1c0.9-2.7,2.1-3.2,4.7-3.8c2-0.5,4.4-0.1,6.4-0.1c2,0,4.1,0,6.1,0c0.7,0,1.6-0.1,2.2,0
				c1.8,0.5,2.2,1.6,2.6,3.2c0.5,2.1,1,4.1,1.1,6.3c0.1,2,4.5,6.6,5.4,8.5c1.3,2.6-0.4,1.7,1.7,3.6c1.2,1.1,2,2,3.3,2.9
				c1.7,1.1,3.4,2,5.2,3c2.1,1.2,1.4,3.4,3.6,4.5c3.4,1.9,10.9,2,14.4,3.6c4.1,1.9,5.3,1.7,9.8,1.9c4,0.1,6.8,0.6,8.9-3.5
				c1.5-2.8,2.6-5.4,3.5-8.5c0.9-2.9,3.5-6.1,4.4-9c0.8-2.7,2.4-4.8,2.9-6.9c0.5-2.3,0.2-3.6,1.1-5.8c0.4-1.1,0.7-2.3,1.5-3.2
				c0.9-1,2.1-2,3.3-2.7c0.9-0.5,1.7-0.4,2.6-0.7c1.6-0.5,2.5-1.5,4.2-1.8c1.2-0.2,2.5-0.2,3.7-0.1c1,0.1,1.4,0.5,2.3,0.9
				c0.8,0.4,1.8,0.6,2.6,1c1.8,0.7,2.3,1.3,3.1,3.1c3.1,7,6.9,13.6,10,20.5c2.6,5.7,6.3,10.9,9,16.5c2.4,5,4.2,10.5,4.9,16
				c0.5,4.2,0.2,8.6,1.7,12.5c0.4,1.1,0.3,2.3,0.3,3.5c0,1.3,0.4,2.2,0.5,3.5c0.1,0.6,0,1.3,0,2c0,1.7-1.2,1.7-2.8,1.9
				c-4.7,0.7-9.8,0.1-14.6,0.1c-2.4,0-4.7-0.5-7.1-0.5c-2.8-0.1-5.7,0-8.5,0c-4.5,0-9.2,0.7-13.7,1.1c-2.9,0.2-5.8,0.8-8.7,0.9
				c-2.7,0.1-5.4,0.4-8,0.6c-3.8,0.3-7.6,0.9-11.4,1.3c-3.3,0.3-6.5,0.2-9.6,1.1c-1.8,0.5-3.5,0.8-5.3,1.1c-1.5,0.3-2.8,0.3-4.4,0.4
				c-4.2,0.3-8.2,1.5-12.4,1.4c-1.8,0-2.2,0.6-2,2.4c0.1,1.4,0.1,2.8,0.1,4.2c0,2.2,0.2,3.9-1.3,5.7c-2.8,3.3-5.2-3.8-6.2-5.2
				c-1.4-2-4.5-2.6-6.8-2.6c-3.2,0-6.4,0-9.7,0"/>
			<path id="XMLID_151_" d="M559.5,54.2c0-4,0-8.1,0-12.1c0-3.7-0.1-7.4,0-11.1c0.1-2,0.5-4,0.4-6c0-0.4-0.2-2.1-0.5-2.4
				c-0.7-0.5-2.8,0.3-3.5,0.7c-0.8,0.6-1.4,1.9-2,2.8c-1.1,1.7-1.6,3.7-2.2,5.6c-0.9,2.8-3.3,3.2-5.8,3.7c-1.3,0.3-2.7,0.4-4,1
				c-1,0.5-2,1.2-3,1.7c-0.7,0.3-2.2,0.8-2.4,1.6c-0.4,1,1.2,2.4,1.7,3.2c1.2,2.2,2.8,4,3.9,6.4c1,2.2,1.4,4.4,1.4,6.8
				c0,2.2,0.1,4.2-0.4,6.3c-0.2,0.8,0.1,1.7-0.1,2.5c-0.1,1-0.8,1.8-1.3,2.6c-0.4,0.7-0.8,1.3-1.1,1.8c0.2,0,0.5,0,0.7,0
				c1.1,0,2.3-0.2,3.2,0.5c0.6,0.5,1,1.1,1.3,1.8c0.1,0.3,0.6,1,0.6,1.3c0.1,0.9-1.4,1.6-2.1,1.9c-1.4,0.6-3,0.7-4.4,1.2
				c-1.2,0.4-2.2,0.8-3.5,0.5c-1.3-0.4-2.3-0.4-3.6-0.4c-1.9,0-3.8,0.2-5.6-0.5c-0.4-0.2-0.8-0.3-1.1-0.5c-0.3-0.2-0.4-0.4-0.7-0.6
				c-0.6-0.3-1.2-0.5-1.8-0.9c-0.8-0.6-1.5-1.7-2-2.5l-0.5,0.2c0.7-0.3,1.1-0.9,1.7-1.2c0.4-0.2,0.9-0.4,1.3-0.6
				c1.1-0.6,1.8-1,3.1-0.9c1.2,0,2.2,0.2,3.4,0.4c1.2,0.3,1.8,0.3,3,0c1-0.3,1.9-0.2,2.9-0.1c0.3,0,0.5,0.1,0.8,0.1
				c-0.5-0.3-0.9-0.7-1.3-1.2c-1-1.4-1.7-3-2.8-4.3c-1.4-1.6-2-3.4-3-5.3c-0.5-0.9-0.9-1.7-1.3-2.6c-0.4-0.9-1.1-1.4-1.5-2.2
				c-0.5-1-0.5-1.8-1.3-2.6c-0.6-0.6-1-1-1.4-1.9c-0.7-1.6-1.1-3.2-1.7-4.8c-0.7-1.7-1.9-3.2-3.2-4.5c-0.6-0.6-1.4-1.4-2.1-1.8
				c-0.6-0.4-1.3-0.3-2-0.5c-2-0.7-3.6-2.1-5.5-3c-1.8-0.9-3.3-1.8-4.7-3.3c-1.3-1.3-3.1-1.9-4.8-2.5c-2.7-1-2.7,1.7-3.4,3.6
				c-0.5,1.5-0.6,2.9-0.9,4.4c-0.2,1.2-0.8,2.3-1,3.5c-0.2,1.1-0.9,1.9-1,3c-0.1,0.5,0,1.2,0,1.7c0,3.5,0.2,6.7,1.5,10
				c1.7,4.4,2.7,9,4.4,13.4c1.1,2.8,2.3,5.3,3.9,7.9c0.5,0.8,0.8,1.7,1.1,2.6c0.4,1.3,1.1,2.2,1.6,3.5c0.7,1.6,1.1,3.2,2.5,4.4
				c1,1,2.3,2.4,3.5,3c1.5,0.8,3.8,1.2,5.4,1.4c4.1,0.5,8.1,0.9,11.9,2.6c3.2,1.4,7.5,0.3,10.9-0.4c2.8-0.6,3.7-1,5-3.5
				c1-1.9,1.4-4,2.2-6c0.9-2.2,1.9-4.4,2.9-6.6c1.2-2.9,2.6-5.7,3.9-8.5c0.9-1.9,2.1-3.6,2.8-5.5c0.9-2.4,1-4.4,1-7l1.5,5
				C560,58.6,559.5,56.5,559.5,54.2z"/>
		</g>
		<g id="XMLID_141_">
			<path id="XMLID_149_" class="st3" d="M526,30c-0.6-0.5-1.4-0.6-2.1-1c-0.9-0.5-1.6-1.3-2.4-1.9c-1.4-1.1-2.8-1.9-4.1-3.2
				c-1.6-1.7-3.5-2.4-5.5-3.5c-2-1.1-3.7-2.4-5.8-3.3c-1.2-0.5-2.5-0.9-3.7-1.6c-1.8-1-2.9-2.7-3.9-4.5c-0.9-1.5-1.1-2.6,1-3
				c1.9-0.4,3.8,0.3,5.6-0.5c1-0.4,2-0.8,3-1.3c1.3-0.6,2.7-1.8,4.1-2.1c1.7-0.3,3.7,1.5,4.9,2.7c1.3,1.3,2.3,3.1,3.5,4.5
				c2.1,2.5,4.3,5.9,4.5,9.2c0.1,2.6-0.5,5.9,1,8.3"/>
			<path id="XMLID_148_" class="st3" d="M535,28c1.2-3,0-6.3,0-9.5c0-2.7,1-5.5,2-7.9c1.2-2.7,3.1-4.6,5.6-6.1
				c1.8-1.1,2.5-1.2,4,0.1c1.7,1.6,3.2,2.9,4.4,4.9c1.2,1.9,3.1,3.7,3.5,6.1c0.3,1.5,0.1,3.2-1.1,4.1c-0.5,0.3-1,0.4-1.4,0.8
				c-0.4,0.4-0.7,0.9-1.2,1.2c-0.9,0.5-2.2,0.9-3.2,1.3c-1.5,0.6-2.8,1.4-4.3,2c-1,0.4-2.1,0.8-3.1,1.3c-1.6,0.8-2.9,0.7-4.7,0.7"/>
			<path id="XMLID_147_" class="st3" d="M516,36.8c-0.9-1.9-2.6-3.1-3.9-4.7c-0.7-0.9-1.2-1.8-1-2.9c0.2-1,0.5-2.3,0.3-3.3
				c0-0.4-0.3-0.6,0-0.8c0.5-0.4,1.2,0.1,1.7,0.3c1.7,0.7,2.9,2,4.1,3.4c1.1,1.2,1.5,2.6,1.7,4.2c0.1,1.1,0.2,2.3-0.5,3.2
				c-0.3,0.4-0.7,0.6-1.1,0.7c-0.4,0.1-0.8,0.2-1.2,0.2"/>
			<path id="XMLID_146_" class="st3" d="M541.3,35.7c0-0.5-0.3-0.9-0.5-1.4c-0.2-0.6-0.1-1.1,0-1.6c0.1-0.6,0.4-1.2,0.6-1.8
				c0.2-0.5,0.4-1.2,0.7-1.6c0.3-0.5,0.6-0.9,0.8-1.4c0.3-0.6,0.6-1.1,1.1-1.5c0.4-0.3,0.7-0.7,1.2-0.8c0.3-0.1,1.1-0.4,1.3-0.2
				c0.4,0.4,0.2,1.3,0.2,1.7c0,0.9,0,1.7-0.2,2.6c-0.3,1.5-0.5,3.1-1.2,4.4c-0.4,0.9-0.8,1.5-1.8,1.8c-0.5,0.2-1,0.3-1.6,0.3"/>
			<path id="XMLID_145_" class="st3" d="M490.5,21.2c-0.9-0.5-1.9-1-2.9-1.4c-1.7-0.6-3.6-0.9-5.4-1.1c-1.9-0.2-3.8-0.2-5.7-0.2
				c-1.5,0-2.2-0.1-3.1,1.3c-0.9,1.5-1.6,3-2.2,4.7c-0.4,1-0.8,1.9-0.9,3c-0.1,0.9-0.1,1.7-0.2,2.6c-0.2,1.8,0.4,3.6,1.1,5.2
				c0.3,0.7,0.8,1.3,1.2,2c0.3,0.4,0.4,1.2,0.9,1.4c0.3-0.4,0-1.3-0.1-1.7c-0.1-0.7-0.2-1.4-0.2-2.1c0-1.5,0.5-2.7,1-4.1
				c0.4-1,0.7-1.8,1.7-2.3c1.2-0.6,2.5-0.6,3.8-0.8c1.2-0.2,2.4-0.1,3.7-0.4c1.6-0.3,3.2-0.7,4.7-1.1c0.8-0.2,1.3-0.6,1.8-1.2
				c0.3-0.4,0.5-0.7,0.5-1.2c0-0.3-0.3-0.5-0.2-0.8"/>
			<path id="XMLID_144_" class="st3" d="M563,21.5c-0.8,0-0.5-0.7-0.2-1c0.5-0.5,1.2-0.8,1.8-1.1c1.4-0.9,2.6-1.9,4.1-2.6
				c2.6-1.3,5.2-2.5,8-3.2c0.9-0.2,1.7-0.4,2.6-0.3c1.7,0.2,2.9,2.3,3.6,3.6c0.5,0.9,1.1,1.8,1.4,2.8c0.3,0.8,0.6,1.7,0.9,2.5
				c0.4,0.9,1.3,2.1,1.1,3.2c-0.2,0.8-1.3,1.3-2,1.5c-1.1,0.2-2.3-0.1-3.3-0.7c-1-0.6-1.4-1.9-2.1-2.8c-0.7-1-1.4-1.4-2.6-1.6
				c-1.5-0.2-3-0.1-4.5-0.1c-1.1,0-2.4-0.1-3.5,0c-1.1,0.2-1.9,0.5-3,0.2c-0.6-0.2-1.2-0.3-1.7-0.4c-0.4-0.1-0.6-0.3-1-0.3"/>
			<path id="XMLID_143_" class="st3" d="M476,146.5c-0.1-1.5-0.9-2.5-1.5-3.8c-1.1-2.5-1.9-4.9-2-7.7c-0.1-3.1-0.4-6.1-0.8-9.2
				c-0.4-3.1-1.2-6-1.5-9.1c-0.7-7.1-1.3-14.2-1.2-21.3c0-4.9,0.2-9.8-0.6-14.7c-0.3-1.5-1-2.8-1.3-4.3c-0.5-2.2,0.3-4.3,0.8-6.4
				c0.7-3.1,0.5-6.1,1.5-9.1c0.9-2.7,2.1-3.2,4.7-3.8c2-0.5,4.4-0.1,6.4-0.1c2,0,4.1,0,6.1,0c0.7,0,1.6-0.1,2.2,0
				c1.8,0.5,2.2,1.6,2.6,3.2c0.5,2.1,1,4.1,1.1,6.3c0.1,2,4.5,6.6,5.4,8.5c1.3,2.6-0.4,1.7,1.7,3.6c1.2,1.1,2,2,3.3,2.9
				c1.7,1.1,3.4,2,5.2,3c2.1,1.2,1.4,3.4,3.6,4.5c3.4,1.9,10.9,2,14.4,3.6c4.1,1.9,5.3,1.7,9.8,1.9c4,0.1,6.8,0.6,8.9-3.5
				c1.5-2.8,2.6-5.4,3.5-8.5c0.9-2.9,3.5-6.1,4.4-9c0.8-2.7,2.4-4.8,2.9-6.9c0.5-2.3,0.2-3.6,1.1-5.8c0.4-1.1,0.7-2.3,1.5-3.2
				c0.9-1,2.1-2,3.3-2.7c0.9-0.5,1.7-0.4,2.6-0.7c1.6-0.5,2.5-1.5,4.2-1.8c1.2-0.2,2.5-0.2,3.7-0.1c1,0.1,1.4,0.5,2.3,0.9
				c0.8,0.4,1.8,0.6,2.6,1c1.8,0.7,2.3,1.3,3.1,3.1c3.1,7,6.9,13.6,10,20.5c2.6,5.7,6.3,10.9,9,16.5c2.4,5,4.2,10.5,4.9,16
				c0.5,4.2,0.2,8.6,1.7,12.5c0.4,1.1,0.3,2.3,0.3,3.5c0,1.3,0.4,2.2,0.5,3.5c0.1,0.6,0,1.3,0,2c0,1.7-1.2,1.7-2.8,1.9
				c-4.7,0.7-9.8,0.1-14.6,0.1c-2.4,0-4.7-0.5-7.1-0.5c-2.8-0.1-5.7,0-8.5,0c-4.5,0-9.2,0.7-13.7,1.1c-2.9,0.2-5.8,0.8-8.7,0.9
				c-2.7,0.1-5.4,0.4-8,0.6c-3.8,0.3-7.6,0.9-11.4,1.3c-3.3,0.3-6.5,0.2-9.6,1.1c-1.8,0.5-3.5,0.8-5.3,1.1c-1.5,0.3-2.8,0.3-4.4,0.4
				c-4.2,0.3-8.2,1.5-12.4,1.4c-1.8,0-2.2,0.6-2,2.4c0.1,1.4,0.1,2.8,0.1,4.2c0,2.2,0.2,3.9-1.3,5.7c-2.8,3.3-5.2-3.8-6.2-5.2
				c-1.4-2-4.5-2.6-6.8-2.6c-3.2,0-6.4,0-9.7,0"/>
			<path id="XMLID_142_" class="st3" d="M559.5,54.2c0-4,0-8.1,0-12.1c0-3.7-0.1-7.4,0-11.1c0.1-2,0.5-4,0.4-6
				c0-0.4-0.2-2.1-0.5-2.4c-0.7-0.5-2.8,0.3-3.5,0.7c-0.8,0.6-1.4,1.9-2,2.8c-1.1,1.7-1.6,3.7-2.2,5.6c-0.9,2.8-3.3,3.2-5.8,3.7
				c-1.3,0.3-2.7,0.4-4,1c-1,0.5-2,1.2-3,1.7c-0.7,0.3-2.2,0.8-2.4,1.6c-0.4,1,1.2,2.4,1.7,3.2c1.2,2.2,2.8,4,3.9,6.4
				c1,2.2,1.4,4.4,1.4,6.8c0,2.2,0.1,4.2-0.4,6.3c-0.2,0.8,0.1,1.7-0.1,2.5c-0.1,1-0.8,1.8-1.3,2.6c-0.4,0.7-0.8,1.3-1.1,1.8
				c0.2,0,0.5,0,0.7,0c1.1,0,2.3-0.2,3.2,0.5c0.6,0.5,1,1.1,1.3,1.8c0.1,0.3,0.6,1,0.6,1.3c0.1,0.9-1.4,1.6-2.1,1.9
				c-1.4,0.6-3,0.7-4.4,1.2c-1.2,0.4-2.2,0.8-3.5,0.5c-1.3-0.4-2.3-0.4-3.6-0.4c-1.9,0-3.8,0.2-5.6-0.5c-0.4-0.2-0.8-0.3-1.1-0.5
				c-0.3-0.2-0.4-0.4-0.7-0.6c-0.6-0.3-1.2-0.5-1.8-0.9c-0.8-0.6-1.5-1.7-2-2.5l-0.5,0.2c0.7-0.3,1.1-0.9,1.7-1.2
				c0.4-0.2,0.9-0.4,1.3-0.6c1.1-0.6,1.8-1,3.1-0.9c1.2,0,2.2,0.2,3.4,0.4c1.2,0.3,1.8,0.3,3,0c1-0.3,1.9-0.2,2.9-0.1
				c0.3,0,0.5,0.1,0.8,0.1c-0.5-0.3-0.9-0.7-1.3-1.2c-1-1.4-1.7-3-2.8-4.3c-1.4-1.6-2-3.4-3-5.3c-0.5-0.9-0.9-1.7-1.3-2.6
				c-0.4-0.9-1.1-1.4-1.5-2.2c-0.5-1-0.5-1.8-1.3-2.6c-0.6-0.6-1-1-1.4-1.9c-0.7-1.6-1.1-3.2-1.7-4.8c-0.7-1.7-1.9-3.2-3.2-4.5
				c-0.6-0.6-1.4-1.4-2.1-1.8c-0.6-0.4-1.3-0.3-2-0.5c-2-0.7-3.6-2.1-5.5-3c-1.8-0.9-3.3-1.8-4.7-3.3c-1.3-1.3-3.1-1.9-4.8-2.5
				c-2.7-1-2.7,1.7-3.4,3.6c-0.5,1.5-0.6,2.9-0.9,4.4c-0.2,1.2-0.8,2.3-1,3.5c-0.2,1.1-0.9,1.9-1,3c-0.1,0.5,0,1.2,0,1.7
				c0,3.5,0.2,6.7,1.5,10c1.7,4.4,2.7,9,4.4,13.4c1.1,2.8,2.3,5.3,3.9,7.9c0.5,0.8,0.8,1.7,1.1,2.6c0.4,1.3,1.1,2.2,1.6,3.5
				c0.7,1.6,1.1,3.2,2.5,4.4c1,1,2.3,2.4,3.5,3c1.5,0.8,3.8,1.2,5.4,1.4c4.1,0.5,8.1,0.9,11.9,2.6c3.2,1.4,7.5,0.3,10.9-0.4
				c2.8-0.6,3.7-1,5-3.5c1-1.9,1.4-4,2.2-6c0.9-2.2,1.9-4.4,2.9-6.6c1.2-2.9,2.6-5.7,3.9-8.5c0.9-1.9,2.1-3.6,2.8-5.5
				c0.9-2.4,1-4.4,1-7l1.5,5C560,58.6,559.5,56.5,559.5,54.2z"/>
		</g>
	</g>
	<polygon id="XMLID_8_" class="st2" points="745,430 632,383 635.9,321 636.1,301.1 643.5,296.5 674.5,311.5 730.5,332.5 745,341.5 
		746.4,363.2 747.5,412.5 	"/>
	<polygon id="XMLID_38_" class="st2" points="868,346 782,396.5 774.5,383 766.9,312.5 768.4,297.4 774,294 820,281 847,267.5 
		857.6,263.9 861.5,280 863.2,313.2 	"/>
	<polygon id="XMLID_27_" class="st2" points="471.3,313.7 574.2,344.3 578,275.6 556.1,264.3 465.7,238.1 449.2,236.8 446.5,251.7 
		443.3,305.3 	"/>
</g>
<g id="pelo">
	<path id="XMLID_94_" class="st1" d="M346.1,353.6c6.4,4.8,14.2,8.3,21.5,11.2c3.9,1.6,10.1,3.9,14.5,2.1c4.3-1.8,5.1-8.6,7.7-11.9
		c3.9-4.9,9.3-8.2,14.6-11.2c7-4,15.7-14.9,24.2-9.9c5.6,3.3,4.9,6.4,0.4,10.3c-4.3,3.7-10.8,6.3-13.3,11.6c3.9-3.5,8-5.3,12.9-6.8
		c3.4-1,9-6,12.6-4.4c3.5,1.5,3.8,6.3,2.8,9.3c-1.4,4.1-4.5,6.6-8.9,7c3.7-2.5,8.6-4.8,12.9-6c5.4-1.6,6.1,3.7,6,8
		c0,9.5-11.1,10.9-18.4,13.4c-4,1.4-9.5,4.8-13,7.3c-3.8,2.7-7.7,5.1-11.9,7.2c-3.3,1.6-6.5,3.2-9.7,4.9c-3.5,1.8-6.3,1.4-10.1,1.4"
		/>
	<path id="XMLID_617_" class="st1" d="M445.1,473.6c0.6,5.1,5.3,9,8.1,12.8c3.2,4.2,5.2,9.8,6.1,15c1.2,6.3,1.6,12.7,2.5,19
		c1.4,10,4,19.6,4.7,29.7c0.6,8.4-0.1,14.3-0.1,14.3l-66-0.4c0,0-3.3-23.8-9.4-41.6c0.8,2.3-5.4-20.3-10.8-19.1
		c-2.7,0.6-5.9,4.7-7.9,6.4c-3.7,3.1-7.2,6.5-11.2,9.1c-5.5,3.7-12.8,6.9-19.5,7.3l7.5-3c-23.2,0-45.1-7.6-66.6-15.7
		c-15.1-5.7-32-11.8-42.8-24.4c-9.5-11.2-12.8-25.7-14.3-40c-1.6-15.5-0.9-30.7,0.7-46.1c1.4-13.8,1.3-28.1,4.8-41.6
		c2.1-8.2,4.2-16.5,7.2-24.4c3.2-8.5,8-16.2,10.7-24.9c4.8-15.3,4.5-31.1,2.5-46.9c-1.6-13.1-8-26.8-5.5-40.1
		c2.6-13.9,18.7-27.3,32.8-27.3c9.5,0,18.2,3,27.2,6c7,2.3,14.2,5,17.8,11.8c4.9,9.2,6.2,21.3,7.2,31.6c0.7,7.1,0.4,14.2,0.3,21.3
		c0,2-0.8,6.7,0,8.6c2.5,5.4,47.1,14.8,36.6,25.5c-3,3.1-10.3,4.7-14.1,2.9c-3.4-1.6-5.2-4.6-7.5-7.3c-1.6-2-3.7-6-6.1-6.8
		c-3.6,2.9,0,9.8,0.2,13.4c0.1,3,1.1,8.7-0.2,11.4c-1.8,3.9-8.3,2.9-11.6,2.9c-4,0-7.1,0-8-5c2.8,9.7,5.9,18.8,10.8,27.7
		c6,10.9,16.4,19.3,25.6,27.4c11.1,9.8,21.6,19.7,31.4,30.7c4.9,5.5,9.2,10.4,12.8,16.9c3.4,6.2,6.3,8.1,12.5,11
		c6.2,2.9,12.3,7,18.8,9.1c5.5,1.8,14.5,5,20.2,3c14.6-5.1,15.7-27.5,13.4-40c-0.9-4.9-5.6-10.3-5.6-15.3c0-2.3,0.9-2.9,1.9-5
		c1-1.9,0.7-3,0.9-5.2c0.4-4.6,3.7-7.6,7.8-10.2c2.7-1.7,10-6.1,13.2-4.7c4.1,1.8,12.3,22.6,3.1,21.6c-3.3-2.2,5.4-18,10.5-16.5
		c6.6,2,3.5,15.7,1.9,20c3.3-3.3,5.5-12.6,11.2-12.5c3,2.3,3.8,10.4,4.5,14.1c0.5,2.8,0.3,5.6,0.3,8.5c0,3.6,0.3,4.9-2.3,7.6
		c-3.5,3.8-7.2,5.9-8.6,11c-3.5,12.5-4.1,25.6-4.1,38.5c0,6.9,1.7,16.3-2.3,22.4c-6.3,9.3-19.1,11.2-29.3,12.8
		c-10.4,1.6-22.3,4.2-32.8,2c-5.4-1.1-8.9-3.9-13.6-6.4c-11.9-6.4-24-14.2-34.6-22.6c-3.2-2.6-7.2-3.8-10.3-6.3
		c-1.9-1.6-3.4-3.5-5.5-4.9c-3.7-2.7-7.8-5.2-11.2-8.2"/>
	<path id="XMLID_91_" class="st1" d="M197.3,564.7c0,0-3.5-9.3-5.1-15c-1.7-6.1-0.7-6.8-1.2-13.1l0.5-8.6c0.2-7.3,0.3-12.8,0.4-16
		c0.4-22.7-9.6-44.3-12.7-66.8c-1.4-9.9-4-20.9-0.8-30.7c3.5-10.6,11.1-14.8,21.2-18.7c14.6-5.7,29.7-8.6,45-11.9
		c4-0.9,16.7-5.5,20.9-3c3.1,1.8,5.8,8.7,7.2,11.2c2.7,5,5.2,10.1,7.6,15.3c6.6,14.4,14,28,19.6,42.9c4.7,12.5,8.5,25.1,12.5,37.9
		c3,9.7,6.9,18.9,10.4,28.3c1.9,5,2.4,8.5,8.5,9.2c4.1,0.5,8.4-0.4,12.3-1.6c3.3-1,6.8-1.4,9.8-2.9c2.7-1.4,5.3-3.3,8.3-4.2
		c1.8-0.5,3.5-0.4,5.3-1.2c2-0.9,3.8-2.5,5.6-3.7c3.1-2,6.4-3.7,10.1-4.5l10.7,5.4l14,14.7l-3.7,20.4c0.2,3.6-2.2,6.2-3.7,9.1
		c-1.5,2.8-3.2,6.8-3.2,6.8l-75.7,0.4L197.3,564.7"/>
</g>
<g id="lumlampe">
	<polygon id="XMLID_4_" class="st2" points="382,228 382,322 401.7,333.4 411.3,338.9 412.5,338 413.9,336.9 416.6,339.6 419.4,342 
		422.3,343.9 426.5,346.2 423.5,348.5 424.5,350.1 429,349 430.8,350.4 434,352.7 439.7,357.1 453.8,365.6 452.7,368.2 459.8,371.8 
		462.9,372.1 463.1,368.5 468.1,370.8 473.7,374.8 477.2,376.9 485.4,381.8 497,384.3 505.2,383.2 515.5,381.5 515.6,383.2 
		580.1,374.6 574.2,344.3 443.3,305.3 445.1,259.1 401.6,215.6 	"/>
</g>
<g id="masque">
	<g id="XMLID_18_">
		<path id="XMLID_85_" class="st2" d="M558.8,57.1l-0.3-1.1c0,0.5,0,1,0,1.4C558.6,57.3,558.7,57.2,558.8,57.1z"/>
		<polygon id="XMLID_84_" class="st2" points="455.2,308.9 443.3,305.3 574.2,344.3 		"/>
		<path id="XMLID_83_" class="st2" d="M548.3,82.7c-0.1,0.3-0.3,0.6-0.4,0.9c-0.4,1-0.7,2-1,3C547.5,85.3,547.9,84,548.3,82.7z"/>
		<path id="XMLID_41_" class="st2" d="M0,0v564h903V-0.3L0,0z M562.8,20.5c0.5-0.5,1.2-0.8,1.8-1.1c1.4-0.9,2.6-1.9,4.1-2.6
			c2.6-1.3,5.2-2.5,8-3.2c0.9-0.2,1.7-0.4,2.6-0.3c1.7,0.2,2.9,2.3,3.6,3.6c0.5,0.9,1.1,1.8,1.4,2.8c0.3,0.8,0.6,1.7,0.9,2.5
			c0.4,0.9,1.3,2.1,1.1,3.2c-0.2,0.8-1.3,1.3-2,1.5c-1.1,0.2-2.3-0.1-3.3-0.7c-1-0.6-1.4-1.9-2.1-2.8c-0.7-1-1.4-1.4-2.6-1.6
			c-1.5-0.2-3-0.1-4.5-0.1c-1.1,0-2.4-0.1-3.5,0c-1.1,0.2-1.9,0.5-3,0.2c-0.6-0.2-1.2-0.3-1.7-0.4c-0.4-0.1-0.6-0.3-1-0.3l0.2,0.5
			C562.2,21.5,562.5,20.8,562.8,20.5z M537,10.6c1.2-2.7,3.1-4.6,5.6-6.1c1.8-1.1,2.5-1.2,4,0.1c1.7,1.6,3.2,2.9,4.4,4.9
			c1.2,1.9,3.1,3.7,3.5,6.1c0.3,1.5,0.1,3.2-1.1,4.1c-0.5,0.3-1,0.4-1.4,0.8c-0.4,0.4-0.7,0.9-1.2,1.2c-0.9,0.5-2.2,0.9-3.2,1.3
			c-1.5,0.6-2.8,1.4-4.3,2c-1,0.4-2.1,0.8-3.1,1.3c-1.6,0.8-2.9,0.7-4.7,0.7l-0.5,1c1.2-3,0-6.3,0-9.5C535,15.9,535.9,13,537,10.6z
			 M499.5,8.1c1.9-0.4,3.8,0.3,5.6-0.5c1-0.4,2-0.8,3-1.3c1.3-0.6,2.7-1.8,4.1-2.1c1.7-0.3,3.7,1.5,4.9,2.7c1.3,1.3,2.3,3.1,3.5,4.5
			c2.1,2.5,4.3,5.9,4.5,9.2c0.1,2.6-0.5,5.9,1,8.3v1c-0.6-0.5-1.4-0.6-2.1-1c-0.9-0.5-1.6-1.3-2.4-1.9c-1.4-1.1-2.8-1.9-4.1-3.2
			c-1.6-1.7-3.5-2.4-5.5-3.5c-2-1.1-3.7-2.4-5.8-3.3c-1.2-0.5-2.5-0.9-3.7-1.6c-1.8-1-2.9-2.7-3.9-4.5
			C497.6,9.6,497.4,8.5,499.5,8.1z M511.5,25.8c0-0.4-0.3-0.6,0-0.8c0.5-0.4,1.2,0.1,1.7,0.3c1.7,0.7,2.9,2,4.1,3.4
			c1.1,1.2,1.5,2.6,1.7,4.2c0.1,1.1,0.2,2.3-0.5,3.2c-0.3,0.4-0.7,0.7-1.1,0.7c-0.4,0.1-0.8,0.2-1.2,0.2H516c-0.9-2-2.6-3.2-3.9-4.8
			c-0.7-0.9-1.2-1.9-1-3C511.4,28.2,511.6,26.9,511.5,25.8z M470.1,30.1c0.1-0.9,0.1-1.7,0.2-2.6c0.1-1,0.5-2,0.9-3
			c0.6-1.7,1.3-3.2,2.2-4.7c0.8-1.4,1.6-1.3,3.1-1.3c1.9,0,3.8,0,5.7,0.2c1.8,0.2,3.7,0.6,5.4,1.1c1,0.3,1.9,0.9,2.9,1.4L490,23
			c-0.1,0.3,0.2,0.5,0.2,0.8c0.1,0.5-0.2,0.8-0.5,1.2c-0.5,0.6-1,1.1-1.8,1.2c-1.6,0.4-3.1,0.8-4.7,1.1c-1.2,0.2-2.4,0.2-3.7,0.4
			c-1.3,0.2-2.6,0.3-3.8,0.8c-1,0.5-1.3,1.3-1.7,2.3c-0.6,1.3-1,2.6-1,4.1c0,0.7,0.1,1.4,0.2,2.1c0.1,0.4,0.4,1.3,0.1,1.7
			c-0.5-0.2-0.7-1-0.9-1.4c-0.4-0.7-0.8-1.2-1.2-2C470.4,33.7,469.8,31.9,470.1,30.1z M515.6,383.2l-0.2-1.7l-10.2,1.8l-8.2,1.1
			l-11.7-2.6L474,375l-5.9-4.2l-5-2.2l-0.2,3.6l-3.2-0.2l-7.1-3.7l1.2-2.5l-2.3-1.4l-6.9-4.2l-1.9-1.1l-1.8-1.1l-1.1-0.7L429,349
			l-4.5,1.1l-1-1.6l3-2.3l-4.1-2.3l-3.2-2l-2.1-1.8l-3.2-3.1l-2.7,2L382,322v-94l19.6-12.4l43.5,43.5l-1.8,46.2l3.2-53.7l2.7-14.9
			l16.5,1.4l90.4,26.2l21.9,11.3l-3.8,68.7l5.9,30.3L515.6,383.2z M606.5,132c0,1.7-1.2,1.7-2.8,1.9c-4.7,0.7-9.8,0.1-14.6,0.1
			c-2.4,0-4.7-0.5-7.1-0.5c-2.8-0.1-5.7,0-8.5,0c-4.5,0-9.2,0.7-13.7,1.1c-2.9,0.2-5.8,0.8-8.7,0.9c-2.7,0.1-5.4,0.4-8,0.6
			c-3.8,0.3-7.6,0.9-11.4,1.3c-3.3,0.3-6.5,0.2-9.6,1.1c-1.8,0.5-3.5,0.8-5.3,1.1c-1.5,0.3-2.8,0.3-4.4,0.4
			c-4.2,0.3-8.2,1.5-12.4,1.4c-1.8,0-2.2,0.6-2,2.4c0.1,1.4,0.1,2.8,0.1,4.2c0,2.2,0.2,3.9-1.3,5.7c-2.8,3.3-5.2-3.8-6.2-5.2
			c-1.4-2-4.5-2.6-6.8-2.6c-2.6,0-5.2,0-7.7,0c0,0.2,0.1,0.3,0.1,0.5l-2-0.5c0.6,0,1.3,0,1.9,0c-0.2-1.2-0.9-2.1-1.4-3.3
			c-1.1-2.5-1.9-4.9-2-7.7c-0.1-3.1-0.4-6.1-0.8-9.2c-0.4-3.1-1.2-6-1.5-9.1c-0.7-7.1-1.3-14.2-1.2-21.3c0-4.9,0.2-9.8-0.6-14.7
			c-0.3-1.5-1-2.8-1.3-4.3c-0.5-2.2,0.3-4.3,0.8-6.4c0.7-3.1,0.5-6.1,1.5-9.1c0.9-2.7,2.1-3.2,4.7-3.8c2-0.5,4.4-0.1,6.4-0.1
			c2,0,4.1,0,6.1,0c0.7,0,1.6-0.1,2.2,0c1.8,0.5,2.2,1.6,2.6,3.2c0.5,2.1,1,4.1,1.1,6.3c0.1,2,4.5,6.6,5.4,8.5
			c1.3,2.6-0.4,1.7,1.7,3.6c1.2,1.1,2,2,3.3,2.9c1.5,1,3,1.8,4.5,2.7c-0.3-0.7-0.6-1.4-0.9-2.1c-0.6-1.3-1.2-2.2-1.6-3.5
			c-0.3-0.9-0.6-1.8-1.1-2.6c-1.6-2.5-2.8-5.1-3.9-7.9c-1.7-4.4-2.7-9-4.4-13.4c-1.3-3.3-1.5-6.5-1.5-10c0-0.5-0.1-1.2,0-1.7
			c0.2-1.1,0.9-1.9,1-3c0.2-1.2,0.7-2.3,1-3.5c0.3-1.5,0.4-3,0.9-4.4c0.7-1.9,0.6-4.6,3.4-3.6c1.7,0.6,3.5,1.2,4.8,2.5
			c1.5,1.5,2.9,2.4,4.7,3.3c1.9,0.9,3.5,2.3,5.5,3c0.7,0.2,1.4,0.1,2,0.5c0.7,0.4,1.5,1.2,2.1,1.8c1.3,1.3,2.6,2.8,3.2,4.5
			c0.6,1.6,1.1,3.2,1.7,4.8c0.3,0.8,0.8,1.2,1.4,1.9c0.8,0.9,0.8,1.7,1.3,2.6c0.5,0.8,1.1,1.3,1.5,2.2c0.4,0.9,0.9,1.7,1.3,2.6
			c1,1.9,1.6,3.7,3,5.3c1.2,1.3,1.8,3,2.8,4.3c0.4,0.5,0.8,0.9,1.3,1.2c-0.3,0-0.5-0.1-0.8-0.1c-1-0.2-2-0.2-2.9,0.1
			c-1.2,0.3-1.8,0.3-3,0c-1.2-0.3-2.2-0.4-3.4-0.4c-1.3,0-2,0.4-3.1,0.9c-0.4,0.2-0.8,0.4-1.3,0.6c-0.6,0.3-1,0.9-1.7,1.2l0.5-0.2
			c0.5,0.8,1.2,1.9,2,2.5c0.6,0.5,1.1,0.6,1.8,0.9c0.3,0.2,0.4,0.4,0.7,0.6c0.3,0.2,0.7,0.3,1.1,0.5c1.8,0.7,3.7,0.5,5.6,0.5
			c1.3,0,2.3,0.1,3.6,0.4c1.3,0.4,2.3,0,3.5-0.5c1.4-0.5,3-0.6,4.4-1.2c0.7-0.3,2.2-1,2.1-1.9c0-0.3-0.5-1-0.6-1.3
			c-0.3-0.7-0.7-1.3-1.3-1.8c-0.9-0.8-2.1-0.5-3.2-0.5c-0.2,0-0.5,0-0.7,0c0.4-0.4,0.7-1.1,1.1-1.8c0.5-0.8,1.2-1.6,1.3-2.6
			c0.1-0.8-0.1-1.6,0.1-2.5c0.5-2.1,0.4-4.1,0.4-6.3c0-2.4-0.4-4.6-1.4-6.8c-1-2.3-2.7-4.1-3.9-6.4c-0.5-0.9-2.1-2.2-1.7-3.2
			c0.3-0.8,1.7-1.3,2.4-1.6c1.1-0.5,2-1.2,3-1.7c0.2-0.1,0.4-0.1,0.5-0.2c-0.2,0-0.3,0.1-0.5,0.1l-0.7-0.7c0-0.5-0.3-0.9-0.5-1.4
			c-0.2-0.6-0.1-1.1,0-1.6c0.1-0.6,0.4-1.2,0.6-1.8c0.2-0.5,0.4-1.2,0.7-1.6c0.3-0.5,0.6-0.9,0.8-1.4c0.3-0.6,0.6-1.1,1.1-1.5
			c0.4-0.3,0.7-0.7,1.2-0.8c0.3-0.1,1.1-0.4,1.3-0.2c0.4,0.4,0.2,1.3,0.2,1.7c0,0.9,0,1.7-0.2,2.6c-0.3,1.5-0.5,3.1-1.2,4.4
			c-0.4,0.8-0.8,1.3-1.5,1.7c0.7-0.1,1.3-0.3,2-0.4c2.5-0.6,4.9-0.9,5.8-3.7c0.6-1.9,1.1-3.9,2.2-5.6c0.5-0.9,1.2-2.2,2-2.8
			c0.6-0.5,2.8-1.3,3.5-0.7c0.3,0.2,0.5,2,0.5,2.4c0.1,2-0.3,4-0.4,6c-0.2,3.7,0,7.4,0,11.1c0,4,0,8.1,0,12.1c0,0.8,0.1,1.5,0.1,2.2
			c0.6-0.5,1.2-0.9,1.9-1.3c0.9-0.5,1.7-0.4,2.6-0.7c1.6-0.5,2.5-1.5,4.2-1.8c1.2-0.2,2.5-0.2,3.7-0.1c1,0.1,1.4,0.5,2.3,0.9
			c0.8,0.4,1.8,0.6,2.6,1c1.8,0.7,2.3,1.3,3.1,3.1c3.1,7,6.9,13.6,10,20.5c2.6,5.7,6.3,10.9,9,16.5c2.4,5,4.2,10.5,4.9,16
			c0.5,4.2,0.2,8.6,1.7,12.5c0.4,1.1,0.3,2.3,0.3,3.5c0,1.3,0.4,2.2,0.5,3.5C606.6,130.6,606.5,131.4,606.5,132z M745,430l-113-47
			l3.9-62l0.2-19.9l7.4-4.6l31,15l56,21l14.5,9l1.4,21.8l1.1,49.2L745,430z M782,396.5l-7.5-13.5l-7.6-70.5l1.5-15.1l5.6-3.4l46-13
			l27-13.5l10.6-3.6l3.9,16.1l1.7,33.2L868,346L782,396.5z"/>
		<path id="XMLID_40_" class="st2" d="M554.7,68.5c-1.3,2.8-2.6,5.7-3.9,8.5c-0.4,1-0.9,2.1-1.4,3.1c1.2-2.2,2.7-4.4,3.3-6.4
			c0.8-2.7,2.4-4.8,2.8-6.9C555.3,67.3,555,67.9,554.7,68.5z"/>
		<path id="XMLID_39_" class="st2" d="M540.8,93.1c-3.4,0.7-7.7,1.8-10.9,0.4c-3-1.3-6.2-1.8-9.4-2.2c2.1,0.4,4.1,0.8,5.5,1.4
			c4.1,1.9,5.3,1.7,9.8,1.9c4,0.1,6.8,0.6,8.9-3.5l0,0C543.9,92.3,542.8,92.6,540.8,93.1z"/>
		<path id="XMLID_20_" class="st2" d="M510.3,87.8c0.3,0.5,0.7,0.9,1.3,1.2c0.1,0.1,0.3,0.1,0.4,0.2
			C511.4,88.9,510.8,88.3,510.3,87.8z"/>
	</g>
</g>
<g id="texte">
	<path id="XMLID_241_" class="st2" d="M93.6,302.2c1.2-4,2.3-7.9,3.5-11.9c0.5-1.6,1.2-3.4,2.8-3.6c1.4,4.4,2.8,8.9,4.2,13.3
		c7.5-7.1,17.7-11.2,27.9-11.2c-1.8,3.6-4,6.9-6.4,10.1c14.5-0.3,29.1,1.6,43.1,5.7c0.8,0.2,1.8,0.8,1.6,1.6c-0.1,0.5-0.7,0.8-1.2,1
		c-3.7,1.5-7.4,2.9-11,4.4c6.1,4,12.6,8.4,15.4,15.2c-5.2-0.4-10.5-0.8-15.7-1.1c2,4.9,3.1,10.2,3.3,15.5c0,1.3,0,2.6-0.6,3.7
		c-0.6,1.1-2,1.9-3.1,1.5c-0.8-0.3-1.3-1-1.7-1.6c-1.7-2.4-3.4-4.8-5.1-7.2c-0.7,7.1-1.6,14.5-5.6,20.4c-0.7,1-1.5,1.9-2.5,2.4
		c-1.8,0.8-3.8,0.1-5.6-0.7c-4.1-2-7.8-4.9-10.7-8.4c-3.8,7.2-9.3,13.5-15.9,18.3c-2.2,1.6-4.7,3.1-7.4,2.8
		c0.5-6.3,2.6-12.5,6.2-17.7c-9.6,6.4-20.9,10.3-32.4,11.1c-0.5,0-1.2,0-1.5-0.4c-0.3-0.4-0.2-0.9,0-1.3c1.3-4.4,3.9-8.4,7.5-11.3
		c-5.3,0.3-10.6-0.3-15.6-1.6c-1.2-0.3-2.5-0.8-3.2-1.8c-1.5-2.3,0.8-5.2,3.1-6.7c3.7-2.4,7.7-4.3,11.9-5.6
		c-6-3.7-12.5-7.9-14.9-14.6c3.1,1.9,6.1,4.1,8.7,6.6c-0.4-5.4-2.1-10.6-2.9-15.9S69,302,71.8,297.4c2.8,3.8,5.9,7.4,9.3,10.7
		c1.3-4.8,1.6-9.9,1-14.8c4.6,2,8.9,5,12.3,8.7"/>
	<g id="XMLID_69_">
		<g id="XMLID_98_">
			<path class="st4" d="M55.1,27.9c-3.8-4.2-9.8-7.1-15-9.1c-3.5-1.3-8.3-3.1-12-1.2c-6.4,3.3-6,13.7-6.2,19.8
				c-0.3,8.3,1.3,15.9,10.8,17.5c4.4,0.8,9.6,0,13.7-1.8c4.7-2.1,6.1-5.8,7.2-10.7c0.4-1.9-2.5-2.7-2.9-0.8
				c-1.2,5.4-3.2,8.5-8.8,9.8c-3.2,0.8-6.9,1.1-10.1,0.2c-7.7-2.3-7-9.6-6.8-16.1c0.2-4.4,0-12.5,4.4-15.1c3.5-2,9.5,0.9,12.7,2.5
				c3.8,1.9,8.1,4,11,7.2C54.2,31.5,56.4,29.4,55.1,27.9L55.1,27.9z"/>
		</g>
	</g>
	<g id="XMLID_70_">
		<g id="XMLID_105_">
			<path class="st4" d="M66.6,24.6c-3.4,8.4-8.3,19.6-1.9,27.8c5.3,6.8,17,2.1,23.1-1.1c1.7-0.9,0.2-3.5-1.5-2.6
				c-6,3.1-16.8,7.4-20.7-0.5c-3.3-6.6,1.4-16.5,3.9-22.8C70.2,23.6,67.3,22.8,66.6,24.6L66.6,24.6z"/>
		</g>
	</g>
	<g id="XMLID_71_">
		<g id="XMLID_114_">
			<path class="st4" d="M60,36.5c5,0,10,0,15,0c1.9,0,1.9-3,0-3c-5,0-10,0-15,0C58.1,33.5,58.1,36.5,60,36.5L60,36.5z"/>
		</g>
	</g>
	<g id="XMLID_72_">
		<g id="XMLID_127_">
			<path class="st4" d="M66,24.5c5,0,10,0,15,0c1.9,0,1.9-3,0-3c-5,0-10,0-15,0C64.1,21.5,64.1,24.5,66,24.5L66,24.5z"/>
		</g>
	</g>
	<g id="XMLID_86_">
		<g id="XMLID_135_">
			<path class="st4" d="M105.5,21c0,9.3,0,18.7,0,28c0,1.9,3,1.9,3,0c0-9.3,0-18.7,0-28C108.5,19.1,105.5,19.1,105.5,21L105.5,21z"
				/>
		</g>
	</g>
	<g id="XMLID_87_">
		<g id="XMLID_160_">
			<path class="st4" d="M93.8,26.3c3-1.8,7.6-2.1,11-2.9c4.5-1.1,9.1-2,13.6-2.9c1.9-0.4,1.1-3.3-0.8-2.9c-5.1,1.1-10.2,2-15.3,3.4
				c-3.3,0.9-7.1,1-10.1,2.8C90.6,24.7,92.1,27.3,93.8,26.3L93.8,26.3z"/>
		</g>
	</g>
	<g id="XMLID_88_">
		<g id="XMLID_167_">
			<path class="st4" d="M129.6,25.4c1.2,8.2,2.9,16.3,2.9,24.6c0,1.9,3,1.9,3,0c0-8.6-1.8-16.9-3.1-25.4
				C132.2,22.7,129.3,23.5,129.6,25.4L129.6,25.4z"/>
		</g>
	</g>
	<g id="XMLID_92_">
		<g id="XMLID_174_">
			<path class="st4" d="M125,31.5c4-0.2,8.2-2.7,11.1-5.4c1.4-1.3-0.7-3.5-2.1-2.1c-2.2,2.1-5.8,4.4-8.9,4.6
				C123.1,28.6,123.1,31.6,125,31.5L125,31.5z"/>
		</g>
	</g>
	<g id="XMLID_96_">
		<g id="XMLID_185_">
			<path class="st4" d="M146.6,22.4c1.6,5,2.1,10.3,2.9,15.4c0.5,3-0.2,8.7,2,11.2c4.1,4.7,14.4-0.4,17.7-4c1.3-1.4-0.8-3.6-2.1-2.1
				c-2.4,2.6-5.7,3.9-9.1,4.5c-4.6,0.8-4.5-3.8-5-7.1c-0.9-6.2-1.5-12.7-3.4-18.7C148.9,19.8,146,20.6,146.6,22.4L146.6,22.4z"/>
		</g>
	</g>
	<g id="XMLID_103_">
		<g id="XMLID_192_">
			<path class="st4" d="M148,35.5c3.9-0.4,7.6-1.2,11.4-2.1c1.9-0.4,1.1-3.3-0.8-2.9c-3.5,0.8-7,1.6-10.6,1.9
				C146.1,32.7,146.1,35.7,148,35.5L148,35.5z"/>
		</g>
	</g>
	<g id="XMLID_112_">
		<g id="XMLID_199_">
			<path class="st4" d="M148.8,24.3c4.9-2.3,10-1.8,15.2-1.8c1.9,0,1.9-3,0-3c-5.8,0-11.3-0.4-16.8,2.2
				C145.5,22.5,147,25.1,148.8,24.3L148.8,24.3z"/>
		</g>
	</g>
	<g id="XMLID_125_">
		<g id="XMLID_223_">
			<path class="st4" d="M215.5,57c0-5.3,1.4-10.5,1-15.7c-0.3-3.5-3.6-13,0.6-14.6c4.7-1.8,10.9,4.1,15.9,3.9c1.9-0.1,1.9-3.1,0-3
				c-5.6,0.3-13.6-7.4-18.8-2.7c-2.7,2.3-2.1,6.8-1.7,9.9c0.5,3.8,1.2,7.3,1,11.1c-0.3,3.8-0.9,7.4-1,11.2
				C212.5,58.9,215.5,58.9,215.5,57L215.5,57z"/>
		</g>
	</g>
	<g id="XMLID_133_">
		<g id="XMLID_230_">
			<path class="st4" d="M208,49.5c6.1,0.1,12.2,0.9,17.8-2.2c1.7-0.9,0.2-3.5-1.5-2.6c-5,2.8-10.7,1.9-16.2,1.8
				C206.1,46.5,206.1,49.5,208,49.5L208,49.5z"/>
		</g>
	</g>
	<g id="XMLID_140_">
		<g id="XMLID_237_">
			<path class="st4" d="M257,37.5c-4.6,0-10.7,2.4-11.4,7.5c-0.4,2.6,1,4.6,2.9,6.3c2.3,2,4.9,4.4,7.7,5.7c5.1,2.4,9.6,0.3,11-5.2
				c0.6-2.6,0.6-5.7-0.3-8.2c-1.4-3.9-4.8-4.4-7.8-6.7c-1.5-1.2-3.6,0.9-2.1,2.1c1.4,1.1,2.8,1.7,4.3,2.6c2.5,1.4,3.2,3.7,3.3,6.4
				c0.1,1.7-0.2,3.5-1,5c-1.6,2.7-4.3,2.3-6.8,0.9c-2.2-1.2-7.5-4.8-8-7.3c-1-4.3,5-6.1,8.3-6.2C258.9,40.5,258.9,37.5,257,37.5
				L257,37.5z"/>
		</g>
	</g>
	<g id="XMLID_165_">
		<g id="XMLID_244_">
			<path class="st4" d="M275.2,34.3c1.9,1.4,3.7,3,4.7,5.1c1.3,2.9-0.1,5.2-1.2,7.8c-0.8,1.7,1.8,3.3,2.6,1.5
				c1.5-3.3,3.1-6.3,1.7-9.9c-1.2-3.1-3.6-5.2-6.2-7.1C275.2,30.5,273.7,33.1,275.2,34.3L275.2,34.3z"/>
		</g>
	</g>
	<g id="XMLID_172_">
		<g id="XMLID_251_">
			<path class="st4" d="M272,17.5c2.1,0,4.3-0.4,6.2,0.8c1.7,1,3.2-1.6,1.5-2.6c-2.4-1.5-5-1.3-7.8-1.2
				C270.1,14.5,270.1,17.5,272,17.5L272,17.5z"/>
		</g>
	</g>
	<g id="XMLID_180_">
		<g id="XMLID_258_">
			<path class="st4" d="M313.4,27.6c-3.7-0.6-7.3-4-11.3-3.3c-3.3,0.6-3.9,4.1-2.8,6.8c1.5,3.8,5.2,6.7,8.3,9.3
				c1.2,1,5.5,3.5,3.6,5.4c-0.9,0.9-4.8,0.7-6,0.8c-2,0.1-4.1,0-6.1,0c-1.9,0-1.9,3,0,3c3.2,0,6.4,0.2,9.5-0.3
				c1.6-0.2,4.2-0.3,5.5-1.5c3-2.9-0.7-6.6-2.9-8.4c-3-2.4-7-5.2-8.7-8.8c-0.7-1.4-1.5-3.1,1.2-3.4c1.1-0.1,3.1,1,4.1,1.4
				c1.6,0.7,3.2,1.5,4.9,1.8C314.5,30.7,315.3,27.8,313.4,27.6L313.4,27.6z"/>
		</g>
	</g>
	<g id="XMLID_190_">
		<g id="XMLID_265_">
			<path class="st4" d="M37.2,77.7c-5.2,3.9-9.9,11.5-8.8,18.3c0.9,5.5,7,8.7,12.2,8.3c5.7-0.4,7.8-4.9,7.2-10.1
				c-0.4-3.2-1.6-6.3-2.7-9.3c-1.6-4.5-3.5-5.9-7.2-8.9c-1.5-1.2-3.6,0.9-2.1,2.1c1.7,1.4,3.9,2.6,5.1,4.5c1.3,2,1.9,4.8,2.7,7.1
				c1,3.1,2.8,8.8-0.6,11.1c-4.1,2.7-11.4-1.2-11.8-5.8c-0.4-5.2,3.3-11.5,7.4-14.5C40.3,79.1,38.8,76.5,37.2,77.7L37.2,77.7z"/>
		</g>
	</g>
	<g id="XMLID_197_">
		<g id="XMLID_272_">
			<path class="st4" d="M69.3,95.2c-2.6-5.1-5.5-10.1-7.5-15.5c-0.5-1.3-1.3-2.8-1.3-4.2c-0.2-3.1,1.6-2,3.6-0.8
				c2.8,1.7,5.2,3.9,7.8,5.9c1.6,1.2,3.6,2.2,5,3.6c1.3,1.2,1.9,2.6,3.3,3.5c0.7,0.4,1.7,0.2,2.1-0.5c3.3-6.4,2.3-13.2,2.2-20.1
				c0-1.9-3-1.9-3,0c0.1,6.3,1.2,12.8-1.8,18.6c0.7-0.2,1.4-0.4,2.1-0.5c-1.9-1.2-3.4-3.6-5.3-5c-2-1.4-4-2.9-5.9-4.4
				c-2.5-2-7.1-6.2-10.7-5.3c-8.2,2.1,5.5,23.7,6.9,26.5C67.6,98.5,70.2,97,69.3,95.2L69.3,95.2z"/>
		</g>
	</g>
	<g id="XMLID_221_">
		<g id="XMLID_279_">
			<path class="st4" d="M119.5,78c0,8.3,2.4,16.3,4.1,24.4c0.4,1.9,3.3,1.1,2.9-0.8c-1.6-7.8-3.9-15.5-3.9-23.6
				C122.5,76.1,119.5,76.1,119.5,78L119.5,78z"/>
		</g>
	</g>
	<g id="XMLID_228_">
		<g id="XMLID_286_">
			<path class="st4" d="M106,80.5c6.9,0,13.7-0.1,20.6,0c4.3,0.1,8.5,0.3,12.2-2.2c1.6-1.1,0.1-3.7-1.5-2.6
				c-3.9,2.7-9.3,1.8-13.8,1.8c-5.8,0-11.6,0-17.4,0C104.1,77.5,104.1,80.5,106,80.5L106,80.5z"/>
		</g>
	</g>
	<g id="XMLID_235_">
		<g id="XMLID_293_">
			<path class="st4" d="M148.5,73c0,4.5,0.3,8.9,0.3,13.4c0,2.6-0.3,4.8-0.7,7.4c-0.1,0.7-0.3,1.5,0,2.1c1.9,5,11.3,0,14.3-0.5
				c1.9-0.3,1.1-3.2-0.8-2.9c-2.6,0.4-4.8,1.6-7.3,2.1c-3.7,0.8-2.6-2.4-2.5-4.9c0.3-5.6-0.2-11.2-0.3-16.7
				C151.5,71.1,148.5,71.1,148.5,73L148.5,73z"/>
		</g>
	</g>
	<g id="XMLID_242_">
		<g id="XMLID_300_">
			<path class="st4" d="M149,85.5c5.7,0,11.3,0,17,0c1.9,0,1.9-3,0-3c-5.7,0-11.3,0-17,0C147.1,82.5,147.1,85.5,149,85.5L149,85.5z"
				/>
		</g>
	</g>
	<g id="XMLID_249_">
		<g id="XMLID_307_">
			<path class="st4" d="M148,73.5c7.3,0,14.7,0,22,0c1.9,0,1.9-3,0-3c-7.3,0-14.7,0-22,0C146.1,70.5,146.1,73.5,148,73.5L148,73.5z"
				/>
		</g>
	</g>
	<g id="XMLID_256_">
		<g id="XMLID_314_">
			<path class="st4" d="M212.4,75.6c-4.4-0.7-8.4-2.1-12.9-2.2c-3.5,0-7.9-0.6-11.3,0.5c-6.8,2.1-2.2,7.9,1.1,10.7
				c2.8,2.3,5.8,4.4,9.2,5.7c2.6,1,4,0.6,5.2,3.4c1.1,2.5,0.6,2.9-1.1,4.6c-0.8,0.8-1.8,1.5-2.7,2.1c-3.2,2.1-7.1,3.2-10.8,4.1
				c-1.9,0.4-4.3,1.2-6.2,1c-2.6-0.3-3.5-2-4.6-4.1c-0.9-1.7-3.4-0.2-2.6,1.5c3.1,6.2,7.3,6.1,13.6,4.7c6.6-1.5,15.2-4.2,18.3-10.8
				c3.5-7.4-6.1-8-10.5-10.4c-2.3-1.2-4.9-2.7-6.5-4.7c-0.5-0.4-0.9-0.8-1.4-1.2c0.5-1.3,1-2.5,1.5-3.8c0.5-0.3,2.4,0,2.9-0.1
				c2.8-0.1,5.7-0.3,8.4,0c3.2,0.3,6.3,1.5,9.5,2C213.5,78.8,214.3,75.9,212.4,75.6L212.4,75.6z"/>
		</g>
	</g>
	<g id="XMLID_263_">
		<g id="XMLID_321_">
			<path class="st4" d="M226.5,72c0,3.9,0.8,7.8,1,11.8c0.1,2.3,1.1,6.3-0.6,8.2c-1.3,1.4,0.8,3.6,2.1,2.1c1.9-2.1,1.7-4.8,1.6-7.5
				c-0.3-4.9-1.1-9.7-1.2-14.6C229.5,70.1,226.5,70.1,226.5,72L226.5,72z"/>
		</g>
	</g>
	<g id="XMLID_270_">
		<g id="XMLID_328_">
			<path class="st4" d="M217,71.5c6,0,12,0,18,0c1.9,0,1.9-3,0-3c-6,0-12,0-18,0C215.1,68.5,215.1,71.5,217,71.5L217,71.5z"/>
		</g>
	</g>
	<g id="XMLID_277_">
		<g id="XMLID_335_">
			<path class="st4" d="M245.6,71.6c-0.8,3.9-1.6,7.7-2.5,11.5c-0.5,2.2-0.3,4.1,1.5,5.6c4.3,3.6,10.7,2,15.1-0.4
				c1.7-0.9,0.2-3.5-1.5-2.6c-3,1.6-9.6,4-11.9,0.1c-0.9-1.6,0.1-4.2,0.5-6.1c0.5-2.5,1.1-4.9,1.6-7.4
				C248.8,70.5,245.9,69.7,245.6,71.6L245.6,71.6z"/>
		</g>
	</g>
	<g id="XMLID_284_">
		<g id="XMLID_342_">
			<path class="st4" d="M248.1,79.1c1.7-1.4,4.9-0.6,6.9-0.6c1.9,0,1.9-3,0-3c-3.1,0-6.4-0.8-9.1,1.4
				C244.5,78.2,246.6,80.3,248.1,79.1L248.1,79.1z"/>
		</g>
	</g>
	<g id="XMLID_291_">
		<g id="XMLID_349_">
			<path class="st4" d="M245.4,73.4c4.2-0.7,8.4-0.9,12.6-0.9c1.9,0,1.9-3,0-3c-4.5,0-8.9,0.3-13.4,1.1
				C242.7,70.9,243.5,73.8,245.4,73.4L245.4,73.4z"/>
		</g>
	</g>
	<g id="XMLID_298_">
		<g id="XMLID_356_">
			<path class="st4" d="M47.3,137.2c-2.5-3.9-6.9-4.2-11.3-4.3c-4.4-0.1-7.3,3.1-6.4,7.5c1,4.7,5.9,7.5,10,9.1
				c5.4,2.2,9.5-1,13.4-4.5c1.4-1.3-0.7-3.4-2.1-2.1c-2.6,2.3-5.6,5.3-9.4,4.2c-2.5-0.7-5.6-2.5-7.3-4.4c-0.9-1-2.4-3.4-1.7-4.9
				c1.1-2.1,3.3-2,5.2-1.8c2.7,0.3,5.3,0,6.9,2.6C45.7,140.4,48.3,138.9,47.3,137.2L47.3,137.2z"/>
		</g>
	</g>
	<g id="XMLID_305_">
		<g id="XMLID_363_">
			<path class="st4" d="M75.3,151.2c-1.5-3-2.6-6.1-4-9.1c-1.2-2.6-5.8-7.3-1.7-9c4.3-1.8,6,1.7,6.7,5.3c0.6,2.8,1.6,5.3,2.2,8
				c0.5,1.9,3.3,1.1,2.9-0.8c-0.7-2.7-1.7-5.2-2.2-8c-0.3-1.7-0.8-3.6-1.8-5.2c-2.1-3.2-5.8-3.4-9.1-2c-2.7,1.1-4.5,3.4-3.4,6.4
				c0.8,2.4,2.7,4.5,3.8,6.8c1.4,3,2.5,6.1,4,9.1C73.6,154.5,76.2,153,75.3,151.2L75.3,151.2z"/>
		</g>
	</g>
	<g id="XMLID_312_">
		<g id="XMLID_370_">
			<path class="st4" d="M65,142.5c5.3,0,10.8,0.2,15.1-3.4c1.5-1.3-0.7-3.4-2.1-2.1c-3.5,3-8.6,2.5-12.9,2.6
				C63.1,139.5,63.1,142.5,65,142.5L65,142.5z"/>
		</g>
	</g>
	<g id="XMLID_319_">
		<g id="XMLID_377_">
			<path class="st4" d="M91.3,140.2c-1.3-2.5-8.8-11.6-6.3-14.1c1.8-1.8,6.9-1,9.1-0.8c1.1,0.1,2.3,0,3.4,0.2
				c2.4,0.3,3.3,0.8,1.8,3.3c-2.4,3.9-6.6,3.6-10.7,3.7c-1.9,0-1.9,3,0,3c5.5-0.1,10.8,0.2,14.1,5.3c1,1.6,3.6,0.1,2.6-1.5
				c-3.9-6.1-9.9-6.8-16.7-6.7c0,1,0,2,0,3c5.8-0.1,10.8-0.4,13.7-6c0.8-1.6,1.7-3.6,0.7-5.3c-1.3-2.3-4-1.7-6.2-1.8
				c-4.2-0.1-10.6-1.5-14.1,1.6c-5,4.5,3.8,13.7,5.9,17.7C89.6,143.5,92.2,142,91.3,140.2L91.3,140.2z"/>
		</g>
	</g>
	<g id="XMLID_326_">
		<g id="XMLID_384_">
			<path class="st4" d="M116.5,148c0.3-5.7-9.2-15.5-4.3-20c2.7-2.5,6.2-2.7,7.8,0.9c1,2.2,2.2,4.9-1.5,5.9c-1.2,0.3-2.9-0.2-4-0.3
				c-1.7-0.2-2.1,2.6-0.4,2.9c4.3,0.8,10.8,3.3,13.9,6.7c1.3,1.4,3.4-0.7,2.1-2.1c-3.5-3.8-10.3-6.6-15.2-7.5c-0.1,1-0.3,2-0.4,2.9
				c3.7,0.4,9.1,0.9,9.6-4.1c0.4-3.5-2.2-10.2-6.3-10.7c-3-0.3-8.7,2.7-9.7,5.6c-2.5,6.8,5.7,13.5,5.5,19.8
				C113.4,149.9,116.4,149.9,116.5,148L116.5,148z"/>
		</g>
	</g>
	<g id="XMLID_333_">
		<g id="XMLID_391_">
			<path class="st4" d="M134.2,123.3c5.4,3.8,4.9,11.9,10.1,16c1.9,1.5,3.8,2.1,6.1,1c3.1-1.4,6.9-3.1,9.6-5.3
				c1.5-1.2-0.6-3.3-2.1-2.1c-1.7,1.3-5.7,3.4-7.9,4.1c-4.7,1.6-6.4-3.2-7.9-6.7c-1.6-3.8-3-7.3-6.4-9.7
				C134.2,119.6,132.7,122.2,134.2,123.3L134.2,123.3z"/>
		</g>
	</g>
	<g id="XMLID_340_">
		<g id="XMLID_398_">
			<path class="st4" d="M141,128.5c3.7,0,7.3-1,11-1c1.9,0,1.9-3,0-3c-3.7,0-7.3,1-11,1C139.1,125.5,139.1,128.5,141,128.5
				L141,128.5z"/>
		</g>
	</g>
	<g id="XMLID_347_">
		<g id="XMLID_405_">
			<path class="st4" d="M136.1,123.1c2.3-2.2,5.5-2.6,8.3-3.8c3.2-1.4,6.1-3.3,9.6-3.7c1.9-0.2,1.9-3.2,0-3
				c-4.2,0.5-7.4,2.6-11.3,4.2c-3.1,1.3-6.3,1.8-8.8,4.2C132.6,122.3,134.7,124.4,136.1,123.1L136.1,123.1z"/>
		</g>
	</g>
	<g id="XMLID_354_">
		<g id="XMLID_412_">
			<path class="st4" d="M138.5,114c0-2.6-0.6-5.1,1.6-6.9c1.5-1.2-0.7-3.4-2.1-2.1c-2.9,2.4-2.4,5.6-2.4,9.1
				C135.5,115.9,138.5,115.9,138.5,114L138.5,114z"/>
		</g>
	</g>
	<g id="XMLID_361_">
		<g id="XMLID_419_">
			<path class="st4" d="M170.5,142c-0.1-5.6-0.6-11.2,0.1-16.8c-0.4,0.5-0.7,1-1.1,1.4c3.3-1,6.8,9.1,8.7,11.1
				c0.3,0.4,1,0.6,1.5,0.4c4.7-1.8,5.1-8.1,6.1-12.4c0.3-1.2,0.2-2.9,1.5-3.3c2-0.7,3.2,3.8,3.8,5.4c1.5,4.1,2.7,8.8,2.4,13.2
				c-0.1,1.9,2.9,1.9,3,0c0.4-6-1.5-15-5.4-19.9c-2.8-3.6-6.3-3-7.7,1.3c-0.8,2.4-1.1,4.9-1.7,7.3c-0.2,0.8-1.2,5.2-2,5.3
				c-0.4,0-1.8-3.1-2-3.6c-1.8-3.2-4.4-9.1-9-7.6c-0.7,0.2-1,0.8-1.1,1.4c-0.7,5.6-0.1,11.2-0.1,16.8
				C167.5,143.9,170.5,143.9,170.5,142L170.5,142z"/>
		</g>
	</g>
	<g id="XMLID_368_">
		<g id="XMLID_426_">
			<path class="st4" d="M198.9,119.1c4.9,4.3,6.8,19.2,14.8,19.3c3.8,0.1,6.3-3.5,9-5.5c3.8-2.9,8.9-3.2,12.3-6.8
				c1.3-1.4-0.8-3.5-2.1-2.1c-2.8,2.8-6.8,3.3-10.1,5.2c-3.3,1.9-5.2,5.9-9.2,5.3c-3.8-0.5-5.2-5.2-6.7-8.4c-1.6-3.4-3-6.5-5.8-9
				C199.6,115.7,197.5,117.8,198.9,119.1L198.9,119.1z"/>
		</g>
	</g>
	<g id="XMLID_375_">
		<g id="XMLID_433_">
			<path class="st4" d="M207.1,126.1c2.1-1.9,4.1-3.8,6.4-5.4c1.8-1.3,3.9-2.1,5.6-3.6c1.4-1.3-0.7-3.4-2.1-2.1
				c-1.9,1.7-4.3,2.6-6.3,4.1c-2,1.5-3.8,3.2-5.7,4.9C203.5,125.2,205.6,127.4,207.1,126.1L207.1,126.1z"/>
		</g>
	</g>
	<g id="XMLID_382_">
		<g id="XMLID_440_">
			<path class="st4" d="M204.4,119.4c0.5-1.6,2.6-2.9,3.9-3.8c1.8-1.2,3.9-1.8,6.1-2.2c1.9-0.3,1.1-3.2-0.8-2.9
				c-4.3,0.7-10.6,3.5-12,8C201,120.4,203.9,121.2,204.4,119.4L204.4,119.4z"/>
		</g>
	</g>
	<g id="XMLID_389_">
		<g id="XMLID_447_">
			<path class="st4" d="M245.4,135.6c-0.8-4.2-3.5-7.5-4.5-11.6c-0.4-1.9-1.2-5.6-0.3-7.5c1.7-4,4.1-2.1,5.8,0.4
				c1.9,2.9,3.4,6.2,5,9.2c1.2,2.3,2.4,4.5,3.5,6.8c0.6,1.2,1.1,3.3,2.1,4.2c7.9,7.4,12.6-19.8,14.2-22.4c1-1.6-1.6-3.2-2.6-1.5
				c-1.9,3.2-1.9,6.7-2.9,10.2c-0.9,3.1-2.2,6.4-3.8,9.2c-2.1,3.6-3.2,1.4-4.4-1.2c-1.2-2.6-2.6-5.2-3.9-7.7
				c-1.7-3.2-3.2-6.7-5.4-9.6c-2.7-3.6-7.4-5.3-9.8-0.4c-4,8.1,2.8,15.2,4.2,22.6C242.9,138.3,245.8,137.5,245.4,135.6L245.4,135.6z
				"/>
		</g>
	</g>
	<g id="XMLID_396_">
		<g id="XMLID_454_">
			<path class="st4" d="M286.6,110.4c1.1,6.5,3.3,12.9,2.9,19.6c-0.1,1.9,2.9,1.9,3,0c0.4-7-1.9-13.6-3.1-20.4
				C289.1,107.7,286.2,108.5,286.6,110.4L286.6,110.4z"/>
		</g>
	</g>
	<g id="XMLID_403_">
		<g id="XMLID_461_">
			<path class="st4" d="M274.2,106.3c4.2,2,8.5,3.8,12.9,5.3c4.6,1.5,9.8,1.4,14.1,3.7c1.7,0.9,3.2-1.7,1.5-2.6
				c-3.7-1.9-7.5-2-11.4-2.9c-5.4-1.3-10.6-3.6-15.6-6.1C274,102.9,272.5,105.4,274.2,106.3L274.2,106.3z"/>
		</g>
	</g>
	<g id="XMLID_410_">
		<g id="XMLID_468_">
			<path class="st4" d="M43.5,184c-0.1,5.8-1.6,13.7,3.4,18c2.9,2.5,9.2,4.9,12.8,2.5c7.2-4.7-0.6-18.2-0.2-24.5
				c0.1-1.9-2.9-1.9-3,0c-0.4,6.1,3.1,12,2.9,18.1c-0.2,5.6-5.5,4.8-9.3,2.4c-5.4-3.3-3.7-11.2-3.6-16.6
				C46.5,182.1,43.5,182.1,43.5,184L43.5,184z"/>
		</g>
	</g>
	<g id="XMLID_417_">
		<g id="XMLID_475_">
			<path class="st4" d="M72.3,203.8c5.3-7.1-1.7-17.8,0.5-25.4c-0.8,0.2-1.7,0.4-2.5,0.7c3.1,3.5,6.2,7,9.2,10.6
				c1.4,1.7,2.4,2.8,4.6,3.1c0.5,0.1,1.1-0.3,1.3-0.7c2.1-4.5,0.5-12.2,3.7-15.8c1.3-1.4-0.8-3.6-2.1-2.1c-2.8,3.1-2.4,7.8-2.9,11.7
				c-0.1,0.8-0.3,1.7-0.4,2.5c-1.1,1-1.8,0.7-2.3-1c-0.5-0.5-1-1.4-1.5-1.9c-2.4-2.8-5-5.5-7.5-8.3c-0.8-0.9-2.2-0.4-2.5,0.7
				c-1.2,4.4,0,8.7,0.6,13.1c0.5,3.5,1.5,8.5-0.7,11.6C68.6,203.8,71.2,205.3,72.3,203.8L72.3,203.8z"/>
		</g>
	</g>
	<g id="XMLID_424_">
		<g id="XMLID_482_">
			<path class="st4" d="M127.6,178.6c-3.9,9.7-7.8,19.3-12.3,28.8c-1.7,3.7-3.1,9.4-6,12.1c-3.9,3.6-9.3,0.4-8.7-4.5
				c0.2-1.9-2.8-1.9-3,0c-0.9,8.3,9.4,12.1,14.6,5.8c1.8-2.1,2.6-4.9,3.7-7.4c1.6-3.7,3.5-7.4,5.2-11.1c3.6-7.5,6.4-15.2,9.4-22.9
				C131.2,177.6,128.3,176.8,127.6,178.6L127.6,178.6z"/>
		</g>
	</g>
	<g id="XMLID_431_">
		<g id="XMLID_489_">
			<path class="st4" d="M139.7,182.2c-2,4.6-4.4,9-6.6,13.5c-1.2,2.5-3.1,7-1.3,9.6c1.3,1.9,4.6,1.4,6.6,1c4.9-1,9.4-3.1,14.6-2.9
				c1.9,0.1,1.9-2.9,0-3c-3-0.1-5.7,0.4-8.6,1.1c-1.9,0.4-6.9,2.9-8.8,2.1c-3.9-1.6,5.4-17.1,6.7-20
				C143.1,182,140.5,180.5,139.7,182.2L139.7,182.2z"/>
		</g>
	</g>
	<g id="XMLID_438_">
		<g id="XMLID_496_">
			<path class="st4" d="M136,194.5c5.6-0.1,11-1.3,16.5-2c2-0.3,4-0.4,6-0.9c2.4-0.6,4.4-1.8,6.8-2.2c1.9-0.3,1.1-3.2-0.8-2.9
				c-1.8,0.3-3.4,1.1-5.1,1.7c-2.8,1-5.7,1.1-8.6,1.5c-5,0.7-9.9,1.7-14.9,1.8C134.1,191.5,134.1,194.5,136,194.5L136,194.5z"/>
		</g>
	</g>
	<g id="XMLID_445_">
		<g id="XMLID_503_">
			<path class="st4" d="M142.4,183.4c10.9-3.6,22.4-4.6,33-9c1.8-0.7,1-3.6-0.8-2.9c-10.6,4.4-22.1,5.4-33,9
				C139.8,181.2,140.6,184.1,142.4,183.4L142.4,183.4z"/>
		</g>
	</g>
	<g id="XMLID_452_">
		<g id="XMLID_510_">
			<path class="st4" d="M190.5,165c-0.8,6-6.6,9.5-4.2,15.9c2.1,5.6,7.8,8.9,12.9,11.1c0.5,0.2,1.1,0.3,1.5,0
				c3.6-2.8,5.1-6.6,6.7-10.7c2-5,5.8-9.1,6.1-14.6c-1,0-2,0-3,0c0,5-1.2,9.3-2.5,13.9c-0.7,2.2-0.8,4.1,1.1,5.6
				c1.7,1.3,4.5,1.6,6.5,0.9c3.4-1.2,4.1-5,6.5-7.3c1.4-1.3-0.7-3.4-2.1-2.1c-1.3,1.2-1.9,2.7-3,4.1c-2.2,2.9-7,3.7-5.9-1.1
				c1.2-4.8,2.4-9.1,2.4-14.2c0-1.9-2.9-1.9-3,0c-0.3,4.6-3.8,8.3-5.6,12.5c-0.9,2.1-1.6,4.4-2.7,6.4c-1.6,2.9-2.5,3.5-5.3,1.9
				c-4.8-2.7-10-7.3-7.4-13.2c1.4-3.3,3.5-5.8,4-9.5C193.7,163.1,190.7,163.1,190.5,165L190.5,165z"/>
		</g>
	</g>
	<g id="XMLID_641_">
		<path id="XMLID_220_" class="st5" d="M725.2,30.7c-1.8,4.8-1.2,10.9-1.4,16c-0.2,3.6-0.6,7.1-1,10.7c-0.1,1.4-0.6,3.9-0.3,5.3
			c0.5,1.9,4,1.4,5.5,1.5c5.7,0.1,11.5-0.7,17.2-0.8c14.7-0.3,29.4,0,44,0c8.7,0,17.6,0.5,26.3-0.1c1.7-0.3,3.5-0.4,5.2-0.5
			c0.4,0,0.8,0.1,1.3,0.1c1.4-0.7,1.7-1.9,1.9-3.4c1.2-7-0.3-15.1-1.1-22.1c-0.2-2-0.8-4-0.9-6.1c-0.1-1.8,0.2-2.1-1.6-2.9
			c-2.6-1-6-0.4-8.7-0.4c-5.1,0-10.1,0-15.2,0c-6.6,0-13.2,0-19.8,0c-9.2,0-18.1,1.4-27.3,1.3c-3,0-5.7,0.6-8.6,0.7
			c-2.2,0.1-4.5,0-6.7,0c-2.9,0-9.1,0-9.1,0"/>
	</g>
	<g id="XMLID_648_">
		<g id="XMLID_702_">
			<path class="st4" d="M728.8,53.7c0.2-1.3,0.5-2.5,0.6-3.8c0.2-1.3-0.1-2.6,0.1-3.9c0.2-1.4,0.7-2.6,1.3-3.9
				c0.4-0.8,0.3-1.6,0.9-1.3c1,0.6,1.5,2.8,1.9,3.8c0.8,2.2,2.2,4.3,2.3,6.7c0.1,1.9,3.1,1.9,3,0c-0.1-3.1-1.7-6.1-2.9-8.9
				c-0.7-1.7-1.8-4.2-3.7-4.9c-2.4-0.9-3.4,1.6-4.2,3.3c-1.7,4-1.5,7.8-2.1,12C725.6,54.8,728.5,55.6,728.8,53.7L728.8,53.7z"/>
		</g>
	</g>
	<g id="XMLID_655_">
		<g id="XMLID_709_">
			<path class="st4" d="M728.3,46.4c2.2,1.9,5.4,1.3,7.8,0.2c1.8-0.8,0.2-3.3-1.5-2.6c-1,0.5-3.2,1.1-4.2,0.2
				C728.9,43,726.8,45.1,728.3,46.4L728.3,46.4z"/>
		</g>
	</g>
	<g id="XMLID_662_">
		<g id="XMLID_716_">
			<path class="st4" d="M737.8,38.7c0.3,3.4,1.9,6.1,3.6,9c1.1,1.9,2,4.6,4.2,5.5c0.5,0.2,1.1,0,1.5-0.4c1.5-1.6,2.1-3.6,2.3-5.8
				c0.3-2.7,0.8-5.6,0.8-8.3c0-1.9-3-1.9-3,0c0,2.1-0.6,4.3-0.7,6.4c-0.1,1.9-0.2,4.1-1.6,5.6c0.5-0.1,1-0.3,1.5-0.4
				c-1-0.4-2-3.5-2.6-4.4c-1.3-2.2-2.7-4.4-3-7.1C740.7,36.8,737.7,36.7,737.8,38.7L737.8,38.7z"/>
		</g>
	</g>
	<g id="XMLID_669_">
		<g id="XMLID_723_">
			<path class="st4" d="M753.2,37.6c-0.6,4.2-3.1,9.9-0.3,13.8c2.1,2.9,6.5,1.7,8.8-0.3c1.5-1.3-0.7-3.4-2.1-2.1
				c-0.7,0.6-2.1,1.3-3.1,1.2c-1.7-0.2-1.8-2.4-1.8-3.8c0.1-2.7,1-5.3,1.4-8C756.4,36.5,753.5,35.7,753.2,37.6L753.2,37.6z"/>
		</g>
	</g>
	<g id="XMLID_676_">
		<g id="XMLID_730_">
			<path class="st4" d="M752.7,44.2c2.1,0,4.1,0,6.1-0.9c0.8-0.3,0.9-1.4,0.5-2.1c-0.4-0.8-1.3-0.9-2.1-0.5c-1.4,0.6-3,0.5-4.6,0.5
				C750.7,41.2,750.7,44.2,752.7,44.2L752.7,44.2z"/>
		</g>
	</g>
	<g id="XMLID_683_">
		<g id="XMLID_737_">
			<path class="st4" d="M753.3,38.2c2.9,0,5.8,0,8.7,0c1.9,0,1.9-3,0-3c-2.9,0-5.8,0-8.7,0C751.4,35.2,751.4,38.2,753.3,38.2
				L753.3,38.2z"/>
		</g>
	</g>
	<g id="XMLID_690_">
		<g id="XMLID_744_">
			<path class="st4" d="M772.7,36.5c-2.3-0.1-5.3-0.9-7.4,0.4c-1.7,1-3.5,3.6-3.8,5.6c-0.3,2.2,1.2,3.5,3.1,4.3
				c2.8,1.1,5.7,2.1,8.7,2.2c1.9,0,1.9-3,0-3c-2.2,0-4.1-0.7-6.1-1.4c-1.1-0.4-3.1-0.6-2.6-2.1c0.4-1.2,1.6-2.8,2.8-3.1
				c1.7-0.3,3.6,0.2,5.2,0.2C774.6,39.5,774.6,36.5,772.7,36.5L772.7,36.5z"/>
		</g>
	</g>
	<g id="XMLID_698_">
		<g id="XMLID_751_">
			<path class="st4" d="M770,55.5c4.7-0.1,9.3-1.2,14-1.3c1.9-0.1,1.9-3.1,0-3c-4.7,0.2-9.3,1.3-14,1.3
				C768.1,52.5,768.1,55.5,770,55.5L770,55.5z"/>
		</g>
	</g>
	<g id="XMLID_700_">
		<g id="XMLID_758_">
			<path class="st4" d="M786.5,38.7c0.2,2.2,0.8,4.2,1.8,6.2c1,1.9,2.4,3.6,3,5.7c0.7,2.1,1.7,4.8,4.3,2.9c3.4-2.4,3.4-9.1,3.8-12.8
				c0.2-1.9-2.8-1.9-3,0c-0.2,1.5-1,10.6-2.9,10.4c0.4,0.2,0.9,0.5,1.3,0.7c-1-1.8-1.3-3.8-2.4-5.6c-1.4-2.3-2.7-4.7-3-7.5
				C789.3,36.8,786.3,36.7,786.5,38.7L786.5,38.7z"/>
		</g>
	</g>
	<g id="XMLID_102_">
		<g id="XMLID_248_">
			<path id="XMLID_276_" class="st4" d="M806.4,44.9c0.4-2.2,2.1-4.7,4.1-5.8c0.8-0.5,0.3-0.8,0.8-0.1c0.3,0.3,0.1,1.5,0.1,1.9
				c0.1,2.1,0.3,4.3,0.4,6.4c0.1,2.1,1,4.2,1.1,6.3c0,1.9,3,1.9,3,0c0-1.6-0.6-2.9-0.9-4.4c-0.5-2.4-0.4-5.1-0.6-7.5
				c-0.1-1.7,0.2-4.4-1.1-5.8c-3.4-3.5-9.4,5.5-9.8,8.3C803.2,46,806.1,46.8,806.4,44.9L806.4,44.9z"/>
		</g>
	</g>
	<path id="XMLID_111_" class="st6" d="M45,525c1.5-2.4,3.4-4.4,4.8-6.9c1.5-2.8,2.6-5.8,4.3-8.6c1.3-2.2,2.9-4.3,4-6.6
		c0.9-1.9,1.3-4.4,3.9-4.7C67,502.6,69.4,511,72,517c1.1,2.5,1.9,7,4,9"/>
	<path id="XMLID_124_" class="st6" d="M52,516c4.2,0.5,7.9-1.8,12-2"/>
	<path id="XMLID_132_" class="st6" d="M82,496c0.1,2.6,2.2,5.5,3,7.9c1,3,1.9,6,3,8.9c1.6,4.4,4.5,8.8,9.2,10.3
		c13.8,4.2,10.4-19.9,6.8-27.1"/>
	<path id="XMLID_139_" class="st6" d="M147,533c0.7-5-2-10.6-2.5-15.5c-0.6-4.8-1.4-11.1-0.5-15.9c0.7-3.8,3.8-2.7,6.6-1.7
		c1.8,0.6,3.8,0.7,5.4,1.3c3,1.1,3.8,4.2,5.1,6.9c1.4,3.1,3.2,6.8,0,9.6c-3.4,3-11.7,1.4-16,1.4"/>
	<path id="XMLID_164_" class="st6" d="M183,505c-4.8-0.2-15,3.3-12.3,9.8c2.1,5.1,11.3,8,16.4,8.3c7.9,0.5,4.9-10.9,2.4-15.1
		c-1.5-2.5-7.5-7.9-10.5-4"/>
	<path id="XMLID_171_" class="st6" d="M164,494c2.9-1.4,5.8-2.9,8-5.2c1.6-1.6,3.8-5.2,6.2-6c3.2-1.1,4.8,3.9,6.2,6.1
		c1.1,1.6,2.2,3.6,3.5,5c0.9,0.9,2,1.2,3,2.1"/>
	<path id="XMLID_189_" class="st6" d="M210,490c0,5.2,0,10.4,0,15.5c0,2.7,0,5.3-0.5,8c-0.2,1.3-1.3,3.3-0.9,4.6
		c7.1,3,14.9-2.8,22.3-2.1"/>
	<path id="XMLID_234_" class="st6" d="M240.5,485c0,3.8,0,7.6,0,11.4c0,2.5,0.3,5.1,0.2,7.6c0,2.5-0.6,6.4,0.3,8.7
		c2.2,5.8,6.8,1.8,10.7,1.2"/>
	<path id="XMLID_283_" class="st6" d="M241,499c3.8-0.6,7.1-1,11-1"/>
	<path id="XMLID_332_" class="st6" d="M241,486c1.9-1.9,6.1-1,8.5-1c3.5,0,7,0,10.5,0"/>
	<path id="XMLID_381_" class="st6" d="M290.5,527c0-4.4,0-8.7,0-13.1c0-6.4-0.6-13.4,0.1-19.7c0.4-3.9,3.8-4.2,7.2-4.3
		c2.2-0.1,7.2-0.9,9.2,0.4c3.1,2,2.8,11.2,0.8,13.5c-2.8,3.2-7.3,3.1-11.1,3.2"/>
	<path id="XMLID_430_" class="st6" d="M329,491c-3,3.6-3.9,9.7-5.1,14.2c-1.3,5.2-1.1,10.7-2.9,15.8"/>
	<path id="XMLID_479_" class="st6" d="M343,496c0,5,0.3,10.2-0.2,15.2c-0.4,4.4-2.4,9.4-1.8,13.8"/>
	<path id="XMLID_514_" class="st6" d="M323,509c4.8-0.4,9.2-2,14-2c2.7,0,5.3,0,8,0"/>
	<path id="XMLID_523_" class="st6" d="M368,491c-2.7,0-8.1,3.4-9.4,5.6c-1.4,2.3-1.5,6.7-0.9,9.3c1.1,4.9,3.1,7.4,7.5,9.9
		c3.9,2.2,9.8,3.5,13.9,0.8c5.8-4,2.6-13.5-1.7-17.4c-2.4-2.1-4.5-2.4-7.3-3.4c-2.3-0.8-4.5-2.5-7-2.8"/>
	<path id="XMLID_531_" class="st6" d="M406,520c0-4.4,0.2-8.6-0.6-12.9c-0.7-4-2.2-8-2.4-12.1"/>
	<path id="XMLID_539_" class="st6" d="M389,494.5c7.7,0,15.3,0,23,0c3.1,0,10.5,1.5,13-1"/>
	<path id="XMLID_547_" class="st6" d="M444,497c-4,0.8-5.5,3.6-7,7.2c-1.7,4.2-3.8,8.4-4.6,12.9c-0.7,3.7,1.5,5,4.7,6.4
		c3.8,1.6,9.1,2.1,13,0.4c3.1-1.4,3.2-6.5,3.7-9.6c0.4-2.9,0.9-7.4-0.7-10.1c-2.8-4.4-8-7.5-13.1-8.2"/>
	<path id="XMLID_588_" class="st6" d="M491,508c1.6-2.5,3.5-3.7,5.9-5.6c3.6-2.9,6.7-6.4,10.3-9.3c2.1-1.6,4.1-3.1,6.1-4.9
		c1.4-1.2,3.1-2.5,5-2.9c1.2,2.3-0.2,5.3-0.6,7.7c-1.1,5.8-1.9,11.6-2.6,17.4c-0.7,5.4-2.6,12-2,17.5"/>
	<path id="XMLID_595_" class="st6" d="M558,487c-3.7-0.5-8.9,2.5-12,4.2c-3.8,2-5.8,5.9-6.8,10c-1.1,4.5-3.3,11.1-2,15.8
		c1.3,4.6,5.9,7.3,10.3,7.9c5,0.7,15.7,0.2,18.7-4.9c1.9-3.4,2.2-7.4-0.2-10.5c-3.3-4.3-10.6-5.6-15.8-5.6c-5.9,0-12,4.4-15.2,9.1"
		/>
	<path id="XMLID_596_" class="st6" d="M595.5,487c0,13,0,26,0,39"/>
	<path id="XMLID_603_" class="st6" d="M621,493c0.3,4.2-0.8,9.1-1.2,13.2c-0.4,4-1.1,7.8-1.8,11.8"/>
	<path id="XMLID_604_" class="st6" d="M592,514c1.7-1.4,4.2-1.5,6.2-2.2c2.6-0.9,5.2-1.8,7.8-2.8c2.6-1,5.3-1.4,8-2.2
		c2.9-0.9,4.9-2.5,8-2.8"/>
	<path id="XMLID_605_" class="st6" d="M672,492c0,4.5,0,8.7-0.7,13.2c-0.6,3.7-1,7.3-1.3,10.9c-0.1,2.2-0.1,4.5-1.4,6.3
		c-4.5,6.2-15.2,1.9-15.6-5.4"/>
	<path id="XMLID_611_" class="st6" d="M689,489c-1.3,4.1-1,7.7-1,12c0,4.6-0.5,9.6-0.1,14.2c0.8,8.8,16.4-1.6,21.1-2.1"/>
	<path id="XMLID_614_" class="st6" d="M688,500c5.2,0.1,9.9-1.7,15-2"/>
	<path id="XMLID_621_" class="st6" d="M691,489c3.6,0,7.8-1.9,11.4-2.5c3.4-0.6,7.1-1.9,10.6-1.5"/>
	<path id="XMLID_629_" class="st6" d="M723,483c1.2,6.3,2,12.6,3,18.9c0.7,4.2,1.5,12.5,6.8,13.9c6.7,1.8,6.2-10,6.6-14.1
		c0.6-7,0.7-13.8,0.7-20.8"/>
	<path id="XMLID_637_" class="st6" d="M755,515c2.5-6.3,2-12.2,2-18.9c0-1.7-1.1-9.6,0.6-10.6c2.4-1.4,8.4,4.2,10.4,5.5
		c3.8,2.6,10,4.5,13,8.2c4.3,5.3-3.6,10.3-7.7,12c-2.8,1.2-5.3,3.8-8.3,4.6c-3,0.8-5.4-0.5-8-1.8"/>
	<path id="XMLID_645_" class="st6" d="M795,494c1.7,1.6,1,5.7,1,7.6c0,3.6,0.1,7.2-0.1,10.8c-0.3,5.2-0.9,10.4-0.9,15.6"/>
	<path id="XMLID_653_" class="st6" d="M795,476c-0.1-1.4,0.3-2.8,1-4"/>
	<path id="XMLID_661_" class="st6" d="M858,495c-5,3.6-21.1,11.6-22.8,0.2c-0.6-4.1,3.7-6.4,6.8-8.2c3.4-2,8-3.3,12.1-3
		c3.3,0.2,6.3,4,6.6,7.3c0.3,4.2-3.3,7.5-5.6,10.5c-3.2,4.1-6,8-10,11.5c-1.6,1.4-11.4,10.1-13.7,5.9c0.2-0.7,0.5-1.4,0.7-2.1"/>
	<path id="XMLID_227_" class="st6" d="M40.6,547.1c4.3-0.5,8-2.2,12.2-2.9c3-0.5,6.4-0.1,9.5-0.1c8.5,0,17.1,0,25.6,0
		c6.9,0,13.7,0,20.6,0c7.2,0,13.8,1.5,21,1.5c15.4,0,30.2,2.7,45.4,5.3c13.5,2.4,27.5,2.2,41.2,2.2c8.5,0,17.2,0.6,25.7-0.3
		c7.9-0.9,16-0.5,23.8-1.5c5.4-0.7,10.6-2.1,16.1-2.3c5.7-0.3,11.5,0.5,17.1,0.5c17.4,0,34.9,0,52.3,0c38.1,0,76.2,0,114.3,0
		c23.4,0,46.9,0,70.3,0c9.3,0,18.6-0.5,27.9-0.5c6.3,0,12.1-1.5,18.4-1.8c7.4-0.3,14.7-1.4,22.1-1.6c12.6-0.5,25.4,0,38.1,0
		c23.2,0,46.4,0,69.6,0c9,0,17.4-0.5,26.3-1.4c5.8-0.5,11.1,0,16.9-1.6c8.3-2.3,16.5-3.4,25-4.9c6.6-1.2,12.7-2.7,19.4-2.7
		c10.7,0.1,21.4,0.1,32.2,0c4.6,0,8.5,0.8,13.1,1.4c6,0.7,10.9-0.6,16.5,1.6"/>
	<path id="XMLID_290_" class="st7" d="M90.8,325.7c-1.4-2.3-2.7-4.7-3.2-7.3c0.4-0.5,1.2-0.7,1.8-0.9c1-0.2,2.2-0.4,2.9,0.4
		c0.6,0.7,0.4,1.7-0.1,2.4c-0.5,0.7-1.3,1.1-2.1,1.5c-0.6,0.3-1.3,0.6-2,0.5c0.6-0.3,1.3-0.5,1.9-0.8c0.6-0.3,1.3-0.5,2-0.6
		c0.7,0,1.5,0.3,1.8,0.9c0.3,0.7,0,1.6-0.6,2.2c-0.6,0.5-1.4,0.8-2.2,1c-0.6,0.2-1.2,0.4-1.8,0.5"/>
	<path id="XMLID_297_" class="st7" d="M96.2,323.4c-0.7-2.4-2.5-4.4-3.1-6.8c1.7-0.4,3.4-0.8,5.1-1.2"/>
	<path id="XMLID_304_" class="st7" d="M93.9,320.8c1.6-0.7,3.2-1.6,4.7-2.4"/>
	<path id="XMLID_311_" class="st7" d="M95.1,323.9c1.8-1.4,3.7-2.8,5.5-4.3"/>
	<path id="XMLID_318_" class="st7" d="M103.3,313.6c-0.1,2.8,0.4,5.7,1.5,8.3"/>
	<path id="XMLID_325_" class="st7" d="M100.9,313.8c2.6,0.4,5.2-0.7,7.5-2"/>
	<path id="XMLID_346_" class="st7" d="M108.7,316.5c0.2-2.6,0.5-5.1,1-7.7c0.7,0.4,1.2,1.2,1.5,1.9c0.9,1.8,1.8,3.5,2.6,5.3"/>
	<path id="XMLID_360_" class="st7" d="M108,313.5c2.3-0.7,4.6-1.2,6.9-1.7"/>
	<path id="XMLID_367_" class="st7" d="M118,311.6c1.6,0.1,3.2,0.2,4.8,0.4"/>
	<path id="XMLID_374_" class="st7" d="M129.2,310.3c-0.9,2-1.7,4-2.6,6"/>
	<path id="XMLID_388_" class="st7" d="M126.2,309.8c2.6,0.1,4.9,2.2,7.5,2.4"/>
	<path id="XMLID_395_" class="st7" d="M135.2,312c-1.1,2-2.4,3.9-3.8,5.6c1.5-0.1,3,0,4.4,0.2"/>
	<path id="XMLID_402_" class="st7" d="M132.8,314.2c1.3,0.3,2.5,0.8,3.7,1.4"/>
	<path id="XMLID_409_" class="st7" d="M134.5,312.6c1.8,0,3.6,0.4,5.2,1.1"/>
	<path id="XMLID_416_" class="st7" d="M143.5,319c-0.6-1.2-1.9-2.1-3.3-2.2c-0.4,0-0.8,0-1,0.2c-0.6,0.5-0.5,1.5,0.1,2.1
		c0.5,0.6,1.3,0.8,1.9,1.2s1.3,1,1.3,1.8c0,0.5-0.4,1-0.8,1.4c-0.2,0.2-0.5,0.4-0.8,0.4c-0.3,0-0.5-0.1-0.8-0.3
		c-1.5-0.8-2.9-1.8-4.2-2.9"/>
	<path id="XMLID_423_" class="st7" d="M148.6,320.5c-1,2-2.1,3.9-3.4,5.7"/>
	<path id="XMLID_437_" class="st7" d="M145.5,319.5c2.6-0.2,4.8,2.2,7.4,2.3"/>
	<path id="XMLID_444_" class="st7" d="M87.1,329.8c1.7,3.1,3.5,6.1,5.3,9.1"/>
	<path id="XMLID_451_" class="st7" d="M97.3,327.2c-0.1,0.4,0.1,0.8,0.4,1.2c0.7,1,1.4,2,2.1,3c0.3,0.4,0.5,0.7,0.9,1
		c0.5,0.4,1.1,0.6,1.7,0.7c0.4,0.1,0.9,0.1,1.2-0.1c0.6-0.3,0.9-1,1-1.7c0.1-1.9-1.2-3.6-2.5-5"/>
	<path id="XMLID_458_" class="st7" d="M87.1,330c1.1-0.6,2.3-0.8,3.6-0.8c0.8,0,1.7,0,2.5,0.4c1.7,0.8,2.3,2.9,2.3,4.8
		c0,0.8-0.1,1.5-0.5,2.2c-0.3,0.6-0.8,1.2-1.3,1.7c-0.3,0.3-0.6,0.7-1,0.9s-0.9,0.3-1.3,0.1"/>
	<path id="XMLID_459_" class="st7" d="M116.6,327.6c-0.6-0.4-1.2-0.9-1.8-1.2c-0.7-0.3-1.5-0.3-2,0.2c-0.3,0.3-0.3,0.7-0.4,1.1
		c-0.2,0.9-0.3,1.8,0.1,2.6c0.6,1.3,2.3,1.5,3.3,2.5c0.9,0.9,1.1,2.4,1,3.7c0,0.2-0.1,0.5-0.2,0.7c-0.2,0.2-0.4,0.4-0.7,0.4
		c-1.6,0.6-3.4,0.5-4.9-0.2c-0.3-0.1-0.6-0.3-0.8-0.6c-0.2-0.3-0.3-0.7-0.1-1"/>
	<path id="XMLID_465_" class="st7" d="M121.5,328.3c-0.2-0.1-0.3,0.2-0.3,0.3c-0.3,2.7-0.6,5.4-0.9,8.1c1.4-0.1,2.7-0.3,4-0.5"/>
	<path id="XMLID_466_" class="st7" d="M126.6,339.2c1.5-2.8,0.6-6.4,1.9-9.2"/>
	<path id="XMLID_472_" class="st7" d="M129.1,327c0.2-0.5,0.5-1,0.7-1.5"/>
	<path id="XMLID_473_" class="st7" d="M132.2,339.6c0.4-1.7,0.9-3.3,1.3-5c0.2-0.9,0.5-1.8,1-2.6c0.3-0.5,0.7-1,1-1.5
		c0-0.1,0.1-0.1,0.1-0.1c0.1,0,0.2,0,0.3,0.1c1.2,0.7,2.4,1.4,3.6,2.1c0.3,0.2,0.6,0.4,0.6,0.7c0,0.3-0.3,0.6-0.5,0.7
		c-1.9,1.3-4.4,1.4-6.4,0.4"/>
	<path id="XMLID_339_" class="st7" d="M685.5,288c-5.9,19.8-5.8,40.8-5.6,61.4c-3.4-4-5.4-9-7.3-13.8c2.1,4.4,4.2,8.7,6.4,13.1
		c0.3,0.7,0.8,1.4,1.5,1.4c0.7,0,1.1-0.8,1.4-1.4c1.3-2.8,2.5-5.7,3.8-8.5"/>
	<path id="XMLID_353_" class="st7" d="M643.5,246c0-2.4,0-7,0-7c3,0,5.1-0.8,6.6,0.7c-0.5,1.1-1.8,1.3-2.9,1.4
		c-1.6,0.1-3.4,0.2-5,0.4"/>
	<path id="XMLID_480_" class="st7" d="M653,245.3c0.3-2.4,0.3-4.8,0.2-7.3c-0.4-0.4,0.7,0.5,1.2,0.5c1,0,1.9,0,2.9,0
		c0.7,0,1.4,0,1.9,0.3c0.6,0.3,1,1,0.9,1.6c-0.2,0.8-1.3,1-2.2,1.1c-1.6,0.1-3.1,0-4.6-0.2c2.6,1.5,5.2,3,7.7,4.4"/>
	<path id="XMLID_486_" class="st7" d="M668.2,240c-1.8,0.5-4.5,1-3.9,3.5c1.5,0.1,3.1,0.1,4.7,0.1"/>
	<path id="XMLID_487_" class="st7" d="M664.8,237.2c1.5,0.3,3.1,0.2,4.5-0.3"/>
	<path id="XMLID_494_" class="st7" d="M681,244.5c-0.1-2.1,0-4.2,0.1-6.3c1.4,0.7,2.7,1.5,4,2.5c0.2,0.2,0.4,0.3,0.5,0.6
		c0.1,0.4-0.2,0.7-0.5,1c-1.1,1-2.6,1.7-4.1,1.9"/>
	<path id="XMLID_500_" class="st7" d="M694.3,239.7c-1.3-0.8-2.8-1.3-4.3-1.5c-0.7-0.1-1.5,0-1.8,0.6c-0.3,0.7,0.5,1.5,1.2,1.9
		c1.6,1,3.3,2,4.9,3c-2.2,0.9-4.6,1.2-6.9,0.7"/>
	<path id="XMLID_501_" class="st7" d="M665,237c-0.3,1.9-0.6,3.8-0.8,5.7"/>
	<path id="XMLID_493_" class="st7" d="M672,243.7c0-2.1,0.1-4.2,0.1-6.4c1.2,2.1,2.5,4.2,3.7,6.3c0.4-2.1,0.7-4.3,0.7-6.5"/>
	<path id="XMLID_502_" class="st7" d="M710.9,239.8c0.1,1.5,0.2,3,0.3,4.6c0,0.2,0,0.5-0.1,0.7c-0.1,0.3-0.4,0.4-0.7,0.5
		c-0.6,0.3-1.3,0.5-2,0.5c-0.7,0-1.4-0.4-1.7-1"/>
	<path id="XMLID_507_" class="st7" d="M715.3,239.8c-0.2,1.3,0.4,2.8,1.6,3.6c0.2,0.1,0.5,0.3,0.7,0.2c0.6-0.1,0.7-0.8,0.7-1.4
		c0-1,0-2.1,0-3.1"/>
	<path id="XMLID_508_" class="st7" d="M725,239c-0.9-0.6-2.2-0.3-2.7,0.6c-0.6,0.9-0.3,2.2,0.6,2.8c0.6,0.4,1.5,0.5,1.9,1
		c0.6,0.7,0.2,1.8-0.5,2.3c-0.7,0.5-1.7,0.6-2.6,0.5"/>
	<path id="XMLID_42_" class="st7" d="M730.3,245.7c-0.1-2-0.2-4-0.3-6c1.3-0.3,1.2,0.3,2.5,0"/>
	<path id="XMLID_9_" class="st7" d="M740,240.5c-3.2,0.9-3.4,0.7-3.5,4c1.8,0.2,3.5,0.1,5.2-0.4"/>
	<path id="XMLID_12_" class="st7" d="M737,239.2c1.6-0.9,3.3-1.6,5-2"/>
	<path id="XMLID_14_" class="st7" d="M727.3,239.8c1.6-0.8,3.5-1.1,5.2-0.9"/>
	<path id="XMLID_15_" class="st7" d="M737.6,238.2c0.5,2,0,4.2-1.3,5.8"/>
	<path id="XMLID_16_" class="st7" d="M638.5,253c0,0,0,3.2,0,5"/>
	<path id="XMLID_17_" class="st7" d="M645.5,252.7c-1,0-1.8,1-1.8,2c0,1,0.7,1.9,1.6,2.3c0.9,0.4,1.9,0.4,2.9,0.2
		c0.2-0.1,0.5-0.1,0.6-0.3c0.2-0.3,0.3-0.7,0.2-1c-0.4-1.9-2.3-3.1-4.2-3.5"/>
	<path id="XMLID_19_" class="st7" d="M652.5,257.2c0-1.8,0.1-3.7,0.6-5.5c1.2,2,2.4,3.9,3.7,5.9c0.3-1.9,0.6-3.7,0.9-5.6"/>
	<path id="XMLID_21_" class="st7" d="M635,253c1.9-0.4,3.8-0.5,5.7-0.5"/>
	<path id="XMLID_22_" class="st7" d="M674.2,253.3c-1.7-0.2-3.5,0.6-4.5,2c-0.2,0.4-0.4,0.8-0.3,1.2c0.2,0.8,1.3,0.9,2.1,0.9
		c1.4,0,2.7,0,4.1,0c0.4-1.1,0.1-2.4-0.7-3.2c-0.8-0.8-2.1-1.1-3.2-0.7"/>
	<path id="XMLID_23_" class="st7" d="M679.2,258c0-1.7,0-3.5,0-5.2c0.8-0.2,1.7-0.3,2.4,0c0.8,0.3,1.3,1.3,0.8,2
		c-0.6,0.4-1.2,0.9-1.9,0.9s-1.5-0.3-1.6-1.1c2.2-0.1,4.4,1.6,4.9,3.8"/>
	<path id="XMLID_28_" class="st7" d="M686.6,258.5c-0.2-1.7-0.2-3.5-0.1-5.3c1.5-0.2,3.5,0.5,3.6,2c0.1,1.5-1.2,2.9-2.7,3"/>
	<path id="XMLID_34_" class="st7" d="M692.6,254c0.3,1.6,0.4,3.2,0.4,4.8"/>
	<line id="XMLID_36_" class="st7" x1="693.5" y1="252" x2="693.5" y2="251"/>
	<path id="XMLID_45_" class="st7" d="M700.2,258c-0.8,1.5-1.8,2.8-2.9,4.1"/>
	<path id="XMLID_46_" class="st7" d="M708.5,259c0,0,0-3.5,0-5.3c0-0.2,0-0.5,0.2-0.6c0.1-0.1,0.4-0.1,0.6-0.1c0.9,0,1.9,0,2.8,0
		c1.1,0,2.6,0.3,2.7,1.5c0.1,1.1-1.4,1.6-2.5,1.7c-1.3,0.1-2.5,0.2-3.8,0.2"/>
	<path id="XMLID_47_" class="st7" d="M717.1,258.3c-0.3-1.8,0-3.6,0.7-5.3c1.5-0.1,3.1,0.6,4.1,1.7c1,1.2,1.4,2.8,1.2,4.3"/>
	<path id="XMLID_59_" class="st7" d="M726.7,258c0.1-1.9,0-3.9-0.4-5.7c1.1-0.1,2.3,0,3.4,0.3c0.3,0.1,0.7,0.2,1,0.4
		c0.6,0.5,0.3,1.6-0.3,2.1s-1.4,0.6-2.2,0.7c-0.5,0-1.1,0-1.2-0.5c-0.1-0.4,0.3-0.7,0.6-0.8c0.9-0.3,1.9,0.4,2.6,1
		c1,0.8,2,1.6,3.1,2.4"/>
	<path id="XMLID_60_" class="st7" d="M716.2,255.4c1.9-0.5,3.8-0.6,5.8-0.3"/>
	<path id="XMLID_61_" class="st7" d="M645.5,263.3c-1.4,0.2-2.8,0.7-4.1,1.3c-0.7,0.3-1.4,0.7-1.8,1.3c-0.5,0.6-0.7,1.4-0.4,2.1
		c0.5,1.3,2.3,1.3,3.7,1.2c0.7-0.1,1.4-0.2,2.1-0.3"/>
	<path id="XMLID_62_" class="st7" d="M650.5,265c-0.1-0.6-0.9-0.8-1.4-0.6s-0.9,0.7-1.1,1.2c-0.2,0.4-0.4,0.9-0.3,1.3
		c0.1,1.2,1.7,1.7,2.9,1.8c0.2,0,0.4,0,0.5-0.1c0.1-0.1,0.1-0.3,0.1-0.5c0-1.3,0-2.6-0.1-3.9c-0.2,0-0.5,0-0.7,0"/>
	<path id="XMLID_63_" class="st7" d="M655.3,269.5c0-2.1-0.1-4.1-0.1-6.2c1.1,1.8,2.1,3.6,3.2,5.4c0.1-1.6,0.1-3.1,0.2-4.7"/>
	<line id="XMLID_64_" class="st7" x1="663.5" y1="270" x2="663.5" y2="264"/>
	<path id="XMLID_65_" class="st7" d="M660,264.1c1.9-0.5,3.8-0.7,5.8-0.6"/>
	<path id="XMLID_66_" class="st7" d="M668.2,269.5c0-1.4,0-2.9,0-4.3c0-0.3,0-0.6,0.2-0.8c0.2-0.2,0.6-0.1,1-0.1
		c0.7,0.2,1.7,0.8,1.3,1.5c-0.1,0.3-0.4,0.4-0.7,0.5c-0.6,0.2-1.2,0.3-1.9,0.4c1.6-0.3,3.4,0.9,3.7,2.5"/>
	<path id="XMLID_67_" class="st7" d="M678,267c-4.6-0.6-2.5,3.6-0.2,2.8"/>
	<line id="XMLID_509_" class="st7" x1="676" y1="263.5" x2="679" y2="263.5"/>
	<path id="XMLID_515_" class="st7" d="M690.2,265.8c-1.3-0.5-3,0.3-3.5,1.6s0.2,3,1.6,3.5c0.9,0.3,2.2-0.3,2-1.2"/>
	<path id="XMLID_516_" class="st7" d="M676.3,263c0.1,1.8,0,3.5-0.4,5.3"/>
	<path id="XMLID_517_" class="st7" d="M688.5,270.5c0.1,1.1,0,2.3-0.8,2.9c-0.8,0.7-2.4,0.2-2.4-0.9"/>
	<path id="XMLID_518_" class="st7" d="M692,272.5c0.2-1.2,0.5-2.5,0.7-3.7c0.1-0.6,0.4-1.4,1-1.4c0.5,0,0.8,0.4,1,0.8
		c0.5,0.9,1.1,1.8,1.6,2.7c0.6,1,1.2,2.5,0.3,3.3"/>
	<path id="XMLID_519_" class="st7" d="M706.5,271.2c-0.1-1.5-0.1-3,0.2-4.5c0.1-0.3,0.2-0.6,0.5-0.7c0.3-0.1,0.6,0.2,0.8,0.5
		c0.5,0.8,1,1.6,1.2,2.5c0.7-1.1,1.4-2.2,1.8-3.4c1.1,1.7,1.9,3.5,2.2,5.5"/>
	<path id="XMLID_520_" class="st7" d="M716.8,271.7c-0.4-1.1-0.9-2.3-1.3-3.4c-0.1-0.4-0.3-0.7-0.2-1.1c0.1-0.6,0.5-1.1,1.1-1.4
		c1.2-0.7,2.9-0.5,3.7,0.7c0.9,1.3,0.4,3.1,1.2,4.4"/>
	<path id="XMLID_521_" class="st7" d="M692.3,270.2c1.6,0.1,3.2,0,4.7-0.3"/>
	<path id="XMLID_522_" class="st7" d="M716,267.7c1.5,0.2,3.1,0,4.5-0.5"/>
	<path id="XMLID_524_" class="st7" d="M724,271c0-1.9,0-3.7,0-5.6c0-0.2,0-0.3,0.1-0.5c0.1-0.1,0.3-0.2,0.4-0.2
		c1.8-0.4,3.8,0.6,4.5,2.3c0.1,0.2,0.1,0.4,0.1,0.6c-0.1,0.4-0.5,0.7-0.9,0.9c-1.7,0.7-3.9,0.1-4.9-1.5c1,0,2-0.1,3.1-0.1
		c0.3,0,0.7,0,1,0.2c0.3,0.2,0.4,0.7,0.6,1.1c0.3,1,1.1,1.8,2,2.3"/>
	<path id="XMLID_525_" class="st7" d="M735.7,266.1c-0.7-0.5-1.7-0.3-2.4,0.2c-0.6,0.6-0.9,1.5-0.7,2.3c0.3,1.5,2.2,2.4,3.5,1.8"/>
	<path id="XMLID_526_" class="st7" d="M740,265.5c-0.1,1.7-0.2,3.3-0.3,5"/>
	<path id="XMLID_527_" class="st7" d="M745.5,265c-0.2,1.9-0.4,3.8-0.7,5.8"/>
	<path id="XMLID_528_" class="st7" d="M753.5,267c-1.6,0.5-3.7,1.7-3.4,3.7c1,0.2,2,0.1,2.9-0.1"/>
	<path id="XMLID_529_" class="st7" d="M749.5,263.2c1.2,0.1,2.5,0.2,3.7,0.3"/>
	<path id="XMLID_530_" class="st7" d="M739.7,267.5c1.6-0.2,3.2-0.3,4.7-0.5"/>
	<path id="XMLID_532_" class="st7" d="M749.1,263.5c0.5,1.7,0.6,3.5,0.3,5.3"/>
	<path id="XMLID_533_" class="st7" d="M704.7,280.5c-1.3-0.6-2.6-1-4-0.7c-1.3,0.3-2.5,1.7-2.1,3c0.2,0.9,1.1,1.5,2,1.6
		c0.9,0.1,1.8-0.2,2.5-0.7c0.7-0.5,1.3-1.2,1.2-2s-1-1.5-1.7-1.1"/>
	<path id="XMLID_534_" class="st7" d="M707,279.7c0.2,1.1,0.6,2.2,1,3.2c0.4,0.8,1.3,1.7,2,1.1c0.2-0.2,0.3-0.5,0.4-0.8
		c0.3-1.5,0.4-3.1,0.3-4.7"/>
	<path id="XMLID_535_" class="st7" d="M713.7,283.5c0-1.9,0-3.8,0-5.8c0-0.2,0-0.4,0.2-0.5c0.2-0.1,0.4-0.1,0.6,0c1,0.3,2,0.7,3,1"
		/>
	<path id="XMLID_536_" class="st7" d="M700.8,283c-0.3,1.6-0.6,3.1-0.9,4.7"/>
	<path id="XMLID_537_" class="st7" d="M714,283.3c1.5,0.1,3,0,4.5-0.3"/>
	<path id="XMLID_538_" class="st7" d="M714,280.3c0.8-0.6,1.8-0.8,2.7-0.8"/>
	<path id="XMLID_540_" class="st7" d="M731,277.8c-1.1-0.2-2.2-0.2-3.1,0.4c-0.9,0.6-1.2,2.1-0.5,2.8c0.6,0.6,1.5,0.5,2.4,0.7
		c0.8,0.1,1.8,0.6,1.7,1.4c0,0.6-0.5,1-1.1,1.1s-1.1,0-1.7-0.1"/>
	<path id="XMLID_541_" class="st7" d="M733.8,279.5c-0.3,1.3,0.1,2.8,1,3.8c0.2,0.2,0.5,0.4,0.8,0.3c0.2-0.1,0.3-0.3,0.3-0.6
		c0.4-1.6,0.5-3.3,0.3-5"/>
	<path id="XMLID_542_" class="st7" d="M739.3,283.7c0-1.4,0-2.8,0-4.2c0-0.2,0-0.5,0.1-0.7c0.2-0.3,0.6-0.4,1-0.4
		c0.7-0.1,1.4-0.1,2,0.2c0.6,0.3,1.1,1,0.9,1.7c-0.1,0.3-0.4,0.6-0.7,0.8c-0.5,0.4-1.1,0.7-1.7,0.7s-1.3-0.5-1.2-1.2
		c0.9-0.8,2.3,0.1,3.1,1s1.6,2.1,2.8,2"/>
	<path id="XMLID_543_" class="st7" d="M698.9,295.2c-0.8-0.5-2,0-2.3,0.9c-0.3,0.9,0,1.9,0.7,2.6s1.6,1,2.6,1.1c0.1,0,0.3,0,0.4,0
		c0.2-0.1,0.3-0.2,0.4-0.4c0.5-0.9,0.6-2.2,0-3c-0.6-0.9-2-1.2-2.8-0.6"/>
	<path id="XMLID_544_" class="st7" d="M706.6,294.4c-0.6-0.4-1.3-0.8-2.1-0.7c-0.7,0-1.5,0.7-1.4,1.4c0.1,0.5,0.6,0.8,1,1.1
		c1.1,0.7,2.1,1.4,3.2,2.1c-1.5,0.6-3.2,0.7-4.8,0.5"/>
	<path id="XMLID_545_" class="st7" d="M712.6,293.5c-0.8,1.5-1.6,3.1-2.3,4.7"/>
	<path id="XMLID_546_" class="st7" d="M709,294c2.2,1,4.3,2.3,6.3,3.7"/>
	<path id="XMLID_548_" class="st7" d="M725.6,297.5c-0.3-1.4-0.5-2.8-0.4-4.3c0-0.3,0-0.6,0.2-0.8c0.3-0.5,1-0.5,1.6-0.4
		c0.7,0.1,1.4,0.2,1.9,0.6c0.5,0.4,0.8,1.2,0.5,1.8c-0.3,0.5-0.9,0.6-1.5,0.6c-1.1,0-2.1-0.3-3-0.9"/>
	<path id="XMLID_549_" class="st7" d="M733.8,292.6c-1.2,0-2.1,1.4-1.8,2.6s1.5,2,2.7,2.1c0.2,0,0.4,0,0.6-0.1
		c0.5-0.2,0.6-0.8,0.7-1.3c0.2-0.9,0.3-1.9-0.2-2.7c-0.4-0.8-1.7-1.2-2.3-0.6"/>
	<path id="XMLID_550_" class="st7" d="M738.7,291.2c0,1.2,0,2.4,0,3.7c0,0.6,0.1,1.4,0.7,1.6c0.8,0.3,1.4-0.8,1.6-1.6
		c0.3-1.2,0.6-2.5,0.9-3.7"/>
	<path id="XMLID_551_" class="st7" d="M744.4,294.1c-0.3-1.3-0.3-2.7-0.1-4.1c1.4-0.2,2.8-0.3,4.3-0.3c0.4,0,0.7,0,1,0.2
		c0.6,0.4,0.5,1.4,0,1.9c-0.5,0.5-1.3,0.7-2,0.7c-0.7,0-1.4-0.1-2.1,0.1c-0.3-0.3,0.2-0.7,0.6-0.7c1.7-0.1,3.1,1,4.4,2.1
		c0.6,0.5,1.2,1,1.7,1.5"/>
	<path id="XMLID_552_" class="st7" d="M696.1,308.3c0.4,1.7,0.8,3.4,1.2,5.2c0.8,0,1.6-0.2,2.2-0.7"/>
	<path id="XMLID_553_" class="st7" d="M700,308.2c0.2,1.2,0.3,2.4,0.5,3.7c0,0.2,0.1,0.5,0.2,0.6c0.2,0.3,0.6,0.3,1,0.3
		c0.6-0.1,1.2-0.5,1.6-1.1"/>
	<path id="XMLID_554_" class="st7" d="M711.5,312.5c0-2,0.1-4,0.1-6c1,1.2,1.9,2.6,2.6,4c0.7-1.3,1.2-2.7,1.5-4.1
		c1.3,1.5,2.2,3.4,2.7,5.3"/>
	<path id="XMLID_555_" class="st7" d="M699.8,308.3c1-0.7,2-1.4,2.9-2.1"/>
	<path id="XMLID_556_" class="st7" d="M701,310.2c0.8-0.6,1.7-1,2.5-1.4"/>
	<path id="XMLID_557_" class="st7" d="M722,307.1c-0.3-0.1-0.7-0.2-1-0.3c-0.4,1-0.8,2.1-0.5,3.2s1.7,1.8,2.5,1.1
		c0.5-0.4,0.6-1,0.6-1.6c0-0.6-0.1-1.2-0.5-1.7s-1-0.7-1.6-0.5"/>
	<path id="XMLID_558_" class="st7" d="M726.9,311.5c0.2-2.3,0.2-4.6-0.1-6.9c0.7,1.4,1.4,2.8,2.1,4.2c0.5-1.6,1-3.1,1.5-4.7
		c0.2-0.5,0.4-1,0.8-1.2c1,2.4,1.4,5,1.2,7.6"/>
	<path id="XMLID_559_" class="st7" d="M735.1,304.8c1.1,1.8,1.7,3.8,1.7,5.9c1.3-0.1,2.6-0.5,3.7-1.2"/>
	<path id="XMLID_560_" class="st7" d="M743.7,303.3c0.3,2.2,0.5,4.5,0.8,6.7c0-0.4,0-0.8,0-1.2"/>
	<path id="XMLID_561_" class="st7" d="M736.5,307.5c1.1,0,2.3-0.4,3.1-1.2"/>
	<path id="XMLID_562_" class="st7" d="M735.2,305.2c1-0.5,2-1,3-1.5"/>
	<path id="XMLID_563_" class="st7" d="M744,303.5c1.4,1.5,2.6,3.2,3.3,5.2c0-2.1,0-4.1,0-6.2"/>
	<path id="XMLID_564_" class="st7" d="M752.4,308.7c-0.4-1.7-0.9-3.5-1.3-5.2"/>
	<path id="XMLID_565_" class="st7" d="M754.7,303c-2-0.1-4.1,0.1-6,0.7"/>
	<g id="XMLID_566_">
		<g id="XMLID_578_">
			<path class="st4" d="M129,168.5c0.5,0,1.2-0.1,1.7,0c0.7,0.1,0.8,0.5,1.2,1c0.7,0.9,1.6,1.4,2.5,2.1c1.5,1.2,3.6-0.9,2.1-2.1
				c-0.6-0.5-1.3-0.8-1.9-1.3c-0.5-0.5-0.8-1.2-1.4-1.6c-1.2-1.1-2.8-1-4.3-1C127.1,165.5,127.1,168.5,129,168.5L129,168.5z"/>
		</g>
	</g>
	<path id="XMLID_567_" class="st8" d="M754.6,141.9c-1.9-0.6-3.8-1.3-5.7-1.9c-0.4-0.1-0.7-0.3-1.1-0.2c-0.9,0.1-1.5,1.1-1.9,1.9
		c-0.1,0.3-0.3,0.7-0.2,1c0.1,0.4,0.4,0.6,0.8,0.8c1.1,0.6,2.4,1.1,3.6,1.3c0.6,0.1,1.2,0.2,1.7,0.5c0.5,0.3,0.8,1,0.5,1.5
		c-0.2,0.3-0.5,0.5-0.9,0.6c-2.1,0.7-4.5,0.3-6.3-1.1"/>
	<path id="XMLID_568_" class="st8" d="M754.9,148.7c1.3-2.3,3-4.4,5.1-6c0.4,0.3,0.3,0.9,0.2,1.4c-0.5,1.9-0.9,3.9-1.4,5.8"/>
	<path id="XMLID_569_" class="st8" d="M762.4,151c0.2-2.2,0.7-4.4,1.5-6.4c0.1-0.3,0.3-0.6,0.6-0.6c0.3,0,0.4,0.3,0.5,0.6
		c0.6,2.2,1.3,4.4,1.9,6.7c0.8-1.3,1.5-2.5,2.3-3.8c0.4-0.6,0.8-1.3,1.5-1.2c0.8,0,1.2,1,1.4,1.8c0.3,1.8,0.3,3.6,0,5.4"/>
	<path id="XMLID_570_" class="st8" d="M777.6,147.2c-1.1,2.4-0.5,5.4,1.3,7.3c0.2,0.2,0.5,0.4,0.8,0.4c0.2-0.1,0.4-0.3,0.5-0.6
		c1.1-2.4,1.8-5,2.1-7.6"/>
	<path id="XMLID_571_" class="st8" d="M784.6,156.4c0.2-1.7,0.6-3.4,1.2-5c0.1-0.3,0.3-0.6,0.6-0.7c0.2-0.1,0.4,0.1,0.6,0.2
		c1.7,0.9,3.5,1.7,5.2,2.6"/>
	<path id="XMLID_572_" class="st8" d="M795.6,153.8c0.1-0.2-0.2-0.3-0.4-0.2c-0.2,0.1-0.2,0.4-0.2,0.6c0,1.3,0,2.7-0.1,4
		c0,0.3,0,0.5,0.1,0.7c0.1,0.2,0.4,0.3,0.7,0.4c1,0.3,2.1,0.6,3.1,0.7"/>
	<path id="XMLID_574_" class="st8" d="M784.3,156.4c2.1,0.4,4.1,1.1,5.8,2.2"/>
	<line id="XMLID_575_" class="st8" x1="784.2" y1="153.2" x2="789" y2="154.5"/>
	<path id="XMLID_576_" class="st8" d="M811.2,157.3c-0.8,2.4-1.6,4.8-2.4,7.1"/>
	<line id="XMLID_577_" class="st8" x1="815.2" y1="159.3" x2="813.6" y2="165"/>
	<path id="XMLID_582_" class="st8" d="M817.6,167.4c0.2-1.7,0.6-3.3,1.1-4.9c0.3-0.8,0.8-1.8,1.7-1.8c0.6,0,1.1,0.4,1.3,1
		c0.2,0.5,0.3,1.1,0.2,1.7c0,1.7-0.2,3.4-0.4,5.1"/>
	<path id="XMLID_583_" class="st8" d="M828.3,164.5c0-0.8-0.9-1.3-1.6-1c-0.7,0.3-1.2,1-1.3,1.7c-0.2,1,0,2.2,0.8,2.9
		s2.2,0.7,2.8-0.2"/>
	<path id="XMLID_584_" class="st8" d="M833.7,163.6c-0.3-0.2-0.6,0.2-0.7,0.5c-0.8,2.3-1.3,4.6-1.7,6.9"/>
	<path id="XMLID_585_" class="st8" d="M810.5,161.3c1.2,0.1,2.3,0,3.5-0.4"/>
	<path id="XMLID_586_" class="st8" d="M817.3,163.9c1.7-0.1,3.4,0.1,4.9,0.8"/>
	<path id="XMLID_587_" class="st8" d="M831.9,168c1.4-1.7,3.4-3,5.5-3.7"/>
	<path id="XMLID_589_" class="st8" d="M840.3,165.5c-0.8,1.7-1.3,3.6-1.5,5.5c-0.1,0.9,0,2.1,0.9,2.4c0.9-1.7,1.7-3.3,2.6-5
		c0,1.7,0.5,3.5,1.3,5c1.3-2.2,2.3-4.7,2.9-7.2"/>
	<path id="XMLID_590_" class="st8" d="M835.1,171.8c-0.4-2-1.5-3.8-3.1-4.9"/>
	<path id="XMLID_591_" class="st8" d="M848.5,175c0.3-2.2,0.8-4.3,1.6-6.3"/>
	<path id="XMLID_592_" class="st8" d="M850.9,166.1c0.2-0.4,0.8-0.7,1.3-0.6"/>
	<path id="XMLID_593_" class="st8" d="M854.9,167.8c-1,2.1-1.6,4.4-1.8,6.7c0.8,0.3,1.7,0.2,2.4-0.2"/>
	<path id="XMLID_594_" class="st8" d="M860.3,170.3c-0.3,2.1-0.7,4.1-1.1,6.2c1.2,0.6,2.7,0.9,4.1,0.6"/>
	<path id="XMLID_597_" class="st8" d="M873.9,176.1c-0.6-0.5-0.8-1.4-0.5-2.1c1,0.1,1.9,0.4,2.7,0.9c0.3,0.1,0.5,0.3,0.6,0.6
		c0.1,0.3,0,0.6-0.1,0.9c-0.5,1.2-1,2.4-1.9,3.3s-2.3,1.4-3.4,1c-0.3-0.7,0.5-1.5,1.3-1.5s1.5,0.4,2.1,0.9c1.1,0.8,2.1,1.8,2.9,2.9"
		/>
	<path id="XMLID_598_" class="st8" d="M882.3,176.5c-0.2-0.4-0.8,0.1-0.9,0.5c-0.3,0.9-0.6,1.9-0.6,2.9s0.5,2,1.3,2.5
		c0.2,0.1,0.5,0.2,0.8,0.1c0.2-0.1,0.3-0.3,0.4-0.5c0.5-1,0.8-2.1,0.7-3.1c-0.2-1.1-0.8-2.1-1.9-2.5"/>
	<path id="XMLID_599_" class="st8" d="M886.8,178c0.7-0.6,1.6-0.9,2.4-1c0.2,2.7-0.1,5.4-0.7,8"/>
	<path id="XMLID_600_" class="st8" d="M896.4,179.2c-0.7-0.3-1.3,0.5-1.7,1.1c-0.6,0.8-1.2,1.6-1.6,2.5s-0.6,2-0.2,2.9
		c0.4,0.9,1.6,1.4,2.5,0.9c0.5-0.3,0.8-1,0.7-1.6c-0.3-1.3-2-1.6-3.3-1.5"/>
	<path id="XMLID_601_" class="st8" d="M881.5,181.9c0.6-1.5,1.3-2.9,1.9-4.4"/>
	<line id="XMLID_602_" class="st8" x1="756.2" y1="145.4" x2="759.1" y2="146.2"/>
	<path id="XMLID_1_" class="st6" d="M876.3,532c2.1,0.3,4.2,0.6,6.2,0.8c1.3,0.2,2.8,0.6,3.1,1.8c0.2,0.7-0.2,1.5-0.8,2
		c-0.6,0.5-1.3,0.7-2.1,0.8"/>
	<path id="XMLID_607_" class="st6" d="M876.9,526.3c1.9,0.2,3.8,0.5,5.6-0.1c1.8-0.5,3.5-2,3.6-3.9c0-0.8-0.2-1.6-0.9-2.1
		c-0.5-0.3-1-0.4-1.6-0.5c-1.9-0.3-3.9-0.5-5.9-0.5"/>
	<path id="XMLID_608_" class="st6" d="M889.9,509.8c-3.1-0.2-6.3,0.1-9.3,0.9"/>
	<path id="XMLID_609_" class="st6" d="M889.6,501.2c-2.6,0.2-5.2,0.8-7.7,1.7c2.2-2.3,4.3-4.6,6.5-6.8c-2.4-0.3-4.8-0.6-7.2-0.9"/>
	<path id="XMLID_610_" class="st6" d="M876.5,511.8c-0.1-0.4-0.1-0.8-0.2-1.3"/>
	<path id="XMLID_612_" class="st6" d="M878.5,491.2c0.7-1.9,2.3-3.3,4.1-4.1s3.9-0.9,5.9-0.7c0.5,0,1,0.1,1.4,0.4
		c0.4,0.3,0.7,0.7,0.9,1c0.8,1.3,1.7,2.6,2.5,3.9"/>
	<path id="XMLID_613_" class="st6" d="M872.8,536.9c0.1,2.2,1.8,4.2,3.9,4.9s4.4,0.5,6.5-0.3s3.9-2.1,5.6-3.5"/>
	<line id="XMLID_616_" class="st6" x1="873.3" y1="531.9" x2="872.3" y2="531.9"/>
</g>
</svg>
