<?xml version="1.0" encoding="utf-8"?>
<!-- Generator: Adobe Illustrator 19.0.0, SVG Export Plug-In . SVG Version: 6.00 Build 0)  -->
<svg version="1.1" xmlns="http://www.w3.org/2000/svg" xmlns:xlink="http://www.w3.org/1999/xlink" x="0px" y="0px" width="996.4px"
	 height="594px" viewBox="0 0 996.4 594" style="enable-background:new 0 0 996.4 594;" xml:space="preserve">
<style type="text/css">
	.st0{fill:none;}
	.st1{fill:#16002D;}
	.st2{font-family:'mplus-2m-regular';}
	.st3{font-size:687.8953px;}
	.st4{fill:#FFFFFF;}
	.st5{fill:none;stroke:#FFFFFF;stroke-miterlimit:10;}
	.st6{font-size:130px;}
	.st7{fill:none;stroke:#000000;stroke-miterlimit:10;}
	.st8{fill:#FFFFAB;}
	.st9{fill:url(#XMLID_22_);}
</style>
<g id="ombreD_x28_working_x29_">
	<g id="XMLID_732_">
		<polygon id="XMLID_42_" class="st0" points="710.8,159.6 18.1,159.6 607.4,273 1300.1,273 		"/>
		<text id="XMLID_41_" transform="matrix(0.189 0 -0.982 -0.189 100.7993 175.425)" class="st1 st2 st3">LE TIRET</text>
		<polygon id="XMLID_40_" class="st0" points="710.8,159.6 18.1,159.6 607.4,273 1300.1,273 		"/>
		<text id="XMLID_39_" transform="matrix(0.189 0 -0.982 -0.189 100.7993 175.425)" class="st2 st3">LE TIRET</text>
	</g>
	<g id="XMLID_482_">
		<polygon id="XMLID_37_" class="st0" points="733.5,444.2 319.2,444.2 908.5,557.6 1322.8,557.6 		"/>
		<text id="XMLID_35_" transform="matrix(0.189 0 -0.982 -0.189 401.8708 459.9753)" class="st1 st2 st3">DU SIX</text>
		<polygon id="XMLID_34_" class="st0" points="733.5,444.2 319.2,444.2 908.5,557.6 1322.8,557.6 		"/>
		<text id="XMLID_33_" transform="matrix(0.189 0 -0.982 -0.189 401.8708 459.9753)" class="st2 st3">DU SIX</text>
	</g>
</g>
<g id="stars">
	<g id="XMLID_144_">
		<g id="XMLID_602_">
			<path id="XMLID_3_" class="st4" d="M161.4,29.9c1.9,0,1.9-3,0-3C159.5,26.9,159.5,29.9,161.4,29.9L161.4,29.9z"/>
		</g>
	</g>
	<g id="XMLID_150_">
		<g id="XMLID_609_">
			<path id="XMLID_4_" class="st4" d="M235.4,33.9c1.9,0,1.9-3,0-3C233.5,30.9,233.5,33.9,235.4,33.9L235.4,33.9z"/>
		</g>
	</g>
	<g id="XMLID_153_">
		<g id="XMLID_616_">
			<path id="XMLID_5_" class="st4" d="M220.4,55.9c1.9,0,1.9-3,0-3C218.5,52.9,218.5,55.9,220.4,55.9L220.4,55.9z"/>
		</g>
	</g>
	<g id="XMLID_160_">
		<g id="XMLID_626_">
			<path id="XMLID_6_" class="st4" d="M497.4,36.9c1.9,0,1.9-3,0-3C495.5,33.9,495.5,36.9,497.4,36.9L497.4,36.9z"/>
		</g>
	</g>
	<g id="XMLID_161_">
		<g id="XMLID_648_">
			<path id="XMLID_7_" class="st4" d="M625.4,57.9c1.9,0,1.9-3,0-3C623.5,54.9,623.5,57.9,625.4,57.9L625.4,57.9z"/>
		</g>
	</g>
	<g id="XMLID_210_">
		<g id="XMLID_685_">
			<path id="XMLID_8_" class="st4" d="M683.4,25.9c1.9,0,1.9-3,0-3C681.5,22.9,681.5,25.9,683.4,25.9L683.4,25.9z"/>
		</g>
	</g>
	<g id="XMLID_377_">
		<g id="XMLID_694_">
			<path id="XMLID_9_" class="st4" d="M707.4,173.9c1.9,0,1.9-3,0-3C705.5,170.9,705.5,173.9,707.4,173.9L707.4,173.9z"/>
		</g>
	</g>
	<g id="XMLID_458_">
		<g id="XMLID_703_">
			<path id="XMLID_10_" class="st4" d="M628.4,150.9c1.9,0,1.9-3,0-3C626.5,147.9,626.5,150.9,628.4,150.9L628.4,150.9z"/>
		</g>
	</g>
	<g id="XMLID_600_">
		<g id="XMLID_711_">
			<path id="XMLID_11_" class="st4" d="M486.4,156.9c1.9,0,1.9-3,0-3C484.5,153.9,484.5,156.9,486.4,156.9L486.4,156.9z"/>
		</g>
	</g>
	<g id="XMLID_607_">
		<g id="XMLID_720_">
			<path id="XMLID_12_" class="st4" d="M426.4,276.9c1.9,0,1.9-3,0-3C424.5,273.9,424.5,276.9,426.4,276.9L426.4,276.9z"/>
		</g>
	</g>
	<g id="XMLID_614_">
		<g id="XMLID_729_">
			<path id="XMLID_13_" class="st4" d="M331.4,281.9c1.9,0,1.9-3,0-3C329.5,278.9,329.5,281.9,331.4,281.9L331.4,281.9z"/>
		</g>
	</g>
	<g id="XMLID_621_">
		<g id="XMLID_739_">
			<path id="XMLID_14_" class="st4" d="M346.4,227.9c1.9,0,1.9-3,0-3C344.5,224.9,344.5,227.9,346.4,227.9L346.4,227.9z"/>
		</g>
	</g>
	<g id="XMLID_643_">
		<g id="XMLID_746_">
			<path id="XMLID_15_" class="st4" d="M870.4,212.9c1.9,0,1.9-3,0-3C868.5,209.9,868.5,212.9,870.4,212.9L870.4,212.9z"/>
		</g>
	</g>
	<path id="XMLID_683_" class="st5" d="M547.4,46.4c-1.5-0.3-2.8,1.7-1.8,2.9"/>
	<path id="XMLID_692_" class="st5" d="M565.4,242.4c1-1.3,2-2.7,3-4"/>
	<path id="XMLID_701_" class="st5" d="M484.7,215.2c-0.7-1.3-1.4-2.6-2.2-3.9"/>
	<path id="XMLID_709_" class="st5" d="M414.4,95.4c2-0.9,4.1-1.8,6.1-2.7"/>
	<path id="XMLID_717_" class="st5" d="M943.4,52.2c1,0.4,2,0.7,3,1.1"/>
	<path id="XMLID_725_" class="st5" d="M967.4,113.4c-0.3,0.3-0.7,0.7-1,1"/>
	<path id="XMLID_737_" class="st5" d="M85.3,42.6c-2.6-1.1-5.3-2.1-7.9-3.2"/>
	<path id="XMLID_738_" class="st5" d="M20.2,51.3c0.3-1,0.7-2,1-3"/>
	<path id="XMLID_744_" class="st5" d="M28.4,12.5c1-0.5,2.4-0.1,3,0.9"/>
</g>
<g id="typo">
	<rect id="XMLID_2_" x="100.8" y="78" class="st0" width="692.7" height="113.4"/>
	<text id="XMLID_1_" transform="matrix(1 0 0 1 100.8491 175.5239)" class="st2 st6">LE TIRET</text>
	<rect id="XMLID_18_" x="402" y="362.6" class="st0" width="414.3" height="113.4"/>
	<text id="XMLID_17_" transform="matrix(1 0 0 1 402.0274 460.1191)" class="st2 st6">DU SIX</text>
</g>
<g id="Calque_5">
</g>
<g id="Calque_2">
	<g id="XMLID_1261_">
		<g id="XMLID_588_">
			<path id="XMLID_20_" d="M200.1,217.6c-7.8-1.4-15.6-2.5-23.5-3.3c-6.3-0.6-14.3-2.4-20.5-0.1c-3.4,1.2-5.7,4.2-4.7,7.9
				c1.6,5.6,8.1,6.1,12.9,6.7c16.1,1.8,32.1,1.9,48.3,2.7c6.9,0.3,14.2,1.1,20.3,4.6c1.4,0.8,4.1,2,4.7,3.6c0,0.9,0,1.7-0.1,2.6
				c0.8,1.8,0.4,2.7-1,2.9c-0.6,0.4-1.4,0.4-2.1,0.6c-4.8,1.1-9.9,1.5-14.9,1.9c-19.2,1.7-38.6,0.5-57.8-0.6c-1.9-0.1-1.9,2.9,0,3
				c16.7,1,33.4,2,50.1,1.1c7.7-0.4,15.8-0.9,23.3-2.6c3.2-0.7,7.6-2.5,7.2-6.6c-0.4-4.3-6.5-7.9-10-9.5c-5.1-2.4-10.7-3.4-16.2-3.8
				c-15.7-1.3-31.5-0.8-47.2-2.4c-2.2-0.2-4.5-0.4-6.7-0.7c-1.4-0.2-3.2-0.3-4.4-1c-1.9-0.2-2.5-1.5-1.9-3.7c-1.3-2-1.2-3.2,0.4-3.6
				c3-2.1,8.9-0.8,12.2-0.6c10.2,0.7,20.3,2,30.4,3.9C201.2,220.8,202,217.9,200.1,217.6L200.1,217.6z"/>
		</g>
	</g>
	<g id="XMLID_1254_">
		<g id="XMLID_580_">
			<path id="XMLID_36_" d="M251.2,221.6c4.7,12.6,14.1,23,26.6,28.2c6.8,2.9,14.2,4.1,21.6,3.7c4.6-0.3,14-0.6,15.7-5.9
				c1.9-5.7-5.2-10.8-8.9-13.7c-5.9-4.6-12.5-8.5-19-12.2c-10-5.7-24.9-10.1-32.3,1.8c-1,1.6,1.6,3.2,2.6,1.5
				c7.1-11.4,21.7-4.6,30.4,0.5c4.4,2.6,8.8,5.2,13,8.2c2.5,1.7,4.9,3.5,7.1,5.5c1.3,1.1,2.6,2.2,3.3,3.9c1.5,1.4,1.2,2.6-0.7,3.7
				c-0.6,1.6-1.7,2.5-3.3,2.5c-10,3.6-23.6,0.6-32.6-4.5c-9.5-5.3-16.7-14-20.5-24.1C253.4,219,250.5,219.8,251.2,221.6L251.2,221.6
				z"/>
		</g>
	</g>
	<g id="XMLID_1247_">
		<g id="XMLID_571_">
			<path id="XMLID_48_" d="M331.2,219.6c9.2,16,23.4,28.2,40.4,35.1c1.8,0.7,2.6-2.2,0.8-2.9c-16.3-6.6-29.8-18.4-38.6-33.7
				C332.8,216.4,330.2,217.9,331.2,219.6L331.2,219.6z"/>
		</g>
	</g>
	<g id="XMLID_1240_">
		<g id="XMLID_564_">
			<path id="XMLID_49_" d="M331.9,223.3c7.5-2.1,15.2-3.5,23-4.1c5.8-0.4,12.2-1,17.6,1.5c4.3,2,6.4,6.8,0.7,9.1
				c-3.4,1.3-7.5,1.7-11,2.4c-7.9,1.5-15.9,2.5-23.9,3.1c0.4,0.8,0.9,1.5,1.3,2.3c2.6-3.6,10-3.9,13.8-4.2c3.9-0.2,7.7,0,11.6,0.5
				c7.9,1,15.5,3.4,22.9,6.1c14.3,5.3,28.2,11.9,43.4,14.4c1.9,0.3,2.7-2.6,0.8-2.9c-18.3-3.1-34.5-12.1-52.1-17.4
				c-8.3-2.5-17-4.2-25.7-3.8c-5.7,0.2-13.7,0.6-17.3,5.7c-0.6,0.9,0.2,2.3,1.3,2.3c10.8-0.8,21.5-2.3,32.1-4.7
				c3.2-0.7,8.2-0.9,9.7-4.3c1-2.3,0.1-5.3-1.2-7.2c-3.4-5-10.5-6-16-6.1c-10.7-0.1-21.5,1.7-31.7,4.6
				C329.2,220.9,330,223.8,331.9,223.3L331.9,223.3z"/>
		</g>
	</g>
	<g id="XMLID_1233_">
		<g id="XMLID_554_">
			<path id="XMLID_50_" d="M452.8,227.4c10.5,14,25,23.6,39.5,32.9c1.6,1,3.1-1.6,1.5-2.6c-14.1-9-28.3-18.2-38.4-31.8
				C454.3,224.4,451.7,225.9,452.8,227.4L452.8,227.4z"/>
		</g>
	</g>
	<g id="XMLID_1226_">
		<g id="XMLID_548_">
			<path id="XMLID_51_" d="M416.5,226.6c28.7-0.4,57.3-0.4,86,0c1.9,0,1.9-3,0-3c-28.7-0.4-57.3-0.4-86,0
				C414.6,223.6,414.6,226.6,416.5,226.6L416.5,226.6z"/>
		</g>
	</g>
	<g id="XMLID_1219_">
		<g id="XMLID_542_">
			<path id="XMLID_52_" d="M529.9,226.1c4.6,10.8,10,23,18.6,31.2c6.7,6.3,16.6,9.3,24.8,4c1.6-1.1,0.1-3.7-1.5-2.6
				c-19.2,12.6-33.8-21.2-39.3-34.1C531.7,222.8,529.1,224.4,529.9,226.1L529.9,226.1z"/>
		</g>
	</g>
	<g id="XMLID_1212_">
		<g id="XMLID_535_">
			<path id="XMLID_53_" d="M520.4,211.6c5,1.5,9.5,3.8,13.6,6.9c1.6,1.1,3.1-1.5,1.5-2.6c-4.4-3.2-9.2-5.6-14.4-7.2
				C519.3,208.2,518.6,211,520.4,211.6L520.4,211.6z"/>
		</g>
	</g>
	<g id="XMLID_1205_">
		<g id="XMLID_527_">
			<path id="XMLID_54_" d="M585,216.8c7,3.6,9.9,11,13.3,17.6c1.5,3,3.2,6,5.3,8.6c2.7,3.3,6.1,5.6,8.2,9.4
				c3.9,7.2,11.6,5.4,18.7,5.1c11.1-0.4,22.3-0.8,33.4-1.2c1.9-0.1,1.9-3.1,0-3c-10.5,0.4-21,0.7-31.4,1.1c-4.1,0.1-12,1.9-15.7-0.5
				c-2.7-1.7-4.3-6.5-6.8-8.9c-5.5-5.1-8.3-11-11.7-17.5c-2.8-5.5-6.1-10.5-11.7-13.4C584.8,213.3,583.3,215.9,585,216.8L585,216.8z
				"/>
		</g>
	</g>
	<g id="XMLID_1198_">
		<g id="XMLID_521_">
			<path id="XMLID_55_" d="M597.4,233.1c16.3,0.8,32.6,1.6,49,2.3c1.9,0.1,1.9-2.9,0-3c-16.3-0.8-32.6-1.6-49-2.3
				C595.4,230,595.5,233,597.4,233.1L597.4,233.1z"/>
		</g>
	</g>
	<g id="XMLID_1191_">
		<g id="XMLID_515_">
			<path id="XMLID_56_" d="M586.7,218.7c10.7-0.9,21.4-1.7,32-2.6c10.1-0.8,22.1-3.6,31.9-0.2c1.8,0.6,2.6-2.3,0.8-2.9
				c-9.6-3.4-20.8-0.9-30.7-0.1c-11.3,0.9-22.7,1.8-34,2.7C584.8,215.9,584.8,218.9,586.7,218.7L586.7,218.7z"/>
		</g>
	</g>
	<g id="XMLID_1184_">
		<g id="XMLID_509_">
			<path id="XMLID_57_" d="M720.6,216.3c9.2,15.6,18.3,31.3,27.5,46.9c1,1.7,3.6,0.2,2.6-1.5c-9.2-15.6-18.3-31.3-27.5-46.9
				C722.2,213.1,719.6,214.6,720.6,216.3L720.6,216.3z"/>
		</g>
	</g>
	<g id="XMLID_1177_">
		<g id="XMLID_503_">
			<path id="XMLID_58_" d="M722.8,214.9c17.2,0.1,34.9,6.6,47.1,19c3.7,3.7,8.2,10.9,2.2,14.9c-2.9,1.9-6.8,2-10.1,2.6
				c-6.8,1.3-12.5,4.6-17.1,9.8c-1.3,1.5,0.9,3.6,2.1,2.1c3.7-4.2,8.2-7.2,13.7-8.6c3.9-0.9,8.2-0.9,11.8-2.8
				c7.2-3.6,6.3-11.6,2.1-17.3c-11.3-15.4-33.4-22.8-51.7-22.9C720.9,211.9,720.9,214.9,722.8,214.9L722.8,214.9z"/>
		</g>
	</g>
	<g id="XMLID_1170_">
		<g id="XMLID_496_">
			<path id="XMLID_59_" d="M772.7,210.7c9.3,2.8,16.9,8.5,24.4,14.6c7.8,6.3,15.6,12.7,23.4,19.1c3,2.5,6.2,5.8,10,7.2
				c3.4,1.2,7.1,0.9,10.6,0.8c9.6-0.3,19-1.4,28.5-3.1c1.9-0.3,1.1-3.2-0.8-2.9c-9.8,1.8-19.6,2.9-29.5,3.1c-3,0.1-5.8,0.3-8.6-1.1
				c-2.4-1.1-4.4-3.3-6.5-4.9c-3.4-2.8-6.9-5.6-10.3-8.4c-12.3-10.1-24.6-22.6-40.2-27.2C771.6,207.2,770.8,210.1,772.7,210.7
				L772.7,210.7z"/>
		</g>
	</g>
	<g id="XMLID_1163_">
		<g id="XMLID_490_">
			<path id="XMLID_60_" d="M808.4,233c12.4-1.4,24.7-2.8,37.1-4.3c1.9-0.2,1.9-3.2,0-3c-12.4,1.4-24.7,2.8-37.1,4.3
				C806.5,230.2,806.5,233.2,808.4,233L808.4,233z"/>
		</g>
	</g>
	<g id="XMLID_1156_">
		<g id="XMLID_484_">
			<path id="XMLID_61_" d="M776.9,212.7c16.7-1.4,33.4-2.8,50.1-4.2c1.9-0.2,1.9-3.2,0-3c-16.7,1.4-33.4,2.8-50.1,4.2
				C775,209.8,775,212.8,776.9,212.7L776.9,212.7z"/>
		</g>
	</g>
	<g id="XMLID_1149_">
		<g id="XMLID_478_">
			<path id="XMLID_62_" d="M27.8,281.6c9.2,20.5,20.2,40.1,32.8,58.7c1.1,1.6,3.7,0.1,2.6-1.5c-12.7-18.6-23.6-38.2-32.8-58.7
				C29.6,278.3,27,279.8,27.8,281.6L27.8,281.6z"/>
		</g>
	</g>
	<g id="XMLID_1142_">
		<g id="XMLID_472_">
			<path id="XMLID_63_" d="M31.1,283.3c10.5,0.3,21,0.6,31.5,1c8.7,0.3,26.2-1.4,28.3,10.5c1.9,11.3-17.7,12.2-24.9,12.4
				c-10.2,0.3-20.2-1.5-29.7-5c-0.1,1-0.3,2-0.4,2.9c18.3,1.6,36.8,3.2,54.4,8.8c17.2,5.5,32.9,14.5,48.5,23.4
				c1.7,1,3.2-1.6,1.5-2.6c-15.8-9-31.8-18.1-49.2-23.7c-17.8-5.7-36.6-7.3-55.2-8.9c-1.8-0.2-1.9,2.4-0.4,2.9
				c12.3,4.6,25.4,6.2,38.4,4.5c7.5-1,20.1-3.1,20.3-13c0.2-10.1-10.4-14-18.7-14.7c-14.7-1.2-29.6-1-44.3-1.4
				C29.1,280.2,29.1,283.2,31.1,283.3L31.1,283.3z"/>
		</g>
	</g>
	<g id="XMLID_1135_">
		<g id="XMLID_466_">
			<path id="XMLID_64_" d="M143.1,288.7c3,16.2,9.3,31.8,18.9,45.2c4.4,6.2,9.2,5.7,16.4,5.9c9.8,0.2,19.6,0.4,29.4,0.6
				c1.9,0,1.9-3,0-3c-7.9-0.2-15.7-0.3-23.6-0.5c-3.9-0.1-7.9,0.1-11.8-0.2c-3.5-0.3-5.2-0.9-7.4-3.6c-1.3-1.5-2.3-3.3-3.4-5
				c-7.8-12.3-13-25.9-15.7-40.2C145.7,286,142.8,286.8,143.1,288.7L143.1,288.7z"/>
		</g>
	</g>
	<g id="XMLID_1128_">
		<g id="XMLID_460_">
			<path id="XMLID_65_" d="M158.5,321.4c-1.3-9.4,9.5-12.4,16.7-12c6.6,0.3,13,2,19.7,1.3c1.9-0.2,1.9-3.2,0-3
				c-9.9,1.1-20.5-3.6-30.1,0.1c-6,2.3-10,7.9-9.1,14.4C155.9,324.1,158.8,323.3,158.5,321.4L158.5,321.4z"/>
		</g>
	</g>
	<g id="XMLID_1121_">
		<g id="XMLID_454_">
			<path id="XMLID_66_" d="M145,288.3c16-0.1,32-0.2,48-0.3c1.9,0,1.9-3,0-3c-16,0.1-32,0.2-48,0.3
				C143.1,285.3,143.1,288.3,145,288.3L145,288.3z"/>
		</g>
	</g>
	<g id="XMLID_1114_">
		<g id="XMLID_448_">
			<path id="XMLID_67_" d="M158.4,288.1c10.1-3.2,17.9-10.6,21.5-20.5c0.7-1.8-2.2-2.6-2.9-0.8c-3.3,8.9-10.4,15.6-19.4,18.4
				C155.7,285.8,156.5,288.7,158.4,288.1L158.4,288.1z"/>
		</g>
	</g>
	<g id="XMLID_1107_">
		<g id="XMLID_401_">
			<path id="XMLID_68_" d="M276.7,282.8c-10.3-9.3-25.2-11.7-37.6-5c-3.3,1.8-11.3,6.2-10,11c1.2,4.5,10.8,6.8,14.5,8
				c14.4,4.6,32.6,5.2,44.1,16.1c10.3,9.8-3.6,17.8-12.6,20.3c-7.4,2.1-14.4,0-21.6-2.1c-1.9-0.6-2.6,2.3-0.8,2.9
				c12.5,3.8,25.4,4.8,36.3-4c4.3-3.5,6.9-8.7,4.6-14.1c-2.4-5.5-8.9-9.3-14.1-11.7c-13.3-6.3-28.5-6.8-42-12.8
				c-1.7-0.8-5.6-1.9-5.3-4.5c0.2-1.4,4.6-4.2,5.5-4.8c3.3-2.2,7.1-3.8,11-4.6c9.3-1.8,18.7,1.2,25.7,7.5
				C276,286.3,278.2,284.1,276.7,282.8L276.7,282.8z"/>
		</g>
	</g>
	<g id="XMLID_1100_">
		<g id="XMLID_629_">
			<path id="XMLID_69_" d="M321.9,274.4c12.1,19,23.7,38.2,34.8,57.7c1,1.7,3.6,0.2,2.6-1.5c-11.1-19.5-22.8-38.8-34.8-57.7
				C323.5,271.2,320.9,272.7,321.9,274.4L321.9,274.4z"/>
		</g>
	</g>
	<g id="XMLID_1093_">
		<g id="XMLID_385_">
			<path id="XMLID_70_" d="M380.9,278.9c5.8,8.7,12.5,16.7,20.1,23.8c3.5,3.3,7.2,6.4,11.1,9.4c4.6,3.5,11.3,6.5,13.5,12.2
				c0.7,1.8,3.6,1,2.9-0.8c-1.4-3.7-3.9-6.1-7.1-8.4c-5-3.6-10-7-14.6-11.1c-8.9-7.8-16.7-16.7-23.3-26.6
				C382.4,275.8,379.8,277.3,380.9,278.9L380.9,278.9z"/>
		</g>
	</g>
	<g id="XMLID_1086_">
		<g id="XMLID_379_">
			<path id="XMLID_71_" d="M377.4,277.5c13.2,0.8,26.5-0.5,39.8,0.4c14.2,1,26.7,6,39.4,12.3c5.4,2.7,15.9,11,6.4,16.2
				c-4.7,2.6-11.5,2.5-16.7,3.8c-12,2.9-23.4,7.5-34.2,13.4c-1.7,0.9-0.2,3.5,1.5,2.6c14-7.8,28.7-12.3,44.3-15.3
				c4.4-0.8,9.4-2.2,11.1-6.9c1.6-4.5-0.8-9.2-4.1-12.2c-5-4.3-12.1-6.9-18-9.5c-6.8-3-13.7-5.3-21-6.5c-16.1-2.6-32.4-0.4-48.5-1.4
				C375.4,274.4,375.4,277.4,377.4,277.5L377.4,277.5z"/>
		</g>
	</g>
	<g id="XMLID_1079_">
		<g id="XMLID_373_">
			<path id="XMLID_72_" d="M489.5,291.3c5.9,7.7,11.7,15.4,17.7,23c4.4,5.6,9,11.4,15.3,14.8c14.6,7.9,31.7,0.6,47.2,3.6
				c1.9,0.4,2.7-2.5,0.8-2.9c-14.6-2.8-31.1,3.9-45-2.6c-7.1-3.3-12-9.7-16.7-15.7c-5.6-7.2-11.1-14.5-16.7-21.8
				C490.9,288.2,488.3,289.7,489.5,291.3L489.5,291.3z"/>
		</g>
	</g>
	<g id="XMLID_1072_">
		<g id="XMLID_365_">
			<path id="XMLID_73_" d="M506,313.3c16.4-3.5,33-5.1,49.7-5.1c1.9,0,1.9-3,0-3c-17,0-33.9,1.7-50.5,5.2
				C503.3,310.8,504.1,313.7,506,313.3L506,313.3z"/>
		</g>
	</g>
	<g id="XMLID_1065_">
		<g id="XMLID_357_">
			<path id="XMLID_74_" d="M494.1,293.2c-1.4-2.5,10.3-4,11.3-4.2c4.1-0.8,8.3-1.6,12.4-2.4c8.3-1.5,16.6-3,24.9-4.4
				c1.9-0.3,1.1-3.2-0.8-2.9c-11.8,2-23.6,4.1-35.4,6.4c-3.9,0.8-19.2,1.4-15,9C492.5,296.4,495.1,294.9,494.1,293.2L494.1,293.2z"
				/>
		</g>
	</g>
	<g id="XMLID_1058_">
		<g id="XMLID_351_">
			<path id="XMLID_75_" d="M620.3,332.4c-7.1-17.2-17.5-32.6-31-45.3c-0.5,0.8-1,1.7-1.5,2.5c32.4,11,59.3,33.5,92,43.7
				c1.3,0.4,2.3-1.1,1.7-2.2c-9.9-19.2-23.7-34.6-38.2-50.4c-1.3-1.4-3.4,0.7-2.1,2.1c14.3,15.6,27.9,30.9,37.8,49.8
				c0.6-0.7,1.1-1.5,1.7-2.2c-32.7-10.2-59.7-32.7-92-43.7c-1.4-0.5-2.5,1.5-1.5,2.5c13.1,12.4,23.4,27.3,30.2,44
				C618.2,334.9,621.1,334.2,620.3,332.4L620.3,332.4z"/>
		</g>
	</g>
	<g id="XMLID_1051_">
		<g id="XMLID_345_">
			<path id="XMLID_76_" d="M740,291.4c-10.2-6.6-23.8-9.3-34-1.4c-9.9,7.7-9.6,20.4-3.7,30.5c7.2,12.3,19.9,12,32.7,11.6
				c12.9-0.4,25.8-2.5,36.2-10.6c1.5-1.2-0.6-3.3-2.1-2.1c-8.7,6.7-19.4,8.9-30.2,9.5c-10,0.6-23.4,2.3-30.9-5.6
				c-7.4-7.8-10.3-21.3-2.1-29.4c9.1-9,22.7-6.3,32.5,0.1C740.1,295,741.6,292.4,740,291.4L740,291.4z"/>
		</g>
	</g>
	<g id="XMLID_1044_">
		<g id="XMLID_338_">
			<path id="XMLID_77_" d="M782.1,286.1c6.6,6,12,13.1,15.9,21.2c3,6.2,4.2,13.9,8.5,19.4c4.3,5.5,10.3,5.3,16.7,4.1
				c9.9-1.8,19.7-3.8,29.5-5.7c1.9-0.4,1.1-3.3-0.8-2.9c-8.6,1.6-17.2,3.3-25.8,4.9c-5,1-11.2,3-15.6-0.7c-2.6-2.2-4-5.6-5.1-8.6
				c-4.9-13-10.7-24.3-21.1-33.8C782.8,282.7,780.7,284.8,782.1,286.1L782.1,286.1z"/>
		</g>
	</g>
	<g id="XMLID_1037_">
		<g id="XMLID_332_">
			<path id="XMLID_78_" d="M799.8,306.1c11-1.1,22.1-2.2,33.1-3.3c1.9-0.2,1.9-3.2,0-3c-11,1.1-22.1,2.2-33.1,3.3
				C797.9,303.3,797.9,306.3,799.8,306.1L799.8,306.1z"/>
		</g>
	</g>
	<g id="XMLID_1030_">
		<g id="XMLID_326_">
			<path id="XMLID_79_" d="M782.2,285.4c16.9,1.2,33.7,0.4,50.4-2.3c1.9-0.3,1.1-3.2-0.8-2.9c-16.4,2.6-33,3.3-49.6,2.2
				C780.3,282.3,780.3,285.3,782.2,285.4L782.2,285.4z"/>
		</g>
	</g>
	<g id="XMLID_1020_">
		<path id="XMLID_1029_" class="st7" d="M206,365c-2.4,14-4.8,28.1-7.2,42.1c-0.3,1.8-0.6,3.9,0.3,5.5c0.6,1.1,1.7,1.8,2.8,2.5
			c3.5,2.2,7,4.5,11,5.6c5.3,1.4,11,0.6,16.4-0.4c5.6-1,11.3-2.2,16.6-4.3c11.5-4.5,21.3-13.2,27.1-24.2"/>
		<path id="XMLID_1028_" class="st7" d="M267.9,395.1c0.7,7.2,1,14.5,0.8,21.8c8.2-0.8,16.4-2.4,24.3-4.7c3.1-0.9,6.8-2.7,7-6
			c0.1-3.5-3.9-5.5-7.4-6.2c-2.8-0.5-6-0.7-8.1,1.2c1.1-5.8,2.3-11.7,3.4-17.5c0.4-1.9,0.8-3.9,0.4-5.8c-0.9-5.3-6.5-8.2-11.6-9.9"
			/>
		<path id="XMLID_1027_" class="st7" d="M231.9,367.1c10.1-1.1,20.5-0.7,30.5,1.3c8.7,1.7,17.2,4.6,26,4.9c0.5,0,1.1,0,1.6-0.2
			c2.1-0.8,1.6-3.8,0.8-5.9c-1.9-4.6-4.1-9.7-8.7-11.7c-2.2-1-4.7-1.1-7.1-1.2c-6.9-0.3,4.6,0.2-2.3-0.1"/>
		<path id="XMLID_1026_" class="st7" d="M201.6,367.1c4.5-8.3,9.1-16.5,13.6-24.8c0.4-0.7,0.8-1.5,1.5-1.9c2.2-1.6,5.8,0.7,8-1.1
			c1.1-0.9,1.3-2.3,1.5-3.7c0.7-5.9,1.4-12.1-0.9-17.5c-1.1-2.7-3-5.6-1.8-8.3c5.1-2.5,11.3-2.5,16.5-0.1c5.1,2.4,9.1,7.2,10.5,12.7
			c-0.5,0.7-1.7,0.6-2.1-0.2c1-0.2,1.9-0.3,2.9-0.5c2.1-0.3,4.2-0.7,6.3-0.1c2,0.6,3.9,2.3,4,4.4c0,2.2-1.9,4-4,4.5
			c-2.1,0.6-4.3,0.2-6.4-0.2c2.1,3.7,2.3,8.5,0.3,12.3c-0.3,0.6-0.7,1.3-1.4,1.6c-0.7,0.3-1.5,0.2-2.2,0.1c-3-0.7-5.7-2.4-7.7-4.8"
			/>
		<path id="XMLID_1025_" class="st7" d="M241.7,343.3c6.8,1,13.3,4.5,17.9,9.6"/>
		<path id="XMLID_1024_" class="st7" d="M248.3,385.2c3.9-5.7,7.8-11.4,11.7-17.2"/>
		<path id="XMLID_1023_" class="st7" d="M248.9,387.9c-1.8-6.6-2.3-13.6-1.3-20.4"/>
		<path id="XMLID_1022_" class="st7" d="M200.7,382.4c5.3,3.9,10.9,7.9,17.4,8.7c3.4,0.4,6.9-0.2,10.3-0.7c4.9-0.8,9.9-1.6,14.1-4.1
			c1.1-0.7,2.2-1.4,3.1-2.3"/>
		<path id="XMLID_1021_" class="st7" d="M266.4,348.4c4.5,1.6,7.7,6.4,7.3,11.1c-1.6,0.5-3.4,0-4.5-1.2c-1.1-1.2-1.6-3-1.1-4.5
			c0,1.9-0.1,3.8-0.1,5.7c-1.3,0.5-2.7-0.3-3.5-1.4c-0.7-1.1-0.9-2.5-1.1-3.9c0,1.2,0.7,2.3,0.9,3.6c0.2,1.2-0.9,2.8-2,2.2
			c-0.4-0.2-0.6-0.6-0.8-1c-1.2-2.3-1.8-5.1-3.9-6.8c-0.7-0.6-1.4-1-2-1.6s-1-1.6-0.6-2.4c5.1,0.5,10.2,0.9,15.3,1.4"/>
	</g>
	<g id="XMLID_363_">
		<g id="XMLID_638_">
			<path id="XMLID_80_" d="M313.8,260c2.5,2.2,5.2,4,8.3,5.3c1.8,0.8,3.3-1.8,1.5-2.6c-2.8-1.2-5.4-2.8-7.7-4.8
				C314.5,256.6,312.4,258.7,313.8,260L313.8,260z"/>
		</g>
	</g>
</g>
<g id="Calque_3">
	<g id="XMLID_695_">
		<g id="XMLID_319_">
			<path id="XMLID_81_" d="M259.2,553.1c16.3-20.4,30.9-42,43.8-64.7c-0.9,0-1.7,0-2.6,0c4,8.7,5.2,17.3,5.5,26.8
				c0.1,3.7,1.7,6.7,5.9,5.6c2.4-0.6,4.2-2.3,6-3.9c3.5-3,7-6.1,10.5-9.1c7-6.1,13.9-12.1,20.9-18.2c-0.8-0.2-1.7-0.4-2.5-0.7
				c2.4,6.6,0.6,13.1-1.7,19.4c-2.2,6.2-4.6,12.3-6.9,18.4c-4.6,12.4-9.3,24.9-13.9,37.3c-0.7,1.8,2.2,2.6,2.9,0.8
				c5.1-13.7,10.2-27.3,15.3-41c4.1-10.9,11.5-23.9,7.2-35.7c-0.4-1.1-1.6-1.4-2.5-0.7c-10.7,9.3-21.1,19.1-32.1,28
				c-1.5,1.2-4.2,3.9-6.1,0.8c-0.5-0.8,0.1-2.9,0.1-3.8c0-2.8-0.2-5.6-0.7-8.4c-0.9-6-2.7-11.8-5.3-17.3c-0.5-1-2.1-0.9-2.6,0
				c-12.7,22.5-27.2,43.9-43.3,64.1C255.9,552.4,258,554.6,259.2,553.1L259.2,553.1z"/>
		</g>
	</g>
	<g id="XMLID_688_">
		<g id="XMLID_313_">
			<path id="XMLID_82_" d="M353.1,563.8c12.4-20.2,25.8-39.8,40.2-58.6c1.8-2.3,3.8-6.5,6.2-7.9c0.3-0.3,0.5-0.6,0.8-1
				c1.2,0.2,2.4,0.5,3.6,0.7c0.8,1,0.7,3.8,0.8,5c0.8,6.2,1.4,12.5,1.9,18.8c1.1,12.5,1.9,25.1,2.4,37.7c0.1,1.9,3.1,1.9,3,0
				c-0.6-15.2-1.7-30.4-3.2-45.6c-0.4-3.8-0.2-26.3-9.7-19.7c-2.2,1.6-3.8,4.3-5.4,6.4c-2,2.6-4,5.2-6,7.8
				c-4.4,5.8-8.7,11.7-12.8,17.6c-8.6,12.1-16.7,24.6-24.5,37.2C349.5,563.9,352.1,565.4,353.1,563.8L353.1,563.8z"/>
		</g>
	</g>
	<g id="XMLID_681_">
		<g id="XMLID_306_">
			<path id="XMLID_83_" d="M367.9,530.2c13.4-4.5,27.4-6.2,41.5-5.2c1.9,0.1,1.9-2.9,0-3c-14.4-1.1-28.6,0.7-42.3,5.3
				C365.3,527.9,366.1,530.8,367.9,530.2L367.9,530.2z"/>
		</g>
	</g>
	<g id="XMLID_674_">
		<g id="XMLID_300_">
			<path id="XMLID_84_" d="M433.7,556.5c6.2-9.8,10-20.7,10.9-32.3c0.6-7.3,0.4-13.5,3.3-20.4c0.8-1.8,1.5-3.6,1.8-5.6
				c0.2-2.1,1.2-4.3,3.4-5.3c1-0.5,4.4,0,5.6,0c6.4,0,12.9-0.3,19.4-0.1c9,0.4,10.7,9.6,6.8,16.4c-3.6,6.3-10.1,9.6-17.1,10.1
				c-3.4,0.2-6.9-0.1-10.3-0.8c-1.3-0.3-12.7-3.1-11.9-4.7c-0.7,0.2-1.4,0.4-2.1,0.5c7.1,3.6,14.2,7.3,21.2,11.3
				c6.7,3.9,12.3,8.2,15.8,15.2c4.1,8.3,10.2,22.3,22.2,17.6c1.8-0.7,1-3.6-0.8-2.9c-13.5,5.3-17.6-17.5-24.4-24.4
				c-8.6-8.7-21.7-14-32.4-19.5c-0.7-0.3-1.7-0.2-2.1,0.5c-4.3,8.6,21.1,10.4,25.7,9.9c10-1,20-7.9,21.2-18.5
				c0.5-4.1-0.8-9.1-4.2-11.8c-4.7-3.7-13.1-2.1-18.6-2.1c-3.7,0-7.4,0-11.1,0c-2.4,0-5.5-0.4-7.5,1.3c-1.3,1.1-1.5,2.7-1.6,4.3
				c-0.2,3.7-1.5,6.5-2.8,9.9c-3.1,7.7-1.6,16.3-3,24.4c-1.5,9-5,17.5-9.8,25.2C430.1,556.6,432.7,558.1,433.7,556.5L433.7,556.5z"
				/>
		</g>
	</g>
	<g id="XMLID_667_">
		<g id="XMLID_293_">
			<path id="XMLID_85_" d="M532.2,492.4c0,22.9-3.7,45.6-10.8,67.4c-0.6,1.8,2.3,2.6,2.9,0.8c7.2-22.1,10.9-45,10.9-68.2
				C535.2,490.5,532.2,490.5,532.2,492.4L532.2,492.4z"/>
		</g>
	</g>
	<g id="XMLID_660_">
		<g id="XMLID_287_">
			<path id="XMLID_86_" d="M533.1,492.3c7.2,1.9,14.8,4.6,19.9,10.3c6.2,6.9,6.4,16.3,3,24.5c-6.4,15.6-23,22.6-36.8,30.3
				c-1.7,0.9-0.2,3.5,1.5,2.6c15.9-8.8,35.2-17.5,39.8-36.9c4.4-18.6-10.5-29.5-26.6-33.7C532,489,531.2,491.8,533.1,492.3
				L533.1,492.3z"/>
		</g>
	</g>
	<g id="XMLID_653_">
		<g id="XMLID_281_">
			<path id="XMLID_87_" d="M585.3,498.1c-3.8,13.6-7,27.3-9.2,41.2c-0.6,3.4-1.9,7.3,1.3,9.8c4.1,3.2,11.1,3.8,16,4
				c1.9,0.1,1.9-2.9,0-3c-2.9-0.1-5.8-0.5-8.7-1.3c-4.2-1.2-6.8-2-6-6.7c0.7-4.7,1.6-9.5,2.5-14.2c1.9-9.7,4.3-19.4,7-28.9
				C588.7,497.1,585.8,496.3,585.3,498.1L585.3,498.1z"/>
		</g>
	</g>
	<g id="XMLID_646_">
		<g id="XMLID_275_">
			<path id="XMLID_88_" d="M595.1,489.2c-4.8-3.1-9.9-5.5-15.3-7.3c-1.8-0.6-2.6,2.3-0.8,2.9c5.2,1.7,10,4,14.6,7
				C595.2,492.8,596.7,490.2,595.1,489.2L595.1,489.2z"/>
		</g>
	</g>
	<g id="XMLID_639_">
		<g id="XMLID_268_">
			<path id="XMLID_89_" d="M715.1,497.7c-9.5-10.3-23.5-2.5-29.8,7c-4.6,6.9-7.8,15.1-10.1,23c-1.9,6.6-3.3,14.1,1,20
				c7.9,10.8,25.2,7.9,32.4-2.1c8.2-11.4-5.5-24.8-17.6-22.4c-6.3,1.3-10.7,11.2-11.6,16.8c-1.1,6.4,1.2,12.6,6.5,16.4
				c1.6,1.1,3.1-1.5,1.5-2.6c-5.9-4.2-6.2-12-3.5-18.2c1.4-3.3,3.5-6.8,6.6-8.6c3.3-1.9,8-0.6,11.2,1.2c8.3,4.6,8,13.9,0.8,19.3
				c-5.6,4.1-13.4,5.7-19.6,2.1c-12.9-7.5-3.4-27.5,1.6-37.4c2.6-5.2,5.8-10.5,10.8-13.7c5.6-3.5,13.1-3.8,17.8,1.3
				C714.3,501.2,716.4,499.1,715.1,497.7L715.1,497.7z"/>
		</g>
	</g>
	<path id="XMLID_187_" class="st8" d="M170.3,499.1c-14.3-5.4-29.1-11.2-39.1-22.6c-7.5-8.6-11.7-19.8-13.4-31.1
		c-1.7-11.8-0.9-24.1,2.4-35.6c3.3-11.5,9.5-22.6,19.6-29.1c5.5-3.5,11.9-5.4,18.3-6.6c30.8-5.9,65,4.9,84.4,29.5
		c6.3,8,11.2,17.6,11.9,27.8c1,12.8-4.5,25.2-11,36.3c-6.2,10.4-13.5,20.4-23,27.9c-9.5,7.5-21.4,12.5-33.5,12.3
		c-12.1-0.3-24.4-6.3-30.5-16.8"/>
	<g id="XMLID_194_">
		<g id="XMLID_682_">
			<path id="XMLID_136_" d="M136.8,401c2.3-4.7,5.3-8.9,9.2-12.4c-0.8-0.1-1.6-0.2-2.4-0.3c2.5,3.8,3.5,8,3.2,12.6
				c-0.2,1.9,2.8,1.9,3,0c0.4-5-0.8-9.9-3.6-14.1c-0.5-0.8-1.6-1-2.4-0.3c-4,3.7-7.3,8.1-9.7,13C133.4,401.2,136,402.7,136.8,401
				L136.8,401z"/>
		</g>
	</g>
	<g id="XMLID_201_">
		<g id="XMLID_262_">
			<path id="XMLID_90_" d="M136.4,396.9c4,0,8,0,12,0c1.9,0,1.9-3,0-3c-4,0-8,0-12,0C134.5,393.9,134.5,396.9,136.4,396.9
				L136.4,396.9z"/>
		</g>
	</g>
	<g id="XMLID_208_">
		<g id="XMLID_254_">
			<path id="XMLID_91_" d="M156.9,386.8c0.9,4.5-1.9,13.5,5.9,13.2c6.7-0.3,7.8-7.7,7.9-12.9c-0.9,0.3-1.9,0.5-2.8,0.8
				c1.5,3,1.1,6.8,3.9,9c1.7,1.4,3.7,1.7,5.6,0.5c1.6-1,0.1-3.6-1.5-2.6c-3.4,2.1-4.6-6.7-5.4-8.5c-0.7-1.4-2.8-0.6-2.8,0.8
				c0,1.9,0,4-0.6,5.8c-0.7,2.1-3.7,5.9-6.4,3.4c-2-1.8-0.4-7.8-0.9-10.3C159.4,384.1,156.5,384.9,156.9,386.8L156.9,386.8z"/>
		</g>
	</g>
	<g id="XMLID_215_">
		<g id="XMLID_242_">
			<path id="XMLID_92_" d="M149.5,412.7c-2.7-2.8-7-2.9-10.1-0.6c-2.7,1.9-5.6,6.6-4.8,10.1c0.4,1.6,1.4,2.3,2.8,3
				c2.3,1.2,4.8,2.5,7.3,3.4c4.1,1.5,6.7-1.6,8.4-5c0.8-1.7-1.7-3.3-2.6-1.5c-1.3,2.7-2.7,4.6-5.9,3.2c-1.7-0.8-4.9-1.7-6.3-3
				c-1.8-1.7,0.4-5.2,1.7-6.7c1.9-2.2,5.2-3.1,7.5-0.8C148.7,416.2,150.9,414,149.5,412.7L149.5,412.7z"/>
		</g>
	</g>
	<g id="XMLID_222_">
		<g id="XMLID_232_">
			<path id="XMLID_93_" d="M156.3,410.3c1.8,5.4,3.1,10.9,3.8,16.5c0.2,1.9,3.2,1.9,3,0c-0.7-5.9-1.9-11.7-3.9-17.3
				C158.5,407.7,155.6,408.5,156.3,410.3L156.3,410.3z"/>
		</g>
	</g>
	<g id="XMLID_343_">
		<g id="XMLID_224_">
			<path id="XMLID_94_" d="M156.7,411.6c4.8,5.2,10.2,9.7,16.1,13.5c0.8,0.5,2,0,2.2-0.9c1.2-5.3,1.1-10.5-0.2-15.7
				c-0.5-1.9-3.4-1.1-2.9,0.8c1.2,4.7,1.3,9.4,0.2,14.1c0.7-0.3,1.5-0.6,2.2-0.9c-5.7-3.7-10.9-8-15.5-13
				C157.5,408.1,155.4,410.2,156.7,411.6L156.7,411.6z"/>
		</g>
	</g>
	<g id="XMLID_358_">
		<g id="XMLID_214_">
			<path id="XMLID_95_" d="M184.2,405.4c-0.7,6.5-0.8,13-0.2,19.5c0.2,1.9,3.2,1.9,3,0c-0.6-6.5-0.6-13,0.2-19.5
				C187.4,403.4,184.4,403.5,184.2,405.4L184.2,405.4z"/>
		</g>
	</g>
	<g id="XMLID_406_">
		<g id="XMLID_189_">
			<path id="XMLID_97_" d="M185.9,406.1c6.2-0.7,18-1,17.1,8.3c-0.9,8.3-10.2,6.7-16.1,6.9c-1.9,0.1-1.9,3.1,0,3
				c4.7-0.1,10,0.9,14.2-1.6c3-1.8,4.8-5.1,4.9-8.5c0.5-11.1-12.1-12-20.1-11.1C184,403.3,184,406.3,185.9,406.1L185.9,406.1z"/>
		</g>
	</g>
	<path id="XMLID_405_" class="st7" d="M214,420.4c-2.5,4.3-4.6,8.8-6.5,13.4"/>
	<path id="XMLID_407_" class="st7" d="M129.2,445.2c1.9-1.6,3.7-3.5,5.2-5.5c0.1,3.9,0.3,7.8,0.4,11.7"/>
	<path id="XMLID_408_" class="st7" d="M143.2,438.7c-0.1,3.7-0.2,7.3-0.3,11"/>
	<path id="XMLID_409_" class="st7" d="M142.9,440c1.2-0.4,2.4-0.9,3.7-0.6s2.3,1.6,1.8,2.8c-0.6,1.3-2.3,1.3-3.7,1.1
		c-1.1-0.2-2.3-0.4-2.9-1.4c2.5,0.8,5.4,2,6.2,4.5c0.4,1.3,0.2,2.7,1,3.8"/>
	<path id="XMLID_410_" class="st7" d="M152.3,439.3c0.7,2.2,1.3,4.3,2,6.5c0.2,0.7,0.5,1.5,1.2,1.8c0.3-2.8,0.7-5.7,1-8.5"/>
	<path id="XMLID_411_" class="st7" d="M161.4,438.4c-0.7,3.2-1,6.5-0.6,9.7c1.6-0.5,3.2-1,4.9-1.5"/>
	<path id="XMLID_412_" class="st7" d="M161.1,443.4c1.5,0.1,3-0.3,4.3-1"/>
	<path id="XMLID_413_" class="st7" d="M161.1,438.7c1.8,0.1,3.6-0.1,5.3-0.6"/>
	<path id="XMLID_414_" class="st7" d="M176.7,440.7c-0.5,3.2,0.5,6.6,2.6,9.1c0.7-3.4,0.9-6.9,0.7-10.4"/>
	<path id="XMLID_415_" class="st7" d="M184,438.4c0,2.3,0.4,4.6,1.3,6.7"/>
	<line id="XMLID_416_" class="st7" x1="183.4" y1="434.9" x2="182.4" y2="434.9"/>
	<path id="XMLID_417_" class="st7" d="M192.4,438.7c-0.1-0.6-1-0.1-1.2,0.4c-0.6,1.5-0.6,3.1-0.6,4.7c0,1,0,2.1,0.5,3
		c0.4,0.9,1.3,1.7,2.4,1.7c0.1-0.5,0.2-1,0.3-1.5"/>
	<path id="XMLID_418_" class="st7" d="M199.7,438.7c-0.1,2.8,0,5.6,0.4,8.3"/>
	<path id="XMLID_419_" class="st7" d="M195.2,441.2c2.3-1.6,4.9-2.8,7.5-3.5"/>
	<path id="XMLID_420_" class="st7" d="M204.7,440c-0.4-0.1-0.7,0.4-0.7,0.8c-0.4,2.6,1,5.4,3.4,6.5c-0.3-1.6,0.2-3.2,0.1-4.8
		s-1.2-3.4-2.8-3.3"/>
	<path id="XMLID_421_" class="st7" d="M211.9,438.4c0,2.2,0,7,0,7"/>
	<path id="XMLID_422_" class="st7" d="M211.1,437.5c1.3-0.5,2.9-0.7,4.2-0.1c1.3,0.7,2.1,2.4,1.3,3.6c-0.9,1.4-2.9,1.3-4.5,0.7
		c2-0.2,4,1.1,4.6,3c0.4,1.1,0.7,2.7,1.9,2.6"/>
	<path id="XMLID_423_" class="st7" d="M187.5,453.1c-0.7,3.3-0.1,6.8,1.5,9.7"/>
	<path id="XMLID_424_" class="st7" d="M193.2,453c0.1,2.2,0.3,4.5,0.4,6.7"/>
	<path id="XMLID_425_" class="st7" d="M188,458.3c2-1.1,4.2-2,6.3-2.7"/>
	<path id="XMLID_426_" class="st7" d="M197.7,451.1c0.2,1.3-0.1,2.7,0.2,4c0.3,1.3,1.5,2.7,2.8,2.3c1.2-1.7,1.7-3.9,1.4-6"/>
	<path id="XMLID_427_" class="st7" d="M211.8,453c-0.9-1-2-1.8-3.3-2.1c-0.3-0.1-0.5-0.1-0.8,0c-0.3,0.1-0.4,0.3-0.6,0.6
		c-1.6,2.6-0.2,6.5,2.7,7.5c1,0.3,2.3,0.2,2.7-0.8c0.3-0.7-0.2-1.6-0.9-1.9c-0.7-0.4-1.5-0.3-2.3,0"/>
	<path id="XMLID_428_" class="st7" d="M216.1,450.1c-0.5,1.3-0.7,2.7-0.2,4c0.6,1.2,2.1,2.1,3.3,1.6c0.8-1.1,0.2-2.6-0.3-3.8
		c-0.3-0.6-0.6-1.3-1.2-1.6s-1.6-0.1-1.7,0.6"/>
	<path id="XMLID_429_" class="st7" d="M224.5,453.4c-1,2.4-2.2,4.6-3.8,6.6"/>
	<path id="XMLID_430_" class="st7" d="M141.7,469.3c-1.2-0.9-2.4-1.9-2.9-3.3c-0.5-1.4,0.2-3.3,1.7-3.5c1-0.1,2,0.7,2.4,1.7
		c0.3,1,0.1,2.1-0.2,3.1c-0.8,2.1-2.4,3.9-4.4,4.9"/>
	<path id="XMLID_431_" class="st7" d="M146.8,463.9c1.3-0.2,2.7-0.5,3.9-0.1s2.4,1.6,2.1,2.9c-0.3,1.6-2.2,2.2-3.8,2.5
		c-0.3,0.1-0.6,0.1-0.9,0c-0.6-0.3-0.5-1.4,0.2-1.7c0.6-0.3,1.4,0,1.9,0.5c0.9,0.8,1.3,2.1,0.9,3.2c-0.4,1.1-1.6,1.9-2.8,1.8
		s-2.1-1.4-1.9-2.6"/>
	<path id="XMLID_432_" class="st7" d="M160.5,468.4c-1.6-0.7-3.1-1.4-4.8-2c-0.3,2-0.8,4-1.6,5.8c0.9-0.4,1.9-0.9,3-0.8
		c1,0.1,2.1,0.9,2.1,1.9c0,0.9-0.7,1.5-1.4,2c-0.6,0.5-1.3,0.9-2.1,1c-0.8,0.1-1.6-0.3-1.9-1"/>
	<path id="XMLID_433_" class="st7" d="M164.8,468.4c-0.7,1.4-1.5,2.9-1.5,4.5c0,1.6,1.1,3.3,2.7,3.4c1.4,0.1,2.6-1.1,3-2.4
		c0.4-1.3,0.1-2.8-0.3-4.1c-0.4-1.1-1.2-2.4-2.3-2.1c-0.5,0.1-0.9,0.6-1.2,1c-0.5,0.7-1,1.3-1.6,2"/>
	<path id="XMLID_434_" class="st7" d="M170.1,481c2-2.4,3.8-5,5.3-7.8c-0.8-0.6-1.7-0.9-2.7-1.1"/>
	<path id="XMLID_435_" class="st7" d="M182,476.4c-0.1,4.3,0.1,8.7,0.4,13"/>
	<path id="XMLID_436_" class="st7" d="M182.5,478.7c-0.4-0.6,0-1.4,0.6-1.8c0.6-0.4,1.4-0.3,2-0.1c1.6,0.5,2.9,2.4,2.4,4
		c-0.6,2-3.2,2.6-5.3,2.5"/>
	<path id="XMLID_437_" class="st7" d="M191,487.4c0-4.2,0.1-8.4,0.1-12.6c2.2,3.2,4.1,6.6,5.7,10.2"/>
	<path id="XMLID_438_" class="st7" d="M191.1,482.1c1.1-0.6,2.4-0.9,3.7-1.1"/>
	<path id="XMLID_439_" class="st7" d="M203.4,486.1c-0.6-2.2-1.8-4.1-3.6-5.6c-1.4-1.2-3.3-2.3-3.7-4.1c4,1.6,7.9,3.4,11.6,5.6
		c-1.1-2.9-2.5-5.8-4-8.5"/>
	<path id="XMLID_440_" class="st7" d="M209.6,471.4c2.2,2.6,3.8,5.7,4.7,8.9"/>
	<path id="XMLID_441_" class="st7" d="M207,473.7c2.4-0.4,4.6-1.7,6-3.6"/>
	<path id="XMLID_442_" class="st7" d="M218.3,470.8c1.8,3.1,2.9,6.7,3.2,10.3"/>
	<path id="XMLID_443_" class="st7" d="M217.4,468.4c-0.9-0.4-1.8-0.9-2.7-1.3"/>
	<path id="XMLID_444_" class="st7" d="M225.4,474.7c-0.9-2.2-2-4.3-3-6.4c2.8,0.9,5.5,2.4,7.6,4.5c-0.1-3.3-3.5-6.3-2.4-9.5"/>
	<g id="XMLID_632_">
		<g id="XMLID_204_">
			<path id="XMLID_99_" d="M727,551.1c-0.1-0.8,0.1-1.5,0.8-1.9c-0.3,0.1-0.5,0.1-0.8,0.2c0.1,0,0.2,0,0,0c-0.3,0,0.1,0,0,0
				c-0.1,0,0.1,0.1,0,0c-0.1-0.1,0.1,0.1,0.1,0.2c0.1,0.1,0-0.1,0,0.1c0-0.2,0-0.1,0,0c0.1-0.2,0-0.1,0,0c0-0.1,0.1-0.3,0.1-0.1
				c0,0.1,0.1,0,0,0c-0.2,0.1,0.2,0,0,0c-0.1,0-0.1,0,0,0c0.1,0,0.1,0-0.1,0c-0.1,0-0.2,0,0,0c-0.1,0-0.2-0.1-0.3-0.1
				c0.2,0,0.1,0,0,0c0.1,0.1,0.1,0.1,0,0c-0.1-0.1-0.1-0.1,0,0c0.1,0.2-0.1-0.3,0,0c-0.1,0.5-0.3,1-0.4,1.5
				c-0.3,0.3-0.8,0.1-0.9-0.3c0.6,1.8,3.5,1.1,2.9-0.8c-0.5-1.7-2.8-2.4-4.1-1c-0.3,0.4-0.6,1-0.4,1.5c0.6,1.6,2.2,2.4,3.8,2.1
				c1.7-0.3,2.7-2,2.3-3.7c-0.4-1.6-2.4-3.2-4-2.2c-1.5,0.9-2.4,2.7-2.2,4.4c0.1,0.8,0.6,1.5,1.5,1.5
				C726.2,552.6,727.1,551.9,727,551.1L727,551.1z"/>
		</g>
	</g>
	<g id="XMLID_625_">
		<g id="XMLID_197_">
			<path id="XMLID_100_" d="M766.1,492.1c-3.4,6.8-5.3,14-6.3,21.5c-0.9,7.2-1.9,15.6-0.7,22.8c0.7,4.2,3.4,9.5,8.4,9.1
				c5.2-0.3,9.4-5.9,11.6-10.1c2.8-5.5,3.9-11.7,4.4-17.8c0.5-6.3,1.2-14.2-1.5-20.2c-2-4.4-6.4-6.8-11.1-4.9
				c-5.5,2.2-6.8,8.2-5.8,13.5c0.3,1.9,3.2,1.1,2.9-0.8c-0.7-3.9,0.3-9.3,5-10.2c4.4-0.9,6.2,2.8,7.1,6.1c1.1,4.1,0.8,8.9,0.7,13.1
				c-0.3,8.2-1.4,17.6-7.1,24c-2.1,2.4-5.6,5.8-9.3,2.9c-1.7-1.4-2.2-4.6-2.4-6.6c-0.4-4.3,0-8.8,0.2-13.1
				c0.6-9.7,2.2-19.2,6.6-27.9C769.6,491.9,767,490.4,766.1,492.1L766.1,492.1z"/>
		</g>
	</g>
	<g id="XMLID_579_">
		<g id="XMLID_190_">
			<path id="XMLID_101_" d="M828.1,547.2c0.2,0,0.3,0.1,0.4,0.2c-0.1-0.6-0.2-1.2-0.2-1.8c-0.2,0.3-0.4,0.4-0.8,0.4
				c-0.2,0-0.4-0.1-0.6-0.2c-0.1,0-0.1-0.1-0.2-0.3c-0.2,0.6-0.5,1.1-0.7,1.7c1.1-0.7,2.2-1.1,3.5-1.3c-0.6-0.2-1.1-0.5-1.7-0.7
				c0.2,0.5-0.4,1-0.8,1c-1.9-0.1-1.9,2.9,0,3c2.8,0.1,4.6-3.1,3.4-5.5c-0.3-0.6-1.1-0.8-1.7-0.7c-1.5,0.2-2.9,0.8-4.2,1.6
				c-0.6,0.4-0.9,1-0.7,1.7c0.8,3.1,5.5,3.8,7.1,0.9c0.3-0.6,0.3-1.4-0.2-1.8c-1-0.9-2.1-1.2-3.4-1c-0.8,0.1-1.2,1.1-1,1.8
				C826.5,547,827.3,547.3,828.1,547.2L828.1,547.2z"/>
		</g>
	</g>
	<g id="XMLID_572_">
		<g id="XMLID_183_">
			<path id="XMLID_102_" d="M901.1,542.1c-4.8-0.7-7.6-4.4-10-8.3c-2.1-3.3-4.7-7.3-1.3-11.1c1.1-1.3,3-2.2,4.4-3
				c6-3.8,14.7-7.3,19-13.3c3.3-4.6,1.9-9.7-1.9-13.5c-3.4-3.4-10.1-7.4-14.8-4.1c-4.4,3.2-4.7,11.3-2.4,15.7
				c2.6,5.2,8.3,7.1,13.1,9.6c8.1,4.1,12.5,12.5,9.4,21.5c-4.4,13-18.2,6-25.8,0.5c-1.6-1.1-3.1,1.5-1.5,2.6c5.9,4.3,13,9,20.7,7.1
				c5.7-1.5,9.2-6.5,10.1-12.1c1-5.8-0.2-12.6-4.1-17.1c-4-4.6-10.2-5.8-15.1-9.1c-2.1-1.4-3.9-3.2-4.7-5.7
				c-1.2-3.8-0.5-11.8,5.9-11.1c4.9,0.5,11.2,6.9,9.7,11.9c-1.4,4.5-7.7,7.3-11.4,9.6c-3.5,2.2-7.1,4.2-10.4,6.6
				c-5,3.5-6,8.1-3.2,13.6c2.7,5.4,7.1,11.7,13.6,12.6C902.2,545.3,903,542.4,901.1,542.1L901.1,542.1z"/>
		</g>
	</g>
	<g id="XMLID_565_">
		<g id="XMLID_177_">
			<path id="XMLID_103_" d="M796.1,498.5c4.4-1.8,8.2-4.1,11.7-7.4c-0.8-0.5-1.7-1-2.5-1.5c-5.9,20.6-8.6,41.8-8,63.2
				c0,1.9,3,1.9,3,0c-0.5-21.1,2.1-42.1,7.9-62.4c0.4-1.5-1.4-2.5-2.5-1.5c-3.1,2.9-6.4,5-10.3,6.6
				C793.6,496.3,794.3,499.2,796.1,498.5L796.1,498.5z"/>
		</g>
	</g>
	<g id="XMLID_558_">
		<g id="XMLID_171_">
			<path id="XMLID_104_" d="M859.7,494.8c1-0.5,5.8-3.7,6.8-3.3c2.6,0.9,0.6,5.7,0.3,7.4c-0.8,4.5-1.6,9-2.4,13.6
				c-1.7,9.7-3.5,19.4-5.2,29.1c-0.3,1.9,2.5,2.7,2.9,0.8c2.6-14.5,5.2-29.1,7.9-43.6c0.4-2.4,3.1-9.1-0.1-10.8
				c-3-1.7-9.2,3.1-11.6,4.3C856.4,493.1,857.9,495.7,859.7,494.8L859.7,494.8z"/>
		</g>
	</g>
	<g id="XMLID_528_">
		<g id="XMLID_165_">
			<path id="XMLID_105_" d="M654.7,505.3c4.9-2.7,9.8-5.5,14.6-8.2c-0.7-0.6-1.5-1.1-2.2-1.7c-1.3,5.4-4.5,10.3-6.9,15.3
				c-2.1,4.5-4.1,9.1-6,13.8c-4.1,10.2-7.4,20.6-10.1,31.3c-0.5,1.9,2.4,2.7,2.9,0.8c2.7-10.6,6.1-21.1,10.1-31.3
				c2.1-5.3,4.4-10.4,6.9-15.5c2.1-4.4,4.8-8.7,6-13.5c0.3-1.3-1-2.4-2.2-1.7c-4.9,2.7-9.8,5.5-14.6,8.2
				C651.5,503.6,653,506.2,654.7,505.3L654.7,505.3z"/>
		</g>
	</g>
	<g id="XMLID_229_">
		<g id="XMLID_389_">
			<path id="XMLID_130_" d="M802.8,410.9c4.6-7.3,9.2-14.5,13.9-21.6c-0.9-0.3-1.9-0.5-2.8-0.8c1.3,11.4,7.6,21.3,12.9,31.2
				c6.5,12,13,24,19.5,36c0.9,1.7,3.5,0.2,2.6-1.5c-5.9-10.8-11.7-21.7-17.6-32.5c-5.6-10.4-13.1-21.2-14.4-33.2
				c-0.2-1.5-1.9-2.1-2.8-0.8c-4.7,7.2-9.3,14.4-13.9,21.6C799.2,411,801.8,412.5,802.8,410.9L802.8,410.9z"/>
		</g>
	</g>
	<g id="XMLID_236_">
		<g id="XMLID_162_">
			<path id="XMLID_124_" d="M840.5,395c5.3-4.5,9-10.1,11.2-16.7c-1,0-1.9,0-2.9,0c8.3,23.3,19.1,45.5,32.2,66.4
				c1,1.6,3.6,0.1,2.6-1.5c-13-20.7-23.6-42.7-31.9-65.7c-0.5-1.4-2.4-1.5-2.9,0c-2,6.1-5.5,11.2-10.4,15.4
				C836.9,394.1,839,396.2,840.5,395L840.5,395z"/>
		</g>
	</g>
	<g id="XMLID_244_">
		<g id="XMLID_154_">
			<path id="XMLID_118_" d="M902.4,426c2.9-4.4,6.1-8.5,9.5-12.5c1.2-1.5-0.9-3.6-2.1-2.1c-3.6,4.2-6.9,8.6-10,13.1
				C898.8,426.1,901.4,427.6,902.4,426L902.4,426z"/>
		</g>
	</g>
	<g id="XMLID_271_">
		<g id="XMLID_145_">
			<path id="XMLID_112_" d="M909.1,410.4c6.8,19.8,16.7,38.2,29.5,54.8c1.2,1.5,3.8,0,2.6-1.5c-12.6-16.3-22.5-34.5-29.2-54.1
				C911.3,407.8,908.4,408.6,909.1,410.4L909.1,410.4z"/>
		</g>
	</g>
	<g id="XMLID_296_">
		<g id="XMLID_138_">
			<path id="XMLID_106_" d="M928.3,418.4c0-3.4,0.6-6.8,2.3-9.8c0.5-0.9,1-1.7,1.7-2.4c0.5-1.4,1.2-1.4,1.9-0.1
				c0.7,0.5,1.2,1.9,1.6,2.6c2.9,5.5,3.6,12,4.4,18.1c1.3,10.9,3.9,21,9,30.8c0.9,1.7,3.5,0.2,2.6-1.5c-4.5-8.5-7.1-17.4-8.3-26.9
				c-0.9-6.8-1.4-13.9-4.2-20.2c-1.2-2.6-3.5-8.4-7.3-6.7c-5,2.2-6.7,11.6-6.7,16.2C925.3,420.3,928.3,420.3,928.3,418.4
				L928.3,418.4z"/>
		</g>
	</g>
	<g id="XMLID_309_">
		<g id="XMLID_132_">
			<path id="XMLID_107_" d="M950.2,452.1c0.4-1.6,0.9-3.1,1.3-4.7c0.6,0.4,1.2,0.8,1.8,1.2c0.8,0.6,1.5,1.2,2.4,1.6
				c1.5,0.9,3,1.5,4.8,1.6c4,0.3,7.7-1.8,11.1-3.7c1.7-1,0.2-3.6-1.5-2.6c-4.4,2.6-8.5,4.6-13.4,1.8c-2-1.1-3.7-3.3-6.1-3.3
				c-5.4,0.1-4.2,6.5-2.8,9.6C948.3,455.3,950.9,453.8,950.2,452.1L950.2,452.1z"/>
		</g>
	</g>
	<g id="XMLID_371_">
		<g id="XMLID_126_">
			<path id="XMLID_109_" d="M946.7,395.5c5.7,3.4,8.1,10.8,11.2,16.3c3.5,6.1,7.4,11.8,11.7,17.4c1.2,1.5,3.8,0,2.6-1.5
				c-5-6.5-9.5-13.3-13.4-20.4c-2.9-5.3-5.2-11.1-10.6-14.3C946.6,391.9,945.1,394.5,946.7,395.5L946.7,395.5z"/>
		</g>
	</g>
	<g id="XMLID_396_">
		<g id="XMLID_120_">
			<path id="XMLID_111_" d="M964.2,417.4c0-1.4-1.1-4.8-0.5-5.9c1.1-0.7,2.2-1.4,3.3-2.2c0.3,0.4,0.7,0.9,1,1.3
				c0.5,0.6,0.8,1.4,1.2,2.1c1.5,2.7,2.8,6.3,5.2,8.3c4.3,3.6,8.3-0.6,10.3-4.3c0.9-1.7-1.7-3.2-2.6-1.5c-0.3,0.6-0.7,1.3-1.1,1.9
				c-0.7,1.7-1.9,2-3.5,0.7c-1.4,0.2-2.3-0.2-2.7-1.2c-1.3-1.4-2.1-3.8-3-5.4c-1.2-2.1-2.5-4.7-5-5.4c-7.1-2-5.7,8.1-5.6,11.6
				C961.3,419.3,964.3,419.3,964.2,417.4L964.2,417.4z"/>
		</g>
	</g>
	<g id="XMLID_243_">
		<g id="XMLID_151_">
			<path id="XMLID_117_" d="M884,396.6c1-1.9,2.2-3.5,3.9-4.8c0.6-0.5,1.6-1.4,2.5-1.5c1.8-0.2,1.4,0.5,1.5,1.9
				c0.4,2.9-1.1,6.7,0.6,9.4c3.1,5,8.7-0.4,11.4-2.6c1.5-1.2-0.6-3.3-2.1-2.1c-0.6,0.4-1.1,0.9-1.7,1.4c-1.7,1.4-1.7,2.1-3.8,0.8
				c-1.9-1.3-1.6-1.2-1.5-3.2c0-1,0-1.9,0-2.9c0-2,0.4-4.8-1.9-5.8c-4.5-2-9.9,4.6-11.6,7.9C880.5,396.7,883.1,398.3,884,396.6
				L884,396.6z"/>
		</g>
	</g>
	<g id="XMLID_404_">
		<g id="XMLID_188_">
			<path id="XMLID_181_" d="M889.7,395.7c-2.3,2-5.2,3.9-6.4,6.8c-0.8,2-0.3,4.4,1.7,5.5c1.9,1,4.3,0.3,6-1c2.2-1.7,2.9-4.6,5.3-6.2
				c1.6-1,0.1-3.6-1.5-2.6c-1.2,0.8-2.2,1.8-3,3c-1,1.4-1.8,3.2-3.5,3.9c-0.8,0.3-1.7,0.6-2.2-0.3c-0.5-1,0.4-2.2,1.1-2.9
				c1.3-1.5,3.1-2.8,4.6-4.1C893.3,396.6,891.2,394.5,889.7,395.7L889.7,395.7z"/>
		</g>
	</g>
	<g id="XMLID_501_">
		<g id="XMLID_220_">
			<path id="XMLID_216_" d="M891.4,386.9c-3.6-0.2-7.1-0.9-10.6-2c-1.9-0.6-2.6,2.3-0.8,2.9c3.7,1.1,7.5,1.8,11.4,2.1
				C893.3,390.1,893.3,387.1,891.4,386.9L891.4,386.9z"/>
		</g>
	</g>
	<path id="XMLID_223_" class="st7" d="M171.4,475.7c0.6,1.8,1.7,3.4,3,4.7"/>
</g>
<g id="Calque_4">
	<g id="XMLID_726_">
		<g id="XMLID_246_">
			<path id="XMLID_240_" d="M841.8,158.6c-21.6-3.4-43.2-6.7-64.8-10.1c-4.9-0.8-10-1.3-14.9-2.3c-1.6-0.3-3.3-0.8-4.8-1.6
				c-2.2-1.3-2-1.2-1.9-3.9c0.1-2.9,0.7-3.3,2.9-4.7c8.8-5.5,18.4-10.1,27.5-15.1c9.3-5.1,19-10.2,29.8-11.2
				c9.4-0.8,19.2,0.8,28.6,2c10,1.2,20,2.7,29.8,5.4c4.7,1.3,9.3,2.8,13.8,4.7c1.1,0.5,5.4,1.6,6.1,2.8c1.8,2.8-4.7,5.6-6.5,6.8
				c-9.8,6.6-19.6,13.3-29.5,19.8c-5.2,3.4-10.6,6.6-17,6.9c-6.2,0.3-12.4-1.6-18.2-3.5c-1.8-0.6-2.6,2.3-0.8,2.9
				c10.9,3.5,21.3,5.5,31.9-0.2c11.7-6.3,22.5-14.8,33.5-22.2c2.7-1.8,5.7-3.5,8.3-5.5c0.9-0.7,2-1.4,2.4-2.6
				c1.3-3.4-2.5-4.9-4.9-6.1c-10.4-4.9-21.5-7.9-32.8-9.8c-11.7-2-23.7-3.6-35.6-4.3c-12-0.7-22.7,2.5-33.3,7.9
				c-11.3,5.7-22.5,11.9-33.4,18.2c-5.6,3.2-9.9,9.7-2.8,14.2c4.9,3,11.6,3.1,17,4c7.2,1.1,14.4,2.2,21.6,3.4
				c15.7,2.4,31.4,4.9,47.1,7.3C842.8,161.8,843.7,158.9,841.8,158.6L841.8,158.6z"/>
		</g>
	</g>
	<g id="XMLID_719_">
		<g id="XMLID_273_">
			<path id="XMLID_264_" d="M752.3,138.1c-3.8,3.3-2.5,8.9,1.2,11.7c5.6,4.2,15.1,4.1,21.7,5.2c18.9,3.1,37.8,6.1,56.8,9.2
				c7.6,1.2,15.1,2.5,22.3-1c8.7-4.1,16.8-9.8,25.1-14.7c7.5-4.4,31.3-14.9,20.4-27.2c-1.3-1.5-3.4,0.7-2.1,2.1
				c6.2,7-4.6,13.5-9.6,16.5c-5.9,3.5-11.9,7.1-17.8,10.6c-5.7,3.4-11.4,7.4-17.5,10.2c-7.6,3.5-15.9,1.3-23.8,0
				c-13.3-2.2-26.6-4.3-39.9-6.5c-6.8-1.1-13.6-2.2-20.5-3.3c-2.8-0.5-5.7-0.8-8.4-1.5c-3.5-0.9-10.7-4.9-5.8-9.2
				C755.9,139,753.8,136.9,752.3,138.1L752.3,138.1z"/>
		</g>
	</g>
	<g id="XMLID_712_">
		<g id="XMLID_311_">
			<path id="XMLID_304_" d="M815.7,107c-3.9-16.2-2.9-32.8-1.5-49.2c0.4-4.8,0.6-10,5.1-12.8c3.8-2.4,9.5-3,13.8-3.4
				c7.8-0.7,15.7,0.3,23.4,1.7c14.2,2.6,28.2,6.9,42.8,7.1c4.3,0.1,9.2-0.5,13,1.9c3.9,2.4,5.8,7.1,6.4,11.4
				c1.1,8.3-0.8,17.1-1.6,25.3c-0.9,9-0.8,18.9-3.2,27.6c-3.6,13.5-17.2,4.1-25.7,2.1c-1.9-0.4-2.7,2.5-0.8,2.9
				c7.4,1.7,15.7,8.2,23.5,4.1c6.5-3.3,6.5-11.8,7.2-18.1c1.1-10.8,2.3-21.6,3.4-32.4c0.8-7.9,1.1-16.8-4.7-23.1
				c-5.7-6.2-14.3-4.5-21.9-5.1c-10.4-0.7-20.6-3.3-30.8-5.5c-9.1-1.9-18.4-3.6-27.7-3.4c-6.8,0.2-16.9,0.8-21.7,6.4
				c-2.6,3.1-3.1,7.2-3.4,11.1c-0.6,5.8-1,11.7-1.3,17.6c-0.5,11.5-0.1,23,2.7,34.3C813.2,109.7,816.1,108.9,815.7,107L815.7,107z"
				/>
		</g>
	</g>
	<path id="XMLID_680_" class="st8" d="M896,121.6c4.8,0.5,10.4,0.6,13.3-3.2c1.6-2.1,1.8-4.9,2-7.5c1.2-16.1,1.5-32.2,0.9-48.3
		c-0.1-1.5-0.1-3.1-0.9-4.5c-1-1.8-3.1-2.8-5-3.5c-8.1-3-16.8-3.6-25.4-4.2c-16.3-1.1-32.5-2.2-48.8-3.3c-2.8-0.2-5.7-0.4-8.2,0.8
		c-5.3,2.5-6.3,9.5-6.6,15.3c-0.6,11.2-1.2,22.4-1.7,33.7c-0.2,3.3-0.1,7.1,2.3,9.2c1.1,0.9,2.5,1.4,3.8,1.8
		c7.5,2,15.4,1.3,23.1,2.2c19.1,2.3,36.9,14.2,56.1,12.1"/>
	<path id="XMLID_679_" class="st7" d="M698.7,46.3c3.9,1.6,7.4,4.4,9.7,8c-0.9-5-1.9-9.9-2.8-14.9"/>
	<path id="XMLID_678_" class="st7" d="M712.5,37.9c-0.6,4.5-0.8,9-0.5,13.5c2.4-0.6,4.7-1.4,6.9-2.5"/>
	<path id="XMLID_677_" class="st7" d="M711.4,43.8c2.5-0.4,5-0.9,7.5-1.3"/>
	<path id="XMLID_676_" class="st7" d="M710.9,38.2c4-0.1,7.9-1,11.6-2.5"/>
	<path id="XMLID_675_" class="st7" d="M731.1,51.1c-2.4-3.2-4.3-6.6-5.7-10.3c3.9,1.7,7.7,3.3,11.6,5c-1.4-3.4-3.1-6.8-5.1-9.9"/>
	<path id="XMLID_673_" class="st7" d="M735.4,31.4c2,2.6,3.6,5.5,4.8,8.6c2.4-0.4,4.8-1,7.1-1.9"/>
	<path id="XMLID_672_" class="st7" d="M738.3,35.7c2.2-1.3,4.6-2.2,7.1-2.7"/>
	<path id="XMLID_671_" class="st7" d="M734.8,31.2c2.5-0.6,5-1.1,7.6-1.7"/>
	<path id="XMLID_670_" class="st7" d="M749.9,30.8c4.8-0.4,9.5-1.1,14.2-2.1c-3.7,5.3-7.4,10.5-11.1,15.8c4-1.3,8-2.7,11.9-4.2"/>
	<path id="XMLID_669_" class="st7" d="M753.8,35.3c-0.5,0.1-0.9,0.3-1.4,0.4c4.8,0.4,9.6,0.7,14.4,1.1"/>
	<path id="XMLID_668_" class="st7" d="M696.3,78.9c0.3-4.1,0.2-8.3-0.4-12.3c2.3,4.1,5.5,7.7,9.3,10.5"/>
	<path id="XMLID_666_" class="st7" d="M694.8,75.2c2.4-0.9,4.7-1.8,7.1-2.7"/>
	<path id="XMLID_665_" class="st7" d="M704.8,65.1c2.9,4.2,5.8,8.5,8.5,12.9c-0.2-5-0.3-10.1-0.5-15.1"/>
	<path id="XMLID_664_" class="st7" d="M718.4,59.9c0.2,2.6,0.5,5.3,0.7,7.9c0,0.4,0.1,0.9,0.5,1.2c0.4,0.2,0.8,0.1,1.3-0.1
		c3.2-1.2,6.3-2.4,9.5-3.7"/>
	<path id="XMLID_663_" class="st7" d="M718.4,63.9c3.3-1.2,6.7-2.3,10-3.5"/>
	<path id="XMLID_662_" class="st7" d="M717.9,59.9c2.6-0.6,5.2-1.6,7.6-2.9"/>
	<path id="XMLID_661_" class="st7" d="M740.4,56.4c-1.4-0.5-2.9,0.2-3.9,1.3c-0.9,1.1-1.3,2.6-1.7,4c-0.4,1.5-0.8,3.1-0.1,4.4
		c0.6,1.3,2.1,2.1,3.6,2.2c1.5,0.1,2.9-0.3,4.4-0.7c0.9-0.2,1.8-0.5,2.5-1.1c0.7-0.6,1-1.8,0.5-2.5"/>
	<path id="XMLID_659_" class="st7" d="M757.7,54.3c0.6,3.4,2.8,6.5,5.8,8.2c0.9-1.8,1.7-3.6,2-5.5s-0.4-4.1-2-5.2"/>
	<path id="XMLID_658_" class="st7" d="M773.6,57.2c-2-3-4.1-5.9-6.1-8.9c4,2,8.1,3.9,12.1,5.9c-1.3-3.4-2.7-6.7-4.3-9.9"/>
	<path id="XMLID_657_" class="st7" d="M663.4,111.5c-3,2.6-2.3,7.6-0.1,10.9c1.2,1.8,2.9,3.5,5.1,3.6c2.5,0.2,4.8-2.1,5.3-4.6
		c0.4-2.5-0.6-5.1-2.3-7.1c-1.3-1.6-3.3-2.9-5.3-2.5s-3.4,3.2-1.9,4.6"/>
	<path id="XMLID_656_" class="st7" d="M673.8,108.5c3,3.7,5.5,7.9,7.3,12.3"/>
	<path id="XMLID_655_" class="st7" d="M674.1,108c1.4-0.9,2.8-1.6,4.3-2.3c0.5-0.2,1-0.4,1.6-0.4c1.2,0,2.1,1.1,2.4,2.3
		c0.3,1.2,0,2.4-0.2,3.5c-1.2,1-2.6,1.6-4.2,1.7c4.5,0.1,9.1,1,13.3,2.7"/>
	<path id="XMLID_654_" class="st7" d="M687.9,102.9c2.7,1.8,4.9,4.4,6.2,7.4"/>
	<path id="XMLID_652_" class="st7" d="M686.3,103.3c1.8-0.9,3.6-1.7,5.5-2.6c0.6-0.3,1.2-0.6,1.8-0.5c0.8,0.1,1.5,0.7,2.1,1.2
		c1.2,1.1,2.5,2.3,2.9,3.9s-0.5,3.6-2.1,3.7c-0.9,0.1-2.1-0.4-2.6,0.4"/>
	<path id="XMLID_647_" class="st7" d="M702.2,97.2c2.4,3.6,4.1,7.6,5.1,11.7"/>
	<path id="XMLID_644_" class="st7" d="M700.4,92.9c0,0-1.2,0-2,0"/>
	<path id="XMLID_636_" class="st7" d="M713.5,103c-1.5-3.1-2.9-6.2-4.4-9.3c3.9,1.9,7.8,4,11.4,6.4c-2.4-3.6-4.8-7.2-7.1-10.8"/>
	<path id="XMLID_628_" class="st7" d="M725,98.3c-1.5-2.6-2.9-5.1-4.4-7.7c-0.7-1.3-1.2-3.4,0.2-3.8c0.6-0.2,1.2,0.1,1.7,0.4
		c3.3,1.7,6.5,3.7,9.4,6.1"/>
	<path id="XMLID_582_" class="st7" d="M724.3,94.8c-0.3,0.3-0.9,0-1-0.4c-0.1-0.4,0.2-0.8,0.4-1.2c1.1-1.4,2.5-2.6,4.1-3.4"/>
	<path id="XMLID_581_" class="st7" d="M734.5,83.1c2.8,4,5,8.4,6.3,13.1"/>
	<path id="XMLID_573_" class="st7" d="M726.9,84.6c2.5-0.3,5-1.1,7.3-2.3c2.4-1.3,5.1-3.2,7.7-2.3"/>
	<path id="XMLID_563_" class="st7" d="M745.3,79.9c0,3.5,0.9,7.1,2.5,10.2c0.3,0.6,0.8,1.3,1.5,1.4c0.4,0,0.8-0.2,1.2-0.5
		c1.4-1,2.6-2.1,3.6-3.4"/>
	<path id="XMLID_561_" class="st7" d="M746.4,85.3c1.3-0.5,2.6-1.3,3.6-2.4"/>
	<path id="XMLID_560_" class="st7" d="M743.2,79.9c1-2.8,6.4-0.9,7.5-3.6"/>
	<path id="XMLID_540_" class="st7" d="M754.5,74c-0.2,2.3-0.5,4.7,0.5,6.9c0.9,2.1,3.4,3.8,5.6,2.9c2.1-0.8,2.9-3.6,2.5-5.8
		c-0.3-2.3-1.4-4.4-1.7-6.6"/>
	<path id="XMLID_534_" class="st7" d="M768.2,69.9c0.8,3.5,2.7,6.8,5.3,9.3"/>
	<path id="XMLID_446_" class="st7" d="M768,69.7c-1.1-0.3-0.2-2,0.8-2.5c2.9-1.5,6.3-2.1,9.5-1.7c1,1.7-0.8,3.7-2.5,4.8
		c-2.1,1.5-4.3,3-6.4,4.4c5.4-1.1,10.9-1.6,16.5-1.5"/>
	<path id="XMLID_445_" class="st7" d="M721.7,111.1c-1.1,3.1-2.2,6.6-0.8,9.6c1.1,2.4,3.7,4,6.3,4.4c2.6,0.4,5.4-0.1,7.9-1
		c4.1-1.3,8.6-4.7,7.6-8.9c-1-3.9-7.1-4.7-9.4-1.5c-2.3,3.3,0.1,8.5,4,9.3c5.1,1,9.2-3.9,12.3-8.1c4.2-5.8,8.9-11.5,15.1-15
		c6.2-3.5,14.3-4.6,20.5-1c-2.6-2.3-5.2-4.7-7.8-7"/>
	<path id="XMLID_395_" class="st7" d="M785.1,98.6c-2.6,2.3-5.2,4.5-7.9,6.7"/>
	<path id="XMLID_394_" class="st7" d="M845.7,87.4c-1.7-7.6-0.5-15.5,0.6-23.1c0.2-1.3,0.4-2.6,1-3.8c1.7-3.1,5.6-3.9,9.1-4.1
		c5.2-0.3,10.5,0.3,15.6,1.7c3.1,0.9,6.5,2.3,7.8,5.3c0.7,1.5,0.7,3.2,0.7,4.9c0,4.1,0.1,8.3,0.1,12.4c0.1,6.2-0.3,13.4-5.2,17.3
		c-3.6,2.8-8.5,3-13.1,3c-3,0-6.2-0.1-8.4-2c-1-0.9-1.8-2.1-2.5-3.3c-1.8-3-3.6-6.1-5.4-9.1"/>
	<path id="XMLID_397_" class="st7" d="M845.4,69.1c-0.6-1.7-1.6-3.5-3.1-4.5c-1.5-1.1-3.7-1.4-5.2-0.4c-1.7,1.1-2.2,3.3-2,5.3
		s1,3.8,1.5,5.7c0.6,2.6,0.7,5.5,2.6,7.3c1.7,1.5,4.2,1.6,6.5,1.7"/>
	<path id="XMLID_403_" class="st7" d="M881,68.4c0.7-0.1,1.4-0.2,2.2-0.3c2.3-0.3,4.9-0.6,6.6,0.9c1.5,1.3,1.8,3.7,1.3,5.6
		s-1.9,3.6-3.2,5.1c-2.3,2.7-4.7,5.2-7.3,7.6"/>
	<path id="XMLID_452_" class="st7" d="M854.3,83.1c1.1,3.4,3.8,6.6,7.3,6.7c3.9,0.2,6.8-3.2,9.2-6.3"/>
	<linearGradient id="XMLID_22_" gradientUnits="userSpaceOnUse" x1="779.0809" y1="291.9717" x2="849.8233" y2="45.7849">
		<stop  offset="0.4968" style="stop-color:#000000;stop-opacity:0"/>
		<stop  offset="1" style="stop-color:#FFFFAB"/>
	</linearGradient>
	<path id="XMLID_317_" class="st9" d="M752.8,140.4c10.2-9,46.1-35.6,74.1-30.4c4.1,0.8,23.4,2.3,27.5,3.2c8.1,1.9,8.3,1.8,16.4,4
		c-24.7-6.7-9.2-0.8,25.8,8.7c-4.2,2.7-43.7,29.1-48.3,31c-1.1,0.5-2.3,0.9-3.5,1.1c-1.5,0.2-3,0.1-4.5,0
		c-17.2-1.6-37.7-3.9-54.6-7.7c-10.8-2.5-18.4-3-29.2-5.9"/>
	<g id="XMLID_705_">
		<g id="XMLID_349_">
			<path id="XMLID_342_" d="M776.3,130.8c26.1,2.5,52,8.6,77.7,13.7c1.9,0.4,2.7-2.5,0.8-2.9c-26-5.1-52.1-11.3-78.5-13.8
				C774.4,127.6,774.4,130.6,776.3,130.8L776.3,130.8z"/>
		</g>
	</g>
	<g id="XMLID_698_">
		<g id="XMLID_364_">
			<path id="XMLID_369_" d="M795.1,123.2c23.9,5,48.1,7.8,72.3,11c1.9,0.3,1.9-2.8,0-3c-23.9-3.1-47.9-5.9-71.5-10.9
				C794,119.9,793.2,122.8,795.1,123.2L795.1,123.2z"/>
		</g>
	</g>
	<g id="XMLID_745_">
		<g id="XMLID_743_">
			<path id="XMLID_736_" d="M812.4,116c12.4-0.3,24.3,2.7,36.3,5.2c11.2,2.3,23,2.1,34,5.1c1.9,0.5,2.7-2.4,0.8-2.9
				c-5.3-1.4-10.7-1.9-16.2-2.3c-6.6-0.6-13.2-1.7-19.7-3.1c-11.7-2.5-23.3-5.2-35.3-4.9C810.5,113.1,810.5,116.1,812.4,116
				L812.4,116z"/>
		</g>
	</g>
</g>
</svg>
