<?xml version="1.0" encoding="utf-8"?>
<!-- Generator: Adobe Illustrator 19.0.0, SVG Export Plug-In . SVG Version: 6.00 Build 0)  -->
<svg version="1.1" xmlns="http://www.w3.org/2000/svg" xmlns:xlink="http://www.w3.org/1999/xlink" x="0px" y="0px"
	 viewBox="0 0 1280 800" style="enable-background:new 0 0 1280 800;" xml:space="preserve">
<style type="text/css">
	.st0{fill:none;stroke:#000000;stroke-width:0.5;stroke-miterlimit:10;}
	.st1{fill:#00FF0C;}
	.st2{fill:none;stroke:#000000;stroke-miterlimit:10;}
	.st3{fill:#FFFFFF;stroke:#000000;stroke-width:3;stroke-miterlimit:10;}
	.st4{fill:none;stroke:#000000;stroke-width:3;stroke-miterlimit:10;}
	.st5{fill:#CCCCCC;stroke:#000000;stroke-width:3;stroke-miterlimit:10;}
	.st6{fill:#EFEFEF;stroke:#000000;stroke-width:3;stroke-miterlimit:10;}
	.st7{fill:#A5A5A5;stroke:#000000;stroke-width:3;stroke-miterlimit:10;}
	.st8{fill:#843232;stroke:#000000;stroke-width:3;stroke-miterlimit:10;}
	.st9{fill:none;stroke:#FFFFFF;stroke-miterlimit:10;}
	.st10{fill:none;stroke:#000000;stroke-width:2;stroke-miterlimit:10;}
</style>

<rect width="1280" height="800" style="fill:rgb(255,255,255);"/>

<g id="creds">
	<path id="XMLID_57_" class="st0" d="M818.7,729.3c-2.8,0-5.8-0.3-8.6,0c-3.1,0.3-3.7,2.2-4.5,4.7c-0.5,1.5-1.1,2,0.4,3
		c0.8,0.5,1.9,0.7,2.8,1c1.6,0.5,3.1,0.9,4.7,1.5c1.1,0.4,2.4,0.3,3.3,1.2c0.7,0.8,1,2.9,0.4,3.8c-0.9,1.4-4.7,2.6-6.3,2.8
		c-1.3,0.1-2.8,0-4.2,0"/>
	<path id="XMLID_64_" class="st0" d="M826,746c0-1.7,0-3.1-0.3-4.7c-0.4-1.9-0.1-3.6-0.3-5.5c-0.2-1.8-1.2-3.5-0.6-5.3
		c0.6-1.9,2.6-2.9,4.5-2.5c3,0.7,4.8,4.3,5.3,7c0.6,2.9,0.7,5.4,0.7,8.3"/>
	<path id="XMLID_78_" class="st0" d="M842.7,745.3c0.9-4.6,0.7-9.3,1.3-13.9c0.1-0.5,0.4-2,0.8-2.3c1.2-0.8,2.1,1.3,2.6,2
		c1.4,1.9,2,4.2,3.4,6.1c3,0.4,3.2-8.2,4-10.5c0.5-1.5,0.9-2.1,2.4-1.4c1.8,0.9,1.9,3.4,2.1,5.1c0.1,1.6,0.8,2.8,1.2,4.3
		c0.5,1.9,0.8,3.9,1.3,5.9c0.4,1.6,1.8,4.4,1.5,6"/>
	<path id="XMLID_88_" class="st0" d="M866,736c0.4,2.6,0.8,11.5,5.6,9.3c2.4-1.1,1.7-5.3,1.7-7.3c0-1.3-0.1-2.7,0-4
		c0.1-1,0.6-1.7,0.7-2.7"/>
	<path id="XMLID_100_" class="st0" d="M880.7,726.7c-1.5,3.6-0.8,9-0.7,12.9c0,1.3,0.5,3.7,2,4.3c1,0.4,1.7-0.3,2.7-0.4
		c1.2-0.2,3.2,0.4,4-0.8"/>
	<path id="XMLID_121_" class="st0" d="M881.3,728.7c1.8-1.7,6.9-0.7,9.3-0.7"/>
	<path id="XMLID_128_" class="st0" d="M901.3,727.3c0,4.9,0.3,9.8,0,14.7c-0.1,2-1.6,4.2,1.6,3.9c2.4-0.2,4.7-1.5,7-1.9"/>
	<path id="XMLID_142_" class="st0" d="M937.3,728c1.1,2.6,0.7,5.6,1,8.4c0.3,2.4,0.3,4.6,0.3,7"/>
	<path id="XMLID_155_" class="st0" d="M928,737.3c2.5-1.1,5.3-0.7,8-0.7"/>
	<path id="XMLID_162_" class="st0" d="M944.7,741.3c0.1-4.2-0.7-7.9,0.7-11.9c0.7-2.1,2.6-5.5,5.3-5.4c3.2,0.2,4.3,6.5,4.7,8.9
		c0.8,3.8,1.3,7.2,1.3,11.1"/>
	<path id="XMLID_169_" class="st0" d="M943.3,737.3c2.4,0,5.2,0.4,7.5-0.1c1.4-0.3,2.4-0.5,3.8-0.5"/>
	<path id="XMLID_196_" class="st0" d="M970.7,728.7c-1.4-0.2-2.5-1.2-4-1.1c-2.1,0.1-3.5,1.9-3.9,3.8c-0.4,2-0.6,6,0.3,7.8
		c1.2,2.3,4.5,3.1,6.9,2.8c3.5-0.5,3.7-4,5.3-6.7"/>
	<path id="XMLID_204_" class="st0" d="M980,725.3c0,4-0.7,8.6,0.1,12.5c0.5,2.5,0.5,4.9,0.5,7.5"/>
	<path id="XMLID_212_" class="st0" d="M980.7,736.7c2.5-0.7,3.6-1.5,5.4-3.3c1.3-1.3,2.8-2.6,4-4"/>
	<path id="XMLID_220_" class="st0" d="M982,736.7c0.9,0,1.9-0.2,2.8,0.1c1.1,0.3,2.1,1.3,3.2,1.8c1.2,0.5,3.9,0.4,4.7,1.5"/>
	<path id="XMLID_227_" class="st0" d="M996.7,728.7c-0.6,4,2.9,8,4.4,11.5c0.6,1.3,1,2.6,1.6,3.9c0.5,1,1,2.6,2,3.2
		c1.3-0.8,0.6-3.2,0.6-4.5c0-1.4,0.2-2.7,0.7-4c0.3-0.9,1.5-5.2,2.7-5.2c1.8,0.1,2.3,4,2.8,5.2c0.3,0.7,0.7,1.3,1,2
		c0.5,1.1,0.5,2.4,1.1,3.4c2.2,0.1,1.5-9,1.8-10.7c0.4-2.2,1.5-4.5,1.8-6.7"/>
	<path id="XMLID_236_" class="st0" d="M1022,726c0,3,0,6,0,9c0,0.9,0.1,1.8,0,2.6c-0.1,1-0.9,1.9-0.7,3"/>
	
		
			<path d="M1023.9,720.8c-0.2-0.2-0.4-0.4-0.7-0.7c-0.7-0.7-1.7,0.4-1.1,1.1c0.2,0.2,0.4,0.4,0.7,0.7
				C1023.5,722.5,1024.5,721.5,1023.9,720.8L1023.9,720.8z"/>
		
	
	<path id="XMLID_251_" class="st0" d="M1027.3,722.7c0,4.1-0.7,8.7,0.1,12.7c0.3,1.7,1.3,3.5,3.4,3.4c1.8-0.1,3.2-1.8,5.1-2.1"/>
	<path id="XMLID_266_" class="st0" d="M1072,731.3c-0.4-3.1-2-6.5,2-7.7c3.7-1.1,7.8-0.1,10.5,2.5c1,1,2,2.2,2.2,3.7
		c0.3,2.2-1,3.1-2.7,4.2c-2.1,1.4-4.5,2.4-6.8,3.7c-2.7,1.6-4.7,3.5-7.1,5.6c-0.9,0.8-1.9,2.1-3.1,2.2c-1.7,0.1-2.1-0.9-1.3-2.1
		c1.6-2.2,6.3-3,8.8-2.6c2.7,0.4,5.3,2,8,2.8c2.1,0.7,7.6,2.7,9.3,0.5"/>
	<path id="XMLID_274_" class="st0" d="M1103.3,724.7c-2.7,0.2-4.7,1.2-5.3,3.8c-0.5,2-2,4-1.9,6.2c0.1,1.5,1,2.6,1.5,4
		c0.3,0.9,0.4,1.9,1,2.7c0.8,1.1,3.3,3,4.7,3.2c3.8,0.5,4-8.9,4-11.2c0-4.3-0.4-7.8-4.7-10"/>
	<path id="XMLID_281_" class="st0" d="M1106,725.3c1,1.6,0.8,3,0,4.6c-0.8,1.7-1.3,3.8-2.3,5.4c-0.7,1.1-1.6,2-2.4,3
		c-1.1,1.4-2.9,2.2-4,3.6"/>
	<path id="XMLID_288_" class="st0" d="M1116,723.3c0,3.6-0.1,7.1,0,10.7c0.1,2.7,0.7,5.2,0.7,8"/>
	<path id="XMLID_297_" class="st0" d="M1133.3,723.3c-1.8-2.3-6.8,1.7-8.1,3.4c-1.2,1.7-2,4.8-2.5,6.8c-1.1,5.6,4.4,8.1,9.2,8.5
		c2.6,0.2,4.9,0.3,5.4-2.7c0.4-2.3-0.6-4.5-2.7-5.5c-1.7-0.8-3.5-0.5-5.4-0.5c-1.5,0-4.4,0.1-5.3,1.3"/>
	<path id="XMLID_135_" class="st0" d="M926.3,728.7c0,3.3-0.4,6.9,0.3,10.2c0.4,1.7,0.3,3.4,0.3,5.2"/>
	<path id="XMLID_258_" class="st0" d="M1038.3,723.7c0,5.6-0.1,11.3,0,16.9c0,2,2,1,3.3,0.8c1.2-0.2,2.2-0.7,3.4-1
		c0.7-0.2,1.6-0.7,2.3-0.7"/>
	<path id="XMLID_71_" class="st0" d="M825.3,736.3c0.1,1.3,3.2,0.5,3.9,0.2c0.5-0.2,1-0.4,1.5-0.6c0.4-0.1,1.1-0.7,1.6-0.7"/>
	<path id="XMLID_111_" class="st0" d="M878.7,735.7c2.2,0,4.3,0,6.5,0c0.6,0,1.3,0.1,1.9,0c0.6-0.1,1-0.4,1.6-0.4"/>
</g>
<g id="titre">
	<polygon id="XMLID_28_" class="st1" points="783.9,710 776.7,672.7 865.3,664.9 939,665.8 939,700 809.4,702.3 	"/>
	<path id="XMLID_1_" class="st0" d="M790.3,693.3c0-3.5,0.9-6.5,2.4-9.7c0.7-1.4,1.6-2.8,2.6-3.9c0.9-1,2.2-3.3,3.6-3.5
		c1.4,1.3,1.2,4,2.1,5.6c0.8,1.5,1.5,2.8,1.9,4.5c0.4,1.4,0.6,2.8,0.7,4.3c0.1,1.1,0.9,2.3,0.7,3.4"/>
	<line id="XMLID_22_" class="st2" x1="790" y1="687.5" x2="802" y2="687.5"/>
	<path id="XMLID_23_" class="st0" d="M809.7,676.7c0,1.8-0.2,3.2,0.6,4.8c1,2.1,2,4.5,3.4,6.4c0.8,1.2,2.1,2,2.9,3.1
		c1,1.4,0.7,3.7,1.9,4.7c1.7,0.3,1.6-3.3,1.7-4.3c0.3-2.6,0.5-5.1,1-7.6c0.5-2.4,1.3-6,3.2-7.8"/>
	<path id="XMLID_24_" class="st0" d="M832.3,675.3c0,2.7-0.2,5.5,0,8.2c0.1,1.4,0.6,2.6,0.7,4c0.1,0.8-0.2,1.7,0.1,2.5
		c1.6,4.2,7.1,1,9.9,0.7"/>
	<path id="XMLID_25_" class="st0" d="M833,684c0.8-1,1.4-0.5,2.5-0.6c1-0.1,1.9-0.6,2.9-0.7c1.2-0.2,2.7,0,4,0"/>
	<path id="XMLID_26_" class="st0" d="M832.3,676c3.7,0,7-0.2,10.7-0.7"/>
	<path id="XMLID_27_" class="st0" d="M861.7,677.3c-1.5-2.6-6.9-1.7-8.8-0.1c-1.6,1.3-3,3.2-3.2,5.3c-0.1,1.6,0.8,3.4,1.3,5
		c0.3,1.1,0.6,2.1,1.4,3.1c1,1.2,2.6,3.5,4,3.9c1.1,0.4,3.6,0.3,4.8,0.1c2.1-0.3,2.6-2.4,4.5-3.4"/>
	<path id="XMLID_31_" class="st0" d="M891,675.3c3.2,2.7,4.6,8.1,5.3,12c0.4,2.3,1.2,7.2,3,8.9c1.9-1.2,2.5-3.9,3.1-5.9
		c0.5-2.1,1.6-3.7,2.7-5.5c1.9-3.1,3.5-6.3,5.3-9.5"/>
	<path id="XMLID_38_" class="st0" d="M928.3,676c-3.3-3.3-10.3,3.8-11.5,6.8c-0.8,1.9-1.5,4.7-0.3,6.6c1.3,2.1,3.4,3.1,5.5,4.2
		c4.8,2.5,10.7-0.2,12.3-5.6c0.3-1.2,0.3-3.5,0-4.7c-0.3-1.5-1.4-3-2.7-3.9c-1.1-0.7-3.7-1.1-3.9-2.7"/>
	<path id="XMLID_49_" class="st0" d="M919,692.7c3.7-1.8,6.8-4.2,9.7-7c1.1-1,1.7-2.2,2.6-3.4c1-1.4,1.8-3.8,3-4.9"/>
	<path id="XMLID_29_" class="st0" d="M868,695c2.5,0,5,0,7.4,0c2.7,0,5.2,0.2,7.9,0.5c2.2,0.3,4.5,0.2,6.7,0.2"/>
</g>
<g id="chaises">
		<path id="XMLID_3_" class="st3" d="M934.1,251.1c2.6-1.7,6-1.7,8.8-2.9c4.3-1.9,8.9-3.8,13-6c4.4-2.4,7-6.7,11.1-9.5
			c3.3-2.3,6.6-4.2,9.6-6.8c2.4-2.1,5.1-3.7,6.7-6.5c2-3.7,1.9-9.1,1.9-13.2c0-9.7-2.5-19-3.2-28.6c-0.4-5.3,1-9,3.1-13.8
			c2.5-5.8,4-11.9,6-17.8c2.9-8.3,6.7-18.1,13-24.4c7.5-7.5,18.7-10.6,29-11.4c12.6-0.9,24.7,1,36.4,6.1c9.2,4.1,19.6,8.8,26.3,16.5
			c4,4.5,4.7,10.9,6.6,16.5c2.5,7.4,5.9,14.6,8.8,21.9c4.5,11.4,5.9,23.9,7.1,36c1.3,12.7,2.9,25.1,0.8,37.8
			c-3.2,19.4-15.7,34.8-30.8,46.5c-4.9,3.8-9,7.8-13.4,12.2c-4.6,4.6-11.9,14.4-19.2,14.7"/>
		<path id="XMLID_8_" class="st4" d="M1115.6,390.6c3.3-1.9,22.7-14.2,18.3-17.9c-3-2.5-10,3.9-11.3,5.9c-3,4.4-1.6,7-1,12l1.5-4.5
			c-5.7-4.4-8.9-12.5-13.3-18.1c-4.8-5.9-10.8-10.6-15.4-16.6c-3.3-4.3-6.7-8.6-8.8-13.7c-1.6-4-3-8-5.3-11.7c-2.5-4-8-14.9-13.2-14
			c-1,0.2-4.4,1.9-5.4,2.6c-2.1,1.4-3.4,6-3,8.5l-19.5,9c0,9.8-3,18.3-5.3,27.8c-3.2,13.4-3.8,27.5-6.1,41.1
			c-2.7,15.5-6.2,31-6.5,46.6c-0.1,6.5-5.2,2.8-9.5,5c-2.4,1.2-8.4,7.5-5.8,10.1c1.7,1.7,9.4-0.7,10.8-1.9c1.4-1.2,4.2-4.8,5.2-6.5
			c1.1-1.9,1.4-3.6-0.7-5.2"/>
		<path id="XMLID_5_" class="st3" d="M379.1,435.6c-16.8-1.1-32.4-9-48.1-14.2c-5.1-1.7-8.7-2.9-12.9-6c-4.5-3.5-6.8-7.3-10.1-12.1
			c-6.5-9.2-12.8-18.3-16-29.2c-1.9-6.6-2.6-13.7-3.3-20.5c-1.1-9.9-2.5-20.6-2.4-30.6c0.1-18.1,11.8-35.8,20.5-51.1
			c2.4-4.3,5-8.3,7.8-12.3c3.3-4.7,7.4-5.7,12-8.9c2.8-1.9,7.1-6.4,10.5-7c3.7-0.6,6.7,3.3,8.7,5.9c1.8,2.4,4.5,4.9,6,7.4
			c2.9,4.8,5,10.3,7.8,15.2c4.3,7.5,13,10.9,17.7,17.8c2.1,3,3.6,7.4,5.6,10.6c2.3,3.6,3.7,7.9,5.2,11.9c3.2,8.4,8.9,15.1,12,23.5
			c1.6,4.3,2,6.2,5.9,9.3c3.9,3,7.5,5,12.1,6.3c8.4,2.3,15.8,5.6,23.7,9.1c2.8,1.2,5.9,1.1,8.8,1.7c3.6,0.7,6.3,2.3,9.6,3.9
			c5,2.5,10.5,4.2,14.9,7.8c6.6,5.4,8,9.6,9.3,17.7c0.7,4.2,2.5,8.1,2.7,12.4c0.3,4.6-0.1,9.3-0.1,13.9c0,4.2,0.4,8.2-2.9,11.4
			c-3.2,3.2-10.1,3.4-14.3,4.1c-7.8,1.2-15.6,0.3-23.4,0.8c-7.6,0.5-14.7,1.4-22.4,1.4c-13.4-0.1-26.8,0-40.3,0c-2.9,0-5.8,0-8.7,0
			c-4.6,0-8.1-0.9-12.5-1.5"/>
		<path id="XMLID_6_" class="st4" d="M344.6,425.1c-6.4,0-12.9,0.2-19.3,0c-5.1-0.1-8.1,1.9-9.3,7.5c-0.6,3.1,0.3,6.9,0.1,10.1
			c-0.3,6.9-3.3,10.3-7.1,15.7c-4.6,6.5-9.5,12.1-13.2,19.2c-1.6,3.1-3.8,5.8-5.3,8.9c-1.2,2.4-1.7,5.1-2.8,7.5
			c-2.6,5.3-6.3,9.5-8.7,15c-0.9,2.1-2.1,4-3.1,6c-1.1,2.5-1.2,5.6-3.3,7.5"/>
		<path id="XMLID_7_" class="st3" d="M283.1,530.1c-4.1-4.9-11.3-8.5-16.6-12.1c-1.4-0.9-3.2-2.4-4.7-3.1c-3.1-1.2-8.1,0.2-8.6,4.3
			c-0.9,6.5,7.7,7.2,11.9,8.2c2.5,0.6,4.8,2.1,7.5,0.9c2.8-1.2,4.6-5.1-0.1-5.8"/>
		<path id="XMLID_12_" class="st4" d="M365.7,434.7c-3,0-6.4-0.6-8.3,2.4c-0.7,1-0.8,2.4-1.1,3.6c-0.5,1.9-1,3.8-1.2,5.8
			c-0.3,3.2-0.1,6.4-0.1,9.6c0,3.4-0.2,6.8,0.1,10.2c0.3,3.6,0.5,7.2,0.5,10.8c0,4.4-0.7,8.6-0.7,13c0,3.9-0.1,7.8,0.3,11.7
			c0.4,3.7,1,7.4,1,11.1c0.1,6.2-0.2,12.4,0.5,18.5c0.2,1.6,0.1,3.2,0.1,4.9c0,1.8,0.5,3.4,0.7,5.2c0.3,2.1,0.4,3.3,0.1,5.4
			c-0.2,1.1-0.1,2.2-0.1,3.3"/>
		<path id="XMLID_13_" class="st3" d="M353,551.3c2.8-1.4,5.2-2.9,8.3-3.3c3.2-0.4,6.7-0.7,9.7,0.6c1.6,0.7,4.5,1.7,5.2,3.5
			c0.8,2.1-0.4,4.4-1.9,5.8c-1.6,1.5-5,3.2-7.3,2.7c-2.1-0.4-4.9-2-6.6-3.3c-1.4-1-1.9-2.1-2.8-3.5c-0.6-0.9-3.4-3.4-2-4.5"/>
		<path id="XMLID_14_" class="st4" d="M429,435.3c-0.5,4.4,3.1,9.3,4.5,13.4c1.4,4.1,3,8.4,3.8,12.7c0.7,3.2,0.3,6.8,0.3,10.1
			c0,2.9-0.3,8.2,2,10.6"/>
		<path id="XMLID_16_" class="st4" d="M438.3,484.7c2.2-2.5,5-4.5,8.1-5.2c2.3-0.5,10,0,8.7,3.8c-2.4,1.3-6.2,1.9-8.9,2.1
			c-1.3,0.1-3.2,0.3-4.5,0c-1.3-0.2-2.2-1.3-3.5-1.4"/>
</g>
<g id="tables">
	<path id="XMLID_1043_" class="st5" d="M561.4,458.3c0.2-7-0.8-14.1-1.3-21.1c-0.8-11.4-1.3-22.6-1.3-34c0-16.9,1.3-33.7,1.3-50.5
		c0-7.9,1.2-17.1-0.6-24.9c-0.6-2.6-2.3-5.9-1-8.6c0.9-1.8,4-3,5.6-4c4.4-3,8.3-6.4,12.3-9.9c11.3-9.7,24.5-16.7,36.6-25.3
		c8.8-6.3,17.5-12.7,26.5-18.7c8.8-5.9,17.8-11.5,26.3-17.8c6.3-4.7,12.4-9.9,19.1-14.1c18.1-11.1,11.5-9.4,35.3-29.1
		c6.9-5.7,24.5-10.3,32.3-14.6c3.1-1.7,6.2-3.9,9.7-4.3c12-1.3,25.2,4.3,36.2,8.1c6.8,2.4,27.7,12.9,34.6,15.2
		c3.9,1.3,7.5,2.5,11.1,4.6c3.1,1.9,6.1,3.8,9.4,5.5c7.8,4,16.1,5.8,24.2,8.7c5.2,1.9,10,4.6,15.3,6.3c3.6,1.2,4.6,3.3,5.6,6.9
		c1.6,5.4,1.7,11.6,2.3,17.2c1.1,10.1,1.8,20.3,2.1,30.5c0.8,23.7,0.1,47.5,0.1,71.2c0,12.7,1,25.7,0.1,38.4c-0.3,4.3-7.1,8.4-10,3
		c-1.5-2.8-0.1-8.6-0.1-11.7c0-6.2,0-12.3,0-18.5c0-7.4-0.2-14.9-0.1-22.4c0.2-8,1.6-16,2.3-23.9c1.2-13.6-0.5-27-2.4-40.4
		c-0.5-3.5-2.6-13-6-14.9c-3.5,1.4-6.8,4.1-10.1,5.9c-5.7,3.2-11.9,6.1-17.2,10c-10.7,8.1-21.3,17.3-30.9,26.6
		c-7,6.7-12.9,14.5-19.9,21.3c-10.1,9.8-21.5,17.9-32.6,26.5c-7.7,6-15.7,11.8-22.7,18.7c-1.2,1.2-2.4,2.6-3.8,3.7
		c-1.4,1-3.6,1.3-4.8,2.4c-4.2,3.8-2.7,12.7-2.8,17.8c-0.4,15-1.6,29.9-2.1,44.9c-0.8,24.1-0.4,48.4-0.2,72.6c0,2.7,0.6,6.8-0.8,9.3
		c-1.5,2.7-3.6,2.2-6.5,1.8c-5.8-0.8-10.6,1.2-13.5-5.2c-3.5-7.9-4-17.9-5.3-26.3c-1.7-11-3.1-22.1-3.9-33.2
		c-0.8-12.2-0.2-24.6-0.2-36.8c0-8.5-0.6-16.6-1.2-25.1c-0.2-3.4,1.3-8.9-0.7-12c-3.1-4.9-11.9-7.2-16.7-8.8
		c-9.3-3.1-19.2-5.8-28.1-10c-4.3-2.1-8.4-4.7-12.6-6.9c-2.4-1.3-4.6-3-7.1-4.1c-2.9-1.3-6.1-1.2-9-2.3c-5.3-2-10-5.3-15.5-7.1
		c-5.8-1.9-11.9-3.2-17.4-5.9c-4.4-2.2-8.7-4.6-13.1-6.8c-1.3-0.6-4.4-2.5-5.7-1.9c-0.9,0.5-1.7,4.1-1.9,4.7
		c-2,6.4-2.4,13.5-3.1,20.1c-2,16.6-5.2,33.7-5.1,50.5c0.1,9.8,0,19.7,0,29.5c0,5,0,10,0,15c0,2.9,0.8,6.9-0.6,9.6
		c-2.8,5.4-14.8,1.9-19.5,1.1"/>
	<path id="XMLID_1034_" class="st5" d="M719.7,523.6c0.2-7-0.8-14.1-1.3-21.1c-0.8-11.4-1.3-22.6-1.3-34c0-16.9,1.3-33.7,1.3-50.5
		c0-7.9,1.2-17.1-0.6-24.9c-0.6-2.6-2.3-5.9-1-8.6c0.9-1.8,4-3,5.6-4c4.4-3,8.3-6.4,12.3-9.9c11.3-9.7,24.5-16.7,36.6-25.3
		c8.8-6.3,17.5-12.7,26.5-18.7c8.8-5.9,17.8-11.5,26.3-17.8c6.3-4.7,12.4-9.9,19.1-14.1c18.1-11.1,11.5-9.4,35.3-29.1
		c6.9-5.7,24.5-10.3,32.3-14.6c3.1-1.7,6.2-3.9,9.7-4.3c12-1.3,25.2,4.3,36.2,8.1c6.8,2.4,27.7,12.9,34.6,15.2
		c3.9,1.3,7.5,2.5,11.1,4.6c3.1,1.9,6.1,3.8,9.4,5.5c7.8,4,16.1,5.8,24.2,8.7c5.2,1.9,10,4.6,15.3,6.3c3.6,1.2,4.6,3.3,5.6,6.9
		c1.6,5.4,1.7,11.6,2.3,17.2c1.1,10.1,1.8,20.3,2.1,30.5c0.8,23.7,0.1,47.5,0.1,71.2c0,12.7,1,25.7,0.1,38.4c-0.3,4.3-7.1,8.4-10,3
		c-1.5-2.8-0.1-8.6-0.1-11.7c0-6.2,0-12.3,0-18.5c0-7.4-0.2-14.9-0.1-22.4c0.2-8,1.6-16,2.3-23.9c1.2-13.6-0.5-27-2.4-40.4
		c-0.5-3.5-2.6-13-6-14.9c-3.5,1.4-6.8,4.1-10.1,5.9c-5.7,3.2-11.9,6.1-17.2,10c-10.7,8.1-21.3,17.3-30.9,26.6
		c-7,6.7-12.9,14.5-19.9,21.3c-10.1,9.8-21.5,17.9-32.6,26.5c-7.7,6-15.7,11.8-22.7,18.7c-1.2,1.2-2.4,2.6-3.8,3.7
		c-1.4,1-3.6,1.3-4.8,2.4c-4.2,3.8-2.7,12.7-2.8,17.8c-0.4,15-1.6,29.9-2.1,44.9c-0.8,24.1-0.4,48.4-0.2,72.6c0,2.7,0.6,6.8-0.8,9.3
		c-1.5,2.7-3.6,2.2-6.5,1.8c-5.8-0.8-10.6,1.2-13.5-5.2c-3.5-7.9-4-17.9-5.3-26.3c-1.7-11-3.1-22.1-3.9-33.2
		c-0.8-12.2-0.2-24.6-0.2-36.8c0-8.5-0.6-16.6-1.2-25.1c-0.2-3.4,1.3-8.9-0.7-12c-3.1-4.9-11.9-7.2-16.7-8.8
		c-9.3-3.1-19.2-5.8-28.1-10c-4.3-2.1-8.4-4.7-12.6-6.9c-2.4-1.3-4.6-3-7.1-4.1c-2.9-1.3-6.1-1.2-9-2.3c-5.3-2-10-5.3-15.5-7.1
		c-5.8-1.9-11.9-3.2-17.4-5.9c-4.4-2.2-8.7-4.6-13.1-6.8c-1.3-0.6-4.4-2.5-5.7-1.9c-0.9,0.5-1.7,4.1-1.9,4.7
		c-2,6.4-2.4,13.5-3.1,20.1c-2,16.6-5.2,33.7-5.1,50.5c0.1,9.8,0,19.7,0,29.5c0,5,0,10,0,15c0,2.9,0.8,6.9-0.6,9.6
		c-2.8,5.4-14.8,1.9-19.5,1.1"/>
	<path id="XMLID_1025_" class="st5" d="M367.9,614.9c0.2-7-0.8-14.1-1.3-21.1c-0.8-11.4-1.3-22.6-1.3-34c0-16.9,1.3-33.7,1.3-50.5
		c0-7.9,1.2-17.1-0.6-24.9c-0.6-2.6-2.3-5.9-1-8.6c0.9-1.8,4-3,5.6-4c4.4-3,8.3-6.4,12.3-9.9c11.3-9.7,24.5-16.7,36.6-25.3
		c8.8-6.3,17.5-12.7,26.5-18.7c8.8-5.9,17.8-11.5,26.3-17.8c6.3-4.7,12.4-9.9,19.1-14.1c18.1-11.1,11.5-9.4,35.3-29.1
		c6.9-5.7,24.5-10.3,32.3-14.6c3.1-1.7,6.2-3.9,9.7-4.3c12-1.3,25.2,4.3,36.2,8.1c6.8,2.4,27.7,12.9,34.6,15.2
		c3.9,1.3,7.5,2.5,11.1,4.6c3.1,1.9,6.1,3.8,9.4,5.5c7.8,4,16.1,5.8,24.2,8.7c5.2,1.9,10,4.6,15.3,6.3c3.6,1.2,4.6,3.3,5.6,6.9
		c1.6,5.4,1.7,11.6,2.3,17.2c1.1,10.1,1.8,20.3,2.1,30.5c0.8,23.7,0.1,47.5,0.1,71.2c0,12.7,1,25.7,0.1,38.4c-0.3,4.3-7.1,8.4-10,3
		c-1.5-2.8-0.1-8.6-0.1-11.7c0-6.2,0-12.3,0-18.5c0-7.4-0.2-14.9-0.1-22.4c0.2-8,1.6-16,2.3-23.9c1.2-13.6-0.5-27-2.4-40.4
		c-0.5-3.5-2.6-13-6-14.9c-3.5,1.4-6.8,4.1-10.1,5.9c-5.7,3.2-11.9,6.1-17.2,10c-10.7,8.1-21.3,17.3-30.9,26.6
		c-7,6.7-12.9,14.5-19.9,21.3c-10.1,9.8-21.5,17.9-32.6,26.5c-7.7,6-15.7,11.8-22.7,18.7c-1.2,1.2-2.4,2.6-3.8,3.7
		c-1.4,1-3.6,1.3-4.8,2.4c-4.2,3.8-2.7,12.7-2.8,17.8c-0.4,15-1.6,29.9-2.1,44.9c-0.8,24.1-0.4,48.4-0.2,72.6c0,2.7,0.6,6.8-0.8,9.3
		c-1.5,2.7-3.6,2.2-6.5,1.8c-5.8-0.8-10.6,1.2-13.5-5.2c-3.5-7.9-4-17.9-5.3-26.3c-1.7-11-3.1-22.1-3.9-33.2
		c-0.8-12.2-0.2-24.6-0.2-36.8c0-8.5-0.6-16.6-1.2-25.1c-0.2-3.4,1.3-8.9-0.7-12c-3.1-4.9-11.9-7.2-16.7-8.8
		c-9.3-3.1-19.2-5.8-28.1-10c-4.3-2.1-8.4-4.7-12.6-6.9c-2.4-1.3-4.6-3-7.1-4.1c-2.9-1.3-6.1-1.2-9-2.3c-5.3-2-10-5.3-15.5-7.1
		c-5.8-1.9-11.9-3.2-17.4-5.9c-4.4-2.2-8.7-4.6-13.1-6.8c-1.3-0.6-4.4-2.5-5.7-1.9c-0.9,0.5-1.7,4.1-1.9,4.7
		c-2,6.4-2.4,13.5-3.1,20.1c-2,16.6-5.2,33.7-5.1,50.5c0.1,9.8,0,19.7,0,29.5c0,5,0,10,0,15c0,2.9,0.8,6.9-0.6,9.6
		c-2.8,5.4-14.8,1.9-19.5,1.1"/>
	<path id="XMLID_1016_" class="st5" d="M543.8,679.4c0.2-7-0.8-14.1-1.3-21.1c-0.8-11.4-1.3-22.6-1.3-34c0-16.9,1.3-33.7,1.3-50.5
		c0-7.9,1.2-17.1-0.6-24.9c-0.6-2.6-2.3-5.9-1-8.6c0.9-1.8,4-3,5.6-4c4.4-3,8.3-6.4,12.3-9.9c11.3-9.7,24.5-16.7,36.6-25.3
		c8.8-6.3,17.5-12.7,26.5-18.7c8.8-5.9,17.8-11.5,26.3-17.8c6.3-4.7,12.4-9.9,19.1-14.1c18.1-11.1,11.5-9.4,35.3-29.1
		c6.9-5.7,24.5-10.3,32.3-14.6c3.1-1.7,6.2-3.9,9.7-4.3c12-1.3,25.2,4.3,36.2,8.1c6.8,2.4,27.7,12.9,34.6,15.2
		c3.9,1.3,7.5,2.5,11.1,4.6c3.1,1.9,6.1,3.8,9.4,5.5c7.8,4,16.1,5.8,24.2,8.7c5.2,1.9,10,4.6,15.3,6.3c3.6,1.2,4.6,3.3,5.6,6.9
		c1.6,5.4,1.7,11.6,2.3,17.2c1.1,10.1,1.8,20.3,2.1,30.5c0.8,23.7,0.1,47.5,0.1,71.2c0,12.7,1,25.7,0.1,38.4c-0.3,4.3-7.1,8.4-10,3
		c-1.5-2.8-0.1-8.6-0.1-11.7c0-6.2,0-12.3,0-18.5c0-7.4-0.2-14.9-0.1-22.4c0.2-8,1.6-16,2.3-23.9c1.2-13.6-0.5-27-2.4-40.4
		c-0.5-3.5-2.6-13-6-14.9c-3.5,1.4-6.8,4.1-10.1,5.9c-5.7,3.2-11.9,6.1-17.2,10c-10.7,8.1-21.3,17.3-30.9,26.6
		c-7,6.7-12.9,14.5-19.9,21.3c-10.1,9.8-21.5,17.9-32.6,26.5c-7.7,6-15.7,11.8-22.7,18.7c-1.2,1.2-2.4,2.6-3.8,3.7
		c-1.4,1-3.6,1.3-4.8,2.4c-4.2,3.8-2.7,12.7-2.8,17.8c-0.4,15-1.6,29.9-2.1,44.9c-0.8,24.1-0.4,48.4-0.2,72.6c0,2.7,0.6,6.8-0.8,9.3
		c-1.5,2.7-3.6,2.2-6.5,1.8c-5.8-0.8-10.6,1.2-13.5-5.2c-3.5-7.9-4-17.9-5.3-26.3c-1.7-11-3.1-22.1-3.9-33.2
		c-0.8-12.2-0.2-24.6-0.2-36.8c0-8.5-0.6-16.6-1.2-25.1c-0.2-3.4,1.3-8.9-0.7-12c-3.1-4.9-11.9-7.2-16.7-8.8
		c-9.3-3.1-19.2-5.8-28.1-10c-4.3-2.1-8.4-4.7-12.6-6.9c-2.4-1.3-4.6-3-7.1-4.1c-2.9-1.3-6.1-1.2-9-2.3c-5.3-2-10-5.3-15.5-7.1
		c-5.8-1.9-11.9-3.2-17.4-5.9c-4.4-2.2-8.7-4.6-13.1-6.8c-1.3-0.6-4.4-2.5-5.7-1.9c-0.9,0.5-1.7,4.1-1.9,4.7
		c-2,6.4-2.4,13.5-3.1,20.1c-2,16.6-5.2,33.7-5.1,50.5c0.1,9.8,0,19.7,0,29.5c0,5,0,10,0,15c0,2.9,0.8,6.9-0.6,9.6
		c-2.8,5.4-14.8,1.9-19.5,1.1"/>
</g>
<g id="pelo">
		<path id="XMLID_18_" class="st6" d="M197.3,742.6c6.5,0,13,0,19.5,0c6,0,12.2,0.7,18-0.8c11.9-3,20.6-9.4,29.2-17.9
			c2.2-2.2,3.6-3.8,4.6-6.8c1.8-5.4-2.2-6-6.8-7.8c-9.5-3.8-18.7-5.1-28.8-6.1c-4.8-0.5-9.5-1.1-14.3-1.1c-2.5,0-5.7,0.9-8-0.4
			c-0.9-4.5,1-10.4,1.9-14.8c1-5.5,2.4-10.7,3.1-16.2c1.6-11.9,1.1-24,1.1-36.1c0-10.5,1.5-20.5,1.5-31c0-5.2-0.2-10.5-0.1-15.7
			c0.2-6.9,1.7-13.5,1.6-20.5c-0.1-5.2-0.8-9.9,2.3-14.4c1.9-2.7,4.1-4.8,4.9-8.2c1-4.4,0.2-9.5,0.4-14c1.2-18.4,4.5-36.7,5.9-55.1
			c1.2-15.7,1.6-31.3,2.9-47c1-11.9,3.2-24.5,2.7-36.5c-0.4-9.2-3.7-18.5-5.7-27.5c-1.3-5.5-3.2-10.8-4.2-16.3
			c-0.9-4.9-1-10.2-2.2-15.1c-1.4-5.5-4.7-10.4-7.9-15.1c-7.6-11.1-15.3-22.4-17.7-35.9c-0.7-3.9-0.4-4.6,4.6-4.9
			c2.5-0.2,4.4,0.9,6.7,1.3c4.7,0.8,11.9,1.4,16.2-1.4c18.8-12.1-11.9-31.8-20.6-38.5c2.8-0.9,7.6-0.8,10.5-0.4
			c3.5,0.5,6.2,2.8,9.7,3.1c7,0.7,21.1-3.8,22.3-11.8c-3.8-5.1-14.3-7.2-19.7-9.4c-4.3-1.8-9.1-4-13.9-4.5c-3-0.3-6.6,1-9.2-1.2
			c-4.2-3.7,0.6-6.1,2.5-9c6.3-9.7-4.3-20.8-11.7-25.8c-5.8-3.9-10.6-5.3-17.3-6.6c-6.1-1.2-11.3-3.5-17.2-0.2
			c-5.5,3.2-7,8.7-9.3,14.4c-3.4,8.3-6.7,16.8-8.5,25.6c-1,4.9-1.5,9.9-2.9,14.7c-1,3.3-1.9,5.8-1.9,9.2c0.1,7.1-5.7,10.4-9.6,15.8
			c-2.7,3.9-3.8,8.5-6.8,12.3c-2.6,3.3-5.4,5.3-6.8,9.3c-3.8,10.6-8.6,20.9-12.8,31.3c-1.4,3.5-3.4,6.9-4.1,10.7
			c-0.7,4-0.3,8.3-0.3,12.4c0,7.4-2.8,13.3-4.2,20.6c-0.9,4.8-0.3,10.1-0.3,15c0.1,9.1-1.6,18-1.6,27.1c0.1,8.1,0.2,16.2,0.1,24.4
			c-0.1,7.9-1.7,15.6-1.6,23.6c0.1,16.9-1.5,33.4-1.5,50.3c0,6.9,0,13.8,0,20.6c0,18.9-1.2,37.6-1.6,56.5
			c-0.6,29.6,0.7,59.2,0.1,88.7c0,1.2-0.6,4.4,0.1,5.4c1.4,1.9,6.9,2.1,8.6,2.4c9.6,1.5,19.1,2.8,28.7,0.8c3.5-0.8,8.1-0.5,10.6-3.5
			c4.5-5.2,2.7-13.9,3.1-20c0.8-13.1,2.1-26.1,2.7-39.2c0.4-9.2-2-21.2,1.3-30.1c1.4,6,0.4,13.6,0.4,19.6c0,13.6,0.3,27.2-0.3,40.7
			c-0.4,9.2-1.1,18.5-2,27.7c-0.5,5.3-1.2,10.6-0.4,15.9c0.8,5.7,2.5,11.1,4.9,16.3c4,8.7,6.3,17,9.1,26.2
			c1.6,5.2,2.7,10.9,4.8,15.9c2.3,5.3,6.7,4.5,12,4.4c6.1-0.1,11.4-0.4,17,1.9c2.6,1,4.5,1,7.4,1.1"/>
		<path id="XMLID_20_" class="st6" d="M230.3,501.1c-5.4,10.1-1.3,31.9-16.7,33.7c-3.7-2.8-1.6-16.4,2.3-18.5
			c-0.4,5.7-6.6,12.8-9.7,17c-1.7,2.3-3.6,4.5-5.1,7c-1.1,1.8-1.7,5-4.2,5.3c-3.5-4.4-5.5-13.5-5.4-19.1c0.1-4.4,2.2-7.1,5.4-9.9
			c-2.7,2.7-5.7,4.5-7.9,7.7c-1.3,2-4,10.5-6.7,9.7c-3.3-6-4.5-15.6-2.7-22.4c1.4-5.3,5-9.6,4.4-15.4c-0.3-2.4-1.4-4.5-1.7-7
			c-0.4-2.7,0.1-5.7,0.1-8.4c0.1-9.9-0.6-18.7-2.2-28.5c-1.4-8.4-4-16.5-4.9-25c-1.3-12.4-1.9-24.8-3.7-37.1
			c-2.2-14.3-1.1-29.2-1.1-43.7"/>
</g>
<g id="sac">
		<path id="XMLID_83_" class="st7" d="M158.3,311.6c4-7.8,6.8-15.1,13.6-21.2c5.2-4.7,9.3-4.3,16.1-4.3c3.6,0,11.1-1.3,14.3,0.2
			c3.6,1.7,8.6,9.7,5,13.1c-1.9,1.8-7.5,1.6-10.1,2.8c-1.9,0.9-3.7,2-5.6,3c-3.8,2.1-8.2,5.6-10.9,9.3c-1.8,2.4-2.5,5.1-4.4,7.5
			c-1.9,2.4-4.1,4.8-5.2,7.7c-2.1,5.4-2.4,12.8,2.2,17.1l-4.9,8.6H152l-2.6-28L158.3,311.6z"/>
		<path id="XMLID_80_" class="st7" d="M51.8,360.2l5.8,8.6l7.7,4.3c-2.7,6.3-1.9,14.2-1.2,20.9c0.9,8.6,1.2,16.7,1.2,25.3
			c0,12.7,0,25.5,0,38.2c0,5.6-1.5,11,4.4,14c4.8,2.4,11,2.6,16.2,3.9c11.8,2.9,24.7,8.9,36.8,4.2c5.2-2,10.5-3.4,15.5-6
			c4.5-2.3,8-5.8,11.5-9.4c6-6.1,10.9-12.6,15.4-19.9c2.4-3.9,3.6-8.4,4.5-12.9c0.8-3.9,2-8.1,2.3-11.9c0.3-3.8,0.4-8.8,0-12.6
			c-0.3-3.1-1.6-5.1-1.6-8.4l-4.5,37.5c0.9-5.7,4-11.1,4.6-16.9c0.5-5.7,0-11.8-0.1-17.5c0-7.7,1.5-14.9,1.5-22.5
			c0-8.7-1.6-16.8-3.4-25.3c-1.3-6.1-2.5-12.3-3.7-18.4c-1.1-5.2-0.1-10.3-1.7-15.6c-1.4-4.8-3.6-9.6-5.9-14.1
			c-2.4-4.7-5.3-10.3-9.4-13.7c-3.4-2.9-7.4-4-11.3-6c-2.7-1.3-5.1-3.3-7.8-4.6c-8.1-4-17.9-4.5-26.7-4.4
			c-9.3,0.1-20.7-1.8-29.3,2.5c-6.6,3.2-10.2,9.7-14.3,15.5c-9,12.9-8.2,31.4-8.2,46.3C50.3,347.9,50.9,353.9,51.8,360.2
			c1.1,7.6,8.6,11.2,16.1,11.5c17.4,0.6,37.2,1.3,53.6-5.3c7.9-3.2,10.8-13.7,13.7-21.1c1.4-3.6,6.5-13.7,2.2-17.2"/>
</g>
<g id="ordis">
	<path id="XMLID_21_" class="st3" d="M933.1,328.1c-4.6,0.6-9.2-1.5-13.5-3c-6-2-12.1-3.8-18-6c-11.7-4.3-22.1-11.5-32.8-17.8
		c-4-2.4-8.5-4.2-12.7-6.3c-3.3-1.6-5.9-1.7-8.6-4.4c-5.1-5-6-15.9-7.1-22.5c-1.8-10.9-2.4-22-1.9-33.1c0.3-8.1,2.7-16.2,1.6-24.4
		c-0.6-4.6-6.2-9.8,1.8-11c6.2-1,14.5,1.3,20.8,2.1c4.7,0.5,8.6,1.1,13.1,2.4c15.1,4.4,30.1,10,45.3,14.1c4.2,1.1,9.5,1.8,13.3,3.6
		c7.5,3.6,7.8,12.3,9.5,19.6c1.9,8.3,1.3,16.9,3,25.2c1.5,7.3,2.5,16.4,0.1,23.7c-1.9,5.8-5,10.9-6.8,16.8
		c-1.2,4.1-3.8,7.3-4.3,11.7c-0.2,2.1-0.6,6.9,0.3,8.7c5.9-9.8,18.5-14.6,27.9-20.3c4-2.4,9.7-5.4,12.3-9.3c1.9-2.7,3.2-5.3,5.6-7.7
		c2.1-2.1,7.3-4,8.6-6.3c3.5-6-16.7-11.3-20.8-12.8c-4.2-1.5-8.6-2-12.9-3.1c-4-1.1-7.8-3.8-12-4.4"/>
		<path id="XMLID_103_" class="st8" d="M869,333c-4-1.9-7.2-4.5-11.7-5c-3.2-0.4-6.3-1-9.5-1c-8.1,0.1-19.6-3-24.2,5.4
			c-1.6,2.9-2.7,6.3-3.9,9.4c-1.3,3.4-0.8,6.2,2.3,8.6c4.1,3.2,9,4.7,14,5.8c2,0.4,4.1,1.2,6,1.9c2.4,1,7.2,2.5,8.9,4.7
			c-3.5,1.9-6.6-5.5-5.8-8.1c1.7-5.2,9.6-2.2,13-1c3.1,1.1,6,2.6,8.9,4.1c3,1.5,5.1,4.1,7.4,6.4c1.2,1.2,3.6,2.7,4.1,4.3
			c1,2.8-1.7,2.8-3.4,3.6c-2.3,1.1-4.5,2.8-7,3.6c-4.7,1.4-8,1.8-12.2-0.8c-3.7-2.3-8.9-3.8-10.9-8c-1-2-1.4-4.9-0.7-7.1
			c0.5-1.4,2.3-4.5,3.9-4.5c3,2.5-4,10-0.1,11.3c1.7-1.1,1-3.4,0.9-5.1c1.5-0.3,2.4,4.1,2.7,5.1c-0.5-3.1-6.2-6.1-8.6-7.4
			c-3.7-2-8.5-3.9-11.8-6.4c-2.5-1.9-3.3-5.4-3.9-8.2c-0.6-3.1-1.4-9.8,1.8-11.3c1.9-0.9,4.1-0.4,6.1-0.6c2.3-0.2,4.3-0.9,6.6-0.9
			c3.7-0.1,7.4,0,11.1,0c2.2,0,4.8-0.4,7,0.2c1.1,0.3,2.3,1,3.4,1.5c2,1,4.6,3.4,6.9,3.3"/>
		<path id="XMLID_85_" class="st8" d="M870,337c-0.9-0.9-2.9-3.6-3-4.8c-0.1-1.9,1.5-1.9,3-2.1c3.2-0.6,7,0,10.3,0
			c4.6,0,10.5-1,13.9,3c1.7,2,3.1,4.1,4.9,6c1.6,1.7,2.9,3.1,2.5,5.4c-0.5,3-2.2,5.9-5.6,5.7c-3.1-0.2-4.9-3.2-7.4-4.7
			c-2.7-1.6-5.8-2.2-8.6-3.7c-1.7-0.9-3.3-1.8-5-2.7c-1.7-1-7.3-2.8-5-5.4c1.3-1.4,5.8-0.7,7.7-0.6c2.8,0.1,5.5,0.8,8.1,2
			c1,0.5,2,1.4,3.1,1.8c1.6,0.5,2.6,0.2,4.1,1.1c2.4,1.5,4.4,4.9,6,7.1c1,1.4,2.5,2.4,0.9,4.1c-1.3,1.3-4.4,0.9-6,0.9"/>
	<path id="XMLID_105_" class="st4" d="M967,305c2.9-0.1,5.8,1.7,8.6,2.3c1.9,0.4,3.8,0.6,5.4,1.6c5,3.1,6.1,11,7.6,16.1
		c1.8,6.4-6.4,6.1-10.8,6.8c-3.4,0.5-7.5,0.7-10.9,0c-1.9-0.4-3.7-1.2-5.7-0.7c1.7,2.1,3.2,3.6,4.1,6.2c0.8,2.3,0.2,4.5,0.8,6.8
		c0.8,2.9,4.3,4,4.9,7c0.6,3-2.6,4.1-4.9,5c-2.8,1.1-6.2,1.8-9.1,2c-2.8,0.2-3.7,0.4-6.1,1.9c-6.4,3.8-11.7,8.8-17.8,13.1
		c-4.5,3.1-11.6,6.9-14.1,12c-0.7,1.4-1.6,4.3-0.8,5.9c1.4,3.2,5.4,1.9,7.9,1.4c2.9-0.6,6.8-1.2,8.9-3.5c2.6-2.8,0-5.4-1.7-7.9
		c-2.8-4.2-4.5-10.3-10.5-9.3c-2.7,0.5-5.2,1.6-7.8,2.2c-2.8,0.6-4.2,0.4-4.9-3c-1.2-6.1,5.2-7.9,9.7-8.6c2.7-0.4,4.6-0.4,7.2,0.7
		c1.6,0.7,3.6,2.9,5.2,3c3.3,0.4,8.8-5.3,10.6-8c2.4-3.8,0.9-9.4-2.8-11.9c-5-3.3-10.4-4-16.2-4.9c-5.2-0.8-10.8-0.2-16.1-0.2
		c-3.1,0-7.5,0.6-9.7,3"/>
		<path id="XMLID_34_" class="st3" d="M748.1,539.1c-11.1-5.6-22.9-9.6-34-15c-8.9-4.4-17.7-7.9-27.3-10.9
			c-6.7-2.1-11.3-4.4-13.5-11.5c-1.3-4.2-1.5-8.3-2-12.6c-0.6-5.1-2-10.1-2.7-15.2c-1.3-10.3-2.5-20.6-6.2-30.4
			c-1.7-4.6-3.4-9.2-5.3-13.7c-1.1-2.8-4.2-8.3-3.6-11.3c0.8-4.4,14.7-9.1,18.6-11.3c7.8-4.5,16.9-8.7,25.4-11.9
			c10.4-4,22.2-8.2,31.5-14.4c3.2-2.1,12.9-8.8,16-7c1.7,1,2.4,5.9,2.9,7.8c1.2,4.4,1.7,9,2.9,13.4c3,10.8,8.3,20.8,11,31.6
			c1.6,6.5,0.8,14.9,3.8,21c2.1,4.2,7.7,6.5,11.5,9c5.3,3.5,10.1,7.3,15.1,11.2c2.8,2.2,6.4,4,9.7,5.4c2.7,1.2,5.7,1,8.2,2.3
			c2.9,1.4,14.6,5,13.4,8.9c-0.9,3-7.9,5.3-10.5,6.7c-5.6,3-11.6,5.3-17.2,8.5c-6.8,3.9-12.6,9.7-19.1,14.1
			c-5.9,4-12.4,5.7-18.4,9.3c-3.8,2.3-4.8,5.3-7.8,8c-2.7,2.4-6.9,3.7-10.2,5.2"/>
		<path id="XMLID_113_" class="st4" d="M674.6,507.6c4.3-0.1,7.7-3.6,10.8-6c4.8-3.7,10.5-5.9,15.9-8.6c8.8-4.5,16.7-10.7,24.4-16.9
			c6.8-5.4,15.1-9.8,22.6-14.2c3.1-1.8,6.2-3.6,8.8-6.1c1.5-1.5,2.5-3.4,3.9-4.9c1.5-1.6,3.1-2.1,5.1-3.3"/>
</g>
<g id="texte">
	
		
			<path id="XMLID_73_" d="M23.6,19.6c-2.2,6-2.6,12.3-3.5,18.6c-1,7-1.9,13.9-2.5,20.9c-1.3,14.6-1.1,29.2-1.1,43.9
				c0,1.9,3,1.9,3,0c0-14-0.3-27.9,0.9-41.9C21,53.7,21.9,46.4,23,39c0.9-6.3,1.3-12.6,3.5-18.6C27.1,18.6,24.2,17.8,23.6,19.6
				L23.6,19.6z"/>
		
	
	
		
			<path id="XMLID_86_" d="M21.2,22.3c4.4,2,8.2-0.2,12.8,0.9c5.8,1.3,8.9,6.9,10.7,12.1c1.9,5.6-1.3,10-5.7,13.2
				c-5,3.6-11,3.9-16.9,4c-1.9,0-1.9,3,0,3c6.6-0.1,13.2-0.6,18.6-4.5c3.9-2.8,8-7.3,7.8-12.4c-0.1-4.7-3.2-10.8-6.3-14.2
				c-1.8-1.9-4-3.2-6.5-3.9c-4.1-1.2-9,0.9-12.9-0.8C21,18.9,19.5,21.5,21.2,22.3L21.2,22.3z"/>
		
	
	
		
			<path id="XMLID_98_" d="M62.5,24c-1,14-2.2,28-2.9,42.1c-0.3,6.4-0.9,12.9-1.1,19.3c-0.1,4-1.2,8.9,0.5,12.6
				c0.2,0.5,0.8,0.7,1.3,0.7c12,0.7,21.6-7.9,31.4-13.5c1.7-0.9,0.2-3.5-1.5-2.6c-7.1,4-13.7,9.5-21.5,12c-1.4,0.5-4,1.3-5.5,1.1
				c-2.7-0.4-2.1-2.2-1.9-4.6c0.2-3.7,0.2-7.5,0.5-11.3c1.2-18.7,2.3-37.3,3.7-56C65.6,22.1,62.6,22.1,62.5,24L62.5,24z"/>
		
	
	
		
			<path id="XMLID_112_" d="M58,59.5c7.8,0.4,14.9-2.8,22.4-4.1c1.9-0.3,1.1-3.2-0.8-2.9c-7.3,1.2-14.1,4.3-21.6,3.9
				C56.1,56.4,56.1,59.4,58,59.5L58,59.5z"/>
		
	
	
		
			<path id="XMLID_123_" d="M59.4,26.4c5.5-1.8,11.5-1.6,17.2-2.2c3.4-0.4,8.3,0.3,11.2-1.9c1.5-1.1,0-3.8-1.5-2.6
				c-1.7,1.3-5.1,1-7.2,1.2c-2.5,0.3-5,0.6-7.4,0.8c-4.4,0.4-8.8,0.4-13,1.8C56.8,24.2,57.6,27,59.4,26.4L59.4,26.4z"/>
		
	
	
		
			<path id="XMLID_134_" d="M105.5,17c0.3,22.2,1.6,44.9,4,67c0.2,1.9,3.2,1.9,3,0c-2.4-22.1-3.7-44.8-4-67
				C108.5,15.1,105.5,15.1,105.5,17L105.5,17z"/>
		
	
	
		
			<path id="XMLID_145_" d="M94,20.5c10.7,0,21.3,0,32,0c1.9,0,1.9-3,0-3c-10.7,0-21.3,0-32,0C92.1,17.5,92.1,20.5,94,20.5L94,20.5z
				"/>
		
	
	
		
			<path id="XMLID_153_" d="M134.5,31c0,16.3,0,32.7,0,49c0,1.9,3,1.9,3,0c0-16.3,0-32.7,0-49C137.5,29.1,134.5,29.1,134.5,31
				L134.5,31z"/>
		
	
	
		
			<path id="XMLID_163_" d="M136.5,18c0-0.7,0-1.3,0-2c0-0.8-0.7-1.5-1.5-1.5c-0.8,0-1.5,0.7-1.5,1.5c0,0.7,0,1.3,0,2
				c0,0.8,0.7,1.5,1.5,1.5C135.8,19.5,136.5,18.8,136.5,18L136.5,18z"/>
		
	
	
		
			<path id="XMLID_172_" d="M156.5,16c1.4,11.7,4.2,23,5.2,34.8c0.9,11.3,2.1,22.4,3.9,33.6c0.3,1.9,3.2,1.1,2.9-0.8
				c-1.8-11.6-2.9-23.1-4-34.7c-1-11.1-3.7-21.8-5-32.9C159.3,14.1,156.3,14.1,156.5,16L156.5,16z"/>
		
	
	
		
			<path id="XMLID_181_" d="M147.8,22.3c5.4-4,12.6-6.5,18.8-9c6.8-2.7,14.1-5.3,21.5-5.8c1.9-0.1,1.9-3.1,0-3
				c-7.7,0.6-15.1,3.1-22.2,5.9c-6.4,2.5-13.9,5.1-19.5,9.3C144.7,20.8,146.2,23.4,147.8,22.3L147.8,22.3z"/>
		
	
	
		
			<path id="XMLID_193_" d="M210.6,17.4c2.4,12.7,2,26.5,2,39.4c0,6.4,0,12.9,0.7,19.3c0.7,6.6,1.9,13.2,2.3,19.9
				c0.1,1.9,3.1,1.9,3,0c-0.4-6.7-1.6-13.2-2.3-19.9c-0.7-7-0.7-14.1-0.7-21.2c0-12.6,0.3-25.9-2.1-38.3
				C213.1,14.7,210.2,15.5,210.6,17.4L210.6,17.4z"/>
		
	
	
		
			<path id="XMLID_203_" d="M192.3,28.8c1.3-3,4.6-4.3,7.5-5.6c4.1-1.9,8.4-3.4,12.5-5.1c8.6-3.5,16.4-6.7,25.7-7.6
				c1.9-0.2,1.9-3.2,0-3c-10.6,0.9-19.5,4.9-29.2,8.7c-5.8,2.3-16.3,4.6-19.1,11C188.9,29,191.5,30.5,192.3,28.8L192.3,28.8z"/>
		
	
	
		
			<path id="XMLID_214_" d="M241.6,24.6c-2.9,8.7-5.6,17.3-6,26.5c-0.4,9.4-0.1,18.9,1.4,28.2c1,6.5,2.7,9.3,9.5,6.8
				c3.4-1.3,6.9-2.5,10.3-3.9c3.7-1.6,7.8-5.2,11.7-5.7c1.9-0.3,1.1-3.2-0.8-2.9c-2.8,0.4-4.7,2.1-7.1,3.5
				c-3.3,1.9-6.9,3.3-10.5,4.6c-2.1,0.8-7.5,3.9-9.4,1.3c-0.6-0.8-0.6-3.6-0.8-4.4c-0.4-2.3-0.7-4.6-0.9-7
				c-0.7-7.3-0.8-14.9-0.3-22.3c0.6-8.2,3.2-16.1,5.8-23.8C245.1,23.6,242.2,22.8,241.6,24.6L241.6,24.6z"/>
		
	
	
		
			<path id="XMLID_228_" d="M233,56.5c4.4-0.4,8.6-1.6,12.8-3c3.8-1.3,7.6-3.3,11.6-4c1.9-0.4,1.1-3.2-0.8-2.9
				c-8.1,1.5-15.2,6.1-23.6,6.9C231.1,53.7,231.1,56.7,233,56.5L233,56.5z"/>
		
	
	
		
			<path id="XMLID_241_" d="M233,31.5c6-0.7,11.8-2.5,17.7-3.8c4.7-1,10.9-0.9,15.1-3.4c1.6-1,0.1-3.6-1.5-2.6
				c-3.5,2.2-10.3,2.3-14.3,3.1c-5.6,1.2-11.2,3-16.9,3.7C231.1,28.7,231.1,31.7,233,31.5L233,31.5z"/>
		
	
	
		
			<path id="XMLID_244_" d="M300.4,19.6c-3.5-0.5-7.1-1.1-10.6-1.7c-2.2-0.4-5-1.3-7.2-0.8c-3.5,0.7-4.9,4.5-5.8,7.6
				c-3.1,10.5,1.1,19.5,11.2,23.4c6,2.3,12.5,2.7,18.4,4.9c6.8,2.6,7.4,9.4,7.2,15.9c-0.2,5.5-1.4,11.2-4.4,15.8
				c-4.6,7.1-14.4,8.9-19.9,1.5c-1.1-1.5-3.7,0-2.6,1.5c5.8,7.9,17.1,8.4,23.3,0.9c6-7.2,7.6-18.4,6-27.4
				c-2.3-13.1-15.8-12-26.1-15.5c-8.8-3.1-13.1-10-10.6-19.4c0.4-1.6,0.8-3.7,2-4.9c1.9-2,3.6-1.3,5.9-0.9c4.1,0.6,8.2,1.3,12.4,2
				C301.5,22.7,302.3,19.8,300.4,19.6L300.4,19.6z"/>
		
	
	
		
			<path id="XMLID_252_" d="M330.5,20c-0.3,5.2,1.4,10.2,2.3,15.2c1.3,6.7,2.8,13.3,4.4,19.8c3.1,12.9,6.3,25.7,6.3,39
				c0,1.9,3,1.9,3,0c0-12.3-2.7-24.1-5.5-36c-1.5-6.3-3-12.5-4.3-18.9c-1.3-6.1-3.5-12.9-3.1-19.1C333.6,18.1,330.6,18.1,330.5,20
				L330.5,20z"/>
		
	
	
		
			<path id="XMLID_253_" d="M314.8,26.3c16.3-7.5,34.9-4.2,51.6-9.8c1.8-0.6,1-3.5-0.8-2.9c-17.1,5.7-35.8,2.5-52.4,10.2
				C311.5,24.5,313,27.1,314.8,26.3L314.8,26.3z"/>
		
	
	
		
			<path id="XMLID_261_" d="M23.5,122c-0.1,17.3,3.1,34.6,3,52c0,1.9,3,1.9,3,0c0.1-17.4-3.1-34.7-3-52
				C26.5,120.1,23.5,120.1,23.5,122L23.5,122z"/>
		
	
	
		
			<path id="XMLID_262_" d="M24,122.5c7.6,0,15.1,0.1,22.7-0.1c4.9-0.1,8.9,0.5,10.7,5.6c1.2,3.5,2.3,7.2,2.8,10.9
				c1.1,8-2.1,16.3-8.4,21.4c-6.2,5-16.2,5.2-23.8,5.2c-1.9,0-1.9,3,0,3c8.4-0.1,19-0.4,25.8-6c6.6-5.4,10.5-14.4,9.5-23
				c-0.7-5.9-2.3-16.9-8.8-19.4c-3.7-1.5-8.2-0.7-12.1-0.7c-6.1,0.1-12.3,0-18.4,0C22.1,119.5,22.1,122.5,24,122.5L24,122.5z"/>
		
	
	
		
			<path id="XMLID_270_" d="M65.5,122c1,9.6,0.9,19.1,1.1,28.7c0.1,4.5,0.3,8.9,0.7,13.4c0.2,2.7,0.1,6.6,1.5,9.1
				c2.4,4.5,8,3.1,11.8,1.7c7.9-3,15.6-6.8,23.1-10.6c1.7-0.9,0.2-3.5-1.5-2.6c-6.6,3.4-13.3,6.4-20.2,9.3c-2.6,1.1-5.1,2.5-8,2
				c-4.1-0.7-3.4-5.3-3.8-8.9c-1.3-14-0.4-28.1-1.8-42.1C68.3,120.1,65.3,120.1,65.5,122L65.5,122z"/>
		
	
	
		
			<path id="XMLID_275_" d="M65.4,148.4c5-1.5,10.1-1.3,15.1-1.9c4.3-0.6,8.6-1.4,12.9-2.1c1.9-0.3,1.1-3.2-0.8-2.9
				c-5.2,0.8-10.3,1.9-15.5,2.3c-4.3,0.4-8.4,0.5-12.5,1.7C62.8,146.1,63.5,149,65.4,148.4L65.4,148.4z"/>
		
	
	
		
			<path id="XMLID_273_" d="M65.8,128.3c2.9-1.7,7.5-1.6,10.7-2.2c3.5-0.7,6.9-1.7,10.4-2.6c6.9-1.8,13.9-3.3,20.5-6
				c1.8-0.7,1-3.6-0.8-2.9c-7.2,2.9-14.8,4.4-22.3,6.5c-3.4,0.9-6.9,1.8-10.4,2.5c-3.3,0.6-6.8,0.6-9.7,2.2
				C62.6,126.7,64.1,129.3,65.8,128.3L65.8,128.3z"/>
		
	
	
		
			<path id="XMLID_267_" d="M149.5,157c0.7-8.7,1.2-17.3,0.9-26c-0.2-4.4-0.5-8.8-0.8-13.1c-0.2-3.7-0.9-7.6,0.1-11.2
				c-0.8,0.2-1.7,0.4-2.5,0.7c3.1,3.6,4.9,8.2,7,12.3c1.9,3.8,4,7.5,6.1,11.3c3,5.6,5.4,11.6,10.7,15.5c0.6,0.4,1.3,0.2,1.8-0.2
				c10-8.1,9.9-23.4,14.7-34.3c-0.8,0.1-1.6,0.2-2.4,0.3c1.8,1.8,2,4.8,2.6,7.2c0.9,3.9,1.9,7.7,2.6,11.6c1.5,7.9,3.3,17.1,3.1,25.1
				c0,1.9,3,1.9,3,0c0.1-4.7-1-9.4-1.5-14.1c-0.5-4.6-1.2-9.1-2.1-13.6c-1-5.2-1.7-14.2-5.6-18.3c-0.6-0.6-2-0.6-2.4,0.3
				c-4.7,10.6-4.7,25.9-14.3,33.7c0.6-0.1,1.2-0.2,1.8-0.2c-5.8-4.3-8.7-12.7-12.1-18.9c-3.5-6.5-6.2-14-11-19.7
				c-0.8-0.9-2.2-0.4-2.5,0.7c-2,7.1,0.2,16,0.5,23.3c0.4,9.3-0.1,18.6-0.8,27.9C146.3,158.9,149.3,158.9,149.5,157L149.5,157z"/>
		
	
	
		
			<path id="XMLID_259_" d="M221.5,121c0.8,12.6-2.7,25.3-3,38c0,1.9,3,1.9,3,0c0.3-12.7,3.8-25.4,3-38
				C224.4,119.1,221.4,119.1,221.5,121L221.5,121z"/>
		
	
	
		
			<path id="XMLID_250_" d="M229.1,108.9c-0.9-0.8-2-1.3-3-2c-0.1,0.9-0.2,1.8-0.4,2.7c0.2-0.1,0.4-0.2,0.7-0.2c0.8-0.3,1.3-1,1-1.8
				c-0.2-0.7-1.1-1.3-1.8-1c-0.2,0.1-0.4,0.2-0.7,0.2c-1.3,0.4-1.4,2-0.4,2.7c0.8,0.5,1.7,1,2.4,1.5c0.6,0.5,1.5,0.6,2.1,0
				C229.6,110.5,229.7,109.5,229.1,108.9L229.1,108.9z"/>
		
	
	
		
			<path id="XMLID_242_" d="M275.1,112.9c-3.6-3.5-10-4.1-14.7-5.3c-4.1-1-8.9-2.7-13.1-1c-8.7,3.5-11.2,16.6-5.5,23.5
				c2.9,3.5,7,5.7,11.2,7.2c5.6,2.1,14.3,1.7,14.2,9.6c-0.1,7.9-6,13.7-13.1,16.2c-3.5,1.2-6.6,1.6-10.1,0.4c-2.7-0.9-5.1-1.9-8-2
				c-1.9-0.1-1.9,2.9,0,3c5.1,0.3,9.2,3.6,14.4,2.8c4.8-0.7,9.8-3,13.4-6.3c5.1-4.6,9.5-15.7,3.9-21.5c-2.7-2.9-7.2-2.9-10.8-4
				c-5.7-1.7-12.5-4.6-14.7-10.6c-2.8-7.8,3.3-17.1,11.7-15.7c3.1,0.5,6.2,1.4,9.2,2.2c3.1,0.8,7.4,1.3,9.8,3.6
				C274.3,116.4,276.4,114.3,275.1,112.9L275.1,112.9z"/>
		
	
	
		
			<path id="XMLID_234_" d="M289.5,121c0,16.3-4.6,32-5.2,48.1c-0.5,13.2,18.5,5.9,25.7,6.4c1.9,0.1,1.9-2.9,0-3
				c-5.4-0.3-10.4,1.5-15.8,1.6c-4.2,0.1-7.2-2.2-6.7-6.7c0.3-3.7,0.8-7.3,1.3-11c1.7-11.8,3.7-23.5,3.7-35.5
				C292.5,119.1,289.5,119.1,289.5,121L289.5,121z"/>
		
	
	
		
			<path id="XMLID_207_" d="M289.1,149.1c6.2-5.4,15.4-8.1,22.7-11.8c1.7-0.9,0.2-3.5-1.5-2.6c-7.6,3.9-16.8,6.5-23.3,12.2
				C285.5,148.2,287.6,150.3,289.1,149.1L289.1,149.1z"/>
		
	
	
		
			<path id="XMLID_199_" d="M287,128.5c4.6,0,9.1-2,13.7-2.7c5.8-0.8,11.5-1.3,17.3-1.3c1.9,0,1.9-3,0-3c-5.1,0.1-10.1,0.4-15.1,1
				c-2.2,0.3-4.5,0.6-6.7,1c-3,0.6-6.1,2-9.2,2C285.1,125.5,285.1,128.5,287,128.5L287,128.5z"/>
		
	
	
		
			<path id="XMLID_390_" d="M353.5,113c0,8.7-0.9,17.2-2,25.8c-0.6,4.5-1,9-2,13.5c-0.7,3.3-1.9,6.4-2,9.9c0,0.6,0.5,1.4,1.1,1.4
				c7.2,1.1,12.8-4.2,19.7-5.1c1.9-0.3,1.1-3.2-0.8-2.9c-6.2,0.9-11.8,6.1-18.1,5.1c0.4,0.5,0.7,1,1.1,1.4c0.1-4.2,1.8-8.3,2.5-12.5
				c0.6-3.6,1-7.2,1.5-10.8c1.1-8.6,2-17.1,2-25.8C356.5,111.1,353.5,111.1,353.5,113L353.5,113z"/>
		
	
	
		
			<path id="XMLID_398_" d="M353,137.5c2.6-0.1,4.9-1.1,7.3-2c3.1-1.1,6.4-1.7,9.7-2c1.9-0.2,1.9-3.2,0-3c-2.8,0.3-5.6,0.8-8.3,1.5
				c-2.9,0.8-5.6,2.4-8.7,2.5C351.1,134.6,351.1,137.6,353,137.5L353,137.5z"/>
		
	
	
		
			<path id="XMLID_411_" d="M354.1,120.1c2.3-2.2,5.3-2.4,8.3-2.9c3.6-0.5,7.1-1.3,10.6-1.7c1.9-0.2,1.9-3.2,0-3
				c-4.2,0.4-8.3,1.3-12.5,1.9c-3.3,0.5-6.1,1.1-8.6,3.5C350.6,119.3,352.7,121.4,354.1,120.1L354.1,120.1z"/>
		
	
	
		
			<path id="XMLID_481_" d="M380.1,162.1c2.4-2.8,2.6-6.2,3.3-9.7c1.1-5.7,2.4-11.4,3.9-17c1.4-5.3,3.1-10.6,4.2-16
				c0.4-2,0.2-7.9,2.2-8.6c-0.6-0.2-1.1-0.5-1.7-0.7c5.3,8.9,6,20,7.6,30.1c0.9,5.5,1.2,10.9,0.9,16.5c-0.3,4.7-0.5,9.2,0.3,13.9
				c0.2,1.3,2.1,1.4,2.7,0.4c4.7-8.3,7.4-17.4,10.4-26.4c1.7-5,3.6-9.8,5.8-14.6c1.7-3.7,4.2-7.4,4.9-11.4c0.3-1.9-2.6-2.7-2.9-0.8
				c-0.7,4.2-3.5,8.4-5.3,12.3c-1.8,4-3.4,8-4.8,12.2c-3.2,9.3-5.8,18.7-10.6,27.3c0.9,0.1,1.8,0.2,2.7,0.4c-1-5.5-0.2-11,0-16.5
				c0.2-5.3-0.6-10.5-1.5-15.7c-1.6-9.8-2.4-20.2-7.6-28.9c-0.3-0.5-1.1-0.9-1.7-0.7c-2.3,0.8-3,2.9-3.5,5.1
				c-0.8,3.8-1.2,7.5-2.2,11.3c-1.5,6-3.3,11.8-4.7,17.8c-0.7,3.1-1.4,6.3-2,9.5c-0.5,2.7-0.6,6.2-2.5,8.4
				C376.7,161.4,378.8,163.5,380.1,162.1L380.1,162.1z"/>
		
	
	
		
			<path id="XMLID_157_" d="M302,197.5c-10.9-0.4-21-6.1-32.1-4.4c-6,0.9-15.8,5.2-15.1,12.7c0.6,7,12.4,6.6,17.2,7.1
				c2.7,0.3,5.9,0,8.5,0.8c3.3,1,6.6,4.2,8.3,7.2c2.3,3.8,1.7,7.4-2.1,9.6c-3.7,2.2-6.9,3-11,1.2c-1.8-0.8-3.3,1.8-1.5,2.6
				c3.5,1.6,6.4,2.2,10.1,0.8c3-1.2,7.2-3.1,8.6-6.2c3-6.8-5.1-15.6-11-17.7c-5.2-1.9-11.9-1.4-17.3-2.2c-2.9-0.5-8-1.1-6.4-5.6
				c1.1-3.2,4.8-5.2,7.9-6.2c12.1-4.3,23.8,3,35.8,3.4C303.9,200.6,303.9,197.6,302,197.5L302,197.5z"/>
		
	
	
		
			<path id="XMLID_149_" d="M346,192.5c-10.7-0.1-20.5,0.3-30.9,3.1c-6.5,1.8-13.6,4.9-12,13.1c1.1,5.6,7.6,8.8,12.5,10.6
				c3.7,1.3,7.7,2.1,11.7,2.3c5.4,0.2,9.6-2.5,14.8-3.1c1.9-0.2,1.9-3.2,0-3c-2.8,0.3-5.2,1.3-7.9,2.1c-4.3,1.3-8.3,1-12.7,0.2
				c-4.8-1-10.8-2.9-14-6.9c-7.4-9.2,8.9-12.6,14.8-14c7.8-1.8,15.7-1.4,23.7-1.4C347.9,195.5,347.9,192.5,346,192.5L346,192.5z"/>
		
	
	
		
			<path id="XMLID_141_" d="M364.9,189.9c-4.5,5.8-7.6,12.5-9.7,19.5c-1.2,4-4.3,12.2-2.2,16.2c3.5,6.7,17.4,2.3,23,1.8
				c1.9-0.2,1.9-3.2,0-3c-3,0.3-5.9,0.9-8.9,1.2c-2.6,0.3-8.6,1.4-10.7-0.7c-2.8-2.7,1.2-12.9,2.2-16.2c1.9-6,4.6-11.7,8.5-16.7
				C368.2,190.6,366.1,188.4,364.9,189.9L364.9,189.9z"/>
		
	
	
		
			<path id="XMLID_140_" d="M355.2,205.3c2.4,1.2,4.9,2.5,7.4,3.6c2.1,1,4.5,1.6,6.3,3.2c1.5,1.2,3.6-0.9,2.1-2.1
				c-1.8-1.5-3.9-2.3-6-3.2c-2.8-1.2-5.5-2.6-8.3-4C355,201.8,353.5,204.4,355.2,205.3L355.2,205.3z"/>
		
	
	
		
			<path id="XMLID_133_" d="M363,193.5c4,0,8.7-0.3,12.2,1.8c1.7,1,3.2-1.6,1.5-2.6c-4-2.4-9.2-2.3-13.8-2.2
				C361.1,190.5,361.1,193.5,363,193.5L363,193.5z"/>
		
	
	
		
			<path id="XMLID_125_" d="M380.4,186.6c-6.4-1-10.1-7-15.6-9.8c-1.7-0.9-3.2,1.7-1.5,2.6c5.8,3,9.6,9,16.4,10.2
				C381.5,189.8,382.3,186.9,380.4,186.6L380.4,186.6z"/>
		
	
	
		
			<path id="XMLID_124_" d="M395.5,225c0-6.5,0.6-13.1,0-19.6c-0.2-2.2-2.3-7.7-0.6-9.3c-0.7,0-1.4,0-2.1,0c2.6,2.1,3.8,5.3,5.4,8.2
				c2,3.5,4.1,7,6.1,10.5c1.7,3,3.4,6,5,9c1.1,2.2,1.9,4,4,5.3c0.6,0.4,1.3,0.2,1.8-0.2c3.8-3,5.2-9.7,6.3-14.2
				c0.9-3.4,1.3-6.9,2.2-10.3c0.8-3.1,2.3-5.9,2.9-9c0.3-1.9-2.6-2.7-2.9-0.8c-0.5,2.6-1.8,4.9-2.5,7.4c-0.8,2.8-1.2,5.6-1.8,8.5
				c-1,4.8-2.3,13.1-6.3,16.4c0.6-0.1,1.2-0.2,1.8-0.2c-2.4-1.5-3.9-6.1-5.2-8.4c-1.8-3.2-3.7-6.5-5.5-9.7
				c-2.7-4.6-4.9-11.1-9.1-14.4c-0.6-0.5-1.5-0.6-2.1,0c-2.2,2.3-1,6.3-0.6,9c1.1,7.2,0.3,14.7,0.3,22
				C392.5,226.9,395.5,226.9,395.5,225L395.5,225z"/>
		
	
	
		
			<path id="XMLID_117_" d="M436.5,194c0.1,7.8,0.4,15.4-0.9,23.1c-0.5,3-2.9,8.2,1,10c2.9,1.3,6.7-1.1,9.1-2.3
				c2.7-1.3,5.5-2.5,8.3-3.8c4.2-1.9,9.4-5.2,14-5.5c1.9-0.1,1.9-3.1,0-3c-4.8,0.3-9.4,3.2-13.7,5.1c-4.2,1.9-8.3,4-12.5,5.8
				c-0.6,0.2-2.6,1.3-3.2,1c-1-0.5-0.3-4-0.2-5c0.3-2.4,0.7-4.9,1-7.3c0.6-6,0.3-12,0.2-18.1C439.5,192.1,436.5,192.1,436.5,194
				L436.5,194z"/>
		
	
	
		
			<path id="XMLID_106_" d="M438,206.5c4.3-0.3,8.3-1.9,12.5-2.8c3-0.7,6.1-0.6,8.6-2.6c1.5-1.2-0.6-3.3-2.1-2.1
				c-2.1,1.7-5.9,1.5-8.4,2.2c-3.5,0.9-6.9,2.2-10.6,2.4C436.1,203.6,436.1,206.6,438,206.5L438,206.5z"/>
		
	
	
		
			<path id="XMLID_104_" d="M435,194.5c6,0,12,0.3,18-0.3c5.5-0.6,11-1.9,16.4-2.8c1.9-0.3,1.1-3.2-0.8-2.9
				c-5.8,0.9-11.6,2.4-17.5,2.8c-5.3,0.4-10.7,0.2-16.1,0.1C433.1,191.5,433.1,194.5,435,194.5L435,194.5z"/>
		
	
	
		
			<path id="XMLID_95_" d="M395.3,287.2c-3.2-6.4-4.3-13.3-5.2-20.3c-0.4-2.9-2.3-9.3-0.1-11.7c-0.6,0.1-1.2,0.2-1.8,0.2
				c2.9,1.5,5.1,6.6,6.9,9.1c2,2.9,4,5.7,6.1,8.5c2.1,2.9,4.4,7.6,8.2,4.7c3-2.3,3.7-6.9,4.3-10.4c1-6,0-11.1-2.1-16.8
				c-0.7-1.8-3.6-1-2.9,0.8c1.8,4.9,3,9.5,2.2,14.7c-0.2,1.6-0.5,3.2-1,4.8c-0.2,0.8-0.4,1.9-0.9,2.6c-1.8,2.4-3,1.1-4.6-1.1
				c-2.8-3.7-5.5-7.5-8.1-11.4c-1.9-2.8-3.4-6.4-6.5-8c-0.6-0.3-1.4-0.3-1.8,0.2c-2.9,3.1-1.5,8.5-1,12.3c1.1,8.1,2.2,15.9,5.8,23.3
				C393.6,290.5,396.2,289,395.3,287.2L395.3,287.2z"/>
		
	
	
		
			<path id="XMLID_89_" d="M418.6,248.4c1,6.6,0.2,13.4,1.5,20c0.6,3,2.8,8.6,6.6,8.9c3.6,0.3,5.2-5.2,5.8-7.9
				c1.4-6.3,2.3-12.4,1-18.8c-0.4-1.9-3.3-1.1-2.9,0.8c1.1,5.1,0.5,9.8-0.5,14.8c-0.8,4.1-3.1,12.1-6.4,3.8
				c-2.7-6.7-1.1-15.4-2.2-22.5C421.2,245.7,418.3,246.5,418.6,248.4L418.6,248.4z"/>
		
	
	
		
			<path id="XMLID_87_" d="M441.4,282.4c0.8-5.4,2-10.6,2.4-16.1c0.4-6.2,0.6-12.4,1.9-18.5c-0.6,0.3-1.2,0.7-1.8,1
				c2.3,0.8,1.6,9.9,1.7,12.2c0.1,3.3-0.3,7.9,2.7,10c0.5,0.4,1.4,0.2,1.8-0.2c2.6-2.4,3.8-5.8,5.1-9.1c1.8-4.7,4-9.3,6-13.9
				c-0.9,0-1.7,0-2.6,0c2.1,3.7,1.4,8.2,1.2,12.3c-0.3,4.6-0.1,9.2-0.1,13.8c0,1.9,3,1.9,3,0c0-5.5,0-10.9,0.3-16.4
				c0.2-3.9,0.2-7.8-1.7-11.2c-0.5-0.9-2.1-1.1-2.6,0c-1.6,3.8-3.4,7.5-5,11.3c-1.6,3.7-2.5,8.2-5.6,11.1c0.6-0.1,1.2-0.2,1.8-0.2
				c-2.3-1.7-1.2-10.8-1.4-13.6c-0.2-3-0.4-7.7-3.7-8.9c-0.7-0.3-1.7,0.3-1.8,1c-1,5.2-1.4,10.4-1.7,15.7
				c-0.4,6.4-1.5,12.6-2.5,18.9C438.3,283.5,441.2,284.3,441.4,282.4L441.4,282.4z"/>
		
	
	
		
			<path id="XMLID_77_" d="M466.5,248c0.6,5.6,1.2,11,1,16.6c-0.1,2.7-1.1,6,1.3,8.1c4.1,3.6,12.1,0.9,16.6-0.3
				c1.9-0.5,1.1-3.4-0.8-2.9c-3.4,0.8-13.5,4.3-14.4-1c-0.5-2.8,0.3-6.4,0.3-9.3c-0.1-3.8-0.6-7.5-1-11.3
				C469.3,246.1,466.3,246.1,466.5,248L466.5,248z"/>
		
	
	
		
			<path id="XMLID_76_" d="M471.8,262.3c3.2-1.4,6.5-2.5,9.7-3.9c2.8-1.2,5.4-2.8,8.6-2.9c1.9-0.1,1.9-3.1,0-3
				c-3.2,0.1-5.8,1.4-8.6,2.7c-3.6,1.6-7.5,2.9-11.1,4.5C468.5,260.5,470,263.1,471.8,262.3L471.8,262.3z"/>
		
	
	
		
			<path id="XMLID_69_" d="M465.6,247.4c5.8,0.9,11.6,1.1,17.4,1.1c1.9,0,1.9-3,0-3c-5.6,0-11.1-0.1-16.6-0.9
				C464.5,244.2,463.7,247.1,465.6,247.4L465.6,247.4z"/>
		
	
	
		
			<path id="XMLID_68_" d="M471.1,242.1c4.4-4,9.9-6.6,14-11c1.3-1.4-0.8-3.6-2.1-2.1c-4,4.4-9.6,7-14,11
				C467.5,241.2,469.6,243.3,471.1,242.1L471.1,242.1z"/>
		
	
	
		
			<path id="XMLID_55_" d="M496.5,236c-0.1,5.3-0.9,10.6-1.1,15.9c-0.2,5.7,0,11.4,0.1,17.1c0,1.9,3,1.9,3,0
				c0-5.7-0.2-11.4-0.1-17.1c0.2-5.3,1-10.6,1.1-15.9C499.5,234.1,496.5,234.1,496.5,236L496.5,236z"/>
		
	
	
		
			<path id="XMLID_54_" d="M496.8,240.3c1.9-1.2,5.3-2.5,7.5-3c4.6-0.9,5.1,3,6.1,6c0.8,2.5,1.4,3.9-1.3,5.7
				c-3.1,1.9-7.8,2.8-11.2,1.9c-1.4-0.3-2.6,1.5-1.5,2.5c2.1,1.9,4.6,2.5,7.2,3.6c4.2,1.9,8,4.9,11.4,8c1.4,1.3,3.6-0.8,2.1-2.1
				c-2.8-2.5-5.7-4.8-8.9-6.8c-3-1.8-7.1-2.5-9.6-4.8c-0.5,0.8-1,1.7-1.5,2.5c4.9,1.2,10.2-0.2,14.5-2.7c3.7-2.2,3-4.4,1.8-8.1
				c-1-3.1-1.8-7.3-5.2-8.7c-3.4-1.4-10.1,1.6-13,3.4C493.6,238.7,495.1,241.3,496.8,240.3L496.8,240.3z"/>
		
	
	
		
			<path id="XMLID_46_" d="M522.5,232c0.6,5.6,2.7,10.7,4.1,16.2c1.6,6.5,1.9,13.2,1.9,19.8c0,1.9,3,1.9,3,0
				c0-5.7-0.3-11.4-1.3-17.1c-1.2-6.4-4-12.4-4.7-18.9C525.3,230.1,522.3,230.1,522.5,232L522.5,232z"/>
		
	
	
		
			<path id="XMLID_45_" d="M525.3,221.2c-0.7-0.9-1.5-1.7-2.5-2.3c-1-0.6-2.2,0.2-2.3,1.3c-0.1,1.5,0.5,2.7,1.4,3.8
				c0.5,0.6,1.6,0.5,2.1,0c0.6-0.6,0.5-1.5,0-2.1c-0.5-0.6-0.5-1-0.5-1.7c-0.8,0.4-1.5,0.9-2.3,1.3c0.5,0.3,1,0.8,1.4,1.2
				c0.5,0.6,1.3,1,2.1,0.5C525.4,222.9,525.8,221.9,525.3,221.2L525.3,221.2z"/>
		
	
	
		
			<path id="XMLID_499_" d="M541,251.5c5.5,0,11,0.4,16.4-0.3c3-0.4,6.4-0.1,8.8-2.1c1.5-1.3-0.7-3.4-2.1-2.1
				c-1.7,1.5-8.3,1.5-10.1,1.6c-4.3,0.3-8.6,0-12.9-0.1C539.1,248.5,539.1,251.5,541,251.5L541,251.5z"/>
		
	
	
		
			<path id="XMLID_36_" d="M420.2,312.3c2.2,1.6,4.8,1.4,7.4,1.3c4.1-0.2,8.3-0.1,12.4-0.1c1.9,0,1.9-3,0-3c-3.5,0-7.1-0.1-10.6,0
				c-2.6,0.1-5.5,0.8-7.7-0.8C420.2,308.6,418.7,311.2,420.2,312.3L420.2,312.3z"/>
		
	
	
		
			<path id="XMLID_33_" d="M463.8,301.7c-3.4-1.8-11.5-7.8-13.9-1.5c-0.9,2.5-0.4,5.7-0.4,8.3c0.1,3.2,0.3,6.4,2.1,9.1
				c3.5,5.3,9.6,6.6,12.3,0.2c1.1-2.6,2.4-5.9,1.9-8.8c-0.6-3.3-3.6-5.8-5.8-8c-1.4-1.4-3.5,0.8-2.1,2.1c1.2,1.2,2.4,2.3,3.5,3.6
				c2,2.5,1.5,4.7,0.7,7.4c-0.6,2.1-1,4.5-3.4,4.8c-2.7,0.3-5-2.9-5.6-5.3c-0.9-2.9-0.6-6.3-0.6-9.4c0-6.5,7-1.4,9.8,0.1
				C463.9,305.2,465.5,302.6,463.8,301.7L463.8,301.7z"/>
		
	
	
		
			<path id="XMLID_32_" d="M453.7,312.2c-1.2,2.7-1.8,5.5-2.8,8.2c-0.9,2.6-2.2,4.8-2.4,7.5c-0.2,1.9,2.8,1.9,3,0
				c0.2-2.4,1.6-4.5,2.3-6.7c0.9-2.5,1.4-5.1,2.5-7.5C457.1,312,454.5,310.5,453.7,312.2L453.7,312.2z"/>
		
	
	
		
			<path id="XMLID_30_" d="M470.5,293c-0.1,5.7-1.5,11.9,0.7,17.4c1.5,3.7,5.6,7.8,10,6.6c7.5-2.1,8.3-15.8,8.4-22c0-1.9-3-1.9-3,0
				c-0.1,5.2-0.5,14.5-4.8,18.2c-4.4,3.8-8.1-3.9-8.6-7.4c-0.5-4.3,0.3-8.6,0.3-12.9C473.5,291.1,470.5,291.1,470.5,293L470.5,293z"
				/>
		
	
	
		
			<path id="XMLID_15_" d="M496.5,317c0.1-5.4,0.1-10.2-1.2-15.5c-0.8-3.4-2.3-7.7,1.6-9.6c2.2-1.1,5.7-1.5,8-1.4
				c1.9,0.1,1.9-2.9,0-3c-4-0.1-11.7,0.6-13.4,5c-1.1,2.8,0,6.3,0.6,9c1.2,5.3,1.4,10.1,1.3,15.5C493.5,318.9,496.5,318.9,496.5,317
				L496.5,317z"/>
		
	
	
		
			<path id="XMLID_11_" d="M489,308.5c6.1,0.1,12.1,0.5,17.8-2.2c1.7-0.8,0.2-3.4-1.5-2.6c-5.1,2.5-10.8,1.8-16.2,1.8
				C487.1,305.5,487.1,308.5,489,308.5L489,308.5z"/>
		
	
	
		
			<path id="XMLID_10_" d="M496,318.5c2.8,0,5.6,0.2,8.4-0.1c2.6-0.3,5-1,7.6-0.9c1.9,0.1,1.9-2.9,0-3c-2.4-0.1-4.5,0.5-6.9,0.8
				c-3,0.4-6.1,0.2-9.1,0.2C494.1,315.5,494.1,318.5,496,318.5L496,318.5z"/>
		
	
	<path id="XMLID_9_" class="st0" d="M458.2,350.7c-0.7-3.6,0.1-7.5,2.1-10.6c1.5,1.3,1.9,3.5,2,5.5c0.1,2,0,4.1,0.9,5.9"/>
	<path id="XMLID_39_" class="st0" d="M471.5,338.7c-0.1,3.8,0,7.6,0.5,11.4c1.5-0.2,3-0.9,4-2.1"/>
	<path id="XMLID_96_" class="st0" d="M481.3,350.3c-1-4.2-1.7-8.5-2.1-12.8c0-0.5,0-1.1,0.4-1.4c0.7-0.4,1.4,0.4,1.8,1.2
		c1.8,3.9,2.7,8.2,2.9,12.5"/>
	<path id="XMLID_165_" class="st0" d="M495,348c0.4-3.8,0.1-7.7-1-11.3c0.9,0,1.9,0,2.8,0c0.8,1.8,1.4,4.2-0.5,4.9
		c1.6-0.1,1.6,0.1,3.1,0.5c-0.2,0.8-0.3,1.6-0.5,2.4c-0.2,1.2-0.5,2.4-1.3,3.2c-0.8,0.9-2.4,1.1-3.1,0.2"/>
	<path id="XMLID_173_" class="st0" d="M501.7,336.3c-0.4,3.8-0.2,7.6,0.4,11.4"/>
	<path id="XMLID_180_" class="st0" d="M507,334.7c-0.4,4.3-0.7,8.7-1.1,13c2.2-0.1,4.4-0.7,6.4-1.7"/>
	<path id="XMLID_198_" class="st0" d="M516.1,345.7c-0.5-4.4-1.6-6.6-1.1-11c0.8,4.7,2.7,7.2,5.3,11.1c0.4-4.3,0.8-8.5,1.1-12.8"/>
	<path id="XMLID_369_" class="st0" d="M510.9,335.8c-0.9-0.2-1.8-0.4-2.7-0.2c-0.9,0.1-0.5,0.3-0.8,1.1c-0.5,1.6,0.3,3.7-0.2,5.3
		c0.9-0.1,4.1-0.3,5-0.4"/>
	<path id="XMLID_377_" class="st0" d="M477,343.7c2.5,0.3,5-0.5,7-2.1"/>
	<line id="XMLID_380_" class="st2" x1="458" y1="345.5" x2="462" y2="345.5"/>
</g>
<g id="duree">
	<path id="XMLID_941_" class="st2" d="M1156,640.6c-5.5,5.3-5.4,13.6-8.7,20"/>
	<path id="XMLID_935_" class="st2" d="M1153.4,641.5c1.3,1.5,1.6,4.2,1.8,6.1c0.1,1.7-0.6,3.4,1.6,2.9c1.8-0.4,3.5-3.9,4.5-5.4
		c1-1.5,1.8-4.5,3.5-5.1c3.8,5-1.9,13.5-2.7,18.8"/>
	<path id="XMLID_929_" class="st2" d="M1172.5,662.3c0-4.5,0-8.8,0.7-13.3c0.3-1.7,0.4-3.2,0.8-4.9c0.4-1.3,1.2-2.7,1.1-4.1
		c-0.2,1.6,0.4,2.7,0.9,4.3c0.9,2.6,0.7,4.9,1.1,7.6c0.4,2.3,0.7,6.5,3.3,7.6c1.5-1.3,1.6-3.7,1.7-5.5c0.2-2.1,0.7-4.1,0.9-6.2
		c0.1-1.9-1-5.7,0.8-7.1"/>
	<path id="XMLID_922_" d="M1048.4,670.1c-3.6,0-6.9-1.7-10.4-2.7c-3.3-1-4.8-2.8-6.7-5.4c-1.1-1.4-2.2-2.3-2.7-4.1
		c-0.4-1.8-0.7-3.6-0.7-5.4c0-2.7,0-5,0.7-7.7c0.4-1.5,0.6-3.2,1.1-4.7c0.4-1.3,1.5-2.4,2.1-3.7c1.2-2.7,3-5.2,5.5-6.9
		c5.1-3.6,12.9-3.3,18.8-2.2c2.5,0.5,5.2,0.7,7.5,2c3.3,2,3.9,6.1,5.6,9.4c1.2,2.3,2.3,4.7,3,7.2c0.5,1.6,0.4,3.3,0.6,4.9
		c0.3,2.1,0.1,3.5-0.1,5.5c-0.2,1.6-0.9,2.4-1.7,3.8c-1.4,2.7-2.7,4.1-5.5,5.5c-2.3,1.2-4.8,2.2-7.2,3.2c-2,0.8-4,1.4-6.1,1.9
		c-2.3,0.6-4.7,3-6.6,0.4"/>
	<path id="XMLID_915_" class="st9" d="M1048.5,654c0-6.3,0-12.7,0-19c0,3.2,0,6.5,0,9.7c0,1.3-0.1,2.5-0.1,3.8c0,0.9-0.4,2.8,0,3.6
		c0.9,1.4,2.7,0.3,3.9,0.1c1.9-0.3,3-0.4,4.7-1.3c2.4-1.3,5-1.4,7.4-2.8"/>
	<path id="XMLID_910_" class="st2" d="M1094.1,643.8c0.9-4.7,9.5-10.1,14.3-7.4c6.7,3.8,1,13.3-5.4,12.6c2.2-0.1,5.5-0.7,7.6,0.1
		c3.3,1.3,4.5,7.3,5,10.3c0.5,2.7-0.1,3.6-3,4.2c-2.2,0.4-5.4,0.5-7.5,0.2c-2.7-0.4-5.6-2.5-7.5-4.4"/>
	<path id="XMLID_909_" class="st2" d="M1125.3,662.8c0-1.7,1.5-3.9,2.2-5.3c1.5-3.4,3.1-6.8,5.2-10c1-1.3,1.9-2.6,2.6-4.1
		c0.4-1.1,1-2.1,1.7-3.1c0.8-1.1,1.7-1.9,2.1-3.3c-0.6-0.8-2.2-0.5-3-0.5c-1.3,0-2.6,0-3.9,0c-2,0-3.8,0.4-5.8,0.4"/>
	<path id="XMLID_906_" class="st2" d="M1124.9,646.6c0.8,0.7,2.2,0.6,3.2,0.8c1.5,0.4,3,0.9,4.5,1.3c1.8,0.4,4.3,1.6,6.2,1.3"/>
</g>
<g id="matos">
	
		
			<path id="XMLID_902_" d="M1004.8,502.3c0,3.6,1,6.8,2.4,10.2c1.5,3.8,2.8,7.7,4.4,11.5c0.7,1.8,3.6,1,2.9-0.8
				c-1.4-3.4-2.4-6.9-3.8-10.3c-1.4-3.5-2.7-6.8-2.8-10.7C1007.8,500.4,1004.8,500.4,1004.8,502.3L1004.8,502.3z"/>
		
	
	
		
			<path id="XMLID_898_" d="M1008.1,504.7c1.3-1.5,5.9,1.5,6.6,2.9c1,1.9-4.2,2.9-5.4,3.3c-1.8,0.7-1,3.6,0.8,2.9
				c3.2-1.2,10-2.8,7.2-7.7c-1.7-2.9-8.6-6.8-11.3-3.5C1004.7,504.1,1006.8,506.2,1008.1,504.7L1008.1,504.7z"/>
		
	
	
		
			<path id="XMLID_895_" d="M1020.2,502.1c0.6,3.2,2.7,5.6,3.9,8.6c1.4,3.4,2.3,7.3,2.7,11c0.2,1.9,3.2,1.9,3,0
				c-0.4-3.6-1.2-7.2-2.4-10.6c-1.2-3.4-3.7-6.3-4.3-9.8C1022.8,499.4,1019.9,500.2,1020.2,502.1L1020.2,502.1z"/>
		
	
	
		
			<path id="XMLID_890_" d="M1023.2,503.7c0-0.6,1.9-0.6,2.2-0.6c1.4,0.1,2.3,0.7,3,2.1c0.6,1.4,0.7,3.3-1.2,3.9
				c-0.4,0.1-1.8-0.2-2.1-0.3c0,1,0,2,0,3c5,0.1,10,0.2,14.5,2.5c1.7,0.9,3.2-1.7,1.5-2.6c-5.1-2.6-10.4-2.8-16-2.9
				c-1.9,0-1.9,2.9,0,3c2.7,0.2,5.3,0.8,6.4-2.4c0.7-2,0.1-5.9-1.2-7.6c-2.3-2.9-10-2.5-10.1,1.9
				C1020.1,505.6,1023.1,505.6,1023.2,503.7L1023.2,503.7z"/>
		
	
	
		
			<path id="XMLID_888_" d="M1043.8,513c-0.5-4.9-3.2-8.4-5.8-12.4c-0.7-1-1.3-2.1-1.8-3.2c-1-2.2,0-2,1.8-1.9
				c3,0.2,5.2,0.2,8.1-0.5c1.9-0.4,1.1-3.3-0.8-2.9c-2.1,0.5-3.9,0.7-6.1,0.5c-1.3-0.1-2.8-0.4-4.1,0c-1.6,0.4-2.6,1.4-2.6,3.1
				c0,2.5,2.1,5.2,3.5,7.2c2.1,3.1,4.5,6.1,4.8,10C1041,514.9,1044,514.9,1043.8,513L1043.8,513z"/>
		
	
	
		
			<path id="XMLID_882_" d="M1039.7,505.2c3.5,0,7.7,0.9,10.4-1.8c1.4-1.4-0.7-3.5-2.1-2.1c-1.9,1.9-5.8,0.9-8.3,0.9
				C1037.7,502.2,1037.7,505.2,1039.7,505.2L1039.7,505.2z"/>
		
	
	
		
			<path id="XMLID_875_" d="M1044.4,514.3c2.1-1,4-2.3,6-3.5c1.8-1.1,3.7-1.9,5.4-3.1c1.5-1.1,0.1-3.7-1.5-2.6
				c-1.7,1.2-3.6,2.1-5.4,3.1c-2,1.2-3.9,2.5-6,3.5C1041.2,512.6,1042.7,515.2,1044.4,514.3L1044.4,514.3z"/>
		
	
	
		
			<path id="XMLID_868_" d="M1063.4,505.3c-2.4-2.2-3.7-5-5.5-7.7c-1.8-2.9-3.7-5.4-4.7-8.8c-0.5,0.6-1,1.3-1.4,1.9
				c1.4,0,3.5,1.7,4.8,2.3c2.1,1,4.3,1.7,6.2,2.9c2.8,1.8,5.1,4,8.4,5.1c0.8,0.2,1.7-0.3,1.8-1c1.7-6.6-9.1-10.5-9.8-16.3
				c-0.2-1.9-3.2-1.9-3,0c0.4,3.1,2.5,5.3,4.5,7.6c1.4,1.6,6,5.5,5.4,7.9c0.6-0.3,1.2-0.7,1.8-1c-4-1.3-7-4.7-10.8-6.4
				c-2.7-1.2-6.4-4.1-9.4-4c-0.9,0-1.7,0.9-1.4,1.9c1.1,3.6,3.1,6.3,5,9.5c1.8,3,3.3,5.9,5.9,8.3
				C1062.7,508.7,1064.8,506.6,1063.4,505.3L1063.4,505.3z"/>
		
	
	
		
			<path id="XMLID_861_" d="M1065.2,475.3c0.1,4.1,3.1,6.7,5,10c2.6,4.5,5.1,9.4,7.2,14.1c0.8,1.8,3.4,0.2,2.6-1.5
				c-1.7-3.9-3.9-7.6-5.8-11.4c-1.6-3.3-5.9-7.4-6-11.2C1068.1,473.4,1065.1,473.4,1065.2,475.3L1065.2,475.3z"/>
		
	
	
		
			<path id="XMLID_854_" d="M1065.7,478.5c3.9,0,16.2-2.2,16.4,4c0.1,2.7-2.2,5.7-3.3,8.1c-1.2,2.4-1.7,4.8-2.5,7.3
				c-0.6,1.8,2.3,2.6,2.9,0.8c1.4-4.2,3.3-8.1,4.9-12.2c1.1-2.9,1.5-5.7-0.4-8.3c-1.2-1.7-2.9-2.6-5-2.7c-4.2-0.4-8.7,0-12.9,0
				C1063.7,475.5,1063.7,478.5,1065.7,478.5L1065.7,478.5z"/>
		
	
	
		
			<path id="XMLID_847_" d="M1095.7,466.2c-2.9,0-8.1-1.1-10.7,0.6c-2.2,1.4-2.1,4.2-1.2,6.3c1.3,2.8,4,4.6,6.6,6
				c2.2,1.1,5.4,1.5,4.6,4.7c-0.9,3.5-4.4,3.7-7.4,3.7c-1.9,0-1.9,3,0,3c3,0,6-0.2,8.3-2.4c2.1-2.1,3.2-5.3,1.9-8.1
				c-1.3-2.7-4.5-2.8-6.9-4.1c-2.3-1.3-7.3-5.1-2.4-6.8c1.7-0.6,5.3,0.1,7.1,0.1C1097.6,469.2,1097.6,466.2,1095.7,466.2
				L1095.7,466.2z"/>
		
	
	
		
			<path id="XMLID_840_" d="M1114.6,452.1c2.2,2.6,3.4,6.6,5,9.6c1.8,3.6,3.8,7,5.4,10.7c0.8,1.8,3.4,0.2,2.6-1.5
				c-1.8-4.1-4.1-8-6.1-12.1c-1.5-2.9-2.6-6.4-4.8-8.9C1115.5,448.5,1113.3,450.6,1114.6,452.1L1114.6,452.1z"/>
		
	
	
		
			<path id="XMLID_833_" d="M1110.7,457.4c2.8-2.5,6.1-4.2,9.5-5.8c2.9-1.4,6.2-3.6,9.2-4.4c1.9-0.5,1.1-3.4-0.8-2.9
				c-3.3,0.9-6.8,3.2-9.9,4.7c-3.6,1.8-7.1,3.6-10.1,6.3C1107.2,456.6,1109.3,458.7,1110.7,457.4L1110.7,457.4z"/>
		
	
	
		
			<path id="XMLID_826_" d="M1131.5,444.3c0,5.6,0,12.6,3.9,17.2c2.9,3.5,8.8,3,11.6-0.5c2.7-3.6,1.4-9.7-0.2-13.4
				c-2.6-5.7-7.8-7.3-13.7-7.5c-1.9,0-1.9,3,0,3c4,0.1,8,0.7,10.3,4.4c1.6,2.5,2.6,6.6,2,9.5c-0.6,2.9-4.3,5.4-7.2,3.1
				c-1.4-1.1-2.1-3.5-2.6-5.1c-1-3.5-1-7.1-1-10.7C1134.5,442.4,1131.5,442.4,1131.5,444.3L1131.5,444.3z"/>
		
	
	
		
			<path id="XMLID_819_" d="M1140.9,441c2.8,1.6,4.2,4.3,6.1,6.8c1.9,2.5,4,4.9,6.3,7c1.4,1.3,3.5-0.8,2.1-2.1
				c-2.8-2.6-5.2-5.5-7.4-8.6c-1.6-2.3-3.2-4.2-5.6-5.6C1140.8,437.4,1139.2,440,1140.9,441L1140.9,441z"/>
		
	
	
		
			<path id="XMLID_812_" d="M1141,442.5c6.6-0.6,11.1,6.1,17.8,5.9c0.7,0,1.2-0.5,1.4-1.1c1.1-3.3-1.6-6.5-3.6-8.9
				c-3.8-4.6-7.3-9.4-11.3-13.8c-1.3-1.4-3.4,0.7-2.1,2.1c3.3,3.7,6.1,7.6,9.3,11.4c1.6,2,5.8,5.6,4.8,8.4c0.5-0.4,1-0.7,1.4-1.1
				c-6.6,0.2-11-6.5-17.8-5.9C1139.1,439.7,1139.1,442.7,1141,442.5L1141,442.5z"/>
		
	
	
		
			<path id="XMLID_805_" d="M1173.6,417.9c-0.8,3.5-2.7,6.4-2.7,10.2c0,2.2,0.5,4.2,1.3,6.2c1,2.5,2.8,7.9,6.2,7.5
				c0.7-0.1,1.2-0.4,1.4-1.1c2-5.1,4.1-14.4,1.7-19.6c-2.1-4.6-7-4.3-11.1-6.1c-1.8-0.8-3.3,1.8-1.5,2.6c3.1,1.4,7.8,1.3,9.6,4.5
				c2.4,4.4,0.1,13.4-1.6,17.8c0.5-0.4,1-0.7,1.4-1.1c-1.7,0.2-3.7-6.1-4-7.3c-1.3-5,1.1-8.2,2.1-12.8
				C1176.9,416.9,1174,416,1173.6,417.9L1173.6,417.9z"/>
		
	
	
		
			<path id="XMLID_798_" d="M1182.2,415c-0.1,4.4,2,7.6,4,11.4c2.6,5.2,4.5,10.7,6.9,16c0.8,1.8,3.4,0.2,2.6-1.5
				c-1.9-4.2-3.5-8.6-5.4-12.8c-1.9-4.3-5.2-8.3-5.1-13.1C1185.2,413.1,1182.2,413.1,1182.2,415L1182.2,415z"/>
		
	
	
		
			<path id="XMLID_791_" d="M1184.1,418.7c3.6-2.9,8-2.8,10.4,1.4c0.4,0.7,2.6,5.2,2,6.1c-1.3,2.2-8.4,1.1-10.7,1.3
				c-1.1,0.1-2.2,1.6-1.1,2.6c6,4.9,16.6,3.8,23.7,3.7c1.9,0,1.9-3,0-3c-6,0.1-16.5,1.4-21.5-2.8c-0.4,0.9-0.7,1.7-1.1,2.6
				c6.2-0.7,15.8,1.1,12.9-8c-2.5-8.1-9.6-11.8-16.7-6C1180.4,417.8,1182.6,419.9,1184.1,418.7L1184.1,418.7z"/>
		
	
	
		
			<path id="XMLID_784_" d="M1211.6,424.9c-2.1-2.9-4.4-5.6-6.9-8.2c-1.4-1.5-3.2-2.8-4.3-4.5c-1.2-1.7-2.5-3.7,0.4-3.2
				c3.9,0.6,9.1,1.1,9.8,5.6c0.6,4.3,0,8.6,1,12.9c0.4,1.9,3.3,1.1,2.9-0.8c-1.1-5,1.1-12.9-2.4-17.2c-1.5-1.7-4.1-2.1-6.2-2.5
				c-2.2-0.3-4.7-1.5-7-1.3c-4.1,0.4-3,4.5-1.6,7.1c1.1,2.1,2.9,3.6,4.6,5.2c2.6,2.6,5.1,5.4,7.3,8.4
				C1210.2,428,1212.8,426.5,1211.6,424.9L1211.6,424.9z"/>
		
	
	
		
			<path id="XMLID_777_" d="M1210.9,397.4c1.6,4,3.7,7.6,5.6,11.4c1.8,3.5,2.4,7.7,4.5,11c1,1.6,3.6,0.1,2.6-1.5
				c-1.8-2.9-2.4-6.5-3.8-9.6c-1.9-4.1-4.4-7.9-6-12.1C1213.1,394.8,1210.2,395.6,1210.9,397.4L1210.9,397.4z"/>
		
	
	
		
			<path id="XMLID_770_" d="M1209.2,391.7c0-0.9,0-1.8,0-2.7c0-0.8-0.7-1.5-1.5-1.5c-0.8,0-1.5,0.7-1.5,1.5c0,0.9,0,1.8,0,2.7
				c0,0.8,0.7,1.5,1.5,1.5C1208.5,393.2,1209.2,392.5,1209.2,391.7L1209.2,391.7z"/>
		
	
	
		
			<path id="XMLID_763_" d="M1031.5,531.7c0.2,2.7,1.9,4.9,3,7.3c1.5,3.1,3.3,6,5.6,8.6c3.5,4,8.1,1.6,11.3-1.5
				c1.4-1.3-0.7-3.5-2.1-2.1c-1.3,1.2-2.8,2.6-4.6,2.7c-2,0.1-3.9-3.1-5.1-4.8c-1-1.4-1.7-2.9-2.5-4.4c-0.8-1.7-2.5-3.9-2.6-5.8
				C1034.4,529.7,1031.4,529.7,1031.5,531.7L1031.5,531.7z"/>
		
	
	
		
			<path id="XMLID_756_" d="M1037.8,543c2.6-1.8,4.6-4.3,5.9-7.2c0.8-1.7-1.8-3.3-2.6-1.5c-1.1,2.4-2.6,4.6-4.8,6.1
				C1034.7,541.5,1036.2,544.1,1037.8,543L1037.8,543z"/>
		
	
	
		
			<path id="XMLID_749_" d="M1033.4,534.1c1.1-0.9,2.3-1.5,3.6-2c1.3-0.5,2.6-1.5,4-1.5c1.9-0.1,1.9-3.1,0-3c-1.9,0.1-3.4,1-5.1,1.7
				c-1.7,0.7-3.2,1.6-4.7,2.7C1029.8,533.1,1031.9,535.3,1033.4,534.1L1033.4,534.1z"/>
		
	
	
		
			<path id="XMLID_742_" d="M1051.9,528.1c1.7,1.9,2.8,4.1,4,6.3c1,1.9,2.8,3.7,2.9,6c0.1,1.9,3.1,1.9,3,0c-0.2-2.7-1.6-4.5-2.9-6.7
				c-1.6-2.6-2.8-5.3-4.8-7.7C1052.8,524.5,1050.7,526.6,1051.9,528.1L1051.9,528.1z"/>
		
	
	
		
			<path id="XMLID_735_" d="M1047,533.8c0.6-0.9,1.5-1.4,2.3-2.1c1.1-0.9,2-2.1,3-3.2c1.7-1.9,3.9-2.7,5.8-4.4
				c1.4-1.3-0.7-3.4-2.1-2.1c-1,0.9-2.3,1.3-3.3,2.1c-1.1,0.8-2.1,1.8-3,2.9c-1.6,1.9-3.8,3.3-5.3,5.3
				C1043.2,533.8,1045.8,535.3,1047,533.8L1047,533.8z"/>
		
	
	
		
			<path id="XMLID_728_" d="M1069.9,521.4c3.7,4.1,5.4,9.5,7.8,14.4c0.9,1.7,3.4,0.2,2.6-1.5c-2.5-5.1-4.3-10.6-8.2-15
				C1070.8,517.8,1068.6,520,1069.9,521.4L1069.9,521.4z"/>
		
	
	
		
			<path id="XMLID_721_" d="M1066.7,521.8c2.2-0.8,4.6-1.5,6.9-1.7c3.1-0.3,3.8,2,5.1,4.3c1.8,3.4,4.6,8.6-0.8,9.8
				c-1.9,0.4-1.1,3.3,0.8,2.9c6.8-1.6,5.9-7.8,3.4-12.9c-1.2-2.4-2.5-5.7-5.2-6.9c-3.2-1.4-8,0.4-11,1.5
				C1064.1,519.5,1064.9,522.4,1066.7,521.8L1066.7,521.8z"/>
		
	
	
		
			<path id="XMLID_713_" d="M1088.4,527.9c-1.3-3.3-2.6-6.8-4.4-9.8c-2.1-3.5-4.4-5.6-0.3-8.2c3.1-2,7.2-3,9.6-5.9
				c1.3-1.5-0.9-3.6-2.1-2.1c-3.2,3.7-9.3,4.1-12.3,8.1c-1,1.4-1.3,2.7-0.8,4.3c0.5,1.9,2.3,3.5,3.3,5.2c1.7,2.8,3,6,4.1,9.1
				C1086.2,530.5,1089.1,529.7,1088.4,527.9L1088.4,527.9z"/>
		
	
	
		
			<path id="XMLID_702_" d="M1083.8,523c4.6-2.3,9.3-4.5,13-8.2c1.4-1.4-0.8-3.5-2.1-2.1c-3.5,3.5-8,5.6-12.4,7.8
				C1080.5,521.2,1082,523.8,1083.8,523L1083.8,523z"/>
		
	
	
		
			<path id="XMLID_695_" d="M1089.8,529.6c3.3-1.8,6.3-4.2,9-6.9c1.4-1.4-0.8-3.5-2.1-2.1c-2.5,2.5-5.2,4.7-8.4,6.4
				C1086.5,528,1088.1,530.6,1089.8,529.6L1089.8,529.6z"/>
		
	
	
		
			<path id="XMLID_689_" d="M1108,496.5c-3.9-0.1-8-1-10.8,2.2c-2,2.3-3.3,6.2-1.6,9c2,3.4,7,4.1,10.5,4.1c2.7,0,5.4-0.5,4.1,3
				c-1.1,3.1-2.6,5.6-5.6,7.2c-1.7,0.9-0.2,3.5,1.5,2.6c3.8-1.9,10.1-9.9,7.4-14.5c-1.5-2.7-4.9-1.3-7.4-1.3c-1.6,0-3.9,0.1-5.2-0.8
				c-1.6-0.2-2.1-1.2-1.8-3.1c-1.1-1.7-0.9-3.2,0.6-4.5c2.1-1.8,5.8-1,8.3-0.9C1109.9,499.6,1109.9,496.6,1108,496.5L1108,496.5z"/>
		
	
	
		
			<path id="XMLID_683_" d="M1125.5,491.7c-0.1,2.8,0.5,5.4,1.7,8c0.7,1.4,1.5,2.8,2.2,4.2c0.5,1.1,1.1,3,2,3.9
				c1.2,1.1,2.7,0.8,3.9-0.1c2.3-1.6,4.2-4.3,6.2-6.3c1.4-1.4-0.8-3.5-2.1-2.1c-1.5,1.4-2.9,2.9-4.3,4.4c-0.2,0.2-1,1.4-1.3,1.5
				c-0.6,0.1-0.9-1.1-1.2-1.7c-1.8-4-4-7.3-3.9-11.8C1128.5,489.7,1125.5,489.7,1125.5,491.7L1125.5,491.7z"/>
		
	
	
		
			<path id="XMLID_677_" d="M1130.3,499.8c1.5-2.1,4.1-3.1,5.8-5c1.2-1.5-0.9-3.6-2.1-2.1c-1.9,2.2-4.5,3.3-6.2,5.6
				C1126.6,499.8,1129.2,501.3,1130.3,499.8L1130.3,499.8z"/>
		
	
	
		
			<path id="XMLID_671_" d="M1125.7,493.8c2.6-0.2,4.7-1.8,6.4-3.8c1.2-1.5-0.9-3.6-2.1-2.1c-1.1,1.3-2.5,2.7-4.3,2.9
				C1123.8,491,1123.7,494,1125.7,493.8L1125.7,493.8z"/>
		
	
	
		
			<path id="XMLID_665_" d="M1123.1,489.6c2.9-2.1,4.5-5.1,7-7.6c1.3-1.4-0.8-3.5-2.1-2.1c-2.2,2.3-3.8,5.2-6.4,7.1
				C1120,488.2,1121.5,490.8,1123.1,489.6L1123.1,489.6z"/>
		
	
	
		
			<path id="XMLID_658_" d="M1139.7,477.6c-1.9,3.7-5.2,8.3-4.1,12.7c1,3.8,5.1,6.2,8.3,7.9c2.4,1.2,6.1,3.4,8.7,1.6
				c1.3-0.9,1.6-2.6,1.8-4c0.4-2.8,0.8-5.5,1.3-8.2c0.4-1.9-2.5-2.7-2.9-0.8c-0.5,2.5-0.7,5.2-1.3,7.7c-0.6,2.5-0.9,3.4-3.5,2.4
				c-1-0.4-2-0.9-3-1.4c-2.4-1.3-5.9-3-6.6-5.9c-0.8-3.5,2.3-7.5,3.8-10.4C1143.2,477.4,1140.6,475.9,1139.7,477.6L1139.7,477.6z"/>
		
	
	
		
			<path id="XMLID_651_" d="M1159.1,478.4c-3.5-1.9-9.1-5-11.3,0.3c-2,4.8,1.5,11.1,5.9,13.2c4.5,2.1,9.8-1.2,11.2-5.6
				c1.7-5.6-3.3-6.7-7.2-8.5c-1.7-0.8-3.3,1.8-1.5,2.6c1.6,0.8,5,1.3,5.9,3c0.8,1.6-0.7,3.8-1.8,4.8c-1.3,1.2-3.2,1.9-4.9,1.3
				c-2.9-1-5.3-4.8-5.2-7.8c0.1-5,4.9-1.8,7.3-0.6C1159.3,481.9,1160.8,479.3,1159.1,478.4L1159.1,478.4z"/>
		
	
	
		
			<path id="XMLID_644_" d="M1157.9,471.4c3.5,3.2,6.6,6.8,10.3,9.9c2,1.7,5,4,7.7,2.5c5.1-3,2.1-13.1-0.6-16.5
				c-1.2-1.5-3.3,0.6-2.1,2.1c1.5,1.9,4.4,14.6-1.4,10.9c-4.5-2.9-7.9-7.4-11.8-11C1158.6,468,1156.5,470.1,1157.9,471.4
				L1157.9,471.4z"/>
		
	
	
		
			<path id="XMLID_583_" d="M1187.6,468.9c-2.8-5.2-7.5-8.8-11.6-13c-1.4-1.4-3.5,0.7-2.1,2.1c3.9,4,8.4,7.4,11.1,12.4
				C1186,472.1,1188.5,470.6,1187.6,468.9L1187.6,468.9z"/>
		
	
	
		
			<path id="XMLID_582_" d="M1166.1,462.7c1.5-1.4,4.1-1.9,6-2.6c1.7-0.7,3.5-1.2,5.2-1.8c2.7-0.8,5.3-1.6,7.4-3.6
				c1.4-1.3-0.7-3.4-2.1-2.1c-4.9,4.6-13.7,3.4-18.7,8C1162.5,461.9,1164.7,464,1166.1,462.7L1166.1,462.7z"/>
		
	
	
		
			<path id="XMLID_581_" d="M1185,462.5c2.2,0,5.1,3.6,6.5,5.2c1.5,1.7,2.3,3.9,4.6,4.5c0.5,0.1,1.1,0,1.5-0.4
				c2.2-2.3,2.9-5.6,5.2-7.7c1.4-1.3-0.7-3.5-2.1-2.1c-2.3,2.2-3,5.5-5.2,7.7c0.5-0.1,1-0.3,1.5-0.4c-1.1-0.3-1.8-2-2.6-2.9
				c-1.1-1.3-2.3-2.4-3.5-3.6c-1.7-1.6-3.4-3.3-5.9-3.3C1183.1,459.5,1183.1,462.5,1185,462.5L1185,462.5z"/>
		
	
	
		
			<path id="XMLID_580_" d="M1192.7,467.4c1.1-0.9,1.7-2.1,2.4-3.3c0.8-1.3,1.9-2.3,3-3.3c1.4-1.4-0.7-3.5-2.1-2.1
				c-1.1,1-2.2,2-3,3.3c-0.8,1.2-1.2,2.5-2.3,3.4C1189.2,466.5,1191.3,468.7,1192.7,467.4L1192.7,467.4z"/>
		
	
	
		
			<path id="XMLID_578_" d="M1186.7,462.1c2.1-1.9,2.6-4.8,4.7-6.7c1.5-1.3-0.7-3.4-2.1-2.1c-2.1,1.9-2.6,4.8-4.7,6.7
				C1183.1,461.2,1185.3,463.3,1186.7,462.1L1186.7,462.1z"/>
		
	
	
		
			<path id="XMLID_565_" d="M1194.2,451c4.7,2.4,8.3,7.1,12.3,10.5c1.7,1.4,4.2,3.2,6,0.9c1.4-1.7,0.8-4.6,0.3-6.5
				c-1-4-4.1-6.8-5.9-10.4c-0.9-1.7-3.5-0.2-2.6,1.5c0.7,1.4,8.4,12.1,5.5,12.8c-1.6,0.4-6.1-5-7.2-6c-2.1-2.1-4.2-4.1-6.9-5.5
				C1194,447.5,1192.5,450.1,1194.2,451L1194.2,451z"/>
		
	
	
		
			<path id="XMLID_40_" d="M1224.7,455.3c-2-1.7-14.3-10.1-12.7-12.1c0.8-0.9,3.1-0.7,4.3-0.7c2.1-0.1,4.6-0.7,4.7,1.9
				c0.1,2.4-3.3,4.6-4.6,6.6c-0.3,0.5-0.2,1.4,0.2,1.8c2.2,1.8,5,1.5,7.7,0.9c3.3-0.7,7.2-1.6,10-3.4c1.6-1,0.1-3.6-1.5-2.6
				c-2.3,1.5-11.6,5-14.1,3c0.1,0.6,0.2,1.2,0.2,1.8c2.2-3.3,7.3-6.3,4.7-10.8c-2.3-3.9-7.1-2.5-10.9-1.9c-12.8,2,6.9,15.1,9.8,17.6
				C1224.1,458.6,1226.2,456.5,1224.7,455.3L1224.7,455.3z"/>
		
	
	
		
			<path id="XMLID_37_" d="M1236.3,424.2c-5.5,0-14.2,5.5-9.5,11.8c1.9,2.6,5.5,2.6,8.4,2.4c1.3-0.1,3.2-0.5,4.5-0.2
				c2,0.6,1,2-0.2,2.9c-1,0.8-2.7,1-4,1c-1.9-0.1-1.9,2.9,0,3c2.9,0.1,6.3-1.1,7.9-3.6c1.3-2,1.2-4.6-1.1-5.7
				c-2.5-1.3-5.7-0.4-8.4-0.3c-2.4,0-6.5-0.8-5.4-4.3c0.9-2.6,5.3-4.1,7.6-4.1C1238.3,427.2,1238.3,424.2,1236.3,424.2L1236.3,424.2
				z"/>
		
	
	
		
			<path id="XMLID_35_" d="M1047,563.5c6.9-0.5,13.7-4.5,20.2-6.8c7.4-2.6,14.5-5.9,21.6-9.3c14.7-7.1,30-13.1,44.8-20.2
				c13.9-6.7,26.3-14.2,37.5-24.8c5.8-5.4,11.6-10.2,18.7-13.8c7.1-3.7,14.3-7,21.7-10c7-2.9,13.3-7.5,19.9-11.2
				c3.1-1.8,6.6-3.5,9.3-5.9c2.8-2.4,4.7-6.4,8.7-7c1.9-0.3,1.1-3.2-0.8-2.9c-5.3,0.9-7.8,6.4-12,9.2c-6.2,4.1-12.8,7.4-19,11.4
				c-6,3.8-13,6-19.4,9.1c-6.6,3.2-13.3,6.1-19.2,10.5c-5.6,4.1-10.3,9.2-15.5,13.8c-6.1,5.4-12.9,9.6-20,13.4
				c-14.3,7.7-29.2,14-44.1,20.3c-8.8,3.8-17.2,8.4-26.1,12.1c-3.9,1.6-7.8,2.9-11.8,4.3c-4.7,1.7-9.4,4.6-14.4,4.9
				C1045.1,560.6,1045.1,563.6,1047,563.5L1047,563.5z"/>
		
	
</g>
<g id="cemercredi">
	<path id="XMLID_612_" class="st10" d="M482,52c-6.7-0.1-13.8-0.1-20,2.9c-3.5,1.7-4.3,6.7-2.2,9.9c2.1,3.2,8.5,4.4,11.9,4
		c3.1-0.4,9-0.4,11.2-2.8"/>
	<path id="XMLID_606_" class="st10" d="M495,48c-1.8,4.5-3.7,11.2-3.2,16.1c0.3,2.8,1.1,3.2,4,3c2-0.1,4.6-0.7,6.2-2"/>
	<path id="XMLID_605_" class="st10" d="M494,58c2.7,0,5.3,0,8,0"/>
	<path id="XMLID_599_" class="st10" d="M492,49c2.6,0,5.3,0.2,7.8-0.2c1.7-0.3,3.4-1,5.2-0.8"/>
	<path id="XMLID_598_" class="st10" d="M536,76c3.2-3.8,4.7-8.4,6-13.2c0.9-3.2,1.8-6.4,2.8-9.6c0.5-1.7,0.7-5.1,1.8-6.3
		c2.9-3,4.9,4.3,5.8,6.5c1,2.1,2.1,4,2.8,6.2c0.4,1.3,0.4,3.7,1.7,4.5c4.2-2.7,6.2-7.1,9-11.1c1.1-1.6,3.9-7.1,6-7.4
		c1.7,4.8,0.9,10.5,0.9,15.6c0,4,0,7.9,0,11.9"/>
	<path id="XMLID_592_" class="st10" d="M583,48c2.3,2.9,1.7,8.7,2.1,12.1c0.2,1.6,0.6,3.2,0.8,4.8c0.1,1.2-0.3,2.7,0.4,3.9
		c5.9,2,11-6.4,16.7-6.7"/>
	<path id="XMLID_591_" class="st10" d="M586,58c2.8,0.3,10.8-1.1,12-4"/>
	<path id="XMLID_585_" class="st10" d="M581,49c6.8-0.1,13.3-0.8,20-2"/>
	<path id="XMLID_584_" class="st10" d="M616,43c0,6.1,0,12-1.2,18c-1.1,5.6-4.4,11.3-4.8,17"/>
	<path id="XMLID_577_" class="st10" d="M613,46c2.8-1.7,6.1-2.8,9.5-2.1c4.1,0.9,5.3,7.4,5.8,11.1c0.5,3.7-0.2,5.9-4.1,6.7
		c-2.8,0.6-7.2,0.8-9.1-1.7c3-0.1,6.9,2.8,9.4,4.4c3.3,2.1,5,4.6,7.5,7.5"/>
	<path id="XMLID_570_" class="st10" d="M653,46c-3.5,0-9.5-4.2-12.7-2.5c-4,2.2-3.4,10.6-3.3,14.5c0,2.3-0.3,4.1,1.1,6.1
		c1.5,2.1,2.8,1.6,4.9,2.1c1.7,0.4,3.2,1.2,5,0.7c2.6-0.8,3.8-3.8,5-5.9"/>
	<path id="XMLID_563_" class="st10" d="M666,42c-0.8,9.5-6.2,18.5-7,28"/>
	<path id="XMLID_556_" class="st10" d="M662,45c4.5-2.4,9.6-3.6,12.4,1.6c1.7,3,2.6,7.1,3.2,10.4c0.7,3.9-4.7,3.8-7.7,4.3
		c-1.6,0.3-6.8,1.9-8.2,0.3c-1.8-2.3,1.6-2.2,2.9-1.7c3,1.2,5.8,3.6,7.7,6c1.6,2,4,3.1,5.6,5.1"/>
	<path id="XMLID_549_" class="st10" d="M692,40c-1.6,3.6-0.8,7.4-1.2,11.2c-0.3,2.4-2.2,8.5-0.8,10.8c2.1,3.6,8.7-2.9,12-3"/>
	<path id="XMLID_542_" class="st10" d="M689,52c2.1-0.8,4.1-1.5,6.1-2.5c1.8-0.9,4.3-1.2,5.9-2.5"/>
	<path id="XMLID_535_" class="st10" d="M689,38c5.7,0,11.3,0,17,0"/>
	<path id="XMLID_528_" class="st10" d="M715,41c0.4,4-1.2,8.8-1.7,12.7c-0.8,5.5-1.3,10.8-1.3,16.3"/>
	<path id="XMLID_521_" class="st10" d="M715,42c3,1.5,8.6,3.2,10.8,5.8c1.6,1.9,2.5,5.9,3.2,8.2c0.7,2.4,1.6,5.5,1.5,8.1
		c0,5-3.3,6.1-7.6,7.2c-3.1,0.8-7.9,2-10-1.3"/>
	<path id="XMLID_514_" class="st10" d="M742,46c0,7.4,0.3,14.7-1,22"/>
	<path id="XMLID_507_" class="st10" d="M742,37c-0.8-0.8-1.8-1.2-3-1"/>
	<path id="XMLID_500_" class="st10" d="M788,38c-3.6,1.5-6.6,3.9-9.9,6c-2.3,1.5-6.4,2.7-7.8,5.1c3.4,2.1,11.6,1.3,15.7,1
		c4.7-0.4,9.2-1.1,14-1.1"/>
	<path id="XMLID_493_" class="st10" d="M793,45c-1.1,1.4-2.1,3.7-3,5.2c-1,1.8-1.9,3.7-2.7,5.5C786,58.3,784,65.6,781,66"/>
	<path id="XMLID_486_" class="st10" d="M813,64c3.4-4.7,5.1-9.6,7-15c0.9-2.6,2.1-5.1,2.8-7.8c0.4-1.7,0.2-4.3,2.2-4.9
		c1.8,3,2,7.8,2,11.2c0,2.5-0.8,6.6,0.1,8.9c1.9-4.8,4-8.4,6.7-12.8c1.2-1.8,2.6-6.9,5.2-6.7c2.3,2.6,0.9,9.5,0.9,12.5
		c0,3.2,0,6.4,0,9.5"/>
	<path id="XMLID_479_" class="st10" d="M849,61c-0.1-5.5,1.4-10,4-14.9c1.1-2.1,5.5-11.4,8.4-7.7c1,1.3,1.2,4.3,1.7,5.8
		c0.6,2.1,1.2,4.1,1.6,6.3c0.4,2.5,1.6,8.4-0.5,10.5"/>
	<path id="XMLID_472_" class="st10" d="M850,54c2.8-1.6,4.9-2.2,8-3c1.9-0.5,4.5-0.6,6-2"/>
	<path id="XMLID_464_" class="st10" d="M878,42c2.1,7,1.3,14.9,0,22"/>
	<path id="XMLID_456_" class="st10" d="M875,38c0-0.7,0-1.3,0-2"/>
	<path id="XMLID_448_" class="st10" d="M911,61c4.3-3.2,5.6-6.2,7-11.2c0.8-2.7,1-7.7,2.9-9.9c3.2,0.9,5.3,8.4,6.6,11.2
		c1.2,2.6,2.4,7.1,4.5,9"/>
	<path id="XMLID_440_" class="st10" d="M916,52c3.9,0.1,8.1-1.5,12-1"/>
	<path id="XMLID_432_" class="st10" d="M914,28c3.5,3.1,7.9,4.9,12,7"/>
	<path id="XMLID_423_" class="st10" d="M958,53c2.4-3.9,4.8-7.4,8.7-9.8c1.7-1.1,3.5-1.9,5.1-3.2c1.8-1.4,3.2-3.8,5.3-4.9
		c3,1.4,1.1,7.8,0.7,10.1c-0.7,3.9-2.2,7.5-3.1,11.3c-0.9,3.8-1.7,7.6-1.7,11.5"/>
	<path id="XMLID_415_" class="st10" d="M993,67c-3.1-1.4-9.5-6.2-9.9-10c-0.5-4.6,10.8-7.5,13.9-9c3.5-1.7,11.1-4.6,8.1-9.3
		c-2.1-3.3-5.9-5.9-9.6-4.6c-11,3.7,0.2,12.4,3.9,17.4c1.5,2,3.1,6.1,2.5,8.5c-0.7,3.1-6.7,8.1-10,8"/>
	<path id="XMLID_407_" class="st10" d="M1019,36c0.2,1.7-0.6,2.9-1.3,4.3c-1.7,3-3.3,6-4.7,9.1c-1.5,3.3-2.1,7.5-3.9,10.5"/>
	<path id="XMLID_399_" class="st10" d="M1029,39c-0.2,4.6-3.1,9-5,13.1c-1.3,2.7-2.5,6-5,7.9"/>
	<path id="XMLID_391_" class="st10" d="M1013,52c4.7,0,9.3-1.1,14-1"/>
	<path id="XMLID_383_" class="st10" d="M456,91c6.9-0.1,13.8,0.4,20.8,0.8c16.9,0.9,34,0.2,50.9,0.2c25.3,0,50.9-1.2,76.2,0.2
		c23.1,1.3,46.2,2.9,69.3,2.8c14,0,28,0.5,41.9-0.6c15.4-1.2,30.9-2.2,46.3-3.5c25.5-2,51.2-4.8,76.8-5c24.5-0.2,49-1,73.5-1
		c14.3,0,28.5,0.7,42.7-1.2c13-1.7,25.8-3,39-3.6c13.9-0.6,27.7-1.2,41.7-1.2"/>
	<path id="XMLID_374_" class="st10" d="M528.3,115c1,1.1,0.7,2.6,0.7,4c0,2.7,0,5.3,0,8c0,4.7,0.8,9.3,0.7,14"/>
	<path id="XMLID_366_" class="st10" d="M527,115c2.5,1.3,4,1.5,6.8,1.4c2.9-0.1,6.1-1.5,8.9-1.3c2.3,0.2,4.1,2.5,5.7,4
		c2.4,2.2,4.7,5.3,5.3,8.6c0.8,4.7-8,5.6-10.8,6.6c-4.2,1.5-8.6,4.3-13.2,4.7"/>
	<path id="XMLID_358_" class="st10" d="M560.3,117.7c0,2.9,0,5.8,0,8.7c0,1.4-0.8,5.5,0.2,6.7c1.2,1.5,3.4-0.2,4.5-0.9
		c1.8-1.1,3.6-2,5.6-2.9c1-0.5,2.3-0.8,3.1-1.7"/>
	<path id="XMLID_350_" class="st10" d="M558.3,123.7c1.1-1.1,3.9-0.9,5.4-1.2c1.4-0.2,2.6-0.5,4-0.8"/>
	<path id="XMLID_343_" class="st10" d="M560.3,118.3c2.3,0.1,4.5-1.5,6.6-2.3c1.3-0.5,2.8-1.5,4.1-1.7"/>
	<path id="XMLID_336_" class="st10" d="M579,115.7c0.7,2.9,1.3,5.9,2,8.8c0.7,3.1,1,6.6,2.8,9.2c2.7,0.4,2.4-8.4,2.5-9.7
		c0.3-3.4,1.1-6.9,1.3-10.3"/>
	<path id="XMLID_328_" class="st10" d="M596.3,131.7c0-3.6-0.1-7,0.7-10.6c0.3-1.4,0.7-7.1,2-7.8c3.4-1.6,9.8,16.8,9.3,20.3"/>
	<path id="XMLID_321_" class="st10" d="M596.3,124.3c2.3,0,6.1,0.4,8-1.3"/>
	<path id="XMLID_314_" class="st10" d="M617,136.3c-0.3-3.8-1.6-7.5-2-11.3c-0.3-2.3-1.6-6.6-0.4-8.8c1.2,0.2,1.8,1.2,2.5,2.1
		c1.8,2.2,3.5,4.3,5.3,6.5c1.4,1.7,2.8,3.4,3.9,5.3c0.5,0.8,1.1,2.6,2.2,2.8c2.5-2.4,2.1-6.5,2.4-9.8c0.2-2.3,0.1-4.5,0.1-6.7"/>
	<path id="XMLID_291_" class="st10" d="M645,113.7c-1,3.9-0.7,8-0.7,12c0,3.7,1.1,7,1.4,10.6"/>
	<path id="XMLID_283_" class="st10" d="M635,117.7c5.9-5.9,16.1-1.5,22-7.3"/>
	<path id="XMLID_312_" class="st10" d="M684.3,117c0,3.5,0,6.9,0,10.4c0,2,0.1,3.9,0.3,5.9c0.1,0.6,0.1,2.7,0.6,3.2
		c1.4,1.3,4.1-1.4,5.2-2c2-1.1,5.5-2.7,7.9-2.8"/>
	<path id="XMLID_334_" class="st10" d="M699,117.7c0.3,3.2,1.3,6.3,1.7,9.6c0.3,2.7,0.2,6.5,1.2,8.9c1.3,0.5,4-1.7,5.1-2.2
		c2-1,4-2,6-3"/>
	<path id="XMLID_354_" class="st10" d="M702.3,126.3c2.5-0.5,6.6-1,8.7-2.7"/>
	<path id="XMLID_361_" class="st10" d="M699.7,119.7c4.7-0.3,9.2-2.2,14-2.7"/>
	<path id="XMLID_368_" class="st10" d="M744.3,113c-2.3,5.6,0.8,12.7,0.7,18.7"/>
	<path id="XMLID_375_" class="st10" d="M741.7,111.7c4.6,0,11.7-1.5,12.7,4.7c0.9,5.7-7.7,4.8-11.4,4.6c5.5,0,10.5,0.8,15.4,3.4"/>
	<path id="XMLID_382_" class="st10" d="M764.3,131c0.2-4.5-1-9-1.5-13.5c-0.2-1.9-1.6-6.2,0.5-7.6c3.6-2.3,8.4,7.8,9.4,9.7
		c1.2,2.5,2.5,4.9,3.8,7.4c0.7,1.3,1,2.9,1.9,4"/>
	<path id="XMLID_389_" class="st10" d="M761,121c2.5,0,4.8-0.4,7.3-0.7c2.1-0.3,4.6-1.6,6.7-1.3"/>
	<path id="XMLID_396_" class="st10" d="M786.3,134.3c0.1-4.4-0.5-8.8-1.3-13.2c-0.4-2.3-1.8-5.5-1.4-8c3.1,2.1,12.2,20.3,15.8,17.2
		c2.2-1.9,2.4-5.5,2.6-8.1c0.1-2-0.1-3.9-0.7-5.9c-0.4-1.3-1.1-2.7-1-4.1"/>
	<path id="XMLID_403_" class="st10" d="M807.7,113c0.4,4.9,1.5,10,2.7,14.7c0.5,1.9,1.5,4,1.3,5.9"/>
	<path id="XMLID_410_" class="st10" d="M807,113c2.9,0,6.1-0.5,8.8,0.4c4.3,1.5,5.9,5,6.1,9.3c0.1,1.7,0.3,4.6-0.4,6.2
		c-0.5,1-1.5,1.6-2.2,2.4c-1.3,1.4-2,2.7-3.7,3.7c-2.2,1.4-5,1.8-6.6,4"/>
	<path id="XMLID_417_" class="st10" d="M839,130.3c-2.2,0-3,0-4.8-1.3c-2.3-1.7-4.5-3.7-6.2-6.1c-2.1-3-4.3-8.6,0.4-10.6
		c1.7-0.7,4.9-0.3,6.4,0.3c2.1,0.8,3.8,2.6,5.1,4.4c1.1,1.4,3.9,5,3.8,7c-0.1,1.9-2.8,4.4-4.1,5.5"/>
	<path id="XMLID_424_" class="st10" d="M847.7,115.7c2.5,2.5,2.8,7.8,3.4,11c0.6,3.8,0.7,8,2,11.6"/>
	<path id="XMLID_431_" class="st10" d="M848.3,118.3c2.2,1.9,4.6,3.6,6.9,5.3c1.5,1.1,3.9,4,5.7,4.3c-0.1-4.1-1.8-7.7-1.6-11.9
		c0.1-1.5-0.3-6.5,2.5-4.4c1.9,1.4,2.9,4.2,3.8,6.3c1,2.4,2.1,4.7,3.2,7c1.3,2.8,2.2,6.3,2.8,9.3"/>
	<path id="XMLID_438_" class="st10" d="M902,108c0,0,0,6.7,0,9.9c0,3,0.2,5.9,0.2,8.9c0,1.7,0,3.3-0.1,5c0.6,3.9,6.5,0.6,8.2-0.1
		c4.2-1.7,8.2-3.8,12.4-5.4"/>
	<path id="XMLID_445_" class="st10" d="M927.7,129c-1.9-3.5-2.1-9.6-0.7-13.4c0.7-1.8,1.9-3.4,2.8-5.2c0.7-1.5,1-2.3,2.6-2.8
		c4.3-1.6,6,5.4,6.8,8.3c0.5,2.1,1.1,4.3,1.5,6.4c0.3,1.5,0.1,1.9-0.2,3.4"/>
	<path id="XMLID_452_" class="st10" d="M924.3,117c2.4-0.4,4.8-0.8,7.2-1.2c2-0.3,5.1-0.2,6.8-1.5"/>
	<path id="XMLID_459_" class="st10" d="M946.3,105.7c-0.1,7.9,0.5,16.2,2,24"/>
	<path id="XMLID_466_" class="st10" d="M945.7,111c2.9-1.1,6.3-1.8,9.4-2c1-0.1,2.9-0.4,3.9,0.2c1.7,1,1.6,3.8,1.4,5.5
		c-0.3,3-0.8,4.5-4,5c-2,0.3-4.3,0-6.3,0c3.2,0,6.5-0.3,9.6,0.6c2,0.6,3.1,2.5,3.4,4.7c0.4,2.9-2.4,3.6-4.7,4.2
		c-2.1,0.5-5.2,1.4-7.3,1.1"/>
</g>
</svg>
