<?xml version="1.0" encoding="utf-8"?>
<!-- Generator: Adobe Illustrator 19.0.0, SVG Export Plug-In . SVG Version: 6.00 Build 0)  -->
<svg version="1.1" xmlns="http://www.w3.org/2000/svg" xmlns:xlink="http://www.w3.org/1999/xlink" x="0px" y="0px"
	viewBox="0 0 1280 800" style="enable-background:new 0 0 1280 800;" xml:space="preserve">
	<style type="text/css">
		.st0{fill:#00FF0C;}
		.st1{fill:none;stroke:#000000;stroke-width:0.5;stroke-miterlimit:10;}
		.st2{fill:none;stroke:#000000;stroke-miterlimit:10;}
		.st3{fill:none;stroke:#FF0000;stroke-width:2;stroke-miterlimit:10;}
		.st4{fill:none;stroke:#FFFFFF;stroke-miterlimit:10;}
		.st5{fill:#FFFFFF;stroke:#000000;stroke-width:3;stroke-miterlimit:10;}
		.st6{fill:none;stroke:#000000;stroke-width:3;stroke-miterlimit:10;}
		.st7{fill:#CCCCCC;stroke:#000000;stroke-width:3;stroke-miterlimit:10;}
		.st8{fill:#EFEFEF;stroke:#000000;stroke-width:3;stroke-miterlimit:10;}
		.st9{fill:#A5A5A5;stroke:#000000;stroke-width:3;stroke-miterlimit:10;}
		.st10{fill:#843232;stroke:#000000;stroke-width:3;stroke-miterlimit:10;}
	</style>
	<g id="salut, c'est samuel, je te parle à travers mon serveur OVH, ce qui est quand même bien pratique.">
		<rect id="yo" width="1280" height="800" style="fill:rgb(255,255,255);"/>
	</g>
	
	<g id="Bon alors en fait j'ai besoin de tester un truc pour mon diplôme. C'est à base de machins sur ton ordinateur qui feraient comme une pièce de théâtre.">
		<path id="XMLID_2_" class="st5" d="M934.1,251.1c2.6-1.7,6-1.7,8.8-2.9c4.3-1.9,8.9-3.8,13-6c4.4-2.4,7-6.7,11.1-9.5
			c3.3-2.3,6.6-4.2,9.6-6.8c2.4-2.1,5.1-3.7,6.7-6.5c2-3.7,1.9-9.1,1.9-13.2c0-9.7-2.5-19-3.2-28.6c-0.4-5.3,1-9,3.1-13.8
			c2.5-5.8,4-11.9,6-17.8c2.9-8.3,6.7-18.1,13-24.4c7.5-7.5,18.7-10.6,29-11.4c12.6-0.9,24.7,1,36.4,6.1c9.2,4.1,19.6,8.8,26.3,16.5
			c4,4.5,4.7,10.9,6.6,16.5c2.5,7.4,5.9,14.6,8.8,21.9c4.5,11.4,5.9,23.9,7.1,36c1.3,12.7,2.9,25.1,0.8,37.8
			c-3.2,19.4-15.7,34.8-30.8,46.5c-4.9,3.8-9,7.8-13.4,12.2c-4.6,4.6-11.9,14.4-19.2,14.7"/>
			<path id="XMLID_8_" class="st6" d="M1115.6,390.6c3.3-1.9,22.7-14.2,18.3-17.9c-3-2.5-10,3.9-11.3,5.9c-3,4.4-1.6,7-1,12l1.5-4.5
				c-5.7-4.4-8.9-12.5-13.3-18.1c-4.8-5.9-10.8-10.6-15.4-16.6c-3.3-4.3-6.7-8.6-8.8-13.7c-1.6-4-3-8-5.3-11.7c-2.5-4-8-14.9-13.2-14
				c-1,0.2-4.4,1.9-5.4,2.6c-2.1,1.4-3.4,6-3,8.5l-19.5,9c0,9.8-3,18.3-5.3,27.8c-3.2,13.4-3.8,27.5-6.1,41.1
				c-2.7,15.5-6.2,31-6.5,46.6c-0.1,6.5-5.2,2.8-9.5,5c-2.4,1.2-8.4,7.5-5.8,10.1c1.7,1.7,9.4-0.7,10.8-1.9c1.4-1.2,4.2-4.8,5.2-6.5
				c1.1-1.9,1.4-3.6-0.7-5.2"/>
				<path id="XMLID_3_" class="st5" d="M477.1,210.6c-16.8-1.1-32.4-9-48.1-14.2c-5.1-1.7-8.7-2.9-12.9-6c-4.5-3.5-6.8-7.3-10.1-12.1
					c-6.5-9.2-12.8-18.3-16-29.2c-1.9-6.6-2.6-13.7-3.3-20.5c-1.1-9.9-2.5-20.6-2.4-30.6c0.1-18.1,11.8-35.8,20.5-51.1
					c2.4-4.3,5-8.3,7.8-12.3c3.3-4.7,7.4-5.7,12-8.9c2.8-1.9,7.1-6.4,10.5-7c3.7-0.6,6.7,3.3,8.7,5.9c1.8,2.4,4.5,4.9,6,7.4
					c2.9,4.8,5,10.3,7.8,15.2c4.3,7.5,13,10.9,17.7,17.8c2.1,3,3.6,7.4,5.6,10.6c2.3,3.6,3.7,7.9,5.2,11.9c3.2,8.4,8.9,15.1,12,23.5
					c1.6,4.3,2,6.2,5.9,9.3c3.9,3,7.5,5,12.1,6.3c8.4,2.3,15.8,5.6,23.7,9.1c2.8,1.2,5.9,1.1,8.8,1.7c3.6,0.7,6.3,2.3,9.6,3.9
					c5,2.5,10.5,4.2,14.9,7.8c6.6,5.4,8,9.6,9.3,17.7c0.7,4.2,2.5,8.1,2.7,12.4c0.3,4.6-0.1,9.3-0.1,13.9c0,4.2,0.4,8.2-2.9,11.4
					c-3.2,3.2-10.1,3.4-14.3,4.1c-7.8,1.2-15.6,0.3-23.4,0.8c-7.6,0.5-14.7,1.4-22.4,1.4c-13.4-0.1-26.8,0-40.3,0c-2.9,0-5.8,0-8.7,0
					c-4.6,0-8.1-0.9-12.5-1.5"/>
					<path id="XMLID_4_" class="st6" d="M442.6,200.1c-6.4,0-12.9,0.2-19.3,0c-5.1-0.1-8.1,1.9-9.3,7.5c-0.6,3.1,0.3,6.9,0.1,10.1
						c-0.3,6.9-3.3,10.3-7.1,15.7c-4.6,6.5-9.5,12.1-13.2,19.2c-1.6,3.1-3.8,5.8-5.3,8.9c-1.2,2.4-1.7,5.1-2.8,7.5
						c-2.6,5.3-6.3,9.5-8.7,15c-0.9,2.1-2.1,4-3.1,6c-1.1,2.5-1.2,5.6-3.3,7.5"/>
						<path id="XMLID_5_" class="st5" d="M381.1,305.1c-4.1-4.9-11.3-8.5-16.6-12.1c-1.4-0.9-3.2-2.4-4.7-3.1c-3.1-1.2-8.1,0.2-8.6,4.3
							c-0.9,6.5,7.7,7.2,11.9,8.2c2.5,0.6,4.8,2.1,7.5,0.9c2.8-1.2,4.6-5.1-0.1-5.8"/>
							<path id="XMLID_6_" class="st6" d="M463.7,209.7c-3,0-6.4-0.6-8.3,2.4c-0.7,1-0.8,2.4-1.1,3.6c-0.5,1.9-1,3.8-1.2,5.8
								c-0.3,3.2-0.1,6.4-0.1,9.6c0,3.4-0.2,6.8,0.1,10.2c0.3,3.6,0.5,7.2,0.5,10.8c0,4.4-0.7,8.6-0.7,13c0,3.9-0.1,7.8,0.3,11.7
								c0.4,3.7,1,7.4,1,11.1c0.1,6.2-0.2,12.4,0.5,18.5c0.2,1.6,0.1,3.2,0.1,4.9c0,1.8,0.5,3.4,0.7,5.2c0.3,2.1,0.4,3.3,0.1,5.4
								c-0.2,1.1-0.1,2.2-0.1,3.3"/>
								<path id="XMLID_12_" class="st5" d="M451,326.3c2.8-1.4,5.2-2.9,8.3-3.3c3.2-0.4,6.7-0.7,9.7,0.6c1.6,0.7,4.5,1.7,5.2,3.5
									c0.8,2.1-0.4,4.4-1.9,5.8c-1.6,1.5-5,3.2-7.3,2.7c-2.1-0.4-4.9-2-6.6-3.3c-1.4-1-1.9-2.1-2.8-3.5c-0.6-0.9-3.4-3.4-2-4.5"/>
									<path id="XMLID_7_" class="st6" d="M527,210.3c-0.5,4.4,3.1,9.3,4.5,13.4c1.4,4.1,3,8.4,3.8,12.7c0.7,3.2,0.3,6.8,0.3,10.1
										c0,2.9-0.3,8.2,2,10.6"/>
										<path id="XMLID_13_" class="st6" d="M536.3,259.7c2.2-2.5,5-4.5,8.1-5.2c2.3-0.5,10,0,8.7,3.8c-2.4,1.3-6.2,1.9-8.9,2.1
											c-1.3,0.1-3.2,0.3-4.5,0c-1.3-0.2-2.2-1.3-3.5-1.4"/>
										</g>
										<g id="ça se fait devant le random lab, ce mercredi 4 Mai, de 18h à 18h30.">
											<path id="XMLID_1043_" class="st7" d="M561.4,458.3c0.2-7-0.8-14.1-1.3-21.1c-0.8-11.4-1.3-22.6-1.3-34c0-16.9,1.3-33.7,1.3-50.5
												c0-7.9,1.2-17.1-0.6-24.9c-0.6-2.6-2.3-5.9-1-8.6c0.9-1.8,4-3,5.6-4c4.4-3,8.3-6.4,12.3-9.9c11.3-9.7,24.5-16.7,36.6-25.3
												c8.8-6.3,17.5-12.7,26.5-18.7c8.8-5.9,17.8-11.5,26.3-17.8c6.3-4.7,12.4-9.9,19.1-14.1c18.1-11.1,11.5-9.4,35.3-29.1
												c6.9-5.7,24.5-10.3,32.3-14.6c3.1-1.7,6.2-3.9,9.7-4.3c12-1.3,25.2,4.3,36.2,8.1c6.8,2.4,27.7,12.9,34.6,15.2
												c3.9,1.3,7.5,2.5,11.1,4.6c3.1,1.9,6.1,3.8,9.4,5.5c7.8,4,16.1,5.8,24.2,8.7c5.2,1.9,10,4.6,15.3,6.3c3.6,1.2,4.6,3.3,5.6,6.9
												c1.6,5.4,1.7,11.6,2.3,17.2c1.1,10.1,1.8,20.3,2.1,30.5c0.8,23.7,0.1,47.5,0.1,71.2c0,12.7,1,25.7,0.1,38.4c-0.3,4.3-7.1,8.4-10,3
												c-1.5-2.8-0.1-8.6-0.1-11.7c0-6.2,0-12.3,0-18.5c0-7.4-0.2-14.9-0.1-22.4c0.2-8,1.6-16,2.3-23.9c1.2-13.6-0.5-27-2.4-40.4
												c-0.5-3.5-2.6-13-6-14.9c-3.5,1.4-6.8,4.1-10.1,5.9c-5.7,3.2-11.9,6.1-17.2,10c-10.7,8.1-21.3,17.3-30.9,26.6
												c-7,6.7-12.9,14.5-19.9,21.3c-10.1,9.8-21.5,17.9-32.6,26.5c-7.7,6-15.7,11.8-22.7,18.7c-1.2,1.2-2.4,2.6-3.8,3.7
												c-1.4,1-3.6,1.3-4.8,2.4c-4.2,3.8-2.7,12.7-2.8,17.8c-0.4,15-1.6,29.9-2.1,44.9c-0.8,24.1-0.4,48.4-0.2,72.6c0,2.7,0.6,6.8-0.8,9.3
												c-1.5,2.7-3.6,2.2-6.5,1.8c-5.8-0.8-10.6,1.2-13.5-5.2c-3.5-7.9-4-17.9-5.3-26.3c-1.7-11-3.1-22.1-3.9-33.2
												c-0.8-12.2-0.2-24.6-0.2-36.8c0-8.5-0.6-16.6-1.2-25.1c-0.2-3.4,1.3-8.9-0.7-12c-3.1-4.9-11.9-7.2-16.7-8.8
												c-9.3-3.1-19.2-5.8-28.1-10c-4.3-2.1-8.4-4.7-12.6-6.9c-2.4-1.3-4.6-3-7.1-4.1c-2.9-1.3-6.1-1.2-9-2.3c-5.3-2-10-5.3-15.5-7.1
												c-5.8-1.9-11.9-3.2-17.4-5.9c-4.4-2.2-8.7-4.6-13.1-6.8c-1.3-0.6-4.4-2.5-5.7-1.9c-0.9,0.5-1.7,4.1-1.9,4.7
												c-2,6.4-2.4,13.5-3.1,20.1c-2,16.6-5.2,33.7-5.1,50.5c0.1,9.8,0,19.7,0,29.5c0,5,0,10,0,15c0,2.9,0.8,6.9-0.6,9.6
												c-2.8,5.4-14.8,1.9-19.5,1.1"/>
												<path id="XMLID_1034_" class="st7" d="M719.7,523.6c0.2-7-0.8-14.1-1.3-21.1c-0.8-11.4-1.3-22.6-1.3-34c0-16.9,1.3-33.7,1.3-50.5
													c0-7.9,1.2-17.1-0.6-24.9c-0.6-2.6-2.3-5.9-1-8.6c0.9-1.8,4-3,5.6-4c4.4-3,8.3-6.4,12.3-9.9c11.3-9.7,24.5-16.7,36.6-25.3
													c8.8-6.3,17.5-12.7,26.5-18.7c8.8-5.9,17.8-11.5,26.3-17.8c6.3-4.7,12.4-9.9,19.1-14.1c18.1-11.1,11.5-9.4,35.3-29.1
													c6.9-5.7,24.5-10.3,32.3-14.6c3.1-1.7,6.2-3.9,9.7-4.3c12-1.3,25.2,4.3,36.2,8.1c6.8,2.4,27.7,12.9,34.6,15.2
													c3.9,1.3,7.5,2.5,11.1,4.6c3.1,1.9,6.1,3.8,9.4,5.5c7.8,4,16.1,5.8,24.2,8.7c5.2,1.9,10,4.6,15.3,6.3c3.6,1.2,4.6,3.3,5.6,6.9
													c1.6,5.4,1.7,11.6,2.3,17.2c1.1,10.1,1.8,20.3,2.1,30.5c0.8,23.7,0.1,47.5,0.1,71.2c0,12.7,1,25.7,0.1,38.4c-0.3,4.3-7.1,8.4-10,3
													c-1.5-2.8-0.1-8.6-0.1-11.7c0-6.2,0-12.3,0-18.5c0-7.4-0.2-14.9-0.1-22.4c0.2-8,1.6-16,2.3-23.9c1.2-13.6-0.5-27-2.4-40.4
													c-0.5-3.5-2.6-13-6-14.9c-3.5,1.4-6.8,4.1-10.1,5.9c-5.7,3.2-11.9,6.1-17.2,10c-10.7,8.1-21.3,17.3-30.9,26.6
													c-7,6.7-12.9,14.5-19.9,21.3c-10.1,9.8-21.5,17.9-32.6,26.5c-7.7,6-15.7,11.8-22.7,18.7c-1.2,1.2-2.4,2.6-3.8,3.7
													c-1.4,1-3.6,1.3-4.8,2.4c-4.2,3.8-2.7,12.7-2.8,17.8c-0.4,15-1.6,29.9-2.1,44.9c-0.8,24.1-0.4,48.4-0.2,72.6c0,2.7,0.6,6.8-0.8,9.3
													c-1.5,2.7-3.6,2.2-6.5,1.8c-5.8-0.8-10.6,1.2-13.5-5.2c-3.5-7.9-4-17.9-5.3-26.3c-1.7-11-3.1-22.1-3.9-33.2
													c-0.8-12.2-0.2-24.6-0.2-36.8c0-8.5-0.6-16.6-1.2-25.1c-0.2-3.4,1.3-8.9-0.7-12c-3.1-4.9-11.9-7.2-16.7-8.8
													c-9.3-3.1-19.2-5.8-28.1-10c-4.3-2.1-8.4-4.7-12.6-6.9c-2.4-1.3-4.6-3-7.1-4.1c-2.9-1.3-6.1-1.2-9-2.3c-5.3-2-10-5.3-15.5-7.1
													c-5.8-1.9-11.9-3.2-17.4-5.9c-4.4-2.2-8.7-4.6-13.1-6.8c-1.3-0.6-4.4-2.5-5.7-1.9c-0.9,0.5-1.7,4.1-1.9,4.7
													c-2,6.4-2.4,13.5-3.1,20.1c-2,16.6-5.2,33.7-5.1,50.5c0.1,9.8,0,19.7,0,29.5c0,5,0,10,0,15c0,2.9,0.8,6.9-0.6,9.6
													c-2.8,5.4-14.8,1.9-19.5,1.1"/>
													<path id="XMLID_1025_" class="st7" d="M367.9,614.9c0.2-7-0.8-14.1-1.3-21.1c-0.8-11.4-1.3-22.6-1.3-34c0-16.9,1.3-33.7,1.3-50.5
														c0-7.9,1.2-17.1-0.6-24.9c-0.6-2.6-2.3-5.9-1-8.6c0.9-1.8,4-3,5.6-4c4.4-3,8.3-6.4,12.3-9.9c11.3-9.7,24.5-16.7,36.6-25.3
														c8.8-6.3,17.5-12.7,26.5-18.7c8.8-5.9,17.8-11.5,26.3-17.8c6.3-4.7,12.4-9.9,19.1-14.1c18.1-11.1,11.5-9.4,35.3-29.1
														c6.9-5.7,24.5-10.3,32.3-14.6c3.1-1.7,6.2-3.9,9.7-4.3c12-1.3,25.2,4.3,36.2,8.1c6.8,2.4,27.7,12.9,34.6,15.2
														c3.9,1.3,7.5,2.5,11.1,4.6c3.1,1.9,6.1,3.8,9.4,5.5c7.8,4,16.1,5.8,24.2,8.7c5.2,1.9,10,4.6,15.3,6.3c3.6,1.2,4.6,3.3,5.6,6.9
														c1.6,5.4,1.7,11.6,2.3,17.2c1.1,10.1,1.8,20.3,2.1,30.5c0.8,23.7,0.1,47.5,0.1,71.2c0,12.7,1,25.7,0.1,38.4c-0.3,4.3-7.1,8.4-10,3
														c-1.5-2.8-0.1-8.6-0.1-11.7c0-6.2,0-12.3,0-18.5c0-7.4-0.2-14.9-0.1-22.4c0.2-8,1.6-16,2.3-23.9c1.2-13.6-0.5-27-2.4-40.4
														c-0.5-3.5-2.6-13-6-14.9c-3.5,1.4-6.8,4.1-10.1,5.9c-5.7,3.2-11.9,6.1-17.2,10c-10.7,8.1-21.3,17.3-30.9,26.6
														c-7,6.7-12.9,14.5-19.9,21.3c-10.1,9.8-21.5,17.9-32.6,26.5c-7.7,6-15.7,11.8-22.7,18.7c-1.2,1.2-2.4,2.6-3.8,3.7
														c-1.4,1-3.6,1.3-4.8,2.4c-4.2,3.8-2.7,12.7-2.8,17.8c-0.4,15-1.6,29.9-2.1,44.9c-0.8,24.1-0.4,48.4-0.2,72.6c0,2.7,0.6,6.8-0.8,9.3
														c-1.5,2.7-3.6,2.2-6.5,1.8c-5.8-0.8-10.6,1.2-13.5-5.2c-3.5-7.9-4-17.9-5.3-26.3c-1.7-11-3.1-22.1-3.9-33.2
														c-0.8-12.2-0.2-24.6-0.2-36.8c0-8.5-0.6-16.6-1.2-25.1c-0.2-3.4,1.3-8.9-0.7-12c-3.1-4.9-11.9-7.2-16.7-8.8
														c-9.3-3.1-19.2-5.8-28.1-10c-4.3-2.1-8.4-4.7-12.6-6.9c-2.4-1.3-4.6-3-7.1-4.1c-2.9-1.3-6.1-1.2-9-2.3c-5.3-2-10-5.3-15.5-7.1
														c-5.8-1.9-11.9-3.2-17.4-5.9c-4.4-2.2-8.7-4.6-13.1-6.8c-1.3-0.6-4.4-2.5-5.7-1.9c-0.9,0.5-1.7,4.1-1.9,4.7
														c-2,6.4-2.4,13.5-3.1,20.1c-2,16.6-5.2,33.7-5.1,50.5c0.1,9.8,0,19.7,0,29.5c0,5,0,10,0,15c0,2.9,0.8,6.9-0.6,9.6
														c-2.8,5.4-14.8,1.9-19.5,1.1"/>
														<path id="XMLID_1016_" class="st7" d="M543.8,679.4c0.2-7-0.8-14.1-1.3-21.1c-0.8-11.4-1.3-22.6-1.3-34c0-16.9,1.3-33.7,1.3-50.5
															c0-7.9,1.2-17.1-0.6-24.9c-0.6-2.6-2.3-5.9-1-8.6c0.9-1.8,4-3,5.6-4c4.4-3,8.3-6.4,12.3-9.9c11.3-9.7,24.5-16.7,36.6-25.3
															c8.8-6.3,17.5-12.7,26.5-18.7c8.8-5.9,17.8-11.5,26.3-17.8c6.3-4.7,12.4-9.9,19.1-14.1c18.1-11.1,11.5-9.4,35.3-29.1
															c6.9-5.7,24.5-10.3,32.3-14.6c3.1-1.7,6.2-3.9,9.7-4.3c12-1.3,25.2,4.3,36.2,8.1c6.8,2.4,27.7,12.9,34.6,15.2
															c3.9,1.3,7.5,2.5,11.1,4.6c3.1,1.9,6.1,3.8,9.4,5.5c7.8,4,16.1,5.8,24.2,8.7c5.2,1.9,10,4.6,15.3,6.3c3.6,1.2,4.6,3.3,5.6,6.9
															c1.6,5.4,1.7,11.6,2.3,17.2c1.1,10.1,1.8,20.3,2.1,30.5c0.8,23.7,0.1,47.5,0.1,71.2c0,12.7,1,25.7,0.1,38.4c-0.3,4.3-7.1,8.4-10,3
															c-1.5-2.8-0.1-8.6-0.1-11.7c0-6.2,0-12.3,0-18.5c0-7.4-0.2-14.9-0.1-22.4c0.2-8,1.6-16,2.3-23.9c1.2-13.6-0.5-27-2.4-40.4
															c-0.5-3.5-2.6-13-6-14.9c-3.5,1.4-6.8,4.1-10.1,5.9c-5.7,3.2-11.9,6.1-17.2,10c-10.7,8.1-21.3,17.3-30.9,26.6
															c-7,6.7-12.9,14.5-19.9,21.3c-10.1,9.8-21.5,17.9-32.6,26.5c-7.7,6-15.7,11.8-22.7,18.7c-1.2,1.2-2.4,2.6-3.8,3.7
															c-1.4,1-3.6,1.3-4.8,2.4c-4.2,3.8-2.7,12.7-2.8,17.8c-0.4,15-1.6,29.9-2.1,44.9c-0.8,24.1-0.4,48.4-0.2,72.6c0,2.7,0.6,6.8-0.8,9.3
															c-1.5,2.7-3.6,2.2-6.5,1.8c-5.8-0.8-10.6,1.2-13.5-5.2c-3.5-7.9-4-17.9-5.3-26.3c-1.7-11-3.1-22.1-3.9-33.2
															c-0.8-12.2-0.2-24.6-0.2-36.8c0-8.5-0.6-16.6-1.2-25.1c-0.2-3.4,1.3-8.9-0.7-12c-3.1-4.9-11.9-7.2-16.7-8.8
															c-9.3-3.1-19.2-5.8-28.1-10c-4.3-2.1-8.4-4.7-12.6-6.9c-2.4-1.3-4.6-3-7.1-4.1c-2.9-1.3-6.1-1.2-9-2.3c-5.3-2-10-5.3-15.5-7.1
															c-5.8-1.9-11.9-3.2-17.4-5.9c-4.4-2.2-8.7-4.6-13.1-6.8c-1.3-0.6-4.4-2.5-5.7-1.9c-0.9,0.5-1.7,4.1-1.9,4.7
															c-2,6.4-2.4,13.5-3.1,20.1c-2,16.6-5.2,33.7-5.1,50.5c0.1,9.8,0,19.7,0,29.5c0,5,0,10,0,15c0,2.9,0.8,6.9-0.6,9.6
															c-2.8,5.4-14.8,1.9-19.5,1.1"/>
														</g>
														<g id="Ça serait trop cool qu'on soit au moins 10. <br> Prends des biscuits si t'as faim et de la bière si t'es un poche">
															<path id="XMLID_14_" class="st8" d="M197.3,742.6c6.5,0,13,0,19.5,0c6,0,12.2,0.7,18-0.8c11.9-3,20.6-9.4,29.2-17.9
																c2.2-2.2,3.6-3.8,4.6-6.8c1.8-5.4-2.2-6-6.8-7.8c-9.5-3.8-18.7-5.1-28.8-6.1c-4.8-0.5-9.5-1.1-14.3-1.1c-2.5,0-5.7,0.9-8-0.4
																c-0.9-4.5,1-10.4,1.9-14.8c1-5.5,2.4-10.7,3.1-16.2c1.6-11.9,1.1-24,1.1-36.1c0-10.5,1.5-20.5,1.5-31c0-5.2-0.2-10.5-0.1-15.7
																c0.2-6.9,1.7-13.5,1.6-20.5c-0.1-5.2-0.8-9.9,2.3-14.4c1.9-2.7,4.1-4.8,4.9-8.2c1-4.4,0.2-9.5,0.4-14c1.2-18.4,4.5-36.7,5.9-55.1
																c1.2-15.7,1.6-31.3,2.9-47c1-11.9,3.2-24.5,2.7-36.5c-0.4-9.2-3.7-18.5-5.7-27.5c-1.3-5.5-3.2-10.8-4.2-16.3
																c-0.9-4.9-1-10.2-2.2-15.1c-1.4-5.5-4.7-10.4-7.9-15.1c-7.6-11.1-15.3-22.4-17.7-35.9c-0.7-3.9-0.4-4.6,4.6-4.9
																c2.5-0.2,4.4,0.9,6.7,1.3c4.7,0.8,11.9,1.4,16.2-1.4c18.8-12.1-11.9-31.8-20.6-38.5c2.8-0.9,7.6-0.8,10.5-0.4
																c3.5,0.5,6.2,2.8,9.7,3.1c7,0.7,21.1-3.8,22.3-11.8c-3.8-5.1-14.3-7.2-19.7-9.4c-4.3-1.8-9.1-4-13.9-4.5c-3-0.3-6.6,1-9.2-1.2
																c-4.2-3.7,0.6-6.1,2.5-9c6.3-9.7-4.3-20.8-11.7-25.8c-5.8-3.9-10.6-5.3-17.3-6.6c-6.1-1.2-11.3-3.5-17.2-0.2
																c-5.5,3.2-7,8.7-9.3,14.4c-3.4,8.3-6.7,16.8-8.5,25.6c-1,4.9-1.5,9.9-2.9,14.7c-1,3.3-1.9,5.8-1.9,9.2c0.1,7.1-5.7,10.4-9.6,15.8
																c-2.7,3.9-3.8,8.5-6.8,12.3c-2.6,3.3-5.4,5.3-6.8,9.3c-3.8,10.6-8.6,20.9-12.8,31.3c-1.4,3.5-3.4,6.9-4.1,10.7
																c-0.7,4-0.3,8.3-0.3,12.4c0,7.4-2.8,13.3-4.2,20.6c-0.9,4.8-0.3,10.1-0.3,15c0.1,9.1-1.6,18-1.6,27.1c0.1,8.1,0.2,16.2,0.1,24.4
																c-0.1,7.9-1.7,15.6-1.6,23.6c0.1,16.9-1.5,33.4-1.5,50.3c0,6.9,0,13.8,0,20.6c0,18.9-1.2,37.6-1.6,56.5
																c-0.6,29.6,0.7,59.2,0.1,88.7c0,1.2-0.6,4.4,0.1,5.4c1.4,1.9,6.9,2.1,8.6,2.4c9.6,1.5,19.1,2.8,28.7,0.8c3.5-0.8,8.1-0.5,10.6-3.5
																c4.5-5.2,2.7-13.9,3.1-20c0.8-13.1,2.1-26.1,2.7-39.2c0.4-9.2-2-21.2,1.3-30.1c1.4,6,0.4,13.6,0.4,19.6c0,13.6,0.3,27.2-0.3,40.7
																c-0.4,9.2-1.1,18.5-2,27.7c-0.5,5.3-1.2,10.6-0.4,15.9c0.8,5.7,2.5,11.1,4.9,16.3c4,8.7,6.3,17,9.1,26.2
																c1.6,5.2,2.7,10.9,4.8,15.9c2.3,5.3,6.7,4.5,12,4.4c6.1-0.1,11.4-0.4,17,1.9c2.6,1,4.5,1,7.4,1.1"/>
																<path id="XMLID_16_" class="st8" d="M230.3,501.1c-5.4,10.1-1.3,31.9-16.7,33.7c-3.7-2.8-1.6-16.4,2.3-18.5
																	c-0.4,5.7-6.6,12.8-9.7,17c-1.7,2.3-3.6,4.5-5.1,7c-1.1,1.8-1.7,5-4.2,5.3c-3.5-4.4-5.5-13.5-5.4-19.1c0.1-4.4,2.2-7.1,5.4-9.9
																	c-2.7,2.7-5.7,4.5-7.9,7.7c-1.3,2-4,10.5-6.7,9.7c-3.3-6-4.5-15.6-2.7-22.4c1.4-5.3,5-9.6,4.4-15.4c-0.3-2.4-1.4-4.5-1.7-7
																	c-0.4-2.7,0.1-5.7,0.1-8.4c0.1-9.9-0.6-18.7-2.2-28.5c-1.4-8.4-4-16.5-4.9-25c-1.3-12.4-1.9-24.8-3.7-37.1
																	c-2.2-14.3-1.1-29.2-1.1-43.7"/>
																	<path id="XMLID_83_" class="st9" d="M158.3,311.6c4-7.8,6.8-15.1,13.6-21.2c5.2-4.7,9.3-4.3,16.1-4.3c3.6,0,11.1-1.3,14.3,0.2
																		c3.6,1.7,8.6,9.7,5,13.1c-1.9,1.8-7.5,1.6-10.1,2.8c-1.9,0.9-3.7,2-5.6,3c-3.8,2.1-8.2,5.6-10.9,9.3c-1.8,2.4-2.5,5.1-4.4,7.5
																		c-1.9,2.4-4.1,4.8-5.2,7.7c-2.1,5.4-2.4,12.8,2.2,17.1l-4.9,8.6H152l-2.6-28L158.3,311.6z"/>
																		<path id="XMLID_80_" class="st9" d="M51.8,360.2l5.8,8.6l7.7,4.3c-2.7,6.3-1.9,14.2-1.2,20.9c0.9,8.6,1.2,16.7,1.2,25.3
																			c0,12.7,0,25.5,0,38.2c0,5.6-1.5,11,4.4,14c4.8,2.4,11,2.6,16.2,3.9c11.8,2.9,24.7,8.9,36.8,4.2c5.2-2,10.5-3.4,15.5-6
																			c4.5-2.3,8-5.8,11.5-9.4c6-6.1,10.9-12.6,15.4-19.9c2.4-3.9,3.6-8.4,4.5-12.9c0.8-3.9,2-8.1,2.3-11.9c0.3-3.8,0.4-8.8,0-12.6
																			c-0.3-3.1-1.6-5.1-1.6-8.4l-4.5,37.5c0.9-5.7,4-11.1,4.6-16.9c0.5-5.7,0-11.8-0.1-17.5c0-7.7,1.5-14.9,1.5-22.5
																			c0-8.7-1.6-16.8-3.4-25.3c-1.3-6.1-2.5-12.3-3.7-18.4c-1.1-5.2-0.1-10.3-1.7-15.6c-1.4-4.8-3.6-9.6-5.9-14.1
																			c-2.4-4.7-5.3-10.3-9.4-13.7c-3.4-2.9-7.4-4-11.3-6c-2.7-1.3-5.1-3.3-7.8-4.6c-8.1-4-17.9-4.5-26.7-4.4
																			c-9.3,0.1-20.7-1.8-29.3,2.5c-6.6,3.2-10.2,9.7-14.3,15.5c-9,12.9-8.2,31.4-8.2,46.3C50.3,347.9,50.9,353.9,51.8,360.2
																			c1.1,7.6,8.6,11.2,16.1,11.5c17.4,0.6,37.2,1.3,53.6-5.3c7.9-3.2,10.8-13.7,13.7-21.1c1.4-3.6,6.5-13.7,2.2-17.2"/>
																		</g>
																		<g id="Viens avec ta machine (Windows, OSx, Linux) et des écouteurs - c'est important yo.">
																			<path id="XMLID_18_" class="st5" d="M933.1,328.1c-4.6,0.6-9.2-1.5-13.5-3c-6-2-12.1-3.8-18-6c-11.7-4.3-22.1-11.5-32.8-17.8
																				c-4-2.4-8.5-4.2-12.7-6.3c-3.3-1.6-5.9-1.7-8.6-4.4c-5.1-5-6-15.9-7.1-22.5c-1.8-10.9-2.4-22-1.9-33.1c0.3-8.1,2.7-16.2,1.6-24.4
																				c-0.6-4.6-6.2-9.8,1.8-11c6.2-1,14.5,1.3,20.8,2.1c4.7,0.5,8.6,1.1,13.1,2.4c15.1,4.4,30.1,10,45.3,14.1c4.2,1.1,9.5,1.8,13.3,3.6
																				c7.5,3.6,7.8,12.3,9.5,19.6c1.9,8.3,1.3,16.9,3,25.2c1.5,7.3,2.5,16.4,0.1,23.7c-1.9,5.8-5,10.9-6.8,16.8
																				c-1.2,4.1-3.8,7.3-4.3,11.7c-0.2,2.1-0.6,6.9,0.3,8.7c5.9-9.8,18.5-14.6,27.9-20.3c4-2.4,9.7-5.4,12.3-9.3c1.9-2.7,3.2-5.3,5.6-7.7
																				c2.1-2.1,7.3-4,8.6-6.3c3.5-6-16.7-11.3-20.8-12.8c-4.2-1.5-8.6-2-12.9-3.1c-4-1.1-7.8-3.8-12-4.4"/>
																				<path id="XMLID_103_" class="st10" d="M869,333c-4-1.9-7.2-4.5-11.7-5c-3.2-0.4-6.3-1-9.5-1c-8.1,0.1-19.6-3-24.2,5.4
																					c-1.6,2.9-2.7,6.3-3.9,9.4c-1.3,3.4-0.8,6.2,2.3,8.6c4.1,3.2,9,4.7,14,5.8c2,0.4,4.1,1.2,6,1.9c2.4,1,7.2,2.5,8.9,4.7
																					c-3.5,1.9-6.6-5.5-5.8-8.1c1.7-5.2,9.6-2.2,13-1c3.1,1.1,6,2.6,8.9,4.1c3,1.5,5.1,4.1,7.4,6.4c1.2,1.2,3.6,2.7,4.1,4.3
																					c1,2.8-1.7,2.8-3.4,3.6c-2.3,1.1-4.5,2.8-7,3.6c-4.7,1.4-8,1.8-12.2-0.8c-3.7-2.3-8.9-3.8-10.9-8c-1-2-1.4-4.9-0.7-7.1
																					c0.5-1.4,2.3-4.5,3.9-4.5c3,2.5-4,10-0.1,11.3c1.7-1.1,1-3.4,0.9-5.1c1.5-0.3,2.4,4.1,2.7,5.1c-0.5-3.1-6.2-6.1-8.6-7.4
																					c-3.7-2-8.5-3.9-11.8-6.4c-2.5-1.9-3.3-5.4-3.9-8.2c-0.6-3.1-1.4-9.8,1.8-11.3c1.9-0.9,4.1-0.4,6.1-0.6c2.3-0.2,4.3-0.9,6.6-0.9
																					c3.7-0.1,7.4,0,11.1,0c2.2,0,4.8-0.4,7,0.2c1.1,0.3,2.3,1,3.4,1.5c2,1,4.6,3.4,6.9,3.3"/>
																					<path id="XMLID_85_" class="st10" d="M870,337c-0.9-0.9-2.9-3.6-3-4.8c-0.1-1.9,1.5-1.9,3-2.1c3.2-0.6,7,0,10.3,0
																						c4.6,0,10.5-1,13.9,3c1.7,2,3.1,4.1,4.9,6c1.6,1.7,2.9,3.1,2.5,5.4c-0.5,3-2.2,5.9-5.6,5.7c-3.1-0.2-4.9-3.2-7.4-4.7
																						c-2.7-1.6-5.8-2.2-8.6-3.7c-1.7-0.9-3.3-1.8-5-2.7c-1.7-1-7.3-2.8-5-5.4c1.3-1.4,5.8-0.7,7.7-0.6c2.8,0.1,5.5,0.8,8.1,2
																						c1,0.5,2,1.4,3.1,1.8c1.6,0.5,2.6,0.2,4.1,1.1c2.4,1.5,4.4,4.9,6,7.1c1,1.4,2.5,2.4,0.9,4.1c-1.3,1.3-4.4,0.9-6,0.9"/>
																						<path id="XMLID_105_" class="st6" d="M967,305c2.9-0.1,5.8,1.7,8.6,2.3c1.9,0.4,3.8,0.6,5.4,1.6c5,3.1,6.1,11,7.6,16.1
																							c1.8,6.4-6.4,6.1-10.8,6.8c-3.4,0.5-7.5,0.7-10.9,0c-1.9-0.4-3.7-1.2-5.7-0.7c1.7,2.1,3.2,3.6,4.1,6.2c0.8,2.3,0.2,4.5,0.8,6.8
																							c0.8,2.9,4.3,4,4.9,7c0.6,3-2.6,4.1-4.9,5c-2.8,1.1-6.2,1.8-9.1,2c-2.8,0.2-3.7,0.4-6.1,1.9c-6.4,3.8-11.7,8.8-17.8,13.1
																							c-4.5,3.1-11.6,6.9-14.1,12c-0.7,1.4-1.6,4.3-0.8,5.9c1.4,3.2,5.4,1.9,7.9,1.4c2.9-0.6,6.8-1.2,8.9-3.5c2.6-2.8,0-5.4-1.7-7.9
																							c-2.8-4.2-4.5-10.3-10.5-9.3c-2.7,0.5-5.2,1.6-7.8,2.2c-2.8,0.6-4.2,0.4-4.9-3c-1.2-6.1,5.2-7.9,9.7-8.6c2.7-0.4,4.6-0.4,7.2,0.7
																							c1.6,0.7,3.6,2.9,5.2,3c3.3,0.4,8.8-5.3,10.6-8c2.4-3.8,0.9-9.4-2.8-11.9c-5-3.3-10.4-4-16.2-4.9c-5.2-0.8-10.8-0.2-16.1-0.2
																							c-3.1,0-7.5,0.6-9.7,3"/>
																							<path id="XMLID_21_" class="st5" d="M748.1,539.1c-11.1-5.6-22.9-9.6-34-15c-8.9-4.4-17.7-7.9-27.3-10.9
																								c-6.7-2.1-11.3-4.4-13.5-11.5c-1.3-4.2-1.5-8.3-2-12.6c-0.6-5.1-2-10.1-2.7-15.2c-1.3-10.3-2.5-20.6-6.2-30.4
																								c-1.7-4.6-3.4-9.2-5.3-13.7c-1.1-2.8-4.2-8.3-3.6-11.3c0.8-4.4,14.7-9.1,18.6-11.3c7.8-4.5,16.9-8.7,25.4-11.9
																								c10.4-4,22.2-8.2,31.5-14.4c3.2-2.1,12.9-8.8,16-7c1.7,1,2.4,5.9,2.9,7.8c1.2,4.4,1.7,9,2.9,13.4c3,10.8,8.3,20.8,11,31.6
																								c1.6,6.5,0.8,14.9,3.8,21c2.1,4.2,7.7,6.5,11.5,9c5.3,3.5,10.1,7.3,15.1,11.2c2.8,2.2,6.4,4,9.7,5.4c2.7,1.2,5.7,1,8.2,2.3
																								c2.9,1.4,14.6,5,13.4,8.9c-0.9,3-7.9,5.3-10.5,6.7c-5.6,3-11.6,5.3-17.2,8.5c-6.8,3.9-12.6,9.7-19.1,14.1
																								c-5.9,4-12.4,5.7-18.4,9.3c-3.8,2.3-4.8,5.3-7.8,8c-2.7,2.4-6.9,3.7-10.2,5.2"/>
																								<path id="XMLID_113_" class="st6" d="M674.6,507.6c4.3-0.1,7.7-3.6,10.8-6c4.8-3.7,10.5-5.9,15.9-8.6c8.8-4.5,16.7-10.7,24.4-16.9
																									c6.8-5.4,15.1-9.8,22.6-14.2c3.1-1.8,6.2-3.6,8.8-6.1c1.5-1.5,2.5-3.4,3.9-4.9c1.5-1.6,3.1-2.1,5.1-3.3"/>
																								</g>
																							</svg>
