<?xml version="1.0" encoding="utf-8"?>
<!-- Generator: Adobe Illustrator 25.0.0, SVG Export Plug-In . SVG Version: 6.00 Build 0)  -->
<svg version="1.1" id="Calque_1" xmlns="http://www.w3.org/2000/svg" xmlns:xlink="http://www.w3.org/1999/xlink" x="0px" y="0px"
	 viewBox="0 0 3403.91 2553.7" style="enable-background:new 0 0 3403.91 2553.7;" xml:space="preserve">
<style type="text/css">
	.st0{fill:#FFFFFF;}
	.st1{fill:#1D1D1B;}
</style>
<g>
	<g>
		<path d="M470.3,2556.7c3.86,0,3.87-6,0-6C466.44,2550.7,466.43,2556.7,470.3,2556.7L470.3,2556.7z"/>
	</g>
</g>
<g>
	<g>
		<path d="M4.6,1302.06c3.86,0,3.87-6,0-6C0.74,1296.06,0.73,1302.06,4.6,1302.06L4.6,1302.06z"/>
	</g>
</g>
<g>
	<g>
		<path d="M19.91,1302.06c3.86,0,3.87-6,0-6C16.05,1296.06,16.05,1302.06,19.91,1302.06L19.91,1302.06z"/>
	</g>
</g>
<g>
	<g>
		<path d="M281.36,442.15c3.86,0,3.87-6,0-6C277.5,436.15,277.49,442.15,281.36,442.15L281.36,442.15z"/>
	</g>
</g>
<g>
	<g>
		<path d="M466.53,2292.28c15.73-0.25,33.09-2.08,44.87,10.47c4.95,5.28,8.44,11.95,12.99,17.56c5.14,6.34,12.43,11.02,17.93,17.11
			c11.03,12.22,20.9,25.5,31.51,38.08c2.23,2.65,3.53,5.59,5.79,8.18c2.44,2.81,4.92,5.59,7.33,8.44c5.87,6.92,11.53,14,17.01,21.23
			c2.3,3.04,7.52,0.05,5.18-3.03c-5.41-7.14-10.97-14.16-16.73-21.01c-2.79-3.32-5.87-6.46-8.54-9.87
			c-2.15-2.75-3.38-5.49-5.79-8.18c-11.8-13.19-21.6-28.24-34.07-40.81c-3.23-3.26-6.73-6.26-10.11-9.38
			c-3.36-3.09-5.98-6.42-8.74-10.04c-4.41-5.78-8.13-11.98-13.91-16.53c-12.72-10-29.5-8.47-44.7-8.22
			C462.67,2286.34,462.66,2292.34,466.53,2292.28L466.53,2292.28z"/>
	</g>
</g>
<g>
	<g>
		<path d="M337.8,2297.81c1.16-0.07,2.31-0.13,3.47-0.2c1.56-0.09,3.08-1.32,3-3c-0.07-1.55-1.32-3.09-3-3
			c-1.16,0.07-2.31,0.13-3.47,0.2c-1.56,0.09-3.08,1.32-3,3C334.87,2296.36,336.12,2297.91,337.8,2297.81L337.8,2297.81z"/>
	</g>
</g>
<g>
	<g>
		<path d="M599.19,2404.96c15.3,13.94,30.61,27.88,45.91,41.82c2.85,2.6,7.1-1.64,4.24-4.24c-15.3-13.94-30.61-27.88-45.91-41.82
			C600.59,2398.12,596.33,2402.35,599.19,2404.96L599.19,2404.96z"/>
	</g>
</g>
<g>
	<g>
		<path d="M656.24,2450.83c14.73-59.92,22.96-121.4,24.37-183.09c1.42-62.36-6.77-123.87-11.15-185.93
			c-2.51-35.54-3.2-71.26,1.14-106.69c0.47-3.82-5.54-3.79-6,0c-7.62,62.15,0.45,124.51,5.92,186.48
			c5.43,61.58,5.8,123.16-1.37,184.62c-4.05,34.69-10.35,69.1-18.69,103.02C649.53,2452.98,655.32,2454.58,656.24,2450.83
			L656.24,2450.83z"/>
	</g>
</g>
<g>
	<g>
		<path d="M875.44,2261.05c8.93,0.4,17.84,1.08,26.73,1.93c3.84,0.37,3.82-5.64,0-6c-8.9-0.85-17.8-1.53-26.73-1.93
			C871.58,2254.88,871.59,2260.88,875.44,2261.05L875.44,2261.05z"/>
	</g>
</g>
<g>
	<g>
		<path d="M909.9,2260.02c11.85,7.9,22.07,17.91,32.36,27.68c9.85,9.36,19.56,18.86,28.85,28.77c18.48,19.73,35.13,41.2,47.02,65.59
			c1.69,3.47,6.87,0.43,5.18-3.03c-12.11-24.82-29.15-46.72-47.96-66.8c-9.48-10.13-19.41-19.82-29.47-29.37
			c-10.47-9.93-20.9-20-32.95-28.03C909.71,2252.69,906.7,2257.88,909.9,2260.02L909.9,2260.02z"/>
	</g>
</g>
<g>
	<g>
		<path d="M1022.84,2378.82c16.87-117.98-1.38-236.54-6.14-354.67c-1.35-33.61-1.57-67.27,0.08-100.87c0.19-3.86-5.81-3.85-6,0
			c-5.82,118.33,13.86,235.8,13.16,354.03c-0.2,33.41-2.15,66.82-6.88,99.91C1016.52,2381,1022.3,2382.63,1022.84,2378.82
			L1022.84,2378.82z"/>
	</g>
</g>
<g>
	<g>
		<path d="M1031.83,2252c32.73-5.42,65.45-11.73,98.41-15.58c32.82-3.83,65.87-5.08,98.87-6.32c3.85-0.14,3.87-6.15,0-6
			c-33.65,1.26-67.36,2.53-100.82,6.55c-32.83,3.94-65.44,10.16-98.06,15.56C1026.43,2246.85,1028.04,2252.63,1031.83,2252
			L1031.83,2252z"/>
	</g>
</g>
<g>
	<g>
		<path d="M1328.62,2219.71c5.15-43.69,9.55-87.47,12.72-131.35c3.19-44.15,4.52-88.39,6.01-132.62c0.84-25.04,1.48-50.11-0.5-75.12
			c-0.3-3.82-6.3-3.86-6,0c3.47,43.97,0.21,88.56-1.5,132.56c-1.72,44.12-4.62,88.14-8.78,132.11c-2.35,24.84-5.03,49.65-7.95,74.43
			C1322.16,2223.54,1328.17,2223.51,1328.62,2219.71L1328.62,2219.71z"/>
	</g>
</g>
<g>
	<g>
		<path d="M1335.99,2222.78c45.31,1.04,90.53-3.23,134.93-12.27c11.56-2.35,22.98-5.22,34.45-7.93c4.84-1.15,10.74-1.68,15.15,1.12
			c4.68,2.97,8.71,8.61,12.57,12.57c16.34,16.76,32.69,33.52,49.08,50.24c18.5,18.86,37.06,37.66,55.73,56.35
			c1.46,1.46,4.65,0.98,5.01-1.32c0.66-4.11,1.56-8.36,1.75-12.54c0.08-1.79,0.14-3.35-1.51-4.49c-1.2-0.82-2.62-0.32-3.64,0.47
			c-1.86,1.44-2.03,5.9-2.35,7.97c-0.4,2.63-1.44,6.91,0.27,9.3c1.75,2.45,5.35,1.55,5.59-1.51c1.14-14.67,3.42-29.12,3.86-43.88
			c0.44-14.96-1.08-29.69-1.91-44.59c-1.72-30.61-2.5-61.27-2.56-91.94c-0.11-60.38,2.61-120.73,6.42-180.98
			c2.16-34.14,4.67-68.26,7.21-102.37c0.29-3.85-5.71-3.83-6,0c-9.03,121.2-17.6,242.8-11.65,364.38c0.83,16.9,2.78,33.77,2.58,50.7
			c-0.19,16.39-2.7,32.4-3.96,48.67c1.86-0.5,3.73-1.01,5.59-1.51c0.23,0.32-0.03-0.75,0.01-1.47c0.07-1.29,0.22-2.57,0.43-3.85
			c0.19-1.19,0.43-2.36,0.69-3.54c0.26-1.22,1-1.89,0.02-1.14c-1.21,0.16-2.42,0.31-3.64,0.47c-4.48-3.08-0.69-2.83-1.4-1.52
			c-0.28,0.52-0.15,1.71-0.21,2.3c-0.35,3.17-0.88,6.32-1.38,9.46c1.67-0.44,3.34-0.88,5.01-1.32
			c-34.05-34.09-67.72-68.55-101.36-103.05c-4.15-4.26-8.35-8.48-12.46-12.78c-3.1-3.24-6.28-5.69-10.77-6.61
			c-10.23-2.1-21.24,2.56-31.07,4.83c-23.43,5.4-47.15,9.61-71.05,12.3c-26.37,2.97-52.91,4.09-79.44,3.48
			C1332.13,2216.69,1332.13,2222.69,1335.99,2222.78L1335.99,2222.78z"/>
	</g>
</g>
<g>
	<g>
		<path d="M1331.27,2222.64c1.12,0.04,2.25,0.07,3.37,0.11c1.57,0.05,3.07-1.41,3-3c-0.07-1.66-1.32-2.95-3-3
			c-1.12-0.03-2.25-0.07-3.37-0.11c-1.57-0.05-3.07,1.42-3,3C1328.35,2221.31,1329.59,2222.58,1331.27,2222.64L1331.27,2222.64z"/>
	</g>
</g>
<g>
	<g>
		<path d="M1649.94,1849.72c-7.52-0.81-15.07-1.29-22.63-1.55c-3.86-0.13-3.86,5.87,0,6c7.56,0.26,15.1,0.74,22.63,1.55
			C1653.78,1856.13,1653.75,1850.13,1649.94,1849.72L1649.94,1849.72z"/>
	</g>
</g>
<g>
	<g>
		<path d="M461.11,1959.77c3.86,0,3.87-6,0-6C457.25,1953.77,457.24,1959.77,461.11,1959.77L461.11,1959.77z"/>
	</g>
</g>
<g>
	<g>
		<path d="M475.44,1965.96c-14.77-30.15-46.88-48.25-73.26-66.95c-32.76-23.22-65.52-46.44-98.28-69.66
			c-3.16-2.24-6.16,2.96-3.03,5.18c31.68,22.45,63.35,44.9,95.03,67.36c14.52,10.29,29.45,20.19,43.37,31.27
			c12.51,9.96,23.88,21.32,30.98,35.82C471.95,1972.45,477.13,1969.41,475.44,1965.96L475.44,1965.96z"/>
	</g>
</g>
<g>
	<g>
		<path d="M668.36,1979.23c0-5.59,0-11.18,0-16.77c0-3.86-6-3.87-6,0c0,5.59,0,11.18,0,16.77
			C662.36,1983.09,668.36,1983.1,668.36,1979.23L668.36,1979.23z"/>
	</g>
</g>
<g>
	<g>
		<path d="M1646.78,1860.95c4.15-0.61,8.3-1.21,12.45-1.81c3.81-0.55,2.19-6.33-1.59-5.79c-4.15,0.6-8.3,1.2-12.45,1.81
			C1641.38,1855.73,1643,1861.51,1646.78,1860.95L1646.78,1860.95z"/>
	</g>
</g>
<g>
	<g>
		<path d="M495.55,2285.71c9.69-80.25,12.04-161.35,6.86-242.03c-1.47-22.95-3.57-45.86-6.23-68.71c-0.44-3.79-6.45-3.83-6,0
			c9.36,80.29,11.38,161.4,5.88,242.05c-1.57,22.95-3.75,45.85-6.51,68.68C489.09,2289.54,495.09,2289.51,495.55,2285.71
			L495.55,2285.71z"/>
	</g>
</g>
<g>
	<g>
		<path d="M324.24,1846.4c8.71,123.93,13.2,248.15,13.38,372.38c0.05,35.21-0.25,70.42-0.87,105.63c-0.07,3.86,5.93,3.86,6,0
			c2.22-124.21,0.2-248.5-6.11-372.57c-1.79-35.17-3.93-70.31-6.4-105.44C329.98,1842.57,323.97,1842.54,324.24,1846.4
			L324.24,1846.4z"/>
	</g>
</g>
<g>
	<g>
		<path d="M338.7,1858.4c-7.86-0.37-13.66-6.27-19.09-11.34c-6.33-5.92-12.66-11.84-18.99-17.76
			c-12.66-11.84-25.32-23.68-37.98-35.52c-2.82-2.64-7.07,1.6-4.24,4.24c14.12,13.21,28.24,26.41,42.36,39.62
			c6.49,6.07,12.8,12.39,19.54,18.18c5.39,4.63,11.13,8.24,18.4,8.58C342.56,1864.58,342.55,1858.58,338.7,1858.4L338.7,1858.4z"/>
	</g>
</g>
<g>
	<g>
		<path d="M1234.8,1686.32c30.33-2.19,60.62-5.09,91-6.59c3.84-0.19,3.87-6.19,0-6c-30.38,1.5-60.67,4.4-91,6.59
			C1230.98,1680.6,1230.95,1686.6,1234.8,1686.32L1234.8,1686.32z"/>
	</g>
</g>
<g>
	<g>
		<path d="M897.27,1719.48c68.87-5.3,137.28-15.25,206.06-21.46c3.81-0.34,3.85-6.35,0-6c-68.79,6.21-137.19,16.16-206.06,21.46
			C893.45,1713.77,893.41,1719.78,897.27,1719.48L897.27,1719.48z"/>
	</g>
</g>
<g>
	<g>
		<path d="M587.92,1750.62c16.3-2.93,33-4,49.49-5.49c16.39-1.48,32.79-2.91,49.15-4.69c16.12-1.75,32.42-5.25,48.63-5.25
			c8.19,0,16.33-1.38,24.48-2.15c8.32-0.79,16.66-1.44,24.98-2.14c3.82-0.32,3.85-6.32,0-6c-8.33,0.7-16.66,1.35-24.98,2.14
			c-8.16,0.77-16.29,2.15-24.48,2.15c-16.87,0-33.77,3.66-50.56,5.46c-16.69,1.79-33.41,3.22-50.12,4.74
			c-16.08,1.46-32.3,2.58-48.19,5.44C582.53,1745.52,584.14,1751.3,587.92,1750.62L587.92,1750.62z"/>
	</g>
</g>
<g>
	<g>
		<path d="M253.92,1784.1c57.05-4.97,113.9-11.91,170.92-17.13c3.81-0.35,3.85-6.35,0-6c-57.02,5.22-113.87,12.16-170.92,17.13
			C250.1,1778.43,250.06,1784.44,253.92,1784.1L253.92,1784.1z"/>
	</g>
</g>
<g>
	<g>
		<path d="M1499.21,1743.06c62.13,19.24,123.6,41.27,180.98,72.22c3.4,1.83,6.43-3.35,3.03-5.18
			c-57.82-31.19-119.8-53.43-182.41-72.82C1497.11,1736.13,1495.53,1741.92,1499.21,1743.06L1499.21,1743.06z"/>
	</g>
</g>
<g>
	<g>
		<path d="M908.48,2253.77c-0.07,1.16-0.15,2.32-0.23,3.48c-0.11,1.57,1.46,3.07,3,3c1.72-0.08,2.88-1.32,3-3
			c0.08-1.16,0.16-2.32,0.23-3.48c0.1-1.57-1.45-3.07-3-3C909.77,2250.85,908.58,2252.09,908.48,2253.77L908.48,2253.77z"/>
	</g>
</g>
<g>
	<g>
		<path d="M1516.77,2203.94c2.65-81.64,5.31-163.28,7.96-244.93c0.76-23.23,1.51-46.46,2.27-69.69c0.13-3.86-5.87-3.86-6,0
			c-2.65,81.64-5.31,163.28-7.96,244.93c-0.76,23.23-1.51,46.46-2.27,69.69C1510.64,2207.8,1516.64,2207.8,1516.77,2203.94
			L1516.77,2203.94z"/>
	</g>
</g>
<g>
	<g>
		<path d="M1528.23,1893.45c-0.79-9.52-1.57-19.05-2.36-28.57c-0.32-3.82-6.32-3.85-6,0c0.79,9.52,1.57,19.05,2.36,28.57
			C1522.54,1897.27,1528.55,1897.31,1528.23,1893.45L1528.23,1893.45z"/>
	</g>
</g>
<g>
	<g>
		<path d="M1648.55,1859.19c30.8-5.94,61.9-10.14,93.17-12.59c3.82-0.3,3.86-6.3,0-6c-31.8,2.49-63.44,6.77-94.77,12.81
			C1643.17,1854.13,1644.77,1859.92,1648.55,1859.19L1648.55,1859.19z"/>
	</g>
</g>
<g>
	<g>
		<path d="M1684.35,1815.32c21.57,8.72,42.84,18.14,63.81,28.21c3.46,1.66,6.51-3.51,3.03-5.18c-21.43-10.3-43.19-19.9-65.24-28.82
			C1682.36,1808.09,1680.81,1813.89,1684.35,1815.32L1684.35,1815.32z"/>
	</g>
</g>
<g>
	<g>
		<path d="M581.76,1897.67c-44.97-22.37-86.53-51.06-123.33-85.24c-2.83-2.63-7.08,1.61-4.24,4.24
			c37.16,34.51,79.13,63.59,124.54,86.18C582.18,1904.57,585.22,1899.39,581.76,1897.67L581.76,1897.67z"/>
	</g>
</g>
<g>
	<g>
		<path d="M166.98,1602.32c3.86,0,3.87-6,0-6C163.12,1596.32,163.11,1602.32,166.98,1602.32L166.98,1602.32z"/>
	</g>
</g>
<g>
	<g>
		<path d="M591.71,1900.17c-0.16-80.53-1.39-161.06-1.59-241.59c-0.06-23.16-0.03-46.31,0.13-69.47c0.03-3.86-5.97-3.87-6,0
			c-0.55,80.55,0.51,161.1,1.11,241.65c0.17,23.14,0.3,46.28,0.35,69.42C585.71,1904.03,591.71,1904.04,591.71,1900.17
			L591.71,1900.17z"/>
	</g>
</g>
<g>
	<g>
		<path d="M418.13,1768.92c12.53-1.14,25.06-2.28,37.59-3.42c3.81-0.35,3.85-6.35,0-6c-12.53,1.14-25.06,2.28-37.59,3.42
			C414.32,1763.27,414.28,1769.27,418.13,1768.92L418.13,1768.92z"/>
	</g>
</g>
<g>
	<g>
		<path d="M457.98,1809.7c0-29.28,0-58.55,0-87.83c0-3.86-6-3.87-6,0c0,29.28,0,58.55,0,87.83
			C451.98,1813.56,457.98,1813.57,457.98,1809.7L457.98,1809.7z"/>
	</g>
</g>
<g>
	<g>
		<path d="M591,1585.29c-0.61-1.45-1.38-2.81-2.27-4.1c-0.89-1.29-2.67-2-4.1-1.08c-1.28,0.83-2.03,2.72-1.08,4.1
			c0.9,1.29,1.66,2.65,2.27,4.1c0.62,1.45,2.86,1.88,4.1,1.08C591.43,1588.42,591.66,1586.84,591,1585.29L591,1585.29z"/>
	</g>
</g>
<g>
	<g>
		<path d="M457.76,1717.77c1.08-19.1,0.69-38.21-1.18-57.24c-0.37-3.81-6.38-3.85-6,0c1.87,19.04,2.27,38.14,1.18,57.24
			C451.54,1721.63,457.54,1721.62,457.76,1717.77L457.76,1717.77z"/>
	</g>
</g>
<g>
	<g>
		<path d="M455.69,1666.74c-0.84-21.37-2.01-42.73-2.33-64.12c-0.06-3.86-6.06-3.87-6,0c0.32,21.39,1.49,42.75,2.33,64.12
			C449.84,1670.59,455.84,1670.61,455.69,1666.74L455.69,1666.74z"/>
	</g>
</g>
<g>
	<g>
		<path d="M889.29,1862.95c-36.69-25.05-69.67-54.97-99.57-87.76c-2.61-2.86-6.84,1.39-4.24,4.24
			c30.24,33.18,63.67,63.36,100.78,88.7C889.46,1870.31,892.47,1865.11,889.29,1862.95L889.29,1862.95z"/>
	</g>
</g>
<g>
	<g>
		<path d="M898.3,1865.5c2.46-67.29,4.25-134.63,3.68-201.97c-0.17-19.36-0.53-38.72-1.11-58.07c-0.12-3.85-6.12-3.87-6,0
			c2.02,67.22,1.3,134.47-0.63,201.68c-0.56,19.46-1.22,38.91-1.93,58.36C892.16,1869.36,898.16,1869.35,898.3,1865.5L898.3,1865.5z
			"/>
	</g>
</g>
<g>
	<g>
		<path d="M784.42,1775.14c-7.75-71.1,3.97-142.25,3.55-213.43c-0.02-3.86-6.02-3.87-6,0c0.42,71.18-11.29,142.32-3.55,213.43
			C778.84,1778.94,784.84,1778.98,784.42,1775.14L784.42,1775.14z"/>
	</g>
</g>
<g>
	<g>
		<path d="M906.68,2252.93c-14.03-80.01-13.84-161.58-10.51-242.49c0.94-22.8,2.13-45.59,3.32-68.38c0.2-3.86-5.8-3.85-6,0
			c-4.27,81.55-8.55,163.49-1.39,245c1.98,22.6,4.87,45.11,8.79,67.46C901.56,2258.32,907.34,2256.71,906.68,2252.93L906.68,2252.93
			z"/>
	</g>
</g>
<g>
	<g>
		<path d="M1223.09,2230.85c-0.73-56.26-1.52-112.58-6.78-168.64c-0.36-3.81-6.36-3.85-6,0c5.26,56.06,6.05,112.38,6.78,168.64
			C1217.14,2234.71,1223.14,2234.72,1223.09,2230.85L1223.09,2230.85z"/>
	</g>
</g>
<g>
	<g>
		<path d="M1218.58,2103.89c-3.06-66.23-3.07-132.55-2.8-198.84c0.02-3.86-5.98-3.87-6,0c-0.27,66.29-0.26,132.61,2.8,198.84
			C1212.76,2107.73,1218.76,2107.76,1218.58,2103.89L1218.58,2103.89z"/>
	</g>
</g>
<g>
	<g>
		<path d="M1195.78,1905.91c-32.45,4.42-64.79,9.65-97.33,13.39c-31.48,3.62-63.11,4.6-94.66,7.4c-3.82,0.34-3.85,6.34,0,6
			c32.19-2.86,64.47-3.87,96.59-7.63c32.42-3.79,64.65-8.97,96.99-13.38C1201.18,1911.18,1199.56,1905.4,1195.78,1905.91
			L1195.78,1905.91z"/>
	</g>
</g>
<g>
	<g>
		<path d="M1664.24,1854.83c-14.61-2.03-29.79-0.69-44.49-0.12c-14.9,0.57-29.8,1.21-44.69,2.07c-30.73,1.77-61.31,5.8-91.86,9.48
			c-30.56,3.68-60.99,8.64-91.56,12.12c-14.96,1.7-29.8,4.05-44.75,5.81c-14.49,1.7-28.97,3.55-43.43,5.51
			c-34.13,4.62-68.18,9.9-102.18,15.38c-3.8,0.61-2.19,6.4,1.6,5.79c29.85-4.81,59.72-9.47,89.66-13.66
			c15.5-2.17,31.03-4.21,46.57-6.09c14.52-1.76,28.96-4.01,43.47-5.75c29.7-3.56,59.3-8.03,88.99-11.69
			c29.83-3.67,59.83-8.02,89.81-10.05c16.84-1.14,33.7-1.94,50.57-2.62c16.58-0.67,34.19-2.69,50.69-0.4
			C1666.43,1861.14,1668.06,1855.36,1664.24,1854.83L1664.24,1854.83z"/>
	</g>
</g>
<g>
	<g>
		<path d="M1021.1,1934.68c-69.24,3.71-138.33,9.81-207.28,17.09c-69.01,7.29-137.88,15.75-206.76,24.13
			c-38.98,4.74-77.95,9.49-116.93,14.23c-3.78,0.46-3.83,6.47,0,6c69.17-8.42,138.33-16.95,207.52-25.19
			c68.86-8.2,137.78-15.95,206.87-21.97c38.81-3.38,77.67-6.21,116.57-8.29C1024.94,1940.47,1024.96,1934.47,1021.1,1934.68
			L1021.1,1934.68z"/>
	</g>
</g>
<g>
	<g>
		<path d="M470.76,1965.39c8.78,10.95,18.52,21,29.19,30.12c2.92,2.49,7.18-1.73,4.24-4.24c-10.67-9.12-20.41-19.17-29.19-30.12
			C472.59,1958.14,468.37,1962.41,470.76,1965.39L470.76,1965.39z"/>
	</g>
</g>
<g>
	<g>
		<path d="M1111.49,1768.79c0.24,10.15,12.5,15.21,19.88,19.79c10.95,6.8,22.04,13.37,33.25,19.73
			c22.43,12.71,45.38,24.48,68.75,35.36c3.48,1.62,6.53-3.55,3.03-5.18c-21.09-9.82-41.84-20.36-62.17-31.66
			c-9.89-5.5-19.69-11.17-29.38-17.02c-5.11-3.09-10.2-6.22-15.26-9.4c-4.11-2.59-11.97-5.96-12.1-11.61
			C1117.4,1764.94,1111.4,1764.92,1111.49,1768.79L1111.49,1768.79z"/>
	</g>
</g>
<g>
	<g>
		<path d="M1247.45,1842.42c-2.91-75.81-4.94-151.66-6.07-227.53c-0.32-21.53-0.56-43.07-0.74-64.6c-0.03-3.86-6.03-3.87-6,0
			c0.63,75.87,2.13,151.73,4.54,227.56c0.68,21.52,1.44,43.05,2.27,64.57C1241.6,1846.27,1247.6,1846.29,1247.45,1842.42
			L1247.45,1842.42z"/>
	</g>
</g>
<g>
	<g>
		<path d="M1115.4,1768.84c-7.47-2.41-9.45-14.6-10.62-21.26c-1.79-10.17-2.38-19.98-2.69-30.3c-0.61-19.79-1.2-39.59-1.69-59.39
			c-1-40.21-1.57-80.43-1.11-120.65c0.04-3.86-5.96-3.86-6,0c-0.39,33.97-0.05,67.93,0.68,101.89c0.36,16.8,0.81,33.6,1.29,50.39
			c0.25,8.59,0.51,17.18,0.77,25.77c0.24,7.76,0.04,15.68,1.11,23.38c1.1,7.87,2.41,16.31,5.42,23.68
			c2.31,5.65,5.2,10.32,11.25,12.27C1117.49,1775.81,1119.07,1770.02,1115.4,1768.84L1115.4,1768.84z"/>
	</g>
</g>
<g>
	<g>
		<path d="M1199.91,1529.85c-2.6-1.44-5.2-2.88-7.81-4.31c-3.39-1.86-6.42,3.32-3.03,5.18c2.61,1.43,5.21,2.87,7.81,4.31
			C1200.26,1536.9,1203.29,1531.72,1199.91,1529.85L1199.91,1529.85z"/>
	</g>
</g>
<g>
	<g>
		<path d="M903.74,1611.55c-0.92-19.73-1.84-39.47-2.77-59.2c-0.18-3.84-6.18-3.87-6,0c0.92,19.73,1.84,39.47,2.77,59.2
			C897.92,1615.4,903.92,1615.42,903.74,1611.55L903.74,1611.55z"/>
	</g>
</g>
<g>
	<g>
		<path d="M1424.53,1777.76c4.9,2.88,9.54,6.13,14.19,9.39c4.99,3.51,11,6.32,15.67,10.17c7.99,6.58,17.84,10.78,27.4,14.76
			c3.42,1.43,6.65,3.32,9.83,0.41c3.47-3.18,3.87-9.01,5.69-13.12c4.48-10.15,5.11-20.57,6.05-31.5
			c4.29-49.89,5.52-100.19,6.62-150.24c0.63-28.57,0.82-57.14,1.35-85.71c0.07-3.86-5.93-3.86-6,0
			c-0.87,46.74-1.74,93.43-3.1,140.15c-0.68,23.18-1.45,46.35-2.9,69.5c-0.71,11.34-1.64,22.66-2.6,33.98
			c-0.43,5.11-0.96,10.25-2.42,15.19c-0.78,2.62-1.97,5.01-3.03,7.52c-0.97,2.3-1.33,5.45-2.6,7.53c-1.99,3.28-5.67,0.36-8.6-0.92
			c-2.67-1.17-5.32-2.39-7.93-3.67c-2.71-1.33-5.38-2.74-8.01-4.21c-2.63-1.48-4.42-3.46-6.81-5.15c-4.5-3.18-9.59-5.67-14.14-8.86
			c-5.14-3.59-10.22-7.22-15.63-10.4C1424.22,1770.61,1421.2,1775.8,1424.53,1777.76L1424.53,1777.76z"/>
	</g>
</g>
<g>
	<g>
		<path d="M1327.88,1712.82c13.41,8.58,26.73,17.28,39.98,26.1c3.22,2.15,6.23-3.05,3.03-5.18c-13.25-8.82-26.58-17.52-39.98-26.1
			C1327.65,1705.55,1324.64,1710.75,1327.88,1712.82L1327.88,1712.82z"/>
	</g>
</g>
<g>
	<g>
		<path d="M1506.89,1530.83c3.86,0,3.87-6,0-6C1503.03,1524.83,1503.03,1530.83,1506.89,1530.83L1506.89,1530.83z"/>
	</g>
</g>
<g>
	<g>
		<path d="M1508.33,1521.6c-9.27-3.69-18.46-7.56-27.62-11.52c-3.51-1.51-6.57,3.65-3.03,5.18c9.63,4.16,19.3,8.24,29.05,12.12
			C1510.32,1528.81,1511.88,1523.01,1508.33,1521.6L1508.33,1521.6z"/>
	</g>
</g>
<g>
	<g>
		<path d="M1325.55,1705.51c1.97-60.86,5.94-121.64,7.39-182.53c0.09-3.86-5.91-3.86-6,0c-1.45,60.88-5.43,121.66-7.39,182.53
			C1319.43,1709.37,1325.43,1709.37,1325.55,1705.51L1325.55,1705.51z"/>
	</g>
</g>
<g>
	<g>
		<path d="M1444.2,1444.18c-1.27-0.52-2.55-1.03-3.82-1.55c-1.46-0.59-3.36,0.64-3.69,2.1c-0.4,1.74,0.53,3.06,2.1,3.69
			c1.27,0.52,2.55,1.03,3.82,1.55c1.46,0.59,3.36-0.64,3.69-2.1C1446.69,1446.14,1445.76,1444.82,1444.2,1444.18L1444.2,1444.18z"/>
	</g>
</g>
<g>
	<g>
		<path d="M1473.57,1519.78c43.75-2.56,87.53-4.57,131.35-5.05c2.75-0.03,4.38-4.34,1.51-5.59c-5-2.18-9.53-4.6-15.01-5.27
			c-2.53-0.31-4.03,3.53-2.12,5.12c4.54,3.77,9.76,5.48,15.62,5.74c2.87,0.12,4.23-4.32,1.51-5.59
			c-39.23-18.37-80.07-32.83-120.4-48.52c-3.6-1.4-5.16,4.4-1.59,5.79c39.85,15.49,80.21,29.76,118.97,47.91
			c0.5-1.86,1.01-3.73,1.51-5.59c-4.18-0.18-8.11-1.26-11.38-3.98c-0.71,1.71-1.41,3.41-2.12,5.12c4.3,0.52,8.08,2.75,11.99,4.45
			c0.5-1.86,1.01-3.73,1.51-5.59c-43.82,0.49-87.6,2.49-131.35,5.05C1469.74,1514,1469.71,1520,1473.57,1519.78L1473.57,1519.78z"/>
	</g>
</g>
<g>
	<g>
		<path d="M1107.75,1539.63c83.56-4.99,167.1-10.35,250.69-14.71c23.88-1.25,47.76-2.41,71.65-3.46c3.85-0.17,3.87-6.17,0-6
			c-83.58,3.69-167.09,8.74-250.6,13.83c-23.91,1.46-47.83,2.91-71.74,4.34C1103.91,1533.86,1103.89,1539.86,1107.75,1539.63
			L1107.75,1539.63z"/>
	</g>
</g>
<g>
	<g>
		<path d="M909.54,1555.63c63.97-5.44,127.9-11.41,191.97-15.57c3.83-0.25,3.86-6.25,0-6c-64.07,4.15-128,10.12-191.97,15.57
			C905.72,1549.95,905.68,1555.96,909.54,1555.63L909.54,1555.63z"/>
	</g>
</g>
<g>
	<g>
		<path d="M387.91,1619.59c66.81-12.03,134.02-22.18,201.33-30.97c66.16-8.64,132.5-15.83,198.92-22.16
			c37.66-3.58,75.34-6.89,113.04-10.05c3.82-0.32,3.85-6.32,0-6c-67.02,5.61-133.99,11.71-200.85,18.97
			c-67.13,7.29-134.14,15.76-200.9,25.89c-37.77,5.73-75.53,11.76-113.13,18.53C382.52,1614.48,384.13,1620.27,387.91,1619.59
			L387.91,1619.59z"/>
	</g>
</g>
<g>
	<g>
		<path d="M277.15,1533.44c43.73-6.36,86.62-17.35,130.33-23.77c3.81-0.56,2.19-6.34-1.6-5.79c-43.72,6.42-86.61,17.41-130.33,23.77
			C271.75,1528.21,273.36,1533.99,277.15,1533.44L277.15,1533.44z"/>
	</g>
</g>
<g>
	<g>
		<path d="M1206.86,1439.92c46.57-5.68,93.41-8.86,139.95-14.81c3.78-0.48,3.83-6.49,0-6c-46.54,5.95-93.38,9.13-139.95,14.81
			C1203.08,1434.38,1203.03,1440.38,1206.86,1439.92L1206.86,1439.92z"/>
	</g>
</g>
<g>
	<g>
		<path d="M894.39,1464.76c47.61-3.76,95.22-7.52,142.83-11.27c3.82-0.3,3.86-6.3,0-6c-47.61,3.75-95.22,7.51-142.83,11.27
			C890.56,1459.07,890.53,1465.07,894.39,1464.76L894.39,1464.76z"/>
	</g>
</g>
<g>
	<g>
		<path d="M771.19,1474.47c14.84-1.17,29.69-2.34,44.53-3.51c3.82-0.3,3.86-6.3,0-6c-14.84,1.17-29.69,2.34-44.53,3.51
			C767.37,1468.77,767.34,1474.78,771.19,1474.47L771.19,1474.47z"/>
	</g>
</g>
<g>
	<g>
		<path d="M672.53,1482.02c10.1-0.75,20.2-1.47,30.3-2.18c3.83-0.27,3.86-6.27,0-6c-10.1,0.7-20.2,1.43-30.3,2.18
			C668.7,1476.3,668.67,1482.3,672.53,1482.02L672.53,1482.02z"/>
	</g>
</g>
<g>
	<g>
		<path d="M557.43,1491.22c26.16-2.19,52.32-4.34,78.48-6.4c3.82-0.3,3.86-6.3,0-6c-26.17,2.06-52.33,4.21-78.48,6.4
			C553.61,1485.54,553.58,1491.54,557.43,1491.22L557.43,1491.22z"/>
	</g>
</g>
<g>
	<g>
		<path d="M1417.02,1522.66c14.98,0,29.96,0,44.94,0c3.86,0,3.87-6,0-6c-14.98,0-29.96,0-44.94,0
			C1413.16,1516.66,1413.15,1522.66,1417.02,1522.66L1417.02,1522.66z"/>
	</g>
</g>
<g>
	<g>
		<path d="M1457.17,1446.87c-5.52-2.1-11.07-4.1-16.67-5.99c-3.67-1.24-5.24,4.55-1.59,5.79c5.59,1.89,11.15,3.89,16.67,5.99
			C1459.19,1454.03,1460.75,1448.23,1457.17,1446.87L1457.17,1446.87z"/>
	</g>
</g>
<g>
	<g>
		<path d="M399.19,2309.88c31.48-3.72,62.99-7.86,93.53-16.63c3.7-1.06,2.13-6.86-1.6-5.79c-30.03,8.62-60.98,12.76-91.94,16.42
			C395.4,2304.33,395.36,2310.33,399.19,2309.88L399.19,2309.88z"/>
	</g>
</g>
<g>
	<g>
		<path d="M339.41,2321.89c10.49-6.09,22.28-8.46,34.21-9.76c3.8-0.41,3.84-6.42,0-6c-13,1.42-25.8,3.94-37.24,10.58
			C333.05,2318.65,336.06,2323.83,339.41,2321.89L339.41,2321.89z"/>
	</g>
</g>
<g>
	<g>
		<path d="M369.19,2313.13c8.85,0,17.7,0,26.55,0c3.86,0,3.87-6,0-6c-8.85,0-17.7,0-26.55,0
			C365.33,2307.13,365.32,2313.13,369.19,2313.13L369.19,2313.13z"/>
	</g>
</g>
<g>
	<g>
		<path d="M734.18,2291.04c56.71-5.09,111.77-20.21,167.65-30.37c3.79-0.69,2.19-6.47-1.6-5.79
			c-55.34,10.06-109.88,25.12-166.05,30.15C730.37,2285.38,730.33,2291.38,734.18,2291.04L734.18,2291.04z"/>
	</g>
</g>
<g>
	<g>
		<path d="M678.95,2291.93c15.53,0.95,31.08,0.79,46.6-0.23c3.83-0.25,3.86-6.25,0-6c-15.53,1.01-31.07,1.18-46.6,0.23
			C675.1,2285.69,675.11,2291.7,678.95,2291.93L678.95,2291.93z"/>
	</g>
</g>
<g>
	<g>
		<path d="M558.79,1557.58c1.05-18.59,2.1-37.19,3.15-55.78c0.99-17.56,0.92-35.6,4.48-52.87c3.46-16.79,5.54-32.94,5.37-50.14
			c-0.18-17.87-1.49-35.72-0.32-53.59c0.25-3.85-5.75-3.84-6,0c-1.17,17.86,0.14,35.72,0.32,53.59c0.09,8.25-0.08,16.52-0.89,24.74
			c-0.93,9.36-3.34,18.37-5.01,27.61c-3.01,16.61-3,33.85-3.94,50.66c-1.05,18.59-2.1,37.19-3.15,55.78
			C552.58,1561.44,558.58,1561.42,558.79,1557.58L558.79,1557.58z"/>
	</g>
</g>
<g>
	<g>
		<path d="M571.62,1336.2c-1.53-1.29-3.16-2.34-4.98-3.13c-1.43-0.62-3.29-0.47-4.1,1.08c-0.68,1.3-0.46,3.44,1.08,4.1
			c0.74,0.32,1.47,0.68,2.16,1.09c0.35,0.21,0.68,0.43,1.02,0.65c0.29,0.21,0.33,0.24,0.12,0.07c0.16,0.13,0.31,0.25,0.47,0.39
			c1.2,1.01,3.08,1.26,4.24,0C572.64,1339.32,572.9,1337.28,571.62,1336.2L571.62,1336.2z"/>
	</g>
</g>
<g>
	<g>
		<path d="M476.12,1314.54c-0.96,68.77-1.11,137.55-0.44,206.32c0.04,3.86,6.04,3.87,6,0c-0.67-68.77-0.52-137.55,0.44-206.32
			C482.17,1310.68,476.17,1310.67,476.12,1314.54L476.12,1314.54z"/>
	</g>
</g>
<g>
	<g>
		<path d="M705.45,1479.95c-0.02-1.39-0.03-2.78-0.04-4.17c-0.01-1.57-1.37-3.07-3-3c-1.61,0.07-3.01,1.32-3,3
			c0.01,1.39,0.02,2.78,0.04,4.17c0.02,1.57,1.37,3.07,3,3C704.06,1482.87,705.47,1481.63,705.45,1479.95L705.45,1479.95z"/>
	</g>
</g>
<g>
	<g>
		<path d="M1505.87,1470.16c-22.24-8.53-43.73-18.81-65.43-28.57c-1.75-0.79-3.27,1.8-1.51,2.59c21.94,9.87,43.67,20.25,66.15,28.88
			C1506.87,1473.74,1507.65,1470.84,1505.87,1470.16L1505.87,1470.16z"/>
	</g>
</g>
<g>
	<g>
		<path d="M1491.7,1461.15c-15.48-10.64-33.52-15.99-51.46-20.86c-3.73-1.01-5.32,4.77-1.6,5.79c17.48,4.75,34.94,9.89,50.03,20.26
			C1491.86,1468.52,1494.87,1463.32,1491.7,1461.15L1491.7,1461.15z"/>
	</g>
</g>
<g>
	<g>
		<path d="M1445.46,1521.46c11.2-1.74,22.4-3.48,33.6-5.23c3.8-0.59,2.19-6.37-1.6-5.79c-11.2,1.74-22.4,3.48-33.6,5.23
			C1440.06,1516.26,1441.68,1522.05,1445.46,1521.46L1445.46,1521.46z"/>
	</g>
</g>
<g>
	<g>
		<path d="M1205.97,1535.96c10.39,2.1,20.43,5.33,30.05,9.81c3.48,1.62,6.53-3.55,3.03-5.18c-10.09-4.7-20.57-8.21-31.48-10.42
			C1203.8,1529.41,1202.18,1535.19,1205.97,1535.96L1205.97,1535.96z"/>
	</g>
</g>
<g>
	<g>
		<path d="M1179.55,1533.66c8.03-0.08,15.99,0.5,23.92,1.83c3.78,0.63,5.4-5.15,1.59-5.79c-8.46-1.42-16.93-2.13-25.51-2.05
			C1175.69,1527.7,1175.68,1533.7,1179.55,1533.66L1179.55,1533.66z"/>
	</g>
</g>
<g>
	<g>
		<path d="M1034.88,1456c0.08-1.39,0.15-2.79,0.23-4.18c0.08-1.57-1.44-3.07-3-3c-1.7,0.08-2.91,1.32-3,3
			c-0.07,1.39-0.15,2.79-0.23,4.18c-0.09,1.57,1.44,3.07,3,3C1033.58,1458.92,1034.79,1457.68,1034.88,1456L1034.88,1456z"/>
	</g>
</g>
<g>
	<g>
		<path d="M1448.62,1490.67c-29.96-16.02-60.73-29.42-93.56-38.44c-3.73-1.02-5.32,4.76-1.6,5.79
			c32.33,8.88,62.61,22.05,92.12,37.83C1448.99,1497.68,1452.03,1492.5,1448.62,1490.67L1448.62,1490.67z"/>
	</g>
</g>
<g>
	<g>
		<path d="M1449.04,1486.17c-2.99-30.8-2.91-61.92-3.77-92.83c-0.86-30.89-1.72-61.78-2.58-92.67c-0.11-3.85-6.11-3.87-6,0
			c0.86,30.89,1.72,61.78,2.58,92.67c0.86,30.91,0.78,62.03,3.77,92.83C1443.41,1489.98,1449.41,1490.02,1449.04,1486.17
			L1449.04,1486.17z"/>
	</g>
</g>
<g>
	<g>
		<path d="M1443,1299.06c0-16.85,0-33.7,0-50.55c0-3.86-6-3.87-6,0c0,16.85,0,33.7,0,50.55C1437,1302.92,1443,1302.93,1443,1299.06
			L1443,1299.06z"/>
	</g>
</g>
<g>
	<g>
		<path d="M1440.94,1241.86c-1.88,0.3-3.79,0.34-5.68,0.27c-3.86-0.15-3.86,5.85,0,6c2.45,0.09,4.85-0.09,7.28-0.48
			c1.6-0.26,2.49-2.25,2.1-3.69C1444.16,1242.25,1442.54,1241.6,1440.94,1241.86L1440.94,1241.86z"/>
	</g>
</g>
<g>
	<g>
		<path d="M1350.17,1420.28c-9.58-66.71-5.27-134.38,0.83-201.2c0.35-3.84-5.65-3.82-6,0c-6.16,67.42-10.28,135.49-0.61,202.79
			C1344.93,1425.69,1350.72,1424.07,1350.17,1420.28L1350.17,1420.28z"/>
	</g>
</g>
<g>
	<g>
		<path d="M1351.73,1430.25c-0.22-1.33-0.44-2.65-0.65-3.98c-0.25-1.55-2.27-2.56-3.69-2.1c-1.69,0.55-2.36,2.02-2.1,3.69
			c0.21,1.33,0.43,2.66,0.65,3.98c0.26,1.55,2.26,2.56,3.69,2.1C1351.32,1433.4,1352.01,1431.91,1351.73,1430.25L1351.73,1430.25z"
			/>
	</g>
</g>
<g>
	<g>
		<path d="M1355.81,1451.42c-1.33-6.15-2.53-12.32-3.62-18.51c-0.67-3.8-6.45-2.19-5.79,1.6c1.09,6.19,2.29,12.37,3.62,18.51
			C1350.84,1456.78,1356.63,1455.19,1355.81,1451.42L1355.81,1451.42z"/>
	</g>
</g>
<g>
	<g>
		<path d="M484.24,1289.21c1.54-19.98,3.08-39.97,4.63-59.95c0.3-3.85-5.7-3.83-6,0c-1.54,19.98-3.08,39.97-4.63,59.95
			C477.94,1293.06,483.94,1293.04,484.24,1289.21L484.24,1289.21z"/>
	</g>
</g>
<g>
	<g>
		<path d="M482.24,1315.01c0.41-5.34,0.82-10.69,1.24-16.03c0.3-3.85-5.7-3.83-6,0c-0.41,5.34-0.82,10.69-1.24,16.03
			C475.95,1318.86,481.95,1318.84,482.24,1315.01L482.24,1315.01z"/>
	</g>
</g>
<g>
	<g>
		<path d="M572.81,1339.63c-2.44-27.83-1.8-55.84,2.07-83.51c0.53-3.78-5.25-5.41-5.79-1.6c-3.95,28.23-4.77,56.7-2.28,85.1
			C567.14,1343.45,573.14,1343.49,572.81,1339.63L572.81,1339.63z"/>
	</g>
</g>
<g>
	<g>
		<path d="M573.06,1246.55c-30.42-7.35-61.17-13.19-92.17-17.52c-3.78-0.53-5.41,5.25-1.6,5.79c30.99,4.33,61.75,10.18,92.17,17.52
			C575.22,1253.24,576.82,1247.46,573.06,1246.55L573.06,1246.55z"/>
	</g>
</g>
<g>
	<g>
		<path d="M559.16,1553.35c-2.27-5.22-7.19-7.69-12.18-9.8c-7.43-3.15-14.91-6.18-22.37-9.27c-15.28-6.33-30.57-12.66-45.85-18.99
			c-3.56-1.48-5.12,4.33-1.6,5.79c13.45,5.57,26.9,11.14,40.35,16.71c6.72,2.78,13.45,5.57,20.17,8.35
			c5.59,2.31,13.66,4.17,16.29,10.24C555.52,1559.91,560.69,1556.86,559.16,1553.35L559.16,1553.35z"/>
	</g>
</g>
<g>
	<g>
		<path d="M387.5,1512.63c25.6-2.37,51.19-4.73,76.79-7.1c3.81-0.35,3.85-6.36,0-6c-25.6,2.37-51.19,4.73-76.79,7.1
			C383.68,1506.98,383.65,1512.98,387.5,1512.63L387.5,1512.63z"/>
	</g>
</g>
<g>
	<g>
		<path d="M895.05,1523.96c-0.44-5.67-4.32-9.18-9.22-11.6c-6.88-3.41-14.29-5.97-21.39-8.9c-16.46-6.78-32.92-13.56-49.39-20.34
			c-3.57-1.47-5.12,4.33-1.6,5.79c13.41,5.52,26.83,11.05,40.24,16.57c6.71,2.76,13.41,5.52,20.12,8.28
			c4.35,1.79,14.77,4.25,15.23,10.2C889.35,1527.79,895.35,1527.82,895.05,1523.96L895.05,1523.96z"/>
	</g>
</g>
<g>
	<g>
		<path d="M907.99,1291.83c0.36-20.57,0.43-41.13,0.21-61.7c-0.04-3.86-6.04-3.87-6,0c0.23,20.57,0.16,41.14-0.21,61.7
			C901.93,1295.69,907.93,1295.69,907.99,1291.83L907.99,1291.83z"/>
	</g>
</g>
<g>
	<g>
		<path d="M890.94,1522.65c8.59-66.24,14.01-132.87,16.26-199.63c0.13-3.86-5.87-3.86-6,0c-2.25,66.76-7.67,133.38-16.26,199.63
			C884.44,1526.47,890.45,1526.43,890.94,1522.65L890.94,1522.65z"/>
	</g>
</g>
<g>
	<g>
		<path d="M907.32,1220.74c-19.83-12.97-42.16-21.56-65.58-25.15c-3.78-0.58-5.41,5.2-1.6,5.79c22.96,3.52,44.7,11.82,64.15,24.54
			C907.53,1228.04,910.54,1222.85,907.32,1220.74L907.32,1220.74z"/>
	</g>
</g>
<g>
	<g>
		<path d="M817.43,1484.46c1.09-38.75-8.98-76.76-5.89-115.6c2.92-36.62,12.92-72.19,17.38-108.6c2.44-19.92,2.96-39.93,0.03-59.82
			c-0.56-3.81-6.34-2.19-5.79,1.59c5.36,36.38-2.01,72.81-8.8,108.47c-3.34,17.55-6.59,35.15-8.34,52.94
			c-1.82,18.47-1.33,36.8,0.54,55.25c2.22,21.89,5.49,43.7,4.87,65.76C811.32,1488.32,817.32,1488.32,817.43,1484.46L817.43,1484.46
			z"/>
	</g>
</g>
<g>
	<g>
		<path d="M638.81,1482.83c17.87,0,35.74,0,53.62,0c3.86,0,3.87-6,0-6c-17.87,0-35.74,0-53.62,0
			C634.95,1476.83,634.94,1482.83,638.81,1482.83L638.81,1482.83z"/>
	</g>
</g>
<g>
	<g>
		<path d="M699.88,1479.78c24.45-3.22,49.1-4.15,73.72-2.79c3.86,0.21,3.85-5.79,0-6c-24.62-1.36-49.27-0.42-73.72,2.79
			C696.11,1474.28,696.06,1480.28,699.88,1479.78L699.88,1479.78z"/>
	</g>
</g>
<g>
	<g>
		<path d="M1035.58,1455.64c22.41-0.65,44.72-2.79,66.86-6.38c3.8-0.62,2.19-6.4-1.59-5.79c-21.6,3.5-43.39,5.53-65.26,6.16
			C1031.73,1449.75,1031.72,1455.75,1035.58,1455.64L1035.58,1455.64z"/>
	</g>
</g>
<g>
	<g>
		<path d="M1202.39,1515c-0.48-7.07-7.44-8.97-13.17-10.83c-9.68-3.15-19.39-6.24-29.11-9.27c-19.75-6.17-39.58-12.11-59.47-17.83
			c-3.72-1.07-5.3,4.72-1.6,5.79c16.73,4.81,33.42,9.78,50.06,14.91c8.16,2.52,16.31,5.07,24.45,7.67c4.07,1.3,8.13,2.6,12.2,3.92
			c2.52,0.82,10.41,2.17,10.64,5.66C1196.65,1518.84,1202.65,1518.87,1202.39,1515L1202.39,1515z"/>
	</g>
</g>
<g>
	<g>
		<path d="M1207.91,1510.44c3.82-84.22,7.65-168.44,11.47-252.66c0.18-3.86-5.83-3.85-6,0c-3.82,84.22-7.65,168.44-11.47,252.66
			C1201.74,1514.3,1207.74,1514.29,1207.91,1510.44L1207.91,1510.44z"/>
	</g>
</g>
<g>
	<g>
		<path d="M1220.87,1257.7c0-10.21,0-20.43,0-30.64c0-3.86-6-3.87-6,0c0,10.21,0,20.43,0,30.64
			C1214.87,1261.56,1220.87,1261.57,1220.87,1257.7L1220.87,1257.7z"/>
	</g>
</g>
<g>
	<g>
		<path d="M1103.16,1476.78c2.75-41.31,3.64-82.71,2.66-124.1c-0.09-3.85-6.09-3.87-6,0c0.98,41.39,0.09,82.79-2.66,124.1
			C1096.91,1480.64,1102.91,1480.62,1103.16,1476.78L1103.16,1476.78z"/>
	</g>
</g>
<g>
	<g>
		<path d="M1109.76,1321.15c4.55-31.18,4.74-62.63,3.53-94.06c-0.15-3.85-6.15-3.87-6,0c1.19,30.86,1.15,61.85-3.31,92.47
			C1103.42,1323.33,1109.2,1324.96,1109.76,1321.15L1109.76,1321.15z"/>
	</g>
</g>
<g>
	<g>
		<path d="M1105.12,1348.73c0.93-4.69,1.79-9.38,2.59-14.09c0.64-3.78-5.14-5.4-5.79-1.6c-0.8,4.71-1.66,9.41-2.59,14.09
			C1098.58,1350.91,1104.36,1352.52,1105.12,1348.73L1105.12,1348.73z"/>
	</g>
</g>
<g>
	<g>
		<path d="M1120.1,1206.23c-1.15-0.1-2.31-0.2-3.46-0.3c-1.57-0.13-3.07,1.47-3,3c0.08,1.73,1.32,2.86,3,3
			c1.15,0.09,2.31,0.19,3.46,0.3c1.57,0.14,3.07-1.48,3-3C1123.02,1207.48,1121.78,1206.38,1120.1,1206.23L1120.1,1206.23z"/>
	</g>
</g>
<g>
	<g>
		<path d="M1217.22,1223.38c-1.48,0.23-2.97,0.34-4.46,0.38c-1.62,0.05-3,1.34-3,3c0,1.59,1.37,3.05,3,3
			c2.03-0.06,4.05-0.28,6.05-0.6c1.6-0.25,2.49-2.25,2.1-3.69C1220.44,1223.77,1218.82,1223.12,1217.22,1223.38L1217.22,1223.38z"/>
	</g>
</g>
<g>
	<g>
		<path d="M1115.82,1234.78c0.73-8.2,1.46-16.39,2.2-24.59c0.34-3.84-5.66-3.82-6,0c-0.73,8.2-1.46,16.39-2.2,24.59
			C1109.47,1238.63,1115.48,1238.6,1115.82,1234.78L1115.82,1234.78z"/>
	</g>
</g>
<g>
	<g>
		<path d="M1210.07,1296.4c87.08-3.72,173.94-11.12,260.84-17.62c11.84-0.89,23.73-2.12,35.6-2.59c11.25-0.45,22.61-1.88,33.87-1.18
			c3.34,0.21,4.13-5.23,0.8-5.89c-1.93-0.39-3.64-0.56-5.61-0.41c-3.18,0.23-4.3,5.13-0.8,5.89c1.94,0.42,3.62,0.58,5.61,0.41
			c3.11-0.27,4.38-5.27,0.8-5.89c-6.91-1.19-13.81-2.39-20.72-3.58c-3.78-0.65-5.4,5.13-1.6,5.79c6.91,1.19,13.81,2.39,20.72,3.58
			c0.27-1.96,0.53-3.93,0.8-5.89c-1.35,0.24-2.69,0.17-4.02-0.2c-0.27,1.96-0.53,3.93-0.8,5.89c1.35-0.21,2.69-0.14,4.02,0.2
			c0.27-1.96,0.53-3.93,0.8-5.89c-9.86-0.61-19.64,0.71-29.48,1.09c-10.71,0.41-21.4,1.31-32.09,2.1
			c-21.72,1.61-43.43,3.28-65.14,4.95c-43.4,3.34-86.8,6.66-130.24,9.36c-24.44,1.52-48.89,2.84-73.36,3.89
			C1206.22,1290.57,1206.2,1296.57,1210.07,1296.4L1210.07,1296.4z"/>
	</g>
</g>
<g>
	<g>
		<path d="M1102.64,1301.33c3.25-0.15,6.5-0.3,9.75-0.44c3.85-0.17,3.87-6.17,0-6c-3.25,0.15-6.5,0.29-9.75,0.44
			C1098.8,1295.5,1098.77,1301.5,1102.64,1301.33L1102.64,1301.33z"/>
	</g>
</g>
<g>
	<g>
		<path d="M798.74,1327.59c8.47-1.82,16.93-3.71,25.39-5.6c3.77-0.84,2.17-6.63-1.6-5.79c-8.46,1.9-16.91,3.79-25.39,5.6
			C793.37,1322.62,794.97,1328.4,798.74,1327.59L798.74,1327.59z"/>
	</g>
</g>
<g>
	<g>
		<path d="M532.37,1335.68c27.27,4.19,53.88,1.74,81.08-1.55c27.34-3.31,54.8-6.23,82.37-4.92c3.86,0.18,3.85-5.82,0-6
			c-26.93-1.28-53.75,1.48-80.45,4.69c-27.23,3.28-54.08,6.19-81.41,1.99C530.18,1329.31,528.56,1335.09,532.37,1335.68
			L532.37,1335.68z"/>
	</g>
</g>
<g>
	<g>
		<path d="M415.19,1298.71c24.18,2.21,46.1,13.34,68.24,22.42c3.57,1.46,5.12-4.34,1.6-5.79c-22.74-9.33-45.01-20.36-69.84-22.63
			C411.35,1292.36,411.37,1298.36,415.19,1298.71L415.19,1298.71z"/>
	</g>
</g>
<g>
	<g>
		<path d="M1446.06,1254.64c0-18.38,0-36.77,0-55.15c0-3.86-6-3.87-6,0c0,18.38,0,36.77,0,55.15
			C1440.06,1258.5,1446.06,1258.51,1446.06,1254.64L1446.06,1254.64z"/>
	</g>
</g>
<g>
	<g>
		<path d="M1445.55,1194.45c-25.98-6.43-52.43-10.67-79.12-12.72c-3.85-0.3-3.83,5.71,0,6c26.16,2.01,52.06,6.2,77.52,12.51
			C1447.7,1201.17,1449.3,1195.38,1445.55,1194.45L1445.55,1194.45z"/>
	</g>
</g>
<g>
	<g>
		<path d="M1352.39,1220.17c3.53-15.35,5.2-30.98,4.93-46.73c-0.07-3.86-6.07-3.87-6,0c0.26,15.23-1.3,30.29-4.71,45.13
			C1345.74,1222.34,1351.53,1223.94,1352.39,1220.17L1352.39,1220.17z"/>
	</g>
</g>
<g>
	<g>
		<path d="M401.43,1298.06c21.9-2.57,43.85-4.55,65.85-5.96c3.83-0.24,3.86-6.25,0-6c-22,1.41-43.95,3.39-65.85,5.96
			C397.64,1292.51,397.6,1298.51,401.43,1298.06L401.43,1298.06z"/>
	</g>
</g>
<g>
	<g>
		<path d="M569.8,1279.69c78.71-6.23,157.42-12.47,236.13-18.7c3.82-0.3,3.86-6.31,0-6c-78.71,6.23-157.42,12.47-236.13,18.7
			C565.98,1273.99,565.94,1279.99,569.8,1279.69L569.8,1279.69z"/>
	</g>
</g>
<g>
	<g>
		<path d="M909.94,1249.43c63.43,1.32,126.86-3.29,189.45-13.66c3.8-0.63,2.19-6.41-1.6-5.79
			c-62.05,10.28-124.97,14.75-187.85,13.45C906.07,1243.35,906.07,1249.35,909.94,1249.43L909.94,1249.43z"/>
	</g>
</g>
<g>
	<g>
		<path d="M1213.88,1229.1c43.54-9.59,88.14-13.3,132.66-11.13c3.86,0.19,3.85-5.81,0-6c-45.05-2.2-90.21,1.65-134.26,11.34
			C1208.52,1224.14,1210.11,1229.93,1213.88,1229.1L1213.88,1229.1z"/>
	</g>
</g>
<g>
	<g>
		<path d="M1116.4,1230.9c-3.52-17.99-4.2-36.28-2.19-54.5c0.42-3.83-5.58-3.8-6,0c-2.08,18.76-1.22,37.57,2.4,56.1
			C1111.36,1236.28,1117.14,1234.68,1116.4,1230.9L1116.4,1230.9z"/>
	</g>
</g>
<g>
	<g>
		<path d="M1221.64,1230.34c-5-9.64-7.93-20-8.71-30.83c-0.27-3.83-6.28-3.86-6,0c0.85,11.92,4.03,23.25,9.53,33.86
			C1218.23,1236.79,1223.41,1233.76,1221.64,1230.34L1221.64,1230.34z"/>
	</g>
</g>
<g>
	<g>
		<path d="M1117.61,1175.06c9.23-2.73,20.1-0.67,29.47,0.48c10.64,1.3,21.25,2.79,31.83,4.54c10.12,1.67,20.2,3.56,30.22,5.75
			c2.26,0.49,5.93,0.6,6.22,3.6c0.18,1.79-1.54,3.75-2.56,5.01c-2.14,2.65-4.74,4.89-6.87,7.55c-2.39,2.99,1.83,7.26,4.24,4.24
			c4.29-5.35,13.57-11.66,10.65-19.69c-1.77-4.88-5.51-5.5-10.09-6.5c-6.56-1.44-13.15-2.74-19.76-3.94
			c-12.64-2.3-25.36-4.19-38.1-5.83c-11.71-1.51-25.24-4.42-36.84-0.99C1112.32,1170.37,1113.9,1176.16,1117.61,1175.06
			L1117.61,1175.06z"/>
	</g>
</g>
<g>
	<g>
		<path d="M1227.65,1223.41c-7.53-7.67-10.94-17.86-9.83-28.52c0.4-3.84-5.6-3.81-6,0c-1.26,12.17,3.04,24.05,11.59,32.76
			C1226.12,1230.41,1230.36,1226.17,1227.65,1223.41L1227.65,1223.41z"/>
	</g>
</g>
<g>
	<g>
		<path d="M906.87,1219.72c-24.98-2.58-49.71-6.96-74.07-13.07c-3.75-0.94-5.34,4.85-1.6,5.79c24.88,6.24,50.15,10.65,75.67,13.28
			C910.7,1226.12,910.68,1220.12,906.87,1219.72L906.87,1219.72z"/>
	</g>
</g>
<g>
	<g>
		<path d="M1536.68,1268.57c-32.82-18.41-67.67-32.96-103.84-43.34c-3.72-1.07-5.31,4.72-1.6,5.79
			c35.69,10.24,70.03,24.56,102.41,42.73C1537.02,1275.64,1540.05,1270.46,1536.68,1268.57L1536.68,1268.57z"/>
	</g>
</g>
<g>
	<g>
		<path d="M1213.46,1268.64c2.99-0.44,5.97-0.88,8.96-1.31c1.6-0.24,2.49-2.27,2.1-3.69c-0.47-1.72-2.08-2.33-3.69-2.1
			c-2.99,0.44-5.97,0.88-8.96,1.31c-1.6,0.24-2.49,2.27-2.1,3.69C1210.25,1268.26,1211.85,1268.87,1213.46,1268.64L1213.46,1268.64z
			"/>
	</g>
</g>
<g>
	<g>
		<path d="M1081.15,1286.29c8.94-0.71,17.86-1.62,26.77-2.66c3.79-0.44,3.83-6.45,0-6c-8.91,1.04-17.83,1.95-26.77,2.66
			C1077.32,1280.6,1077.29,1286.6,1081.15,1286.29L1081.15,1286.29z"/>
	</g>
</g>
<g>
	<g>
		<path d="M1061.8,1287.5c1.16-0.06,2.31-0.12,3.47-0.19c1.56-0.09,3.08-1.32,3-3c-0.07-1.55-1.32-3.09-3-3
			c-1.16,0.06-2.31,0.13-3.47,0.19c-1.56,0.08-3.08,1.32-3,3C1058.87,1286.06,1060.13,1287.59,1061.8,1287.5L1061.8,1287.5z"/>
	</g>
</g>
<g>
	<g>
		<path d="M941.19,1293.62c39.21-3.36,78.59-3.42,117.84-5.97c3.83-0.25,3.86-6.25,0-6c-39.25,2.55-78.63,2.61-117.84,5.97
			C937.37,1287.94,937.34,1293.95,941.19,1293.62L941.19,1293.62z"/>
	</g>
</g>
<g>
	<g>
		<path d="M906.47,1296.16c8.41-0.79,16.84-1.39,25.28-1.74c3.85-0.16,3.87-6.16,0-6c-8.44,0.34-16.87,0.95-25.28,1.74
			C902.65,1290.52,902.62,1296.52,906.47,1296.16L906.47,1296.16z"/>
	</g>
</g>
<g>
	<g>
		<path d="M571.53,1338.19c65.8-4.73,131.27-13.04,196.52-22.57c18.66-2.72,37.31-5.55,55.95-8.42c3.8-0.59,2.19-6.37-1.6-5.79
			c-83.28,12.81-166.79,24.72-250.88,30.77C567.7,1332.46,567.67,1338.46,571.53,1338.19L571.53,1338.19z"/>
	</g>
</g>
<g>
	<g>
		<path d="M693.93,1328.11c115.55-2.1,230.98-9.64,345.81-22.68c32-3.63,63.95-7.7,95.84-12.17c3.81-0.53,2.19-6.32-1.6-5.79
			c-113.86,15.94-228.46,26.51-343.31,31.62c-32.23,1.44-64.49,2.43-96.75,3.02C690.07,1322.18,690.06,1328.18,693.93,1328.11
			L693.93,1328.11z"/>
	</g>
</g>
<g>
	<g>
		<path d="M1055.49,1305.57c29.64-0.79,59.28-1.58,88.92-2.37c14.2-0.38,28.41-0.62,42.6-1.16c12.3-0.47,24.62-1.84,35.52-7.98
			c3.36-1.9,0.34-7.08-3.03-5.18c-11.23,6.32-24.11,6.94-36.7,7.29c-14.11,0.4-28.22,0.75-42.34,1.13
			c-28.32,0.76-56.64,1.51-84.97,2.27C1051.63,1299.68,1051.62,1305.68,1055.49,1305.57L1055.49,1305.57z"/>
	</g>
</g>
<g>
	<g>
		<path class="st0" d="M945.19,1294.44c1.93,0,1.93-3,0-3C943.26,1291.44,943.26,1294.44,945.19,1294.44L945.19,1294.44z"/>
	</g>
</g>
<g>
	<g>
		<path class="st0" d="M925.28,1288.31c14.3,0,28.6,0,42.89,0c1.93,0,1.93-3,0-3c-14.3,0-28.6,0-42.89,0
			C923.35,1285.31,923.34,1288.31,925.28,1288.31L925.28,1288.31z"/>
	</g>
</g>
<g>
	<g>
		<path class="st0" d="M920.63,1298.27c28.88,1.98,57.82,0.07,86.19-5.65c1.89-0.38,1.09-3.27-0.8-2.89
			c-28.12,5.66-56.79,7.5-85.4,5.54C918.7,1295.14,918.71,1298.14,920.63,1298.27L920.63,1298.27z"/>
	</g>
</g>
<g>
	<g>
		<path class="st0" d="M937.59,1290.51c24.78-2.15,49.56-4.29,74.34-6.44c3.84-0.33,3.88-5.72,0-6
			c-21.94-1.58-43.89-0.41-65.55,3.39c-3.54,0.62-2.35,5.64,0.8,5.89c27.84,2.26,55.77,0.65,83.19-4.66
			c3.79-0.73,2.18-6.52-1.59-5.79c-26.89,5.22-54.29,6.67-81.59,4.45c0.27,1.96,0.53,3.93,0.8,5.89c21.13-3.7,42.57-4.72,63.96-3.17
			c0-2,0-4,0-6c-24.78,2.15-49.56,4.29-74.34,6.44C933.78,1284.84,933.74,1290.84,937.59,1290.51L937.59,1290.51z"/>
	</g>
</g>
<g>
	<g>
		<path class="st0" d="M939.22,1298.64c24.78-3.04,49.71-4.76,74.68-5.05c12.15-0.14,24.31,0.06,36.45,0.58
			c11.45,0.5,22.49,1.07,33.16-3.81c5.6-2.56,2.58-11.21-3.03-11.18c-14.1,0.08-28.2,0.15-42.31,0.23
			c1.01,3.73,2.02,7.45,3.03,11.18c13.2-5.91,27.49-8.32,41.9-7.58c7.72,0.4,7.7-11.61,0-12c-16.62-0.85-32.8,2.43-47.96,9.22
			c-5.63,2.52-2.56,11.21,3.03,11.18c14.1-0.08,28.2-0.15,42.31-0.23c-1.01-3.73-2.02-7.45-3.03-11.18
			c-9.74,4.45-21.69,2.34-32.03,1.97c-11.82-0.42-23.65-0.54-35.47-0.33c-23.65,0.41-47.26,2.11-70.74,4.99
			C931.65,1287.57,931.56,1299.58,939.22,1298.64L939.22,1298.64z"/>
	</g>
</g>
<g>
	<g>
		<path class="st0" d="M935.99,1282.79c-6.66,1.45-13.31,2.89-19.97,4.34c-7.54,1.64-4.35,13.21,3.19,11.57
			c6.66-1.45,13.31-2.89,19.97-4.34C946.72,1292.73,943.53,1281.16,935.99,1282.79L935.99,1282.79z"/>
	</g>
</g>
<g>
	<g>
		<path class="st0" d="M741.5,1314.92c20.26,3.31,40.28,0.71,59.03-7.63c5.8-2.58,2.4-10.97-3.03-11.18
			c-14.46-0.56-27.18,5.96-40.69,10.01c-15.71,4.71-31.64,2.51-47.51-0.1c-7.55-1.24-10.8,10.32-3.19,11.57
			c16.18,2.65,32.75,5.24,48.98,1.43c14.23-3.34,27.44-11.5,42.41-10.92c-1.01-3.73-2.02-7.45-3.03-11.18
			c-15.53,6.91-33.01,9.16-49.78,6.42C737.13,1302.12,733.88,1313.68,741.5,1314.92L741.5,1314.92z"/>
	</g>
</g>
<g>
	<g>
		<path class="st0" d="M749.11,1303.79c-28.6,0-57.19,0-85.79,0c-7.72,0-7.73,12,0,12c28.6,0,57.19,0,85.79,0
			C756.83,1315.79,756.84,1303.79,749.11,1303.79L749.11,1303.79z"/>
	</g>
</g>
<g>
	<g>
		<path class="st0" d="M1087.66,1286.68c7.72,0,7.73-12,0-12C1079.94,1274.68,1079.93,1286.68,1087.66,1286.68L1087.66,1286.68z"/>
	</g>
</g>
<g>
	<g>
		<path class="st0" d="M1145.87,1283.87c-10.21,0-20.43,0-30.64,0c-7.72,0-7.73,12,0,12c10.21,0,20.43,0,30.64,0
			C1153.59,1295.87,1153.61,1283.87,1145.87,1283.87L1145.87,1283.87z"/>
	</g>
</g>
<g>
	<g>
		<path class="st1" d="M1105.14,1340.51c-0.53-6.96,0.67-13.6,3.81-19.84c1.73-3.44-3.44-6.48-5.18-3.03
			c-3.6,7.16-5.24,14.86-4.63,22.87C1099.43,1344.33,1105.43,1344.36,1105.14,1340.51L1105.14,1340.51z"/>
	</g>
</g>
<g>
	<g>
		<path class="st1" d="M901.71,1289.28c-0.51,0.51-1.02,1.02-1.53,1.53c-0.54,0.54-0.88,1.35-0.88,2.12c0,0.74,0.33,1.61,0.88,2.12
			c0.57,0.52,1.32,0.91,2.12,0.88c0.8-0.04,1.55-0.3,2.12-0.88c0.51-0.51,1.02-1.02,1.53-1.53c0.54-0.54,0.88-1.35,0.88-2.12
			c0-0.74-0.33-1.61-0.88-2.12c-0.57-0.52-1.32-0.91-2.12-0.88C903.03,1288.44,902.28,1288.71,901.71,1289.28L901.71,1289.28z"/>
	</g>
</g>
<g>
	<g>
		<path class="st0" d="M840.39,1211.95c9.42,1.51,17.76,5.53,24.66,12.14c0.2-1.57,0.4-3.14,0.61-4.71
			c-6.46,3.6-13.74,0.81-19.65-2.62c-3.65-2.12-7.88-4.94-11.93-2.03c-4,2.87-3.7,9.04-3.85,13.4c-0.22,6.5,0.28,12.94,1.21,19.36
			c0.43,2.96,5.19,2.76,5.79,0c2.46-11.38,4.92-22.75,7.38-34.13c-1.83,0.24-3.66,0.48-5.48,0.72c3.3,4.51,6.6,9.02,9.89,13.53
			c2.23,3.05,7.35,0.25,5.18-3.03c-3.03-4.58-6.63-8.36-10.99-11.71c-0.5,1.86-1.01,3.73-1.51,5.59
			c16.01,1.16,32.03,2.37,48.03,3.62c-0.71-1.71-1.41-3.41-2.12-5.12c-3.62,4.25-8.17,8.02-13.62,9.62
			c-5.36,1.57-14.68-0.1-13.53-7.67c-0.96,0.73-1.93,1.47-2.89,2.2c5.71-0.75,11.02,1.23,14.34,6.07c2.17,3.17,7.37,0.17,5.18-3.03
			c-4.42-6.47-11.65-10.08-19.52-9.05c-1.19,0.16-2.68,0.81-2.89,2.2c-1.18,7.77,4.12,14.54,11.88,15.75
			c9.76,1.51,19.24-4.75,25.29-11.86c1.74-2.04,0.54-4.91-2.12-5.12c-16.01-1.25-32.02-2.46-48.03-3.62
			c-3.32-0.24-3.6,3.99-1.51,5.59c3.52,2.7,6.4,5.86,8.84,9.55c1.73-1.01,3.45-2.02,5.18-3.03c-3.3-4.51-6.6-9.02-9.89-13.53
			c-1.39-1.9-4.89-2.04-5.48,0.72c-2.46,11.38-4.92,22.75-7.38,34.13c1.93,0,3.86,0,5.79,0c-0.81-5.58-1.16-11.2-1.02-16.84
			c0.04-1.49-0.44-7.13,0.72-8.36c2.02-2.14,6.54,1.55,8.23,2.43c7.45,3.86,15.88,5.7,23.54,1.43c1.66-0.93,1.99-3.39,0.61-4.71
			c-7.6-7.27-16.92-12.02-27.31-13.68C838.21,1205.56,836.58,1211.34,840.39,1211.95L840.39,1211.95z"/>
	</g>
</g>
<g>
	<g>
		<path class="st1" d="M1357.87,1171.26c28.49,3.96,56.72,9.49,84.59,16.59c3.74,0.95,5.34-4.83,1.59-5.79
			c-27.87-7.1-56.1-12.63-84.59-16.59C1355.69,1164.95,1354.05,1170.73,1357.87,1171.26L1357.87,1171.26z"/>
	</g>
</g>
<g>
	<g>
		<path class="st1" d="M1446.06,1201.02c0-4.09,0-8.17,0-12.26c0-3.86-6-3.87-6,0c0,4.09,0,8.17,0,12.26
			C1440.06,1204.88,1446.06,1204.89,1446.06,1201.02L1446.06,1201.02z"/>
	</g>
</g>
<g>
	<g>
		<path class="st0" d="M1370.87,1189.54c4.84-2.92,10.44-3.51,15.68-1.23c0.24-1.83,0.48-3.66,0.72-5.48
			c-6.44,2.51-12.88,1.98-18.75-1.72c-0.77,1.83-1.54,3.66-2.31,5.48c14.61,5.77,30,8.81,45.7,9.16c-0.5-1.86-1.01-3.73-1.51-5.59
			c-4.73,2.8-10.34,2.14-14.27-1.73c-0.71,1.71-1.41,3.41-2.12,5.12c4.5-0.33,8.65,0.25,12.79,2.11c0.5-1.86,1.01-3.73,1.51-5.59
			c-8.96,1.2-17.24-0.88-24.54-6.22c0.2,1.57,0.4,3.14,0.61,4.71c3.91-4.58,10.39-5.9,15.89-3.39c3.12,1.43,4.37,3.58,6.19,6.28
			c0.68,1,4.82,5.97,6.18,4.9c0.97-0.26,1.95-0.51,2.92-0.77c-4.26-1.05-8.25-2.71-11.84-5.27c-1.42-1.01-2.88-2.21-4.08-3.48
			c-0.29-0.85-0.79-1.22-1.49-1.11c1.44,0.18,2.86,0.41,4.28,0.68c8.79,1.7,16.99,5.15,24.5,9.99c3.26,2.1,6.27-3.09,3.03-5.18
			c-6.23-4.01-12.97-7.17-20.11-9.2c-4.16-1.18-13.15-4.49-16.95-0.87c-7.81,7.43,15.34,19.99,21.07,20.22
			c4.05,0.16,5.95-4.17,4.03-7.6c-1.6-2.86-5.12-3.89-7.08-6.54c-1.39-1.89-2.49-3.71-4.36-5.19c-7.75-6.17-19.96-5.29-26.42,2.29
			c-1.35,1.58-1.03,3.51,0.61,4.71c8,5.85,17.74,8.36,27.57,7.04c2.53-0.34,4.6-4.21,1.51-5.59c-5.11-2.29-10.21-3.34-15.82-2.93
			c-2.5,0.18-4.07,3.2-2.12,5.12c5.81,5.73,14.5,6.83,21.54,2.67c2.59-1.53,1.44-5.53-1.51-5.59c-15.19-0.34-29.97-3.37-44.1-8.95
			c-3.27-1.29-5.07,3.74-2.31,5.48c7.08,4.47,15.56,5.37,23.38,2.33c2.08-0.81,3.35-4.34,0.72-5.48
			c-7.24-3.16-14.91-2.88-21.73,1.23C1364.54,1186.35,1367.55,1191.54,1370.87,1189.54L1370.87,1189.54z"/>
	</g>
</g>
<g>
	<g>
		<path class="st0" d="M1363.4,1188.7c3.86,0,3.87-6,0-6C1359.54,1182.7,1359.54,1188.7,1363.4,1188.7L1363.4,1188.7z"/>
	</g>
</g>
<g>
	<g>
		<path class="st0" d="M1365.74,1188.08c17.62,5.45,35.56,9.64,53.77,12.53c-0.44-1.67-0.88-3.34-1.32-5.01
			c-1.17,0.53-0.99,0.15,0.52-1.15c1-2.08,1.95-1.84,2.87,0.72c1.85,3.39,7.03,0.37,5.18-3.03c-3.59-6.58-14.33-7.87-16.37,0.79
			c-1.72,7.29,6.8,11.07,12.04,6.92c1.69-1.34,0.8-4.68-1.32-5.01c-18.21-2.89-36.16-7.07-53.77-12.53
			C1363.64,1181.15,1362.06,1186.94,1365.74,1188.08L1365.74,1188.08z"/>
	</g>
</g>
<g>
	<g>
		<path class="st0" d="M1433.87,1199.43c3.86,0,3.87-6,0-6C1430.01,1193.43,1430.01,1199.43,1433.87,1199.43L1433.87,1199.43z"/>
	</g>
</g>
<g>
	<g>
		<path class="st0" d="M1435.4,1194.83c3.86,0,3.87-6,0-6C1431.54,1188.83,1431.54,1194.83,1435.4,1194.83L1435.4,1194.83z"/>
	</g>
</g>
<g>
	<g>
		<path class="st0" d="M1429.28,1234.66c3.86,0,3.87-6,0-6C1425.42,1228.66,1425.41,1234.66,1429.28,1234.66L1429.28,1234.66z"/>
	</g>
</g>
<g>
	<g>
		<path class="st0" d="M1430.81,1230.06c3.86,0,3.87-6,0-6C1426.95,1224.06,1426.94,1230.06,1430.81,1230.06L1430.81,1230.06z"/>
	</g>
</g>
<g>
	<g>
		<path class="st0" d="M1436.94,1228.53c3.86,0,3.87-6,0-6C1433.08,1222.53,1433.07,1228.53,1436.94,1228.53L1436.94,1228.53z"/>
	</g>
</g>
<g>
	<g>
		<path class="st0" d="M1434.55,1230.28c-1.04,1.52-2.09,3.03-3.13,4.55c-0.89,1.3-0.28,3.39,1.08,4.1c1.53,0.81,3.15,0.31,4.1-1.08
			c1.04-1.52,2.09-3.03,3.13-4.55c0.89-1.3,0.28-3.39-1.08-4.1C1437.12,1228.4,1435.5,1228.9,1434.55,1230.28L1434.55,1230.28z"/>
	</g>
</g>
<g>
	<g>
		<path class="st0" d="M1432.34,1243.85c3.86,0,3.87-6,0-6C1428.48,1237.85,1428.47,1243.85,1432.34,1243.85L1432.34,1243.85z"/>
	</g>
</g>
<g>
	<g>
		<path class="st0" d="M1432.34,1249.98c3.86,0,3.87-6,0-6C1428.48,1243.98,1428.47,1249.98,1432.34,1249.98L1432.34,1249.98z"/>
	</g>
</g>
<g>
	<g>
		<path class="st0" d="M1432.34,1231.6c3.86,0,3.87-6,0-6C1428.48,1225.6,1428.47,1231.6,1432.34,1231.6L1432.34,1231.6z"/>
	</g>
</g>
<g>
	<g>
		<path class="st0" d="M1429.28,1245.38c3.86,0,3.87-6,0-6C1425.42,1239.38,1425.41,1245.38,1429.28,1245.38L1429.28,1245.38z"/>
	</g>
</g>
<g>
	<g>
		<path class="st0" d="M1101.45,1280.62c3.86,0,3.87-6,0-6C1097.59,1274.62,1097.58,1280.62,1101.45,1280.62L1101.45,1280.62z"/>
	</g>
</g>
<g>
	<g>
		<path class="st0" d="M1101.45,1285.21c3.86,0,3.87-6,0-6C1097.59,1279.21,1097.58,1285.21,1101.45,1285.21L1101.45,1285.21z"/>
	</g>
</g>
<g>
	<g>
		<path class="st0" d="M1096.85,1288.28c3.86,0,3.87-6,0-6C1092.99,1282.28,1092.98,1288.28,1096.85,1288.28L1096.85,1288.28z"/>
	</g>
</g>
<g>
	<g>
		<path class="st0" d="M1093.79,1285.21c3.86,0,3.87-6,0-6C1089.93,1279.21,1089.92,1285.21,1093.79,1285.21L1093.79,1285.21z"/>
	</g>
</g>
<g>
	<g>
		<path class="st0" d="M1099.91,1282.15c3.86,0,3.87-6,0-6C1096.05,1276.15,1096.05,1282.15,1099.91,1282.15L1099.91,1282.15z"/>
	</g>
</g>
<g>
	<g>
		<path class="st0" d="M1202.55,1263.77c3.86,0,3.87-6,0-6C1198.69,1257.77,1198.69,1263.77,1202.55,1263.77L1202.55,1263.77z"/>
	</g>
</g>
<g>
	<g>
		<path class="st0" d="M1225.53,1269.89c3.86,0,3.87-6,0-6C1221.67,1263.89,1221.66,1269.89,1225.53,1269.89L1225.53,1269.89z"/>
	</g>
</g>
<g>
	<g>
		<path class="st0" d="M796.6,1312.79c3.86,0,3.87-6,0-6C792.74,1306.79,792.73,1312.79,796.6,1312.79L796.6,1312.79z"/>
	</g>
</g>
<g>
	<g>
		<path class="st0" d="M810.38,1309.72c3.86,0,3.87-6,0-6C806.52,1303.72,806.52,1309.72,810.38,1309.72L810.38,1309.72z"/>
	</g>
</g>
<g>
	<g>
		<path class="st0" d="M791.99,1303.84c-5.42-0.03-10.16,1.88-14.08,5.6c-1.73,1.64-0.72,4.31,1.32,5.01
			c7.93,2.74,16.71,1.4,23.38-3.71c3.02-2.32,0.04-7.53-3.03-5.18c-5.55,4.25-12.14,5.4-18.76,3.11c0.44,1.67,0.88,3.34,1.32,5.01
			c2.81-2.66,5.98-3.86,9.84-3.84C795.85,1309.86,795.86,1303.86,791.99,1303.84L791.99,1303.84z"/>
	</g>
</g>
<g>
	<g>
		<path class="st0" d="M822.64,1306.66c3.86,0,3.87-6,0-6C818.78,1300.66,818.77,1306.66,822.64,1306.66L822.64,1306.66z"/>
	</g>
</g>
<g>
	<g>
		<path class="st0" d="M830.3,1311.26c3.86,0,3.87-6,0-6C826.44,1305.26,826.43,1311.26,830.3,1311.26L830.3,1311.26z"/>
	</g>
</g>
<g>
	<g>
		<path class="st0" d="M828.77,1308.19c3.86,0,3.87-6,0-6C824.91,1302.19,824.9,1308.19,828.77,1308.19L828.77,1308.19z"/>
	</g>
</g>
<g>
	<g>
		<path class="st0" d="M837.96,1216.28c3.86,0,3.87-6,0-6C834.1,1210.28,834.09,1216.28,837.96,1216.28L837.96,1216.28z"/>
	</g>
</g>
<g>
	<g>
		<path class="st0" d="M837.96,1216.28c3.86,0,3.87-6,0-6C834.1,1210.28,834.09,1216.28,837.96,1216.28L837.96,1216.28z"/>
	</g>
</g>
<g>
	<g>
		<path class="st0" d="M837.96,1214.74c3.86,0,3.87-6,0-6C834.1,1208.74,834.09,1214.74,837.96,1214.74L837.96,1214.74z"/>
	</g>
</g>
<g>
	<g>
		<path class="st0" d="M837.96,1213.21c3.86,0,3.87-6,0-6C834.1,1207.21,834.09,1213.21,837.96,1213.21L837.96,1213.21z"/>
	</g>
</g>
<g>
	<g>
		<path class="st0" d="M837.96,1211.68c3.86,0,3.87-6,0-6C834.1,1205.68,834.09,1211.68,837.96,1211.68L837.96,1211.68z"/>
	</g>
</g>
<g>
	<g>
		<path class="st0" d="M837.96,1208.62c3.86,0,3.87-6,0-6C834.1,1202.62,834.09,1208.62,837.96,1208.62L837.96,1208.62z"/>
	</g>
</g>
<g>
	<g>
		<path class="st0" d="M867.06,1219.34c3.86,0,3.87-6,0-6C863.2,1213.34,863.2,1219.34,867.06,1219.34L867.06,1219.34z"/>
	</g>
</g>
<g>
	<g>
		<path class="st1" d="M398.25,1615.01c-22.24-11.75-43.33-25.56-63.19-40.98c-9.58-7.43-18.87-15.22-27.94-23.27
			c-9.16-8.13-18.2-16.34-28.88-22.47c-3.36-1.92-6.38,3.26-3.03,5.18c11.03,6.32,20.18,14.95,29.67,23.3
			c9.07,7.98,18.38,15.68,27.94,23.05c19.66,15.15,40.45,28.77,62.4,40.37C398.64,1621.99,401.67,1616.82,398.25,1615.01
			L398.25,1615.01z"/>
	</g>
</g>
<g>
	<g>
		<path class="st1" d="M642.77,110.32c-4.15,71.78-16.97,142.95-38.17,211.66c-6,19.43-12.68,38.65-19.97,57.63
			c-0.83,2.16,0.93,5.1,3.14,5.54c78.43,15.44,158.04,24.8,237.92,27.8c22.8,0.86,45.62,1.18,68.43,1.02c5.79-0.04,5.8-9.04,0-9
			c-79.45,0.57-158.94-5-237.5-16.9c-22.24-3.37-44.39-7.25-66.46-11.59c1.05,1.85,2.1,3.69,3.14,5.54
			c25.98-67.6,43.68-138.18,52.81-210.01c2.6-20.49,4.47-41.06,5.66-61.67C652.1,104.53,643.1,104.55,642.77,110.32L642.77,110.32z"
			/>
	</g>
</g>
<g>
	<g>
		<path class="st1" d="M892.76,344.03c19.37,3.49,39.12,5.04,58.79,3.98c16.99-0.91,33.48-5.33,44.33-19.31
			c9.34-12.03,11.76-28.05,5.85-42.17c-6.58-15.72-21.91-23.31-37.77-26.9c-16.11-3.65-33.87-2.81-47.39,7.59
			c-13.04,10.03-19.78,25.94-22.14,41.85c-2.4,16.21-2.25,33.76,0.46,49.95c2.27,13.54,8.13,27.57,20.85,34.32
			c9.21,4.89,20.24,5.72,30.4,7.1c11.11,1.51,22.27,2.69,33.46,3.5c23.21,1.69,46.51,1.82,69.74,0.5c5.76-0.33,5.8-9.33,0-9
			c-34.93,1.98-70.05,0.7-104.7-4.22c-14.48-2.05-28.88-3.87-36.13-18.15c-5.57-10.97-6.15-24-6.4-36.06
			c-0.33-15.65-0.01-32.25,7.14-46.56c6.57-13.17,17.97-22.35,32.92-23.66c14.07-1.23,32.46,2.48,43.32,12.03
			c10.51,9.23,13.41,25.09,7.46,37.64c-7.59,16.02-23.87,21.5-40.49,22.49c-19.14,1.14-38.45-0.21-57.3-3.61
			C889.49,334.33,887.06,343,892.76,344.03L892.76,344.03z"/>
	</g>
</g>
<g>
	<g>
		<path class="st1" d="M1471.65,103.63c-3.67,79.28,19.1,158.18,8.15,237.35c-2.92,21.1-8.33,41.92-17.14,61.35
			c-2.37,5.23,5.38,9.82,7.77,4.54c33.32-73.44,18.84-154.96,12.3-232.23c-2-23.62-3.17-47.32-2.07-71.01
			C1480.92,97.84,1471.92,97.85,1471.65,103.63L1471.65,103.63z"/>
	</g>
</g>
<g>
	<g>
		<path class="st1" d="M1320.95,80.43c75.08,9.85,151.81-14.05,226.01,5.3c5.61,1.46,8-7.22,2.39-8.68
			c-75.1-19.59-152.47,4.35-228.4-5.62C1315.23,70.68,1315.28,79.69,1320.95,80.43L1320.95,80.43z"/>
	</g>
</g>
<g>
	<g>
		<path class="st1" d="M2243.92,307.49c-22.26-12.19-46.27,2.56-57.91,22.15c-11.69,19.7-18.91,48.68,1.63,65.22
			c16.01,12.89,43.29,15.28,59.93,2.24c9.71-7.61,12.18-19.18,12.88-30.92c0.82-13.65,1.28-27.36,1.32-41.03
			c0.08-30.5-3.1-61.11-15.52-89.26c-2.08-4.71-9.63-1.34-8.22,3.47c6.96,23.79,12.31,48.04,15.87,72.57
			c3.18,21.88,3.56,45.17,14.1,65.15c8.23,15.62,25.45,28.8,43.82,27.73c18.01-1.05,29.45-15.38,34.25-31.61
			c2.81-9.5,3.81-19.49,4.44-29.34c0.92-14.32,1.76-28.64,2.64-42.96c0.32-5.2-7.41-5.93-8.84-1.2
			c-8.9,29.47-17.72,64.24,4.02,90.39c8.1,9.75,20.13,16.94,33.06,16.92c6.38-0.01,13.35-1.69,18.24-5.98
			c5.75-5.04,6.54-12.27,6.56-19.49c0.08-20.76-0.11-41.52-0.16-62.28c-0.02-5.79-8.99-5.8-9,0c-0.04,21,0.02,43.81,10.95,62.5
			c9.09,15.55,25.89,27.8,44.54,26.14c5.72-0.51,5.78-9.51,0-9c-16.68,1.49-30.88-10.04-38.19-24.29
			c-8.65-16.85-8.33-36.91-8.29-55.36c-3,0-6,0-9,0c0.05,19.46,0.1,38.93,0.15,58.39c0.01,4.1,0.55,8.76-0.84,12.68
			c-1.44,4.06-5.18,6.03-9.13,7.01c-6.97,1.72-14.35,0.1-20.51-3.37c-33.57-18.9-22.65-62.27-13.71-91.88
			c-2.95-0.4-5.89-0.8-8.84-1.2c-1.23,20.05-1,40.85-4.59,60.66c-2.62,14.45-9.15,31.46-25.65,34.02
			c-17.34,2.7-32.88-11.42-39.63-26.06c-8.56-18.56-8.8-40.08-11.69-59.98c-3.56-24.54-8.91-48.78-15.87-72.57
			c-2.74,1.16-5.48,2.31-8.22,3.47c9.16,20.74,12.83,43.33,13.9,65.85c0.53,11.08,0.47,22.18,0.16,33.27
			c-0.31,11.1-0.04,22.69-1.73,33.69c-1.61,10.49-7.43,18.1-17.64,21.39c-8.37,2.7-17.57,2.56-26,0.18
			c-8.69-2.45-17.15-7.61-21.2-15.98c-5-10.33-1.94-22.67,2.04-32.79c7.61-19.37,28.24-43.47,51.37-30.8
			C2244.45,318.05,2249,310.28,2243.92,307.49L2243.92,307.49z"/>
	</g>
</g>
<g>
	<g>
		<path class="st1" d="M2809.94,121.77c-12.09-28.05-45.27-37.83-72.05-45.78c-17.67-5.25-36.22-9.5-54.7-6.49
			c-15.17,2.47-28.69,10.66-38.99,21.92c-9.96,10.88-17.12,23.97-22.82,37.48c-6.29,14.91-11.87,30.79-13.7,46.94
			c-1.88,16.55,2.15,32.75,14.09,44.76c10.95,11.03,25.59,17.3,39.62,23.4c38.15,16.58,76.31,33.17,114.46,49.75
			c24.71,10.74,63.15,25.11,63.6,57.52c0.23,16.97-8.16,34.72-15.41,49.74c-6.55,13.56-14.32,26.53-23.12,38.75
			c-17.87,24.81-40.24,46.53-65.4,63.88c-24.91,17.18-52.61,30.24-81.88,38c-7.52,1.99-15.13,3.64-22.8,4.93
			c-7.47,1.25-16.97,3.67-23.99-0.23c-10.4-5.78-9.75-22.41-11-32.57c-0.78-6.34-1.77-12.66-4.16-18.62
			c-2.13-5.31-10.84-2.99-8.68,2.39c8.25,20.59,0.06,60.06,32.95,59.77c15.17-0.14,31.2-4.36,45.69-8.56
			c14.37-4.16,28.38-9.6,41.86-16.09c54.47-26.23,100.53-70.85,127.34-125.15c7.21-14.6,14.43-30.61,16.86-46.8
			c2.33-15.52-2.05-29.96-12.45-41.66c-9.59-10.78-22.57-18.27-35.45-24.44c-17.47-8.38-35.53-15.65-53.3-23.37
			c-18.92-8.23-37.85-16.45-56.77-24.68c-16.46-7.16-33.9-13.42-49.27-22.82c-14.58-8.92-24.28-21.88-24.3-39.5
			c-0.02-16.93,6.2-34.06,12.48-49.58c5.6-13.86,12.9-27.58,23.34-38.42c11.78-12.23,26.98-18.84,44.03-18.82
			c18.48,0.02,36.74,6.08,54.12,11.79c14,4.6,28.63,10.13,39.77,20.1c5.34,4.78,9.42,10.4,12.26,16.98
			C2804.45,131.61,2812.21,127.03,2809.94,121.77L2809.94,121.77z"/>
	</g>
</g>
<g>
	<g>
		<path class="st1" d="M2911.76,345.19c0,27.91,0,55.83,0,83.74c0,5.79,9,5.8,9,0c0-27.91,0-55.83,0-83.74
			C2920.76,339.4,2911.76,339.39,2911.76,345.19L2911.76,345.19z"/>
	</g>
</g>
<g>
	<g>
		<path class="st1" d="M2920.34,321.1c5.79,0,5.8-9,0-9C2914.55,312.1,2914.54,321.1,2920.34,321.1L2920.34,321.1z"/>
	</g>
</g>
<g>
	<g>
		<path class="st1" d="M2978.09,336c13.26,28.33,24.17,57.68,32.74,87.76c1.58,5.56,10.27,3.2,8.68-2.39
			c-8.79-30.83-20.06-60.87-33.65-89.91C2983.41,326.22,2975.65,330.78,2978.09,336L2978.09,336z"/>
	</g>
</g>
<g>
	<g>
		<path class="st1" d="M3047.68,335.09c-25.66,38.49-51.33,76.99-76.99,115.48c-3.22,4.83,4.57,9.34,7.77,4.54
			c25.66-38.49,51.33-76.99,76.99-115.48C3058.68,334.8,3050.88,330.29,3047.68,335.09L3047.68,335.09z"/>
	</g>
</g>
<g>
	<g>
		<path class="st1" d="M1543.17,270.52c5.5,34.23,9.24,68.71,11.26,103.33c0.34,5.76,9.34,5.8,9,0
			c-2.07-35.41-5.96-70.69-11.58-105.72C1550.93,262.43,1542.26,264.85,1543.17,270.52L1543.17,270.52z"/>
	</g>
</g>
<g>
	<g>
		<path class="st1" d="M1551.83,253.69c5.79,0,5.8-9,0-9C1546.04,244.69,1546.03,253.69,1551.83,253.69L1551.83,253.69z"/>
	</g>
</g>
<g>
	<g>
		<path class="st1" d="M1618.82,277.79c0,39.49,0,78.98,0,118.47c0,5.79,9,5.8,9,0c0-39.49,0-78.98,0-118.47
			C1627.82,272,1618.82,271.99,1618.82,277.79L1618.82,277.79z"/>
	</g>
</g>
<g>
	<g>
		<path class="st1" d="M1608.46,268.58c14.71-10.92,34.17-7.53,48.34,2.56c7.4,5.26,13.62,12.24,18.88,19.6
			c5.21,7.29,11.53,16.02,11.29,25.4c-0.57,22.13-28.74,9.32-40.88,17.03c-7.56,4.8-4.34,13.62,1.2,18.46
			c6.7,5.84,13.95,10.85,20.35,17.08c14.85,14.44,26.82,31.45,35.65,50.18c2.47,5.24,10.23,0.67,7.77-4.54
			c-8.21-17.42-19.2-33.47-32.5-47.41c-6.41-6.72-13.37-12.86-20.75-18.5c-1.8-1.38-4.64-2.86-5.91-4.83
			c-0.88-1.37-2.23-1.8,0.21-3.37c0.59-0.38,2.09-0.5,2.84-0.62c4.91-0.74,9.97-0.26,14.91-0.39c8.13-0.22,16.39-2.06,21.52-8.92
			c5.2-6.97,5.59-16.4,2.95-24.46c-2.94-8.97-8.71-17.08-14.47-24.44c-5.67-7.24-12.17-13.8-19.82-18.94
			c-16.41-11.04-39.53-13.97-56.12-1.66C1599.32,264.22,1603.8,272.04,1608.46,268.58L1608.46,268.58z"/>
	</g>
</g>
<g>
	<g>
		<path class="st1" d="M1701.68,338.47c9.44,6.35,20.16,10.71,31.42,12.48c9.58,1.5,21.1,2.4,28.44-5.22
			c7.28-7.55,9.43-20.11,11.56-29.95c1.19-5.49,2.11-11.03,2.83-16.6c0.7-5.43,1.77-11.3,0.72-16.75
			c-1.75-9.07-10.76-12.95-19.12-10.12c-9.26,3.13-12.85,13.03-15.04,21.66c-6.04,23.75-7.85,49.22-4.12,73.49
			c3.37,21.87,18.24,45.74,43.56,41.72c5.7-0.91,3.28-9.58-2.39-8.68c-17.55,2.79-28.24-15.21-31.44-29.75
			c-3.89-17.68-3.33-37.07-0.79-54.9c1.23-8.65,2.69-17.85,5.79-26.07c1.21-3.21,2.99-6.79,6.15-8.47c3.37-1.8,7.61-1.29,8.61,2.82
			c0.85,3.49-0.1,7.9-0.49,11.39c-0.53,4.78-1.28,9.53-2.21,14.25c-1.63,8.32-3.32,17.52-7.1,25.17
			c-4.73,9.57-15.11,8.63-24.28,7.03c-9.95-1.74-19.2-5.66-27.56-11.29C1701.4,327.46,1696.9,335.25,1701.68,338.47L1701.68,338.47z
			"/>
	</g>
</g>
<g>
	<g>
		<path class="st1" d="M1806.76,182.72c7.27,42.08,14.55,84.17,21.82,126.25c3.61,20.88,7.22,41.76,10.83,62.64
			c3.03,17.5,5.18,36.55,15.56,51.54c9.63,13.91,27.85,23.66,44.64,17.21c5.35-2.06,3.03-10.76-2.39-8.68
			c-15.28,5.87-30.36-4.86-37.5-18.01c-8.23-15.14-9.75-33.63-12.64-50.33c-6.71-38.82-13.42-77.64-20.13-116.47
			c-3.83-22.18-7.67-44.37-11.5-66.55C1814.45,174.63,1805.77,177.05,1806.76,182.72L1806.76,182.72z"/>
	</g>
</g>
<g>
	<g>
		<path class="st1" d="M1822.41,287.44c19.69-5.42,39.97-6.99,60.26-4.77c5.75,0.63,5.71-8.38,0-9c-21.04-2.29-42.25-0.53-62.66,5.1
			C1814.45,280.3,1816.81,288.99,1822.41,287.44L1822.41,287.44z"/>
	</g>
</g>
<g>
	<g>
		<path class="st1" d="M2307.33,1011.87c5.22-2.59,10.42-5.21,15.65-7.78c4.62-2.27,10.31-5.12,15.57-3.38
			c6.67,2.2,4.74,8.73,2.62,13.79c-2.24,5.35-4.72,10.6-7.28,15.8c-10.18,20.65-22.43,40.3-36.55,58.48
			c-2.36,3.05-0.99,7.48,3.18,7.68c20.04,0.98,40.1,1.2,60.15,0.66c5.78-0.15,5.8-9.16,0-9c-20.06,0.54-40.11,0.32-60.15-0.66
			c1.06,2.56,2.12,5.12,3.18,7.68c17.93-23.09,33.13-48.17,44.78-75.01c2.52-5.81,5.26-12.14,3.11-18.52
			c-1.61-4.78-5.93-8.17-10.65-9.59c-5.91-1.78-11.97-0.35-17.5,1.98c-7.04,2.96-13.81,6.69-20.65,10.09
			C2297.6,1006.68,2302.16,1014.44,2307.33,1011.87L2307.33,1011.87z"/>
	</g>
</g>
<g>
	<g>
		<path class="st1" d="M2412.74,1005.92c-3.78-6.51,3.55-12.5,9.55-8.5c6.21,4.14,8.37,12.49,9.02,19.47
			c1.51,16.1-4.62,31.72-13.02,45.14c-4.47,7.14-9.65,13.78-15.3,20.02c-3.84,4.24-8.67,10.36-2.47,15.04
			c5.48,4.14,14.88,2.22,21.25,2.22c9.59,0,19.18-0.01,28.78-0.01c5.79,0,5.8-9,0-9c-8.31,0-16.63,0.01-24.94,0.01
			c-3.84,0-7.67,0-11.51,0.01c-2.12,0-4.26-0.08-6.37-0.03c-0.66,0.02-1.16-0.26-1.79-0.34c1.8,0.21,0.46,1.07,2.29-0.31
			c2.52-1.9,4.66-5.21,6.65-7.64c2.4-2.94,4.72-5.95,6.92-9.05c4.25-5.98,8.05-12.31,11.09-19c5.63-12.37,8.84-25.88,7.14-39.5
			c-1.39-11.11-7.1-25.17-19.61-27.33c-12.92-2.24-21.79,12.44-15.46,23.33C2407.88,1015.47,2415.66,1010.94,2412.74,1005.92
			L2412.74,1005.92z"/>
	</g>
</g>
<g>
	<g>
		<path class="st1" d="M2509.37,1035.57c0,1.36,0,2.72,0,4.09c0,2.35,2.07,4.61,4.5,4.5c2.44-0.11,4.5-1.98,4.5-4.5
			c0-1.36,0-2.72,0-4.09c0-2.35-2.07-4.61-4.5-4.5C2511.43,1031.18,2509.37,1033.05,2509.37,1035.57L2509.37,1035.57z"/>
	</g>
</g>
<g>
	<g>
		<path class="st1" d="M2559.47,974.95c-3.54,21.03-5.51,42.3-5.59,63.62c-0.06,15.01-1.15,36.77,15.46,43.92
			c15.17,6.53,31.01-3.88,37.19-17.7c6.61-14.78,5.91-32.71,1.24-47.94c-5.36-17.49-16.33-32.62-31.21-43.21
			c-4.73-3.36-9.23,4.44-4.54,7.77c21.55,15.33,34.5,44.03,29.22,70.36c-2.45,12.21-12.38,27.77-27.16,22.94
			c-13.89-4.54-11.29-26.94-11.19-38.1c0.18-19.87,1.95-39.68,5.26-59.27C2569.11,971.68,2560.44,969.24,2559.47,974.95
			L2559.47,974.95z"/>
	</g>
</g>
<g>
	<g>
		<path class="st1" d="M2638.79,1028.78c4.6-12.97,9.19-25.94,13.8-38.91c3.38-9.49,7.19-20.09,17.14-24.33
			c-2.26-1.3-4.51-2.59-6.77-3.89c-2.05,40.32-4.09,80.63-6.14,120.95c-0.29,5.79,8.71,5.77,9,0c2.05-40.32,4.09-80.63,6.14-120.95
			c0.19-3.77-3.88-5.12-6.77-3.89c-10.62,4.52-15.9,15.27-19.75,25.5c-5.37,14.26-10.23,28.74-15.32,43.11
			C2628.17,1031.85,2636.87,1034.21,2638.79,1028.78L2638.79,1028.78z"/>
	</g>
</g>
<g>
	<g>
		<path class="st1" d="M2643.45,1094.22c10.31-3.57,20.87-5.23,31.78-4.94c5.79,0.15,5.79-8.85,0-9
			c-11.65-0.3-23.16,1.45-34.17,5.26C2635.61,1087.42,2637.95,1096.12,2643.45,1094.22L2643.45,1094.22z"/>
	</g>
</g>
<g>
	<g>
		<path class="st1" d="M2728.34,1040.07c5.79,0,5.8-9,0-9C2722.55,1031.07,2722.54,1040.07,2728.34,1040.07L2728.34,1040.07z"/>
	</g>
</g>
<g>
	<g>
		<path class="st1" d="M2780.18,998.73c-0.1-7.92-0.45-17.11,4.01-24.07c3.59-5.6,11.61-10.22,17.63-5.29
			c4.67,3.82,5.82,11.23,6.48,16.83c1.02,8.71,1.56,17.56,1.9,26.32c1.15,29.96-4.58,65.72-34.21,80.68
			c-4.36,2.2-1.76,7.98,2.27,8.39c21.43,2.16,42.95,2.68,64.45,1.55c5.76-0.3,5.8-9.31,0-9c-21.5,1.13-43.03,0.62-64.45-1.55
			c0.76,2.8,1.51,5.59,2.27,8.39c27.11-13.69,37.61-44.74,38.72-73.28c0.34-8.86-0.06-17.73-0.7-26.57
			c-0.53-7.34-0.84-14.85-2.32-22.08c-2.44-11.92-11.13-23.54-24.77-20.22c-18.04,4.4-20.48,24.44-20.28,39.91
			C2771.25,1004.52,2780.25,1004.53,2780.18,998.73L2780.18,998.73z"/>
	</g>
</g>
<g>
	<g>
		<path class="st1" d="M2915.21,991.37c1.43-8.75-3.89-15.9-12.06-18.83c-8.4-3.01-17-0.03-23.04,6.24
			c-6.82,7.1-10.08,17-12.28,26.38c-2.91,12.41-3.85,25.25-4.01,37.96c-0.24,20.38,3.06,44.72,23.48,54.85
			c18.57,9.21,36.08-2.86,43.68-20.07c11-24.9,5.51-54.33,1.21-80.12c-0.95-5.7-9.62-3.28-8.68,2.39
			c3.26,19.58,6.66,39.81,3.42,59.63c-2.07,12.71-8.76,30-23.37,32.29c-18.63,2.92-28.57-18.18-30.19-33.28
			c-1.92-17.9-0.65-37.47,4.02-54.85c2.15-8.01,5.38-17.42,12.91-21.93c5.07-3.04,17.55-1.29,16.21,6.94
			C2905.61,994.65,2914.28,997.08,2915.21,991.37L2915.21,991.37z"/>
	</g>
</g>
<g>
	<g>
		<path class="st1" d="M2976.9,992.81c-1.46-7-3.77-16.58,1.86-22.39c5.76-5.95,11.26-1.67,13.16,4.97
			c2.05,7.19,2.84,14.92,3.89,22.31c1.26,8.92,2.12,17.94,2.02,26.96c-0.17,14.82-3.23,29.95-11.42,42.51
			c-3.64,5.58-9.17,10.19-11.11,16.75c-1.54,5.21-0.28,11.76,4.37,15.02c2.9,2.03,6.33,2.27,9.77,2.46
			c4.48,0.25,8.96,0.46,13.43,0.7c9.92,0.51,19.83,1.03,29.75,1.54c5.79,0.3,5.77-8.7,0-9c-9.28-0.48-18.55-0.96-27.83-1.44
			c-4.48-0.23-8.96-0.46-13.43-0.7c-3.99-0.21-8.59-0.24-7.55-5.57c0.73-3.77,4.06-6.81,6.36-9.7c2.6-3.26,4.93-6.7,6.89-10.38
			c3.61-6.79,6.13-14.18,7.66-21.7c3.48-17.15,2.04-34.6-0.51-51.77c-1.7-11.46-2.34-33.6-18.09-34.9
			c-6.94-0.57-13.5,3.9-16.88,9.76c-4.73,8.19-2.84,18.25-1.02,26.98C2969.41,1000.87,2978.09,998.47,2976.9,992.81L2976.9,992.81z"
			/>
	</g>
</g>
<g>
	<g>
		<path class="st1" d="M3061.48,1019c21.57-15.57,42.48-32.02,62.67-49.34c-2.36-0.3-4.71-0.61-7.07-0.91
			c2.62,5.08,3.04,11.71,3.56,17.31c0.52,5.64,0.66,11.31,0.52,16.98c-0.31,12.31-1.95,24.53-4.05,36.65
			c-2.02,11.71-4.36,23.37-6.6,35.05c-1.1,5.74-2.2,11.48-3.3,17.21c-0.36,1.85-1.47,14.45-3.9,14.71c0.4,2.95,0.8,5.89,1.2,8.84
			c16.49-5.18,33.49-7.12,50.72-5.84c5.78,0.43,5.75-8.57,0-9c-17.96-1.33-35.94,0.77-53.11,6.17c-4.59,1.44-4.08,9.39,1.2,8.84
			c12.02-1.27,11.95-18.06,13.67-27.05c2.73-14.25,5.58-28.48,8.14-42.75c2.48-13.83,4.58-27.8,5.01-41.86
			c0.21-6.92,0.01-13.86-0.78-20.74c-0.74-6.46-1.48-13.19-4.5-19.03c-1.42-2.75-4.99-2.69-7.07-0.91
			c-19.61,16.83-39.9,32.82-60.85,47.93C3052.28,1014.59,3056.77,1022.4,3061.48,1019L3061.48,1019z"/>
	</g>
</g>
<g>
	<g>
		<path class="st1" d="M1954.8,1545.09c6.1-37.24,12.4-74.44,18.92-111.6c-1.85,1.05-3.69,2.1-5.54,3.14
			c3.28,1.36,4.29,8.8,5.18,11.65c1.58,5.09,3.17,10.17,4.75,15.26c3.07,9.86,6.13,19.71,9.2,29.57
			c6.23,20.03,12.47,40.06,18.7,60.09c1.72,5.51,10.41,3.16,8.68-2.39c-7.03-22.57-14.05-45.15-21.08-67.72
			c-3.46-11.13-6.93-22.26-10.39-33.38c-2.53-8.13-3.94-18.13-12.65-21.76c-2.1-0.87-5.15,0.96-5.54,3.14
			c-6.51,37.17-12.82,74.37-18.92,111.6C1945.19,1548.36,1953.86,1550.8,1954.8,1545.09L1954.8,1545.09z"/>
	</g>
</g>
<g>
	<g>
		<path class="st1" d="M1948.03,1508.86c26.55-1.48,53.14-1.76,79.71-0.85c5.79,0.2,5.79-8.8,0-9c-26.57-0.91-53.16-0.63-79.71,0.85
			C1942.27,1500.18,1942.23,1509.18,1948.03,1508.86L1948.03,1508.86z"/>
	</g>
</g>
<g>
	<g>
		<path class="st1" d="M2041.14,1489.92c-2.22,12.86-4.4,26.3-1.24,39.2c2.6,10.61,10.01,22.99,22.31,23.15
			c11.26,0.15,19.3-10.11,23.32-19.52c5.5-12.89,6.96-27.81,5.83-41.67c-0.47-5.73-9.47-5.78-9,0c0.91,11.12-0.04,22.17-3.24,32.89
			c-2.13,7.14-6.97,18.29-15.61,19.27c-9.78,1.11-14.36-12.29-15.59-19.72c-1.71-10.31,0.15-21.03,1.9-31.19
			C2050.79,1486.65,2042.12,1484.22,2041.14,1489.92L2041.14,1489.92z"/>
	</g>
</g>
<g>
	<g>
		<path class="st1" d="M2705.07,1428.77c-27.23-38.63-81.31-40.51-123.07-29.79c-45.8,11.76-87.11,39.84-114.89,78.09
			c-29.41,40.5-40.81,91.81-33.54,141.14c7.17,48.65,33.3,92.31,73.14,121.16c21.69,15.7,46.96,26.79,73.27,31.88
			c13.1,2.54,26.49,3.69,39.83,3.16c13.34-0.53,27.64-1.78,38.18-10.8c4.41-3.77-1.98-10.11-6.36-6.36
			c-8.97,7.68-22.83,7.95-34.06,8.24c-11.04,0.28-22.12-0.54-32.99-2.5c-21.99-3.97-43.11-12.14-62.11-23.88
			c-39.2-24.23-66.79-62.87-77.26-107.73c-10.59-45.4-3.8-94.62,19.92-134.87c22.54-38.26,59.18-67.94,100.82-83.12
			c40.91-14.91,102.64-20.82,131.36,19.93C2700.61,1438.01,2708.42,1433.52,2705.07,1428.77L2705.07,1428.77z"/>
	</g>
</g>
<g>
	<g>
		<path class="st1" d="M2619.67,1562.55c0,52.43,0,104.85,0,157.28c0,5.79,9,5.8,9,0c0-52.43,0-104.85,0-157.28
			C2628.67,1556.76,2619.67,1556.75,2619.67,1562.55L2619.67,1562.55z"/>
	</g>
</g>
<g>
	<g>
		<path class="st1" d="M2697.3,1703.53c1.22-35.4,1.43-70.83,0.64-106.25c-0.13-5.78-9.13-5.8-9,0c0.8,35.42,0.59,70.85-0.64,106.25
			C2688.1,1709.33,2697.1,1709.32,2697.3,1703.53L2697.3,1703.53z"/>
	</g>
</g>
<g>
	<g>
		<path class="st1" d="M2585.36,1658.97c70.58,0,141.16,0,211.73,0c19.97,0,39.95,0,59.92,0c5.79,0,5.8-9,0-9
			c-70.58,0-141.16,0-211.73,0c-19.98,0-39.95,0-59.92,0C2579.57,1649.97,2579.56,1658.97,2585.36,1658.97L2585.36,1658.97z"/>
	</g>
</g>
<g>
	<g>
		<path class="st1" d="M2735.1,1700.88c20.24-31.16,40.47-62.32,60.71-93.48c-2.59,0-5.18,0-7.77,0
			c17.21,30.39,40,57.39,67.13,79.39c4.46,3.62,10.87-2.71,6.36-6.36c-26.59-21.55-48.86-47.78-65.73-77.57
			c-1.73-3.06-5.98-2.77-7.77,0c-20.24,31.16-40.47,62.32-60.71,93.48C2724.16,1701.21,2731.95,1705.72,2735.1,1700.88
			L2735.1,1700.88z"/>
	</g>
</g>
<g>
	<g>
		<path class="st1" d="M2896.72,1701.44c-0.48-31.32-0.97-62.64-1.45-93.97c-0.09-5.79-9.09-5.8-9,0
			c0.48,31.32,0.97,62.64,1.45,93.97C2887.81,1707.23,2896.81,1707.24,2896.72,1701.44L2896.72,1701.44z"/>
	</g>
</g>
<g>
	<g>
		<path class="st1" d="M2895.82,1605.62c16.21-0.01,24.98,22.29,30.59,34.49c7.66,16.64,12.95,34.3,16.15,52.32
			c1.01,5.69,9.69,3.28,8.68-2.39c-3.66-20.6-10.17-40.58-19.39-59.37c-7.15-14.58-17.28-34.06-36.03-34.04
			C2890.03,1596.63,2890.02,1605.63,2895.82,1605.62L2895.82,1605.62z"/>
	</g>
</g>
<g>
	<g>
		<path class="st1" d="M2955.7,1687.14c-1.08-28.61-0.7-57.25,1.16-85.82c0.38-5.78-8.63-5.76-9,0
			c-1.86,28.57-2.24,57.21-1.16,85.82C2946.92,1692.91,2955.92,1692.94,2955.7,1687.14L2955.7,1687.14z"/>
	</g>
</g>
<g>
	<g>
		<path class="st1" d="M3016.87,1691.23c-0.93-25.21-0.2-50.43,2.19-75.54c0.55-5.76-8.46-5.72-9,0
			c-2.39,25.11-3.12,50.33-2.19,75.54C3008.09,1697,3017.09,1697.03,3016.87,1691.23L3016.87,1691.23z"/>
	</g>
</g>
<g>
	<g>
		<path class="st1" d="M3015.99,1612.74c16.54,22.48,29.63,47.24,38.72,73.63c1.88,5.44,10.57,3.1,8.68-2.39
			c-9.34-27.12-22.63-52.67-39.63-75.78C3020.37,1603.58,3012.55,1608.06,3015.99,1612.74L3015.99,1612.74z"/>
	</g>
</g>
<g>
	<g>
		<path class="st1" d="M3063.73,1678.98c0-20.43,0-40.85,0-61.28c0-5.79-9-5.8-9,0c0,20.43,0,40.85,0,61.28
			C3054.73,1684.77,3063.73,1684.78,3063.73,1678.98L3063.73,1678.98z"/>
	</g>
</g>
<g>
	<g>
		<path class="st1" d="M3092.78,1600.47c12.63-3.56,25.73-4.5,38.72-2.49c5.67,0.88,8.11-7.79,2.39-8.68
			c-14.63-2.26-29.24-1.53-43.51,2.49C3084.82,1593.36,3087.18,1602.04,3092.78,1600.47L3092.78,1600.47z"/>
	</g>
</g>
<g>
	<g>
		<path class="st1" d="M3085.09,1601.59c-4,17.86-6.98,35.94-8.86,54.15c-0.73,7.09-2.88,16.02-0.33,22.93
			c1.99,5.39,6.48,8.47,12,5.89c5.24-2.45,0.68-10.21-4.54-7.77c2.56-1.2,0.88,0.57,0.83-1.64c-0.02-0.93-0.34-1.91-0.36-2.88
			c-0.07-3.2,0.47-6.55,0.75-9.73c0.57-6.48,1.27-12.96,2.13-19.41c1.75-13.15,4.15-26.21,7.05-39.15
			C3095.04,1598.34,3086.36,1595.93,3085.09,1601.59L3085.09,1601.59z"/>
	</g>
</g>
<g>
	<g>
		<path class="st1" d="M3070.53,1643.77c11.82-1.66,23.77-1.9,35.66-0.97c5.78,0.45,5.75-8.55,0-9c-12.75-1-25.4-0.49-38.06,1.29
			C3062.43,1635.89,3064.86,1644.57,3070.53,1643.77L3070.53,1643.77z"/>
	</g>
</g>
<g>
	<g>
		<path class="st1" d="M3085.8,1689.79c13.25-1.01,26.55-0.7,39.72,1.16c5.66,0.8,8.11-7.87,2.39-8.68
			c-14-1.98-28.01-2.56-42.11-1.49C3080.06,1681.23,3080.02,1690.23,3085.8,1689.79L3085.8,1689.79z"/>
	</g>
</g>
<g>
	<g>
		<path class="st1" d="M3158.48,1595.32c0.55,14.14,1.1,28.3,0.74,42.46c-0.17,6.74-0.55,13.47-1.23,20.18
			c-0.56,5.57-3.06,12.87-0.83,18.31c1.73,4.22,5.77,6.34,9.91,7.67c6.5,2.08,13.37,3.4,20.08,4.59
			c13.72,2.44,27.62,3.58,41.55,3.46c5.79-0.05,5.8-9.05,0-9c-12.15,0.11-24.3-0.68-36.3-2.65c-6.03-0.99-12.03-2.23-17.95-3.74
			c-2.27-0.58-4.78-1.01-6.89-2.07c-3.19-1.6-2.05-4.73-1.63-7.72c3.31-23.71,2.49-47.64,1.56-71.48
			C3167.26,1589.54,3158.26,1589.52,3158.48,1595.32L3158.48,1595.32z"/>
	</g>
</g>
<g>
	<g>
		<path class="st1" d="M1318.56,1703.49c0,3.4,0,6.81,0,10.21c0,5.79,9,5.8,9,0c0-3.4,0-6.81,0-10.21
			C1327.56,1697.7,1318.56,1697.69,1318.56,1703.49L1318.56,1703.49z"/>
	</g>
</g>
<g>
	<g>
		<path class="st1" d="M1321.28,1716.49c57.67,25.58,114.2,53.65,169.43,84.14c5.07,2.8,9.62-4.97,4.54-7.77
			c-55.23-30.49-111.76-58.56-169.43-84.14C1320.57,1706.39,1315.99,1714.15,1321.28,1716.49L1321.28,1716.49z"/>
	</g>
</g>
<g>
	<g>
		<path class="st0" d="M1478.63,1807.7c-8.83-5.49-17.65-10.98-26.48-16.46c-4.93-3.07-9.46,4.72-4.54,7.77
			c8.83,5.49,17.65,10.98,26.48,16.46C1479.02,1818.54,1483.54,1810.75,1478.63,1807.7L1478.63,1807.7z"/>
	</g>
</g>
<g>
	<g>
		<path class="st0" d="M1487.6,1809.66c-15.68-4.69-31.77-7.57-48.1-8.73c-5.78-0.41-5.75,8.59,0,9
			c15.54,1.11,30.78,3.96,45.71,8.41C1490.77,1820,1493.15,1811.31,1487.6,1809.66L1487.6,1809.66z"/>
	</g>
</g>
<g>
	<g>
		<path class="st0" d="M1446.58,1792.41c-3.8-3.24-7.6-6.48-11.4-9.72c-1.06,2.56-2.12,5.12-3.18,7.68
			c10.96-0.65,21.08,6.19,24.17,16.81c1.61,5.55,10.3,3.19,8.68-2.39c-4.15-14.28-17.92-24.3-32.85-23.42
			c-3.56,0.21-6.36,4.97-3.18,7.68c3.8,3.24,7.6,6.48,11.4,9.72C1444.6,1802.51,1451,1796.18,1446.58,1792.41L1446.58,1792.41z"/>
	</g>
</g>
<g>
	<g>
		<path class="st0" d="M1494.61,1803.81c-12.04,0.28-23.98,1.71-35.75,4.24c-5.66,1.22-3.26,9.9,2.39,8.68
			c11-2.37,22.11-3.66,33.36-3.92C1500.4,1812.67,1500.42,1803.67,1494.61,1803.81L1494.61,1803.81z"/>
	</g>
</g>
<g>
	<g>
		<path class="st0" d="M1434.2,1780.81c-1.5,0.23,0.82-0.04-0.69,0.08c-0.47,0.04-0.95,0.08-1.42,0.1c-0.95,0.04-1.9,0.04-2.85,0
			c-2.35-0.09-4.61,2.14-4.5,4.5c0.11,2.52,1.98,4.4,4.5,4.5c2.48,0.1,4.9-0.13,7.35-0.5c2.34-0.35,3.83-3.41,3.14-5.54
			C1438.91,1781.41,1436.7,1780.44,1434.2,1780.81L1434.2,1780.81z"/>
	</g>
</g>
<g>
	<g>
		<path class="st0" d="M1449.04,1797.43c-4.13-8.69-10.79-15.77-19-20.76c-4.96-3.01-9.49,4.77-4.54,7.77
			c6.98,4.24,12.27,10.16,15.77,17.53C1443.75,1807.2,1451.52,1802.64,1449.04,1797.43L1449.04,1797.43z"/>
	</g>
</g>
<g>
	<g>
		<path class="st0" d="M1438.47,1777.37c-3.5-1-7-1.99-10.5-2.99c-5.58-1.59-7.96,7.09-2.39,8.68c3.5,1,7,1.99,10.5,2.99
			C1441.66,1787.64,1444.04,1778.96,1438.47,1777.37L1438.47,1777.37z"/>
	</g>
</g>
<g>
	<g>
		<path class="st0" d="M1493.6,1808.44c-18.39-3.38-36.78-6.76-55.16-10.14c-5.66-1.04-8.09,7.63-2.39,8.68
			c18.39,3.38,36.78,6.76,55.16,10.14C1496.87,1818.15,1499.3,1809.48,1493.6,1808.44L1493.6,1808.44z"/>
	</g>
</g>
<g>
	<g>
		<path class="st0" d="M1466.91,1806.07c0.8-0.61,1.76-0.94,2.09,0.4c2.51-1.46,5.01-2.92,7.52-4.38
			c-6.16-5.69-11.92-11.77-17.28-18.23c-3.7-4.46-10.04,1.94-6.36,6.36c5.36,6.46,11.12,12.53,17.28,18.23
			c3.3,3.05,8.61,0.05,7.52-4.38c-1.57-6.4-9.86-9.9-15.31-5.78C1457.81,1801.75,1462.29,1809.57,1466.91,1806.07L1466.91,1806.07z"
			/>
	</g>
</g>
<g>
	<g>
		<path class="st1" d="M1322.44,2214.15c0.16,1.85,0.32,3.7,0.48,5.55c0.2,2.34,1.93,4.62,4.5,4.5c2.27-0.1,4.71-1.99,4.5-4.5
			c-0.15-1.85-0.31-3.7-0.48-5.55c-0.21-2.34-1.92-4.62-4.5-4.5C1324.68,2209.75,1322.22,2211.64,1322.44,2214.15L1322.44,2214.15z"
			/>
	</g>
</g>
<g>
	<g>
		<path class="st1" d="M1197.48,2232.19c2.49,1.74,4.94,3.54,7.35,5.38c1.93,1.48,5.04,0.3,6.16-1.61c1.35-2.31,0.32-4.68-1.61-6.16
			c-2.42-1.84-4.87-3.64-7.35-5.38c-1.99-1.4-5-0.36-6.16,1.61C1194.55,2228.28,1195.48,2230.79,1197.48,2232.19L1197.48,2232.19z"
			/>
	</g>
</g>
<g>
	<g>
		<path class="st0" d="M910.47,2250.35c1.93,0,1.93-3,0-3C908.54,2247.35,908.53,2250.35,910.47,2250.35L910.47,2250.35z"/>
	</g>
</g>
<g>
	<g>
		<path class="st0" d="M910.47,2251.37c1.93,0,1.93-3,0-3C908.54,2248.37,908.53,2251.37,910.47,2251.37L910.47,2251.37z"/>
	</g>
</g>
<g>
	<g>
		<path class="st0" d="M915.57,2256.48c1.93,0,1.93-3,0-3C913.64,2253.48,913.64,2256.48,915.57,2256.48L915.57,2256.48z"/>
	</g>
</g>
<g>
	<g>
		<path class="st0" d="M908.43,2250.35c1.93,0,1.93-3,0-3C906.5,2247.35,906.49,2250.35,908.43,2250.35L908.43,2250.35z"/>
	</g>
</g>
<g>
	<g>
		<path class="st0" d="M915.1,2250.89c0,1.02,0,2.04,0,3.06c0,1.93,3,1.93,3,0c0-1.02,0-2.04,0-3.06
			C918.1,2248.96,915.1,2248.96,915.1,2250.89L915.1,2250.89z"/>
	</g>
</g>
<g>
	<g>
		<path class="st0" d="M912.77,2254.66c-0.87-2.08-1.49-4.25-1.75-6.49c-0.63,0.48-1.27,0.96-1.9,1.45
			c0.62,0.24,1.49,0.51,1.91,1.08c0.12,0.16,0.42,0.73,0.1,0.82c-1.86,0.52-1.07,3.41,0.8,2.89c1.75-0.49,2.61-2.29,2.23-4.02
			c-0.46-2.06-2.45-2.98-4.24-3.67c-0.85-0.33-2,0.53-1.9,1.45c0.29,2.53,0.87,4.94,1.85,7.29
			C910.61,2257.21,913.52,2256.44,912.77,2254.66L912.77,2254.66z"/>
	</g>
</g>
<g>
	<g>
		<path class="st0" d="M1220.26,2232.09c-0.12-0.17-0.25-0.33-0.37-0.5c-0.43,0.75-0.86,1.5-1.3,2.26c2.24-0.18,4.33,0.23,6.32,1.27
			c1.71,0.9,3.23-1.69,1.51-2.59c-2.43-1.28-5.09-1.9-7.84-1.68c-1.01,0.08-2.04,1.26-1.3,2.26c0.12,0.17,0.25,0.33,0.37,0.5
			C1218.8,2235.13,1221.41,2233.64,1220.26,2232.09L1220.26,2232.09z"/>
	</g>
</g>
<g>
	<g>
		<path class="st0" d="M1226.04,2236.05c1.93,0,1.93-3,0-3C1224.11,2233.05,1224.11,2236.05,1226.04,2236.05L1226.04,2236.05z"/>
	</g>
</g>
<g>
	<g>
		<path class="st0" d="M1226.04,2236.05c1.93,0,1.93-3,0-3C1224.11,2233.05,1224.11,2236.05,1226.04,2236.05L1226.04,2236.05z"/>
	</g>
</g>
<g>
	<g>
		<path class="st0" d="M1216.77,2225.26c-1.22,6.35,4.22,9.79,8.82,13.08c6.53,4.67,13.53,8.66,20.7,12.25
			c11.73,5.88,29.14,9.9,35.49,22.52c1.74,3.45,6.91,0.42,5.18-3.03c-5.39-10.7-16.84-15.06-27.14-19.7
			c-6.52-2.93-12.96-6.05-19.18-9.58c-2.84-1.61-5.63-3.31-8.36-5.12c-2.18-1.45-10.33-5.75-9.74-8.83
			C1223.28,2223.08,1217.5,2221.47,1216.77,2225.26L1216.77,2225.26z"/>
	</g>
</g>
<g>
	<g>
		<path class="st1" d="M1217.53,2234.83c14.39,16.55,34,27.73,50.95,41.37c18.9,15.21,36.68,31.75,53.32,49.4
			c2.65,2.82,6.89-1.43,4.24-4.24c-16.64-17.65-34.42-34.19-53.32-49.4c-16.95-13.65-36.57-24.83-50.95-41.37
			C1219.24,2227.67,1215.01,2231.93,1217.53,2234.83L1217.53,2234.83z"/>
	</g>
</g>
<g>
	<g>
		<path class="st1" d="M1324.15,2219.23c0.36,34.02,0.35,68.05,0,102.07c-0.04,3.86,5.96,3.86,6,0c0.35-34.02,0.36-68.05,0-102.07
			C1330.11,2215.38,1324.11,2215.37,1324.15,2219.23L1324.15,2219.23z"/>
	</g>
</g>
</svg>
