<?xml version="1.0" encoding="utf-8"?>
<!-- Generator: Adobe Illustrator 22.0.1, SVG Export Plug-In . SVG Version: 6.00 Build 0)  -->
<svg version="1.1" xmlns="http://www.w3.org/2000/svg" xmlns:xlink="http://www.w3.org/1999/xlink" x="0px" y="0px"
	 viewBox="0 0 1440 900" style="enable-background:new 0 0 1440 900;" xml:space="preserve">
<style type="text/css">
	.st0{fill:url(#SVGID_1_);}
	.st1{fill:#383737;}
	.st2{fill:#1C1A1A;}
	.st3{fill:#1E1D1D;}
	.st4{fill:#424141;}
	.st5{fill:#494343;}
	.st6{fill:#545151;}
	.st7{fill:#898585;}
	.st8{fill:#8C8585;}
	.st9{fill:#A39898;}
	.st10{fill:#B74B4B;}
</style>
<g id="Calque_1">
	<g>
		<linearGradient id="SVGID_1_" gradientUnits="userSpaceOnUse" x1="736.2292" y1="791.9412" x2="754.2292" y2="589.9412">
			<stop  offset="0" style="stop-color:#808080"/>
			<stop  offset="1" style="stop-color:#CCCCCC"/>
		</linearGradient>
		<path class="st0" d="M1506.7,490.8c-96.6-15.1-194.9-14.8-292.6-14.4c-396.3,1.6-792.6,3.1-1188.8,4.7
			c-24.9,131.3-24,267.5,2.6,398.5c1.1,5.5,2.5,11.5,6.8,15.1c3.9,3.4,9.4,4.1,14.5,4.6c241.4,25.3,485.2-6.9,727.7,3.5
			c46.1,2,92.6,5.5,138.3-0.9c28.1-3.9,55.7-11.6,84-14.7c38.6-4.3,77.6-0.1,116.4,3.5c110.1,10.2,220.7,15.2,331.4,15
			c18.1-67.2-3.3-137.8-9.1-207.1c-6.2-74.4,5.8-149,17.8-222.7"/>
	</g>
	<g>
		<g>
			<path class="st1" d="M1324.5,337.3c-3.7-53.5,2.9-107.4-5-160.6c-0.8-5.7-9.5-3.3-8.7,2.4c7.7,52.4,1,105.6,4.6,158.3
				C1315.9,343,1324.9,343.1,1324.5,337.3L1324.5,337.3z"/>
		</g>
	</g>
	<g>
		<g>
			<path class="st1" d="M1321.6,124.8c-1.8-9.8-1.1-19.9-1-29.9c0.1-10.1,0-20.2-0.4-30.3c-0.7-20.5-2.3-41-4.8-61.4
				c-0.7-5.7-9.7-5.7-9,0c2.6,21,4.2,42.2,4.9,63.4c0.3,10.4,0.4,20.9,0.3,31.3c-0.1,9.8-0.5,19.6,1.4,29.3
				C1314,132.9,1322.6,130.5,1321.6,124.8L1321.6,124.8z"/>
		</g>
	</g>
	<g>
		<g>
			<path class="st1" d="M1186.4,125c1-20.9-0.5-41.6-3.8-62.2c-1.7-10.3-1.6-20.4-1-30.8c0.3-5.1,0.6-10.1,0.7-15.2
				c0-4,0.5-8.3-2.3-11.5c-1.1-1.3-2.9-1.5-4.4-1.2c-1.7,0.3-2.7,1.3-3.6,2.7c-0.8,1.3-0.8,3.2,0,4.5c0.1,0.1,0.2,0.3,0.2,0.4
				c3.1,4.9,10.9,0.4,7.8-4.5c-0.1-0.1-0.2-0.3-0.2-0.4c0,1.5,0,3,0,4.5c0.1-0.2,0.2-0.3,0.3-0.5c-0.9,0.7-1.8,1.4-2.7,2.1
				c0.2,0,0.4-0.1,0.6-0.1c-1.5-0.4-2.9-0.8-4.4-1.2c-0.1-0.1-0.3,5.4-0.3,6.1c0,2.5-0.1,5.1-0.3,7.6c-0.2,4.4-0.6,8.9-0.8,13.3
				c-0.4,9.3,0.3,18.3,1.8,27.5c3.1,19.5,4.3,39.1,3.4,58.9C1177.1,130.8,1186.1,130.8,1186.4,125L1186.4,125z"/>
		</g>
	</g>
	<g>
		<g>
			<path class="st1" d="M1187.3,332.6c-2.5-12.9-3.7-26-3.5-39.2c0.2-12.7,2.3-25.1,3.9-37.7c3.1-25.1-1.4-50.6-4-75.5
				c-0.6-5.7-9.6-5.8-9,0c2.7,25.8,7.3,52.1,3.7,78c-1.7,12.4-3.5,24.6-3.6,37.1c-0.1,13.3,1.3,26.6,3.8,39.7
				C1179.8,340.7,1188.4,338.3,1187.3,332.6L1187.3,332.6z"/>
		</g>
	</g>
	<g>
		<g>
			<path class="st1" d="M916.2,273.9c1.2-15.6,4.2-32.3,1.9-47.9c-2.3-15.9-1.9-32-2.2-48.1c-0.1-5.8-9.1-5.8-9,0
				c0.3,15.6-0.5,31.7,2,47.2c2.6,15.8-0.5,32.9-1.7,48.8C906.8,279.7,915.8,279.7,916.2,273.9L916.2,273.9z"/>
		</g>
	</g>
	<g>
		<g>
			<path class="st1" d="M913.4,127c-0.1-6.7,0.2-13.5,1.2-20.2c0.7-4.6,3.2-10.5,1.5-15.1c-1.4-3.8-5.5-5.7-9.2-4.1
				c-5,2.2-5.2,7.7-3.8,12.3c1.7,5.5,10.3,3.2,8.7-2.4c-0.5-1.8-3.1-3.1-4.2-1.9c-0.6,0.6-0.6,3.2-0.8,4.2c-0.5,2.8-1,5.7-1.3,8.6
				c-0.8,6.2-1.1,12.4-0.9,18.6C904.5,132.8,913.5,132.8,913.4,127L913.4,127z"/>
		</g>
	</g>
	<g>
		<g>
			<path class="st1" d="M756.2,339c0.3-8,1.7-15.6,4.1-23.2c-2.7,0.4-5.5,0.7-8.2,1.1c2,3.7-1.6,9.4-2.6,13
				c-1.3,4.4-1.5,8.9,1.2,12.8c1.8,2.6,6.1,3.2,7.8,0c4.6-9-0.5-18.7-0.3-28.2c0.3-11.5,1.1-23.1,1.7-34.6
				c0.6-11.4,1.1-22.7,1.7-34.1c0.5-9.3,1.9-19.7-4-27.7c-3.4-4.6-11.2-0.1-7.8,4.5c5.3,7.2,3,17.8,2.6,26.1
				c-0.5,10.4-1,20.8-1.5,31.2c-0.5,10.4-1,20.8-1.5,31.2c-0.2,4.4-0.3,8.8,0.4,13.1c0.7,4.4,3.1,9.6,0.9,13.9c2.6,0,5.2,0,7.8,0
				c-2.5-3.6,0.9-8.9,2-12.6c1.4-4.6,1.8-9-0.5-13.3c-1.9-3.6-7.1-2.5-8.2,1.1c-2.6,8.4-4,16.9-4.4,25.6
				C747,344.8,756,344.8,756.2,339L756.2,339z"/>
		</g>
	</g>
	<g>
		<g>
			<path class="st1" d="M747.5,5.1c2.2,21.1,4.4,42.1,5.5,63.3c0.6,10.6,0.9,21.1,0.8,31.7c-0.1,9.5,0.6,19.8-3,28.8
				c-2.1,5.4,6.6,7.7,8.7,2.4c3.5-8.8,3.2-18.9,3.3-28.2c0.2-10.9-0.1-21.8-0.7-32.7c-1.1-21.8-3.4-43.6-5.7-65.3
				C755.9-0.6,746.9-0.7,747.5,5.1L747.5,5.1z"/>
		</g>
	</g>
	<g>
		<g>
			<path class="st1" d="M566.6,286.6c0.4,0.9,5.1-4.7,5.4-5.2c1.4-3.4,0.8-7.4,0.8-11c0-9.2-0.1-18.4-0.1-27.6
				c-0.1-18-0.1-36-0.2-54c0-6,0.7-14.1-5.3-17.7c-4.2-2.6-11.5-1.6-12.5,4.1c-0.6,3.6,0.8,8.3,1.1,11.9c0.4,4.7,0.6,9.5,0.5,14.3
				c-0.2,8.9-1.4,17.8-2.6,26.6c-2.5,18.3-4.4,37.3,2.6,55c1.8,4.6,8.5,4.1,8.8-1.2c1.2-21.2,2.3-42.4,3.5-63.7c0.3-5.8-8.7-5.8-9,0
				c-1.2,21.2-2.3,42.4-3.5,63.7c2.9-0.4,5.9-0.8,8.8-1.2c-6.9-17.5-4.5-36.1-2-54.2c1.2-9.2,2.5-18.5,2.4-27.8
				c0-5.1-0.4-10.1-0.9-15.2c-0.1-1.3-0.3-2.5-0.4-3.8c0.3-2.2-0.3-2.5-1.7-0.9c0.7,0.7,1.1,1.5,1.1,2.5c0.1,0.7,0.1,1.4,0.1,2.1
				c0.5,19.5,0.2,39.1,0.2,58.6c0,9.9,0.1,19.7,0.1,29.6c0,1.6,0.7,5,0,6.4c-0.5,1-2.4,1.7-3.3,2.4c-2.5,2.3-3.8,5.6-2.5,8.8
				C560.1,294.3,568.8,292,566.6,286.6L566.6,286.6z"/>
		</g>
	</g>
	<g>
		<g>
			<path class="st1" d="M571,122c-1.1-14.1-3.1-28-0.4-42c2.4-12.4,1.8-23.8-3.8-35.3c-1.7,2.2-3.4,4.4-5.1,6.6
				c5.8,1.6,2.1,11.5,1.4,15.4c-1.1,5.8-2,11.6-2.7,17.4c-1.5,12.5-1.8,25.1-1.2,37.6c2.3-1.3,4.5-2.6,6.8-3.9
				c-1.2-0.6-0.7-10.8-0.8-12.9c-0.2-5.2-0.4-10.5-0.5-15.7c-0.3-10.5-0.6-21-0.8-31.5c-2.8,0.8-5.6,1.5-8.4,2.3
				c6.2,8.4,6.3,18.8,6.7,28.8c0.5,12,0.9,24.1,1.4,36.1c0.2,5.8,9.2,5.8,9,0c-0.5-13.3-1-26.6-1.5-39.8
				c-0.4-10.3-1.4-21.1-7.7-29.6c-2.5-3.3-8.5-2.6-8.4,2.3c0.3,12.8,0.6,25.6,1.1,38.4c0.2,6.2,0.4,12.5,0.7,18.7
				c0.2,4.2,0.6,8.8,4.9,10.8c2.9,1.3,7-0.2,6.8-3.9c-0.8-16,0-32.1,2.7-47.9c1.8-10.2,7.5-27.3-6.8-31.2c-4-1.1-6.8,3.2-5.1,6.6
				c2.7,5.5,4.2,11.4,4.2,17.5c0,6-1.7,11.9-2.6,17.8c-1.9,12.3,0.4,25.2,1.4,37.5C562.5,127.7,571.5,127.7,571,122L571,122z"/>
		</g>
	</g>
	<g>
		<path class="st2" d="M279.1,517.4c-26.2-6.3-53.8-9.5-79.9-3c-14.7,3.7-28.6,10.4-43.4,13.9c-16.2,3.9-33.1,3.8-49.7,4.7
			c-52.6,3-103.9,16.6-154.8,30c20.4-58.3,22.6-121.2,24.7-183c0.8-23.9,1.6-48.1-3.4-71.6c-5.7-26.6-18.5-50.9-29.4-75.8
			c-7.1-16.3-13.5-32.9-19-49.9c-9.1-27.9-16-57.4-12-86.6c5.6-40.7,32.1-77.2,32.7-118.3C16.4-32.2,88.9-12.1,161-16.1
			c47.6-2.6,94.7-15.7,142.3-12.3c0.5,59.9,0.9,119.9,1.4,179.8c0.3,42.6,0.7,85.2-3,127.7c-7.9,92.2-34.6,182.4-38.4,274.9
			c-2.7-16.5-9.7-32.2-20.2-45.2"/>
	</g>
	<g>
		<g>
			<path class="st3" d="M419.3,529.1c4.4,14.2,12.7,24.3,24.3,33.2c7.4,5.6,19.7,4.4,27.3,0c7.6-4.4,14.3-14.1,13.4-23.3
				c-2.8-28-4.9-56.1-6.4-84.3c-0.7-13.9-1.3-27.8-1.7-41.7c-0.2-7-0.3-13.9-0.5-20.9c0-3,0.1-6.1-0.1-9.1c0.2-2,0.1-1.6-0.2,1.2
				c-0.5,2.8-0.5,3.2,0,1.3c-0.6,1.5-1.2,2.9-1.8,4.4c-14.4,7.6-18.5,10.8-12.1,9.7c-11.1-6.3-22.1-12.6-33.2-18.9
				c0.4,1.8,0.7,3.5,1,5.3c0.2,1,0.8,6.3,0.3,1.7c-0.5-4.6,0,0.7,0.1,1.7c0.2,1.8,0.3,3.6,0.4,5.3c0.4,6.5,0.3,13.1-0.2,19.6
				c-0.1,1.5-0.3,3-0.4,4.4c-0.3,3.5,1-6,0.2-1c-0.6,3.5-1.2,7-2,10.5c-1.5,6.4-3.4,12.6-5.7,18.8c-5,13.2,5.5,30.2,18.9,33.2
				c15.4,3.5,27.9-4.7,33.2-18.9c11.4-30.3,12.9-63.6,6.3-95.1c-1.3-6.1-6.9-13.2-12.4-16.1c-6.9-3.6-13.2-3.8-20.8-2.7
				c-12.1,1.8-21.2,13.6-24.1,24.7c-2.1,8.3-1.4,17.3-1.2,25.8c0.3,15.6,0.8,31.1,1.5,46.7c1.4,31.5,3.8,62.9,6.9,94.2
				c13.5-7.8,27.1-15.5,40.6-23.3c6.3,4.8,2.3,1.5,0.9,0.2c-3.3-3.2,2.4,4,0.9,1.3c-0.4-0.8-1.3-2.7-1.9-3.3c0.5,1.2,1,2.5,1.5,3.7
				c-0.4-0.9-0.7-1.9-1-2.9c-4.2-13.5-19-23.4-33.2-18.9C424.6,500.2,414.9,514.6,419.3,529.1L419.3,529.1z"/>
		</g>
	</g>
	<g>
		<g>
			<path class="st3" d="M428.5,312c0.5,12.4,1.1,24.8,1.6,37.2c18,0,36,0,54,0c-1.5-24.4,2.9-48.4,4-72.7c1-23.9-1.6-47.8-3.3-71.7
				c-3.7-49.4-5.9-98.8-6.6-148.3c-0.2-13.6-0.4-27.3-0.2-40.9c0.1-5.9,0.7-11.7,1-17.5c-0.4,6.8-0.6,3.8-0.2,2
				c0.4-1.7,0.7-3.4,1.1-5.1c0.8-3.4,1.9-6.7,3.3-9.9c2.5-6,0.4-15.4-2.7-20.8c-3.3-5.6-9.7-10.9-16.1-12.4
				c-6.9-1.6-14.7-1.2-20.8,2.7c-6.3,4.1-9.6,9.3-12.4,16.1c-9.3,22.8-7.2,49.6-7,73.7c0.2,24.6,0.8,49.2,1.8,73.7
				c1,25.2,2.4,50.4,4.1,75.6c1.7,24.3,4.5,48.6,4.4,72.9c-0.1,27.5-5.9,54.8-4.2,82.3c0.9,14.1,11.8,27.7,27,27
				c14.1-0.6,27.7-11.9,27-27c-0.5-12.4-1.1-24.8-1.6-37.2c-0.6-14.1-12-27.7-27-27C441.4,285.6,427.8,296.9,428.5,312L428.5,312z"
				/>
		</g>
	</g>
	<g>
		<g>
			<path class="st3" d="M254.2,12c0.4,6.6,0.7,13.2,1.1,19.8c0.7,11.5,7.9,23.3,19.8,26c11.6,2.6,24.4-1.7,30.5-12.4
				c10.6-18.6,7.7-42.7-7.7-57.8c-7.8-7.7-19.5-9.8-29.5-5.6C258-13.6,252.9-4.3,251.9,6.7c-5.9,67.3-9.4,134.9-10.4,202.5
				c-0.5,33.5-0.3,66.9,0.4,100.4c0.8,33.9,2.4,67.7,3,101.6c0.7,38-0.5,75.9-4.6,113.7c-0.9,8.2,4.5,16.5,10.6,21.2
				c7,5.4,14.9,6.7,23.5,4.8c1.8-0.4,3.6-0.7,5.4-1.1c5.5-1.1-6.1,0.5,1.1-0.1c4-0.3,8-0.5,12-0.3c1.8,0.1,3.7,0.2,5.5,0.3
				c0.6,0.1,1.2,0.1,1.8,0.2c3,0.3,2.5,0.3-1.7-0.3c3.3,1.2,7.2,1.4,10.7,2.2c18.2,4.6,35.5,9.7,54.5,6.5c6.7-1.1,12.9-3.5,19.3-5.8
				c3.5-1.2,6.9-2.1,10.4-3.1c2.1-0.4,1.1-0.3-3,0.3c0.8-0.1,1.7-0.1,2.5-0.2c1,0,5.2,0.7,5.9,0.2c-1.3-0.2-2.6-0.4-3.8-0.6
				c1.1,0.2,2.2,0.4,3.3,0.6c1.7,0.3,3.3,0.7,5,1.1c3.3,0.8,6.7,1.6,10,2.3c8.8,1.9,18.2,3.6,27.2,2.4c7.1-0.9,14-2.3,19.1-7.9
				c4.9-5.3,7.8-11.7,7.9-19.1c1.1-67-1-134.1-2.9-201.1c-1.8-66.7-3.7-133.4-5.5-200.1c-1.1-38.2-2.1-76.3-3.2-114.5
				c-0.4-14.1-12.1-27.7-27-27c-14.7,0.7-26.9,11.9-27,27c-0.3,49,1.5,98.6-3.4,147.4c-0.3,2.5-0.5,5.1-0.8,7.6
				c-0.1,0.5-0.9,6.8-0.2,2.1c0.6-4.7-0.3,1.6-0.3,2.1c-0.9,6-2,12-3.2,18c-2.5,12-5.5,23.9-8.4,35.8c-5.7,23.6-10.2,47.4-13.4,71.5
				c-6.9,50.6-11.6,103.1-0.2,153.4c0.6,2.6,1.2,5.1,1.6,7.7c0.2,1.1,0.4,2.3,0.6,3.4c1.1,6-0.2-6.4-0.1-0.4c0,2.2,0,4.5,0.1,6.7
				c0.2,5.6,1.2-5,0.3-1.5c-0.4,1.6-0.9,3.2-1.2,4.8c-0.8,3.4,3.1-5.3,0.5-1.4c-0.4,0.7-0.9,1.5-1.3,2.2c-2,3.8,2-2.7,2-2.4
				c-0.1,0.6-1.7,1.9-2.1,2.3c-0.4,0.4-1.8,2.1-2.3,2.1c-0.3,0,6.1-4.1,2.4-1.9c-1.8,1.1-3.7,2.2-5.5,3.2c-4.2,2.4,5.5-1.9,2.3-0.9
				c-1.1,0.3-2.1,0.8-3.1,1.1c-1.7,0.6-3.4,1.1-5.2,1.5c-2.2,0.6-4.4,1.1-6.7,1.5c-0.9,0.2-1.8,0.3-2.7,0.5
				c-0.9,0.1-1.8,0.3-2.7,0.4c1.5-0.2,3-0.4,4.4-0.6c-3.7,1.1-8.7,0.9-12.5,1.1c-1.6,0.1-5.3-1.1-1.5,0.2c3.4,1.2,5.7,1.6,8.6,4.1
				c-2.2-1.9,0.6-1.7,1.4,1.9c-0.2-0.9-1.6-3.3-2.1-4.1c3,4.9,1.4,3.6,0.8,1.6c-0.5-1.7-1.1-3.3-1.5-4.9c-0.4-1.4-0.7-2.8-1-4.2
				c-0.2-1-1.6-7-0.5-2.4c1.1,4.6,0-0.7,0-1.6c-0.1-1.7-0.2-3.5-0.2-5.2c-0.1-2.9,0-5.8,0.1-8.7c0.2-3.2,0.4-6.4,0.8-9.6
				c0.3-3,2-4-0.2,1.1c0.6-1.5,0.5-3.7,0.8-5.2c0.9-5.8,2.1-11.5,3.5-17.2c1.5-6.3,3.3-12.5,5.3-18.6c0.9-2.8,1.9-5.6,2.9-8.3
				c0.4-1.1,0.8-2.2,1.2-3.3c0.4-1.1,0.8-2.2,1.3-3.3c0.9-2.2,0.9-2.2,0,0c-0.2,0.5-0.5,1.1-0.7,1.6c0.5-1.1,0.9-2.2,1.4-3.2
				c0.7-1.6,1.4-3.2,2.2-4.8c1.2-2.7,2.5-5.3,3.9-7.9c3-5.7,6.2-11.3,9.6-16.8c-16.4-2.1-32.9-4.3-49.3-6.4
				c3.2,10.8,5.4,21.7,7.1,32.8c0.6,3.8,0.4-0.5-0.2-1.6c0.6,1.2,0.4,3.3,0.6,4.6c0.3,2.8,0.6,5.6,0.8,8.4
				c0.5,5.6,0.9,11.2,1.2,16.8c0.6,10.9,0.8,21.9,1,32.8c0,2.7,0.1,5.4,0.1,8c0,1.4-0.2,2.8-0.1,4.2c0.1,3.1,1.4-5.1,0.3-2.2
				c-0.8,2.3-2.2,4.3,1-1.2c-1.8,3.1,1.4-1.4,1.9-1.9c-2.3,2.6,1.7-1,2.3-1.4c-1.8,1-1.6,1,0.8-0.2c2-1.1,4.1-1.6,6.4-1.5
				c8.7,6.6,17.4,13.2,26,19.8c-14.2-45.5-25.4-91.9-36.1-138.3c-2.6-11.3-5.1-22.7-7.4-34.1c-1.1-5.7-2.2-11.4-3.1-17.1
				c-0.4-2.5-0.8-5.1-1.2-7.6c-0.2-1.6-0.5-3.2-0.7-4.8c-0.5-3.5,0.7,5.7,0.1,0.5c-2.7-23.8-3.6-47.6-1.2-71.5
				c0.3-2.6,0.5-5.2,0.9-7.8c0.1-1.2,0.2-2.7,0.5-3.9c-1.5,6.6-0.3,2.2,0,0.4c0.9-6.1,1.9-12.3,2.9-18.4c2-11.6,4.1-23.2,6.2-34.9
				c4.2-23.4,8.5-46.8,12.7-70.2c0.1-0.8,0.7-7.9,1.7-8.3c0.5-0.2-3.8,6.4-1,2.8c-2,2.6-3.5,4.4-6.4,6.1
				c-10.2-2.6-20.3-5.1-30.5-7.7c-0.6-1.3-1.2-2.7-1.7-4c0.8,1.1,1.1,3.1,1.5,4.4c1,3,1.9,6,2.8,9c3.2,11.1,5.8,22.4,7.7,33.8
				c0.4,2.5,0.6,5.2,1.2,7.7c-1.5-7.5,0.1,1.6,0.3,3.6c0.7,6.2,1.2,12.4,1.6,18.6c0.8,11.8,1.1,23.6,1.5,35.4
				c0.8,26.7,2,53.3,2.3,80c0.1,12.5-0.1,25-1.1,37.4c-0.3,3.1-0.6,6.2-1,9.3c-0.7,6.3,0.8-4.8,0.1-0.7c-0.3,1.5-0.5,3.1-0.7,4.6
				c-1.2,6.7-2.7,13.4-4.6,20c16.4-2.1,32.9-4.3,49.3-6.4c3.3,7.4,0.1,0-0.5-1.6c-0.7-2.2-1.4-4.4-2-6.6c-0.6-2.2-1.1-4.5-1.5-6.8
				c-0.2-1.1-0.4-2.3-0.6-3.4c-0.5-3-0.4-2.3,0.2,2c0.3-1.4-0.4-3.8-0.6-5.2c-0.2-2.3-0.4-4.7-0.5-7c-0.2-4.7-0.3-9.4-0.2-14.1
				c0.2-18.7,1-37.4,2.6-56c0.2-2.6,0.5-5.1,0.8-7.7c0.1-1.3,0.3-2.6,0.4-3.8c0.4-3,0.3-2.5-0.2,1.5c-0.3-4.1,1.5-9.2,2.3-13.3
				c1.7-8.3,3.9-16.5,6.7-24.5c0.7-1.9,2-4.1,2.3-6.1c-1.7,3.9-1.9,4.6-0.8,1.9c0.4-1,0.9-2,1.4-3c1.6-3.4,3.4-6.8,5.3-10.1
				c2.1-3.6,5.4-7,7.2-10.8c-2.6,3.3-3,3.9-1.2,1.7c0.7-0.8,1.4-1.6,2.1-2.5c1.4-1.6,2.9-3.2,4.5-4.7c-15-4-30.1-7.9-45.1-11.9
				c2.4,7.6,4.5,15.3,6.2,23.1c0.8,3.9,1.5,7.8,2.1,11.8c1.1,7.1-0.4-4.6,0.1,1c0.2,1.8,0.4,3.7,0.6,5.5c1.4,15.9,1.1,31.9-0.9,47.8
				c18,0,36,0,54,0c-0.8-30.8-1.6-61.5-2.5-92.3c-0.4-14.6-1-29.3-1-43.9c0-6.8,0.8-13.6,1.1-20.4c-0.4,7.6-0.3,2.1,0.1,0.2
				c0.3-1.7,0.7-3.4,1.1-5.1c0.9-3.4,1.9-6.8,3.2-10.1c3-7.8,0-17.3-4.8-23.5c-5.4-7-12.5-10-21.2-10.6c-26.8-2-53.7-4-80.5-6
				c0,18,0,36,0,54c24.6-1.4,49.1-2.8,73.7-4.2c12-0.7,24-1.3,35.9-2.1c13.5-0.9,27.5-2.3,40.3-7.1c-11.4-8.7-22.8-17.4-34.2-26
				c0.4,36.9-8.2,73.2-7.8,110.2c0.5,37.3,2.1,74.7,3.3,112c0.6,21.1,1.3,42.2,1.9,63.3c0.4,14.1,12.1,27.7,27,27
				c14.3-0.6,27.5-11.9,27-27c-1.1-37.3-2.2-74.5-3.4-111.8c-1.1-37.3-3.4-74.5,0.9-111.6c2.4-20.6,5.3-41.2,5.1-62.1
				c-0.2-16.1-17.3-32.5-34.2-26c-5.2,2-10.4,3.2-15.8,4.3c-6,1.2,4.4-0.4,0.8-0.1c-1.5,0.1-3,0.3-4.6,0.5c-2.7,0.3-5.5,0.4-8.2,0.6
				c-12,0.7-24.1,1.4-36.1,2.1c-23.9,1.4-47.8,2.7-71.7,4.1c-14.1,0.8-27.7,11.8-27,27c0.7,15.5,11.9,25.9,27,27
				c26.8,2,53.7,4,80.5,6c-8.7-11.4-17.4-22.8-26-34.2c-11,28.7-7.3,61.6-6.5,91.7c0.8,31.4,1.7,62.8,2.5,94.3
				c0.4,14.1,12.1,27.7,27,27c7-0.3,14.2-2.6,19.1-7.9c5.2-5.6,7-11.6,7.9-19.1c4.3-34.5,0.6-70.4-10.1-103.5
				c-6.1-19.1-30.3-26.8-45.1-11.9c-22.7,22.7-36.1,53.3-42,84.6c-3.4,17.8-5,36-5.9,54.1c-0.8,15.5-1.7,31-1.2,46.5
				c0.6,21.2,4.4,41,13,60.4c4.3,9.7,17.4,14.2,26.9,12.9c10.6-1.4,19.5-8.9,22.4-19.3c14.1-49.7,8.9-103,7.3-153.9
				c-0.8-27.4-1.8-54.7-5.5-81.9c-1.7-12.2-4-24.3-7.2-36.2c-4.5-17-9.2-37.9-28.5-43.5c-20.2-5.9-38.4,10.2-42.7,29.1
				c-3,12.8-4.7,26-7.1,39c-4.6,25.2-9.4,50.4-13.6,75.7c-4.4,26.7-7.8,53.7-6.8,80.9c1,26.8,5.2,53.6,10.5,79.9
				c5.7,28,12.6,55.8,19.4,83.5c6.9,27.9,14.4,55.7,22.9,83.2c3.4,10.9,14,20.4,26,19.8c22.4-1.1,37.7-17.8,40.6-39.4
				c1.8-13.7,0.6-28,0.1-41.8c-1.1-28.4-3.7-57.3-11.8-84.7c-3.1-10.4-11.8-17.9-22.4-19.3c-10.8-1.5-21.1,3.6-26.9,12.9
				c-13.5,21.8-24,45.9-30.7,70.7c-7,26-10.9,53.3-6.7,80.1c2.4,15.1,8.5,31.3,20.9,40.8c14.3,11.1,31.6,8.5,48.3,6.2
				c22.8-3.2,45.8-12.9,58-33.6c8.7-14.8,9.2-31.1,6.9-47.6c-0.8-5.8-2-11.4-3.3-17.1c-0.6-2.8-1.3-5.6-1.9-8.5
				c-0.2-1.2-0.5-2.3-0.7-3.5c-0.2-1.2-0.4-2.5-0.6-3.7c0.5,3.8,0.6,4.6,0.3,2.5c-2.6-25.7-1.4-51.8,0.6-77.5
				c0.5-6.5,1.1-12.9,1.7-19.3c0.3-2.9,0.6-5.8,1-8.7c0.2-1.6,0.4-3.2,0.6-4.8c0.2-1.3,0.3-2.6,0.5-3.9c-0.2,1.1-0.3,2.2-0.5,3.3
				c1.3-13.1,4-26.3,6.5-39.3c5-25.6,12.6-50.8,17.1-76.5c10.4-59.6,7.6-120.9,8-181.2c-18,0-36,0-54,0
				c1.9,67.4,3.7,134.7,5.6,202.1c1.8,66.5,4,133,5.4,199.5c0.8,38,1.2,76,0.6,114.1c9-9,18-18,27-27c-2,0.2-3.9,0.4-5.8,0.4
				c-0.8,0-1.7,0-2.5-0.1c-3-0.3-2.2-0.1,2.2,0.4c-2.9-1.2-6.9-1.3-10-2c-8.7-2-17.4-3.9-26.4-4.6c-8.7-0.7-17.8,0.9-26.1,3.6
				c-3.5,1.1-6.9,2.5-10.3,3.7c-1.9,0.6-3.7,1.3-5.6,1.8c-1,0.3-4.4,0.5-4.9,1.1c4.1-0.5,5-0.6,2.9-0.4c-0.9,0.1-1.8,0.1-2.6,0.1
				c-1.8,0-3.5-0.1-5.3-0.2c-5.8-0.2,5.4,1.2,0.2,0c-2-0.5-4.1-0.8-6.1-1.3c-7.3-1.8-14.4-4.1-21.7-5.7c-19.5-4.1-38.9-4-58.4,0.3
				c11.4,8.7,22.8,17.4,34.2,26c7.3-67.5,3.7-134.8,1.8-202.4c-1.8-67.2-1.2-134.6,1.9-201.8c1.8-38.1,4.4-76.1,7.7-114.1
				c-15.4,6.4-30.7,12.7-46.1,19.1c1.9,2,1.4,1.2-1.5-2.4c0.5,0.7,1,1.5,1.4,2.3c-1.7-4.4-2.1-5.3-1.3-2.6c0.4,2.1,0.5,1.8,0-0.9
				c-0.3-2.7-0.4-3-0.2-0.9c-0.1,2.9,0.1,1.8,0.6-3.1c-0.2,0.9-0.4,1.8-0.7,2.6c2-4.3,2.3-5.2,1-2.8c16.8,4.5,33.5,9.1,50.3,13.6
				c-0.4-6.6-0.7-13.2-1.1-19.8c-0.8-14.1-11.8-27.7-27-27C267.3-14.4,253.4-3.1,254.2,12L254.2,12z"/>
		</g>
	</g>
	<g>
		<g>
			<path class="st4" d="M1079,453.5c44.8,0.3,89.7,0.7,134.5,1c22.3,0.2,44.6,0.2,66.9,0.8c21.5,0.6,42.9,2.4,64.3,3.7
				c27.9,1.7,55.9,0.9,83.2-5.7c11.3-2.7,24.1-12.4,29.6-22.7c5.3-10,7.4-20.3,5.9-31.6c-1.4-10.4-5.7-21.1-13.6-28.4
				c-9.5-8.7-21.8-15-35-14.5c-18.5,0.7-36.9,1.3-55.4,2c-21.1,0.8-41.9,1.8-62.8,5.8c-16.7,3.2-33.2,7.7-49.9,11.4
				c-17.6,3.9-35.2,7.3-53.1,9.8c4.4-0.6,8.8-1.2,13.2-1.8c-25.4,3.4-50.5,3.4-76.1,3.1c-16.5-0.2-32.5,1-48.8,3.4
				c-8.9,1.3-17.6,3.8-25.2,8.9c-19.7,13.3-31.5,36.9-24.2,60.7c4.9,15.9,17.6,30.9,34.6,34.6c0.9,0.1,1.7,0.4,2.5,0.7
				c-3.9-1.7-7.9-3.3-11.8-5c0.8,0.4,1.5,0.8,2.2,1.4c-3.3-2.6-6.7-5.2-10-7.7c0.3,0.3,0.6,0.6,0.9,0.9
				c7.3-27.6,14.6-55.2,21.8-82.7c-2.3,0.8-4.6,1.6-6.9,2.5c-11.8,4.2-23.5,11.2-29.6,22.7c-5.3,10-7.4,20.3-5.9,31.6
				c1.4,10.4,5.7,21.1,13.6,28.4c9.2,8.4,22.1,15.7,35,14.5c48.5-4.5,97.3-5.3,145.9-2.4c47.3,2.9,94.2,11.8,141.7,11.9
				c27,0.1,54-1.3,80.8,2.1c-4.4-0.6-8.8-1.2-13.2-1.8c3.2,0.4,6.3,0.9,9.5,1.5c13.4,2.4,26,2.1,38.1-5c10.3-6,20.1-17.8,22.7-29.6
				c2.9-12.7,2.3-26.9-5-38.1c-6.6-10.2-17.1-20.6-29.6-22.7c-28-4.9-55.8-5.8-84.1-5.5c-24.6,0.3-48.9-0.4-73.4-3
				c-24.6-2.6-49.1-5.9-73.8-7.8c-24.9-1.9-49.9-2.8-74.9-2.7c-28.3,0.1-56.6,1.5-84.8,4.1c4.4,32.4,8.8,64.8,13.2,97.2
				c2.3-0.8,4.6-1.6,6.9-2.5c16.6-5.9,29.7-17,34.6-34.6c4.6-16.7,0-36.1-12.7-48.2c-7.6-7.3-17-13.4-27.5-15.7
				c11.5,11.5,23,23,34.6,34.6c-0.1-0.4-0.2-0.7-0.3-1.1c0.6,4.4,1.2,8.8,1.8,13.2c0-0.3,0-0.7,0-1c-0.6,4.4-1.2,8.8-1.8,13.2
				c0.1-0.3,0.2-0.6,0.3-1c-1.7,3.9-3.3,7.9-5,11.8c0.2-0.3,0.4-0.6,0.6-0.9c-2.6,3.3-5.2,6.7-7.7,10c0.3-0.3,0.6-0.6,0.8-0.8
				c-3.3,2.6-6.7,5.2-10,7.7c1.1-0.8,2.1-1.4,3.3-1.9c-3.9,1.7-7.9,3.3-11.8,5c3.2-1.1,6.7-1.5,10.1-2c-4.4,0.6-8.8,1.2-13.2,1.8
				c19.3-2.5,38.6-1.4,58-1.2c22.8,0.2,45.3-2.2,67.9-5.4c18.8-2.6,37.4-6.3,55.9-10.5c18.4-4.1,36.6-9.4,55.2-12.1
				c-4.4,0.6-8.8,1.2-13.2,1.8c15.7-2.1,31.6-2.2,47.4-2.7c16.2-0.6,32.3-1.2,48.5-1.7c-4.4-32.4-8.8-64.8-13.2-97.2
				c-5.5,1.3-11,2.3-16.6,3.1c4.4-0.6,8.8-1.2,13.2-1.8c-20,2.5-40.1,1.7-60.1,0.3c-20.5-1.4-41-2.9-61.6-3.4
				c-42.1-1-84.2-0.8-126.3-1.2c-23.7-0.2-47.5-0.4-71.2-0.5c-12.6-0.1-26.1,5.6-35,14.5c-8.6,8.6-15.1,22.7-14.5,35
				C1030.7,431,1051.2,453.3,1079,453.5L1079,453.5z"/>
		</g>
	</g>
	<g>
		<g>
			<path class="st4" d="M556,357.3c-0.5-0.1-0.9-0.1-1.4-0.2c4.4,0.6,8.8,1.2,13.2,1.8c-0.9-0.2-1.8-0.4-2.7-0.8
				c3.9,1.7,7.9,3.3,11.8,5c-1.3-0.6-2.4-1.2-3.6-2.1c3.3,2.6,6.7,5.2,10,7.7c-0.7-0.6-1.4-1.2-2-1.9c2.6,3.3,5.2,6.7,7.7,10
				c-0.9-1.2-1.6-2.2-2.2-3.6c-14.2,24.8-28.5,49.7-42.7,74.5c58.5,4.5,117,9,175.6,10.4c57.7,1.4,115.5-0.3,173.2-2.5
				c33-1.2,65.9-3.2,98.8-6.5c-15.9-20.9-31.8-41.8-47.7-62.7c-4.6,24.8-4.8,49.6,2.7,73.9c15.9-20.9,31.8-41.8,47.7-62.7
				c-33.1,3.1-66.2,7.2-99.4,8.5c-33.3,1.3-66.8-1.1-100.2-1.9c-67.2-1.7-134.4-1.9-201.6-0.7c-18.6,0.3-37.3,0.8-55.9,1.3
				c-19,0.6-37.6,4.1-51.4,18.4c-10.1,10.5-16,24.6-16.3,39.2c-0.3,15.3,6.2,28.3,16,39.5c11.4,13,32,17.2,48.2,12.7
				c17.1-4.7,29.3-17.9,34.6-34.6c3.3-10.5,6.1-21.1,8.2-31.8c1.1-5.5,2.1-11.1,2.9-16.7c0.9-6.4,2-12.8,2.5-19.3
				c0.4-4.5-0.4-8.7-1-13.3c-1.9-13.9-7.8-25.6-17.4-35.9c-7.2-7.7-19-14-29.1-16.3c-15.5-3.6-32-2.3-47.1,2.7
				c-15,5-25.9,14.1-32.1,28.7c-6.3,14.9-5.1,29.8,2.5,44.1c11.7,22.1,35.7,38,59.8,43.2c21.7,4.6,43.6,3,65.5,5.9
				c-4.4-0.6-8.8-1.2-13.2-1.8c40.3,5.6,79.1,19.8,120.2,19.7c12.7,0,26-5.5,35-14.5c8.6-8.6,15.1-22.7,14.5-35
				c-0.6-12.8-4.8-26.1-14.5-35c-9.7-8.9-21.6-14.5-35-14.5c-8,0-15.9-0.6-23.8-1.6c4.4,0.6,8.8,1.2,13.2,1.8
				c-22-3-43.3-9-65.1-13.3c-14.2-2.8-28.7-5-43.2-6.1c-11.6-0.9-23.3-0.4-34.8-1.9c4.4,0.6,8.8,1.2,13.2,1.8
				c-5.8-0.9-11.3-2.2-16.7-4.5c3.9,1.7,7.9,3.3,11.8,5c-3.6-1.6-6.9-3.5-10-5.9c3.3,2.6,6.7,5.2,10,7.7c-2.2-1.8-4.2-3.8-6-6.1
				c2.6,3.3,5.2,6.7,7.7,10c-1.1-1.6-2.1-3.2-3-4.9c-9.9,24.2-19.7,48.5-29.6,72.7c3.8-1.3,7.7-2.3,11.8-2.8
				c-4.4,0.6-8.8,1.2-13.2,1.8c2.6-0.3,5.2-0.3,7.8,0c-4.4-0.6-8.8-1.2-13.2-1.8c1.6,0.3,3.1,0.7,4.6,1.2c-3.9-1.7-7.9-3.3-11.8-5
				c1.1,0.5,2,1.1,3,1.8c-3.3-2.6-6.7-5.2-10-7.7c0.9,0.8,1.7,1.6,2.4,2.6c-2.6-3.3-5.2-6.7-7.7-10c0.6,0.8,1,1.6,1.4,2.5
				c-1.7-3.9-3.3-7.9-5-11.8c0.4,1,0.7,2.1,0.9,3.1c-0.6-4.4-1.2-8.8-1.8-13.2c0.4,3.4,0.2,6.6-0.3,10c0.6-4.4,1.2-8.8,1.8-13.2
				c-2.4,17.4-6.2,34.5-11.5,51.2c27.6-7.3,55.2-14.6,82.7-21.8c-0.2-0.3-0.5-0.6-0.7-0.8c2.6,3.3,5.2,6.7,7.7,10
				c-0.2-0.3-0.3-0.6-0.5-1c1.7,3.9,3.3,7.9,5,11.8c-0.1-0.4-0.2-0.7-0.3-1.1c0.6,4.4,1.2,8.8,1.8,13.2c-0.1-0.8-0.1-1.5,0.1-2.2
				c-0.6,4.4-1.2,8.8-1.8,13.2c0.1-0.4,0.2-0.7,0.3-1.1c-1.7,3.9-3.3,7.9-5,11.8c0.3-0.7,0.6-1.4,1.1-2.1c-2.6,3.3-5.2,6.7-7.7,10
				c0.5-0.6,1-1.2,1.6-1.7c-3.3,2.6-6.7,5.2-10,7.7c0.8-0.6,1.6-1,2.5-1.3c-3.9,1.7-7.9,3.3-11.8,5c1.4-0.5,2.7-0.8,4.2-1
				c-4.4,0.6-8.8,1.2-13.2,1.8c14.6-1.4,29.6-1,44.3-1.3c15.3-0.3,30.6-0.6,45.9-0.8c30.6-0.4,61.2-0.5,91.8-0.2s61.2,0.7,91.8,1.5
				c29.7,0.8,59.5,2.8,89.2,1.8c34.2-1.1,68.3-5.3,102.4-8.6c8.9,0,17.3-2.3,25-6.8c5.8-3.1,10.4-7.4,13.9-12.7
				c9.3-12.1,13.5-28.1,8.9-43.2c-1.6-5.3-2.8-10.7-3.6-16.3c0.6,4.4,1.2,8.8,1.8,13.2c-1.1-8.6-1.1-17.2,0-25.9
				c-0.6,4.4-1.2,8.8-1.8,13.2c0.3-1.8,0.6-3.7,0.9-5.5c3-16,1.3-30-8.9-43.2c-8.7-11.3-23.8-21-38.9-19.5
				c-58.5,5.9-117.3,7.4-176,8.5c-57.8,1.2-115.2,0.5-172.9-3c-32.9-2-65.8-4.5-98.6-7.1c-17-1.3-34.5,10.4-42.7,24.5
				c-4.5,7.7-6.7,16-6.8,25c0,8.9,2.3,17.3,6.8,25c4.7,9.8,13.5,17.9,22.5,23.7c10.4,6.7,20.1,8,32.1,9.4c11.7,1.4,27-6.5,35-14.5
				c8.6-8.6,15.1-22.7,14.5-35c-0.6-12.8-4.8-26.1-14.5-35c-3.3-2.6-6.7-5.2-10-7.7C573.3,359.6,564.9,357.4,556,357.3L556,357.3z"
				/>
		</g>
	</g>
	<g>
		<g>
			<path class="st4" d="M1005.3,17.4c0,0.2,1,6.2,0.5,2.4c0.2,1.9,0.4,3.8,0.5,5.7c0.2,3.8,0.1,7.7-0.1,11.5c13,0,26,0,39,0
				c-0.1-5.7-0.2-11.4-0.3-17.2c-0.2-10.2-8.8-20-19.5-19.5c-11,0.5-19,8.6-19.5,19.5c-1.4,28.7-3.5,57.4-6.2,86
				c-0.9,9.6,8.1,18,16.9,19.2c8.6,1.2,20-4.4,21.4-14c2.8-19.2,5.5-38.3,8.3-57.5c1.2-8.5,1.9-17.4,4.4-25.6c0.3-1,0.7-2.1,1.1-3.1
				c-0.9,2.2-0.8,2.2,0.2,0.2c1.7-3.3-2.5,2.2,0.5-0.6c1.6-1.4,1.4-1.3-0.6,0.3c0.8-0.5,1.6-1,2.5-1.4c-2.5,1-2.7,1.2-0.7,0.7
				c-2.9,0.3-3.2,0.5-1,0.5c-6.5-6.5-13-13-19.5-19.5c-0.5,5.5-1.1,10.9-1.8,16.4c-0.2,1.6-0.4,3.2-0.6,4.8c0.3-2.1,0.1-0.7-0.1,0.6
				c-0.4,2.9-0.8,5.8-1.3,8.6c-1.7,11.2-3.8,22.3-6.2,33.3c-2.1,10,2.9,21.6,13.6,24c10.4,2.4,21-3.1,24-13.6
				c2.4-8.5,4.9-16.9,7.3-25.4c-12.8-1.7-25.5-3.5-38.3-5.2c-4.6,41.3-9.3,82.7-13.9,124c13,0,26,0,39,0c-2.3-22.8-4.7-45.6-7-68.4
				c-1-10.2-8.1-19.9-19.5-19.5c-12,0.5-20.4,7.5-24.6,18.4c-2.7,6.9-2.4,14.4-2.5,21.7c-0.2,16-0.4,32-0.6,48
				c-0.3,31.3-0.6,62.7-0.9,94c-0.2,31.9-0.6,63.8-0.5,95.7c0.1,15.8,0.3,31.6,1.2,47.4c0.8,14.6,1.9,29.2,1.9,43.8
				c0,4.4-0.1,8.9-0.4,13.3c-0.1,1.9-0.3,3.8-0.4,5.7c-0.1,0.7-1.1,8.1-0.4,4.2c-1.7,10.5-5.5,21.3,0.3,31.4
				c6.4,11.3,18.5,12.3,30,13.1c9,0.6,18.1,0.4,27-0.5c9.6-1,20.7-8.2,19.5-19.5c-2.8-26.6-5.5-53.3-5.8-80.1
				c-0.3-26.2,1.2-52.3,0.5-78.4c-1.4-52.5-4.2-105-6.7-157.5c-1.4-30.2-3.2-60.4-5.9-90.6c-12.8,1.7-25.5,3.5-38.3,5.2
				c0.2,1.3,0.4,2.5,0.6,3.8c0-0.1,0.7,5.2,0.5,3.1c-0.2-1.9,0.2,1.8,0.2,2.2c0.1,1.3,0.3,2.6,0.4,3.8c0.5,5.8,0.8,11.5,0.9,17.3
				c0.1,5.5-0.1,10.9-0.5,16.4c-0.2,2.6-0.4,5.1-0.7,7.7c0-0.1-0.6,5.2-0.3,3.1c0.3-2.1-0.5,3.3-0.5,3.1c12.8,1.7,25.5,3.5,38.3,5.2
				c-0.1-24.5,0.5-49.1-0.6-73.5c-0.5-12.5-2.2-25.2-6.9-36.9c-4.6-11.6-10.7-22.4-16.4-33.6c-4.4-8.7-15.9-11.5-24.4-8
				c-9.5,4-13,13.3-11.3,23c5.5,31.5,11.9,62.8,19.4,93.8c4.6,19,32.6,18.1,37.6,0c2.6-9.2,3.9-18.9,3.8-28.4
				c-9.8,5.6-19.6,11.2-29.3,16.8c-2-1.6-2.4-1.9-1.4-0.9c1,1.1,0.7,0.6-1-1.4c0.3-0.1,2.2,4.5,0.8,1.2c-1.2-2.9,0.1,0.8,0.3,1.5
				c0.2,0.7,0.3,1.3,0.4,2c0.3,1.5,0.2,0.9-0.2-1.7c0.9,1.5,0.3,5.3,0.4,7c0,3.2-0.1,6.4-0.2,9.6c-0.5,13.9-1.5,27.9-3.1,41.7
				c-1.1,10.2,9.8,19.9,19.5,19.5c11.5-0.5,18.3-8.6,19.5-19.5c1.8-16.3,3-32.8,3.3-49.2c0.1-7-0.3-14.4-2.4-21.1
				c-2.9-9.6-8.3-16.4-16.3-22.3c-12.3-9-29.4,3.2-29.3,16.8c0,1.8,0,3.6-0.1,5.4c0,0.4-0.6,6.3,0,2c-0.5,3.6-1.3,7.1-2.3,10.6
				c12.5,0,25.1,0,37.6,0c-7.5-31.1-13.9-62.4-19.4-93.8c-11.9,5-23.8,10-35.6,15c2.4,4.8,5,9.5,7.5,14.3c1.1,2.1,2.2,4.3,3.3,6.4
				c0.7,1.3,1.2,2.7,1.9,4.1c1.3,2.7-0.8-2.6,0.1,0.3c1.8,5.3,3.1,10.4,4.4,15.9c0.7,3-0.2-2.7,0.1,0.4c0.1,1.6,0.3,3.1,0.4,4.7
				c0.2,2.8,0.3,5.7,0.4,8.5c0.6,23.2,0.3,46.5,0.4,69.8c0,9.7,7.4,17.9,16.9,19.2c8.7,1.2,19.9-4.4,21.4-14
				c4.2-27.3,4.1-54-0.7-81.3c-1.7-9.5-12.6-15.1-21.4-14c-8.9,1.2-17.8,9.5-16.9,19.2c4.8,53.1,6.7,106.4,9,159.7
				c1.1,26.2,2.4,52.4,3.3,78.7c0.9,25.9,0,51.6-0.2,77.5c-0.3,30.4,2.7,60.5,5.8,90.7c6.5-6.5,13-13,19.5-19.5
				c-6.4,0.6-12.9,1-19.3,0.9c-2.9-0.1-5.8-0.2-8.7-0.4c-1.5-0.1-3.4,0-4.8-0.4c0.7,0.1,1.3,0.2,2,0.3c-2.1-0.5-1.6-0.3,1.3,0.5
				c2.3,2.3,4.7,4.7,7,7c0.4,2,0.8,4.1,1.2,6.1c-0.5,2.7-0.6,3-0.1,0.8c0.3-1.2,0.5-2.5,0.8-3.7c0.8-4.2,1.4-8.4,1.9-12.7
				c0.8-6.3,1.4-12.5,1.6-18.9c0.4-12.4-0.3-24.8-1-37.2c-1.5-25.8-2.1-51.6-2-77.5c0.2-52.3,0.6-104.6,1.1-156.8
				c0.2-14.7,0.3-29.3,0.5-44c0.1-7.3,0.2-14.7,0.3-22c0-1.7,0-3.3,0.1-5c0-0.9,0-1.7,0-2.6c0.1-1.5-0.1-0.8-0.4,2.1
				c0,0,0.5-2.2,0.6-2.5c0.7-2,0.5-1.6-0.6,1.3c-2.7,4.1-6.6,6.3-11.6,6.6c-6.5-6.5-13-13-19.5-19.5c2.3,22.8,4.7,45.6,7,68.4
				c1,10.1,8.2,20,19.5,19.5c11.5-0.5,18.3-8.6,19.5-19.5c4.6-41.3,9.3-82.7,13.9-124c1.1-9.6-8.3-18-16.9-19.2
				c-9.6-1.3-18.7,4.6-21.4,14c-2.4,8.5-4.9,16.9-7.3,25.4c12.5,3.5,25.1,6.9,37.6,10.4c5.2-24.4,8.9-49.2,11.3-74.1
				c1-11-9.8-18.9-19.5-19.5c-13.4-0.9-25.1,7-32.7,17.5c-6.4,8.9-8.2,19.9-9.7,30.4c-3.2,22.4-6.5,44.8-9.7,67.3
				c12.8,1.7,25.5,3.5,38.3,5.2c2.7-28.6,4.8-57.3,6.2-86c-13,0-26,0-39,0c0.1,5.7,0.2,11.4,0.3,17.2c0.2,10.2,8.8,20,19.5,19.5
				c11.1-0.5,18.8-8.6,19.5-19.5c0.6-10.1-0.4-20.1-2.3-30c-1.9-10-14.5-16.7-24-13.6C1008.2-3.1,1003.3,6.7,1005.3,17.4
				L1005.3,17.4z"/>
		</g>
	</g>
	<g>
		<g>
			<path class="st4" d="M1069,155.2c95.7-0.2,191.3-0.5,287-0.7c27.2-0.1,54.5-0.1,81.7-0.2c9.7,0,9.7-15,0-15
				c-95.7,0.2-191.3,0.5-287,0.7c-27.2,0.1-54.5,0.1-81.7,0.2C1059.3,140.3,1059.3,155.3,1069,155.2L1069,155.2z"/>
		</g>
	</g>
	<g>
		<g>
			<path class="st4" d="M1065.7,147c51.1,0.1,102.2,0.3,153.4,0.4c50.4,0.1,100.8,0.7,151.2-0.7c28.5-0.8,57.1-2.2,85.5-4.8
				c9.5-0.9,9.6-15.9,0-15c-50.4,4.5-100.9,5.5-151.5,5.6c-50.6,0.1-101.3-0.2-151.9-0.3c-28.9-0.1-57.8-0.1-86.6-0.2
				C1056,131.9,1056,146.9,1065.7,147L1065.7,147z"/>
		</g>
	</g>
	<g>
		<g>
			<path class="st5" d="M669.1,131.3c16,2,32,4.2,48,6.6c3.7,0.6,7.3-0.6,8.8-4.3c1.4-3.2,0.3-7.7-3.1-9.4
				c-19.5-9.7-33.6-26.3-48.7-41.5c-3.7-3.7-7.4-7.3-11.8-10.2c-4.4-3-9.5-4.8-14.1-7.5c-9-5.2-15.6-13.1-20-22.4
				c-3.7-8-15.6-2.2-13.7,5.8c1.5,6.4,5.9,10.9,11,14.7c6.2,4.8,12.6,9.4,18.8,14.1c7.2,5.4,14.3-5.7,9.1-11.8
				c-10.1-11.6-22.1-20.4-35.4-28.1c-11.5-6.7-17.7-19.7-31-23.5c-8.7-2.5-12.3,8.9-5.8,13.7c9.5,7,18.9,14,28.4,21
				c2.5-4.3,5-8.6,7.6-13c-14-9-27.2-19-39.7-30c-3,3.9-6.1,7.9-9.1,11.8c4.8,3.1,9.6,6.2,14.4,9.3c5.4,3.5,13.1-2.3,11-8.5
				c-3.7-11-12.6-18.8-24.2-20.2c-11-1.4-22,3.7-32.9,1.7c-8-1.4-13.5,9.2-5.8,13.7c13.1,7.6,26.2,15.2,39.2,22.8
				c8.5,5,15.2-7.4,7.6-13c-7.8-5.7-16.3-9.9-25.4-12.9c-3.6-1.2-7.5,1.1-8.8,4.3c-1.6,3.7,0,7.1,3.1,9.4
				c22.5,16.9,45.3,33.3,67,51.2c10.6,8.7,20.4,18.1,30.2,27.6c9.8,9.5,21.4,16,32.5,23.8c6.9,4.9,15.5-6.2,9.1-11.8
				c-16.5-14.2-33.1-28.4-49.6-42.6C628.4,65.9,618,76,625,82.7c17.3,16.6,36.6,31,57.6,42.6c7.3,4,15.5-5.8,9.1-11.8
				c-8.8-8.2-19.2-14.1-29.2-20.7c-8.6-5.7-17.4-12.8-21.1-22.7c-4.2,2.4-8.4,4.9-12.5,7.3c8.9,8.1,17.8,16.4,26.5,24.7
				c3-3.9,6.1-7.9,9.1-11.8c-12-7.3-24-14.5-36-21.8c-10-6-20.4-11.7-29.6-18.9c-7.7-6-14.7-13.4-17.3-23.1
				c-1.6-6.1-2.4-12.3-7.2-16.9c-4-4-10.4-5.9-15.8-3.8c-4.7,1.9-8.1,8.5-3.3,12.5c21.2,17.7,41.5,36.4,61,56
				c4.2,4.2,13.7,1.4,12.8-5.3c-1.5-11.6-9-21.2-20.7-23.9c-6.5-1.5-11.5,5.1-8.5,11c0.1,0.2,0.3,0.5,0.4,0.7
				c-0.3-1.9-0.5-3.9-0.8-5.8c-0.1,0.2-0.2,0.4-0.3,0.7c1.1-1.5,2.3-3,3.4-4.5c1.9,0.2,2.2,0.2,0.9-0.2c-0.5-0.2-1-0.4-1.6-0.6
				c-1.2-0.5-2.4-1-3.6-1.5c-2.5-1.2-5-2.4-7.4-3.8c-5-2.8-9.7-6.1-14-9.9c-8.5-7.4-15.2-16.5-24.5-22.9c-3.5-2.5-8.1-0.4-10.3,2.7
				c-4.3,6-2.2,14.2,2.9,19c5.5,5.2,14,5.8,20.4,9.3c13.9,7.7,23.4,21,33.3,33c10.2,12.4,21.8,22.3,35.2,31.1
				c12.5,8.2,25.4,15.7,35.5,27c3-3.9,6.1-7.9,9.1-11.8c-11.2-6.7-20.5-15.7-27.5-26.8c-5.1-8.1-18.1-0.6-13,7.6
				c8.3,13.2,19.5,24.1,32.8,32.2c7.5,4.5,14.6-5.6,9.1-11.8c-18.5-20.9-46.2-30.3-64.9-51.2c-9.7-10.9-18-23.2-29.1-32.8
				c-5.3-4.6-10.9-8.6-17.3-11.5c-3-1.4-6.1-2.4-9.3-3.4c-1.5-0.5-2.7-1.1-4.1-1.7c-1.1-0.4-0.5-0.3-0.3-0.6
				c-3.4,0.9-6.8,1.8-10.3,2.7c6.1,4.3,10.9,10.2,16.1,15.5c5.7,5.8,12.1,10.9,18.9,15.2c6.2,3.9,13.8,8.3,21,10
				c8.1,1.9,16.2-5.2,11.9-13.3c-2.8,3.7-5.6,7.3-8.5,11c4.6,1,9,4.4,9.7,9.4c4.3-1.8,8.5-3.5,12.8-5.3c-19.5-19.6-39.8-38.3-61-56
				c-1.1,4.2-2.2,8.4-3.3,12.5c2.3-0.9,0.3-0.6,0.8-0.3c0.8,0.5,1.2,1.3,1.6,2.1c1.2,2.6,1.4,5.7,2.1,8.4c1.3,4.7,3.3,9.4,6,13.5
				c5.5,8.5,13.2,15.1,21.4,21c19.8,14.1,41.6,25.7,62.4,38.2c7.2,4.4,15.3-5.9,9.1-11.8c-8.8-8.3-17.6-16.5-26.5-24.7
				c-5.1-4.6-15.4-0.2-12.5,7.3c4.5,11.8,12.8,20.6,22.8,28c10.3,7.6,22,13.2,31.4,22c3-3.9,6.1-7.9,9.1-11.8
				c-19.9-11.1-38.1-24.5-54.5-40.3c-3.5,3.5-7.1,7.1-10.6,10.6c16.5,14.2,33.1,28.4,49.6,42.6c3-3.9,6.1-7.9,9.1-11.8
				c-10.9-7.7-21.9-14.1-31.5-23.5c-9.9-9.8-20.2-19.1-31-27.9C599.4,44.4,576.5,27.9,554,11c-1.9,4.6-3.9,9.1-5.8,13.7
				c7.9,2.6,15.1,6.4,21.9,11.3c2.5-4.3,5-8.6,7.6-13c-13.1-7.6-26.2-15.2-39.2-22.8c-1.9,4.6-3.9,9.1-5.8,13.7
				c9.4,1.7,18.1-0.4,27.5-1.3c8-0.7,16.3,0.8,19.2,9.4c3.7-2.8,7.3-5.6,11-8.5c-4.8-3.1-9.6-6.2-14.4-9.3
				c-7.1-4.6-15.5,6.1-9.1,11.8c13.4,11.8,27.7,22.7,42.7,32.4c8.3,5.3,15.2-7.3,7.6-13c-9.5-7-18.9-14-28.4-21
				c-1.9,4.6-3.9,9.1-5.8,13.7c5.3,1.5,9,5.9,12.6,9.8c4.5,4.8,9.1,8.9,14.8,12.2c12.3,7.1,23,15,32.4,25.7c3-3.9,6.1-7.9,9.1-11.8
				c-4.9-3.6-9.8-7.3-14.6-10.9c-3.2-2.4-7.3-4.8-8.3-8.9c-4.6,1.9-9.1,3.9-13.7,5.8c4.6,10,11.8,18.4,20.8,24.8
				c4.5,3.2,9.5,5.4,14.3,7.9c5.1,2.7,9,6.4,13.1,10.4c16,16,31.1,33.6,51.8,43.8c1.9-4.6,3.9-9.1,5.8-13.7
				c-17.3-2.6-34.6-4.9-52-7.1c-4-0.5-7.5,3.8-7.5,7.5C661.6,128.2,665,130.8,669.1,131.3L669.1,131.3z"/>
		</g>
	</g>
	<g>
		<g>
			<path class="st5" d="M759.1,210.7c10.4-2.9,19-9.4,24.6-18.6c-3.9,0.5-7.9,1-11.8,1.5c5.1,5.9,11.9,9.8,18.3,14
				c6.3,4.1,11.7,9.3,16.7,14.9c10.8,11.9,20.6,23.7,34.5,32.3c7.3,4.5,12.6,9.2,18.2,15.6c5.4,6.3,12,11.1,18.6,15.9
				c12.8,9.2,23.3,20.6,33.8,32.2c11.7,12.9,23.7,25.6,38.7,34.7c1.3-4.7,2.5-9.3,3.8-14c-5.2,0.6-10.4,1.2-15.6,1.8
				c-5.3,0.6-11.2,1.6-16.5,0.2c-4.3-1.1-7.5-4.1-10.7-7.1c-4.1-4-8.2-8-12.3-12c-15.9-15.5-31.4-31.4-47.8-46.4
				c-8.1-7.4-16.5-14.2-25.3-20.7c-7.3-5.4-12.9-10.8-17.6-18.6c-2.5-4.1-5.6-7.6-10-9.7c-4-1.9-8.5-2.5-12.3-4.6
				c-3.2-1.7-5.8-4.3-7.5-7.5c-2.1-4-2.2-8.6-5.3-12.2c-7.5-8.9-24.2-1.3-18,10.4c6.7,12.6,21.3,0.7,28.6-4.1
				c-3.8-2.2-7.5-4.3-11.3-6.5c-0.1,12,2.8,21.9,13.3,28.7c7.4,4.8,16.9,6.7,22.6,13.8c3.5-3.5,7.1-7.1,10.6-10.6
				c-13.3-15.9-28.8-29.8-45.9-41.6c-5.9-4.1-14.8,4.3-10.3,10.3c8.9,11.6,21.2,18.2,33.1,26.1c11.9,7.9,21.4,18.6,32,28.2
				c5.3,4.9,11,9.5,17.1,13.4c6.3,4,13.2,6.7,19.9,9.8c6.5,3,12.4,6.4,17.4,11.6c4.6,4.8,8.3,10.3,12.1,15.7
				c4.5,6.4,9.2,12.9,15.1,18.1c3.9,3.5,12.9,7.8,12.2,13.8c3.2-2.4,6.3-4.8,9.5-7.2c-11.7-4.8-22.6-11.7-31.9-20.2
				c-9.2-8.4-16.3-18.5-24.9-27.5c-9-9.5-19.4-15.2-31.2-20.5c-9.9-4.5-21.2-10.1-22.8-22c-4.2,2.4-8.4,4.9-12.5,7.3
				c15.6,12.4,31.3,24.8,48.4,35.2c8.2,4.9,16.8,8.8,25.2,13.5c7.6,4.2,14.8,9.6,17,18.4c2.3,9.4,16.8,5.4,14.5-4
				c-5.2-20.8-26.2-27.8-42.9-37.2c-18.4-10.3-35.1-23.4-51.6-36.5c-6.1-4.9-13.6-0.3-12.5,7.3c1.8,13,12.5,22.4,23.5,28.1
				c6.1,3.1,12.5,5.5,18.5,8.7c6.1,3.2,11.1,7.5,15.8,12.4c9.3,9.8,17.1,20.8,27.4,29.7c10.8,9.3,22.9,16.4,36,21.8c5,2,9-3,9.5-7.2
				c1.6-14.5-15.5-22-23.3-31.4c-8.8-10.6-15-23.1-26-31.8c-12.1-9.6-27.6-13.1-40-22.3c-11.9-8.8-21.4-20.4-32.8-29.8
				c-6.4-5.3-13.3-9.7-20.3-14.1c-6.7-4.2-13.7-8.6-18.5-14.9c-3.4,3.4-6.8,6.8-10.3,10.3c16.1,11,30.4,24.3,42.9,39.2
				c2.6,3.1,7.9,2.7,10.6,0c3.2-3.1,2.5-7.5,0-10.6c-5.3-6.6-13.1-9.6-20.4-13.2c-3-1.5-6.5-3.1-8.7-5.8c-2.9-3.6-2.5-8.5-2.5-12.8
				c0.1-5.5-6.5-9.6-11.3-6.5c-3.8,2.5-8.8,7.3-13.4,7.9c1.3,0,2.7,0,4,0c0.6,0.7,1.2,1.4,1.8,2.1c0,1.3,0,2.7,0,4
				c-1.2,0.4-2.3,0.8-3.5,1.2c-3.1-0.2-4.1,0.7-3.1,2.6c0,0.7,0.4,1.4,0.6,2.1c0.6,1.8,1.3,3.5,2.1,5.2c1.7,3.4,4,6.5,6.8,9.1
				c5.6,5.3,12,6.8,18.9,9.6c3.1,1.3,4.3,3.5,6,6.4c2,3.5,4.4,6.7,7.1,9.6c5.1,5.5,11.4,9.7,17.3,14.2
				c14.3,10.7,27.1,23.3,39.9,35.8c13.1,12.8,26.1,25.7,39.3,38.5c7,6.8,14.2,11.6,24.2,12.5c9.8,0.9,20-1.3,29.8-2.4
				c7-0.8,10.7-9.8,3.8-14c-26.1-15.7-41.8-43.3-65.7-61.8c-6.4-5-13.4-9.2-19.1-15c-5.9-5.9-10.4-12.2-17.3-17.1
				c-6.6-4.6-13.5-8.2-19.4-13.6c-5.4-5-10.2-10.7-15-16.2c-5.8-6.6-11.8-13-18.8-18.4c-6.8-5.2-14.8-8.7-20.5-15.2
				c-3.2-3.8-9.4-2.4-11.8,1.5c-3.6,5.9-8.9,9.9-15.6,11.7C745.8,198.8,749.8,213.3,759.1,210.7L759.1,210.7z"/>
		</g>
	</g>
	<g>
		<g>
			<path class="st5" d="M727.8,193.8c-4.5,3.6-7.4,8.4-9.1,13.9c-1.9,6.3,5.5,11.8,11,8.5c3.1-1.8,6.2-3.7,9.3-5.5
				c8.4-5,1-17.2-7.6-13c-6.1,3-9.2,8.8-11.9,14.8c-2.8,6.3-6.3,11.1-11.4,15.8c-12.5,11.4-25.7,22.1-38.8,33
				c-27.1,22.6-54.2,45.1-81.2,67.6c4.2,2.4,8.4,4.9,12.5,7.3c1.7-4.4,3.5-8.7,5.2-13.1c1.5-3.8-1.6-8.2-5.2-9.2
				c-4.2-1.2-7.7,1.5-9.2,5.2c-1.7,4.4-3.5,8.7-5.2,13.1c-3,7.7,7.5,11.5,12.5,7.3c26.6-22.1,53.2-44.2,79.7-66.4
				c12.9-10.8,25.9-21.5,38.4-32.6c5.3-4.7,10.4-9.9,13.7-16.2c2.3-4.5,3.6-11.2,8.5-13.7c-2.5-4.3-5-8.6-7.6-13
				c-3.1,1.8-6.2,3.7-9.3,5.5c3.7,2.8,7.3,5.6,11,8.5c1-3.2,2.7-5.2,5.2-7.3c3.2-2.6,2.6-7.9,0-10.6
				C735.3,190.6,730.9,191.3,727.8,193.8L727.8,193.8z"/>
		</g>
	</g>
	<g>
		<g>
			<path class="st5" d="M726.9,157.9c-9.7,5.2-17.8,12.9-25.9,20.2c-8.8,7.9-17.7,15.5-26.8,23c-18.1,15-36.7,29.5-55.5,43.7
				C581,273.2,542,300,505.4,329.8c-3.8,3.1-6.9,7-6.7,12.1c0.2,5.5,4.1,10.3,9.7,10.8c5.2,0.5,10.7-1.2,16-1.2c6,0,12,0.7,18,1.4
				c11.1,1.5,22.6,3.6,33.8,2.3c5.2-0.6,9.7-2.2,13.8-5.5c4-3.3,7.3-7.5,11.3-11.1c15.5-13.9,34.7-23.2,48.9-38.7
				c7.2-7.8,12.9-16.9,21.5-23.3c8.5-6.3,17.9-11.2,26.1-17.9c17.6-14.3,29.8-33.8,46-49.6c8.5-8.3,18.7-14.1,27.7-21.9
				c6.8-5.9,13.9-17,23.8-17c9.7,0.1,9.6-14.8,0-15c-13.1-0.3-26.1-0.6-39.2-0.9c-11.3-0.3-24.1-1.9-30.9,9.2
				c-2.6,4.2-4.1,9-6.6,13.3c-2.7,4.7-5.8,9.2-9.4,13.4c-6.9,8-15,15.1-23.6,21.2c-19.4,13.7-41.3,23.5-61.8,35.4
				c-20.8,12.1-39.9,27-58,42.8c-9.3,8.1-18,18.1-28.6,24.5c-8.5,5.2-24.9,3.3-25,17c0,2.6,1.4,5.1,3.7,6.5
				c14,8.2,30.8,6.9,46.4,6.9c8.2,0,16.9,0.9,25-0.9c7.1-1.5,12.5-6,17-11.5c8.7-10.7,18.3-18.5,29.7-26.2
				c11.5-7.9,22.6-16.1,30.7-27.6c3.6-5.1-2.5-13.4-8.5-11c-10.3,4.1-20.1,9.1-29.1,15.4c-8.9,6.3-16.9,14-26.7,19
				c-9.3,4.7-19.7,7-29.9,8.9c-11.7,2.2-23.5,4-35.3,6c-7.9,1.3-6.3,12.2,0,14.5c12,4.2,24.7,5,37.3,5.1c9.9,0.1,22.7-1.1,23.4-13.6
				c0.2-4.2-3.6-7.3-7.5-7.5c-1.8-0.1-11.7-1-9.3-4.8c3.1-4.9-1-11.2-6.5-11.3c-5.9,0-11.8-0.1-17.7-0.1c0.7,4.9,1.3,9.8,2,14.7
				c10.6-2.7,21.5-1.1,32.2-1.8c9.8-0.6,19.5-3,27.6-8.7c15-10.4,23.8-27.3,28.4-44.6c1.4-5.2-3.7-11.2-9.2-9.2
				c-15.5,5.5-27,16.6-39.1,27.2c-2.7,2.3-5.4,4.6-8.3,6.7c-3.4,2.5-7.2,4.2-10.7,6.5c-9,6-1.3,16.7,7.3,16.9
				c9.5,0.2,19.8-2.3,29-4.2c9.3-2,18.5-4.5,27.4-7.8c4.4-1.7,8.6-3.7,12-7.1c3.1-3.1,5.2-7.2,7.6-10.8c4.6-6.9,9.8-13.2,15.7-19.1
				c13.2-13.1,29.2-23.2,46.8-29.4c9-3.1,5.3-17.3-4-14.5c-24.9,7.6-46.9,21.5-67.9,36.6c-20.9,15-43.6,32.3-70.8,28.7
				c2.2,3.8,4.3,7.5,6.5,11.3c6-8.6,20.6-8.7,29.8-10.4c7.2-1.3,14.4-3,21.5-4.9c5.9-1.6,12.2-3.3,17.4-6.8
				c5.4-3.7,7.7-8.9,11.7-13.7c3.7-4.4,9.5-6.8,14-10.4c10-8,13.5-20.5,16.3-32.4c1.4-6-3.6-10.1-9.2-9.2
				c-16.9,2.5-31.4,11.9-43.8,23.2c-6.3,5.7-12.1,11.9-17.8,18.3c-5.2,5.8-11.8,13.1-8.6,21.6c3.8,10,15.8,8.4,24.3,8
				c10.5-0.5,20.9-1.5,31.3-3.1c9.1-1.3,18.1-2.9,23.7-11c4.5-6.5,5.4-14.6,5.9-22.2c0.3-4-3.7-7.6-7.5-7.5
				c-7,0.2-12.4,3.7-17.2,8.5c-4.8,4.7-8.1,9.4-15.4,9.4c-1,0-4.3-0.6-5.2-0.2c-1.6-0.4-1.6,0.5,0,2.7c-0.4,0.1-0.2,0,0.6-0.5
				c3.2-0.4,7.1-2.7,10.2-3.8c8.3-3,16.6-6.4,24.6-10.1c15.5-7.1,30.4-15.5,44.4-25.2c6.7-4.6,14.1-9.2,18-16.5
				c2.4-4.5,3.3-12.7,7.8-15.7c-3.4-3.4-6.8-6.8-10.3-10.3c-5.7,7.4-17.6,8.3-26.1,9c2.4,3.2,4.8,6.3,7.2,9.5c1.6-3.8,5.1-6.6,9-7.8
				c-2.8-3.7-5.6-7.3-8.5-11c-5.1,7.9-11.6,14.8-19.2,20.4c-3.3,2.4-4.8,6.5-2.7,10.3c1.8,3.2,7,5.1,10.3,2.7
				c9.8-7.2,17.9-15.6,24.6-25.8c3.5-5.4-2.3-13-8.5-11c-9.3,3-15.7,9.4-19.5,18.3c-1.8,4.3,2.8,9.9,7.2,9.5
				c14.9-1.4,29.4-3.9,39-16.5c4.6-6-4.3-14.3-10.3-10.3c-5.6,3.8-8.3,8.9-10.7,15.1c-0.9,2.4-1.7,5-3.1,7.2c-1.9,3-4.9,5-7.7,7
				c-12.9,9.2-26.6,17.4-40.8,24.4c-6.8,3.4-13.7,6.5-20.8,9.3c-7,2.8-14.8,4.6-21.4,8.1c-6.2,3.3-10.3,10.4-7.9,17.4
				c2.7,8,11.4,8.8,18.6,8.9c8.3,0.1,15-2.5,21.1-8c3.3-3,7.5-9.7,12.4-9.8c-2.5-2.5-5-5-7.5-7.5c-0.3,4.5-0.5,10.4-3.5,14.2
				c-3.7,4.6-13.6,4.4-18.9,5.1c-7.5,1-15,1.6-22.5,1.9c-3.4,0.2-8.2-0.5-11.5,0.3c-0.5,0-1,0-1.5-0.1c0.9,2.8,1.6,3.6,1.9,2.4
				c0.4-0.2,1.2-2.1,1.5-2.5c7.3-9.6,16.7-18.7,26-26.3c9.5-7.8,20.2-13.4,32.4-15.2c-3.1-3.1-6.2-6.2-9.2-9.2
				c-1.3,5.6-2.5,11.5-5.1,16.7c-2.7,5.4-6.5,8.5-11.5,11.8c-5.1,3.3-9.4,6.7-12.9,11.7c-3.5,5.1-6,8.5-12.2,10.5
				c-12.5,4.2-25.6,6.4-38.5,8.7c-11.4,2-22.2,5.7-29.1,15.6c-3.6,5.2,1.4,10.6,6.5,11.3c27.9,3.7,52.5-12.1,74-27.6
				c21.4-15.4,43.3-30.5,68.7-38.3c-1.3-4.8-2.7-9.6-4-14.5c-24.4,8.5-46.6,23.5-62.9,43.7c-4,5-7.7,10.2-11.1,15.7
				c-4,6.2-9.8,7.7-16.6,9.8c-7.1,2.2-14.2,4-21.5,5.5c-3.9,0.8-7.9,1.5-11.8,2c-1.8,0.3-3.6,0.5-5.3,0.7c-0.9,0.1-1.8,0.2-2.8,0.3
				c-2.6-0.2-2.5,0.4,0.4,1.8c0.3,1.9,0.5,3.9,0.8,5.8c0.1-0.3,0.2-0.6,0.2-0.8c-1.1,1.5-2.3,3-3.4,4.5c20.1-10,33.2-31.3,54.5-38.8
				c-3.1-3.1-6.2-6.2-9.2-9.2c-3.8,14.2-10.8,29.3-23.9,37.2c-16,9.6-36.4,2.9-53.9,7.4c-8.2,2.1-6.4,14.7,2,14.7
				c5.9,0,11.8,0.1,17.7,0.1c-2.2-3.8-4.3-7.5-6.5-11.3c-3.9,6.2-2.8,14.2,1.9,19.6c5.1,5.9,12.9,7.3,20.3,7.8c-2.5-2.5-5-5-7.5-7.5
				c1.6-2.1,1.9-2.8,1-2c-0.8,0.3-1.6,0.5-2.4,0.6c-1.1,0.2-2.4,0-3.4,0c-4.2,0-8.4,0-12.6-0.2c-8.3-0.4-16.4-1.6-24.3-4.4
				c0,4.8,0,9.6,0,14.5c21.9-3.7,45.3-5.7,65.7-14.9c9.8-4.4,17.8-11.4,26.3-17.9c8.9-6.7,18.7-12.3,29-16.5
				c-2.8-3.7-5.6-7.3-8.5-11c-13.8,19.8-39.1,27.6-54.4,46.2c-3.5,4.3-6.9,10.2-12.5,11.9c-6.3,1.9-14.2,0.7-20.6,0.7
				c-13.1,0-28.9,2.1-40.7-4.9c1.2,2.2,2.5,4.3,3.7,6.5c0,6-2.4,1.6-0.3,2.1c0.6,0.2,2.3-0.5,3-0.7c2-0.4,3.9-0.7,5.8-1.3
				c5.3-1.7,10-4.6,14.4-7.9c8.5-6.5,16.2-14.3,24.3-21.4c16.9-14.8,34.5-28.8,53.8-40.3c36.5-21.9,80.4-37.8,103-76.6
				c2.5-4.3,3.9-10.1,7-14c2.9-3.7,10.9-1.9,15-1.8c14,0.3,28.1,0.7,42.1,1c0-5,0-10,0-15c-11.3-0.1-19.7,7-27.4,14.6
				c-8.5,8.5-18.5,14.6-27.7,22.2c-17.2,14.3-29.4,33.5-45.4,49.1c-8.3,8.1-17.8,13.6-27.3,20.1c-10.9,7.4-18.1,17-26.7,26.7
				c-15.4,17.4-37.2,27.1-53.7,43.4c-4.5,4.4-7.3,8.7-14,9.1c-7.2,0.4-14.5-0.4-21.7-1.4c-7.2-0.9-14.4-2.1-21.6-2.5
				c-3.3-0.2-6.6-0.2-9.8,0c-3.8,0.2-7.8,1.5-11.5,1.1c1.3,0.3,2.5,0.7,3.8,1c0.2,0.6,0.5,1.2,0.7,1.9c0.2,2.2,0.8,2.5,1.9,0.8
				c0.7-0.3,1.4-1.1,2-1.6c1.7-1.3,3.4-2.7,5.1-4c3.9-3,7.8-6,11.8-9c7.4-5.6,14.9-11.2,22.3-16.8c14.7-10.9,29.4-21.8,44.2-32.7
				c29.7-22,59.2-44.2,87.5-67.9c8.1-6.8,16.1-13.6,23.9-20.7c7.3-6.5,14.2-13.2,22.9-17.9C743,166.3,735.4,153.4,726.9,157.9
				L726.9,157.9z"/>
		</g>
	</g>
	<g>
		<g>
			<path class="st5" d="M787.5,132.8c2.8-1.5,5.7-3,8.5-4.4c6.6-3.4,3.5-14.2-3.8-14c-11.3,0.4-22.1,3.4-32,9.1
				c-6.5,3.8-3.6,13.9,3.8,14c15.1,0.2,30.1,0.6,45.2,0.5c13.2,0,26.4-4.8,28-19.5c0.5-4.6-5.2-8.9-9.5-7.2
				c-16.8,6.6-34.8,8.6-52.5,5c0,4.8,0,9.6,0,14.5c9.7-3.3,18.5-8.2,26.2-14.9c3.7-3.2,7-6.8,10.6-10c3.8-3.4,8.1-6,12.5-8.5
				c18.4-10.6,35.6-22.5,51.5-36.6c6.4-5.7-1.9-16.3-9.1-11.8c-14.9,9.2-29.8,18.5-43.9,28.9c-7.3,5.4-14.6,10.9-21.2,17.1
				c-5.4,5.1-10.7,12.4-8.7,20.2c1.9,7.3,8.6,11.4,15.8,11.1c7.9-0.3,13.6-5.6,17.8-11.9c4.3-6.3,7.8-12.5,13.4-17.7
				c5.5-5.2,12.1-9.4,19.1-12.2c-2.4-4.2-4.9-8.4-7.3-12.5C837,89,809.6,88.2,798.1,109.8c-2.2,4.2-0.3,9.7,4.5,11
				c20.4,5.4,38.9-5.6,54.3-17.8c7.6-6,14.9-12.4,23.5-16.9c8.9-4.7,18.6-7.5,26.7-13.5c3.9-2.9,5.1-8,1.5-11.8
				c-1.1-1.2-1.3-2-1.2-3.6c0.1-5.3-6.6-9.8-11.3-6.5c-12.6,8.9-24.5,18.9-35.3,30c-10,10.3-18.3,23.8-31,31c2.5,4.3,5,8.6,7.6,13
				c26.3-17.9,49.9-39.6,73.9-60.5c25.2-21.9,50.4-43.8,75.6-65.6c7.3-6.4-3.3-16.8-10.6-10.6c-1.1,0.9-2.2,1.8-3.3,2.8
				c3.5,3.5,7.1,7.1,10.6,10.6c13.8-12,27.5-24.1,41.3-36.1c5.9-5.2-0.4-14.2-7.3-12.5c-7.9,1.9-16,3-24.1,3.2
				c-7.9,0.2-15.8-0.9-23.7-1c-7.3-0.1-14.7,0.9-21.2,4.5C942.4-37,938-31.4,934-25.6C925.7-13.4,916.9-2,906.2,8.3
				c-10.7,10.3-22.4,18.8-35.1,26.5c-7.7,4.7-15.4,9.4-22.5,15.1c-7.1,5.7-13.4,12.2-19.8,18.7c-3.5,3.6-2.5,9.1,1.5,11.8
				c9.6,6.5,22,6.8,32.7,3c11.1-4,19.9-11.7,27.9-20.1c8.4-8.9,16.4-17.8,26.3-25.1c9.3-6.8,19.2-12.7,29.2-18.4
				c10.5-6,21.2-11.8,31.4-18.4c8.6-5.6,22.6-12.7,19.8-25.2c-3.2-14.1-19.6-14-30-8.8c-11.2,5.6-20.8,14.9-30.3,22.8
				c-24,19.9-47.3,40.5-70,61.9c-5.7,5.4,0.3,14,7.3,12.5c23.9-5.1,49.7-11.5,66.4-30.9c8-9.3,13.7-21,23.5-28.7
				c10-7.9,23-14.4,22-29.3c-0.2-3.1-2.2-6.6-5.5-7.2c-13.3-2.4-27.2,3.6-33.2,16.1c4.6,0.6,9.1,1.2,13.7,1.8
				c-0.4-3.3,0.5-6.6,2-9.5c4.6-8.5-8.4-16.1-13-7.6c-3.7,6.8-4.6,13.5-3.5,21.1c0.9,6.3,11.1,7.3,13.7,1.8
				c2.9-6.1,9.2-10.5,16.2-9.3c-1.8-2.4-3.7-4.8-5.5-7.2c0.4,5.4-3.8,8.9-7.9,11.7c-4.5,3.2-9.1,6.1-13.1,10
				c-8.2,8.1-13.5,18.4-21.2,27c-14.9,16.5-37.9,21.3-58.7,25.8c2.4,4.2,4.9,8.4,7.3,12.5c16.9-15.9,34.1-31.5,51.8-46.6
				c8.9-7.7,18-15.2,27.1-22.6c3.9-3.2,7.7-6.4,11.8-9.2c3.1-2.1,9-6.7,13.1-5.5c0.6,0.2,1.3,0.9,1.3,0.5c-0.1,1.2-5.1,4-5.8,4.5
				c-4.1,2.8-8.2,5.5-12.4,8.1c-8.7,5.3-17.7,10.2-26.5,15.3c-17.5,10-34.6,20.8-48.6,35.4c-12,12.5-31.8,38.2-51.7,24.8
				c0.5,3.9,1,7.9,1.5,11.8c10.9-11.2,22-21,35.4-29.1c12.6-7.7,24.7-15.7,35.8-25.5c10.8-9.5,20.4-20.3,28.9-31.9
				c3.9-5.3,7-11.3,11.5-16.1c4.9-5.3,10.9-6.7,17.9-6.7c8.2,0,16.3,1.2,24.5,1.1c9.5-0.2,18.9-1.5,28.1-3.8
				c-2.4-4.2-4.9-8.4-7.3-12.5c-13.8,12-27.5,24.1-41.3,36.1c-7.3,6.4,3.3,16.8,10.6,10.6c1.1-0.9,2.2-1.8,3.3-2.8
				c-3.5-3.5-7.1-7.1-10.6-10.6c-24.7,21.4-49.4,42.9-74.1,64.3c-23.5,20.4-46.5,41.8-72.3,59.4c-7.9,5.4-0.9,17.8,7.6,13
				c13.1-7.4,21.5-20.1,31.6-30.9c10.5-11.2,22.1-21.3,34.6-30.1c-3.8-2.2-7.5-4.3-11.3-6.5c-0.1,5.5,1.9,10.2,5.6,14.2
				c0.5-3.9,1-7.9,1.5-11.8c-7.3,5.3-15.7,8.2-23.7,12c-8.3,4-15.6,9.6-22.8,15.4c-12.9,10.3-28.7,24-46.5,19.3
				c1.5,3.7,3,7.3,4.5,11c4.9-9.2,14.8-13.3,23.9-17.3c10.1-4.5,20.4-9,27.9-17.4c4.5-5,0.2-15.5-7.3-12.5
				c-12,4.7-22.8,11.8-31.1,21.7c-4,4.7-6.9,10-10.4,15.1c-1.1,1.6-2.6,3.9-4.7,4.3c-0.7,0.2-1.2,0-1.9,0c0.2,0,0.1,1,0.5,0.3
				c2.9-5.4,8.2-9.1,12.9-12.9c5.6-4.6,11.4-8.8,17.3-13c11.9-8.3,24.2-16,36.5-23.6c-3-3.9-6.1-7.9-9.1-11.8
				c-14.9,13.3-31.2,24.3-48.5,34.3c-8.2,4.7-15,10.3-21.7,16.8c-7,6.7-14.8,11.9-24,15.1c-6.5,2.2-7.8,12.9,0,14.5
				c20.3,4.1,41.2,2.6,60.4-5c-3.2-2.4-6.3-4.8-9.5-7.2c-0.8,7.1-20.3,4.4-24.7,4.4c-11.2-0.1-22.4-0.3-33.6-0.4
				c1.3,4.7,2.5,9.3,3.8,14c7.6-4.4,15.7-6.8,24.4-7.1c-1.3-4.7-2.5-9.3-3.8-14c-2.8,1.5-5.7,3-8.5,4.4
				C771.3,124.3,778.9,137.3,787.5,132.8L787.5,132.8z"/>
		</g>
	</g>
	<g>
		<g>
			<path class="st6" d="M486.9,146.2c49.4,2.3,98.8,4.6,148.2,6.9c0-6,0-12,0-18c-50.5,5-100.2-12-150.7-7.4
				c2.9,2.2,5.8,4.4,8.7,6.6c-0.1-0.3-0.1-0.6-0.2-1c0,1.6,0,3.2,0,4.8c-3.7,2.7-4.3,3.7-1.9,2.8c0,0,0,0.1,0,0.1
				c1.3,0.6,3.5,0.3,5,0.5c3.9,0.4,7.8,0.8,11.8,1.2c7.8,0.8,15.7,1.5,23.6,2.2c15.4,1.3,30.8,2.5,46.2,3.4
				c31.2,1.8,62.4,2.8,93.6,2.9c-1.5-5.6-3-11.2-4.5-16.8c-6,4-13.3,5.2-20,1.9c-1.5,5.6-3,11.2-4.5,16.8c23.3,0.3,46.5,0.7,69.8,1
				c11.6,0.2,11.5-17.5,0-18c-13.5-0.6-27.1-1.1-40.6-1.7c0,6,0,12,0,18c19.5,0,38.9,0,58.4-0.1c-2.6-1.5-5.2-3-7.8-4.5
				c-0.1-0.2-0.1-0.4-0.2-0.6c0-1.6,0-3.2,0-4.8c1.8-5.8,2.4-1.7,0.8-2.6c-0.7-0.4-4.9,0.2-5.8,0.2c-3.8,0.1-7.7,0.1-11.5,0
				c-7.7-0.1-15.3-0.6-23-1.4c0,6,0,12,0,18c48.6-0.8,97.3-1.6,145.9-2.4c11.6-0.2,11.6-18,0-18c-17.3,0-34.6,0-51.9,0
				c-8.5,0-16.9,0-25.4,0c-8,0-15.8-0.2-23.5-2.5c-0.8,5.9-1.6,11.8-2.4,17.7c25.1-2.7,50.3-1.1,74.9,4.9c-0.7-5.5-1.4-11-2.1-16.4
				c-4.4,2.7-8.6,2.5-13.3,0.6c-0.8,5.9-1.6,11.8-2.4,17.7c34.3-0.3,68.6-0.5,102.8-0.8c0-6,0-12,0-18c-18.5,0.9-37,0-55.3-2.8
				c-0.8,5.9-1.6,11.8-2.4,17.7c27.6-0.7,55.1-1.4,82.7-2.1c13.6-0.3,27.2-0.7,40.9-1c6.6-0.2,13.3-0.3,19.9-0.5
				c3.7-0.1,7.3-0.2,11-0.3c1.6,0,3.4,0.1,5-0.1c2.3-0.3,1.5,0.7,0.7-0.4c-0.8-1.3-1.5-2.6-2.3-4c0.1,0.3,0.1,0.6,0.2,0.8
				c0.3-2.3,0.6-4.6,0.9-6.9c-0.1,0.3-0.3,0.6-0.4,0.9c2.6-1.5,5.2-3,7.8-4.5c-59,4.8-118.3,3.6-177-3.6c0,6,0,12,0,18
				c30.3,0.3,60.6,0.7,90.8,1c15,0.2,29.9,0.3,44.9,0.5c7.3,0.1,14.6,0.2,22,0.2c4,0,8,0.1,12,0.1c0.8,0,2.5,0.2,3,0.1
				c0.4,0.1,0.7,0.2,1.1,0.3c-1.6,0-2.4-1.3-2.5-3.8c-0.6,11.6,17.4,11.5,18,0c0.9-17.8-24.6-14.7-35.6-14.8
				c-17-0.2-33.9-0.4-50.9-0.6c-34.3-0.4-68.5-0.8-102.8-1.1c-4.9-0.1-9,4.2-9,9c0,5.4,4.2,8.4,9,9c58.7,7.3,118.1,8.5,177,3.6
				c2.9-0.2,6.5-1.5,7.8-4.5c3.3-7.4,0-14.4-7.8-16.8c-6.8-2.2-15.7-0.5-22.7-0.3c-15.9,0.4-31.9,0.8-47.8,1.2
				c-31.9,0.8-63.8,1.6-95.7,2.4c-4.4,0.1-8.3,3.3-8.8,7.8c-0.5,4,2,9.2,6.4,9.9c19.9,3.1,39.9,4.4,60.1,3.5
				c11.5-0.5,11.7-18.1,0-18c-34.3,0.3-68.6,0.5-102.8,0.8c-4.4,0-8.3,3.4-8.8,7.8c-0.6,4.8,2.2,8.1,6.4,9.9
				c8.9,3.7,19.1,2.5,27.2-2.4c6.5-3.9,5.5-14.6-2.1-16.4c-26.1-6.4-53-8.3-79.7-5.5c-9.7,1-12.7,14.6-2.4,17.7
				c16.4,5,34.8,3.1,51.7,3.2c18,0,35.9,0,53.9,0c0-6,0-12,0-18c-48.6,0.8-97.3,1.6-145.9,2.4c-11.8,0.2-11.3,16.9,0,18
				c11.5,1.2,23,1.7,34.5,1.4c5.2-0.1,10.8,0.1,15.6-2.5c4.7-2.7,8.1-7.9,6.7-13.4c-1.8-7-8-7.7-14.2-7.7c-5.8,0-11.7,0-17.5,0
				c-12,0-24,0-36,0c-11.6,0-11.5,17.5,0,18c13.5,0.6,27.1,1.1,40.6,1.7c0-6,0-12,0-18c-23.3-0.3-46.5-0.7-69.8-1
				c-8.6-0.1-12.7,12.7-4.5,16.8c12.2,6,26.6,5.8,38.1-1.9c7.2-4.8,4.8-16.7-4.5-16.8c-35.5-0.1-71-1.3-106.4-3.7
				c-17.7-1.2-35.4-2.7-53.1-4.4c-7.7-0.8-16.6-3.1-24.3-1.7c-8.1,1.4-13.2,7.4-11.7,15.7c0.7,3.6,5,6.9,8.7,6.6
				c50.5-4.6,100.2,12.4,150.7,7.4c11.4-1.1,11.8-17.5,0-18c-49.4-2.3-98.8-4.6-148.2-6.9C475.3,127.7,475.3,145.7,486.9,146.2
				L486.9,146.2z"/>
		</g>
	</g>
	<g>
		<g>
			<path class="st7" d="M840.1,138.1c15.6-10.9,31.1-21.7,46.7-32.6c6.8-4.7,13.6-9.5,19.9-14.9c6-5.2,11-11.4,15.8-17.8
				c4.4-5.8,8.6-11.9,14.2-16.6c5.8-4.9,13.1-7.8,19.4-12C971.1,34,984.9,21.5,999.1,10c-4.7-3.6-9.4-7.3-14.1-10.9
				c-13.2,24.7-38,39.4-61.3,53.1c-10,5.9-0.9,21.4,9.1,15.5c26-15.3,53.2-32.1,67.8-59.6c5-9.4-6.4-17.2-14.1-10.9
				c-13.4,10.8-26.5,23-41,32.4c-6.7,4.4-14,7.7-20.3,12.8c-6,4.9-10.7,11.1-15.3,17.3c-4.5,6-9,11.9-14.6,16.9
				c-5.9,5.3-12.6,9.8-19.2,14.3c-15,10.5-30.1,21-45.1,31.5c-4,2.8-5.8,7.9-3.2,12.3C830.1,138.8,836.1,140.9,840.1,138.1
				L840.1,138.1z"/>
		</g>
	</g>
	<g>
		<g>
			<path class="st7" d="M586.9,11c12.4,10.5,25,20.9,37.7,31c12,9.7,24.5,18.9,36,29.2c5.6,5.1,10.7,10.6,16.1,15.8
				c5.8,5.6,12.2,10.7,18.5,15.7c13.1,10.3,26.1,20.5,39.2,30.8c2.9-5,5.8-10,8.8-15c-1.3-0.4-2.6-0.9-3.8-1.3
				c-11-3.8-15.7,13.6-4.8,17.4c1.3,0.4,2.6,0.9,3.8,1.3c8.2,2.8,15.9-9.5,8.8-15c-13.1-10.3-26.1-20.5-39.2-30.8
				c-6.1-4.8-12.2-9.7-17.8-15.1c-5.7-5.4-11-11.2-16.8-16.4c-11.5-10.4-23.9-19.6-36-29.2c-12.7-10.2-25.3-20.5-37.7-31
				c-3.7-3.1-9.1-3.6-12.7,0C583.7,1.5,583.2,7.9,586.9,11L586.9,11z"/>
		</g>
	</g>
	<g>
		<g>
			<path class="st7" d="M484.7,349.4c8.9,1.8,17.7,0.6,25.6-4c10-5.8,1-21.4-9.1-15.5c-3.6,2.1-7.6,3-11.7,2.2
				c-4.8-1-9.7,1.4-11.1,6.3C477.2,342.8,479.9,348.5,484.7,349.4L484.7,349.4z"/>
		</g>
	</g>
	<g>
		<g>
			<path class="st7" d="M481.5,160.6c0.9-1.5,0.8-2.3-0.1-2.4c5.5,0.7,11,1.4,16.4,2.1c-0.5-2.8-1-5.5-1.5-8.3c-5,2.9-10,5.8-15,8.8
				c6.5,5.9,14.2,7.4,22.7,7.9c9.1,0.6,18.1,0.9,27.2,1.3c19.5,0.9,38.9,1.9,58.4,2.8c18.8,0.9,37.7,2.1,56.6,2.4
				c9.1,0.1,18.1-0.2,27.2-0.8c7.1-0.5,14.7-1.3,21.1,2.6c2.3-5.5,4.6-11,6.9-16.4C633,150.8,564,146.5,495,148.2
				c-11.6,0.3-11.6,18.3,0,18c67.3-1.7,134.8,2.1,201.5,11.7c9.6,1.4,16.3-10.7,6.9-16.4c-14.5-8.9-32.7-4.4-48.7-4.2
				c-18.5,0.2-36.9-1.1-55.4-1.9c-18.8-0.9-37.6-1.8-56.4-2.7c-9.2-0.4-18.5-0.9-27.7-1.3c-5.8-0.3-16.6,1.1-21.4-3.2
				c-7-6.2-16.6-0.1-15,8.8c0.5,2.8,1,5.5,1.5,8.3c1.5,8.4,12.4,7.7,16.4,2.1c3.4-4.6,3.3-11.1,0.1-15.8
				C490.6,141.9,475,150.9,481.5,160.6L481.5,160.6z"/>
		</g>
	</g>
	<g>
		<g>
			<path class="st7" d="M742.9,205.4c-7.7,4.3-13.9,10.7-20.1,16.8c-7,6.8-14,13.6-21,20.4c-13.4,13-26.4,26.8-40.8,38.8
				c-6.7,5.5-14.2,9.5-21.2,14.5c-7.2,5.1-11.9,11.5-16.9,18.7c-4.1,5.9-8.9,8.7-15.1,12.1c-6.8,3.7-11.8,8.2-14.8,15.5
				c-2.3,5.4,3.4,11.6,8.7,11.4c19.4-0.8,38.9,1.7,58.2,2.9c19.8,1.2,39.5,2,59.3,2.4c39.6,0.8,79.2,0.2,118.7-2
				c10.5-0.6,20.8-0.8,31.3,0.4c10.5,1.3,20.8,2.4,31.1-0.8c11.1-3.4,6.3-20.7-4.8-17.4c-8.6,2.6-17.5,1.2-26.3,0.1
				c-8.9-1.1-17.6-1.2-26.5-0.7c-19.4,1-38.7,1.9-58.1,2.2c-39.2,0.8-78.5,0.1-117.7-2c-21.6-1.2-43.5-4.1-65.2-3.2
				c2.9,3.8,5.8,7.6,8.7,11.4c1.6-3.8,9.7-6.3,13-8.2c6.9-4.1,11.5-9.8,16-16.4c4.4-6.4,8.7-10.6,15.3-14.7
				c7.2-4.4,14-9.3,20.5-14.8c13.3-11.3,25.5-24.1,38.1-36.3c6.5-6.3,13-12.7,19.6-19c6.1-5.9,11.9-12.6,19.3-16.7
				C762.1,215.3,753,199.7,742.9,205.4L742.9,205.4z"/>
		</g>
	</g>
	<g>
		<g>
			<path class="st7" d="M789.6,183.8c12.2,4.9,24-8,21.1-19.8c-2.9,3.8-5.8,7.6-8.7,11.4c63.9-0.5,127.8-1.1,191.6-1.6
				c11.6-0.1,11.6-18.1,0-18c-63.9,0.5-127.8,1.1-191.6,1.6c-6,0.1-10,5.7-8.7,11.4c-0.5-2,0.2-0.8,0.8-2.1c0.1-0.3,3.1,0.8,0.3-0.3
				c-4.5-1.8-9.9,2-11.1,6.3C781.9,177.8,785,182,789.6,183.8L789.6,183.8z"/>
		</g>
	</g>
	<g>
		<g>
			<path class="st8" d="M785.8,184.9c7.4,3.4,13.7,8.5,18,15.6c2.2,3.7,3.5,7.9,5.7,11.6c2.6,4.5,6.4,7.6,10.7,10.4
				c3.5,2.3,6.2,4.4,8.8,7.6c2.9,3.6,5.6,7.1,9.4,9.9c7.3,5.5,16.7,7.5,24.4,12.5c14.1,9.1,24.8,22.8,35.7,35.3
				c12.8,14.7,26.8,28,41.6,40.7c8.3,7.1,16.9,16.1,27.1,20.2c10.5,4.2,23.3,3.4,34.5,4c11.6,0.7,11.5-17.3,0-18
				c-4.9-0.3-9.7-0.6-14.6-0.9c-4.6-0.3-9.7-0.1-14-2.1c-7.8-3.6-14.5-11.1-21-16.6c-14.6-12.5-28.4-25.6-40.9-40.1
				c-11.2-12.9-22.2-26-36.2-36c-7.4-5.3-15.4-7.9-23.4-11.9c-7.3-3.7-11-12.3-17.7-17.1c-3.7-2.7-7.6-4.3-9.8-8.5
				c-2.2-4.3-3.8-8.7-6.6-12.7c-5.8-8.4-13.5-15.2-22.8-19.5c-4.4-2-9.7-1.2-12.3,3.2C780.3,176.5,781.4,182.8,785.8,184.9
				L785.8,184.9z"/>
		</g>
	</g>
	<g>
		<g>
			<path class="st9" d="M1071,130.5c3.2,0.3,6.3-0.1,9.5-0.8c5.4-1.2,7.4-8.9,3.3-12.5c-2.6-2.3-4.1-5.1-3.4-8.6
				c-4.6,0.6-9.1,1.2-13.7,1.8c1,2,1.9,4.1,2.9,6.1c2.6,5.5,12.8,4.5,13.7-1.8c1.2-8.2,1.6-16.1,0.5-24.3
				c-0.8-5.9-7.9-10.6-12.8-5.3c-7.8,8.4-10.6,19.1-8.5,30.3c1.7,8.7,14.3,6.1,14.7-2c0.8-14.9,1.5-29.7,2.3-44.6
				c-4.7,1.3-9.3,2.5-14,3.8c2.8,3.6,4.7,7.5,5.1,12c4.9-0.7,9.8-1.3,14.7-2c-1.7-10.2-2.1-20.6-1.5-31c-5,0-10,0-15,0
				c-0.1,3.6-0.2,7.1-0.3,10.7c-0.3,9.7,14.6,9.6,15,0c0.9-19.3,1.7-38.6,2.6-58c0.4-9.7-14.6-9.6-15,0c-0.9,19.3-1.7,38.6-2.6,58
				c5,0,10,0,15,0c0.1-3.6,0.2-7.1,0.3-10.7c0.3-9.7-14.4-9.6-15,0c-0.7,11.7,0.1,23.3,2,34.9c1.4,8.3,15.4,6.4,14.7-2
				c-0.6-7.2-2.7-13.9-7.1-19.6c-4.4-5.7-13.6-4.2-14,3.8c-0.8,14.9-1.5,29.7-2.3,44.6c4.9-0.7,9.8-1.3,14.7-2
				c-1.1-5.7,0.7-11.5,4.6-15.7c-4.3-1.8-8.5-3.5-12.8-5.3c0.9,6.8,1.1,13.6,0.1,20.4c4.6-0.6,9.1-1.2,13.7-1.8
				c-1-2-1.9-4.1-2.9-6.1c-2.7-5.7-12.4-4.3-13.7,1.8c-1.8,8.6,0.5,17.3,7.2,23.2c1.1-4.2,2.2-8.4,3.3-12.5
				c-1.9,0.4-3.5,0.4-5.5,0.2C1061.4,114.7,1061.4,129.7,1071,130.5L1071,130.5z"/>
		</g>
	</g>
	<g>
		<g>
			<path class="st9" d="M1069.4,181.2c3.1,1,5.4,5.1,3.9,8.2c3.9-0.5,7.9-1,11.8-1.5c-3.3-3.9-5.8-8.4-7.3-13.3
				c-3-9.2-16.4-5.5-14.5,4c3.2,15.9,4.3,32,3.4,48.3c4.9-0.7,9.8-1.3,14.7-2c-1.9-6.5-3.3-13.2-3.7-20c-0.2-2.8-0.5-5.9-0.1-8.7
				c0.1-1,0.6-2,0.7-2.9c0.1-0.8-0.2,0.1,0.1,0c-2.8-1.1-5.6-2.3-8.5-3.4c4.7,10.7,1.9,24,0.9,35.2c-1.3,13.7-2.6,27.4-3.9,41.1
				c5,0,10,0,15,0c-0.6-12.3-1.1-24.5-1.7-36.8c-5,0-10,0-15,0c3.8,39.2,7.5,78.7,4.7,118.1c-0.6,8.5,12.7,10.1,14.7,2
				c1.8-7.1,2.4-14.4,1.6-21.7c-0.8-7.2-9.8-10.5-14-3.8c-1.6,2.5-3.2,5.1-4.8,7.6c4.7,1.3,9.3,2.5,14,3.8
				c1.2-31.4,2.5-62.9,3.7-94.3c0.3-8.3-13.5-10.5-14.7-2c-2.2,15.5-4,31.1-5.2,46.7c-1,13.4-1.9,27.3,1.5,40.5
				c1.6,6.2,4.3,12.3,8.1,17.5c4.4,5.9,9.8,8.4,17.2,8.8c15.8,0.9,31.8,0.5,47.7,0.7c64,1,127.9,1.9,191.9,2.9
				c36,0.5,72,1.1,107.9,1.6c0-5,0-10,0-15c-3.7,0-7.4,0-11.1,0c-9.6,0-9.7,15,0,15c3.7,0,7.4,0,11.1,0c9.7,0,9.7-14.9,0-15
				c-60.6-0.9-121.3-1.8-181.9-2.7c-30-0.4-60-0.9-90-1.3c-14.7-0.2-29.3-0.4-44-0.7c-7.3-0.1-14.7-0.2-22-0.3
				c-3.4-0.1-8.1,0.7-11.3-0.3c-2.6-0.8-3.8-2.9-5.1-5.1c-6.8-11.6-6.3-26-5.5-39c1-16.8,2.8-33.6,5.1-50.2c-4.9-0.7-9.8-1.3-14.7-2
				c-1.2,31.4-2.5,62.9-3.7,94.3c-0.3,7.7,10.2,9.8,14,3.8c1.6-2.5,3.2-5.1,4.8-7.6c-4.7-1.3-9.3-2.5-14-3.8
				c0.7,6,0.4,11.8-1.1,17.7c4.9,0.7,9.8,1.3,14.7,2c2.8-39.4-0.9-78.9-4.7-118.1c-0.9-9.4-15.4-9.8-15,0
				c0.6,12.3,1.1,24.5,1.7,36.8c0.4,9.8,14.1,9.5,15,0c1.4-15,2.9-30,4.3-45.1c1.3-13.4,2.3-26.3-3.3-38.9c-1.4-3.1-5.5-4.1-8.5-3.4
				c-8.6,2-11.6,10.7-11.9,18.6c-0.4,10.5,1.5,21.4,4.4,31.4c2.4,8.3,14.3,6.4,14.7-2c1-17.5-0.4-35-3.9-52.2
				c-4.8,1.3-9.6,2.7-14.5,4c2.4,7.5,6.1,14,11.2,19.9c3,3.5,9.8,2.6,11.8-1.5c5.8-11.9,0-26.3-12.8-30.3
				C1064.2,163.9,1060.2,178.4,1069.4,181.2L1069.4,181.2z"/>
		</g>
	</g>
	<g>
		<g>
			<path class="st9" d="M1066.4,167.8c23.8,7.4,49,5.9,73.6,5.5c26.2-0.4,52.3-0.8,78.5-1.2c52.1-0.6,104.2-0.7,156.3,1.5
				c12.7,0.5,27.4,3.3,39.6-1.2c1.6-0.6,3.2-1.4,4.8-2.2c0.4-0.2,0.8-0.5,1.2-0.7c1.5-0.8,1.6-0.9,0.4-0.4c2.4,0.8,4.2,3,6.7,3.8
				c5.5,1.7,12.6,0.4,15.1-5.4c1.9-4.5,0.6-9.4-4.5-11c-8.5-2.7-15.6,3.3-23.9,4c-8.5,0.6-17-1.3-25.4-2.2
				c-18.5-2.1-37.1-1.2-55.5,0c-18.6,1.2-37.1,2.5-55.8,1.6c-18.9-0.9-37.7-3.5-56.5-6.1c-0.7,4.9-1.3,9.8-2,14.7
				c40.3,0.9,80.6,1.7,120.8,2.6c20,0.4,39.9,0.9,59.9,1.3c16.9,0.4,36.1,2.6,50.9-7.4c8-5.4,0.5-18.4-7.6-13
				c-6.7,4.5-14.3,5.5-22.2,5.7c-8.7,0.2-17.4-0.2-26.1-0.4c-19.6-0.4-39.3-0.8-58.9-1.3c-38.9-0.8-77.9-1.7-116.8-2.5
				c-8.2-0.2-10.5,13.5-2,14.7c18.8,2.6,37.6,5.3,56.6,6.4c18.6,1.1,37.2,0,55.8-1.2c18.5-1.2,37.1-2.4,55.6-0.7
				c8.6,0.8,17.1,2.6,25.7,2.7c4.2,0,8.5-0.4,12.6-1.4c3.1-0.8,7.8-4.2,10.9-3.2c-1.5-3.7-3-7.3-4.5-11c1.7-4,3.2,0.1,2-1.7
				c-0.5-0.8-2.5-1.7-3.2-2.1c-2-1.1-4.2-2-6.5-2.1c-5.6-0.4-9.3,3.6-14.5,4.9c-4.8,1.2-9.9,0.7-14.7,0.5
				c-6.6-0.3-13.2-0.6-19.8-0.9c-25-1-50.1-1.5-75.1-1.7c-49.3-0.3-98.7,0.6-148,1.3c-26.2,0.4-53.9,3.1-79.3-4.8
				C1061.2,150.5,1057.2,164.9,1066.4,167.8L1066.4,167.8z"/>
		</g>
	</g>
	<g>
		<g>
			<path d="M1084.9,340.3c22.9-0.6,45.8-0.1,68.7,0.1c22.8,0.2,45.5-0.9,68.3-1c46.2-0.2,92.2,1.4,138.3,3.9
				c26.2,1.4,52.4,2.7,78.6,3.4c1.9,0.1,1.9-2.9,0-3c-46.2-1.2-92.4-5.3-138.6-6.3c-23.2-0.5-46.3-1-69.5-1
				c-22.8,0-45.6,1.3-68.4,1.1c-25.8-0.2-51.6-0.8-77.4-0.2C1083,337.3,1083,340.3,1084.9,340.3L1084.9,340.3z"/>
		</g>
	</g>
	<g>
		<g>
			<path d="M617.7,342.6c18.7,0.9,37.4,0.9,56.1,0.9c18.7,0,37.3,0.7,56,1.2c37.7,1,75.4,0.2,113.1-0.6c21.4-0.4,42.8-0.8,64.2-0.9
				c1.9,0,1.9-3,0-3c-37.4,0.2-74.9,1.3-112.3,1.8c-37.8,0.5-75.4-1.4-113.2-1.5c-21.3-0.1-42.7,0.2-64-0.9
				C615.8,339.5,615.8,342.5,617.7,342.6L617.7,342.6z"/>
		</g>
	</g>
	<g>
		<g>
			<path d="M594,341.7c2.8,0.1,5.6,0.3,8.4,0.4c1.9,0.1,1.9-2.9,0-3c-2.8-0.1-5.6-0.3-8.4-0.4C592.1,338.6,592.1,341.6,594,341.7
				L594,341.7z"/>
		</g>
	</g>
	<g>
		<g>
			<path d="M483.1,333.9c11.3,1.6,22.6,2.2,34,3c1.9,0.1,1.9-2.9,0-3c-11.1-0.8-22.2-1.3-33.2-2.9
				C482,330.8,481.2,333.7,483.1,333.9L483.1,333.9z"/>
		</g>
	</g>
	<g>
		<g>
			<path d="M1003.1,1.7c-3.5,88.7-3.8,177.6-0.6,266.3c0.9,25.2,2.1,50.3,3.5,75.5c0.1,1.9,3.1,1.9,3,0c-5-88.7-6.7-177.5-5.1-266.3
				c0.5-25.2,1.2-50.3,2.2-75.5C1006.2-0.3,1003.2-0.3,1003.1,1.7L1003.1,1.7z"/>
		</g>
	</g>
	<g>
		<g>
			<path d="M1069.6,1.8c-6.3,85.9-9,172.1-6.7,258.3c0.6,24.5,1.7,49.1,3.1,73.6c0.1,1.9,3.1,1.9,3,0c-5.1-86.1-5-172.4-0.9-258.5
				c1.2-24.5,2.7-48.9,4.5-73.3C1072.8-0.1,1069.8-0.1,1069.6,1.8L1069.6,1.8z"/>
		</g>
	</g>
	<g>
		<g>
			<path d="M1007.4,338.3c-1.4,47.3-1.4,94.5-0.1,141.8c0.1,1.9,3.1,1.9,3,0c-1.3-47.3-1.3-94.5,0.1-141.8
				C1010.5,336.4,1007.5,336.4,1007.4,338.3L1007.4,338.3z"/>
		</g>
	</g>
	<g>
		<g>
			<path d="M1068.7,337.1c-0.2,45.3-0.2,90.5,0,135.8c0,1.9,3,1.9,3,0c-0.2-45.3-0.2-90.5,0-135.8
				C1071.7,335.2,1068.7,335.2,1068.7,337.1L1068.7,337.1z"/>
		</g>
	</g>
	<g>
		<g>
			<path d="M513.2,334.8c1.9,0,1.9-3,0-3C511.3,331.8,511.3,334.8,513.2,334.8L513.2,334.8z"/>
		</g>
	</g>
	<g>
		<g>
			<path d="M754.5,135.8C814,86.3,873.5,36.7,933-12.8c1.5-1.2-0.6-3.3-2.1-2.1c-59.5,49.5-119,99.1-178.5,148.6
				C750.9,134.9,753,137.1,754.5,135.8L754.5,135.8z"/>
		</g>
	</g>
	<g>
		<g>
			<path d="M523.2,328.4c53.1-44.3,106.3-88.5,159.4-132.8c15-12.5,30-25,45-37.5c1.5-1.2-0.6-3.3-2.1-2.1
				c-53,44.2-106.1,88.3-159.1,132.5c-15.1,12.6-30.2,25.2-45.4,37.8C519.6,327.5,521.8,329.6,523.2,328.4L523.2,328.4z"/>
		</g>
	</g>
	<g>
		<g>
			<path d="M513,336.9c1.8-1.5,3.6-3,5.4-4.5c1.5-1.2-0.6-3.3-2.1-2.1c-1.8,1.5-3.6,3-5.4,4.5C509.4,336,511.5,338.1,513,336.9
				L513,336.9z"/>
		</g>
	</g>
	<g>
		<g>
			<path d="M806.7,159.4c31.5-0.7,63.1,0.8,94.6-0.4c31.6-1.3,63.3-0.4,94.9-2c1.9-0.1,1.9-3.1,0-3c-31.6,1.6-63.3,0.7-94.9,2
				c-31.5,1.3-63.1-0.3-94.6,0.4C804.7,156.4,804.7,159.4,806.7,159.4L806.7,159.4z"/>
		</g>
	</g>
	<g>
		<g>
			<path d="M480.7,148.2c82.3,4.9,164.6,8.4,247,10.1c23.5,0.5,47.1,0.8,70.6,1c1.9,0,1.9-3,0-3c-82.4-0.6-164.7-3.2-247-7.3
				c-23.5-1.2-47.1-2.5-70.6-3.9C478.8,145,478.8,148,480.7,148.2L480.7,148.2z"/>
		</g>
	</g>
	<g>
		<g>
			<path d="M802.9,175.1c16.5-0.8,33-0.7,49.5-0.7c16.5,0,32.8-0.8,49.3-1.2c32.9-0.7,65.9,0.1,98.8-0.2c1.9,0,1.9-3,0-3
				c-32.9,0.3-65.9-0.5-98.8,0.2c-16.1,0.3-32.2,1.2-48.3,1.2c-16.8,0-33.7-0.2-50.5,0.7C801,172.2,800.9,175.2,802.9,175.1
				L802.9,175.1z"/>
		</g>
	</g>
	<g>
		<g>
			<path d="M479.8,171.6c38.9-0.1,77.9,0.5,116.7,2.2c19.2,0.8,38.4,2.4,57.6,2.8c19.4,0.4,38.7-0.2,58.1-0.4c1.9,0,1.9-3,0-3
				c-19.4,0.2-38.7,0.8-58.1,0.4c-19.2-0.4-38.4-1.9-57.6-2.8c-38.9-1.7-77.8-2.3-116.7-2.2C477.9,168.6,477.9,171.6,479.8,171.6
				L479.8,171.6z"/>
		</g>
	</g>
	<g>
		<g>
			<path d="M746.3,0.2c-0.9,10.4,0.2,20.7,1.6,31c1.4,10.7,2.5,21.4,3,32.1c1,21.2,0.3,42.5-0.3,63.7c-0.1,1.9,2.9,1.9,3,0
				c0.7-21.2,1.3-42.5,0.3-63.7c-0.5-10.4-1.5-20.8-2.8-31.1c-1.4-10.6-2.7-21.2-1.7-32C749.5-1.8,746.4-1.7,746.3,0.2L746.3,0.2z"
				/>
		</g>
	</g>
	<g>
		<g>
			<path d="M750.9,219c2.3,42.4,1,84.8-3.9,126.9c-0.2,1.9,2.8,1.9,3,0c4.9-42.1,6.2-84.6,3.9-126.9
				C753.7,217.1,750.7,217.1,750.9,219L750.9,219z"/>
		</g>
	</g>
	<g>
		<g>
			<path d="M758.7-0.9c-0.6,42.2-0.4,84.4,0.5,126.6c0,1.9,3,1.9,3,0c-0.9-42.2-1-84.4-0.5-126.6C761.7-2.8,758.7-2.8,758.7-0.9
				L758.7-0.9z"/>
		</g>
	</g>
	<g>
		<g>
			<path d="M757.5,211.2c-1.9,44.5-0.9,89.1,1.9,133.6c0.1,1.9,3.1,1.9,3,0c-2.9-44.5-3.8-89-1.9-133.6
				C760.6,209.2,757.6,209.2,757.5,211.2L757.5,211.2z"/>
		</g>
	</g>
	<g>
		<g>
			<path d="M560.4,123.7c-3-1.1-2-6.8-1.9-9.2c0.1-3.6,0.2-7.2,0.4-10.8c0.2-6.8,0.5-13.7,0.7-20.5c0.5-13.7,0.9-27.4,1.4-41.1
				c0.1-1.9-2.9-1.9-3,0c-0.6,16.6-1.1,33.2-1.7,49.9c-0.3,8.1-0.6,16.3-0.8,24.4c-0.1,4-0.2,8.5,4.2,10.1
				C561.4,127.3,562.2,124.4,560.4,123.7L560.4,123.7z"/>
		</g>
	</g>
	<g>
		<g>
			<path d="M574,128.2c-1.8-23.6-1.5-47.3,0.6-70.9c0.2-1.9-2.8-1.9-3,0c-2.2,23.6-2.4,47.2-0.6,70.9
				C571.2,130.2,574.2,130.2,574,128.2L574,128.2z"/>
		</g>
	</g>
	<g>
		<g>
			<path d="M555.6,171.3c0.3,42.6,0.6,85.2,1,127.9c0,1.9,3,1.9,3,0c-0.3-42.6-0.6-85.2-1-127.9
				C558.6,169.3,555.6,169.3,555.6,171.3L555.6,171.3z"/>
		</g>
	</g>
	<g>
		<g>
			<path d="M571.2,171.3c0,38,0,75.9,0,113.9c0,1.9,3,1.9,3,0c0-38,0-75.9,0-113.9C574.2,169.3,571.2,169.3,571.2,171.3L571.2,171.3
				z"/>
		</g>
	</g>
	<g>
		<g>
			<path d="M901.6,98.7c0,11.1,0,22.2,0,33.3c0,1.9,3,1.9,3,0c0-11.1,0-22.2,0-33.3C904.6,96.8,901.6,96.8,901.6,98.7L901.6,98.7z"
				/>
		</g>
	</g>
	<g>
		<g>
			<path d="M905,172.5c2.1,29.9,2.6,59.9,1.7,89.9c-0.1,1.9,2.9,1.9,3,0c0.9-30,0.3-60-1.7-89.9C907.8,170.6,904.8,170.5,905,172.5
				L905,172.5z"/>
		</g>
	</g>
	<g>
		<g>
			<path d="M912.7,90c-0.4,15.3-0.7,30.6-1.1,45.8c0,1.9,3,1.9,3,0c0.4-15.3,0.7-30.6,1.1-45.8C915.7,88,912.7,88,912.7,90L912.7,90
				z"/>
		</g>
	</g>
	<g>
		<g>
			<path d="M915.3,173.8c0.2,32.5,0.3,65,0.5,97.5c0,1.9,3,1.9,3,0c-0.2-32.5-0.3-65-0.5-97.5C918.3,171.9,915.3,171.9,915.3,173.8
				L915.3,173.8z"/>
		</g>
	</g>
	<g>
		<g>
			<path d="M1090.3,133.5c97.3,0,194.7,0,292,0c27.6,0,55.2,0,82.8,0c1.9,0,1.9-3,0-3c-97.4,0-194.8,0-292.2,0
				c-27.5,0-55.1,0-82.6,0C1088.3,130.5,1088.3,133.5,1090.3,133.5L1090.3,133.5z"/>
		</g>
	</g>
	<g>
		<g>
			<path d="M1090,174.5c94.8,0,189.7,1.2,284.5,1.3c26.8,0,53.6,0,80.4-0.2c1.9,0,1.9-3,0-3c-94.8,0.7-189.7-0.3-284.5-0.8
				c-26.8-0.1-53.6-0.2-80.4-0.2C1088.1,171.5,1088.1,174.5,1090,174.5L1090,174.5z"/>
		</g>
	</g>
	<g>
		<g>
			<path d="M1179.1,337c0.4-38.8,0.4-77.6,0.3-116.4c0-1.9-3-1.9-3,0c0.1,38.8,0.1,77.6-0.3,116.4
				C1176.1,338.9,1179.1,338.9,1179.1,337L1179.1,337z"/>
		</g>
	</g>
	<g>
		<g>
			<path d="M1179.3,218.1c0-13.9,0-27.8,0-41.8c0-1.9-3-1.9-3,0c0,13.9,0,27.8,0,41.8C1176.3,220,1179.3,220,1179.3,218.1
				L1179.3,218.1z"/>
		</g>
	</g>
	<g>
		<g>
			<path d="M1178.1,129.5c-0.8-31.3-1.9-62.5-3-93.7c-0.1-1.9-3.1-1.9-3,0c1.2,31.2,2.2,62.5,3,93.7
				C1175.1,131.5,1178.1,131.5,1178.1,129.5L1178.1,129.5z"/>
		</g>
	</g>
	<g>
		<g>
			<path d="M1175.5,35.8c0-12.7,0-25.3,0-38c0-1.9-3-1.9-3,0c0,12.7,0,25.3,0,38C1172.5,37.8,1175.5,37.8,1175.5,35.8L1175.5,35.8z"
				/>
		</g>
	</g>
	<g>
		<g>
			<path d="M1188.1,128.2c-3.9-41.7-5.1-83.5-3.5-125.3c0.1-1.9-2.9-1.9-3,0c-1.6,41.8-0.4,83.7,3.5,125.3
				C1185.3,130.1,1188.3,130.2,1188.1,128.2L1188.1,128.2z"/>
		</g>
	</g>
	<g>
		<g>
			<path d="M1185.9,173.8c-0.8,54.8-1.6,109.7-2.5,164.5c0,1.9,3,1.9,3,0c0.8-54.8,1.6-109.7,2.5-164.5
				C1188.9,171.9,1185.9,171.9,1185.9,173.8L1185.9,173.8z"/>
		</g>
	</g>
	<g>
		<g>
			<path d="M1306.4,0.3c1.6,44.3,2.4,88.6,2.4,132.9c0,1.9,3,1.9,3,0c0-44.3-0.7-88.7-2.4-132.9C1309.3-1.6,1306.3-1.6,1306.4,0.3
				L1306.4,0.3z"/>
		</g>
	</g>
	<g>
		<g>
			<path d="M1309.3,173.8c1.6,55.7,3.2,111.4,4.8,167.1c0.1,1.9,3.1,1.9,3,0c-1.6-55.7-3.2-111.4-4.8-167.1
				C1312.2,171.9,1309.2,171.9,1309.3,173.8L1309.3,173.8z"/>
		</g>
	</g>
	<g>
		<g>
			<path d="M1316.8-0.9c1,43.9,1.9,87.8,2.9,131.6c0,1.9,3,1.9,3,0c-1-43.9-1.9-87.8-2.9-131.6C1319.7-2.8,1316.7-2.8,1316.8-0.9
				L1316.8-0.9z"/>
		</g>
	</g>
	<g>
		<g>
			<path d="M1320.2,175.1c-4.5,55.2-4.1,110.7,1.1,165.8c0.2,1.9,3.2,1.9,3,0c-5.3-55.1-5.7-110.6-1.1-165.8
				C1323.4,173.2,1320.4,173.2,1320.2,175.1L1320.2,175.1z"/>
		</g>
	</g>
	<g>
		<g>
			<path d="M951.2,353.9c6-0.3,12-0.5,18-0.9c1.9-0.1,1.9-3.1,0-3c-6,0.3-12,0.6-18,0.9C949.2,351,949.2,354,951.2,353.9
				L951.2,353.9z"/>
		</g>
	</g>
	<g>
		<g>
			<path d="M571.3,351.9c23.6,1.1,47.3,1.5,71,2.3c23.7,0.8,47.4,2.6,71.1,3.1c47.7,1.1,95.5,0.3,143.2-1.2
				c26.9-0.8,53.8-1.6,80.8-1.7c1.9,0,1.9-3,0-3c-47.7,0.1-95.4,3-143.2,3.1c-24,0.1-48,0.3-72-0.1c-23.8-0.4-47.6-2-71.4-2.9
				c-26.5-1.1-53.1-1.3-79.6-2.6C569.3,348.8,569.3,351.8,571.3,351.9L571.3,351.9z"/>
		</g>
	</g>
	<g>
		<g>
			<path d="M483.6,347.8c27.6,1.5,55.2,2.7,82.8,3.8c1.9,0.1,1.9-2.9,0-3c-27.6-1.1-55.2-2.4-82.8-3.8
				C481.7,344.7,481.7,347.7,483.6,347.8L483.6,347.8z"/>
		</g>
	</g>
	<g>
		<g>
			<path d="M1070.9,353.7c96.6,2.2,193.2,2.7,289.8,4.1c27.2,0.4,54.4,0.9,81.6,1.5c1.9,0,1.9-3,0-3c-96.6-2.1-193.3-2.6-289.9-4.1
				c-27.2-0.4-54.3-0.9-81.5-1.5C1069,350.6,1069,353.6,1070.9,353.7L1070.9,353.7z"/>
		</g>
	</g>
	<g>
		<g>
			<path d="M478.8,502.3c70.1,3.4,140.2,6.7,210.5,4.2c70.2-2.5,140.4-5.5,210.7-7.1c39-0.8,78,0,117,2c1.9,0.1,1.9-2.9,0-3
				c-69.5-3.5-138.9-2-208.4,0.7c-69.7,2.6-139.6,6.8-209.4,5c-40.1-1.1-80.2-2.9-120.3-4.8C476.9,499.2,476.9,502.2,478.8,502.3
				L478.8,502.3z"/>
		</g>
	</g>
	<g>
		<g>
			<path d="M1006.4,478.9c0.5,7.6,1.1,15.2,1.6,22.8c0.1,1.9,3.1,1.9,3,0c-0.5-7.6-1.1-15.2-1.6-22.8
				C1009.3,477,1006.3,476.9,1006.4,478.9L1006.4,478.9z"/>
		</g>
	</g>
	<g>
		<g>
			<path d="M1009.4,501.9c112.3-2.9,224.6-1.8,336.8,3.3c30.1,1.4,60.4,3.4,90.2-2.3c1.9-0.4,1.1-3.3-0.8-2.9
				c-26.9,5.1-54.3,3.8-81.5,2.6c-27.8-1.3-55.7-2.4-83.6-3.2c-55.8-1.7-111.6-2.3-167.4-2c-31.2,0.2-62.5,0.7-93.7,1.5
				C1007.5,498.9,1007.5,501.9,1009.4,501.9L1009.4,501.9z"/>
		</g>
	</g>
	<g>
		<g>
			<path d="M249.9,506.9c1.9,0,1.9-3,0-3C248,503.9,248,506.9,249.9,506.9L249.9,506.9z"/>
		</g>
	</g>
	<g>
		<g>
			<path d="M248.6,504.9c-71.9,13.3-143.8,26.7-215.7,40c-20.3,3.8-40.5,7.5-60.8,11.3c-1.9,0.4-1.1,3.2,0.8,2.9
				c71.9-13.3,143.8-26.7,215.7-40c20.3-3.8,40.5-7.5,60.8-11.3C251.3,507.4,250.5,504.5,248.6,504.9L248.6,504.9z"/>
		</g>
	</g>
	<g>
		<g>
			<path d="M250.9,1.6c-2.2,69-3.8,138-4.7,207c-0.9,69-1.2,138.1-0.8,207.1c0.2,39.2,0.6,78.3,1.3,117.5c0,1.9,3,1.9,3,0
				c-1.1-69-1.6-138.1-1.4-207.1c0.2-69,1-138.1,2.5-207.1c0.8-39.2,1.9-78.3,3.2-117.4C254-0.3,251-0.3,250.9,1.6L250.9,1.6z"/>
		</g>
	</g>
	<g>
		<g>
			<path d="M478,509.3c-0.3,15.2-0.6,30.3-0.9,45.5c0,1.9,3,1.9,3,0c0.3-15.2,0.6-30.3,0.9-45.5C481,507.3,478,507.3,478,509.3
				L478,509.3z"/>
		</g>
	</g>
	<g>
		<g>
			<path d="M481.2,351.8c-1.7,50.1-2.7,100.3-3.1,150.5c0,1.9,3,1.9,3,0c0.4-50.2,1.4-100.3,3.1-150.5
				C484.3,349.9,481.3,349.9,481.2,351.8L481.2,351.8z"/>
		</g>
	</g>
	<g>
		<g>
			<path d="M482.5,289.7c-0.2,8.3-0.4,16.7-0.5,25c0,1.9,3,1.9,3,0c0.2-8.3,0.4-16.7,0.5-25C485.5,287.8,482.5,287.8,482.5,289.7
				L482.5,289.7z"/>
		</g>
	</g>
	<g>
		<g>
			<path d="M482,209.8c0.2,5.3,0.4,10.6,0.6,15.9c0.1,1.9,3.1,1.9,3,0c-0.2-5.3-0.4-10.6-0.6-15.9
				C484.9,207.9,481.9,207.9,482,209.8L482,209.8z"/>
		</g>
	</g>
	<g>
		<g>
			<path d="M480.7,186.3c0.3,4.8,0.6,9.7,0.8,14.5c0.1,1.9,3.1,1.9,3,0c-0.3-4.8-0.5-9.7-0.8-14.5
				C483.6,184.4,480.6,184.4,480.7,186.3L480.7,186.3z"/>
		</g>
	</g>
	<g>
		<g>
			<path d="M483,0c-12.5,60.3-6.3,122-2.5,182.9c0.1,1.9,3.1,1.9,3,0c-3.8-60.6-10-122.1,2.4-182.1C486.3-1.1,483.4-1.9,483,0L483,0
				z"/>
		</g>
	</g>
	<g>
		<g>
			<path d="M245.7,537.9c3.4,12.5,18,16.3,29.5,14.9c9.9-1.1,19.3-5.2,29.3-5.5c9.9-0.3,17.9,4.7,26.5,8.9
				c7.3,3.5,14.6,5.5,22.7,4.1c9.2-1.6,17.4-6.4,26.4-8.8c17.2-4.8,35,0.1,51.7,4.3c17.5,4.4,35.7,8.8,53.4,3.1
				c1.8-0.6,1-3.5-0.8-2.9c-31.1,10.1-61.5-11.1-92.8-9.3c-8,0.4-15.3,2.8-22.7,5.7c-8.7,3.4-17.7,7.1-27.2,4.8
				c-8-1.9-14.8-6.8-22.3-9.9c-7.3-3-14.6-3.3-22.3-2c-9.4,1.6-18.6,5.5-28.2,4.9c-8.5-0.5-17.9-4-20.3-13
				C248.1,535.3,245.2,536.1,245.7,537.9L245.7,537.9z"/>
		</g>
	</g>
	<g>
		<g>
			<path d="M306.7,203c-4,44-17.7,86.9-17.1,131.3c0.3,22.7,6,44.6,8.8,67.1c2.8,22.5,3.8,45.2,3.8,67.8c0.1,26-1.1,51.9-2.2,77.9
				c-0.1,1.9,2.9,1.9,3,0c2-45.3,4.1-90.8-0.5-136c-2.3-22.5-8-44.7-9.5-67.3c-1.4-22.5,1.4-45,5.2-67.1
				c4.1-24.5,9.3-48.8,11.6-73.6C309.9,201.1,306.9,201.1,306.7,203L306.7,203z"/>
		</g>
	</g>
	<g>
		<g>
			<path d="M388.4,52.1c-15.8,62.4-13.6,127.5-13.6,191.3c0,66.7-0.4,133.5,0.1,200.2c0.1,17.4,1.1,34.8,5.7,51.6
				c4.8,17.2,11.9,34,10.8,52.1c-0.1,1.9,2.9,1.9,3,0c0.9-14.7-3.5-28.6-7.8-42.5c-4.9-15.8-7.9-31.4-8.5-48
				c-1.2-32.7-0.3-65.6-0.3-98.3c0-65.7-1.3-131.6,0.5-197.3c1-36.5,4-73,13-108.5C391.7,51,388.8,50.2,388.4,52.1L388.4,52.1z"/>
		</g>
	</g>
	<g>
		<g>
			<path d="M486.7,289.9c-8.8-21.3,2.8-44.4-1.6-66.4c-0.4-1.9-3.3-1.1-2.9,0.8c4.4,22-7.2,44.9,1.6,66.4
				C484.6,292.4,487.5,291.7,486.7,289.9L486.7,289.9z"/>
		</g>
	</g>
	<g>
		<g>
			<path d="M485.6,209.2c0-4.6,0-9.3,0-13.9c0-1.9-3-1.9-3,0c0,4.6,0,9.3,0,13.9C482.6,211.2,485.6,211.2,485.6,209.2L485.6,209.2z"
				/>
		</g>
	</g>
	<g>
		<g>
			<path d="M484.3,349.7c0-13.5,0-27,0-40.5c0-1.9-3-1.9-3,0c0,13.5,0,27,0,40.5C481.3,351.7,484.3,351.7,484.3,349.7L484.3,349.7z"
				/>
		</g>
	</g>
	<g>
		<g>
			<path d="M853.1,136c48.4-1.5,96.8-0.6,145.2-1.8c1.9-0.1,1.9-3.1,0-3c-48.4,1.3-96.8,0.3-145.2,1.8
				C851.2,133.1,851.1,136.1,853.1,136L853.1,136z"/>
		</g>
	</g>
	<g>
		<g>
			<path d="M681.5,134.3c53.2,1.2,106.5,2.2,159.7,1.8c1.9,0,1.9-3,0-3c-53.2,0.4-106.5-0.6-159.7-1.8
				C679.6,131.3,679.6,134.3,681.5,134.3L681.5,134.3z"/>
		</g>
	</g>
	<g>
		<g>
			<path d="M478.1,126.9c61.5,2.6,123,5.6,184.6,6.9c1.9,0,1.9-3,0-3c-61.6-1.4-123.1-4.3-184.6-6.9
				C476.1,123.8,476.2,126.8,478.1,126.9L478.1,126.9z"/>
		</g>
	</g>
	<g>
		<g>
			<path d="M1089,158.5c92.4-1.5,184.8-0.7,277.3-1c26.2-0.1,52.4-0.3,78.6-0.6c1.9,0,1.9-3,0-3c-92.4,1.2-184.8,0.3-277.2,0.8
				c-26.2,0.1-52.4,0.4-78.7,0.8C1087.1,155.5,1087.1,158.5,1089,158.5L1089,158.5z"/>
		</g>
	</g>
	<g>
		<g>
			<path d="M502.4,347c5.1-3,9.8-6.4,14.3-10.2c1.5-1.2-0.7-3.4-2.1-2.1c-4.3,3.6-8.9,6.9-13.7,9.7C499.3,345.4,500.8,348,502.4,347
				L502.4,347z"/>
		</g>
	</g>
	<g>
		<g>
			<path d="M969.1,7.5c1.7-4,4.4-7.4,8-9.8c1.6-1.1,0.1-3.7-1.5-2.6c-4,2.8-7.2,6.4-9.1,10.9C965.7,7.8,968.3,9.3,969.1,7.5
				L969.1,7.5z"/>
		</g>
	</g>
	<g>
		<g>
			<path d="M585.8,8.6c47.9,42.1,95.7,84.3,143.6,126.4c1.4,1.3,3.6-0.8,2.1-2.1C683.7,90.7,635.8,48.6,587.9,6.4
				C586.5,5.2,584.4,7.3,585.8,8.6L585.8,8.6z"/>
		</g>
	</g>
	<g>
		<g>
			<path d="M571.6-22.4c59.7,49,117.8,99.9,174.4,152.4c1.4,1.3,3.5-0.8,2.1-2.1C691.6,75.3,633.4,24.5,573.8-24.5
				C572.3-25.7,570.1-23.6,571.6-22.4L571.6-22.4z"/>
		</g>
	</g>
	<g>
		<g>
			<path d="M961.5,350.3c0.9,1,1.8,1.9,2.7,2.9c1.3,1.4,3.5-0.7,2.1-2.1c-0.9-1-1.8-1.9-2.7-2.9
				C962.3,346.8,960.2,348.9,961.5,350.3L961.5,350.3z"/>
		</g>
	</g>
	<g>
		<g>
			<path d="M776.5,179c56.8,52.6,116.5,102.1,171.2,157.1c1.4,1.4,3.5-0.8,2.1-2.1c-54.6-54.9-114.3-104.5-171.2-157.1
				C777.2,175.6,775.1,177.7,776.5,179L776.5,179z"/>
		</g>
	</g>
	<g>
		<g>
			<path d="M953.7,341.7c0.9,1.2,1.7,2.5,2.3,3.8c0.9,1.7,3.5,0.2,2.6-1.5c-0.8-1.6-1.7-3-2.8-4.4c-0.5-0.6-1.6-0.5-2.1,0
				C953.1,340.2,953.2,341.1,953.7,341.7L953.7,341.7z"/>
		</g>
	</g>
	<g>
		<g>
			<path d="M946.6,335.9c2.5,1.3,4.6,3,6.4,5.1c1.3,1.4,3.4-0.7,2.1-2.1c-2-2.2-4.4-4.1-7-5.5C946.4,332.4,944.9,334.9,946.6,335.9
				L946.6,335.9z"/>
		</g>
	</g>
	<g>
		<g>
			<path d="M936,353.8c4.6,0,9.3,0,13.9,0c1.9,0,1.9-3,0-3c-4.6,0-9.3,0-13.9,0C934.1,350.8,934.1,353.8,936,353.8L936,353.8z"/>
		</g>
	</g>
	<g>
		<g>
			<path d="M795.5,177.7c29.4,24.3,57.3,50.3,84.9,76.6c27.7,26.4,55.5,52.7,82.8,79.4c1.4,1.4,3.5-0.8,2.1-2.1
				c-27.3-26.8-55.1-53.1-82.8-79.4c-27.6-26.3-55.5-52.4-84.9-76.6C796.2,174.4,794,176.5,795.5,177.7L795.5,177.7z"/>
		</g>
	</g>
	<g>
		<g>
			<path d="M960.9,350.1c4.6-2.1,9.2-4.3,13.9-6.4c1.7-0.8,0.2-3.4-1.5-2.6c-4.6,2.1-9.2,4.3-13.9,6.4
				C957.7,348.3,959.2,350.9,960.9,350.1L960.9,350.1z"/>
		</g>
	</g>
	<g>
		<g>
			<path d="M755.3,211.1c43.3,38.3,86.4,76.6,129.4,115.2c1.4,1.3,3.6-0.8,2.1-2.1c-43-38.6-86.1-77-129.4-115.2
				C756,207.7,753.8,209.8,755.3,211.1L755.3,211.1z"/>
		</g>
	</g>
	<g>
		<g>
			<path d="M527.2,11C573,51,618.7,91,664.4,131c1.4,1.3,3.6-0.8,2.1-2.1c-45.7-40.1-91.4-80-137.1-120
				C527.9,7.6,525.8,9.8,527.2,11L527.2,11z"/>
		</g>
	</g>
	<g>
		<g>
			<path d="M881.5,323.9c12.2,8.8,22.8,19.5,31.4,31.8c1.1,1.6,3.7,0.1,2.6-1.5c-8.9-12.8-19.8-23.8-32.5-32.9
				C881.5,320.2,880,322.8,881.5,323.9L881.5,323.9z"/>
		</g>
	</g>
	<g>
		<g>
			<path d="M970.4,353.3c9.9-2.5,19.9-3,30.1-1.8c1.9,0.2,1.9-2.8,0-3c-10.4-1.3-20.7-0.6-30.9,1.9
				C967.8,350.8,968.6,353.7,970.4,353.3L970.4,353.3z"/>
		</g>
	</g>
	<g>
		<g>
			<path d="M977.9,341.4c7.8-2.1,15.5-2.6,23.5-1.3c1.9,0.3,2.7-2.6,0.8-2.9c-8.5-1.4-16.8-1-25.1,1.3
				C975.2,339,976,341.9,977.9,341.4L977.9,341.4z"/>
		</g>
	</g>
	<g>
		<g>
			<path d="M962.6,331.5c2.1,4.6,6.1,8,11,9.4c1.9,0.5,2.7-2.4,0.8-2.9c-4.2-1.2-7.4-4.1-9.2-8C964.4,328.2,961.8,329.7,962.6,331.5
				L962.6,331.5z"/>
		</g>
	</g>
	<g>
		<g>
			<path d="M606.7,334.7c44.9-41.4,91.2-81.3,135.9-122.8c1.4-1.3-0.7-3.4-2.1-2.1c-44.8,41.5-91,81.4-135.9,122.8
				C603.2,333.9,605.3,336,606.7,334.7L606.7,334.7z"/>
		</g>
	</g>
	<g>
		<g>
			<path d="M585.5,354c5.9-5.3,11.8-10.6,17.6-16c1.4-1.3-0.7-3.4-2.1-2.1c-5.9,5.3-11.8,10.6-17.6,16
				C581.9,353.2,584,355.3,585.5,354L585.5,354z"/>
		</g>
	</g>
	<g>
		<g>
			<path d="M827.6,136.2c52.5-45.8,105-91.7,157.5-137.5c14.7-12.9,29.5-25.7,44.2-38.6c1.5-1.3-0.7-3.4-2.1-2.1
				C974.9,3.7,922.5,49.4,870.1,95.1c-14.9,13-29.7,25.9-44.6,38.9C824,135.3,826.2,137.4,827.6,136.2L827.6,136.2z"/>
		</g>
	</g>
	<g>
		<g>
			<path d="M752.8,201.5c17-14.9,34.1-29.7,51.1-44.6c1.5-1.3-0.7-3.4-2.1-2.1c-17,14.9-34.1,29.7-51.1,44.6
				C749.2,200.6,751.4,202.7,752.8,201.5L752.8,201.5z"/>
		</g>
	</g>
	<g>
		<g>
			<path d="M850.3,134.7c64.6-53.6,128.6-108,193.2-161.6c1.5-1.2-0.6-3.3-2.1-2.1C976.7,24.6,912.8,79,848.2,132.6
				C846.7,133.8,848.8,136,850.3,134.7L850.3,134.7z"/>
		</g>
	</g>
	<g>
		<g>
			<path d="M799.1,176.8c7.1-5.8,14.3-11.6,21.4-17.5c1.5-1.2-0.6-3.3-2.1-2.1c-7.1,5.8-14.2,11.7-21.4,17.5
				C795.4,175.9,797.6,178,799.1,176.8L799.1,176.8z"/>
		</g>
	</g>
	<g>
		<g>
			<path d="M618,342.7c44.9-40.7,89.3-82,134.4-122.4c1.4-1.3-0.7-3.4-2.1-2.1c-45.1,40.5-89.6,81.7-134.4,122.4
				C614.4,341.9,616.5,344,618,342.7L618,342.7z"/>
		</g>
	</g>
	<g>
		<g>
			<path d="M589.5,351.9c10.4-1.5,20.4-4.5,30-8.8c1.8-0.8,0.2-3.4-1.5-2.6c-9.3,4.2-19.1,7.1-29.3,8.5
				C586.8,349.3,587.6,352.2,589.5,351.9L589.5,351.9z"/>
		</g>
	</g>
	<g>
		<g>
			<path d="M663.8,133.5c5.1,0,10.1,0,15.2,0c1.9,0,1.9-3,0-3c-5.1,0-10.1,0-15.2,0C661.9,130.5,661.9,133.5,663.8,133.5
				L663.8,133.5z"/>
		</g>
	</g>
	<g>
		<g>
			<path d="M839.8,134.8c3.8,0,7.6,0,11.4,0c1.9,0,1.9-3,0-3c-3.8,0-7.6,0-11.4,0C837.9,131.8,837.9,134.8,839.8,134.8L839.8,134.8z
				"/>
		</g>
	</g>
	<g>
		<g>
			<path d="M739.3,215.1c5.1-5.4,10.3-10.8,15.4-16.2c1.3-1.4-0.8-3.5-2.1-2.1c-5.1,5.4-10.3,10.8-15.4,16.2
				C735.8,214.3,737.9,216.5,739.3,215.1L739.3,215.1z"/>
		</g>
	</g>
	<g>
		<g>
			<path d="M752.5,220.1c1.6-3,4-5.4,7-7.1c1.7-0.9,0.2-3.5-1.5-2.6c-3.4,1.9-6.2,4.7-8.1,8.2C749,220.3,751.6,221.9,752.5,220.1
				L752.5,220.1z"/>
		</g>
	</g>
	<g>
		<g>
			<path d="M781.9,180.1c5.5-1,11.1-2.1,16.6-3.1c1.9-0.4,1.1-3.2-0.8-2.9c-5.5,1-11.1,2.1-16.6,3.1
				C779.2,177.5,780,180.4,781.9,180.1L781.9,180.1z"/>
		</g>
	</g>
	<g>
		<g>
			<path d="M1072,353.2c5.6-2.8,11.1-5.6,16.7-8.5c1.7-0.9,0.2-3.5-1.5-2.6c-5.6,2.8-11.1,5.6-16.7,8.5
				C1068.8,351.5,1070.3,354.1,1072,353.2L1072,353.2z"/>
		</g>
	</g>
	<g>
		<g>
			<path d="M1082.8,188.5c0.7,51.1,0.7,102.1,1.7,153.2c0,1.9,3,1.9,3,0c-1-51-1-102.1-1.7-153.2
				C1085.8,186.5,1082.8,186.5,1082.8,188.5L1082.8,188.5z"/>
		</g>
	</g>
	<g>
		<g>
			<path d="M1082.1-114.9c4.4,18.9,4.2,38.2,3,57.4c-1.2,19.5-2.5,38.9-3,58.5c-1,39.7-0.4,79.3,0,119c0,1.9,3,1.9,3,0
				c-0.5-40.3-1.1-80.6,0-121c0.5-19.5,2-38.9,3.1-58.4c1.1-18.9,1.1-37.8-3.2-56.3C1084.5-117.6,1081.6-116.8,1082.1-114.9
				L1082.1-114.9z"/>
		</g>
	</g>
	<g>
		<g>
			<path d="M1068.9,133.6c8.3,0,16.4-0.9,24.4-2.9c1.9-0.5,1.1-3.4-0.8-2.9c-7.8,1.9-15.6,2.9-23.6,2.8
				C1067,130.6,1067,133.6,1068.9,133.6L1068.9,133.6z"/>
		</g>
	</g>
	<g>
		<g>
			<path d="M1066.7,158.6c6.6-1.2,13.2-1.5,19.9-0.9c1.9,0.2,1.9-2.8,0-3c-7-0.6-13.8-0.3-20.7,1
				C1064,156,1064.8,158.9,1066.7,158.6L1066.7,158.6z"/>
		</g>
	</g>
	<g>
		<g>
			<path d="M1067.9,169.2c5.6,3.3,11.1,6.5,16.7,9.8c1.7,1,3.2-1.6,1.5-2.6c-5.6-3.3-11.1-6.5-16.7-9.8
				C1067.7,165.6,1066.2,168.2,1067.9,169.2L1067.9,169.2z"/>
		</g>
	</g>
	<g>
		<g>
			<path d="M1062.1,159.1c6.9,6.2,14.4,11.4,22.7,15.5c1.7,0.9,3.2-1.7,1.5-2.6c-8.1-4-15.4-9-22.1-15
				C1062.8,155.7,1060.7,157.8,1062.1,159.1L1062.1,159.1z"/>
		</g>
	</g>
	<g>
		<g>
			<path d="M1082.6,116.8c0,4.2,0,8.4,0,12.7c0,1.9,3,1.9,3,0c0-4.2,0-8.4,0-12.7C1085.6,114.9,1082.6,114.9,1082.6,116.8
				L1082.6,116.8z"/>
		</g>
	</g>
	<g>
		<g>
			<path d="M1069.8,471.7c1.4,8.7,1.8,17.4,1.3,26.1c-0.1,1.9,2.9,1.9,3,0c0.5-9.1,0-18-1.5-26.9
				C1072.4,469,1069.5,469.8,1069.8,471.7L1069.8,471.7z"/>
		</g>
	</g>
	<g>
		<g>
			<path d="M784.3,187.2c1.9,0,1.9-3,0-3C782.4,184.2,782.4,187.2,784.3,187.2L784.3,187.2z"/>
		</g>
	</g>
	<g>
		<g>
			<path d="M786.3,186.5c1.9,0,1.9-3,0-3C784.4,183.5,784.4,186.5,786.3,186.5L786.3,186.5z"/>
		</g>
	</g>
	<g>
		<g>
			<path class="st5" d="M841.4,96.7c4.7-3,9.1-6.4,13.3-10.1c2.9-2.6,2.9-8,0-10.6c-3.1-2.9-7.5-2.8-10.6,0c-3.4,3-6.3,5.2-10.3,7.7
				c-3.3,2.1-4.9,6.8-2.7,10.3C833.3,97.3,837.9,99,841.4,96.7L841.4,96.7z"/>
		</g>
	</g>
	<g>
		<g>
			<path class="st5" d="M910.8,50.3c1.5-4,6.8-4.4,10.3-5.3c2.5-0.7,4.6-1.8,6.6-3.5c1-0.9,2.4-3,3.6-3.2c-2.8-3.7-5.6-7.3-8.5-11
				c-4.6,8.1-15,11.3-21,18.4c-6.2,7.3,4.4,18,10.6,10.6c7-8.3,17.8-11.7,23.4-21.5c3.5-6.2-2.3-11.9-8.5-11
				c-3.3,0.5-5.8,2.5-8.1,4.8c-2.3,2.3-4,1.9-7.4,3.1c-7.4,2.5-12.8,7.2-15.5,14.5C893,55.4,907.4,59.3,910.8,50.3L910.8,50.3z"/>
		</g>
	</g>
	<g>
		<g>
			<path class="st5" d="M828.5,123.7c0.1-1.3,0.2-2.6,0.3-3.8c-5,0-10,0-15,0c0.1,4.8,2.4,9.2,6.8,11.2c3.9,1.8,7.8,0.9,10.3-2.7
				c3.9-5.6,9.5-9.7,15.1-13.5c6.3-4.2,12.6-8.4,18.9-12.6c8-5.3,0.5-18.3-7.6-13c-13.7,9.2-29.8,17.6-39.3,31.5
				c3.4-0.9,6.8-1.8,10.3-2.7c0.2,0.6,0.4,1.2,0.6,1.8c-0.2-9.7-14.3-9.6-15,0c-0.1,1.3-0.2,2.6-0.3,3.8
				C812.8,133.3,827.8,133.3,828.5,123.7L828.5,123.7z"/>
		</g>
	</g>
	<g>
		<g>
			<path class="st5" d="M726.3,191.6c-5.1,4.5-11,7-17.6,8.2c3.2,2.4,6.3,4.8,9.5,7.2c0-5.6,6.1-8.2,10.5-10.2
				c6.1-2.7,12.3-5.2,18.5-7.7c-2.8-1.1-5.6-2.3-8.5-3.4c0.2,0.4,0.4,0.8,0.5,1.2c-0.3-1.3-0.7-2.5-1-3.8c0.2-0.1,0.5-0.3,0.7-0.4
				c3.9,3,7.9,6.1,11.8,9.1c4.2-6.9,11.5-15.4,10.4-24.1c-0.5-4.3-4.4-9.2-9.5-7.2c-15.8,6.3-31.7,12.4-47.4,18.9
				c-12.4,5.1-23.7,11.3-29.1,24.2c-1.9,4.6,2.8,9.6,7.2,9.5c9.2-0.2,17.9-2.8,25.4-8.2c3.3-2.4,4.8-6.5,2.7-10.3
				c-1.9-3.3-7-5.1-10.3-2.7c-5.4,3.9-11.1,6.1-17.8,6.2c2.4,3.2,4.8,6.3,7.2,9.5c3.9-9.2,16.7-13,25.2-16.4
				c13.6-5.4,27.3-10.9,40.9-16.3c-3.2-2.4-6.3-4.8-9.5-7.2c0.4,3.1-1.5,5.3-3.1,7.8c-1.7,2.9-3.5,5.8-5.2,8.7
				c-4.3,7.1,6.1,15.6,11.8,9.1c4.1-4.7,4.6-9.6,2.1-15.2c-1.2-2.7-5.7-4.6-8.5-3.4c-15,6.3-40,12-40,32.4c0,5.2,4.8,8.1,9.5,7.2
				c9.2-1.7,17.3-6,24.2-12.1C744.1,195.8,733.5,185.2,726.3,191.6L726.3,191.6z"/>
		</g>
	</g>
	<g>
		<g>
			<path class="st3" d="M476.9,412c2.3-24.6,3.4-49.3,3.2-74c-0.1-12.5-11-24.6-24-24c-12.9,0.6-24.1,10.5-24,24
				c0.2,24.7-0.8,49.4-3.2,74c-1.2,12.5,11.9,24.5,24,24C466.9,435.4,475.6,425.4,476.9,412L476.9,412z"/>
		</g>
	</g>
	<g>
		<g>
			<path class="st3" d="M474.7,492c-3.4-26.9,3.1-53.7,2.9-80.7c-0.1-12.6-11-24.6-24-24c-13.2,0.6-23.7,10.5-24,24
				c-0.6,27.6-1.4,55.1-2.4,82.7c-0.5,12.6,11.4,24.6,24,24c13.4-0.6,23.5-10.5,24-24c1-27.6,1.8-55.1,2.4-82.7c-16,0-32,0-48,0
				c0.2,27-6.3,53.7-2.9,80.7c0.8,6.6,2.1,12.1,7,17c4.2,4.2,11,7.3,17,7C462.4,515.4,476.4,505.3,474.7,492L474.7,492z"/>
		</g>
	</g>
	<g>
		<g>
			<path d="M0.7,543.4c11.2,7.1,24.7,4.4,37,2.3c16.2-2.7,32.6-5,48.4-9.8c1.6-0.5,1.3-3.1-0.4-2.9c-29.5,1.9-58.5,8.1-87.4,14.3
				c-1.7,0.4-1.2,2.8,0.4,2.9c25.3,1.6,50.6-2.4,74.2-11.6c1.5-0.6,1.4-2.9-0.4-2.9c-25.2-0.8-49.2,8.8-74.2,9.9
				c-1.9,0.1-1.9,2.9,0,3c35.7,1.2,70.1-10.7,105.7-12.8c1.9-0.1,1.9-3.1,0-3c-35.5,2.1-70,14.1-105.7,12.8c0,1,0,2,0,3
				c25.1-1.1,49-10.7,74.2-9.9c-0.1-1-0.3-2-0.4-2.9c-23.4,9.1-48.3,13-73.4,11.5c0.1,1,0.3,2,0.4,2.9c28.6-6.2,57.3-12.3,86.6-14.2
				c-0.1-1-0.3-2-0.4-2.9c-13.9,4.2-28.2,6.4-42.5,8.8c-13.1,2.2-28.6,6.6-40.6-1C0.6,539.8-0.9,542.4,0.7,543.4L0.7,543.4z"/>
		</g>
	</g>
	<g>
		<g>
			<path class="st2" d="M655.7,627.6c8.3-7.5,15.9-15.8,22.4-24.8c3.4-4.7,6.5-9.6,9.3-14.7c2.3-4.2,5.7-9.3,6.6-14.1
				c1.7-8.6-7.7-7.6-12.4-4.2c-6.9,4.9-10.6,13-12.6,21c-2.7,10.5-3.2,21.6-4.2,32.3c-0.7,7.1-4.7,20.3,6.6,19.6
				c8.2-0.5,15.7-6.4,19.5-13.5c2.4-4.5,6.6-16.9-0.4-19.3c-9.8-3.3-13.5,9.8-13,16.9c0.7,8.5,8,16.8,17,12.6
				c1.7-0.8,0.2-3.4-1.5-2.6c-13.1,6.2-17.6-21.3-6.4-24c6.6-1.6,4.5,7.6,3.4,11.1c-1.2,3.5-3.2,6.8-5.8,9.4
				c-2.9,2.9-6.6,5.2-10.6,6.1c-3.8,0.8-6.4-0.3-7-4.7c-0.3-2.3,0.5-5.4,0.8-7.7c0.9-9.3,1.5-18.6,3-27.8c1.1-7.2,2.9-14.6,7-20.7
				c2-2.9,6-7.8,9.8-8.2c7.9-0.8,0.3,11.2-0.9,13.4c-8.3,15.8-19.5,29.9-32.8,41.8C652.1,626.7,654.3,628.9,655.7,627.6L655.7,627.6
				z"/>
		</g>
	</g>
	<g>
		<g>
			<path class="st2" d="M745.7,638c9.2-23.2,18.4-46.4,27.6-69.5c-1-0.3-1.9-0.5-2.9-0.8c-3.6,13.5-7.2,26.9-10.9,40.4
				c-2.1,7.7-7.8,20.9,0.6,26.9c5.5,3.9,13.5,1.8,18.1-2.7c7.5-7.3,5.6-19.4,4.1-28.6c-0.3-1.7-2.9-1.2-2.9,0.4
				c-0.1,6.8-0.1,13.5-0.2,20.3c0,3.7-0.2,8.5,2.6,11.4c6.4,6.5,14.1-3.6,16.3-9c1.9-4.6,2.5-9.7,2.8-14.6c0.2-3.6,1.4-9.6-1.8-12.3
				c-2.4-2-6.1-1.4-8.4,0.5c-3.4,2.7-3.4,7.6-3.3,11.5c0,1.2,1.2,1.8,2.3,1.3c2.4-1.3,4.9-2.6,7.3-3.8c2-1,4.3-2.9,6.5-3.4
				c5.1-1.3,3.9,2.2,3.7,5.4c-0.2,2.8-0.4,5.5-0.7,8.3c-0.5,5.7-3.5,17,2.5,21c5.7,3.8,11.8-2.4,14.6-6.9c5-7.8,7.2-17.1,6.8-26.4
				c0-1-1.3-2-2.3-1.3c-6.5,4.7-10.6,11.9-11,20c-0.4,7.1,2.5,16.5,10.3,18.5c9.2,2.3,11-10.3,12.7-16.4c3.2-12.1,5.5-24.5,7-36.9
				c0.2-1.7-2.7-2.1-2.9-0.4c-1.1,7.9-2.1,15.7-3.2,23.6c-0.9,6.7-2.7,13.9-1.8,20.7c0.9,7.6,8.9,15.6,16.6,10.5
				c1.6-1.1,0.1-3.7-1.5-2.6c-5.2,3.5-10.6-1.5-11.8-6.6c-1.2-4.9,0-10.4,0.7-15.3c1.3-9.8,2.6-19.7,4-29.5c-1-0.1-2-0.3-2.9-0.4
				c-1.8,15.2-4.3,31.4-9.7,45.8c-2.8,7.3-9.8,4.2-12.4-1c-1.5-3-2-6.7-1.8-10c0.4-6.9,3.9-13.3,9.6-17.4c-0.8-0.4-1.5-0.9-2.3-1.3
				c0.3,9.1-1.8,18.8-7.3,26.3c-1.9,2.6-7.1,8-10.7,3.1c-1-1.4-0.9-4.1-0.8-5.7c0.1-4.4,0.7-8.9,1.1-13.3c0.3-3.7,3.2-13.2-1.3-15.5
				c-2.5-1.3-5,0.4-7.1,1.5c-4.4,2.2-8.7,4.5-13,6.8c0.8,0.4,1.5,0.9,2.3,1.3c0-1.6-0.1-3.1,0.2-4.6c0.1-2,1-3.6,2.6-4.9
				c1.6,1.3,3.2,2.5,4.9,3.8c0.8,1.6-0.2,5.9-0.3,7.7c-0.4,5.4-1.4,11.2-4.5,15.8c-0.9,1.3-2.5,3.7-4,4.2c-2-0.2-3.9-0.5-5.9-0.7
				c-0.3-0.7-0.5-1.3-0.8-2c-0.8-2.7-0.5-5.8-0.5-8.5c0.1-6.2,0.1-12.3,0.2-18.5c-1,0.1-2,0.3-2.9,0.4c1.4,8.5,3.5,21.1-4.8,26.9
				c-2.8,2-6.6,3.2-10,2.3c-5.5-1.4-6.3-7.1-5.5-12c1.4-8.5,4.4-16.9,6.6-25.2c2.5-9.4,5.1-18.8,7.6-28.2c0.5-1.9-2.2-2.6-2.9-0.8
				c-9.2,23.2-18.4,46.4-27.6,69.5C742.1,639,745,639.8,745.7,638L745.7,638z"/>
		</g>
	</g>
	<g>
		<g>
			<path class="st2" d="M918,574.7c0.4,15.3-1.4,30.4-5.2,45.2c1,0.3,1.9,0.5,2.9,0.8c1.5-6,3.1-13.2-1.3-18.4
				c-3-3.5-7.9-5.2-11.9-2.4c-4.8,3.3-7.7,11.5-10.3,16.5c-3,5.9-5.6,12.3-4.8,19c1.5,11.8,12.9,16.7,23.3,12
				c12.6-5.7,14.8-20.8,15.2-33.1c-1,0-2,0-3,0c0,10.2,0.1,20.5,0.1,30.7c0,0.7,0.5,1.2,1.1,1.4c5.7,2.3,11.7-0.4,15.2-5.2
				c4.8-6.6,3.3-15.5,1.9-23c-0.3-1.8-2.8-1.1-2.9,0.4c-1.1,9.8-1.3,19.6-0.7,29.4c0,0.5,0.3,1.1,0.7,1.3c5.6,2.6,11.3,3,17.1,0.9
				c1.8-0.6,1-3.5-0.8-2.9c-3.2,1.2-7.1,2-10.5,0.9c-2.8-0.8-3.2-1.5-3.8-4.1c-0.3-1.5-0.1-3.4-0.1-4.9c-0.1-6.9,0.3-13.8,1-20.6
				c-1,0.1-2,0.3-2.9,0.4c1,5.7,2.2,12,0,17.7c-2.1,5.3-7.7,9.2-13.4,6.9c0.4,0.5,0.7,1,1.1,1.4c0-10.2-0.1-20.5-0.1-30.7
				c0-1.9-2.9-1.9-3,0c-0.3,8.9-1.2,19.2-7.5,26.2c-6.1,6.6-18.9,9-23.6-0.5c-5-10,2.5-21.1,7.2-29.7c2.5-4.5,6.3-12.2,12.3-6.8
				c4.7,4.2,2.9,11.3,1.5,16.6c-0.5,1.9,2.4,2.7,2.9,0.8c3.9-15.1,5.7-30.5,5.4-46C921,572.8,918,572.7,918,574.7L918,574.7z"/>
		</g>
	</g>
	<g>
		<g>
			<path class="st2" d="M985.7,646.3c4.9-8.8,9.8-17.6,14.8-26.5c4.3-7.7,9.8-15.5,13-23.7c1.7-4.3,1.2-10.9-4.3-12.1
				c-5.6-1.3-9.5,5.2-11,9.5c-1.5,4.3-3.2,12.9,1.9,15.6c2.9,1.5,6.4,0.4,9.4,1.4c5.1,1.7,8.2,7.1,9.1,12.1
				c1.5,8.6-0.5,23.9-9.1,28.5c-2.7,1.4-5.9,1.6-8.3-0.3c-3.5-2.6-2.7-7.3,1.4-8.5c4-1.2,8,0.8,11.6,2.2c6.6,2.6,14,3.1,17.4-4.3
				c3.7-7.8-0.7-16.4,0.1-24.5c0.2-1.8-2.4-1.9-2.9-0.4c-4.2,12.2,1.9,26.2,13.7,31.4c0.9,0.4,1.9,0.1,2.2-0.9
				c3.8-12.4,3.7-25.4-0.5-37.7c-0.6-1.8-3.3-1.1-2.9,0.8c1.7,8.5,8.1,14.1,14.3,19.7c3.7,3.3,9.1,7.4,9.3,12.6
				c0.1,2.9-1,4.3-3.8,5.1c-1.9,0.5-3.6,0.1-5.4-0.6c-3-1.2-5.4-3.5-7.7-5.7c-0.6,0.8-1.2,1.6-1.8,2.4c6,4.1,17.1,7.9,19.3-2.4
				c1-4.9-0.9-10-0.3-15c0.8-6.4,4.2-12.5,10.6-14.5c-0.3-1-0.5-1.9-0.8-2.9c-9.4,3.5-15.8,13.5-13.8,23.6
				c2.1,10.4,12.6,17.3,22.9,16.1c1.9-0.2,1.9-3.2,0-3c-8.5,0.9-17.3-4.1-19.7-12.6c-2.4-8.8,3.1-18.1,11.4-21.2
				c1.8-0.7,1.1-3.5-0.8-2.9c-7.3,2.2-11.6,8.8-12.7,16.1c-0.7,4.2,0.3,8.1,0.4,12.3c0.2,10.7-9.2,7.7-15,3.8c-1.4-1-3,1.2-1.8,2.4
				c4,3.8,8.9,8.2,14.8,7.3c4.2-0.6,8.4-4.1,7.9-8.7c-0.7-6.1-7.8-11.4-11.9-15.2c-5.4-4.9-11-9.9-12.5-17.4c-1,0.3-1.9,0.5-2.9,0.8
				c4,11.8,4.1,24.2,0.5,36.1c0.7-0.3,1.5-0.6,2.2-0.9c-10.7-4.7-16.1-17-12.3-28c-1-0.1-2-0.3-2.9-0.4c-0.7,7.8,4.4,17.7-0.5,24.7
				c-5.6,7.9-16.8-2.1-24.2-1.5c-11.1,0.9-9.6,15.9,0.8,16.4c14.6,0.6,18.2-21.1,17-31.6c-0.7-6.2-3.9-12.5-9.8-15.3
				c-2.5-1.2-4.8-1.1-7.4-1.3c-7.3-0.4-4.7-10.9-2.3-15.2c0.5-1,1.6-3,2.5-3.4c2.2,0.5,4.4,0.9,6.6,1.4c0.1,0.7,0.2,1.3,0.3,2
				c0.3,3-2.6,7-4.1,9.5c-2.7,4.8-5.4,9.7-8.1,14.5c-5.4,9.7-10.8,19.4-16.2,29C982.2,646.5,984.7,648,985.7,646.3L985.7,646.3z"/>
		</g>
	</g>
	<g>
		<g>
			<path class="st2" d="M754.3,585.8c5.9,1.1,11.7,2.1,17.6,3.2c1.9,0.3,2.7-2.5,0.8-2.9c-5.9-1.1-11.7-2.1-17.6-3.2
				C753.2,582.5,752.4,585.4,754.3,585.8L754.3,585.8z"/>
		</g>
	</g>
	<g>
		<g>
			<path class="st2" d="M826.8,603.2c8-0.6,15.8-0.1,23.6,1.5c1.9,0.4,2.7-2.5,0.8-2.9c-8.1-1.6-16.2-2.2-24.4-1.6
				C824.9,600.4,824.9,603.4,826.8,603.2L826.8,603.2z"/>
		</g>
	</g>
	<g>
		<g>
			<path class="st2" d="M785.9,579.7c-2.7-1.2-6.5-0.4-7.1,2.9c-0.5,2.6,1.6,5,3.8,5.9c2.6,1,5.3-0.2,6.7-2.6c1.6-2.7,1.3-6-0.1-8.7
				c-0.8-1.7-3.4-0.2-2.6,1.5c1,2,1.3,6.7-1.8,7.2c-1.1,0.2-2.2-0.6-2.8-1.4c-1.1-1.6,0.8-2.8,2.3-2.1
				C786.1,583.1,787.7,580.5,785.9,579.7L785.9,579.7z"/>
		</g>
	</g>
	<g>
		<g>
			<path class="st2" d="M1031.8,592c-3.8-0.3-7.4,1.9-9.3,5.2c-0.9,1.6-1.4,3.4-1.3,5.2c0.1,2.1,0.7,3,2.7,3.8
				c8.3,3.4,16.5-4.9,13.3-13.2c-0.7-1.8-3.6-1-2.9,0.8c2.1,5.4-2.2,11.5-8.2,10c-1.4-0.3-1.9-0.6-1.9-2c0.1-1.2,0.5-2.3,1.1-3.3
				c1.4-2.3,3.8-3.6,6.5-3.4C1033.8,595.1,1033.8,592.1,1031.8,592L1031.8,592z"/>
		</g>
	</g>
	<g>
		<g>
			<path class="st2" d="M497.3,731.3c2.1-3.3,1.6-6.8,1.4-10.5c0-1-0.2-2-0.1-3c-0.1-2.5,1-3.2,3.5-2.3c2.1-0.8,3.5-0.2,4.3,1.8
				c1.6,3.4-0.1,7.5-1.3,10.7c-2.3,6.1-4.9,17.8,4.9,19c16.6,2,17.1-27.9,0.7-25.7c-1,0.1-1.6,0.8-1.4,1.9
				c1.5,9.7,16.2,14.2,24.6,12.9c9.4-1.5,9.8-14,0.4-15.9c-4.6-0.9-8.9,2.2-11,6.1c-2.8,5.2-1.6,11.4,0.9,16.4
				c2.1,4.3,6,9.1,11.2,9.5c4.5,0.3,7.6-3,8.5-7.2c1.4-6.8-7.3-18.8-1-23.6c0.4-0.4,0.8-0.7,1.1-1.1c1.8,1,3.6,2,5.4,3
				c0.6,0.9,0.5,2.7,0.6,3.7c0.3,2.6,0.4,5.3,0.6,7.9c0.4,5.3,0.8,10.5,1.2,15.8c1-0.1,2-0.3,2.9-0.4c-2-9.1-3.8-26.5,10-27.1
				c-0.5-0.4-1-0.7-1.4-1.1c2.8,8.7-4.4,34.2,12.7,33.1c1.1-0.1,1.9-1.2,1.3-2.3c-1-1.6-2-3.2-3-4.8c-0.9,0.5-1.7,1-2.6,1.5
				c1.1,1.7,2.2,3.4,3.3,5.1c1.1,1.6,3.7,0.1,2.6-1.5c-1.1-1.7-2.2-3.4-3.3-5.1c-1-1.6-3.6-0.1-2.6,1.5c1,1.6,2,3.2,3,4.8
				c0.4-0.8,0.9-1.5,1.3-2.3c-7.4,0.4-9.5-8.4-9.2-14.1c0.2-5.7,1.2-11.2-0.6-16.8c-0.2-0.6-0.8-1.1-1.4-1.1
				c-5.9,0.2-10.5,3.9-12.9,9.2c-3.1,6.8-1.5,14.7,0,21.7c0.4,1.6,3.1,1.3,2.9-0.4c-0.6-7.9-1-15.8-1.8-23.7
				c-0.4-3.5-0.9-7.7-4.3-9.5c-3.1-1.7-6.7-0.1-8.8,2.5c-3.3,4-2.4,8.8-1,13.4c0.9,2.9,2.2,5.8,2.2,8.9c0,6-5.4,8.9-10.2,4.8
				c-5.8-4.9-9.7-17.1-2.4-22.3c5.3-3.8,13.3,2.2,7.9,7.5c-2.2,2.1-7.4,1.1-10,0.5c-5.7-1.2-13.3-3.7-14.3-10.3
				c-0.5,0.6-1,1.3-1.4,1.9c5.7-0.8,9.6,4.8,9.4,10.1c-0.1,4.7-5.1,10.9-10.4,9.5c-7.1-1.8-3-11.6-1.4-15.9
				c1.2-3.3,2.5-7.2,1.4-10.7c-1.4-4.4-6.8-8.3-11.2-5.3c-5.9,4.1-0.4,12.5-3.8,17.7C493.6,731.4,496.2,733,497.3,731.3L497.3,731.3
				z"/>
		</g>
	</g>
	<g>
		<g>
			<path class="st2" d="M595.5,697c-2.3,12.4-4.6,24.9-6.9,37.3c-0.4,1.9,2.3,2.6,2.9,0.8c2.3-6.8,0.3-18.1-9.4-16.8
				c-4.4,0.6-7.1,5.5-9.2,9c-2.7,4.6-5,9.9-4.3,15.4c0.9,7.6,7.6,14.7,15.6,12.3c11-3.4,11.3-16.5,10.7-25.8
				c-0.1-0.9-0.9-1.8-1.9-1.4c-4.6,1.4-7.4,5.2-7.2,10.1c0,1.1,0.9,1.6,1.9,1.4c5.4-0.9,10.6-2.3,15.6-4.3c-0.6-0.3-1.2-0.7-1.8-1
				c1.5,6.5-8.2,25.3,4.8,26.8c10,1.2,16.1-12.7,15.8-20.7c-0.1-4-1.4-6.7-6-6.4c-3.6,0.2-6.8,3-8.3,6.1
				c-4.5,9.2,5.7,16.5,12.9,19.4c1.8,0.7,2.6-2.2,0.8-2.9c-5.4-2.1-13.6-7.2-11.4-14.3c1-3.4,7.6-8.5,9-2.6c0.7,3-0.6,6.9-1.8,9.5
				c-1.3,2.9-3.9,7-7.1,8.1c-5.6,1.9-8.1-2-7.9-6.9c0.2-5.9,3.5-10.8,2.1-16.9c-0.2-0.7-1.1-1.3-1.8-1c-5.1,2-10.2,3.5-15.6,4.3
				c0.6,0.5,1.3,1,1.9,1.4c-0.1-3.5,1.6-6.1,5-7.2c-0.6-0.5-1.3-1-1.9-1.4c0.4,6.6,1.1,14.5-3.8,19.7c-5.4,5.8-13.3,3.6-15.8-3.5
				c-2.2-6.3,0.7-12.7,4.1-18c2.1-3.2,5.6-8,10-5.1c4,2.7,3.4,8.1,2.1,12c1,0.3,1.9,0.5,2.9,0.8c2.3-12.4,4.6-24.9,6.9-37.3
				C598.8,696,595.9,695.1,595.5,697L595.5,697z"/>
		</g>
	</g>
	<g>
		<g>
			<path class="st2" d="M642.6,707.9c-0.9,11.6-1.8,23.1-2.7,34.7c1-0.1,2-0.3,2.9-0.4c-3.8-15.8-29.8,0.1-23.2,13.4
				c2.7,5.5,10,7.6,15.6,5.6c7.2-2.6,10.4-10.4,10.8-17.5c0.1-1.7-2.6-2.1-2.9-0.4c-1.1,5.6-2.2,12.2,1.4,17.1
				c2.6,3.6,7.1,5.4,11.3,3.8c1.8-0.7,1-3.6-0.8-2.9c-4,1.5-7.8-1.1-9.2-4.9c-1.5-4-0.6-8.4,0.2-12.4c-1-0.1-2-0.3-2.9-0.4
				c-0.5,8.4-7.6,19.4-17.3,13.9c-14.3-8.1,11.2-27.4,14.3-14.7c0.4,1.7,2.8,1.2,2.9-0.4c0.9-11.6,1.8-23.1,2.7-34.7
				C645.8,706,642.8,706,642.6,707.9L642.6,707.9z"/>
		</g>
	</g>
	<g>
		<g>
			<path class="st2" d="M649.2,732.2c0-1.6,0-3.2,0-4.8c0-1.9-2.9-1.9-3,0c-0.1,2.3-0.2,4.6-0.2,6.9c-0.1,1.6-0.1,2.5,1.1,3.6
				c1.7,1.6,4.2,2.1,6.5,1.7c5.5-1,7.6-7,5.3-11.8c-2.6-5.2-9.1-5.6-12.6-1.1c-1.2,1.6-2.7,5-1.3,6.8c1.7,2.2,5.5,2.5,7.8,1.5
				c1.8-0.7,1-3.6-0.8-2.9c-1.2,0.5-4.2,0.9-4.5-0.7c-0.3-1.7,1.5-3.7,2.8-4.4c3.2-1.8,6.2,1.1,6.5,4.3c0.4,3.1-2.1,5.7-5.3,5.4
				c-0.7-0.1-1.9-0.4-2.4-1c-0.4-0.6-0.3-0.7-0.3-1.5c0.2-2.3,0.2-4.6,0.2-6.9c-1,0-2,0-3,0c0,1.6,0,3.2,0,4.8
				C646.2,734.2,649.2,734.2,649.2,732.2L649.2,732.2z"/>
		</g>
	</g>
	<g>
		<g>
			<path class="st2" d="M717.1,730.8c-0.1-1.8-0.3-4.1,0.3-5.8c1.8-4.5,4.1-4.9,6.8-1c-0.1,1.1-0.3,2.2-0.6,3.2
				c-0.8,3.3-1.7,6.7-3.2,9.8c-1.9,3.8-4.8,7.1-9,8.3c-0.8,0.1-1.5,0.3-2.3,0.4c-3-0.5-3-0.2-0.1,0.8c0.8,1.1,0.2,4.5,0.4,5.9
				c1.3,8.7,10.5,14.2,18.9,11.7c1.8-0.6,1.1-3.5-0.8-2.9c-4,1.2-8.1,0.4-11.3-2.4c-3.1-2.6-3.6-5.7-3.9-9.5
				c-0.3-3.5-1.2-8.8-5.8-8.9c-2.7-0.1-5.4,2.9-4.3,5.6c1.5,3.7,7.9,3,10.7,2c4.9-1.6,8.3-5.5,10.4-10.1c1.9-4.1,4.9-11,3.7-15.6
				c-1-3.8-5.1-4.9-8.4-3.3c-4.5,2.2-4.7,7.5-4.6,11.9C714.2,732.7,717.2,732.8,717.1,730.8L717.1,730.8z"/>
		</g>
	</g>
	<g>
		<g>
			<path class="st2" d="M748.9,734.7c-5.3-3.9-0.3-12.6,5.5-8.4c5.2,3.8,0.1,9.2-2.7,12.5c-5,5.8-10.3,11.2-16.1,16.3
				c0.7,0,1.4,0,2.1,0c-3.3-3.8,2.5-7.7,5.7-4.6c1.8,1.7,2.5,4.2,3.4,6.4c1.1,2.6,2.3,5.6,4.9,7.1c3.5,2,8.8,0.9,9.6-3.5
				c0.3-1.9-2.5-2.7-2.9-0.8c-0.6,3.1-3.6,2.3-5.2,1.4c-1.9-1.1-2.7-3.1-3.5-5c-0.8-1.8-1.3-3.7-2.4-5.4c-1.6-2.6-4.3-5.1-7.6-4.9
				c-5.6,0.4-7.5,7.5-4.1,11.4c0.6,0.6,1.5,0.5,2.1,0c6.9-6.1,13.8-12.7,19.2-20.1c3.1-4.3,4.2-9.5-0.5-13.2c-9.1-7-17.6,7.1-9,13.3
				C748.9,738.4,750.4,735.8,748.9,734.7L748.9,734.7z"/>
		</g>
	</g>
	<g>
		<g>
			<path class="st2" d="M775.4,767c4.5-18,14.3-33.8,28-46.2c1.4-1.3-0.7-3.4-2.1-2.1c-14,12.8-24.1,29.1-28.8,47.6
				C772.1,768.1,775,768.9,775.4,767L775.4,767z"/>
		</g>
	</g>
	<g>
		<g>
			<path class="st2" d="M823.6,734.5c-6.4-10.1-21.3-6.6-26.8,2.4c-5.3,8.7-3.3,20.7,4.8,26.9c9.4,7.2,22.9,2.8,27.7-7.6
				c3.8-8,7-31-8-28.7c-1.9,0.3-1.1,3.2,0.8,2.9c12.5-1.9,6.4,23.8,1.7,28.8c-6.1,6.6-16.6,6.9-22.5,0.1c-4.7-5.4-5.8-13.4-2.5-19.8
				c4-7.6,16.7-12.3,22.3-3.5C822,737.7,824.6,736.2,823.6,734.5L823.6,734.5z"/>
		</g>
	</g>
	<g>
		<g>
			<path class="st2" d="M829.3,747.2c6.4,4.2,16.5,6.8,22.2,0c3.9-4.7,3.8-11.9-1.2-15.6c-1-0.8-2.1,0.3-2.3,1.3
				c-1.6,12-2.8,24.1-3.7,36.2c0.6-0.5,1.3-1,1.9-1.4c-3.5-1.4-7-2.8-10.5-4.1c-0.3,1-0.5,1.9-0.8,2.9c6.1,1.3,12.3,2.6,18.4,4
				c1.9,0.4,2.7-2.5,0.8-2.9c-6.1-1.3-12.3-2.6-18.4-4c-1.9-0.4-2.6,2.2-0.8,2.9c3.5,1.4,7,2.8,10.5,4.1c1,0.4,1.8-0.6,1.9-1.4
				c0.9-12.1,2.1-24.2,3.7-36.2c-0.8,0.4-1.5,0.9-2.3,1.3c4.1,3,2.9,9.7-1,12.4c-5.3,3.7-12.1,1.2-17-2
				C829.2,743.5,827.7,746.1,829.3,747.2L829.3,747.2z"/>
		</g>
	</g>
	<g>
		<g>
			<path class="st2" d="M863.9,773.3c2.9-14.1,9.2-26.9,18.7-37.7c1.3-1.4-0.8-3.6-2.1-2.1c-9.8,11.2-16.5,24.5-19.5,39
				C860.6,774.4,863.5,775.2,863.9,773.3L863.9,773.3z"/>
		</g>
	</g>
	<g>
		<g>
			<path class="st2" d="M902.6,752.9c-1.9-3-4.6-9.5-2.6-13.1c3.2-5.6,6.9,2.6,7,5.2c0.2,2.4-0.5,4.9-0.9,7.3
				c-0.9,4.3-1.9,8.8-3.8,12.7c-1,2-2.2,4-4.2,5.1c-1.6,1-3.4,1.3-5.3,1c-3.5-2.1-3.8-4.4-0.7-6.8c-0.6-0.2-1.1-0.5-1.7-0.7
				c4.1,5.9,9.5,13.5,17.6,13.3c5.8-0.1,11.6-4.4,11-10.6c-0.2-1.9-3.2-1.9-3,0c0.5,6.3-7,8.8-11.9,6.8c-5-2-8.2-6.8-11.2-11
				c-0.4-0.5-1-0.9-1.7-0.7c-6.2,2.1-5.3,10.9,0.7,12.6c10.2,2.9,14.4-10.2,16.2-17.4c1.5-6.2,4.8-21.5-6.1-21.4
				c-9.2,0.1-4.9,14.8-2.1,19.3C901,756,903.6,754.5,902.6,752.9L902.6,752.9z"/>
		</g>
	</g>
	<g>
		<g>
			<path class="st2" d="M921.6,750.8c10.8,7.2,22.3-7.1,13-16.1c-1-1-2.4-0.2-2.6,1.1c-1.4,12.8-1.2,25.6,0.5,38.3
				c0.4-0.5,0.7-1,1.1-1.4c-2.9,0.5-5.5,0.6-8.4,0.4c0,1,0,2,0,3c4.7,0,9.3,0,14,0c1.9,0,1.9-3,0-3c-4.7,0-9.3,0-14,0
				c-2,0-1.9,2.8,0,3c3.2,0.3,6.1,0.1,9.2-0.5c0.6-0.1,1.2-0.8,1.1-1.4c-1.7-12.7-1.9-25.5-0.5-38.3c-0.9,0.4-1.7,0.7-2.6,1.1
				c6.8,6.7-1.5,16.7-9.4,11.4C921.5,747.1,920,749.7,921.6,750.8L921.6,750.8z"/>
		</g>
	</g>
</g>
<g id="Calque_2">
</g>
</svg>
