<?xml version="1.0" encoding="utf-8"?>
<!-- Generator: Adobe Illustrator 22.0.1, SVG Export Plug-In . SVG Version: 6.00 Build 0)  -->
<svg version="1.1" id="Layer_1" xmlns="http://www.w3.org/2000/svg" xmlns:xlink="http://www.w3.org/1999/xlink" x="0px" y="0px"
	 viewBox="0 0 1200 900" style="enable-background:new 0 0 1200 900;" xml:space="preserve">
<g>
	<g>
		<path d="M660.5,274c65.9,3.7,131.3-14.1,197.1-7.1c16.9,1.8,33.6,5.2,49.7,10.4c7.2,2.3,14.8,5.2,19.6,11.3
			c4.6,5.8,5.6,13.4,4.1,20.5c-3.1,15-15.3,24.6-28.1,31.5c-13,7.1-26.5,13.1-39.4,20.5c-29.1,16.8-56,37.3-80.1,60.7
			c-1.4,1.3,0.7,3.5,2.1,2.1c23.5-22.8,49.6-42.8,77.9-59.4c13.6-7.9,27.9-14.2,41.6-21.8c11.7-6.5,22.8-15,27.4-28
			c4-11.2,2.5-24.1-7.1-31.9c-5-4.1-11.2-6.5-17.4-8.4c-8.1-2.6-16.4-4.7-24.7-6.5c-34.2-7.1-69.1-6.3-103.8-3.4
			c-39.7,3.3-79.3,8.8-119.2,6.5C658.5,270.9,658.5,273.9,660.5,274L660.5,274z"/>
	</g>
</g>
<g>
	<g>
		<path d="M809.8,430c-43.6-20.2-68.8-65.6-112.5-85.7c-1.7-0.8-3.3,1.8-1.5,2.6c43.7,20.1,68.8,65.5,112.5,85.7
			C810.1,433.4,811.6,430.8,809.8,430L809.8,430z"/>
	</g>
</g>
<g>
	<g>
		<path d="M741.7,380.4c-6.1-0.7-11.9,0.8-18,1.2c-6.2,0.4-12.2-1.1-18-3c-10-3.2-19.5-6.5-30.1-5.6c-17.6,1.5-33.9,11.9-42.4,27.4
			c-0.9,1.7,1.7,3.2,2.6,1.5c8.9-16.3,26.8-26.6,45.4-26.1c10.3,0.3,19.6,4.9,29.4,7.3c4.6,1.2,9.2,1.7,14,1.3
			c5.8-0.5,11.3-1.8,17.1-1.1C743.7,383.6,743.6,380.6,741.7,380.4L741.7,380.4z"/>
	</g>
</g>
<g>
	<g>
		<path d="M667.6,390.9c-15.9-1.8-32.8-3.5-47.9,3c-7.4,3.2-13.7,8.3-19.8,13.4c-5.9,5-11.7,10.4-16.2,16.8
			c-4.8,6.7-8.1,14.4-9.5,22.5c-1,5.7-2.6,14.2,1.4,19.1c9.9,12.1,31,2.3,42.2-1.9c10.2-3.8,20.4-7.4,30.5-11.5
			c6.7-2.7,13.2-6.2,16.5-12.9c0.9-1.7-1.7-3.2-2.6-1.5c-4.1,8.1-13.2,11-21.2,14c-9.2,3.5-18.5,7-27.7,10.4
			c-8.7,3.2-18.7,7.6-28.2,5.4c-7-1.7-9.1-6-8.8-12.9c0.2-4.8,1-9.5,2.5-14.1c5.4-17.1,20.8-31.4,35.8-40.6
			c16.1-9.9,35.2-8.1,53.1-6.1C669.6,394.1,669.5,391.1,667.6,390.9L667.6,390.9z"/>
	</g>
</g>
<g>
	<g>
		<path d="M631.8,427.1c-15.7,11.3-31.4,22.5-47.1,33.8c-1.6,1.1-0.1,3.7,1.5,2.6c15.7-11.3,31.4-22.5,47.1-33.8
			C634.8,428.5,633.4,425.9,631.8,427.1L631.8,427.1z"/>
	</g>
</g>
<g>
	<g>
		<path d="M671,414.2c-18.7,0.1-39.9,1.3-51.7,18c-1.1,1.6,1.5,3.1,2.6,1.5c11.1-15.7,31.7-16.3,49.1-16.5
			C672.9,417.2,672.9,414.2,671,414.2L671,414.2z"/>
	</g>
</g>
<g>
	<g>
		<path d="M713.4,443.2c-18.8-0.7-39.9-1.1-55.7,10.6c-9,6.7-15.1,15.6-26.7,18.1c-5.5,1.2-11.3,1.3-16.9,1.1
			c-2.7-0.1-5.4-0.1-8.1-0.4c-3.6-0.4-11.9-3.9-7.3-9c1.3-1.4-0.8-3.5-2.1-2.1c-2.4,2.6-2.6,6.2-0.6,9.3c2.5,3.9,7.3,4.7,11.6,5
			c11.6,0.9,24.9,1.1,35.1-5.3c5.1-3.2,9.1-7.8,13.6-11.7c5.4-4.6,11.5-7.9,18.4-9.8c12.5-3.6,25.9-3.2,38.8-2.7
			C715.3,446.3,715.3,443.3,713.4,443.2L713.4,443.2z"/>
	</g>
</g>
<g>
	<g>
		<path d="M619.8,472.3c26,11.8,57.4,9.7,81.7-5.6c6.6-4.2,11.7-10.4,18.3-14.5c4.1-2.5,8.9-3.4,13.4-4.7c4.3-1.2,8.5-2.6,12.7-4
			c16.6-5.8,32.5-13.7,47.3-23.2c1.6-1,0.1-3.6-1.5-2.6c-14.3,9.2-29.7,16.9-45.7,22.6c-7.7,2.7-15.9,4.3-23.5,7.2
			c-7,2.7-11.7,8.8-17.5,13.2c-23.7,17.5-56.7,21.1-83.5,8.9C619.6,468.9,618.1,471.5,619.8,472.3L619.8,472.3z"/>
	</g>
</g>
<g>
	<g>
		<path d="M754.7,432.2c11.9,1.5,23.6,4.3,34.8,8.6c5,1.9,10.4,3.9,14.1,7.9c4.3,4.6,4.9,11.2,4.6,17.1c-0.5,12.2-4.3,24-8.1,35.5
			c-3.9,11.8-7.8,23.6-11.7,35.4c-7.3,22.3-13.5,45.7-25.9,65.8c-11.8,19.2-27.9,35.2-42.6,52c-16.8,19.2-32.1,39.8-45.8,61.4
			c-1,1.6,1.6,3.1,2.6,1.5c13.9-21.9,29.4-42.6,46.5-62.1c15-17,31.2-33.2,42.8-52.8c12.9-21.6,19.3-46.9,27.1-70.7
			c4.1-12.4,8.3-24.7,12.1-37.1c3.4-11,6.8-23,5.8-34.6c-0.9-11.1-7.6-17-17.5-21c-12.5-5.1-25.6-8.3-39-10
			C752.8,429,752.8,432,754.7,432.2L754.7,432.2z"/>
	</g>
</g>
<g>
	<g>
		<path d="M672.7,722.7c5.9,3.7,10.6,9,13.2,15.5c2.4,6.1,1.7,12.8,4,18.9c4.3,11.1,18.8,12.6,28.6,16.2c13.6,5,26.6,11.7,38.6,19.9
			c5.5,3.7,10.8,7.7,15.8,12.1c5.3,4.6,14.7,11.2,14.4,19c-0.3,7-7.6,11.6-13.6,13.6c-7.5,2.4-16.1,2-23.8,0.7
			c-15.1-2.7-29-9.8-42.8-16.3c-26.8-12.6-54.8-21.6-83.9-26.7c-8.2-1.4-16.4-2.7-24.3-5.2c-5.5-1.8-10.3-3-10.4-9.8
			c-0.1-4.3,1.1-9,1.9-13.3c3.3-16.6,9.6-32.4,18.4-46.9c1-1.7-1.6-3.2-2.6-1.5c-8.5,13.9-14.7,29.1-18.2,45
			c-1.3,6-3.9,14.6-2.3,20.7c1.5,5.7,8.2,7.4,13.1,8.9c16.4,5,33.7,6.4,50.3,10.7c17.1,4.4,33.8,10.3,49.8,17.6
			c15,6.8,29.6,14.9,45.7,18.7c12.5,3,28,3.9,38.7-4.5c4-3.1,7.1-7.7,6.7-13c-0.4-6.5-5.7-11.2-10.2-15.3
			c-11.2-10.4-23.8-19.4-37.3-26.6c-7.5-4.1-15.4-7.6-23.4-10.5c-7.6-2.8-18.1-4-23.9-10.1c-5.9-6.1-3.9-16.9-7.2-24.4
			c-2.9-6.6-7.8-12-13.9-15.8C672.6,719.1,671.1,721.7,672.7,722.7L672.7,722.7z"/>
	</g>
</g>
<g>
	<g>
		<path d="M684,735.9c-33.8-2.1-67.1-8.2-99.5-18.1c-1.9-0.6-2.6,2.3-0.8,2.9c32.6,10,66.3,16.1,100.3,18.2
			C685.9,739,685.9,736,684,735.9L684,735.9z"/>
	</g>
</g>
<g>
	<g>
		<path d="M579.6,717.9c0.7-18,8.7-34.1,17.1-49.6c8.6-15.8,17.1-31.5,25.1-47.6c16.4-32.9,31.5-66.5,46.5-100.1
			c0.8-1.7-1.8-3.3-2.6-1.5c-15.6,34.7-31.2,69.5-48.3,103.5c-8.3,16.5-17.3,32.5-25.9,48.8c-7.7,14.6-14.4,29.8-15,46.5
			C576.6,719.8,579.6,719.8,579.6,717.9L579.6,717.9z"/>
	</g>
</g>
<g>
	<g>
		<path d="M673.5,603.7c2.9-20.1,5.8-40.1,8.6-60.2c2.8-19.3,5.2-38.7,10.7-57.5c0.5-1.9-2.4-2.6-2.9-0.8
			c-5.5,18.8-7.9,38.2-10.7,57.5c-2.9,20.1-5.8,40.1-8.6,60.2C670.3,604.8,673.2,605.6,673.5,603.7L673.5,603.7z"/>
	</g>
</g>
<g>
	<g>
		<path d="M607.7,634.9c-25.3,13-53.9,4.3-78.3-6.5c-5.6-2.5-11.5-4.9-16.6-8.5c-5.3-3.8-9-9.3-12.5-14.8
			c-7.7-11.8-15.3-23.6-22.9-35.5c-1-1.6-3.6-0.1-2.6,1.5c8.4,12.9,16.5,26.1,25.1,38.8c3.2,4.7,6.7,9.2,11.4,12.5
			c6,4.3,13.2,7,20,10c24.5,10.6,52.7,17.9,77.9,5C610.9,636.6,609.4,634,607.7,634.9L607.7,634.9z"/>
	</g>
</g>
</svg>
