<?xml version="1.0" encoding="utf-8"?>
<!-- Generator: Adobe Illustrator 19.2.0, SVG Export Plug-In . SVG Version: 6.00 Build 0)  -->
<svg version="1.1" xmlns="http://www.w3.org/2000/svg" xmlns:xlink="http://www.w3.org/1999/xlink" x="0px" y="0px"
	 viewBox="0 0 800 506" style="enable-background:new 0 0 800 506;" xml:space="preserve">
<style type="text/css">
	.st0{fill:#03001E;}
	.st1{opacity:0.31;}
	.st2{fill:url(#SVGID_1_);}
	.st3{fill:#24015B;}
	.st4{fill:#03000C;}
	.st5{fill:url(#SVGID_2_);}
	.st6{fill:url(#SVGID_3_);}
	.st7{fill:#FFB600;}
	.st8{fill:none;stroke:#000000;stroke-miterlimit:10;}
	.st9{fill:none;stroke:#FFFFFF;stroke-miterlimit:10;}
	.st10{fill:#FFFFFF;}
	.st11{opacity:0.13;}
</style>
<g id="fond">
	<g>
		<rect class="st0" width="800" height="506"/>
	</g>
	<g class="st1">
		<linearGradient id="SVGID_1_" gradientUnits="userSpaceOnUse" x1="386.4962" y1="440.0423" x2="363.9778" y2="530.1156">
			<stop  offset="0" style="stop-color:#24015B"/>
			<stop  offset="0.7499" style="stop-color:#03000C"/>
		</linearGradient>
		<path class="st2" d="M724.5,510.7c2.5,0.1,5,0.2,7.5,0.3c12.4,0.4,56-4.2,68-5c12-0.8-8.6-24.3,3-31.2c-2.6-2.2-4.7-2.2-7.9-3.6
			c-15.1-6.5-31.3-12-46.7-17.7c-42.5-15.8-86.2-30.1-130.8-39c-28.4-5.7-60.6-17.2-89.5-15.5c-31.4,1.9-59.8-13.5-90.3-19.5
			c-20-3.9-40.2-7.9-60.3-12.4c-53.3-12.1-105.6-30.5-158.2-45.8c-29.4-8.5-59.1-15.1-88.3-24.2c-27.4-8.5-56.4-15.2-82.4-26.5
			C21.9,259,28.9,256.8,0,253.8c-4.9,25.1-3.3,39.3-4,62.9c-1,34.3,4,32.9,4,57.2c0,30.9,0,96.7,0,127.6
			c142.4,3.1,285.9,1.8,428.6,1.6c42-0.1,83.7,6.4,125.7,4.6c29.6-1.3,59.3-2.7,89-1.3C670.4,507.7,697.5,509.6,724.5,510.7z"/>
	</g>
	<g>
		<path class="st3" d="M477.3,5.1c-32.5,0-64.6-3.1-96.9-4.1H258.9c-1.3,4,0.7,14,0.9,17.1c1.2,16.1,2.1,32.3,4.6,48.3
			c3.1,20.1,8.2,37.8,7.1,58.1c-0.7,12.7-0.2,25.4-0.2,38.1c0,12,0.3,23.9-1,35.9c-0.7,6.7-6.5,22.9-1.9,28.8
			c6,7.7,37.6,8.7,47.8,10.5c25.6,4.5,51,7.9,77,11c44.9,5.4,86.7,20,131.1,26.4c21.2,3.1,42.6,5.2,64,7c5.5,0.4,16.6,3.3,22.5,2.4
			l-8,1.9c21,9.4,19.7-5.2,20.5-17.7c1.8-28.2-0.1-56.9-0.1-85.1c0-33.9-1.7-68.1-0.1-102c0.7-14.2,1-28.3,1-42.5
			c0-10.4,3.6-26.2-1.1-36.1C575.2,5.4,525.5,5.1,477.3,5.1z"/>
	</g>
</g>
<g id="table">
	<g>
		<g>
			<path class="st4" d="M-23,316c-1.6,24.5,26.2,21.9,42.8,20.3c17.3-1.6,34.7-3.2,52-2.5c13.6,0.5,27.3,2.3,39.1,9.5
				c3.9,2.4,9.4,6.2,9.4,11.4c0,6.7-9.1,11.4-14.1,14.2c-14,7.7-29.8,11.2-43.5,19.5c-10.7,6.5-22.8,17-26.3,29.5
				c-3.6,12.5,5.5,21.5,17,24.4c6.7,1.7,13.7,1.8,20.5,3.1c9.6,1.8,19,4.7,28.4,7.6c18.5,5.7,37.2,11.3,56.8,10.1
				c3.8-0.2,3.9-6.2,0-6c-32.6,1.9-62-15.3-93.8-18.9c-6-0.7-12.6-1.3-17.8-4.6c-6.7-4.3-6.9-11.7-3.4-18.2
				c6.8-12.8,20.1-21.7,33-27.4c13-5.7,64.5-20.1,45.3-42.8c-6.4-7.6-17.3-12.1-26.7-14.4c-15.2-3.6-31.4-3.4-46.9-2.6
				c-14.5,0.7-28.9,3-43.4,3.4c-5.2,0.1-11,0.1-15.8-2.2c-5.5-2.6-6.8-7.6-6.4-13.3C-16.7,312.1-22.7,312.2-23,316L-23,316z"/>
		</g>
	</g>
	<g>
		<path class="st4" d="M25,506c73.6-22.4,141-73.1,210.1-108.2c17.7-9,35.4-18.4,53.5-26.3c6.8-3,14.5-4.2,21.4-7
			c10.2-4.3,20.3-12.9,31-15.4c38-8.9,75.4,8.5,109.7,21.9c39.9,15.6,82.8,20.4,122.3,37.4c20.4,8.8,46.4,13.2,65.3,24.8
			c15.8,9.7,11.2,16-2,24.6C612.5,473.2,585,488.6,559,500c-13.4,5.9-23.5,8-38.8,8c-36,0-72-2-108.1-2c-69.5,0-139,0.1-208.6,0
			c-32.9,0-65.8,2.5-98.6,3c-12.2,0.2-22.1-2.5-33.8-3.9c-15.3-1.8-32,0.9-47.5,0.9"/>
	</g>
	<g>
		<path class="st4" d="M610,456c-0.3,11.6,2,23.5,2,35.3c0,12.6-2.8,15,9.8,15c6.8,0,24.7,3.1,30.1-0.1c8.5-5.1,0.8-23-1-31.5
			c-2.3-11.5,2.5-28.2-9.2-33.4c-9.4-4.2-28-3.3-33.8,4.9c-4.1,5.7-5.4,18.6-3,24.9"/>
	</g>
	<g>
		<g>
			<path class="st4" d="M414.1,447.4c-2-6.3-3.4-13.7-4-20.3c-0.6-7.1-0.6-14.1-1.8-21.1c-1.1-6.3-1.6-12.6-1.9-19
				c-0.3-5.3-1.1-10.7,4.2-13.6c3.6-2,7.9-2.8,11.9-3.7c6.2-1.3,12.5-2.6,18.4-4.9c6.6-2.5,12.4-5.3,19.4-6.2
				c7.3-0.9,14.5-1.5,21.7-3.2c6.8-1.6,13.8-2.1,20.8-2.6c3.6-0.2,7.2-0.3,10.8-0.6c3.2-0.3,6.5-1.3,9.7-1
				c8.1,0.8,8.8,15.5,9.8,21.6c1.3,7.6,1.8,15.2,2,22.8c0.1,3.2,0.2,6.5,0.2,9.7c0.1,3.1,1.4,9.1,0,11.8c-1.8,3.6-11.2,4.7-14.5,5.3
				c-6.3,1.2-12.8,1.8-19.1,2.7c-15.9,2.3-32,2-47.9,4.4c-7.6,1.2-14.8,3-21.8,6c-7.6,3.3-14.8,7.4-22.5,10.3c-5.4,2-3,10.7,2.4,8.7
				c7.1-2.7,13.8-6.2,20.7-9.4c7.6-3.5,15.4-5.6,23.6-6.9c16.5-2.5,33.2-2.3,49.7-4.7c7.1-1,14.3-1.6,21.3-3.3
				c5.2-1.2,12.3-3.1,15.5-7.8c3.5-5.2,1.8-13.2,1.7-19.1c-0.2-8.7-0.5-17.4-1.5-26c-1.2-9.8-2.1-23.1-9.2-30.6
				c-4.1-4.4-9.4-4.9-15.1-4.2c-8,1-16,1.2-24.1,2c-8.4,0.7-16.4,3.1-24.8,4.1c-7.9,1-16,1.2-23.4,4.2c-7.2,2.9-14.1,5.4-21.7,7.2
				c-4.8,1.1-9.7,1.9-14.3,3.7c-5.3,2-10.4,5.3-12.1,11c-2.1,6.9-0.7,15.4-0.1,22.5c0.4,4.4,1.3,8.6,2,12.9c0.8,4.7,0.8,9.5,1,14.2
				c0.4,8.3,2,17.4,4.5,25.4C407.2,455.3,415.8,453,414.1,447.4L414.1,447.4z"/>
		</g>
	</g>
	<g>
		<path class="st4" d="M73.8,230.2c0,33.9,5.9,66.6,8.1,100.2c1.3,19.1-1,39,1.6,58c1.6,11.5,4.5,16.6,13.4,24.5
			c5.8,5.1,18.8,11,23.4,0.4c3.7-8.6-11.7-12.2-15.8-19.2c-4-6.8-3-15.5-3-23.5c0-33-2-65.8-2.2-98.7c-0.1-11.5,0.1-26.8-7.3-36.3
			c-5-6.4-19.8-6.9-20.2,2.9c1.6,0.7,3.5,2.5,5.1,2.9"/>
	</g>
	<g>
		<path class="st4" d="M229.5,393.4c-9.7-6.5-22-9.6-27.5-20.8c-7-14.1-3.9-33.9-4-49.2c0-20.7-2.3-42.1-4.3-62.7
			c-0.9-8.6-7.7-35.7-1.6-42.1c2.9-3,10.3-2.2,14.2-1.9c7,0.6,6.9-0.1,8.2,7.1c1.8,10.3,3,22,3,32.5c-0.1,30,3.8,59.4,3.7,89.1
			c0,4.2-1.3,11.1,0.4,15c3.7,8.5,16.5,11,22.1,17.9c10.4,13-10,22.9-18.7,11.2"/>
	</g>
	<g>
		<path class="st4" d="M96.7,335.8c12.8-22.3,43.8-22.1,68.4-23.2c7.2-0.3,15-0.5,22.2,0c6.7,0.4,10,3.3,15.9,5.2
			c8.9,2.8,7.8-2.3,7.6-10.5c-0.4-11.9-2.6-23.8-3.1-35.7c-0.5-10.9,1.9-32.6-7.3-41.7c-6.9-6.9-22.7-6.1-32-5.6
			c-12.4,0.6-24.1,3.2-36.7,3.7c-9.8,0.4-25.1,2.6-33.9,6.7c-19,8.9-13.7,40.1-11.1,55.6c1.2,6.8,5.6,44.2,19.1,38.1"/>
	</g>
	<g>
		<path class="st4" d="M106,401c16.4,14.9,33.8,25.6,52.2,36.8c9.1,5.5,17,12.1,27.6,13.5c20.8,2.8,49.5-9.8,68.9-17.7
			c10.9-4.4,21-10.5,32.2-14c9-2.8,25.5-4.4,13-14.2c-13.8-10.8-31.9-17.6-47.2-25c-8.3-4-17.1-9.7-26.2-10.2
			c-11.2-0.6-19.8,7.7-29.8,12.1c-18.1,8-36.5,10.3-55.8,11.2c-12.1,0.6-30.2-4-41.1,1c0.9,10,15.2,14,21.5,19.5"/>
	</g>
	<g>
		<path class="st4" d="M199.2,466c-6.8-16.9-17.8-24.5-34.2-31.4c-6.2-2.6-14.4-4.3-8.2-11.6c4.7-5.5,11.8-3.9,17.3-1.9
			c10.7,4,23.1,7.9,33.1,13.6c6.7,3.8,5.7,6.2,8.9,12.7"/>
	</g>
	<g>
		<path class="st4" d="M169.6,422.6c16.5,5.9,42.4,17,50.8,33.7"/>
	</g>
	<g>
		<path class="st4" d="M265.7,397.9c6,13.7,19.9,13.9,21.9,30.7"/>
	</g>
	<g>
		<path class="st4" d="M115.7,392.7c-12.8,0-22.1,6.1-24,20.3c-1.4,10.3,0.8,21.2,0.8,31.5c0,7.6-0.6,15.3,1.1,22.7
			c0.9,4-2.7,1.7,0.9,4c2.2,1.4,17.9,2.7,20.2,0.6c2.3-2.1-1.1-16.4-1.3-21.5c-0.4-9-0.8-18.9,1.1-27.7c1.6-7.3,8.8-20.7,3.6-25.7
			c-4.8-4.7-17-4-18.9,3.2"/>
	</g>
	<g>
		<linearGradient id="SVGID_2_" gradientUnits="userSpaceOnUse" x1="495.3603" y1="481.7128" x2="454.3722" y2="362.6937">
			<stop  offset="0" style="stop-color:#000000;stop-opacity:0"/>
			<stop  offset="0.1086" style="stop-color:#1A1206;stop-opacity:0.1298"/>
			<stop  offset="0.3409" style="stop-color:#5D4116;stop-opacity:0.4075"/>
			<stop  offset="0.6759" style="stop-color:#C68B2F;stop-opacity:0.808"/>
			<stop  offset="0.8366" style="stop-color:#FBB03B"/>
		</linearGradient>
		<path class="st5" d="M418,447c28.7,0.9,61.8-10.5,89.3-18c9.3-2.6,31-12.8,35.6,0.9c12.8,37.9-103.7,41.3-122.9,18.2"/>
	</g>
	<g>
		<g>
			<path d="M425.3,456.6c2.2-1.7,5.4-1.7,8-2.3c2.4-0.6,4.9-1.1,7.2-2.2c1.8-0.8,0.2-3.4-1.5-2.6c-5,2.3-11.4,1.5-15.8,5
				C421.7,455.6,423.8,457.7,425.3,456.6L425.3,456.6z"/>
		</g>
	</g>
	<g>
		<g>
			<path d="M449.6,451.4c4.2-1.4,8.4-3,12.8-3.8c1.9-0.3,1.1-3.2-0.8-2.9c-4.4,0.8-8.6,2.3-12.8,3.8
				C447,449.2,447.8,452.1,449.6,451.4L449.6,451.4z"/>
		</g>
	</g>
	<g>
		<g>
			<path d="M470,446.5c3.4-1.4,7.1-2.5,10.7-2.5c1.9,0,1.9-3,0-3c-4.3,0.1-8.4,1.3-12.3,3C466.7,444.7,468.2,447.3,470,446.5
				L470,446.5z"/>
		</g>
	</g>
	<g>
		<g>
			<path d="M493.1,441.7c1.9-0.6,3.9-1.1,5.8-1.8c1.8-0.7,1-3.6-0.8-2.9c-1.9,0.7-3.8,1.2-5.8,1.8
				C490.5,439.4,491.3,442.3,493.1,441.7L493.1,441.7z"/>
		</g>
	</g>
	<g>
		<g>
			<path d="M512.1,438.4c2.4-0.4,4.6-1.4,7-1.8c1.9-0.3,1.1-3.2-0.8-2.9c-2.4,0.4-4.6,1.4-7,1.8
				C509.4,435.8,510.3,438.7,512.1,438.4L512.1,438.4z"/>
		</g>
	</g>
	<g>
		<g>
			<path d="M527.9,435.4c2.5-0.7,5-1.2,7.5-1.8c1.9-0.4,1.1-3.3-0.8-2.9c-2.5,0.6-5,1.1-7.5,1.8C525.2,433.1,526,435.9,527.9,435.4
				L527.9,435.4z"/>
		</g>
	</g>
	<g>
		<g>
			<path d="M544.8,434c-3.8,0.3-6.7,2.6-10,4.2c-1.7,0.8-0.2,3.4,1.5,2.6c2.7-1.3,5.4-3.5,8.5-3.8
				C546.7,436.8,546.7,433.8,544.8,434L544.8,434z"/>
		</g>
	</g>
	<g>
		<g>
			<path d="M522.6,441.6c-1.6,0.3-3.1,1-4.8,1.2c-0.8,0.1-1.2,1.1-1,1.8c0.2,0.8,1,1.2,1.8,1c1.6-0.3,3.1-0.9,4.8-1.2
				C525.3,444.1,524.5,441.2,522.6,441.6L522.6,441.6z"/>
		</g>
	</g>
	<g>
		<g>
			<path d="M505.9,447.3c-3.8,0.9-7.7,1.2-11.5,1.8c-1.9,0.3-1.1,3.2,0.8,2.9c3.8-0.6,7.7-0.8,11.5-1.8
				C508.5,449.7,507.7,446.8,505.9,447.3L505.9,447.3z"/>
		</g>
	</g>
	<g>
		<g>
			<path d="M484.9,451.3c-4.7,1.5-9.7,2.2-14.5,3.2c-1.9,0.4-1.1,3.3,0.8,2.9c4.8-1.1,9.8-1.8,14.5-3.2
				C487.5,453.6,486.7,450.7,484.9,451.3L484.9,451.3z"/>
		</g>
	</g>
	<g>
		<g>
			<path d="M460.6,457.3c-3.9,1.2-7.9,2-11.6,3.7c-1.8,0.8-0.2,3.3,1.5,2.6c3.5-1.5,7.3-2.2,10.9-3.3
				C463.2,459.6,462.5,456.7,460.6,457.3L460.6,457.3z"/>
		</g>
	</g>
	<g>
		<g>
			<path d="M485.5,463c2.9-1.7,6.1-2.5,9.4-3.1c1.9-0.4,1.1-3.3-0.8-2.9c-3.5,0.7-7,1.5-10.1,3.4C482.3,461.4,483.8,464,485.5,463
				L485.5,463z"/>
		</g>
	</g>
	<g>
		<g>
			<path d="M510.8,457.3c2.7-1.4,5.5-2.6,8.4-3.6c1.8-0.6,1-3.5-0.8-2.9c-3.1,1.1-6.2,2.4-9.1,3.9
				C507.5,455.6,509,458.2,510.8,457.3L510.8,457.3z"/>
		</g>
	</g>
	<g>
		<g>
			<path class="st4" d="M-6.8,285.9c11.1,4.5,20.4,10.5,28.6,19.2c7.1,7.4,14.5,14.8,19.8,23.6c5.1,8.4,7.1,18,2.7,27.2
				c-3.4,7.1-9.3,12.6-15,17.9c-5.7,5.4-11.6,10.7-16.2,17.1c-5.8,8.1-8.1,18-9.8,27.6c-1.9,10.5-4.1,22.2-1.8,32.8
				c2.1,9.4,7.6,17.6,10.2,26.9c6.6,24.1-13.9,42.4-23.4,62.4c-1.6,3.5,3.5,6.5,5.2,3c8.6-18.2,25.3-33.9,25.6-55.2
				c0.1-10.5-4.5-19.5-8.4-28.9c-2.1-5-3.8-10.1-4-15.6c-0.2-7,1-14.3,2.1-21.1c1.8-11,4.2-22.2,11.3-31
				c5.4-6.7,12.2-12.1,18.3-18.2c12.5-12.5,18.9-27.8,10.3-44.6c-5.5-10.8-14.4-19.4-22.6-28.1c-8.9-9.4-19.3-15.9-31.3-20.7
				C-8.8,278.7-10.3,284.5-6.8,285.9L-6.8,285.9z"/>
		</g>
	</g>
	<g>
		<linearGradient id="SVGID_3_" gradientUnits="userSpaceOnUse" x1="220.2539" y1="550.4227" x2="240.7721" y2="334.5818">
			<stop  offset="0" style="stop-color:#000000;stop-opacity:0"/>
			<stop  offset="9.953807e-02" style="stop-color:#1A1206;stop-opacity:0.1041"/>
			<stop  offset="0.3127" style="stop-color:#5C4116;stop-opacity:0.3269"/>
			<stop  offset="0.6205" style="stop-color:#C68A2F;stop-opacity:0.6488"/>
			<stop  offset="0.6348" style="stop-color:#CB8E30;stop-opacity:0.6637"/>
			<stop  offset="0.8366" style="stop-color:#FBB03B"/>
		</linearGradient>
		<path class="st6" d="M160.1,461.6c-3.8,13.2,2.8,21.8,12.1,29.2c13.5,10.7,33.1,6.9,48.7,7.6c15.2,0.6,35.1,4.1,49.4-2.8
			c8.8-4.2,26.1-14.2,29.1-25.8c-3.7-2.9-10.6-1.8-15-1.7c-18,0.1-40.4,9.3-58.3,8.8c-15.6-0.5-26.5-12.8-42.1-13.4
			c-7.1-0.3-13.6-2.2-20.4-3.8c-5.9-1.4-8.1,0.5-5.1,7.3"/>
	</g>
	<g>
		<g>
			<path d="M161.3,482.5c4.4,0,8.4,0.7,12.6,2.3c1.8,0.7,2.6-2.2,0.8-2.9c-4.4-1.7-8.7-2.4-13.4-2.4
				C159.4,479.5,159.4,482.5,161.3,482.5L161.3,482.5z"/>
		</g>
	</g>
	<g>
		<g>
			<path d="M182.7,487.5c4,0,7.7,1.9,11.7,2c1.9,0.1,1.9-2.9,0-3c-4-0.1-7.6-2-11.7-2C180.7,484.5,180.7,487.5,182.7,487.5
				L182.7,487.5z"/>
		</g>
	</g>
	<g>
		<g>
			<path d="M204,490.2c4.4-0.1,9.1,0.3,13.3,1.9c1.8,0.7,2.6-2.2,0.8-2.9c-4.3-1.8-9.4-2.1-14.1-2.1
				C202.1,487.2,202.1,490.2,204,490.2L204,490.2z"/>
		</g>
	</g>
	<g>
		<g>
			<path d="M229.7,492.8c3.8-0.1,7.9-1,11.6,0.3c1.8,0.6,2.6-2.3,0.8-2.9c-4-1.4-8.3-0.4-12.4-0.4
				C227.7,489.9,227.7,492.9,229.7,492.8L229.7,492.8z"/>
		</g>
	</g>
	<g>
		<g>
			<path d="M252.7,492.5c3.7,0,7.3,0,11,0c1.9,0,1.9-3,0-3c-3.7,0-7.3,0-11,0C250.7,489.5,250.7,492.5,252.7,492.5L252.7,492.5z"/>
		</g>
	</g>
	<g>
		<g>
			<path d="M272,491.8c4.6,0,9.1,0.3,13.6,0.9c1.9,0.3,2.7-2.6,0.8-2.9c-4.8-0.7-9.6-1-14.4-1.1C270.1,488.8,270.1,491.8,272,491.8
				L272,491.8z"/>
		</g>
	</g>
	<g>
		<g>
			<path d="M181.7,495.2c3.7,0,7.3,0,11,0c1.9,0,1.9-3,0-3c-3.7,0-7.3,0-11,0C179.7,492.2,179.7,495.2,181.7,495.2L181.7,495.2z"/>
		</g>
	</g>
	<g>
		<g>
			<path d="M203,497.2c5,0,10,0,15,0c1.9,0,1.9-3,0-3c-5,0-10,0-15,0C201.1,494.2,201.1,497.2,203,497.2L203,497.2z"/>
		</g>
	</g>
	<g>
		<g>
			<path d="M231.3,499.5c5.2,0,10.5-0.4,15.6,0.9c1.9,0.5,2.7-2.4,0.8-2.9c-5.4-1.4-10.9-1.1-16.4-1.1
				C229.4,496.5,229.4,499.5,231.3,499.5L231.3,499.5z"/>
		</g>
	</g>
	<g>
		<g>
			<path d="M255.7,499.2c6.2,0,11.8,1.9,17.6,3.6c1.9,0.5,2.6-2.4,0.8-2.9c-6.1-1.8-12-3.7-18.4-3.7
				C253.7,496.2,253.7,499.2,255.7,499.2L255.7,499.2z"/>
		</g>
	</g>
</g>
<g id="ecran_gauch">
	<g>
		<path class="st7" d="M300.4,421c3.3,10.1,3.4,21.4,3,31.9c-0.2,5.1-0.6,10.1-0.6,15.2c-0.1,4.8-0.7,9.8-5,12.7
			c-2.7,1.8-6.7,1.3-9.8,1c-3.8-0.3-7.6-0.2-11.4-0.2c-9.2,0-18.5,0.3-27.6,2.1c-12,2.3-23.9,0.3-36.2-0.4
			c-9.9-0.5-19.8-1.8-29.6-3.2c-7.4-1-16.8-3.1-22.7-8c-8.4-7-5.2-23.7-3.3-33.7c1.7-8.7,2.4-30.1,9.4-35.5
			c7.7-5.9,27.1-2.6,35.7-2.6c15.1,0,29.6,2,44.7,2c12,0,23.9-0.1,35.9,0C293.6,402.4,297.2,411.2,300.4,421z"/>
	</g>
	<path class="st8" d="M168,408.2c1.4,3.4,2.5,7,3.1,10.6c1.1-3.7,2.1-7.5,3.2-11.2"/>
	<path class="st8" d="M178.1,408.3c0.8,4-2,7.9-1.9,11.9c-0.2-0.6,0-1.3,0.5-1.7c0.5-0.4,1.1-0.5,1.7-0.6c0.3,0,0.6-0.1,0.9,0.1
		c0.3,0.1,0.5,0.3,0.7,0.5c0.8,0.8,1.6,1.7,2.4,2.5"/>
	<path class="st8" d="M177.5,413.7c1.3-0.1,2.6,0,3.8,0.5"/>
	<line class="st8" x1="178" y1="408.5" x2="183" y2="408.5"/>
	<path class="st8" d="M186.7,407.8c0,4.2-0.3,8.3-0.7,12.5"/>
	<path class="st8" d="M186.4,408.5c0.6,2.1,1.1,4.2,2.2,6.1c0.8,1.4,1.8,2.6,2.2,4.1c0.3,0.8,0.4,1.7,0.3,2.6
		c0.7-4.4,1-8.9,0.8-13.4"/>
	<path class="st8" d="M203.3,408.2c-1.2,0-2.3,0-3.5,0c-0.3,0-0.7,0-1,0.1c-0.8,0.3-1.2,1.3-1.2,2.2c0,0.9,0.2,1.8-0.1,2.6
		c1.3-0.6,2.6-0.8,4-0.7c1.1,0.1,2.4,0.5,2.9,1.6c0.2,0.5,0.2,1,0.2,1.6c0,0.9,0,1.9,0,2.8c0,0.2,0,0.3-0.1,0.5
		c-0.2,0.4-0.6,0.5-1,0.7c-0.4,0.2-0.7,0.6-1.1,0.8c-0.9,0.6-2.1,0.7-3.2,0.3c-1-0.4-1.8-1.3-2.3-2.3"/>
	<path class="st8" d="M208.8,420.5c-0.3-0.1-0.3-0.6-0.1-0.8c0.2-0.2,0.6-0.2,0.9-0.1c0.1,0.1,0.3,0.2,0.3,0.3
		c0.1,0.2-0.2,0.5-0.4,0.5c-0.2,0-0.5,0-0.7-0.1c-0.3-0.3,0.1-0.8,0.5-0.7c0.4,0.1,0.6,0.4,0.8,0.8"/>
	<path class="st8" d="M212.3,410.9c1.7,0.1,2.9-1.4,3.9-2.7c-0.2,4.5-0.4,9-0.6,13.5"/>
	<path class="st8" d="M220.4,411.4c0.5-1.3,1.3-2.4,2.5-3c0.3-0.2,0.7-0.3,1.1-0.3c1.1,0,1.9,1,2.3,2c0.5,1.3,0.5,2.7,0.5,4.1
		c0,2.1-0.2,10.3-4.2,7.8C219.7,420,219.4,414.2,220.4,411.4z"/>
	<path class="st8" d="M225.9,408.9c-1.2,4.1-2.7,8.2-4.4,12.1"/>
	<path class="st8" d="M233.2,413.6c2.6,0.1,5.2,0.2,7.8,0.2"/>
	<path class="st8" d="M245.7,412.3c0.4-1.7,2.2-2.9,3.9-2.7c0.4,0,0.8,0.1,1.1,0.3c0.8,0.5,1.1,1.5,1.1,2.4c-0.1,2-1.5,3.7-2.8,5.2
		c-1.1,1.2-2.3,2.5-3.4,3.7c0.8-0.7,1.3-1.7,2.2-2.1c0.7-0.4,1.6-0.2,2.4-0.1c1.2,0.2,2.3,0.3,3.5,0.5"/>
	<path class="st8" d="M257.6,409.7c-0.3,3.2,0,6.4,0.9,9.4c0.2,0.6,0.4,1.3,0.9,1.8c0.4,0.5,1.2,0.8,1.8,0.6
		c0.5-0.2,0.9-0.7,1.2-1.2c1.3-2.5,0.8-5.5,0.3-8.3c-0.2-0.8-0.3-1.6-0.8-2.3c-0.7-0.9-1.9-1.2-2.9-0.8c-0.2,0.1-0.5,0.2-0.6,0.4
		c-0.2,0.3-0.2,0.6-0.2,0.9c0,1,0,2.1,0,3.1"/>
	<path class="st8" d="M267.9,410c0.5,3.7,0.9,7.3,1.4,11"/>
	<path class="st8" d="M269.4,421c-0.2-1.1-0.3-2.2,0-3.3c0.3-1.1,1.3-2,2.4-1.9c1.3,0.1,2.2,1.5,2.3,2.8c0.1,0.7,0.1,1.4,0.3,2
		s1,1.1,1.7,0.9"/>
	<path class="st8" d="M257.8,420.2c1-3.4,2.6-6.5,4.7-9.3"/>
	<path class="st8" d="M244.4,429.8c-0.4-0.8-0.1-1.8,0.5-2.3c0.4-0.3,0.8-0.4,1.3-0.6c1-0.3,2.1-0.6,3.1-0.9
		c0.4,4.5-1.6,9.2-5.1,12.1c-0.2-0.6,0.1-1.2,0.6-1.6c0.5-0.3,1.1-0.4,1.7-0.4c2.1,0,4.1,0.9,6,1.7c0.3,0.1,0.8,0.1,0.8-0.2"/>
	<path class="st8" d="M255.2,429.4c1.4-0.4,2.7-1.2,3.8-2.3c0,3.5,0,7,0,10.5"/>
	<path class="st8" d="M265.2,424.7c-0.1,4.6,0.1,9.2,0.4,13.8"/>
	<path class="st8" d="M265.5,438.5c0-1.5,0-3.1,0-4.6c0-0.6,0-1.2,0.2-1.7c0.2-0.5,0.6-0.9,1.1-1.2c0.7-0.4,1.5-0.7,2.3-0.8
		c0.9,1.9,1.5,4,1.7,6c0,0.2,0,0.3,0.1,0.5c0.1,0.1,0.2,0.2,0.3,0.2c0.7,0.3,1.5,0.4,2.3,0.3"/>
	<path class="st8" d="M243.3,449c-0.6-1.1,0.1-2.5,1-3.5c0.3-0.3,0.6-0.6,0.9-0.8c0.6-0.3,1.3-0.3,2-0.3c0.5,0,0.9,0,1.3,0.3
		c0.5,0.3,0.6,0.9,0.7,1.5c0.3,2.7-1,5.5-3.1,7.2c-0.8,0.7-1.8,1.3-2.9,1.2c1.3-0.8,3.1-0.7,4.3,0.1c0.8,0.5,1.6,1.4,2.6,1.3
		c0.7-0.1,1.3-0.7,1.7-1.2"/>
	<path class="st8" d="M253.6,446.7c0.1-0.3,0.5-0.5,0.8-0.5c1.2-0.3,2.3-0.6,3.5-0.9c0.2-0.1,0.6-0.1,0.7,0.1
		c0.1,0.1,0.1,0.3,0.1,0.4c0,0.5,0,0.9,0,1.4c0,0.9,0,1.9-0.5,2.7c-0.5,0.8-1.5,1.3-2.3,0.8c0.8-1,2.3-1,3.7-1c0.2,0,0.3,0,0.5,0.1
		c0.2,0.1,0.3,0.2,0.4,0.4c0.9,1.2,1.3,2.8,1.3,4.3c0,0.2,0,0.5-0.2,0.7c-0.2,0.2-0.4,0.3-0.7,0.4c-1.4,0.5-2.9,0.8-4.3,0.6
		c-1.5-0.3-2.8-1.2-3.3-2.6"/>
	<line class="st8" x1="265.5" y1="445" x2="265.5" y2="454"/>
	<path class="st8" d="M265.2,453.8c0-1,0-2.1,0-3.1c0-0.3,0-0.5,0.1-0.8c0.2-0.6,0.8-0.9,1.4-1.1c0.8-0.3,1.8-0.6,2.4,0
		c0.3,0.3,0.3,0.7,0.4,1.1c0.3,1.3,0.8,2.5,1.6,3.6c0.1,0.2,0.3,0.4,0.5,0.4c0.2,0.1,0.3,0.1,0.5,0.1c0.7,0,1.3,0,2-0.1"/>
	<path class="st8" d="M255.3,463.8c0,1.5,0,2.9,0,4.4c0,0.5,0,1,0.2,1.4c0.5,1.1,1.8,1.5,3,1.7"/>
	<path class="st8" d="M253.5,466.2c0.4-0.4,0.8-0.7,1.3-0.9c0.2-0.6,0.5-1.2,0.7-1.8"/>
	<path class="st8" d="M255,461.5c0.5,0.1,1.1,0,1.5-0.3"/>
	<path class="st8" d="M261.6,464.2c0.1,2.6,0.1,5.2-0.1,7.8"/>
	<path class="st8" d="M261.5,468.3c0-0.7,0-1.4,0-2.1c0.6-0.3,1.1-0.5,1.7-0.8c0.4-0.2,0.9-0.4,1.3-0.3c0.8,0.2,1,1.3,1,2.1
		c0,1.1,0,2.1,0,3.2c0,0.1,0,0.3,0.1,0.4c0.1,0.2,0.3,0.2,0.5,0.2c0.6,0.1,1.3,0.1,1.9,0.2"/>
	<path class="st8" d="M268.1,466.3c0.7-0.4,1.3-1.1,1.7-1.8"/>
	<path class="st8" d="M269.9,463.7c-0.1,1.7-0.2,3.4,0.2,5c0.2,0.6,0.4,1.1,0.8,1.6s1.1,0.7,1.6,0.5c1.1-0.3,1.4-1.6,1.5-2.7
		c0.1-1.4,0.2-2.9-0.1-4.3c0.2,1.4-0.1,2.7,0,4.1s0.6,2.9,1.9,3.4"/>
	<path class="st8" d="M277.6,466.6c0.9-1.1,1.8-2.2,2.7-3.3"/>
	<path class="st8" d="M280.4,463.4c-0.6,2.6,0,5.4,1.6,7.5"/>
	<path class="st8" d="M280.3,460.5c0.3,0,0.6-0.1,0.8-0.1"/>
	<path class="st8" d="M284.2,464.8c0.2,0,0.3,0,0.5,0c0.7-1.7,1.1-3.6,1.2-5.5c0.2,2.4-0.4,4.9,0.4,7.2c0.6,1.8,2.1,3.4,3.9,4"/>
	<line class="st8" x1="285" y1="462.5" x2="290" y2="462.5"/>
	<path class="st8" d="M239.1,467.1c0.8,0.2,1.7,0.1,2.3-0.3c0.7-0.5,1.2-1.3,1.9-1.9"/>
	<path class="st8" d="M242.8,464.9c0.1,2.8,0.4,5.7,0.6,8.5"/>
	<path class="st8" d="M243.4,468c-0.1-0.6-0.2-1.4,0.4-1.8c0.1-0.1,0.3-0.1,0.5-0.2c0.4-0.1,0.8-0.2,1.2-0.3
		c0.2-0.1,0.5-0.1,0.7-0.1c0.7,0.1,0.9,0.9,1,1.6c0.1,0.5,0.1,0.9,0.2,1.4c-0.2-0.7-0.3-1.3-0.2-2c0.1-0.7,0.6-1.3,1.3-1.4
		c0.5-0.1,1,0.2,1.3,0.5s0.6,0.8,0.7,1.3c0.2,0.7,0.4,1.4,0.5,2.1c0.1,0.9,0.1,1.7,0.4,2.5s1,1.6,1.8,1.6"/>
	<path class="st8" d="M237.7,411.1c1.4,0.7,2.6,1.6,3.6,2.8"/>
	<path class="st8" d="M241.2,413.9c-1.1,1.1-1.9,2.5-2.5,3.9"/>
	<path class="st9" d="M172.3,428c-0.4-0.7-1.2-0.8-2-0.9c-0.9,0-1.9,0-2.5,0.7c-0.5,0.5-0.6,1.3-0.4,2c0.2,0.7,0.8,1.2,1.4,1.5
		c0.4,0.2,0.9,0.4,1.4,0.6c1.4,0.7,2.3,2.4,2,3.9c0,0.1,0,0.2-0.1,0.3c-0.1,0.2-0.3,0.2-0.5,0.2c-1,0.2-2,0.3-3,0.2s-2-0.6-2.5-1.5"
		/>
	<path class="st9" d="M175,436.3c-0.2-2.9,0.5-5.9,2.1-8.3c0.3-0.4,0.6-0.8,1-0.9c0.7-0.1,1.2,0.5,1.5,1.1c0.6,1.2,0.6,2.5,0.6,3.8
		c0,1.5,0,3.1,0.1,4.6"/>
	<path class="st9" d="M175.2,431.4c1.6-0.1,3.2-0.1,4.8-0.2"/>
	<path class="st9" d="M183.5,427c-0.1,3.7-0.1,7.4-0.2,11.2"/>
	<path class="st9" d="M183.5,427c0.4,0,0.7,0.3,0.8,0.7c0.1,0.4,0.2,0.7,0.3,1.1c0.4,1.5,2,2.3,2.6,3.7"/>
	<path class="st9" d="M187.2,432.5c0.1-2,1.1-4,2.7-5.3"/>
	<line class="st9" x1="189.5" y1="427" x2="189.5" y2="438"/>
	<path class="st9" d="M198.9,427.6c-0.5-0.3-1.1-0.2-1.6,0.1c-0.5,0.3-0.8,0.8-1.1,1.3c-0.9,1.3-1.7,2.7-2.1,4.3s-0.4,3.3,0.4,4.7
		c0.3,0.6,0.8,1.2,1.5,1.5c0.3,0.2,0.7,0.2,1.1,0.3c1.1,0.1,2.3-0.1,3.1-0.8c0.9-0.7,1.3-1.9,1-3c-0.5-1.6-2.3-2.2-4-2.3
		c-0.3,0-0.7,0-1,0.1c-0.5,0.2-0.7,0.7-1,1.1c-0.7,1.3-1.4,2.8-0.8,4.2"/>
	<path class="st9" d="M208.2,430.3c1.3-0.7,2.5-1.6,3.5-2.7c0,4,0,8.1,0,12.1"/>
	<path class="st9" d="M216.3,428.2c0.3-0.4,0.7-0.8,1.1-1.1c0.7-0.5,1.7-0.8,2.5-0.5c0.9,0.3,1.5,1.1,1.8,1.9
		c0.3,0.9,0.3,1.8,0.3,2.7c0,2.4,0.6,10.6-4.2,8.4C214,437.8,214.2,431,216.3,428.2z"/>
	<path class="st9" d="M216.1,439.5c-0.2-2,0.7-4,1.6-5.8c1.2-2.3,2.3-4.6,3.5-6.8"/>
	<path class="st9" d="M205.5,438.6c-0.1-0.3,0-0.6,0-0.9c0.1-0.5,0.5-1,1-0.8c0.3,0.1,0.4,0.5,0.4,0.9c0,0.3-0.1,0.7,0,1
		c-0.4,0-0.9-0.2-1.2-0.4c-0.1-0.1-0.2-0.1-0.2-0.3c0-0.2,0.3-0.3,0.5-0.3c0.2,0,0.5,0.1,0.6-0.1c0,0.4,0,0.8,0,1.2"/>
	<path class="st9" d="M224.5,433.8c0.5-0.2,1.1,0.2,1.5,0.6c1.6,1.7,2.3,4.3,1.6,6.6c-0.3,1.1-0.8,2.1-1.4,3
		c-0.8,1.3-1.6,2.7-2.9,3.6c-0.9,0.6-1.9,0.8-2.9,1.1c-2.7,0.7-5.4,1.4-8.1,2.1c0.9-1,1.9-2,3-2.9"/>
	<path class="st9" d="M211.7,451.3c0.8-0.3,1.8-0.2,2.5,0.3c0.8,0.6,1.3,1.6,2.2,2.1"/>
	<path class="st9" d="M223.9,450.7c-0.1,3.7-2.1,7.2-4,10.4c-0.5,0.8-1,1.7-1.7,2.4c-1.2,1.2-2.9,1.9-4.5,2.1
		c-1.7,0.3-3.4,0.2-5.1,0.1c1.9-0.1,3.8-0.9,5.1-2.4"/>
	<path class="st9" d="M208.7,466.4c1.3,0.8,2.4,1.9,3.2,3.1"/>
	<path class="st8" d="M230.2,419.1c1.8,2.7,4,5.2,6.5,7.3c1.4,1.2,2.9,2.4,3.6,4.1c-1.4,0-2.8,0-4.2-0.1"/>
	<path class="st8" d="M241.1,430c-0.6-1.3-0.9-2.6-1.1-4"/>
	<path class="st8" d="M227.8,427.7c4.4,4.1,4.6,11.1,8.5,15.7c1,1.2,2.3,2.2,2.8,3.7c0-1.3,0-2.6-0.1-3.9"/>
	<path class="st8" d="M239.2,449.3c-1.5-0.4-2.9-1.2-4-2.3"/>
	<path class="st8" d="M237.8,464.5c-1-0.2-1.9-0.6-2.7-1.3"/>
	<path class="st8" d="M238.5,465c0-1.3,0-2.7,0-4"/>
	<path class="st8" d="M238,465c-0.8-2-2.5-3.4-3.5-5.3c-0.9-1.6-1.4-3.4-1.8-5.2c-0.3-1.5-0.7-2.9-1-4.4c-0.3-1.3-0.6-2.5-0.8-3.8
		c-0.4-2.2-0.7-4.3-0.6-6.5"/>
	<path class="st8" d="M237.3,464c0.5,0.5,1.1,1,1.6,1.5"/>
	<path class="st8" d="M238.9,446.1c0.1,0.8,0,1.6-0.2,2.4"/>
	<path class="st9" d="M178,449.7c0.9,0.1,1.8,0.1,2.6-0.4c0.4-0.3,0.7-0.7,1-1.1c0.4-0.5,0.8-1.1,1.2-1.6c0,3.3,0,6.6,0,10"/>
	<path class="st9" d="M186.7,448.9c0.8-0.2,1.6-0.4,2.2-0.8c0.7-0.4,1.3-1,1.5-1.8c-0.2,4.3,0,8.6,0.4,12.8"/>
	<path class="st9" d="M196.3,447.8c-0.1,2.9,0,5.9,0.1,8.8"/>
	<path class="st9" d="M196.5,457.2c0-1.4,0-2.8,0-4.1c0-0.2,0-0.3,0.1-0.5c0.1-0.1,0.3-0.2,0.5-0.2c0.3-0.1,0.6-0.1,0.8-0.2
		c0.3-0.1,0.6-0.1,0.8,0.1c0.1,0.1,0.1,0.4,0.1,0.6c0,0.8,0,1.6,0.4,2.3c0.4,0.7,1.3,1.1,2,0.8"/>
	<path class="st9" d="M172.2,466.8c0.7,0,1.5,0,2.2,0c0.5-0.9,1-1.8,1.2-2.7c0.1,1.8-0.2,3.6,0.8,5.4c0-1.2,0-2.4,0-3.5
		c0-0.3-0.1-0.6,0.1-0.9c0.4-0.6,1.4-0.2,1.7,0.5c0.3,0.7,0.2,1.4,0.4,2.1c-0.2-1.2,0-2.5,0.6-3.6c0.2-0.3,0.4-0.6,0.7-0.6
		c0.5,0,0.7,0.6,0.8,1.1c0.1,1.1,0.4,2.2,0.7,3.2c0.1,0.3,0.2,0.6,0.4,0.8c0.5,0.6,1.4,0.5,2.1,0.3"/>
	<path class="st9" d="M187.3,464.5c0,1.2,0,2.3,0,3.5c0,0.3,0,0.7,0.2,1c0.4,0.6,1.3,0.5,1.7,1"/>
	<path class="st9" d="M186.7,461.8c0.6,0.3,1,0.8,1.1,1.4"/>
	<path class="st9" d="M193.7,465c-1-0.3-2.1,0.6-2.2,1.6c-0.2,1,0.4,2.1,1.1,2.8c0.3,0.3,0.7,0.5,1.1,0.5c0.6-0.1,0.9-0.9,1-1.5"/>
	<path class="st9" d="M193.8,462.2c-0.2,2.4,0.9,4.6,1.9,6.8c0.5,1,1.2,2.1,2.3,1.9"/>
	<path class="st9" d="M201,465.2c-0.1,1,0,2.1,0.4,3c0.5,1,1.5,1.7,2.5,2.3"/>
	<path class="st9" d="M200.7,462c-0.3,0.6,0.1,1.4,0.8,1.5"/>
</g>
<g id="ecran_droite">
	<g>
		<path class="st7" d="M408,443c0.9-18.6-4.9-37.2-5-55.9c-0.1-12.2,1.2-12.8,14.2-18.1c22.9-9.3,49.2-12.4,73.7-15.5
			c6.3-0.8,31.1-7.9,37.5-3.5c9.4,6.4,8.5,35.2,9.4,45.2c0.8,8.2,5.4,23.4-0.6,28.7c-7.5,6.6-35.5,7.3-45.5,10
			c-15.1,4-30.7,7.5-46,10c-8.3,1.4-23.1,6.9-30,2.2c-7.3-5-6.3-17.2-8.6-24.2"/>
	</g>
	<path class="st8" d="M453,393.8c-0.1,3.3-0.1,6.7,0.1,10"/>
	<path class="st8" d="M461.2,392.5c0,2.9,0,5.8,0,8.7c-0.1-0.6,0.6-1.2,1.2-1.3s1.3,0.2,1.9,0.4c0.6,0.2,1.4,0.2,1.9-0.3
		c0.2-0.2,0.5-0.6,0.8-0.5"/>
	<path class="st8" d="M461,395.2c1.9,0.3,4,0,5.7-1"/>
	<path class="st8" d="M459,393.2c1.7,0.2,3.3,0.3,5,0c1.6-0.3,3.2-1.2,4-2.7"/>
	<path class="st8" d="M463.3,392.5c-0.1-1.3-0.1-2.7,0.2-4"/>
	<path class="st8" d="M477.1,391c-1.1-0.5-2.3-0.7-3.5-0.7c-0.7,0-1.4,0.1-2,0.5c-0.6,0.4-1,1.1-0.9,1.8c0.2,1.2,1.7,1.7,3,1.6
		s2.7-0.2,3.5,0.7c1,1.1,0.4,2.9,0.5,4.4c-2.1,1.4-5.2,0.4-6.2-1.9"/>
	<path class="st8" d="M481.5,399c-0.2-2.8,0-5.6,0.5-8.4c0.2-1,0.9-2.4,1.9-2.1c0.6,1.8,1.2,3.7,1.8,5.5c0.4,1.3,0.8,2.6,1,4"/>
	<path class="st8" d="M485,392.5c-1.3,0-2.6,0.2-3.8,0.8"/>
	<path class="st8" d="M493.5,388.3c-1.5,0-3.1-0.2-4.6-0.5c-0.8,0.5-0.5,1.7,0.2,2.3c0.7,0.6,1.7,0.7,2.5,1c2.1,0.8,3.7,3.1,3.7,5.3
		c-1-0.3-2,0.5-3,0.3c-1.4-0.2-1.9-1.9-2.2-3.3"/>
	<path class="st8" d="M455.3,407.9c3.8,0.2,7.6,0.3,11.2-0.5c1.8-0.4,3.5-1,5.2-1.6c7.8-2.6,15.9-3.9,24.1-3.9"/>
	<path class="st8" d="M452.6,394.4c1.1-0.7,2.7-0.3,3.4,0.9c0.4,0.7,0.4,1.4,0.4,2.2c0,0.7,0,1.5-0.4,2.2s-1.4,1-1.9,0.5
		c-0.3-0.6-0.7-1.1-1.1-1.7c1.9,1.6,3.8,3.2,5.8,4.6"/>
	<path class="st8" d="M498.4,383.7c0.7,2.7,0.9,5.5,0.5,8.3"/>
	<path class="st8" d="M498.9,395.5c-0.1-0.2,0.4-0.1,0.4,0.1c0.4,1,0.1,2.1-0.6,2.9C498.7,397.5,498.7,396.5,498.9,395.5
		c0.5,0.8,0.5,1.9,0,2.7"/>
	<g>
		<g>
			<path class="st10" d="M531,403c-4.4,6.6-7.7,13.8-10.3,21.4c-0.6,1.8,2.3,2.6,2.9,0.8c2.5-7.3,5.7-14.2,10-20.6
				C534.6,402.9,532,401.4,531,403L531,403z"/>
		</g>
	</g>
	<g>
		<g>
			<path class="st10" d="M517,408.8c2.9,0.3,6,3.9,8.2,5.6c2.7,2,5.9,3.7,8.3,6c1.4,1.3,3.5-0.8,2.1-2.1c-3-2.8-6.9-4.8-10.1-7.3
				c-2.7-2.1-5.1-4.7-8.6-5.1C515.1,405.5,515.1,408.5,517,408.8L517,408.8z"/>
		</g>
	</g>
	<path class="st8" d="M529.8,408.6c0.2-0.3,0.1-0.7-0.2-0.9s-0.7-0.3-1-0.3c-0.7-0.1-1.3-0.1-2-0.2c-0.5,0-1-0.1-1.4,0
		c-0.8,0.2-1.4,0.9-1.7,1.6c-0.3,0.8-0.3,1.6-0.3,2.4c0,1,0.1,2,0.4,2.9c0.6,2.7,2.4,5.1,4.7,6.6c0.2,0.1,0.3,0.2,0.5,0.2
		c0.3,0,0.6-0.3,0.8-0.6c1.1-1.7,1.3-3.9,0.5-5.8"/>
	<path class="st8" d="M527,410.7c-0.5,0-1,0.3-1.5,0.5c-2.3,1.2-4.6,2.5-6.9,3.7"/>
	<path class="st8" d="M526.7,414c-2.5,1.3-4.9,2.8-7.2,4.5"/>
</g>
<g id="ridD3">
	<g>
		<g>
			<g class="st11">
				<path class="st10" d="M502.2,183.7c-2.4,2.3-1.3,9.6,1.5,11c3,1.6,3.1-3.5,2.8-5.2c-0.4-2.1-1.6-5.1-4-5.5
					C502.3,184,502.2,183.9,502.2,183.7z"/>
			</g>
			<g class="st11">
				<path class="st10" d="M489.8,236c2.3-1.3-0.9-4.2-2.2-4.8c-0.8-0.4-1.7-0.7-2.6-0.8v5.3C486.5,235.8,488.6,236.7,489.8,236z"/>
			</g>
			<g class="st11">
				<path class="st10" d="M490.9,25.6c-1.8-0.1-3.9,0.1-5.9,0.6V39c2.1-0.1,4.1-0.7,5.9-1.9C494.9,34.2,498,26.1,490.9,25.6z"/>
			</g>
			<g class="st11">
				<path class="st10" d="M535,212.4v-6.3c-0.7,0.7-1.2,1.8-1.3,2.9C533.6,210.7,534.1,211.7,535,212.4z"/>
			</g>
			<g class="st11">
				<path class="st10" d="M533,209c0.1-1.7,0.9-3.1,2-4V103.7c-2,3.5-3.9,7.2-5.7,10.6c-0.9,1.7-3.5,0.2-2.6-1.5
					c2.6-4.8,5.2-10,8.3-14.6v-0.6c-3.3-2.6-7.1-4.3-11.5-4c-1.9,0.1-1.9-2.9,0-3c4.4-0.3,8.2,1.1,11.5,3.3V0h0h-50v22.9
					c4.8-1.2,9.4-1,12,2.3c3.8,4.7-0.1,11.2-4.1,14.2c-2.4,1.8-5.1,2.5-7.9,2.6v6.1c5.2,4.6,10.6,9,16.3,13c1.6,1.1,0.1,3.7-1.5,2.6
					c-5.2-3.6-10-7.5-14.8-11.6V89c0.1,0,0.2,0.1,0.2,0.1c1.6,0.6,1.1,3-0.2,3v94.4c0.1,0.3,0.3,0.6,0.4,0.9
					c0.6,1.2,1.4,3.7,2.5,4.4c0.6,0.4,0.2,0.3,0.8-0.2c0.5-0.3,0.8-1,1.1-1.4c0.5-0.8,1-1.6,1.4-2.4c0.8-1.6,1.5-3.3,2.3-5
					c0.2-0.4,0.8-0.1,0.6,0.4c-1.5,3.4-2.9,7.5-5.9,9.8c-0.2,0.1-0.4,0-0.5-0.1c-1-1.4-1.9-2.9-2.7-4.5v41.3
					c2.8,0.2,5.8,1.9,6.2,4.7c0.4,3.4-3.3,2.2-5.6,2.1c2.5,2,4.8,4.4,4.6,7.8c0,0.5-0.8,0.5-0.8,0c0.2-3.2-2.1-5.5-4.5-7.4V289
					c14.5,4.6,27.2,8.1,45.4,8.3c1.5,0,3.1,0,4.6,0v-84C533.7,212.5,532.8,211.2,533,209z M524.8,204.7c0.4-0.2,0.8,0.5,0.4,0.6
					c-2.3,1-5,1.6-6.6,3.6c-0.3,0.4-0.8-0.2-0.5-0.5C519.7,206.3,522.4,205.7,524.8,204.7z M523.6,210.9c-1.6,1.3-3.6,2-5.5,2.8
					c-0.5,0.2-0.7-0.6-0.2-0.7c1.8-0.7,3.7-1.3,5.2-2.6C523.4,210.1,523.9,210.6,523.6,210.9z M523.7,194c0.5,0.2,0.3,0.9-0.2,0.7
					c-4.4-1.5-0.6-7.6-3.1-10.3c-0.1,3.3,1.7,9.9-2.7,10.4c-5.9,0.6-4.4-8.6-3.4-11.9c0.1-0.5,0.9-0.3,0.7,0.2
					c-0.6,2.1-1,4.3-0.9,6.4c0.1,2.2,1.8,6.3,4.6,4c2.5-2,0.6-7.3,1-10c0-0.2,0.4-0.4,0.6-0.2C523.7,185.7,520,192.7,523.7,194z
					 M508.3,52.5c0-5.2,0.7-10.4,0.8-15.5c0-1.9,3-1.9,3,0c6.6,0,13.4,0,19.9,0c1.9,0,1.9,3,0,3c-5.8,0-16.6,0-20,0
					c-0.2,4.2-0.7,8.5-0.7,12.7c4.8,1.4,9.7,2.5,14.1,5c1.7,0.9,0.2,3.5-1.5,2.6c-3.9-2.2-8.2-3.2-12.5-4.4c0.1,1.6,0.3,3.2,0.6,4.7
					c1.7,7.8,8.8,12.2,14.3,17.4c1.4,1.3-0.7,3.4-2.1,2.1c-5.5-5.2-12.5-9.6-14.7-17.3c-0.7-2.6-1.1-5.3-1.2-8
					C507.6,54.2,507.7,53.1,508.3,52.5z M496.1,74.7c4.9,3.8,10.1,7.3,14.9,11.2c1.5,1.2-0.7,3.4-2.1,2.1
					c-4.6-3.8-9.5-7.1-14.2-10.8C493.1,76.1,494.6,73.5,496.1,74.7z M504.3,195.8c-2.5-0.3-3.5-4.1-3.8-6c-0.4-2.3-0.5-5.7,1.9-7.1
					c0.4-0.2,0.8,0.4,0.4,0.6c0,0,0,0,0,0C507.3,184.3,509.8,196.5,504.3,195.8z M499.4,92.6c0.6-1.8,3.5-1,2.9,0.8
					c-2.6,7.9-4.8,26,6.5,28.2c1.9,0.4,1.1,3.3-0.8,2.9C494.8,121.9,496.3,102.1,499.4,92.6z M504.9,235.2c-2.1,3-1.8,7.5-5,9.8
					c-0.1,0.1-0.4,0.1-0.5-0.1c-2.1-2.4-2.8-6.2-2.6-9.2c0-0.5,0.8-0.5,0.8,0c-0.1,1.8,0.1,3.5,0.6,5.2c0.2,0.8,0.5,1.9,1,2.5
					c0.7,0.8,1.1,0.2,1.6-0.6c1.6-2.5,1.6-5.6,3.4-8.1C504.5,234.4,505.2,234.8,504.9,235.2z M505.4,216c-0.4,0.2-0.8-0.4-0.4-0.6
					c1.4-0.7,2.8-1.4,4-2.4c2.2-2-0.2-3.2-1.8-4.3c-1.3-0.9-3-3-2.6-4.8c0.8-3.5,7.5-2.1,9.7-1.5c0.5,0.1,0.3,0.8-0.2,0.7
					c-2.1-0.6-4.7-1-6.9-0.5c-1.8,0.5-2.2,1.6-1.4,3.2c0.8,1.7,2.2,2.2,3.6,3.3C513.2,212,508.1,214.7,505.4,216z M516.7,248.3
					c-2.1-1.7-5.3-2.5-5.7-5.5c-0.4-2.7,0.5-6,1.3-8.5c0.1-0.5,0.9-0.3,0.7,0.2c-0.5,1.7-1,3.5-1.2,5.3c1.5-1.1,3.3-1.7,5.2-1.8
					c0.5,0,0.5,0.7,0,0.8c-1.9,0.1-3.7,0.7-5.1,1.9c-0.1,0-0.1,0.1-0.2,0.1c0,0.4,0,0.8,0,1.1c0.1,3.3,3.4,4.1,5.5,5.9
					C517.6,248,517,248.6,516.7,248.3z M522.6,234c-2.4-0.1-7.2-0.4-8.4,2.1c-0.2,0.4-0.9,0.1-0.6-0.4c1.4-2.9,6.4-2.6,9-2.5
					C523.1,233.3,523.1,234.1,522.6,234z M523.5,217c-2.3-0.7-5.5-0.6-7.1-2.6c-1.8-2.2-0.2-5.5-0.9-8c-0.1-0.5,0.6-0.7,0.7-0.2
					c0.6,2.3-0.7,5.2,0.5,7.3c1.2,2.2,4.7,2.1,6.9,2.8C524.2,216.4,524,217.2,523.5,217z M532,246.3c-2.7,1.6-5.1,1.3-7.9,0
					c-0.4-0.2-0.1-0.8,0.4-0.6c1.6,0.7,4.1,1.7,5.8,0.6c1.3-0.8,0.7-1.4-0.2-2.4c-0.9-1.1-2.1-2-3-3.1c-1.8-2.3-1.3-4.4,0.6-6.5
					c0.1-0.1,0.2-0.1,0.4-0.1c1.6,0.5,2.6,1.5,2.9,3.2c0.1,0.5-0.6,0.7-0.7,0.2c-0.8-3.7-4.1-1.8-3.6,0.9c0.2,1.2,1.2,2.2,2,3
					c1.4,1.4,2.8,2.6,3.5,4.5C532.3,246,532.2,246.2,532,246.3z M531.1,194.7c-0.5,0.1-0.7-0.6-0.2-0.7c3.2-0.9,0.9-3-0.4-4.4
					c-0.8-0.9-1.6-1.8-2.2-2.8c-1.2-2.1-1.1-4.1,0.4-6c0.1-0.1,0.3-0.1,0.5-0.1c1.4,0.8,2.8,1.5,4.3,2.2c0.4,0.2,0.1,0.9-0.4,0.6
					c-0.7-0.3-1.5-0.7-2.2-1.1c-1.2-0.6-1.1-1-2,0.3c-1.2,1.7-0.3,3.2,0.9,4.7c0.9,1.2,2,2.1,2.9,3.3
					C534.2,192.9,533.3,194.1,531.1,194.7z"/>
			</g>
		</g>
		<g>
			<g>
				<path class="st10" d="M534.1,143.5c0,1.2,0.1,2.3,0.1,3.5c0.3,0,0.5,0,0.7,0v-3.7C534.7,143.3,534.4,143.3,534.1,143.5z"/>
			</g>
			<g>
				<path class="st10" d="M534.3,148.4c0,0.9,0.1,1.9,0,2.8c0,0.5-0.8,0.5-0.8,0c0-1,0-2.1-0.1-3.1c-0.1-0.1-0.2-0.1-0.3-0.2
					c-0.2-0.2-0.1-0.5,0.1-0.6c0.1,0,0.1-0.1,0.2-0.1c0-1.1-0.1-2.1-0.1-3.2c-0.3,0.3-0.8-0.2-0.5-0.5c0.2-0.2,0.3-0.3,0.5-0.4
					c0-0.1,0-0.2,0-0.3c0-0.5,0.7-0.5,0.7-0.1c0.3-0.1,0.6-0.1,0.9-0.1v-5.1c-9.6-0.8-19.1-1.8-28.7-2.1c-0.1,4.5-1.6,9.9-0.8,14.3
					c0.9,4.6,2.5,3.2,7.1,4.3c7.4,1.7,14.8,3,22.3,4.1v-9.6C534.8,148.5,534.6,148.5,534.3,148.4z M517.2,147.8
					c-1.2,0.8-2.8,1.6-4.3,1.3c-1.4-0.3-2-1.6-2.1-2.9c-0.1-1.5,0.2-3.5,1.4-4.5c1.2-1,2.8-0.7,4.1,0c0.4,0.2,0,0.9-0.4,0.6
					c-1.2-0.6-2.6-0.9-3.5,0.2c-0.8,1-1,2.5-0.8,3.8c0.4,3.1,3.4,2.1,5.2,0.9C517.2,146.9,517.6,147.6,517.2,147.8z M523.4,150.7
					c-0.9-0.3-3.2-0.5-3.5-1.7c-0.2-0.9,0.1-2.3,0.2-3.3c0.1-1.3,0.2-2.6,0.2-3.9c0-0.5,0.8-0.5,0.8,0c0,1.7-0.1,3.5-0.3,5.2
					c-0.1,0.9-0.4,1.6,0.5,2.2c0.7,0.4,1.6,0.5,2.4,0.8C524.1,150.1,523.9,150.8,523.4,150.7z M530.2,151.4
					c-1.3-0.5-3.1-0.9-3.9-2.1c-1-1.4-0.1-4.2,0.1-5.9c-0.2-0.1-0.3-0.5,0-0.6c0,0,0.1,0,0.1,0c0.1-0.2,0.4-0.3,0.6-0.2
					c0.8-0.2,1.8-0.1,2.6-0.1c0.5,0,0.5,0.8,0,0.8c-0.8,0-1.7-0.2-2.5,0c0,0.6-0.1,1.2-0.3,1.9c0.9,0.4,1.8,0.5,2.7,0.7
					c0.5,0.1,0.3,0.8-0.2,0.7c-0.9-0.2-1.8-0.4-2.6-0.7c-0.1,0.9-0.2,1.7,0,2.5c0.3,1.5,2.4,1.9,3.7,2.4
					C530.8,150.8,530.6,151.5,530.2,151.4z"/>
			</g>
		</g>
	</g>
</g>
<g id="ridD4">
	<g>
		<g class="st11">
			<path class="st10" d="M485,42c-2.5,0.1-5.1-0.3-7.6-0.8c2.5,2.3,5.1,4.5,7.6,6.8V42z"/>
		</g>
		<g class="st11">
			<path class="st10" d="M472.3,37.2c0.1,0,0.2,0,0.4,0c3.9,0.7,8.3,2.1,12.3,1.8V26.2c-4.6,1.1-9.4,3.6-12.4,6.4
				C472.4,34.1,472.3,35.6,472.3,37.2z"/>
		</g>
		<g class="st11">
			<path class="st10" d="M484.6,236.5c-0.2-0.2-0.3-0.6,0.1-0.7c0.1,0,0.2,0,0.3,0v-5.3c-0.8-0.1-1.5,0-2.2,0.2
				c-0.2,0.1-0.4-0.1-0.4-0.2c0,0,0,0,0,0c-2.1,3.3-0.8,7.5-1.3,11.1c-0.1,0.5-0.8,0.5-0.8,0c0.5-3.8-0.8-8.1,1.4-11.5
				c0.2-0.3,0.5-0.2,0.7,0c0-0.1,0.1-0.2,0.2-0.2c0.7-0.2,1.6-0.3,2.4-0.3v-41.7c-1-1.9-1.7-3.9-2-6c-0.1-0.5,0.7-0.7,0.7-0.2
				c0.2,1.4,0.7,2.8,1.3,4.2V92c-0.1,0-0.3,0-0.4-0.1c-4.3-1.7-10.5-7.5-15.2-6.1c-10,3,5.2,16.8,8,19.8c3.1,3.4,5.3,8.1,3.8,12.8
				c-1.5,4.6-6.7,6.4-9.3,10.3c-1.1,1.6-3.6,0.1-2.6-1.5c1.7-2.5,3.8-4.2,6.1-6.1c4.1-3.4,4-8.4,0.7-12.5c-4.1-5-9.7-8.5-12-14.9
				c-1.6-4.6,0.3-10.4,5.7-11c5.6-0.6,10.4,4,15.3,6.1v-37c-4.2-3.6-8.4-7.4-12.6-11.1c0.4,6.5,1.8,13,1.7,19.5c0,1.9-3,1.9-3,0
				c0.2-11.1-3.7-22.1-0.6-33.1c0.5-1.9,3.4-1.1,2.9,0.8c0,0,0,0.1,0,0.1c3.1-2.1,7.4-4.2,11.6-5.2V0h0h-51v25.6
				c2.1-0.7,4.4-1.2,6.7-1.4c1.9-0.2,1.9,2.8,0,3c-2.3,0.2-4.5,0.8-6.7,1.5v88.7c1,0.2,2,0.4,2.9,0.6c1.9,0.5,1.1,3.4-0.8,2.9
				c-0.7-0.2-1.4-0.4-2.1-0.5V182c1.4-0.7,2.9-1.4,4.1-2.3c0.4-0.3,0.8,0.4,0.4,0.6c-1.4,1.1-2.9,1.8-4.5,2.5v5.4
				c1.2-0.5,2.3-1,3.5-1.5c0.4-0.2,0.8,0.4,0.4,0.6c-1.3,0.6-2.6,1.2-3.9,1.7v33.1c1.1-0.1,2.2-0.2,3.2-0.5c0.5-0.1,0.7,0.6,0.2,0.7
				c-1.1,0.3-2.3,0.4-3.4,0.5v5.4c0.6,0,1.3,0,2,0c0,0,0,0.8,0,0.8c-0.7,0-1.4,0-2,0v5.1c1.1,0.4,2.1,0.9,2.9,1.6
				c0.4,0.3-0.2,0.8-0.5,0.5c-0.7-0.6-1.5-1-2.4-1.3v46.9h0c13.2-0.3,26.5-0.7,38.6,3.2c4.4,1.4,8.5,2.7,12.4,4c0,0,0,0,0,0v-52.2
				C484.9,236.7,484.7,236.6,484.6,236.5z M466.2,148.7c0.3-0.3,0.9,0.2,0.5,0.5c-1.8,1.8-4.1,2.7-6.6,3c0.4,1.8,0.9,3.6,1.5,5.3
				c0.4,1.1,1.1,3.7,2.3,4.2c1.7,0.8,2.8-3.3,3.1-4.4c0.2-0.5,0.9-0.3,0.7,0.2c-0.5,1.4-1.3,4.6-3.1,5c-1.4,0.3-2.3-1.3-2.8-2.3
				c-1.3-2.5-1.9-5.2-2.5-7.9c-0.1,0-0.3,0-0.4,0c-0.5,0-0.5-0.7,0-0.8c0.1,0,0.2,0,0.2,0c-0.3-1.2-0.7-2.4-1.1-3.5
				c-0.2-0.4,0.5-0.6,0.7-0.2c0.5,1.2,0.8,2.4,1.1,3.7C462.3,151.3,464.5,150.4,466.2,148.7z M456.8,57.7c0,1.9-3,1.9-3,0
				c-0.1-11-1.8-22.5,2.1-33.1c0.7-1.8,3.6-1,2.9,0.8C455,35.7,456.7,46.9,456.8,57.7z M454,13c3.3,0,6.7,0,10,0c1.9,0,1.9,3,0,3
				c-3.3,0-6.7,0-10,0C452.1,16,452.1,13,454,13z M453.1,152.4c-2.5,0.6-5.1,0.3-7.4,1.5c-0.4,0.2-0.8-0.4-0.4-0.6
				c2.4-1.2,5-0.9,7.6-1.5C453.4,151.5,453.6,152.2,453.1,152.4z M444.2,146.7c1.9-2.2,4.7-3.2,7.5-2.1c0.4,0.2,0.1,0.8-0.4,0.6
				c-2.2-0.9-4.3-0.2-6,1.3c-0.7,5.4-2,10.7,1,15.6c0.3,0.4-0.4,0.8-0.6,0.4c-2.9-4.9-1.9-10-1.2-15.3
				C444.2,147.4,444,147,444.2,146.7z M443.5,170.6c8.2,0,16.3-0.9,24.5-1c0.5,0,0.5,0.7,0,0.8c-8.2,0.1-16.3,1-24.5,1
				C443,171.4,443,170.6,443.5,170.6z M452.4,225c-1.5,0.3-3,0.3-4.4,0.5c0,0.1,0,0.2,0,0.2c-0.5,0-0.9,0-1.3,0c0,0-0.1,0-0.1,0
				c-0.6,0-1.1-0.1-1.6-0.2c-0.1,0.3-0.7,0.2-0.7-0.2c0,0,0,0,0-0.1c-0.1,0-0.2-0.1-0.3-0.1c0,1.9,0,3.9,0,5.8h-1c0-3,0-9,0-9h1
				c0,0.8,0,1.5,0,2.3c0.1,0.1,0.2,0.1,0.3,0.2c0.1-3.7,3.1-7.4,7.2-5.8c0.4,0.2,0.3,0.9-0.2,0.7c-3.7-1.4-6.2,2-6.2,5.4
				c0.5,0.1,1,0.2,1.7,0.2c1.8-0.3,3.7-0.3,5.5-0.6C452.7,224.2,452.9,224.9,452.4,225z M444.8,196.3c-0.2-0.1-0.2-0.3-0.1-0.5
				c1.5-3,4.1-4.5,7-6c0.2-0.1,0.5-0.3,0.9-0.5c-3.3-1.1-6.7-1.7-9.3,0c-0.4,0.3-0.8-0.4-0.4-0.6c3-2,6.8-1.2,10.5,0.1
				c2.5-1.6,6.2-4.3,3.4-5.8c-1.9-1-5.2-0.5-7.3-0.4c-1.8,0.1-3.6,0.4-5.5,0.4c-0.5,0-0.5-0.7,0-0.8c3,0,6-0.6,9-0.5
				c1.5,0,4.7-0.1,5.4,1.8c0.8,2.2-2.2,4.3-4.2,5.6c2.3,0.8,4.6,1.8,6.5,2.2c0.5,0.1,0.3,0.8-0.2,0.7c-2-0.4-4.5-1.5-7.1-2.4
				c-0.1,0.1-0.3,0.2-0.4,0.2c-2,1.2-6.1,2.6-6.9,5c-0.4,1.1,0.1,1.3,1.4,1.7c0.6,0.2,1.2,0.3,1.8,0.5c1.8,0.4,3.5,0.7,5.3,0.9
				c0.5,0.1,0.5,0.8,0,0.8C451.3,198.3,447.9,197.8,444.8,196.3z M465.1,221.7c-2.5,0.8-5.3,0.3-7.6,1.5c-1.4,2.3-1.8,5-1.9,7.8
				c0.8-0.8,1.7-1.5,2.8-1.9c1.6-1.1,3.2-2.1,5.1-2.5c0.5-0.1,0.7,0.6,0.2,0.7c-1.6,0.3-2.9,1.1-4.2,1.9c0,0.2,0,0.3-0.3,0.4
				c-0.2,0-0.3,0.1-0.5,0.1c-0.1,0.1-0.2,0.1-0.2,0.2c-0.1,0.1-0.2,0.1-0.3,0c-1,0.4-1.9,1.2-2.6,2.2c0,0,0,0-0.1,0.1
				c0,1.6,0.1,3.3,0.1,4.8c0,0.5-0.7,0.5-0.8,0c-0.1-4.2-0.5-9.4,1.5-13.4c-0.2-0.1-0.2-0.5,0-0.6c0.2-0.1,0.4-0.3,0.5-0.4
				c0.1-0.2,0.2-0.3,0.3-0.5c0.2-0.3,0.5-0.2,0.7,0c2.2-0.8,4.6-0.5,6.9-1.2C465.4,220.8,465.6,221.6,465.1,221.7z M474.4,231.7
				c-1.5,0.6-3.4,0.9-4.5,2.2c-0.1,0.2-0.3,0.1-0.5,0c-0.1,0.2-0.3,0.4-0.4,0.5c-0.3,0.3-0.7,0.4-1.1,0.4c0.1,1,0.6,1.8,1.8,2.3
				c1.2,0.5,2.7,0.4,3.9,0.4c0.5,0,0.5,0.8,0,0.8c-2.3-0.1-5.7,0-6.4-2.8c-0.7-2.7,0.1-5.7,0.3-8.5c-0.5-0.1-0.5-0.5,0.1-0.7
				c0.1-0.2,0.5-0.2,0.6-0.1c1.9-0.1,3.7-1.1,5.6-1.6c0.5-0.1,0.6,0.6,0.2,0.7c-0.4,0.1-0.9,0.2-1.3,0.4c0.1,0.2,0,0.4-0.2,0.5
				c-1,0.2-2,0.5-2.9,1c-0.3,0.1-0.6-0.1-0.6-0.4c-0.2,0.1-0.4,0.1-0.6,0.2c-0.1,2-0.4,4-0.5,6c0,0.4,0,0.7,0,1.1
				c0.4,0,0.7-0.2,0.9-0.6c0.3-0.4,0.6-0.8,1-1.1c0.2-0.1,0.4,0,0.5,0.1c1.2-0.8,2.7-1.1,4-1.6C474.7,230.8,474.9,231.5,474.4,231.7
				z M476.3,188.7c-2.7,0.3-5.3,0.3-8,0.3c-0.5,0-0.5-0.7,0-0.8c2.7,0,5.3,0,8-0.3C476.8,187.9,476.8,188.7,476.3,188.7z"/>
		</g>
	</g>
</g>
<g id="ridD5">
	<g>
		<g class="st11">
			<path class="st10" d="M397.3,221.3c-0.1,0.2-0.2,0.3-0.3,0.5c2.2,0.1,4.2,1,6.3,1c-0.2-1.7-0.5-3.7-1.4-4.6
				C400.5,216.6,398,220.1,397.3,221.3z"/>
		</g>
		<g class="st11">
			<path class="st10" d="M428.9,231.5c-1.4-2.6,0.1-6.2,0.1-8.9c0-0.5,0.7-0.5,0.8,0c0,0.1,0,0.1,0,0.2c1.4-0.4,2.8-0.6,4.3-0.7
				v-26.8c-2-0.6-4.4-1.2-5.5-2.9c-1.4-2.2,0.3-5.1,0.7-7.4c0,0,0,0,0,0c-0.4,0.2-0.8-0.4-0.4-0.6c1.7-0.9,3.5-1.5,5.2-2.3v-61.6
				c-4.4-0.9-9.8-1.3-13.8-3.4c-0.6,3.6-2.2,6.5-5.4,7.9c-5.6,2.6-12.1-1.3-14-6.7c-2.6-7.3-0.3-15.3-0.3-22.8c0-1.9,3-1.9,3,0
				c0,5.8-1.2,11.6-0.7,17.4c0.3,3.6,1.3,7.4,4.8,9c2.4,1.1,5.5,1.4,7.4-0.7c1.4-1.6,2-3.8,2.2-6.3c-0.6-0.6-1.1-1.3-1.5-2.1
				c-3.1-5.7-2-13.2-1.5-19.3c0.1-1.6,2.5-2.1,2.9-0.4c1.1,4.6,3.6,13.2,3.4,20.5c3.5,2.6,9,3,13.5,3.8V28.7c-0.9,0.3-1.7,0.6-2.5,1
				c-0.2,6.3-0.9,12.5-1.2,18.7c-0.3,6.9,0.3,13.7,0.2,20.5c0,1.9-3,1.9-3,0c0.1-6.9-0.6-13.7-0.2-20.5c0.3-5.8,0.9-11.5,1.1-17.3
				c-2.2,1.1-4.3,2.4-6.3,3.8c-1.6,1.1-3.1-1.5-1.5-2.6c2.6-1.7,5.2-3.3,7.9-4.6c0,0,0-0.1,0-0.1c0-1.5,1.8-1.8,2.6-1
				c1-0.4,1.9-0.7,2.9-1.1V0h-50h0v21.2c7.4,2.3,14.8,4.6,22.4,6.4c1.9,0.4,1.1,3.3-0.8,2.9c-7-1.6-13.9-3.8-20.8-5.9
				c-0.1,3.8-0.6,7.7-0.8,11.6c5.5,0,11.2,1.2,16.1,3.6c1.7,0.9,0.2,3.4-1.5,2.6c-4.5-2.2-9.6-3.1-14.6-3.2v6.1c0,0.5,0.1,1,0.2,1.6
				c1.3,9.3,9.2,11.3,16.9,14.1c1.8,0.7,1,3.6-0.8,2.9c-5.7-2.1-12.6-3.8-16.3-8.8v44.2c0.9,1.1,1.5,2.5,1.9,4.1
				c1.1,4.9,0.6,10.4-1.9,14.9v103.3c0.2,0.5,0.8,1.9,1.1,2c0.6,0.2,1.3-0.8,1.7-1.2c2.2-2.3,3.5-5.2,5.7-7.5
				c0.3-0.4,0.9,0.2,0.5,0.5c-2.7,2.9-4.2,7-7.7,9.2c-0.2,0.1-0.4,0-0.5-0.1c-0.2-0.4-0.5-0.8-0.7-1.3v51.5c0,0,0,0,0,0
				c10.4,4.3,21.5,7.1,34.8,7.4c5,0.1,10.1,0,15.2-0.1v-46.9C432,234.1,429.8,233.4,428.9,231.5z M392,185c-1.7,0-3.3,0-5,0
				c-0.5,0-0.5-1,0-1c1.7,0,3.3,0,5,0C392.5,184,392.5,185,392,185z M385.7,180.5c1.4-1.9,3.8-1.7,5.9-2.2c0.5-0.1,0.7,0.6,0.2,0.7
				c-1.8,0.4-4.3,0.2-5.4,1.8C386,181.2,385.4,180.9,385.7,180.5z M394.6,189.7c-2.4-0.6-5.4,0.5-7.2-1.7c-1.5-1.8-1.7-4.4-2.1-6.6
				c-0.1-0.5,0.7-0.7,0.7-0.2c0.3,2,0.5,4.4,1.8,6.1c1.6,2.1,4.7,1.1,7,1.6C395.2,189.1,395,189.8,394.6,189.7z M404,230
				c-0.1-1.9-0.2-3.8-0.4-5.7c0-0.2-0.1-0.5-0.1-0.8c-2.3,0-4.5-1-6.8-1c-0.6,1.4-1,2.9-1,4.5c0,0.5-0.7,0.5-0.8,0
				c-0.1-4.1,2.5-9.1,6.6-10.3c0.2,0,0.3,0,0.4,0.2c2.7,3.5,2.5,8.9,2.7,13.1C404.7,230.5,404,230.5,404,230z M410.1,193
				c-3.7-2.5-5.2-7.1-8.9-9.4c0.4,2.3,0.3,4.7,0.2,7.1c0,0.5-0.8,0.5-0.8,0c0-2.5,0.2-5.1-0.3-7.6c0,0-0.1-0.1-0.1-0.1
				c-0.3-0.1-0.2-0.4,0-0.6c-0.1-0.4-0.3-0.8-0.4-1.2c-0.2-0.4,0.5-0.8,0.6-0.4c0.3,0.6,0.4,1.1,0.6,1.7c3.6,1.9,5,5.5,7.8,8.4
				c0.3,0.3,1.1,1.2,1.6,1.2c0.4-0.1,0.8-1.5,0.8-1.7c0.3-1,0.2-2.1,0.2-3.2c-0.1-2.1-0.7-4.1-1.3-6c-0.2-0.5,0.6-0.7,0.7-0.2
				c1.1,3.4,2.8,9.1-0.2,12C410.4,193,410.2,193.1,410.1,193z M419.3,228c-2.3,0.1-6.9,1.4-8.2-1.2c-1.4-2.8,0-6.6,0.1-9.5
				c0-0.5,0.8-0.5,0.8,0c-0.1,2.6-1,5.3-0.5,7.9c0.6,3.6,5.3,2.1,7.8,2C419.8,227.3,419.8,228,419.3,228z M420.3,190.9
				c-0.3,0.4-0.9,0-0.6-0.4c1.3-1.8,3.3-3.9,3.4-6.2c0.1-3.1-3.5-3.3-5.7-2.4c-0.3,2.8-0.1,5.3,1,8c0.2,0.4-0.5,0.6-0.7,0.2
				c-1.1-2.6-1.4-5.1-1.1-7.8c0,0,0,0,0,0c-0.4,0.3-0.8-0.4-0.4-0.6c2.1-1.4,5.9-1.6,7.3,0.9C425,185.4,421.8,188.8,420.3,190.9z"/>
		</g>
		<g class="st11">
			<path class="st10" d="M428.9,191.3c0.5,2,3.1,2.7,5.1,3.3V189c-1.2,0.5-2.4,1-3.5,1.6c-0.4,0.2-0.8-0.4-0.4-0.6
				c1.2-0.7,2.6-1.2,3.9-1.8v-5.4c-1.3,0.6-2.7,1.1-4,1.8C429.8,186.7,428.3,189.2,428.9,191.3z"/>
		</g>
		<g class="st11">
			<path class="st10" d="M430.1,232c1,1.1,2.5,1.6,3.9,2.2V229c-1.1,0-2,0-3.1,0.3c-0.5,0.1-0.6-0.6-0.1-0.7
				c1.1-0.3,2.1-0.4,3.2-0.4v-5.4c-1.5,0.1-2.9,0.3-4.3,0.8C429.4,226.4,428.2,230,430.1,232z"/>
		</g>
	</g>
</g>
<g id="ridD6">
	<g>
		<g class="st11">
			<path class="st10" d="M381.6,215.7c0-0.5,0.8-0.5,0.8,0c-0.2,2,0.6,3.9,1.6,5.6c0,0,0,0.1,0.1,0.2v-29.7
				c-0.1,0.3-0.5,0.4-0.7,0.1c-1.3-3-4.7-4.4-7.6-5.2c-0.3-0.1-0.4-0.5-0.1-0.7c1.9-1.1,4.6-3.5,1.5-5c-1.7-0.8-4.4-0.8-5.1,1.2
				c-0.1,0.3-0.4,0.3-0.6,0.2c0.2,2.7,0.9,5.3,1.6,7.9c0.1,0.5-0.6,0.7-0.7,0.2c-0.7-3-1.6-6-1.7-9.1c0-0.5,0.7-0.5,0.8,0
				c0,0.1,0,0.3,0,0.4c1.1-2.4,4.3-2.6,6.4-1.3c3,1.8,0.9,4.3-1.2,5.7c2.9,0.9,6,2.4,7.3,5.3c0,0,0,0,0,0v-73.3
				c-0.4,0.7-0.8,1.4-1.3,2.1c-4.1,5.5-10.4,8.9-14.4,14.5c-1.1,1.6-3.7,0.1-2.6-1.5c4.9-6.8,14.7-11.1,17-19.6
				c1.4-5,1.4-13.7-4.9-15.2c-2.7-0.7-9.9-0.6-11.4,2.3c-0.4,8.8-1.4,17.7,0.6,26.4c0.4,1.9-2.5,2.7-2.9,0.8
				c-2.5-11.1-0.5-22.2-0.6-33.4c0-1.9,3-1.9,3,0c0,0.7,0,1.4,0,2.1c2.9-1.5,7.1-1.5,9.8-1.4c3.3,0.2,6,1.6,7.7,3.9V54.9
				c-0.7-0.9-1.3-1.9-1.7-3.1c-1.6-4.2-1.8-8.8-1.6-13.4c-0.3-0.5-0.2-1.2,0.1-1.7c0.3-4.5,0.9-8.9,1-13.1c0,0,0-0.1,0-0.1
				c-1.3-0.8-0.5-3.2,1.2-2.7c0.3,0.1,0.6,0.2,0.9,0.3V0h-50v192.1c0.7,0.4,1.5,0.7,2.4,0.9c0.5,0.1,0.3,0.8-0.2,0.7
				c-0.8-0.2-1.6-0.4-2.2-0.7v19.1c1,0,1.9-0.1,2.8-0.6c0.4-0.2,0.8,0.4,0.4,0.6c-1,0.5-2.1,0.6-3.2,0.6v4c1.1,0,2.2,0.1,3.3,0.1
				c0.5,0,0.5,0.8,0,0.8c-0.5,0-2-0.2-3.3-0.2v5.3c1,0.1,1.9,0.1,2.8,0.2c0.5,0.1,0.3,0.8-0.2,0.7c-0.8-0.1-1.7-0.1-2.6-0.2v32.9h0
				c11.1,1.2,19.1,2.3,29.3,7.9c7,3.8,13.7,7.3,20.7,10.2V223C382.7,220.7,381.4,218.3,381.6,215.7z M360.6,50.5
				c1-6.4,1.6-13,1.9-19.5c0.1-1.9,3.1-1.9,3,0c-0.4,8.7-1.1,17.5-3.2,26c-1.4,5.6-0.6,9.4,4.4,12.7c2.9,2,6.2,3.3,9.4,4.7
				c1.8,0.8,0.2,3.4-1.5,2.6c-6.2-2.7-14.9-6-16.1-13.6C357.8,59.1,359.9,54.6,360.6,50.5z M338.6,178.3c2.9-0.8,5.7-1.9,8.7-2.3
				c0.5-0.1,0.7,0.7,0.2,0.7c-3,0.5-5.8,1.5-8.7,2.3C338.3,179.2,338.1,178.4,338.6,178.3z M344.6,188.4c-2-0.5-4.2-1.1-5.7-2.6
				c-1.5-1.5-1.7-3.8-1.6-5.8c0-0.5,0.8-0.5,0.8,0c-0.1,1.9,0,4.1,1.5,5.5c1.4,1.3,3.4,1.7,5.2,2.2
				C345.2,187.8,345,188.5,344.6,188.4z M345,183c-2,0-6,0-6,0c-1,0-1-1,0-1c2,0,4,0,6,0C346,182,346,183,345,183z M354.5,216.7
				c-1.4-0.9-4.2-2.4-5.9-2c-1.8,0.4,0,2.7,0.7,3.5c0.9,0.9,2.2,1.4,3.2,2.3c3.7,3.6-2.8,7.6-6.2,7c-0.5-0.1-0.3-0.8,0.2-0.7
				c1.9,0.4,4.1-0.6,5.4-1.9c1.9-2,0.3-3.7-1.5-4.9c-1.4-0.9-3.7-2.9-3.4-4.8c0.4-3,6.7,0.2,7.9,1
				C355.3,216.3,354.9,216.9,354.5,216.7z M354.8,192c1.7-0.8,5.2-1.3,3.3-4c-0.8-1.2-2.8-2-3.9-2.8c-1.5-1.1-3-2.6-2.8-4.6
				c0.3-2.8,4.7-4.5,5.3-1.1c0.1,0.5-0.6,0.7-0.7,0.2c-0.3-1.8-2.1-1.8-3.1-0.6c-1.2,1.3-0.7,3,0.3,4.2c1.4,1.7,3.7,2.5,5.3,4
				c0.8,0.8,1.7,1.9,1.1,3.1c-0.7,1.4-3.1,1.6-4.4,2.2C354.8,192.9,354.4,192.2,354.8,192z M370.3,216.7c-2.4,0.2-4.9,0-7.3-0.5
				c0,0,0,0,0,0.1c0.8,2.7,0.6,5.6,1.3,8.3c0.1,0.5-0.6,0.7-0.7,0.2c-0.7-2.7-0.6-5.6-1.3-8.3c0-0.2,0-0.3,0.1-0.4
				c-1.5-0.4-3-1-4.3-1.7c-0.4-0.2,0-0.9,0.4-0.6c3.5,2,7.8,2.5,11.8,2.3C370.8,215.9,370.8,216.7,370.3,216.7z M375.7,210.1
				c0.1-0.2,0.2-0.4,0.3-0.7c0.2-0.4,0.9-0.1,0.6,0.4c-0.1,0.2-0.2,0.4-0.3,0.7C376.1,211,375.5,210.6,375.7,210.1z M376.3,224.4
				c-0.9-3-1.3-6-1.3-9.1c0-0.5,0.7-0.5,0.8,0c0,3.1,0.4,6,1.3,8.9C377.2,224.7,376.4,224.9,376.3,224.4z"/>
		</g>
		<g class="st11">
			<path class="st10" d="M384,39.1c0,0-0.1,0-0.1,0c-0.1,2,0,4.1,0.1,6.1V39.1z"/>
		</g>
	</g>
</g>
<g id="ridD7">
	<g>
		<g class="st11">
			<path class="st10" d="M330.4,212.6c-0.1,1.9-0.6,3.7-0.7,5.6c0.5-0.3,0.9-0.6,1.3-1.1c0.2-0.2,0.5-0.1,0.6,0.1
				c0.5-0.3,1.2-0.3,1.6-0.4c0.3,0,0.6,0,0.9,0v-4C332.8,212.8,331.6,212.7,330.4,212.6z"/>
		</g>
		<g class="st11">
			<path class="st10" d="M331.7,218.1c-0.1,0.4-0.6,0.3-0.7,0c-0.4,0.4-0.9,0.7-1.4,1c0,0.2,0,0.4,0,0.6c0.2,2.6,2.3,3,4.4,3.1v-5.3
				C332.8,217.5,331.8,217.6,331.7,218.1z"/>
		</g>
		<g class="st11">
			<path class="st10" d="M329.2,221.2c-0.2-0.6-0.4-1.2-0.4-1.9c-0.1-0.1-0.2-0.4,0-0.5c0-2.1,0.7-4.3,0.9-6.2c0,0-0.1,0-0.1,0
				c-0.5,0-0.5-0.8,0-0.8c1.4,0,3,0.3,4.5,0.3V193c-3.9-1.9-4.5-6.1-4.4-10.6c0-0.5,0.8-0.5,0.8,0c-0.1,4,0.3,8,3.6,9.8V0h0h-46.1
				c0.1,54.6,5.5,108.9,6.3,163.6c0.3,24.9-2.9,53.7,9.8,76.8c5.7,10.4,8.2,13.7,24.2,15.4c2,0.2,3.9,0.4,5.7,0.6v-32.9
				C332,223.4,330,223.1,329.2,221.2z M312,223.3c-0.2-2.5-0.7-4.9-0.9-7.4c-0.1-0.1-0.1-0.2-0.1-0.4c0,0,0-0.1,0-0.1
				c0-0.5-0.1-1-0.1-1.4c0-0.4,0.6-0.5,0.7-0.1c0.6-1.1,1.4-2,2.7-2.5c2-0.7,4.3-0.3,6.3-0.1c0.5,0,0.5,0.8,0,0.8
				c-1.6-0.2-3.4-0.5-5.1-0.2c-2.1,0.4-3.2,1.8-3.8,3.7c0.2,2.6,0.7,5.2,0.9,7.8C312.7,223.8,312,223.8,312,223.3z M322.8,217
				c-3.4,0.5-6.8,2.1-9.6,4c-0.4,0.3-0.8-0.4-0.4-0.6c2.8-1.9,6.4-3.5,9.8-4C323,216.2,323.2,217,322.8,217z"/>
		</g>
	</g>
</g>
<g id="ridD1">
	<g>
		<g class="st11">
			<path class="st10" d="M638.2,275.4c0.1-38.8,0.2-77.4-6.3-115.6c-3.1-18-2.2-37.2-2.2-55.5c0.1-21.8,4-46.1,3.2-67.8
				c-0.3-8,4-26.6-0.4-36.5H587v240.3c1.2,0.4,2.2,1.5,2.9,2.4c0.2,0.3,0,0.6-0.3,0.7c-0.1,0-0.2,0-0.3-0.1c0,0,0,0,0,0
				c-0.5-0.6-1.5-1.9-2.4-2.2c0,0,0,0,0,0v12.1c0.3,0.2,0.6,0.3,0.9,0.5c0.4,0.2,0,0.9-0.4,0.6c-0.2-0.1-0.3-0.2-0.5-0.3v47.6
				c2.6,0.7,5.3,1.3,8.2,1.9c9.1,1.9,31,6.2,40.9,3.1C645.6,303.7,638.2,283.2,638.2,275.4z M590.6,208.4c1.8,1.4,4,3.1,6.3,3.3
				c2.5,0.2,6.7-3.3,3.5-5.2c-2-1.2-4.6-1.7-5.3-4.2c-0.4-1.5,0.5-2.4,2-2.6c2.3-0.4,4.6,0.8,6.2,2.4c0.3,0.3-0.2,0.9-0.5,0.5
				c-1.3-1.3-3.1-2.3-5-2.2c-3.4,0.2-1.1,3.4,0.6,4.4c1.3,0.8,4.1,1,4.2,2.9c0.2,2.2-2.5,4.5-4.5,4.8c-3,0.4-5.8-1.8-8-3.6
				C589.7,208.6,590.2,208.1,590.6,208.4z M603.3,234.6c-2,1.8-4.9,2.3-6.7,4.3c0,0,0,0-0.1,0.1c0.2-0.1,0.6,0.1,0.5,0.4
				c-0.2,0.8-0.4,1.6-0.7,2.4c2,0.5,3.9,1.2,6,1.1c0.5,0,0.5,0.7,0,0.8c-2.1,0.1-4.1-0.6-6.2-1.1c-0.4,1.5-0.8,3.1-0.6,4.5
				c0.5,2.8,4.8,3.1,6.9,4.3c0.4,0.2,0,0.9-0.4,0.6c-2.1-1.1-6.4-1.4-7.2-4.1c-0.5-1.6-0.1-3.6,0.5-5.5c-0.1,0-0.1,0-0.2,0
				c-0.5-0.1-0.3-0.8,0.2-0.7c0.1,0,0.1,0,0.2,0c0.3-0.9,0.5-1.7,0.7-2.5c0-0.1,0.1-0.2,0.1-0.2c-0.3,0.1-0.6-0.3-0.4-0.6
				c1.8-2.1,4.6-2.6,6.7-4.3C603.1,233.8,603.6,234.3,603.3,234.6z M617.3,243.3c0.1-2.8-2.5-4.3-4.9-2.8c-3.2,2-0.6,5.6,1.4,7.3
				c2,1.6,4,3.3,2.1,5.9c-2.4,3.3-5.4,0.2-7.7-1.4c-0.4-0.3,0-0.9,0.4-0.6c0.9,0.6,1.7,1.4,2.7,1.9c0.6,0.4,1.4,0.9,2.1,0.9
				c1.2,0,2.7-1.7,2.6-2.9c-0.1-1.9-2.8-3.1-3.9-4.3c-1.5-1.6-2.6-3.9-1.4-6c0.9-1.5,2.8-2.3,4.4-2c2.1,0.3,3,2.1,3,4.1
				C618,243.8,617.3,243.8,617.3,243.3z"/>
		</g>
		<g>
			<g>
				<path class="st10" d="M590,149.9c0,2.2-0.2,4.3-0.2,6.5c1.2-0.6,2.7-2,3.3-2.9C594.3,151.6,592.3,148.5,590,149.9z"/>
			</g>
			<g>
				<path class="st10" d="M599.9,142c-2.2-1.5-5.6-0.8-8.1-0.8c-1.6,0-3.2,0-4.8-0.1v6.8c0.3,0.1,0.3,0.5,0,0.7v2.5
					c0.1,0.1,0.1,0.2,0,0.3v12.9c0.8,0.1,1.6,0.2,2.4,0.3c1.6,0.2,5.9,1.6,7.3,0.9C601.6,163.2,598.1,147.5,599.9,142z M592.3,155.4
					c-0.8,0.7-1.6,1.4-2.5,1.8c0,0,0,0.1,0,0.1c0,0.4-0.6,0.5-0.7,0.1c0,0,0,0-0.1,0c-0.5,0.1-0.5-0.7,0-0.8c0,0,0,0,0.1,0
					c0-2.4,0.3-4.7,0.2-7.1c0-0.3,0.2-0.4,0.4-0.4c2.1-1.2,4.7,0.6,4.6,3C594.2,153.6,593.3,154.6,592.3,155.4z"/>
			</g>
		</g>
	</g>
</g>
<g id="ridD2">
	<g>
		<g>
			<g>
				<g class="st11">
					<path class="st10" d="M582.3,246.6c0-0.4,0.1-0.8,0.2-1.2C582.4,245.8,582.3,246.2,582.3,246.6z"/>
				</g>
				<g class="st11">
					<path class="st10" d="M586.5,240.9L586.5,240.9c-1.4,0-2.5,1.1-3.2,2.2c-0.3,0.5-0.5,1.1-0.7,1.7c0.2-0.6,0.4-1.2,0.7-1.7
						C584,242,585.1,240.9,586.5,240.9z"/>
				</g>
				<g class="st11">
					<path class="st10" d="M535,97.5v0.6c0.1-0.1,0.2-0.3,0.3-0.4C535.2,97.6,535.1,97.6,535,97.5z"/>
				</g>
				<g class="st11">
					<path class="st10" d="M550.4,207.9c1.9-0.8,3.9-3.6,3.7-5c-0.4-3.2-5.3-1.7-7,0.1h0.9c0,1.7,0,3.2,0,4.8c0.1,0,0.1-0.1,0.2-0.1
						C549,207.6,549.7,207.7,550.4,207.9z"/>
				</g>
				<g class="st11">
					<path class="st10" d="M586.8,199c-2,0.6-4.1,0.5-6.2,0.7c0.1,0.1,0.2,0.2,0.2,0.4c-1.2,4.1,0.2,8.2,0.7,12.2
						c0.1,0.5-0.7,0.5-0.8,0c-0.5-4.1-1.9-8.3-0.7-12.4c0-0.1,0.1-0.1,0.1-0.2c-1.5,0.2-2.9,0.5-4.2,1.2c-0.4,0.2-0.8-0.4-0.4-0.6
						c3.4-2,7.5-1,11.1-2c0.2-0.1,0.4,0.1,0.4,0.2V0h-52v93.8c0.7,0.5,1.3,1,2,1.5c2.3-3.1,5-5.9,8.3-8.1c1.6-1.1,3.1,1.5,1.5,2.6
						c-3,2-5.4,4.6-7.6,7.5c5.7,5.6,10,13.6,14.4,19.1c1.2,1.5-0.9,3.6-2.1,2.1c-4.1-5.2-8.4-13.3-14-18.8c-0.9,1.3-1.7,2.6-2.5,4
						v101.4c1.3-1.1,3.2-1.5,5.1-0.8c0.5,0.2,0.3,0.9-0.2,0.7c-1.9-0.7-3.7-0.2-4.9,1.1v6.3c1.3,1,3.4,1.1,5.2,0.6
						c0.5-0.1,0.7,0.6,0.2,0.7c-1.9,0.5-4,0.4-5.4-0.4v84c9.4,0,18.8-0.4,28.2,0c8.8,0.4,16.1,2.3,23.8,4.3l0,0V254
						c-3-2.1-6.4-4.9-5.1-9.3c0.5-1.7,1.6-4.2,3.6-4.6c0.5-0.1,1.5,0,1.5,0.1v-41.5C587,198.9,586.9,199,586.8,199z M570.1,201.4
						c-2.9,0.9-6.1,1.3-8.5,3.2c-0.4,0.3-0.9-0.2-0.5-0.5c2.5-2.1,5.8-2.4,8.8-3.4C570.4,200.5,570.6,201.2,570.1,201.4z
						 M567.1,207.7c-1.7,0.3-3.3,0.9-4.9,1.6c-0.4,0.2-0.8-0.5-0.4-0.6c1.6-0.7,3.3-1.3,5.1-1.7
						C567.4,206.9,567.6,207.6,567.1,207.7z M551.2,53.2c-1.5-8.7-1.4-26.1-1.4-27.2c-3.4,0.4-6.7,1.4-9.7,3.6
						c-1.6,1.1-3.1-1.5-1.5-2.6c6.9-5,15.3-4.2,23.4-4.2c1.9,0,1.9,3,0,3c-3.1,0-6.2-0.2-9.2,0c0,0.1,0,0.1,0,0.2
						c0,9-0.2,17.7,1.3,26.4C554.4,54.2,551.5,55.1,551.2,53.2z M545.1,244c-3.9,1.4-7.5-0.8-7.7-5c-0.1-1.5,0.4-3.1,1.7-4
						c1.6-1.1,3.6-0.2,5.1,0.7c0.4,0.3,0,0.9-0.4,0.6c-1.3-0.8-3.1-1.6-4.5-0.5c-1,0.8-1.2,2.2-1.1,3.4c0.3,3.7,3.4,5.3,6.7,4.1
						C545.4,243.1,545.6,243.9,545.1,244z M548,208.4c0,2.8,0,5.5,0,8.6h-1c0-4.8,0-13.2,0-13.9c-0.1,0.1-0.3,0.3-0.3,0.4
						c-0.2,0.4-0.9,0-0.6-0.4c1.3-2.4,8.1-4.6,8.8-0.6c0.3,1.8-1.5,4.6-3.6,5.8c2.2,1.4,3.6,4.6,4.5,6.9c0.2,0.5-0.6,0.6-0.7,0.2
						c-0.9-2.3-2.3-5.6-4.7-6.7C549.5,209,548.7,208.9,548,208.4z M561.1,250.7c-1.9,0.3-7.1,2.6-8.3-0.2c-0.3-0.7-0.2-1.8-0.3-2.6
						c-0.2-1.2-0.3-2.4-0.3-3.7c0-2.4,0.3-4.8,0.4-7.3c-0.2-0.1-0.4-0.4-0.2-0.6c0.1-0.1,0.1-0.1,0.2-0.2c0-0.1,0-0.2,0-0.2
						c0-0.4,0.4-0.5,0.6-0.3c1.9-1.2,4.5-1.2,6.7-1.1c0.5,0,0.5,0.8,0,0.8c-2.2-0.1-4.8-0.2-6.6,1.2c-0.1,1.6-0.2,3.2-0.3,4.8
						c0-0.1,0.1-0.1,0.2-0.1c2.3-0.5,4.7-0.7,7.1-0.7c0.5,0,0.5,0.8,0,0.8c-2.3-0.1-4.6,0.1-6.9,0.7c-0.2,0-0.4-0.1-0.4-0.2
						c-0.1,2-0.2,4,0.2,5.9c0,0.3,0.2,1.2,0.3,1.5c0.6,1.3,1.7,1.8,3.3,1.6c1.4-0.2,2.7-0.7,4.1-0.9
						C561.4,249.9,561.6,250.6,561.1,250.7z M562,211.9c-1.5-2.4-2-5.8-2-8.6c0-0.5,0.7-0.5,0.8,0c0,2.8,0.6,7.2,2.7,9.2
						c1.9,1.8,4.8,1.8,6.8,3.5c0.4,0.3-0.2,0.8-0.5,0.5C567.4,214.6,563.7,214.7,562,211.9z M575,244.1c-1.4,0.3-2.7-1.1-3.6-2
						c-1.1-1.1-2.3-2.9-3.8-3.8c0.1,2.2,0.1,4.4,0.8,6.6c0.1,0.5-0.6,0.7-0.7,0.2c-0.7-2.3-0.6-4.8-0.8-7.2
						c-0.3-0.1-0.5-0.2-0.8-0.2c-0.5-0.1-0.5-0.8,0-0.8c0.3,0,0.5,0.1,0.8,0.2c-0.1-0.8-0.2-1.6-0.5-2.4c-0.1-0.5,0.6-0.7,0.7-0.2
						c0.3,1,0.4,1.9,0.5,2.9c1.8,0.9,3.2,2.9,4.6,4.3c0.6,0.6,1.3,1.4,2.1,1.5c1.2,0.2,1.7-0.8,2-1.9c0.4-1.4,0.7-3.2,0.4-4.7
						c-0.1-0.5,0.6-0.7,0.7-0.2C577.7,238.5,577.6,243.6,575,244.1z"/>
				</g>
			</g>
			<g class="st11">
				<path class="st10" d="M587,241c-1,0-1.7-0.2-2.2,0.4c-1,1.4-2.2,2.9-2.4,4.6c-0.1,0.4,0.2,1.3,0.2,1.7c0.1,0.8,0.7,1.4,1.2,2
					c1,1,3.2,3.4,3.2,3.4V246v-3.5V241z"/>
			</g>
		</g>
		<g>
			<g>
				<path class="st10" d="M535,143.3v3.7c0.3,0.1,0.7,0.2,1,0.4C537.6,146.6,536.8,143.4,535,143.3z"/>
			</g>
			<g>
				<path class="st10" d="M552.3,146.2c0,0.4-0.5,0.5-0.7,0.2c-0.3,0.9-0.1,2.4-0.1,3.1c0,0.4,0,0.9,0,1.3c0,0.4,0,0.8,0.1,1.2
					c0.1,0.5,0.1,1.1,0.5,0.7c0.7-0.7,0.4-2.5,0.5-3.4c0-0.4,0.1-0.7,0.2-1.1c0.1-0.3,0.1-0.7,0.1-1c0-0.3,0-0.5,0-0.8
					C552.7,146.2,552.5,146.2,552.3,146.2z"/>
			</g>
			<g>
				<path class="st10" d="M586.9,151.7c-0.8,0.4-1.7,0.6-2.5,1.1c-0.4,0.3-0.9,0.5-1.3,0.7c0,1-0.1,2.1-0.5,3
					c-0.2,0.4-0.8,0.1-0.6-0.4c0.3-0.7,0.4-1.6,0.4-2.4c0,0-0.1,0-0.1,0c-0.5,0.1-0.7-0.6-0.2-0.7c0.1,0,0.2-0.1,0.3-0.1
					c0-0.4,0-0.8-0.1-1.2c0-0.8-0.2-1.9,0.2-2.7c0.8-1.4,3.2-1,4.4-1.1c0.1,0,0.1,0,0.2,0v-6.8c-3.4-0.1-6.9-0.2-10.3-0.4
					c-9.6-0.5-19.1-2.1-28.7-2.5c-4.3-0.2-8.7-0.5-13-0.8v5.1c1.5,0,2.6,1.5,2.7,3.4c0,0.9-0.5,1.6-1.2,2c1.2,1.4,2,3.7,2.9,4.7
					c0.3,0.4-0.2,0.9-0.5,0.5c-0.8-0.9-1.8-3.7-3.1-4.9c-0.3,0.1-0.5,0.1-0.8,0.1v9.6c12.8,2,25.7,3.3,38.5,4.7
					c4.5,0.5,9,1.2,13.5,1.7v-12.9C587,151.6,586.9,151.6,586.9,151.7z M547,153.4c-0.4-2.5,0-5-0.1-7.4c-0.4,0.6-0.8,1.3-1.2,1.9
					c-0.4,0.6-0.7,1.2-1.5,1.5c-0.2,0.1-0.3,0-0.4-0.2c-0.6-1-1.2-1.8-1.8-2.8c0.1,2.1,0.5,4.2,0.7,6.3c0,0.5-0.7,0.5-0.8,0
					c-0.3-2.6-0.7-5.1-0.7-7.7c0,0,0,0,0-0.1c-0.2-0.4,0.4-0.8,0.6-0.4c0.1,0.1,0.1,0.1,0.1,0.2c0.4,0.8,0.9,1.6,1.5,2.4
					c0.5,0.7,0.6,1.6,1.3,0.8c0.8-0.9,1.6-2.4,2.1-3.5c0.2-0.4,0.7-0.1,0.7,0.2c0.4,2.8-0.3,5.7,0.2,8.5
					C547.8,153.7,547.1,153.9,547,153.4z M553.6,147.6c-0.2,1.3-0.2,2.5-0.4,3.8c-0.1,0.9-0.3,1.9-1.2,2.3c-0.1,0.1-0.3,0.1-0.5-0.1
					c-1-1.3-0.7-3.1-0.8-4.7c0-1.1-0.3-3,0.8-3.8c0.1-0.1,0.2-0.1,0.2-0.1c0.2-0.3,0.5-0.4,0.9-0.2
					C553.8,145.3,553.7,146.7,553.6,147.6z M561.3,155.7c-0.2,0.2-0.5,0.2-0.6-0.1c-0.7-1.4-1.3-2.9-1.8-4.5c-0.4-1.4-0.8-3.3-2-4.3
					c0,0.8,0.3,1.6,0.4,2.4c0.2,1.2,0.1,2.5,0.2,3.7c0,0.5-0.7,0.5-0.8,0c0-1.4,0-2.9-0.3-4.3c-0.2-0.9-0.4-1.8-0.1-2.8
					c0.1-0.5,0.8-0.3,0.7,0.2c1.1,0.7,1.6,2,2.1,3.2c0.6,1.8,1.2,3.7,2,5.4c0.4-1,0.1-2.7,0-3.6c-0.2-1.6-0.1-3.2-0.1-4.9
					c0-0.5,0.8-0.5,0.8,0c0,2.1,0.1,4,0.2,6.1C562,153.3,562.1,154.9,561.3,155.7z M571.2,146.7c-1,0-1.9-0.1-2.9-0.1
					c0,0.1,0,0.1,0,0.2c-0.5,1.1-0.3,2.5-0.2,3.6c0.1,1.1,0.1,1.6,0.1,3.6h-0.8c0-2,0-3-0.1-4.4c-0.1-0.9-0.1-2,0.2-2.9
					c-1,0.1-2.1,0.3-3.1,0.4c-0.5,0-0.5-0.7,0-0.8c1.2-0.1,2.4-0.3,3.5-0.4c1.1-0.1,2.2,0.1,3.3,0.1
					C571.7,146,571.7,146.7,571.2,146.7z M579,151c-2,0-5,0-5,0v-1c2,0,3,0,5,0V151z"/>
			</g>
			<g>
				<path class="st10" d="M584.1,148.9c-1.5,0.4-1.2,1.5-1.2,2.7c0,0.4,0,0.8,0.1,1.1c0.4-0.2,0.8-0.5,1.2-0.7
					c0.7-0.4,1.5-0.6,2.3-1c0.2-0.1,0.4,0,0.5,0.2v-2.5c0,0-0.1,0-0.2,0.1C586,148.8,585,148.7,584.1,148.9z"/>
			</g>
		</g>
	</g>
</g>
</svg>
